<svg width="24" height="12" viewBox="0 0 24 12" fill="none" xmlns="http://www.w3.org/2000/svg">
<circle cx="6" cy="6" r="1" fill="#666666"/>
<path fill-rule="evenodd" clip-rule="evenodd" d="M1.64645 0.646447C1.84171 0.451184 2.15829 0.451184 2.35355 0.646447L4.77018 3.06308C5.16715 3.02173 5.5785 3 6 3C9.31371 3 12 4.34315 12 6C12 6.89795 11.211 7.70376 9.96066 8.25356L11.3536 9.64645C11.5488 9.84171 11.5488 10.1583 11.3536 10.3536C11.1583 10.5488 10.8417 10.5488 10.6464 10.3536L8.91552 8.62263C8.89322 8.62884 8.87083 8.63499 8.84835 8.64106L7.51408 7.30679C7.52732 7.29146 7.54033 7.27594 7.5531 7.26021L4.73979 4.4469C4.72406 4.45967 4.70854 4.47268 4.69321 4.48592L3.48319 3.2759C3.50635 3.27054 3.5296 3.26525 3.55292 3.26003L1.64645 1.35355C1.45118 1.15829 1.45118 0.841709 1.64645 0.646447ZM2.39481 3.60173C0.940426 4.14917 0 5.01967 0 6C0 7.65685 2.68629 9 6 9C6.58123 9 7.14315 8.95868 7.67467 8.88159L6.67596 7.88288C6.46482 7.95869 6.23723 8 6 8C4.89543 8 4 7.10457 4 6C4 5.76277 4.04131 5.53518 4.11712 5.32404L3.36244 4.56936C3.1313 4.9946 3 5.48197 3 6C3 6.63429 3.19685 7.2226 3.53279 7.70718C3.02967 7.5794 2.58173 7.41547 2.20457 7.22689C1.22509 6.73715 1 6.2456 1 6C1 5.7544 1.22509 5.26285 2.20457 4.77311C2.49196 4.62941 2.82045 4.50003 3.18312 4.39005L2.39481 3.60173ZM5.72575 4.01865L7.98135 6.27425C7.99365 6.18459 8 6.09304 8 6C8 4.89543 7.10457 4 6 4C5.90696 4 5.81541 4.00635 5.72575 4.01865ZM8.7962 7.08909L9.19204 7.48493C9.40893 7.40573 9.61067 7.31927 9.79543 7.22689C10.7749 6.73715 11 6.2456 11 6C11 5.7544 10.7749 5.26285 9.79543 4.77311C9.41827 4.58453 8.97033 4.4206 8.46721 4.29281C8.80315 4.77739 9 5.36571 9 6C9 6.38417 8.92779 6.75148 8.7962 7.08909Z" fill="#666666"/>
<circle cx="18" cy="6" r="1" fill="#222222"/>
<path fill-rule="evenodd" clip-rule="evenodd" d="M13.6464 0.646447C13.8417 0.451184 14.1583 0.451184 14.3536 0.646447L16.7702 3.06308C17.1671 3.02173 17.5785 3 18 3C21.3137 3 24 4.34315 24 6C24 6.89795 23.211 7.70376 21.9607 8.25356L23.3536 9.64645C23.5488 9.84171 23.5488 10.1583 23.3536 10.3536C23.1583 10.5488 22.8417 10.5488 22.6464 10.3536L20.9155 8.62263C20.8932 8.62884 20.8708 8.63499 20.8484 8.64106L19.5141 7.30679C19.5273 7.29146 19.5403 7.27594 19.5531 7.26021L16.7398 4.4469C16.7241 4.45967 16.7085 4.47268 16.6932 4.48592L15.4832 3.2759C15.5064 3.27054 15.5296 3.26525 15.5529 3.26003L13.6464 1.35355C13.4512 1.15829 13.4512 0.841709 13.6464 0.646447ZM14.3948 3.60173C12.9404 4.14917 12 5.01967 12 6C12 7.65685 14.6863 9 18 9C18.5812 9 19.1432 8.95868 19.6747 8.88159L18.676 7.88288C18.4648 7.95869 18.2372 8 18 8C16.8954 8 16 7.10457 16 6C16 5.76277 16.0413 5.53518 16.1171 5.32404L15.3624 4.56936C15.1313 4.9946 15 5.48197 15 6C15 6.63429 15.1968 7.2226 15.5328 7.70718C15.0297 7.5794 14.5817 7.41547 14.2046 7.22689C13.2251 6.73715 13 6.2456 13 6C13 5.7544 13.2251 5.26285 14.2046 4.77311C14.492 4.62941 14.8204 4.50003 15.1831 4.39005L14.3948 3.60173ZM17.7258 4.01865L19.9814 6.27425C19.9936 6.18459 20 6.09304 20 6C20 4.89543 19.1046 4 18 4C17.907 4 17.8154 4.00635 17.7258 4.01865ZM20.7962 7.08909L21.192 7.48493C21.4089 7.40573 21.6107 7.31927 21.7954 7.22689C22.7749 6.73715 23 6.2456 23 6C23 5.7544 22.7749 5.26285 21.7954 4.77311C21.4183 4.58453 20.9703 4.4206 20.4672 4.29281C20.8032 4.77739 21 5.36571 21 6C21 6.38417 20.9278 6.75148 20.7962 7.08909Z" fill="#222222"/>
</svg>
