<svg width="160" height="20" viewBox="0 0 160 20" fill="none" xmlns="http://www.w3.org/2000/svg">
<path fill-rule="evenodd" clip-rule="evenodd" d="M10.5106 11H9V10H10.5106V11ZM16.5532 11H13.5319V10H16.5532V11ZM22.5957 11H19.5745V10H22.5957V11ZM28.6383 11H25.617V10H28.6383V11ZM34.6809 11H31.6596V10H34.6809V11ZM40.7234 11H37.7021V10H40.7234V11ZM46.766 11H43.7447V10H46.766V11ZM52.8085 11H49.7872V10H52.8085V11ZM58.8511 11H55.8298V10H58.8511V11ZM64.8936 11H61.8724V10H64.8936V11ZM70.9362 11H67.9149V10H70.9362V11ZM76.9787 11H73.9575V10H76.9787V11ZM83.0213 11H80V10H83.0213V11ZM89.0639 11H86.0426V10H89.0639V11ZM95.1064 11H92.0851V10H95.1064V11ZM101.149 11H98.1277V10H101.149V11ZM107.192 11H104.17V10H107.192V11ZM113.234 11H110.213V10H113.234V11ZM119.277 11H116.255V10H119.277V11ZM125.319 11H122.298V10H125.319V11ZM131.362 11H128.34V10H131.362V11ZM137.404 11H134.383V10H137.404V11ZM143.447 11H140.426V10H143.447V11ZM149.489 11H146.468V10H149.489V11Z" fill="black"/>
</svg>
