<svg width="96" height="24" viewBox="0 0 96 24" fill="none" xmlns="http://www.w3.org/2000/svg">
<circle cx="12" cy="12" r="12" fill="#4864FF"/>
<path fill-rule="evenodd" clip-rule="evenodd" d="M14 7.09091H11.5C10.6716 7.09091 10 7.82353 10 8.72727V9.81818C10 10.7219 10.6716 11.4545 11.5 11.4545H12.5C13.3284 11.4545 14 10.7219 14 9.81818V7.09091ZM11.5 6C10.1193 6 9 7.22104 9 8.72727V9.81818C9 11.3244 10.1193 12.5455 11.5 12.5455H12.5C13.8807 12.5455 15 11.3244 15 9.81818V7.09091C15 6.48842 15.4477 6 16 6H15H14H11.5ZM7 16.9091C7 15.1016 8.34315 13.6364 10 13.6364H14C15.6569 13.6364 17 15.1016 17 16.9091V17.4545C17 17.7558 16.7761 18 16.5 18C16.2239 18 16 17.7558 16 17.4545V16.9091C16 15.7041 15.1046 14.7273 14 14.7273H10C8.89543 14.7273 8 15.7041 8 16.9091V17.4545C8 17.7558 7.77614 18 7.5 18C7.22386 18 7 17.7558 7 17.4545V16.9091Z" fill="white"/>
<circle cx="36" cy="12" r="12" fill="#6A81FF"/>
<path fill-rule="evenodd" clip-rule="evenodd" d="M38 7.09091H35.5C34.6716 7.09091 34 7.82353 34 8.72727V9.81818C34 10.7219 34.6716 11.4545 35.5 11.4545H36.5C37.3284 11.4545 38 10.7219 38 9.81818V7.09091ZM35.5 6C34.1193 6 33 7.22104 33 8.72727V9.81818C33 11.3244 34.1193 12.5455 35.5 12.5455H36.5C37.8807 12.5455 39 11.3244 39 9.81818V7.09091C39 6.48842 39.4477 6 40 6H39H38H35.5ZM31 16.9091C31 15.1016 32.3431 13.6364 34 13.6364H38C39.6569 13.6364 41 15.1016 41 16.9091V17.4545C41 17.7558 40.7761 18 40.5 18C40.2239 18 40 17.7558 40 17.4545V16.9091C40 15.7041 39.1046 14.7273 38 14.7273H34C32.8954 14.7273 32 15.7041 32 16.9091V17.4545C32 17.7558 31.7761 18 31.5 18C31.2239 18 31 17.7558 31 17.4545V16.9091Z" fill="white"/>
<circle cx="60" cy="12" r="12" fill="#142FCC"/>
<path fill-rule="evenodd" clip-rule="evenodd" d="M62 7.09091H59.5C58.6716 7.09091 58 7.82353 58 8.72727V9.81818C58 10.7219 58.6716 11.4545 59.5 11.4545H60.5C61.3284 11.4545 62 10.7219 62 9.81818V7.09091ZM59.5 6C58.1193 6 57 7.22104 57 8.72727V9.81818C57 11.3244 58.1193 12.5455 59.5 12.5455H60.5C61.8807 12.5455 63 11.3244 63 9.81818V7.09091C63 6.48842 63.4477 6 64 6H63H62H59.5ZM55 16.9091C55 15.1016 56.3431 13.6364 58 13.6364H62C63.6569 13.6364 65 15.1016 65 16.9091V17.4545C65 17.7558 64.7761 18 64.5 18C64.2239 18 64 17.7558 64 17.4545V16.9091C64 15.7041 63.1046 14.7273 62 14.7273H58C56.8954 14.7273 56 15.7041 56 16.9091V17.4545C56 17.7558 55.7761 18 55.5 18C55.2239 18 55 17.7558 55 17.4545V16.9091Z" fill="white"/>
<circle cx="84" cy="12" r="12" fill="#BDBFC9"/>
<path fill-rule="evenodd" clip-rule="evenodd" d="M86 7.09091H83.5C82.6716 7.09091 82 7.82353 82 8.72727V9.81818C82 10.7219 82.6716 11.4545 83.5 11.4545H84.5C85.3284 11.4545 86 10.7219 86 9.81818V7.09091ZM83.5 6C82.1193 6 81 7.22104 81 8.72727V9.81818C81 11.3244 82.1193 12.5455 83.5 12.5455H84.5C85.8807 12.5455 87 11.3244 87 9.81818V7.09091C87 6.48842 87.4477 6 88 6H87H86H83.5ZM79 16.9091C79 15.1016 80.3431 13.6364 82 13.6364H86C87.6569 13.6364 89 15.1016 89 16.9091V17.4545C89 17.7558 88.7761 18 88.5 18C88.2239 18 88 17.7558 88 17.4545V16.9091C88 15.7041 87.1046 14.7273 86 14.7273H82C80.8954 14.7273 80 15.7041 80 16.9091V17.4545C80 17.7558 79.7761 18 79.5 18C79.2239 18 79 17.7558 79 17.4545V16.9091Z" fill="white"/>
</svg>
