<svg width="48" height="24" viewBox="0 0 48 24" fill="none" xmlns="http://www.w3.org/2000/svg">
<rect x="5.5" y="18.5" width="13" height="3" transform="rotate(-90 5.5 18.5)" fill="url(#paint0_linear)" stroke="#6A52FC"/>
<rect x="10.5" y="18.5" width="13" height="3" transform="rotate(-90 10.5 18.5)" fill="url(#paint1_linear)" stroke="#6A52FC"/>
<rect x="15.5" y="18.5" width="13" height="3" transform="rotate(-90 15.5 18.5)" fill="url(#paint2_linear)" stroke="#6A52FC"/>
<g opacity="0.4">
<rect x="29.5" y="18.5" width="13" height="3" transform="rotate(-90 29.5 18.5)" fill="url(#paint3_linear)" stroke="#6A52FC"/>
<rect x="34.5" y="18.5" width="13" height="3" transform="rotate(-90 34.5 18.5)" fill="url(#paint4_linear)" stroke="#6A52FC"/>
<rect x="39.5" y="18.5" width="13" height="3" transform="rotate(-90 39.5 18.5)" fill="url(#paint5_linear)" stroke="#6A52FC"/>
</g>
<defs>
<linearGradient id="paint0_linear" x1="18" y1="21" x2="6" y2="21" gradientUnits="userSpaceOnUse">
<stop stop-color="#8CA5FF"/>
<stop offset="1" stop-color="#7B72FB"/>
</linearGradient>
<linearGradient id="paint1_linear" x1="23" y1="21" x2="11" y2="21" gradientUnits="userSpaceOnUse">
<stop stop-color="#8CA5FF"/>
<stop offset="1" stop-color="#7B72FB"/>
</linearGradient>
<linearGradient id="paint2_linear" x1="28" y1="21" x2="16" y2="21" gradientUnits="userSpaceOnUse">
<stop stop-color="#8CA5FF"/>
<stop offset="1" stop-color="#7B72FB"/>
</linearGradient>
<linearGradient id="paint3_linear" x1="42" y1="21" x2="30" y2="21" gradientUnits="userSpaceOnUse">
<stop stop-color="#8CA5FF"/>
<stop offset="1" stop-color="#7B72FB"/>
</linearGradient>
<linearGradient id="paint4_linear" x1="47" y1="21" x2="35" y2="21" gradientUnits="userSpaceOnUse">
<stop stop-color="#8CA5FF"/>
<stop offset="1" stop-color="#7B72FB"/>
</linearGradient>
<linearGradient id="paint5_linear" x1="52" y1="21" x2="40" y2="21" gradientUnits="userSpaceOnUse">
<stop stop-color="#8CA5FF"/>
<stop offset="1" stop-color="#7B72FB"/>
</linearGradient>
</defs>
</svg>
