<svg width="48" height="24" viewBox="0 0 48 24" fill="none" xmlns="http://www.w3.org/2000/svg">
<path fill-rule="evenodd" clip-rule="evenodd" d="M16.9472 11.2764C17.0319 11.4458 17.0136 11.6485 16.9 11.8L12.4 17.8C12.3056 17.9259 12.1574 18 12 18C11.8426 18 11.6944 17.9259 11.6 17.8L7.1 11.8C6.98637 11.6485 6.96809 11.4458 7.05278 11.2764C7.13748 11.107 7.31061 11 7.5 11L16.5 11C16.6894 11 16.8625 11.107 16.9472 11.2764ZM16.5 7C16.7761 7 17 7.22386 17 7.5L17 8.5C17 8.77614 16.7761 9 16.5 9L7.5 9C7.22385 9 7 8.77614 7 8.5L7 7.5C7 7.22386 7.22386 7 7.5 7L16.5 7Z" fill="white"/>
<g opacity="0.4">
<path fill-rule="evenodd" clip-rule="evenodd" d="M40.9472 11.2764C41.0319 11.4458 41.0136 11.6485 40.9 11.8L36.4 17.8C36.3056 17.9259 36.1574 18 36 18C35.8426 18 35.6944 17.9259 35.6 17.8L31.1 11.8C30.9864 11.6485 30.9681 11.4458 31.0528 11.2764C31.1375 11.107 31.3106 11 31.5 11L40.5 11C40.6894 11 40.8625 11.107 40.9472 11.2764ZM40.5 7C40.7761 7 41 7.22386 41 7.5L41 8.5C41 8.77614 40.7761 9 40.5 9L31.5 9C31.2239 9 31 8.77614 31 8.5L31 7.5C31 7.22386 31.2239 7 31.5 7L40.5 7Z" fill="white"/>
</g>
</svg>
