<svg width="32" height="16" viewBox="0 0 32 16" fill="none" xmlns="http://www.w3.org/2000/svg">
<path d="M0.5 2.5H2.5M15.5 2.5H13.5M13.5 2.5V14.5C13.5 15.0523 13.0523 15.5 12.5 15.5H3.5C2.94771 15.5 2.5 15.0523 2.5 14.5V2.5M13.5 2.5H10.5M2.5 2.5H5.5M10.5 2.5V1.5C10.5 0.947715 10.0523 0.5 9.5 0.5H6.5C5.94772 0.5 5.5 0.947715 5.5 1.5V2.5M10.5 2.5H5.5" stroke="#212648" stroke-linecap="round"/>
<rect x="6" y="7" width="1" height="4" rx="0.5" fill="#212648"/>
<rect x="9" y="7" width="1" height="4" rx="0.5" fill="#212648"/>
<g opacity="0.4">
<path d="M16.5 2.5H18.5M31.5 2.5H29.5M29.5 2.5V14.5C29.5 15.0523 29.0523 15.5 28.5 15.5H19.5C18.9477 15.5 18.5 15.0523 18.5 14.5V2.5M29.5 2.5H26.5M18.5 2.5H21.5M26.5 2.5V1.5C26.5 0.947715 26.0523 0.5 25.5 0.5H22.5C21.9477 0.5 21.5 0.947715 21.5 1.5V2.5M26.5 2.5H21.5" stroke="#212648" stroke-linecap="round"/>
<rect x="22" y="7" width="1" height="4" rx="0.5" fill="#212648"/>
<rect x="25" y="7" width="1" height="4" rx="0.5" fill="#212648"/>
</g>
</svg>
