<svg width="32" height="16" viewBox="0 0 32 16" fill="none" xmlns="http://www.w3.org/2000/svg">
<path fill-rule="evenodd" clip-rule="evenodd" d="M8 6.5C8 6.77614 7.77614 7 7.5 7H4.5C4.22386 7 4 6.77614 4 6.5V6.5C4 6.22386 4.22386 6 4.5 6H7.5C7.77614 6 8 6.22386 8 6.5V6.5Z" fill="#212648"/>
<path fill-rule="evenodd" clip-rule="evenodd" d="M11 4.5C11 4.77614 10.7761 5 10.5 5H4.5C4.22386 5 4 4.77614 4 4.5V4.5C4 4.22386 4.22386 4 4.5 4H10.5C10.7761 4 11 4.22386 11 4.5V4.5Z" fill="#212648"/>
<path fill-rule="evenodd" clip-rule="evenodd" d="M11 8.5C11 8.77614 10.7761 9 10.5 9H4.5C4.22386 9 4 8.77614 4 8.5V8.5C4 8.22386 4.22386 8 4.5 8H10.5C10.7761 8 11 8.22386 11 8.5V8.5Z" fill="#212648"/>
<path fill-rule="evenodd" clip-rule="evenodd" d="M8 10.5C8 10.7761 7.77614 11 7.5 11H4.5C4.22386 11 4 10.7761 4 10.5V10.5C4 10.2239 4.22386 10 4.5 10H7.5C7.77614 10 8 10.2239 8 10.5V10.5Z" fill="#212648"/>
<path fill-rule="evenodd" clip-rule="evenodd" d="M0 0.533333C0 0.238781 0.238781 0 0.533333 0H1.46667C1.76122 0 2 0.238781 2 0.533333C2 0.827885 1.76122 1.06667 1.46667 1.06667H1.06667V1.46667C1.06667 1.76122 0.827885 2 0.533333 2C0.238781 2 0 1.76122 0 1.46667V0.533333ZM2.8 0.533333C2.8 0.238781 3.03878 0 3.33333 0H5.2C5.49455 0 5.73333 0.238781 5.73333 0.533333C5.73333 0.827885 5.49455 1.06667 5.2 1.06667H3.33333C3.03878 1.06667 2.8 0.827885 2.8 0.533333ZM6.53333 0.533333C6.53333 0.238781 6.77211 0 7.06667 0H8.93333C9.22789 0 9.46667 0.238781 9.46667 0.533333C9.46667 0.827885 9.22789 1.06667 8.93333 1.06667H7.06667C6.77211 1.06667 6.53333 0.827885 6.53333 0.533333ZM10.2667 0.533333C10.2667 0.238781 10.5054 0 10.8 0H12.6667C12.9612 0 13.2 0.238781 13.2 0.533333C13.2 0.827885 12.9612 1.06667 12.6667 1.06667H10.8C10.5054 1.06667 10.2667 0.827885 10.2667 0.533333ZM14 0.533333C14 0.238781 14.2388 0 14.5333 0H15.4667C15.7612 0 16 0.238781 16 0.533333V1.46667C16 1.76122 15.7612 2 15.4667 2C15.1721 2 14.9333 1.76122 14.9333 1.46667V1.06667H14.5333C14.2388 1.06667 14 0.827885 14 0.533333ZM0.533333 2.8C0.827885 2.8 1.06667 3.03878 1.06667 3.33333V5.2C1.06667 5.49455 0.827885 5.73333 0.533333 5.73333C0.238781 5.73333 0 5.49455 0 5.2V3.33333C0 3.03878 0.238781 2.8 0.533333 2.8ZM15.4667 2.8C15.7612 2.8 16 3.03878 16 3.33333V5.2C16 5.49455 15.7612 5.73333 15.4667 5.73333C15.1721 5.73333 14.9333 5.49455 14.9333 5.2V3.33333C14.9333 3.03878 15.1721 2.8 15.4667 2.8ZM0.533333 6.53333C0.827885 6.53333 1.06667 6.77211 1.06667 7.06667V8.93333C1.06667 9.22789 0.827885 9.46667 0.533333 9.46667C0.238781 9.46667 0 9.22789 0 8.93333V7.06667C0 6.77211 0.238781 6.53333 0.533333 6.53333ZM15.4667 6.53333C15.7612 6.53333 16 6.77211 16 7.06667V8.93333C16 9.22789 15.7612 9.46667 15.4667 9.46667C15.1721 9.46667 14.9333 9.22789 14.9333 8.93333V7.06667C14.9333 6.77211 15.1721 6.53333 15.4667 6.53333ZM0.533333 10.2667C0.827885 10.2667 1.06667 10.5054 1.06667 10.8V12.6667C1.06667 12.9612 0.827885 13.2 0.533333 13.2C0.238781 13.2 0 12.9612 0 12.6667V10.8C0 10.5054 0.238781 10.2667 0.533333 10.2667ZM15.4667 10.2667C15.7612 10.2667 16 10.5054 16 10.8V12.6667C16 12.9612 15.7612 13.2 15.4667 13.2C15.1721 13.2 14.9333 12.9612 14.9333 12.6667V10.8C14.9333 10.5054 15.1721 10.2667 15.4667 10.2667ZM0.533333 14C0.827885 14 1.06667 14.2388 1.06667 14.5333V14.9333H1.46667C1.76122 14.9333 2 15.1721 2 15.4667C2 15.7612 1.76122 16 1.46667 16H0.533333C0.238781 16 0 15.7612 0 15.4667V14.5333C0 14.2388 0.238781 14 0.533333 14ZM15.4667 14C15.7612 14 16 14.2388 16 14.5333V15.4667C16 15.7612 15.7612 16 15.4667 16H14.5333C14.2388 16 14 15.7612 14 15.4667C14 15.1721 14.2388 14.9333 14.5333 14.9333H14.9333V14.5333C14.9333 14.2388 15.1721 14 15.4667 14ZM2.8 15.4667C2.8 15.1721 3.03878 14.9333 3.33333 14.9333H5.2C5.49455 14.9333 5.73333 15.1721 5.73333 15.4667C5.73333 15.7612 5.49455 16 5.2 16H3.33333C3.03878 16 2.8 15.7612 2.8 15.4667ZM6.53333 15.4667C6.53333 15.1721 6.77211 14.9333 7.06667 14.9333H8.93333C9.22789 14.9333 9.46667 15.1721 9.46667 15.4667C9.46667 15.7612 9.22789 16 8.93333 16H7.06667C6.77211 16 6.53333 15.7612 6.53333 15.4667ZM10.2667 15.4667C10.2667 15.1721 10.5054 14.9333 10.8 14.9333H12.6667C12.9612 14.9333 13.2 15.1721 13.2 15.4667C13.2 15.7612 12.9612 16 12.6667 16H10.8C10.5054 16 10.2667 15.7612 10.2667 15.4667Z" fill="#212648"/>
<g opacity="0.4">
<path fill-rule="evenodd" clip-rule="evenodd" d="M24 6.5C24 6.77614 23.7761 7 23.5 7H20.5C20.2239 7 20 6.77614 20 6.5V6.5C20 6.22386 20.2239 6 20.5 6H23.5C23.7761 6 24 6.22386 24 6.5V6.5Z" fill="#212648"/>
<path fill-rule="evenodd" clip-rule="evenodd" d="M27 4.5C27 4.77614 26.7761 5 26.5 5H20.5C20.2239 5 20 4.77614 20 4.5V4.5C20 4.22386 20.2239 4 20.5 4H26.5C26.7761 4 27 4.22386 27 4.5V4.5Z" fill="#212648"/>
<path fill-rule="evenodd" clip-rule="evenodd" d="M27 8.5C27 8.77614 26.7761 9 26.5 9H20.5C20.2239 9 20 8.77614 20 8.5V8.5C20 8.22386 20.2239 8 20.5 8H26.5C26.7761 8 27 8.22386 27 8.5V8.5Z" fill="#212648"/>
<path fill-rule="evenodd" clip-rule="evenodd" d="M24 10.5C24 10.7761 23.7761 11 23.5 11H20.5C20.2239 11 20 10.7761 20 10.5V10.5C20 10.2239 20.2239 10 20.5 10H23.5C23.7761 10 24 10.2239 24 10.5V10.5Z" fill="#212648"/>
<path fill-rule="evenodd" clip-rule="evenodd" d="M16 0.533333C16 0.238781 16.2388 0 16.5333 0H17.4667C17.7612 0 18 0.238781 18 0.533333C18 0.827885 17.7612 1.06667 17.4667 1.06667H17.0667V1.46667C17.0667 1.76122 16.8279 2 16.5333 2C16.2388 2 16 1.76122 16 1.46667V0.533333ZM18.8 0.533333C18.8 0.238781 19.0388 0 19.3333 0H21.2C21.4946 0 21.7333 0.238781 21.7333 0.533333C21.7333 0.827885 21.4946 1.06667 21.2 1.06667H19.3333C19.0388 1.06667 18.8 0.827885 18.8 0.533333ZM22.5333 0.533333C22.5333 0.238781 22.7721 0 23.0667 0H24.9333C25.2279 0 25.4667 0.238781 25.4667 0.533333C25.4667 0.827885 25.2279 1.06667 24.9333 1.06667H23.0667C22.7721 1.06667 22.5333 0.827885 22.5333 0.533333ZM26.2667 0.533333C26.2667 0.238781 26.5054 0 26.8 0H28.6667C28.9612 0 29.2 0.238781 29.2 0.533333C29.2 0.827885 28.9612 1.06667 28.6667 1.06667H26.8C26.5054 1.06667 26.2667 0.827885 26.2667 0.533333ZM30 0.533333C30 0.238781 30.2388 0 30.5333 0H31.4667C31.7612 0 32 0.238781 32 0.533333V1.46667C32 1.76122 31.7612 2 31.4667 2C31.1721 2 30.9333 1.76122 30.9333 1.46667V1.06667H30.5333C30.2388 1.06667 30 0.827885 30 0.533333ZM16.5333 2.8C16.8279 2.8 17.0667 3.03878 17.0667 3.33333V5.2C17.0667 5.49455 16.8279 5.73333 16.5333 5.73333C16.2388 5.73333 16 5.49455 16 5.2V3.33333C16 3.03878 16.2388 2.8 16.5333 2.8ZM31.4667 2.8C31.7612 2.8 32 3.03878 32 3.33333V5.2C32 5.49455 31.7612 5.73333 31.4667 5.73333C31.1721 5.73333 30.9333 5.49455 30.9333 5.2V3.33333C30.9333 3.03878 31.1721 2.8 31.4667 2.8ZM16.5333 6.53333C16.8279 6.53333 17.0667 6.77211 17.0667 7.06667V8.93333C17.0667 9.22789 16.8279 9.46667 16.5333 9.46667C16.2388 9.46667 16 9.22789 16 8.93333V7.06667C16 6.77211 16.2388 6.53333 16.5333 6.53333ZM31.4667 6.53333C31.7612 6.53333 32 6.77211 32 7.06667V8.93333C32 9.22789 31.7612 9.46667 31.4667 9.46667C31.1721 9.46667 30.9333 9.22789 30.9333 8.93333V7.06667C30.9333 6.77211 31.1721 6.53333 31.4667 6.53333ZM16.5333 10.2667C16.8279 10.2667 17.0667 10.5054 17.0667 10.8V12.6667C17.0667 12.9612 16.8279 13.2 16.5333 13.2C16.2388 13.2 16 12.9612 16 12.6667V10.8C16 10.5054 16.2388 10.2667 16.5333 10.2667ZM31.4667 10.2667C31.7612 10.2667 32 10.5054 32 10.8V12.6667C32 12.9612 31.7612 13.2 31.4667 13.2C31.1721 13.2 30.9333 12.9612 30.9333 12.6667V10.8C30.9333 10.5054 31.1721 10.2667 31.4667 10.2667ZM16.5333 14C16.8279 14 17.0667 14.2388 17.0667 14.5333V14.9333H17.4667C17.7612 14.9333 18 15.1721 18 15.4667C18 15.7612 17.7612 16 17.4667 16H16.5333C16.2388 16 16 15.7612 16 15.4667V14.5333C16 14.2388 16.2388 14 16.5333 14ZM31.4667 14C31.7612 14 32 14.2388 32 14.5333V15.4667C32 15.7612 31.7612 16 31.4667 16H30.5333C30.2388 16 30 15.7612 30 15.4667C30 15.1721 30.2388 14.9333 30.5333 14.9333H30.9333V14.5333C30.9333 14.2388 31.1721 14 31.4667 14ZM18.8 15.4667C18.8 15.1721 19.0388 14.9333 19.3333 14.9333H21.2C21.4946 14.9333 21.7333 15.1721 21.7333 15.4667C21.7333 15.7612 21.4946 16 21.2 16H19.3333C19.0388 16 18.8 15.7612 18.8 15.4667ZM22.5333 15.4667C22.5333 15.1721 22.7721 14.9333 23.0667 14.9333H24.9333C25.2279 14.9333 25.4667 15.1721 25.4667 15.4667C25.4667 15.7612 25.2279 16 24.9333 16H23.0667C22.7721 16 22.5333 15.7612 22.5333 15.4667ZM26.2667 15.4667C26.2667 15.1721 26.5054 14.9333 26.8 14.9333H28.6667C28.9612 14.9333 29.2 15.1721 29.2 15.4667C29.2 15.7612 28.9612 16 28.6667 16H26.8C26.5054 16 26.2667 15.7612 26.2667 15.4667Z" fill="#212648"/>
</g>
</svg>
