<svg width="16" height="16" viewBox="0 0 16 16" fill="none" xmlns="http://www.w3.org/2000/svg">
<rect x="1" y="2" width="12" height="12" fill="white"/>
<rect x="3" y="5" width="6" height="2" rx="1" fill="#BCBDD1"/>
<path fill-rule="evenodd" clip-rule="evenodd" d="M0 2.5C0 1.67157 0.671573 1 1.5 1H12.5C13.3284 1 14 1.67157 14 2.5V4C14 4.27614 13.7761 4.5 13.5 4.5C13.2239 4.5 13 4.27614 13 4V2.5C13 2.22386 12.7761 2 12.5 2H1.5C1.22386 2 1 2.22386 1 2.5V13.5C1 13.7761 1.22386 14 1.5 14H7C7.27614 14 7.5 14.2239 7.5 14.5C7.5 14.7761 7.27614 15 7 15H1.5C0.671573 15 0 14.3284 0 13.5V2.5Z" fill="#5C6182"/>
<path d="M14 7.5C14 8.32843 13.3284 9 12.5 9C11.6716 9 11 8.32843 11 7.5C11 6.67157 11.6716 6 12.5 6C13.3284 6 14 6.67157 14 7.5Z" fill="#4864FF"/>
<path d="M9 13C9 11.8954 9.89543 11 11 11H14C15.1046 11 16 11.8954 16 13V14H9V13Z" fill="#4864FF"/>
<path d="M12 8H13V11H12V8Z" fill="#4864FF"/>
<path d="M10 15H15V16H10V15Z" fill="#4864FF"/>
</svg>
