<svg width="49" height="25" viewBox="0 0 49 25" fill="none" xmlns="http://www.w3.org/2000/svg">
<path d="M12.3137 4.53553L4.88909 11.9602C2.7412 14.108 2.7412 17.5904 4.88909 19.7383V19.7383C7.03697 21.8862 10.5194 21.8862 12.6673 19.7383L20.799 11.6066C22.3611 10.0445 22.3611 7.51185 20.799 5.94975V5.94975C19.2369 4.38765 16.7042 4.38765 15.1421 5.94975L7.01041 14.0815C6.0341 15.0578 6.0341 16.6407 7.01041 17.617V17.617C7.98672 18.5933 9.56963 18.5933 10.5459 17.617L17.9706 10.1924" stroke="#212648" stroke-linecap="round" stroke-linejoin="round"/>
<path d="M17.5 18.5H20.5M23.5 18.5H20.5M20.5 18.5V15.5V21.5" stroke="#212648" stroke-linecap="round" stroke-linejoin="round"/>
<g opacity="0.4">
<path d="M36.3137 4.53553L28.8891 11.9602C26.7412 14.108 26.7412 17.5904 28.8891 19.7383V19.7383C31.037 21.8862 34.5194 21.8862 36.6673 19.7383L44.799 11.6066C46.3611 10.0445 46.3611 7.51185 44.799 5.94975V5.94975C43.2369 4.38765 40.7042 4.38765 39.1421 5.94975L31.0104 14.0815C30.0341 15.0578 30.0341 16.6407 31.0104 17.617V17.617C31.9867 18.5933 33.5696 18.5933 34.5459 17.617L41.9706 10.1924" stroke="#212648" stroke-linecap="round" stroke-linejoin="round"/>
<path d="M41.5 18.5H44.5M47.5 18.5H44.5M44.5 18.5V15.5V21.5" stroke="#212648" stroke-linecap="round" stroke-linejoin="round"/>
</g>
</svg>
