<svg width="24" height="24" viewBox="0 0 24 24" fill="none" xmlns="http://www.w3.org/2000/svg">
<path d="M4.62454 7.41481C4.25669 7.41481 4 7.6707 4 8.03935V13.7618C4 15.4235 5.41222 16.8357 7.07394 16.8357C8.24546 16.8357 9.29463 16.1456 9.8472 15.1612C10.4006 16.1448 11.3906 16.8357 12.6221 16.8357C14.3454 16.8357 15.6952 15.4235 15.6952 13.7618C15.6952 12.0377 14.3454 10.6135 12.6213 10.6135C11.4497 10.6135 10.4006 11.3036 9.8472 12.288C9.35381 11.3036 8.30384 10.6135 7.07394 10.6135C6.39582 10.6135 5.7177 10.8694 5.2243 11.238V8.03935C5.2243 7.72988 4.93402 7.41481 4.62454 7.41481ZM15.5449 10.5879C15.464 10.6053 15.3876 10.6396 15.321 10.6887C15.0731 10.8726 15.0115 11.2908 15.1954 11.5379L16.8195 13.6874L15.1954 15.8602C15.0115 16.1072 15.0739 16.5255 15.3202 16.7102C15.5673 16.8941 16.0111 16.8318 16.195 16.5847L17.5449 14.7358L18.8939 16.5855C19.0778 16.8318 19.5216 16.8941 19.7687 16.7102C20.015 16.5263 20.0774 16.1072 19.8935 15.8602L18.2941 13.6858L19.8935 11.5371C20.0774 11.29 20.015 10.8718 19.7687 10.6871C19.5216 10.5031 19.0778 10.5655 18.8939 10.8126L17.5441 12.6367L16.195 10.8126C16.0575 10.6287 15.7792 10.5375 15.5449 10.5879ZM7.07474 11.9138C8.05834 11.9138 8.92358 12.779 8.92358 13.7626C8.98596 14.7462 8.12071 15.6123 7.07474 15.6123C6.02797 15.6123 5.2251 14.747 5.2251 13.7626C5.2251 12.7166 6.09034 11.9138 7.07474 11.9138ZM12.6221 11.9138C13.6688 11.9138 14.4717 12.779 14.4717 13.7626C14.4717 14.7462 13.6065 15.6123 12.6221 15.6123C11.5761 15.6123 10.7732 14.747 10.7732 13.7626C10.7732 12.7166 11.6385 11.9138 12.6221 11.9138Z" fill="#212648"/>
</svg>
