<svg width="24" height="24" viewBox="0 0 24 24" fill="none" xmlns="http://www.w3.org/2000/svg">
<path d="M14.5 5.5L6.5 5.5L6.5 18.5L17.5 18.5V8.5M14.5 5.5L17.5 8.5M14.5 5.5V8.5H17.5" stroke="#212648" stroke-linecap="round" stroke-linejoin="round"/>
<path fill-rule="evenodd" clip-rule="evenodd" d="M8.5 11C8.22386 11 8 11.2239 8 11.5V13.5V15.5C8 15.7761 8.22386 16 8.5 16H11C11.2761 16 11.5 15.7761 11.5 15.5C11.5 15.2239 11.2761 15 11 15H9V14H11C11.2761 14 11.5 13.7761 11.5 13.5C11.5 13.2239 11.2761 13 11 13H9V12H11C11.2761 12 11.5 11.7761 11.5 11.5C11.5 11.2239 11.2761 11 11 11H8.5ZM12.5 11C12.2239 11 12 11.2239 12 11.5V13.5V15.5C12 15.7761 12.2239 16 12.5 16C12.7761 16 13 15.7761 13 15.5V14H14.5C15.3284 14 16 13.3284 16 12.5C16 11.6716 15.3284 11 14.5 11H12.5ZM14.5 13H13V12H14.5C14.7761 12 15 12.2239 15 12.5C15 12.7761 14.7761 13 14.5 13Z" fill="#212648"/>
</svg>
