<svg width="24" height="24" viewBox="0 0 24 24" fill="none" xmlns="http://www.w3.org/2000/svg">
<path d="M15.5414 10.3667C15.0668 10.3667 14.6833 10.7404 14.6833 11.2C14.6833 11.2599 14.6901 11.3172 14.7035 11.3732C14.7531 11.3706 14.8027 11.3667 14.855 11.3667C15.4422 11.3667 15.9476 11.5099 16.2077 11.7183C16.3257 11.5763 16.3994 11.3979 16.3994 11.2C16.3994 10.7391 16.016 10.3667 15.5414 10.3667Z" fill="#212648"/>
<path d="M9.4358 5.23828C9.21525 5.4211 9.07635 5.69354 9.07635 6V7.66667C9.07635 8.03125 8.76531 8.33333 8.38991 8.33333H6.67382C6.40875 8.33333 6.18341 8.47653 6.07316 8.68971M9.4358 5.23828C9.61537 5.08943 9.84907 5 10.106 5H11.6183C11.8382 5 12.0782 5.09635 12.2498 5.23828C12.4214 5.38021 12.5085 5.55729 12.5085 5.66667C12.5085 5.84635 12.656 5.99479 12.841 6C13.8506 6.02995 16.2155 6.26172 16.2356 6.26302C16.6875 6.33464 16.9878 6.49219 17.2077 6.71484C17.4289 6.9375 17.5763 7.24089 17.6608 7.6276C17.941 8.91797 18 10.3711 18 12.6667C18 14.2812 17.9142 15.9258 17.512 17.1146C17.3122 17.7096 17.036 18.1836 16.6754 18.5013C16.3161 18.8203 15.875 19 15.2543 19H13.5382C12.7767 19 12.1653 18.4063 12.1653 17.6667V17C12.1653 16.2604 12.7767 15.6667 13.5382 15.6667H14.2246V16.3333H13.8814C13.2606 16.3333 12.7633 16.8867 12.8651 17.4987C12.9496 18.0026 13.4202 18.3333 13.9189 18.3333H14.911C15.8549 18.3333 16.6271 17.5833 16.6271 16.6667V15.6667C16.6271 14.5664 15.7007 13.6667 14.5678 13.6667H13.5382C12.9617 13.6667 12.42 13.457 12.164 13.0026V13.0013C12.0862 12.8646 11.7953 12.2044 11.7953 12.2044C11.7336 12.0625 11.5794 11.9805 11.4226 12.0052C11.2657 12.0299 11.1477 12.1563 11.1357 12.3112L10.9989 14.2852C10.9359 14.6654 10.5672 14.9115 10.1784 14.8307L7.75844 14.2969L7.75442 14.2956C7.07335 14.1536 6.63897 13.5977 6.40837 12.8789V12.8776C6.14425 12.0586 5.98739 10.3359 6.0008 8.98438V8.98307C6.00197 8.87685 6.02784 8.77737 6.07316 8.68971M9.4358 5.23828L6.07316 8.68971" stroke="#212648"/>
</svg>
