<svg width="24" height="24" viewBox="0 0 24 24" fill="none" xmlns="http://www.w3.org/2000/svg">
<path fill-rule="evenodd" clip-rule="evenodd" d="M17.5 6.00001C17.6326 6.00001 17.7598 6.05269 17.8536 6.14646C17.9473 6.24023 18 6.3674 18 6.50001L18 9.5C18 9.77614 17.7761 10 17.5 10C17.2238 9.99999 17 9.77614 17 9.49999L17 7.70712L11.8536 12.8536C11.6583 13.0488 11.3417 13.0488 11.1464 12.8536C10.9512 12.6583 10.9512 12.3417 11.1464 12.1465L16.2929 7.00001L14.5 7C14.2238 7 14 6.77614 14 6.5C14 6.22386 14.2238 6 14.5 6L17.5 6.00001ZM6.5 6.00001C6.22386 6.00001 6 6.22386 6 6.50001V17.5C6 17.7761 6.22386 18 6.5 18H17.5C17.7761 18 18 17.7761 18 17.5V12.5C18 12.2239 17.7761 12 17.5 12C17.2239 12 17 12.2239 17 12.5V17H7V7.00001H11.5C11.7761 7.00001 12 6.77615 12 6.50001C12 6.22386 11.7761 6.00001 11.5 6.00001H6.5Z" fill="#212648"/>
</svg>
