<svg width="24" height="24" viewBox="0 0 24 24" fill="none" xmlns="http://www.w3.org/2000/svg">
<path fill-rule="evenodd" clip-rule="evenodd" d="M6 6.5C6 6.22386 6.22386 6 6.5 6L9.5 6C9.77614 6 10 6.22386 10 6.5C10 6.77614 9.77614 7 9.5 7L7 7L7 18L17 18V7L14.5 7C14.2239 7 14 6.77614 14 6.5C14 6.22386 14.2239 6 14.5 6L17.5 6C17.7761 6 18 6.22386 18 6.5V18.5C18 18.6326 17.9473 18.7598 17.8536 18.8536C17.7598 18.9473 17.6326 19 17.5 19L6.5 19C6.22386 19 6 18.7761 6 18.5L6 6.5Z" fill="#212648"/>
<path d="M14.5 5.5H9.5V7.5H14.5V5.5Z" stroke="#212648" stroke-linecap="round" stroke-linejoin="round"/>
<path fill-rule="evenodd" clip-rule="evenodd" d="M14.8536 11.1464C15.0488 11.3417 15.0488 11.6583 14.8536 11.8536L11.8536 14.8536C11.6583 15.0488 11.3417 15.0488 11.1464 14.8536L9.64645 13.3536C9.45118 13.1583 9.45118 12.8417 9.64645 12.6464C9.84171 12.4512 10.1583 12.4512 10.3536 12.6464L11.5 13.7929L14.1464 11.1464C14.3417 10.9512 14.6583 10.9512 14.8536 11.1464Z" fill="#212648"/>
</svg>
