<svg width="24" height="24" viewBox="0 0 24 24" fill="none" xmlns="http://www.w3.org/2000/svg">
<path d="M16.6407 10.5505C17.0393 10.5741 17.4143 10.6679 17.7657 10.8318C18.117 10.9956 18.4217 11.2184 18.6797 11.5C18.9377 11.7816 19.137 12.0981 19.2777 12.4495C19.4183 12.8009 19.4886 13.1817 19.4886 13.5919C19.4886 14.0022 19.4125 14.389 19.2602 14.7524C19.108 15.1158 18.8912 15.4381 18.61 15.7193C18.3287 16.0006 18.0064 16.2233 17.643 16.3876C17.2797 16.5518 16.887 16.6339 16.4652 16.6339H8.2386C7.72298 16.6339 7.24241 16.5344 6.79691 16.3353C6.35141 16.1361 5.95879 15.8665 5.61904 15.5264C5.27929 15.1863 5.00966 14.7878 4.81016 14.3311C4.61066 13.8743 4.5111 13.3879 4.51148 12.8719C4.51148 12.4733 4.57016 12.0807 4.68754 11.6941C4.80491 11.3074 4.98079 10.9559 5.21516 10.6394C5.44954 10.3229 5.73079 10.0474 6.05891 9.81306C6.38704 9.57869 6.7386 9.40281 7.1136 9.28544C7.3011 9.21494 7.48279 9.17388 7.65866 9.16225C7.83454 9.15063 8.01623 9.133 8.20373 9.10938C8.41485 8.78125 8.66104 8.48819 8.94229 8.23019C9.22354 7.97219 9.54004 7.75544 9.89179 7.57994C10.2435 7.40444 10.6069 7.26381 10.9819 7.15806C11.3569 7.05231 11.7319 6.99963 12.1069 7C12.6462 7 13.1618 7.08794 13.6538 7.26381C14.1458 7.43969 14.5911 7.68588 14.9897 8.00238C15.3884 8.31888 15.7341 8.69388 16.027 9.12738C16.3199 9.56088 16.525 10.0354 16.6424 10.5511L16.6407 10.5505ZM12.1058 7.94894C11.5665 7.94894 11.0451 8.06031 10.5415 8.28306C10.0379 8.50581 9.61016 8.82813 9.25841 9.25C9.44591 9.3205 9.6276 9.39081 9.80348 9.46094C9.97935 9.53106 10.1492 9.61319 10.3131 9.70731L13.2662 11.5006L15.3407 10.6568L15.6923 10.5511C15.5749 10.1761 15.399 9.8245 15.1647 9.49638C14.9303 9.16825 14.6549 8.89281 14.3384 8.67006C14.0219 8.44731 13.6761 8.27144 13.3011 8.14244C12.9261 8.01344 12.5277 7.94894 12.1058 7.94894ZM5.9886 14.5583L12.2115 11.9568L9.82091 10.5151C9.56291 10.3744 9.29929 10.2631 9.03004 10.1809C8.76079 10.0988 8.48535 10.0578 8.20373 10.0578C7.82873 10.0578 7.47135 10.1339 7.1316 10.2861C6.79185 10.4384 6.49879 10.6435 6.25241 10.9015C6.00604 11.1595 5.80673 11.4584 5.65448 11.7981C5.50223 12.1379 5.4261 12.4953 5.4261 12.8703C5.4261 13.1751 5.47879 13.474 5.58416 13.7669C5.68954 14.0598 5.82435 14.3234 5.9886 14.5578V14.5583ZM16.4652 15.6833C16.6995 15.6833 16.9223 15.6481 17.1334 15.5776C17.3445 15.5071 17.5438 15.4015 17.7313 15.2609L13.1959 12.5536L6.76204 15.2609C6.99641 15.4015 7.2366 15.5071 7.4826 15.5776C7.7286 15.6481 7.9806 15.6833 8.2386 15.6833H16.4652ZM18.3282 14.5234C18.4924 14.2186 18.5745 13.9021 18.5745 13.5739C18.5745 13.2458 18.51 12.9528 18.381 12.6948C18.252 12.4368 18.088 12.214 17.8889 12.0265C17.6897 11.839 17.4495 11.6926 17.1683 11.5872C16.887 11.4818 16.594 11.4291 16.2891 11.4291C16.1016 11.4291 15.9199 11.4526 15.744 11.4994C15.5682 11.5463 15.3983 11.605 15.2344 11.6755L14.7422 11.8864L14.2849 12.0974L18.3282 14.5234Z" fill="#212648"/>
</svg>
