<svg width="24" height="24" viewBox="0 0 24 24" fill="none" xmlns="http://www.w3.org/2000/svg">
<path d="M16.7464 15.9218L16.7563 15.9097L16.7654 15.8969C17.2299 15.2469 17.3296 14.3041 17.3296 13.6953C17.3296 12.8493 17.0941 12.0634 16.599 11.4802C16.0953 10.887 15.3603 10.5487 14.4654 10.5487C14.1281 10.5487 13.807 10.6083 13.5108 10.7198L13.0034 10.9109L13.2349 11.4012C13.4864 11.9338 13.668 12.5182 13.8404 13.1433C13.8869 13.3117 13.933 13.4847 13.9798 13.6601C14.103 14.122 14.231 14.6017 14.3819 15.0643C14.5588 15.6064 14.8149 15.9462 15.0924 16.1469C15.369 16.3469 15.6235 16.3773 15.743 16.3773C16.0858 16.3773 16.4801 16.2491 16.7464 15.9218Z" stroke="#212648"/>
<path d="M15.7725 15.8867L14.9707 15.2907C14.9373 15.3317 14.8639 15.3738 14.7566 15.3771C14.7454 15.3741 14.7169 15.3644 14.6783 15.3366C14.6078 15.2855 14.4589 15.1413 14.3326 14.7541C14.1907 14.3192 14.0737 13.8806 13.9532 13.4288C13.9038 13.2439 13.8539 13.0567 13.8014 12.8666C13.6245 12.2258 13.4227 11.5697 13.1293 10.9535C12.8615 10.3912 12.4729 9.76588 11.9095 9.2932C10.571 8.17023 8.43657 8.22376 7.21349 9.55647C6.77132 10.0383 6.55061 10.7158 6.44158 11.0989L6.23159 11.8367L6.9914 11.731C7.06505 11.7207 7.14146 11.7153 7.22059 11.7153C8.36453 11.7153 9.14887 12.1416 9.81165 12.7263C10.1505 13.0252 10.4559 13.3642 10.7654 13.7194C10.8091 13.7696 10.8531 13.8203 10.8973 13.8714C11.1593 14.1735 11.4311 14.4869 11.7151 14.7644C12.0444 15.0863 12.3588 15.3509 12.6544 15.5668C13.4144 16.122 14.0616 16.3641 14.5251 16.4223C14.6007 16.4317 14.6736 16.4366 14.743 16.4366C15.2275 16.4366 15.5746 16.1789 15.7725 15.8867Z" stroke="#212648"/>
<path d="M6.48879 15.2139C6.17862 15.0741 5.5 14.5036 5.5 13.4873C5.5 12.6459 6.20886 11.7153 7.22061 11.7153C8.36455 11.7153 9.14889 12.1416 9.81167 12.7263C10.1505 13.0252 10.4559 13.3642 10.7654 13.7194C10.8091 13.7696 10.8531 13.8203 10.8974 13.8714C11.1594 14.1735 11.4312 14.4869 11.7151 14.7644C11.9894 15.0325 12.2545 15.2619 12.508 15.4568C12.003 15.4587 11.4546 15.4593 10.9028 15.4579C9.18748 15.4537 7.49504 15.4298 6.95248 15.3685C6.95377 15.3686 6.94805 15.368 6.93365 15.3649C6.92 15.362 6.90248 15.3578 6.88115 15.3521C6.83823 15.3405 6.78781 15.3249 6.7349 15.3071C6.6262 15.2705 6.52857 15.2318 6.48879 15.2139Z" stroke="#212648"/>
<path d="M17.0376 15.9346C17.7197 15.9346 19.0576 15.5927 19.0576 14.0434C19.0576 13.1347 18.2859 12.673 17.6745 12.644C17.7771 12.9628 17.8296 13.3171 17.8296 13.6953C17.8296 14.2829 17.7273 15.0903 17.3583 15.6066C17.2495 15.746 17.1809 15.8042 17.0781 15.8587C17.0012 15.9019 16.8691 15.9323 16.7794 15.9365C16.8657 15.9361 16.9994 15.9346 17.0376 15.9346Z" fill="#212648"/>
</svg>
