<svg width="834" height="102" viewBox="0 0 834 102" fill="none" xmlns="http://www.w3.org/2000/svg">
<g clip-path="url(#clip0)">
<rect width="234" height="102" fill="#535B94"/>
<g opacity="0.1">
<path fill-rule="evenodd" clip-rule="evenodd" d="M34.3995 608.462C-19.1467 595.971 25.1771 454.243 18.9181 404.894C10.6796 339.936 -60.7246 321.956 -55.6354 273.648C-52.6073 244.903 -18.2341 185.81 84.2849 191.119C154.43 194.752 160.891 80.5983 237.335 112.097C310.183 142.114 216.607 251.64 267.567 289.475C320.693 328.919 328.05 385.842 313.779 419.865C296.948 459.989 277.262 492.961 193.965 489.125C128.276 486.1 107.938 625.617 34.3995 608.462Z" stroke="white" stroke-width="1.608" stroke-linecap="round" stroke-linejoin="round"/>
<path fill-rule="evenodd" clip-rule="evenodd" d="M14.6527 407.333C4.94733 341.484 -59.8155 321.443 -54.1824 271.984C-50.9197 242.866 -18.2719 183.564 82.7765 187.324C152.742 189.927 161.657 80.2625 237.325 112.723C310.491 144.11 221.083 249.594 272.03 287.538C325.6 327.478 329.842 385.081 316.384 419.798C300.316 461.245 279.078 495.553 195.896 492.643C129.584 490.323 108.771 624.246 34.8051 606.476C-19.0126 593.555 21.8669 456.282 14.6527 407.333Z" stroke="#FEFFFF" stroke-width="1.583" stroke-linecap="round" stroke-linejoin="round"/>
<path fill-rule="evenodd" clip-rule="evenodd" d="M10.3883 409.774C-0.805812 343.013 -58.905 320.93 -52.7284 270.322C-49.2312 240.83 -18.2942 181.295 81.2691 183.529C151.069 185.095 162.422 79.9505 237.316 113.35C310.803 146.121 225.56 247.549 276.494 285.602C330.507 326.039 331.645 384.332 318.989 419.731C303.693 462.517 280.892 498.157 197.828 496.161C130.89 494.554 109.605 622.876 35.2118 604.49C-18.8775 591.14 18.5275 458.315 10.3883 409.774Z" stroke="#FEFFFF" stroke-width="1.558" stroke-linecap="round" stroke-linejoin="round"/>
<path fill-rule="evenodd" clip-rule="evenodd" d="M6.12387 412.214C-6.58214 344.527 -57.87 320.433 -51.2744 268.659C-47.4713 238.803 -18.3031 179 79.7615 179.734C149.408 180.255 163.184 79.6608 237.307 113.976C311.118 148.148 230.036 245.504 280.957 283.665C335.414 324.599 333.458 383.594 321.595 419.664C307.079 463.801 282.701 500.771 199.76 499.679C132.192 498.79 110.439 621.505 35.6187 602.505C-18.7421 588.724 15.1581 460.342 6.12387 412.214Z" stroke="#FDFFFF" stroke-width="1.533" stroke-linecap="round" stroke-linejoin="round"/>
<path fill-rule="evenodd" clip-rule="evenodd" d="M1.85932 414.655C-12.382 346.027 -56.925 319.926 -49.8208 266.997C-45.7637 236.769 -18.2994 176.679 78.2537 175.939C147.761 175.405 163.944 79.392 237.298 114.603C311.434 150.189 234.513 243.459 285.421 281.729C340.321 323.158 335.283 382.865 324.201 419.597C310.474 465.095 284.509 503.397 201.692 503.197C133.492 503.034 111.273 620.135 36.0251 600.519C-18.6071 586.309 11.7602 462.365 1.85932 414.655Z" stroke="#FDFFFF" stroke-width="1.508" stroke-linecap="round" stroke-linejoin="round"/>
<path fill-rule="evenodd" clip-rule="evenodd" d="M-2.40556 417.095C-18.2062 347.516 -55.983 319.418 -48.3673 265.334C-44.0588 234.735 -18.2833 174.331 76.7461 172.143C146.127 170.547 164.699 79.1443 237.288 115.23C311.751 152.247 238.989 241.414 289.884 279.793C345.227 321.719 337.118 382.144 326.806 419.53C313.879 466.4 286.312 506.034 203.624 506.716C134.788 507.283 112.107 618.764 36.4318 598.533C-18.4724 583.894 8.33353 464.385 -2.40556 417.095Z" stroke="#FCFFFF" stroke-width="1.483" stroke-linecap="round" stroke-linejoin="round"/>
<path fill-rule="evenodd" clip-rule="evenodd" d="M-6.6705 419.535C-24.0555 348.995 -55.0445 318.911 -46.9138 263.671C-42.3555 232.701 -18.2557 171.954 75.238 168.348C144.504 165.677 165.451 78.9164 237.279 115.856C312.068 154.318 243.465 239.368 294.347 277.856C350.134 320.278 338.963 381.43 329.412 419.462C317.295 467.712 288.113 508.682 205.555 510.234C136.083 511.54 112.94 617.393 36.8379 596.547C-18.3376 581.478 4.88056 466.403 -6.6705 419.535Z" stroke="#FCFFFF" stroke-width="1.458" stroke-linecap="round" stroke-linejoin="round"/>
<path fill-rule="evenodd" clip-rule="evenodd" d="M-10.9346 421.975C-29.9289 350.467 -54.1078 318.404 -45.4597 262.009C-40.6534 230.668 -18.2164 169.549 73.7306 164.553C142.894 160.796 166.199 78.7085 237.27 116.483C312.384 156.406 247.942 237.323 298.811 275.919C355.041 318.839 340.819 380.722 332.018 419.395C320.722 469.033 289.914 511.341 207.487 513.753C137.375 515.804 113.775 616.023 37.2447 594.561C-18.2023 579.063 1.40257 468.422 -10.9346 421.975Z" stroke="#FBFFFF" stroke-width="1.433" stroke-linecap="round" stroke-linejoin="round"/>
<path fill-rule="evenodd" clip-rule="evenodd" d="M-15.1998 424.415C-35.8287 351.933 -53.1749 317.896 -44.0062 260.345C-38.9539 228.633 -18.1676 167.113 72.2225 160.758C141.294 155.901 166.941 78.5188 237.26 117.109C312.698 158.508 252.418 235.277 303.275 273.982C359.948 317.398 342.684 380.018 334.623 419.328C324.159 470.358 291.711 514.009 209.419 517.27C138.666 520.074 114.609 614.652 37.6511 592.575C-18.0679 576.647 -2.10091 470.439 -15.1998 424.415Z" stroke="#FBFFFF" stroke-width="1.408" stroke-linecap="round" stroke-linejoin="round"/>
<path fill-rule="evenodd" clip-rule="evenodd" d="M-19.4644 426.856C-41.754 353.397 -52.2443 317.388 -42.5527 258.683C-37.2559 226.6 -18.1092 164.647 70.7147 156.963C139.706 150.995 167.678 78.3473 237.251 117.736C313.009 160.627 256.894 233.232 307.738 272.046C364.855 315.959 344.559 379.32 337.229 419.261C327.607 471.69 293.508 516.689 211.351 520.789C139.956 524.352 115.443 613.281 38.0573 590.589C-17.9329 574.233 -5.62696 472.459 -19.4644 426.856Z" stroke="#FAFFFF" stroke-width="1.383" stroke-linecap="round" stroke-linejoin="round"/>
<path fill-rule="evenodd" clip-rule="evenodd" d="M-23.729 429.296C-47.7054 354.859 -51.3162 316.88 -41.0989 257.02C-35.5594 224.565 -18.0432 162.149 69.2071 153.167C138.127 146.073 168.41 78.1927 237.241 118.362C313.317 162.759 261.371 231.186 312.201 270.109C369.762 314.518 346.443 378.623 339.834 419.194C331.066 473.025 295.303 519.377 213.282 524.307C141.244 528.636 116.276 611.911 38.4638 588.603C-17.798 571.817 -9.1755 474.48 -23.729 429.296Z" stroke="#FAFFFF" stroke-width="1.358" stroke-linecap="round" stroke-linejoin="round"/>
<path fill-rule="evenodd" clip-rule="evenodd" d="M-27.9941 431.736C-53.6825 356.322 -50.3907 316.371 -39.6456 255.357C-33.8644 222.53 -17.9696 159.62 67.6992 149.372C136.557 141.135 169.134 78.0549 237.231 118.989C313.621 164.907 265.847 229.141 316.664 268.173C374.668 313.079 348.335 377.93 342.44 419.127C334.535 474.365 297.097 522.076 215.214 527.825C142.531 532.928 117.11 610.54 38.8702 586.617C-17.6634 569.402 -12.7447 476.503 -27.9941 431.736Z" stroke="#F9FFFF" stroke-width="1.333" stroke-linecap="round" stroke-linejoin="round"/>
<path fill-rule="evenodd" clip-rule="evenodd" d="M-32.2587 434.176C-59.6857 357.787 -49.4675 315.862 -38.1918 253.694C-32.1706 220.495 -17.8899 157.058 66.1914 145.577C134.996 136.181 169.853 77.9328 237.222 119.615C313.919 167.069 270.401 226.994 321.128 266.236C379.666 311.521 350.236 377.239 345.045 419.059C338.015 475.706 298.891 524.783 217.146 531.343C143.817 537.226 117.944 609.169 39.2764 584.632C-17.5284 566.986 -16.3334 478.53 -32.2587 434.176Z" stroke="#F9FFFF" stroke-width="1.308" stroke-linecap="round" stroke-linejoin="round"/>
<path fill-rule="evenodd" clip-rule="evenodd" d="M-36.5232 436.616C-65.7146 359.256 -48.5462 315.353 -36.738 252.031C-30.4774 218.46 -17.8046 154.465 64.6836 141.782C133.442 131.21 170.566 77.826 237.213 120.241C314.213 169.246 274.881 224.945 325.592 264.299C384.577 310.076 352.144 376.549 347.651 418.992C341.505 477.05 300.685 527.501 219.078 534.861C145.104 541.533 118.778 607.798 39.6832 582.646C-17.3933 564.571 -19.9408 480.561 -36.5232 436.616Z" stroke="#F8FFFF" stroke-width="1.282" stroke-linecap="round" stroke-linejoin="round"/>
<path fill-rule="evenodd" clip-rule="evenodd" d="M-40.788 439.056C-71.7695 360.731 -47.6271 314.844 -35.284 250.369C-28.7859 216.426 -17.7162 151.838 63.1757 137.987C131.894 126.22 171.271 77.7335 237.203 120.868C314.499 171.438 279.36 222.897 330.055 262.363C389.488 308.631 354.06 375.861 350.257 418.925C345.004 478.395 302.478 530.227 221.01 538.379C146.389 545.846 119.612 606.428 40.0894 580.66C-17.2584 562.156 -23.5654 482.597 -40.788 439.056Z" stroke="#F7FFFF" stroke-width="1.257" stroke-linecap="round" stroke-linejoin="round"/>
<path fill-rule="evenodd" clip-rule="evenodd" d="M-45.0524 441.497C-77.8501 362.213 -46.7103 314.334 -33.8305 248.707C-27.0955 214.39 -17.6248 149.179 61.6686 134.192C130.351 121.211 171.97 77.6551 237.194 121.495C314.779 173.644 283.838 220.849 334.518 260.427C394.398 307.188 355.983 375.173 352.862 418.859C348.514 479.741 304.272 532.962 222.941 541.898C147.676 550.167 120.446 605.057 40.4962 578.675C-17.1235 559.741 -27.2064 484.638 -45.0524 441.497Z" stroke="#F7FFFF" stroke-width="1.232" stroke-linecap="round" stroke-linejoin="round"/>
<path fill-rule="evenodd" clip-rule="evenodd" d="M-49.3173 443.937C-83.9568 363.703 -45.7957 313.824 -32.3769 247.043C-25.4065 212.354 -17.5325 146.486 60.1605 130.396C128.812 116.179 172.66 77.5882 237.184 122.121C315.051 175.863 288.316 218.802 338.981 258.49C399.307 305.745 357.912 374.485 355.468 418.791C352.032 481.087 306.067 535.705 224.873 545.415C148.962 554.495 121.28 603.686 40.9026 576.688C-16.9886 557.325 -30.8629 486.682 -49.3173 443.937Z" stroke="#F6FFFF" stroke-width="1.207" stroke-linecap="round" stroke-linejoin="round"/>
<path fill-rule="evenodd" clip-rule="evenodd" d="M-53.5821 446.377C-90.0884 365.203 -44.8828 313.313 -30.9233 245.381C-23.7183 210.319 -17.4404 143.761 58.6528 126.601C127.275 111.126 173.344 77.5345 237.175 122.748C315.315 178.096 292.794 216.755 343.445 256.553C404.216 304.303 359.847 373.797 358.073 418.724C355.559 482.433 307.861 538.456 226.805 548.934C150.249 558.83 122.113 602.315 41.309 574.702C-16.8538 554.91 -34.5334 488.733 -53.5821 446.377Z" stroke="#F6FFFF" stroke-width="1.182" stroke-linecap="round" stroke-linejoin="round"/>
<path fill-rule="evenodd" clip-rule="evenodd" d="M-57.8465 448.817C-96.2447 366.714 -43.9719 312.802 -29.4696 243.718C-22.0308 208.284 -17.3491 141.004 57.1451 122.806C125.739 106.05 174.02 77.4924 237.166 123.375C315.569 180.344 297.271 214.71 347.909 254.617C409.125 302.861 361.788 373.109 360.679 418.657C359.095 483.779 309.657 541.216 228.737 552.452C151.536 563.173 122.948 600.945 41.7156 572.717C-16.7187 552.495 -38.2166 490.79 -57.8465 448.817Z" stroke="#F5FFFF" stroke-width="1.157" stroke-linecap="round" stroke-linejoin="round"/>
<path fill-rule="evenodd" clip-rule="evenodd" d="M-62.1114 451.257C-102.426 368.237 -43.0627 312.29 -28.0158 242.055C-20.3445 206.247 -17.261 138.213 55.6372 119.011C124.202 100.95 174.688 77.4607 237.156 124.001C315.814 182.604 301.747 212.664 352.372 252.68C414.033 301.419 363.733 372.419 363.285 418.589C362.638 485.124 311.453 543.982 230.668 555.97C152.825 567.521 123.781 599.574 42.1218 570.73C-16.5841 550.079 -41.9128 492.852 -62.1114 451.257Z" stroke="#F5FFFF" stroke-width="1.132" stroke-linecap="round" stroke-linejoin="round"/>
<path fill-rule="evenodd" clip-rule="evenodd" d="M-66.3759 453.698C-108.632 369.774 -42.1552 311.778 -26.5622 240.393C-18.6585 204.211 -17.1767 135.392 54.1298 115.216C122.663 95.8242 175.349 77.4393 237.147 124.628C316.05 184.877 306.224 210.619 356.836 250.744C418.94 299.979 365.684 371.729 365.891 418.523C366.19 486.468 313.251 546.756 232.6 559.488C154.114 571.878 124.615 598.204 42.5287 568.745C-16.4488 547.664 -45.6196 494.921 -66.3759 453.698Z" stroke="#F4FFFF" stroke-width="1.107" stroke-linecap="round" stroke-linejoin="round"/>
<path fill-rule="evenodd" clip-rule="evenodd" d="M-70.6409 456.138C-114.861 371.324 -41.2499 311.266 -25.1085 238.73C-16.9738 202.174 -17.0986 132.54 52.6216 111.421C121.119 90.672 176.001 77.4273 237.137 125.254C316.275 187.163 310.699 208.575 361.299 248.807C423.847 298.539 367.64 371.039 368.496 418.455C369.748 487.81 315.049 549.538 234.531 563.007C155.405 576.242 125.449 596.833 42.935 566.759C-16.3143 545.249 -49.3376 496.997 -70.6409 456.138Z" stroke="#F4FEFF" stroke-width="1.082" stroke-linecap="round" stroke-linejoin="round"/>
<path fill-rule="evenodd" clip-rule="evenodd" d="M-74.9055 458.578C-121.114 372.891 -40.3454 310.753 -23.6549 237.067C-15.2895 200.137 -17.0272 129.657 51.114 107.626C119.569 85.4927 176.646 77.4246 237.128 125.881C316.489 189.462 315.175 206.531 365.762 246.871C428.753 297.101 369.6 370.347 371.102 418.388C373.314 489.15 316.85 552.326 236.464 566.525C156.697 580.614 126.283 595.462 43.3415 564.773C-16.1793 542.833 -53.0647 499.079 -74.9055 458.578Z" stroke="#F3FEFF" stroke-width="1.057" stroke-linecap="round" stroke-linejoin="round"/>
<path fill-rule="evenodd" clip-rule="evenodd" d="M-79.1701 461.018C-127.39 374.473 -39.4427 310.24 -22.2009 235.404C-13.6061 198.1 -16.9642 126.745 49.6062 103.83C118.011 80.2847 177.283 77.4298 237.118 126.507C316.691 191.773 319.65 204.488 370.226 244.934C433.66 295.662 371.563 369.654 373.707 418.321C376.886 490.49 318.652 555.121 238.395 570.043C157.991 584.992 127.117 594.091 43.748 562.787C-16.0442 540.417 -56.8007 501.167 -79.1701 461.018Z" stroke="#F3FEFF" stroke-width="1.032" stroke-linecap="round" stroke-linejoin="round"/>
<path fill-rule="evenodd" clip-rule="evenodd" d="M-83.4345 463.459C-133.688 376.072 -38.5416 309.726 -20.7471 233.742C-11.9234 196.063 -16.9112 123.804 48.0986 100.035C116.443 75.0475 177.911 77.443 237.109 127.134C316.882 194.096 324.124 202.446 374.689 242.998C438.565 294.224 373.531 368.96 376.313 418.254C380.465 491.827 320.456 557.923 240.327 573.561C159.287 589.377 127.951 592.721 44.1545 560.802C-15.9093 538.003 -60.5444 503.263 -83.4345 463.459Z" stroke="#F2FEFF" stroke-width="1.007" stroke-linecap="round" stroke-linejoin="round"/>
<path fill-rule="evenodd" clip-rule="evenodd" d="M-87.6997 465.899C-140.008 377.688 -37.6424 309.212 -19.2939 232.079C-10.2417 194.026 -16.8703 120.836 46.5909 96.24C114.862 69.7796 178.532 77.463 237.099 127.76C317.06 196.429 328.598 200.403 379.152 241.061C443.469 292.787 375.501 368.264 378.918 418.187C384.05 493.162 322.262 560.731 242.259 577.079C160.585 593.769 128.785 591.35 44.5606 558.816C-15.7747 535.587 -64.2962 505.365 -87.6997 465.899Z" stroke="#F2FEFF" stroke-width="0.982" stroke-linecap="round" stroke-linejoin="round"/>
<path fill-rule="evenodd" clip-rule="evenodd" d="M-91.9646 468.339C-146.35 379.323 -36.7443 308.697 -17.8404 230.416C-8.56031 191.988 -16.842 117.842 45.0828 92.4445C113.266 64.4805 179.144 77.4895 237.09 128.387C317.226 198.774 332.991 198.461 383.616 239.124C448.27 291.478 377.475 367.566 381.524 418.12C387.64 494.495 324.069 563.544 244.19 580.597C161.885 598.168 129.618 589.979 44.9669 556.83C-15.6398 533.171 -68.0542 507.474 -91.9646 468.339Z" stroke="#F1FEFF" stroke-width="0.956" stroke-linecap="round" stroke-linejoin="round"/>
<path fill-rule="evenodd" clip-rule="evenodd" d="M-96.2289 470.779C-152.711 380.977 -35.8471 308.182 -16.3862 228.753C-6.87906 189.95 -16.8273 114.823 43.5753 88.6495C111.654 59.1499 179.749 77.5229 237.081 129.013C317.379 201.131 337.468 196.415 388.079 237.188C453.177 290.038 379.453 366.868 384.13 418.052C391.236 495.826 325.88 566.364 246.122 584.116C163.188 602.574 130.452 588.609 45.3737 554.844C-15.5048 530.756 -71.8175 509.59 -96.2289 470.779Z" stroke="#F1FEFF" stroke-width="0.931" stroke-linecap="round" stroke-linejoin="round"/>
<path fill-rule="evenodd" clip-rule="evenodd" d="M-100.494 473.219C-159.093 382.651 -34.9516 307.666 -14.9327 227.091C-5.19883 187.912 -16.8288 111.781 42.0672 84.8546C110.021 53.7869 180.346 77.5613 237.071 129.64C317.519 203.497 341.944 194.37 392.543 235.251C458.084 288.598 381.432 366.168 386.735 417.986C394.838 497.155 327.692 569.189 248.054 587.634C164.493 606.987 131.286 587.238 45.7801 552.858C-15.3699 528.341 -75.5869 511.714 -100.494 473.219Z" stroke="#F0FEFF" stroke-width="0.906" stroke-linecap="round" stroke-linejoin="round"/>
<path fill-rule="evenodd" clip-rule="evenodd" d="M-104.758 475.659C-165.495 384.345 -34.0575 307.15 -13.479 225.427C-3.51931 185.874 -16.8474 108.717 40.5594 81.059C108.365 48.3904 180.934 77.6039 237.062 130.266C317.644 205.874 346.421 192.325 397.006 233.314C462.991 287.158 383.414 365.466 389.34 417.918C398.443 498.481 329.507 572.019 249.986 591.152C165.801 611.406 132.12 585.867 46.1866 550.872C-15.235 525.925 -79.361 513.843 -104.758 475.659Z" stroke="#EFFEFF" stroke-width="0.881" stroke-linecap="round" stroke-linejoin="round"/>
<path fill-rule="evenodd" clip-rule="evenodd" d="M-109.023 478.1C-171.915 386.059 -33.1643 306.634 -12.0252 223.765C-1.83971 183.836 -16.8844 105.634 39.052 77.2642C106.685 42.9615 184.053 75.1251 237.053 130.893C314.069 211.933 350.897 190.28 401.47 231.378C467.898 285.719 385.399 364.763 391.946 417.851C402.053 499.806 331.324 574.855 251.917 594.67C167.111 615.834 132.954 584.497 46.5931 548.886C-15.1003 523.51 -83.1391 515.98 -109.023 478.1Z" stroke="#EFFEFF" stroke-width="0.856" stroke-linecap="round" stroke-linejoin="round"/>
<path fill-rule="evenodd" clip-rule="evenodd" d="M-113.288 480.54C-178.353 387.793 -32.2723 306.117 -10.5716 222.102C-0.160985 181.797 -16.9408 102.532 37.5442 73.4688C104.978 37.4987 184.466 75.3789 237.043 131.52C314.359 214.076 355.373 188.234 405.933 229.441C472.805 284.278 387.386 364.058 394.552 417.784C405.668 501.128 333.144 577.695 253.849 598.188C168.425 620.266 133.788 583.126 46.9994 546.9C-14.9651 521.095 -86.9207 518.124 -113.288 480.54Z" stroke="#EEFEFF" stroke-width="0.831" stroke-linecap="round" stroke-linejoin="round"/>
<path fill-rule="evenodd" clip-rule="evenodd" d="M-117.552 482.98C-184.809 389.549 -31.3817 305.599 -9.11774 220.439C1.51751 179.758 -17.0184 99.4143 36.0364 69.6737C103.239 32.0029 184.855 75.6437 237.034 132.146C314.664 216.21 359.85 186.189 410.397 227.505C477.711 282.838 389.375 363.352 397.157 417.717C409.287 502.447 334.966 580.54 255.781 601.707C169.741 624.705 134.622 581.755 47.4061 544.914C-14.8302 518.68 -90.7054 520.274 -117.552 482.98Z" stroke="#EEFEFF" stroke-width="0.806" stroke-linecap="round" stroke-linejoin="round"/>
<path fill-rule="evenodd" clip-rule="evenodd" d="M-121.817 485.42C-191.282 391.327 -30.492 305.082 -7.66427 218.777C3.19564 177.719 -17.1184 96.2819 34.5288 65.8787C101.467 26.4738 185.222 75.9183 237.024 132.773C314.983 218.335 364.326 184.143 414.86 225.568C482.618 281.398 391.366 362.644 399.763 417.65C412.91 503.765 336.791 583.389 257.712 605.225C171.061 629.151 135.456 580.385 47.8125 542.929C-14.6956 516.264 -94.4937 522.432 -121.817 485.42Z" stroke="#EDFEFF" stroke-width="0.781" stroke-linecap="round" stroke-linejoin="round"/>
<path fill-rule="evenodd" clip-rule="evenodd" d="M-126.082 487.861C-197.77 393.125 -29.6032 304.564 -6.21022 217.114C4.87302 175.68 -17.2416 93.1373 33.0212 62.0837C99.6598 20.912 183.76 77.8805 237.015 133.399C318.066 217.897 368.802 182.098 419.323 223.632C487.525 279.958 393.358 361.934 402.369 417.583C416.537 505.08 338.619 586.243 259.645 608.743C172.384 633.604 136.29 579.014 48.2191 540.943C-14.5604 513.849 -98.2831 524.596 -126.082 487.861Z" stroke="#EDFEFF" stroke-width="0.756" stroke-linecap="round" stroke-linejoin="round"/>
<path fill-rule="evenodd" clip-rule="evenodd" d="M-130.346 490.301C-204.274 394.945 -28.871 304.003 -4.75676 215.451C6.47697 173.621 -17.3894 89.983 31.5133 58.2883C97.8136 15.3181 184.302 77.9444 237.005 134.026C318.107 220.327 373.279 180.053 423.787 221.695C492.432 278.518 395.352 361.223 404.974 417.516C420.166 506.392 340.45 589.101 261.576 612.261C173.711 638.062 137.124 577.643 48.6254 538.957C-14.4256 511.433 -102.075 526.766 -130.346 490.301Z" stroke="#ECFEFF" stroke-width="0.731" stroke-linecap="round" stroke-linejoin="round"/>
<path fill-rule="evenodd" clip-rule="evenodd" d="M-134.611 492.741C-210.792 396.788 -27.9606 303.49 -3.30267 213.789C8.16517 171.585 -17.5625 86.8209 30.0058 54.4935C95.9264 9.69349 184.838 78.0107 236.996 134.653C318.134 222.765 377.755 178.008 428.25 219.759C497.339 277.078 397.348 360.511 407.58 417.449C423.8 507.703 342.283 591.963 263.508 615.78C175.041 642.527 137.958 576.273 49.032 536.971C-14.2906 509.019 -105.868 528.943 -134.611 492.741Z" stroke="#ECFEFF" stroke-width="0.706" stroke-linecap="round" stroke-linejoin="round"/>
<path fill-rule="evenodd" clip-rule="evenodd" d="M-138.876 495.181C-217.325 398.651 -27.0506 302.977 -1.84947 212.125C9.85316 169.548 -17.7624 83.6526 28.4978 50.698C93.9953 4.03843 185.365 78.0782 236.986 135.279C318.145 225.209 382.231 175.962 432.713 217.822C502.246 275.638 399.345 359.796 410.185 417.381C427.435 509.011 344.12 594.828 265.439 619.297C176.374 646.997 138.791 574.902 49.4383 534.985C-14.1558 506.603 -109.663 531.126 -138.876 495.181Z" stroke="#EBFEFF" stroke-width="0.681" stroke-linecap="round" stroke-linejoin="round"/>
<path fill-rule="evenodd" clip-rule="evenodd" d="M-143.14 497.621C-223.87 400.537 -26.1402 302.465 -0.395177 210.463C11.5418 167.511 -17.9885 80.4824 26.9905 46.9032C92.0193 -1.64403 185.886 78.1477 236.978 135.906C318.143 227.662 386.708 173.917 437.177 215.886C507.153 274.198 401.344 359.081 412.792 417.315C431.075 510.317 345.96 597.697 267.372 622.816C177.711 651.474 139.626 573.532 49.8453 533C-14.0204 504.188 -113.458 533.317 -143.14 497.621Z" stroke="#EBFEFF" stroke-width="0.656" stroke-linecap="round" stroke-linejoin="round"/>
<path fill-rule="evenodd" clip-rule="evenodd" d="M-147.405 500.061C-230.429 402.445 -25.2302 301.951 1.05803 208.8C13.2295 165.475 -18.2434 77.3102 25.4823 43.1078C89.9944 -7.35394 186.398 78.2173 236.968 136.532C318.124 230.119 391.184 171.871 441.64 213.949C512.059 272.758 403.343 358.364 415.397 417.247C434.716 511.621 347.802 600.569 269.303 626.334C179.052 655.956 140.459 572.16 50.2512 531.013C-13.8861 501.772 -117.254 535.512 -147.405 500.061Z" stroke="#EAFEFF" stroke-width="0.63" stroke-linecap="round" stroke-linejoin="round"/>
<path fill-rule="evenodd" clip-rule="evenodd" d="M-151.67 502.502C-236.999 404.373 -24.3203 301.438 2.5117 207.137C14.9175 163.437 -18.5263 74.1397 23.9746 39.3123C87.92 -13.088 186.905 78.2877 236.958 137.159C318.091 232.583 395.66 169.826 446.104 212.012C516.966 271.318 405.411 357.632 418.002 417.18C438.469 512.899 349.686 603.559 271.235 629.852C180.441 660.575 141.293 570.79 50.6578 529.027C-13.751 499.357 -121.05 537.715 -151.67 502.502Z" stroke="#EAFEFF" stroke-width="0.605" stroke-linecap="round" stroke-linejoin="round"/>
<path fill-rule="evenodd" clip-rule="evenodd" d="M-155.934 504.942C-243.58 406.324 -23.41 300.925 3.96543 205.475C16.6058 161.401 -18.8379 70.9737 22.467 35.5173C85.7946 -18.8432 187.404 78.3593 236.949 137.785C318.043 235.053 400.137 167.781 450.567 210.076C521.873 269.878 407.345 356.926 420.608 417.113C442.007 514.222 351.496 606.324 273.167 633.37C181.745 664.937 142.127 569.419 51.0642 527.042C-13.6162 496.942 -124.845 539.923 -155.934 504.942Z" stroke="#E9FEFF" stroke-width="0.58" stroke-linecap="round" stroke-linejoin="round"/>
</g>
</g>
<g clip-path="url(#clip1)">
<rect width="600" height="102" transform="translate(234)" fill="#535B94"/>
<g opacity="0.1">
<path fill-rule="evenodd" clip-rule="evenodd" d="M437.399 116.462C383.853 103.971 428.177 -37.7567 421.918 -87.1061C413.68 -152.064 342.275 -170.044 347.365 -218.352C350.393 -247.097 384.766 -306.19 487.285 -300.881C557.43 -297.248 563.891 -411.402 640.335 -379.903C713.183 -349.886 619.607 -240.36 670.567 -202.525C723.693 -163.081 731.05 -106.158 716.779 -72.1348C699.948 -32.0114 680.262 0.961355 596.965 -2.87492C531.276 -5.90027 510.938 133.617 437.399 116.462Z" stroke="white" stroke-width="1.608" stroke-linecap="round" stroke-linejoin="round"/>
<path fill-rule="evenodd" clip-rule="evenodd" d="M417.653 -84.6665C407.947 -150.516 343.184 -170.557 348.818 -220.016C352.08 -249.134 384.728 -308.436 485.777 -304.676C555.742 -302.073 564.657 -411.737 640.325 -379.277C713.491 -347.89 624.083 -242.406 675.03 -204.462C728.6 -164.522 732.842 -106.919 719.384 -72.2024C703.316 -30.7547 682.078 3.55269 598.896 0.642584C532.584 -1.67693 511.771 132.246 437.805 114.476C383.987 101.555 424.867 -35.7177 417.653 -84.6665Z" stroke="#FEFFFF" stroke-width="1.583" stroke-linecap="round" stroke-linejoin="round"/>
<path fill-rule="evenodd" clip-rule="evenodd" d="M413.388 -82.2259C402.194 -148.987 344.095 -171.07 350.272 -221.678C353.769 -251.17 384.706 -310.705 484.269 -308.471C554.069 -306.905 565.422 -412.05 640.316 -378.65C713.803 -345.879 628.56 -244.451 679.494 -206.398C733.507 -165.962 734.645 -107.668 721.989 -72.269C706.693 -29.483 683.892 6.15652 600.828 4.16111C533.89 2.55351 512.605 130.876 438.212 112.49C384.123 99.1398 421.527 -33.6851 413.388 -82.2259Z" stroke="#FEFFFF" stroke-width="1.558" stroke-linecap="round" stroke-linejoin="round"/>
<path fill-rule="evenodd" clip-rule="evenodd" d="M409.124 -79.7856C396.418 -147.473 345.13 -171.567 351.726 -223.341C355.529 -253.197 384.697 -313 482.761 -312.266C552.408 -311.745 566.184 -412.339 640.307 -378.024C714.118 -343.852 633.036 -246.496 683.957 -208.335C738.414 -167.401 736.458 -108.406 724.595 -72.3362C710.079 -28.1995 685.701 8.77121 602.76 7.67926C535.192 6.79009 513.439 129.505 438.619 110.505C384.258 96.7244 418.158 -31.6578 409.124 -79.7856Z" stroke="#FDFFFF" stroke-width="1.533" stroke-linecap="round" stroke-linejoin="round"/>
<path fill-rule="evenodd" clip-rule="evenodd" d="M404.859 -77.3455C390.618 -145.973 346.075 -172.074 353.179 -225.003C357.236 -255.231 384.701 -315.321 481.254 -316.061C550.761 -316.595 566.944 -412.608 640.298 -377.397C714.434 -341.811 637.513 -248.541 688.421 -210.271C743.321 -168.842 738.283 -109.135 727.201 -72.4034C713.474 -26.9046 687.509 11.3971 604.692 11.1974C536.492 11.0337 514.273 128.135 439.025 108.519C384.393 94.3091 414.76 -29.6349 404.859 -77.3455Z" stroke="#FDFFFF" stroke-width="1.508" stroke-linecap="round" stroke-linejoin="round"/>
<path fill-rule="evenodd" clip-rule="evenodd" d="M400.594 -74.905C384.794 -144.484 347.017 -172.582 354.633 -226.666C358.941 -257.265 384.717 -317.669 479.746 -319.857C549.127 -321.453 567.699 -412.856 640.288 -376.77C714.751 -339.753 641.989 -250.586 692.884 -212.207C748.227 -170.281 740.118 -109.856 729.806 -72.4701C716.879 -25.6003 689.312 14.0344 606.624 14.7161C537.788 15.2833 515.107 126.764 439.432 106.533C384.528 91.8942 411.334 -27.6146 400.594 -74.905Z" stroke="#FCFFFF" stroke-width="1.483" stroke-linecap="round" stroke-linejoin="round"/>
<path fill-rule="evenodd" clip-rule="evenodd" d="M396.33 -72.4652C378.945 -143.005 347.956 -173.089 356.086 -228.329C360.645 -259.299 384.744 -320.046 478.238 -323.652C547.504 -326.323 568.451 -413.084 640.279 -376.144C715.068 -337.682 646.465 -252.632 697.347 -214.144C753.134 -171.722 741.963 -110.57 732.412 -72.5378C720.295 -24.2876 691.113 16.6818 608.555 18.234C539.083 19.5397 515.94 125.393 439.838 104.547C384.662 89.4783 407.881 -25.5965 396.33 -72.4652Z" stroke="#FCFFFF" stroke-width="1.458" stroke-linecap="round" stroke-linejoin="round"/>
<path fill-rule="evenodd" clip-rule="evenodd" d="M392.065 -70.0247C373.071 -141.533 348.892 -173.596 357.54 -229.991C362.347 -261.332 384.784 -322.451 476.731 -327.447C545.894 -331.204 569.199 -413.292 640.27 -375.517C715.384 -335.594 650.942 -254.677 701.811 -216.081C758.041 -173.161 743.819 -111.278 735.018 -72.6047C723.722 -22.9674 692.914 19.3408 610.487 21.7526C540.375 23.8039 516.775 124.023 440.245 102.561C384.798 87.0635 404.403 -23.5783 392.065 -70.0247Z" stroke="#FBFFFF" stroke-width="1.433" stroke-linecap="round" stroke-linejoin="round"/>
<path fill-rule="evenodd" clip-rule="evenodd" d="M387.8 -67.5848C367.171 -140.067 349.825 -174.104 358.994 -231.655C364.046 -263.367 384.832 -324.887 475.223 -331.242C544.294 -336.099 569.941 -413.481 640.26 -374.891C715.698 -333.492 655.418 -256.723 706.275 -218.018C762.948 -174.602 745.684 -111.982 737.623 -72.6719C727.159 -21.6417 694.711 22.0093 612.419 25.2701C541.666 28.0736 517.609 122.652 440.651 100.575C384.932 84.6475 400.899 -21.5608 387.8 -67.5848Z" stroke="#FBFFFF" stroke-width="1.408" stroke-linecap="round" stroke-linejoin="round"/>
<path fill-rule="evenodd" clip-rule="evenodd" d="M383.536 -65.1443C361.246 -138.603 350.756 -174.612 360.447 -233.317C365.744 -265.4 384.891 -327.353 473.715 -335.037C542.706 -341.005 570.678 -413.653 640.251 -374.264C716.009 -331.373 659.894 -258.768 710.738 -219.954C767.855 -176.041 747.559 -112.68 740.229 -72.7388C730.607 -20.3097 696.508 24.6887 614.351 28.7887C542.956 32.3518 518.443 121.281 441.057 98.5894C385.067 82.2325 397.373 -19.5412 383.536 -65.1443Z" stroke="#FAFFFF" stroke-width="1.383" stroke-linecap="round" stroke-linejoin="round"/>
<path fill-rule="evenodd" clip-rule="evenodd" d="M379.271 -62.7044C355.295 -137.141 351.684 -175.12 361.901 -234.98C367.441 -267.435 384.957 -329.851 472.207 -338.833C541.127 -345.927 571.41 -413.807 640.241 -373.638C716.317 -329.241 664.371 -260.814 715.201 -221.891C772.762 -177.482 749.443 -113.377 742.834 -72.8064C734.066 -18.9746 698.303 27.3771 616.282 32.3067C544.244 36.6363 519.276 119.911 441.464 96.6035C385.202 79.817 393.824 -17.5202 379.271 -62.7044Z" stroke="#FAFFFF" stroke-width="1.358" stroke-linecap="round" stroke-linejoin="round"/>
<path fill-rule="evenodd" clip-rule="evenodd" d="M375.006 -60.2641C349.318 -135.678 352.609 -175.629 363.354 -236.643C369.136 -269.47 385.03 -332.38 470.699 -342.628C539.557 -350.865 572.134 -413.945 640.231 -373.011C716.621 -327.093 668.847 -262.859 719.664 -223.827C777.668 -178.921 751.335 -114.07 745.44 -72.8734C737.535 -17.6355 700.097 30.0756 618.214 35.8248C545.531 40.9277 520.11 118.54 441.87 94.6174C385.337 77.4016 390.255 -15.4965 375.006 -60.2641Z" stroke="#F9FFFF" stroke-width="1.333" stroke-linecap="round" stroke-linejoin="round"/>
<path fill-rule="evenodd" clip-rule="evenodd" d="M370.741 -57.8242C343.314 -134.213 353.533 -176.138 364.808 -238.306C370.829 -271.505 385.11 -334.942 469.191 -346.423C537.996 -355.819 572.853 -414.067 640.222 -372.385C716.919 -324.931 673.401 -265.006 724.128 -225.764C782.666 -180.479 753.236 -114.761 748.045 -72.9407C741.015 -16.2941 701.891 32.7834 620.146 39.3427C546.817 45.2264 520.944 117.169 442.276 92.6316C385.472 74.9862 386.667 -13.4698 370.741 -57.8242Z" stroke="#F9FFFF" stroke-width="1.308" stroke-linecap="round" stroke-linejoin="round"/>
<path fill-rule="evenodd" clip-rule="evenodd" d="M366.477 -55.3841C337.285 -132.744 354.454 -176.647 366.262 -239.969C372.523 -273.54 385.195 -337.535 467.684 -350.218C536.442 -360.79 573.566 -414.174 640.213 -371.759C717.213 -322.754 677.881 -267.055 728.592 -227.701C787.577 -181.924 755.144 -115.451 750.651 -73.0081C744.505 -14.9503 703.685 35.5006 622.078 42.8608C548.104 49.5327 521.778 115.798 442.683 90.6456C385.607 72.5708 383.059 -11.4388 366.477 -55.3841Z" stroke="#F8FFFF" stroke-width="1.282" stroke-linecap="round" stroke-linejoin="round"/>
<path fill-rule="evenodd" clip-rule="evenodd" d="M362.212 -52.9435C331.231 -131.269 355.373 -177.156 367.716 -241.631C374.214 -275.574 385.284 -340.162 466.176 -354.013C534.894 -365.78 574.271 -414.266 640.203 -371.132C717.499 -320.562 682.36 -269.103 733.055 -229.637C792.488 -183.369 757.06 -116.139 753.257 -73.0748C748.004 -13.6047 705.478 38.227 624.01 46.3793C549.389 53.8464 522.612 114.428 443.089 88.6599C385.742 70.1558 379.435 -9.40295 362.212 -52.9435Z" stroke="#F7FFFF" stroke-width="1.257" stroke-linecap="round" stroke-linejoin="round"/>
<path fill-rule="evenodd" clip-rule="evenodd" d="M357.948 -50.503C325.15 -129.787 356.29 -177.666 369.17 -243.293C375.904 -277.61 385.375 -342.821 464.669 -357.808C533.351 -370.789 574.97 -414.345 640.194 -370.505C717.779 -318.356 686.838 -271.151 737.518 -231.573C797.398 -184.812 758.983 -116.827 755.862 -73.1415C751.514 -12.2586 707.272 40.9619 625.941 49.8979C550.676 58.1673 523.446 113.057 443.496 86.6746C385.877 67.7406 375.794 -7.36241 357.948 -50.503Z" stroke="#F7FFFF" stroke-width="1.232" stroke-linecap="round" stroke-linejoin="round"/>
<path fill-rule="evenodd" clip-rule="evenodd" d="M353.683 -48.0634C319.043 -128.297 357.204 -178.176 370.623 -244.957C377.593 -279.646 385.467 -345.514 463.161 -361.604C531.812 -375.821 575.66 -414.412 640.184 -369.879C718.051 -316.137 691.316 -273.198 741.981 -233.51C802.307 -186.255 760.912 -117.516 758.468 -73.2094C755.032 -10.9129 709.067 43.7046 627.873 53.4153C551.962 62.4946 524.28 111.686 443.903 84.6881C386.011 65.325 372.137 -5.31806 353.683 -48.0634Z" stroke="#F6FFFF" stroke-width="1.207" stroke-linecap="round" stroke-linejoin="round"/>
<path fill-rule="evenodd" clip-rule="evenodd" d="M349.418 -45.6229C312.912 -126.797 358.117 -178.687 372.077 -246.619C379.282 -281.681 385.56 -348.239 461.653 -365.399C530.275 -380.874 576.344 -414.465 640.175 -369.252C718.315 -313.904 695.794 -275.245 746.445 -235.447C807.216 -187.697 762.847 -118.203 761.073 -73.2763C758.559 -9.5666 710.861 46.4562 629.805 56.9338C553.249 66.8297 525.113 110.315 444.309 82.7023C386.146 62.9097 368.467 -3.2671 349.418 -45.6229Z" stroke="#F6FFFF" stroke-width="1.182" stroke-linecap="round" stroke-linejoin="round"/>
<path fill-rule="evenodd" clip-rule="evenodd" d="M345.153 -43.1826C306.755 -125.286 359.028 -179.198 373.53 -248.282C380.969 -283.716 385.651 -350.996 460.145 -369.194C528.739 -385.95 577.02 -414.508 640.166 -368.625C718.569 -311.656 700.271 -277.29 750.909 -237.383C812.125 -189.139 764.788 -118.891 763.679 -73.343C762.095 -8.22069 712.657 49.2156 631.737 60.4524C554.536 71.1726 525.948 108.945 444.716 80.7169C386.281 60.4946 364.783 -1.20998 345.153 -43.1826Z" stroke="#F5FFFF" stroke-width="1.157" stroke-linecap="round" stroke-linejoin="round"/>
<path fill-rule="evenodd" clip-rule="evenodd" d="M340.889 -40.7429C300.574 -123.763 359.937 -179.71 374.984 -249.945C382.656 -285.753 385.739 -353.787 458.637 -372.989C527.202 -391.05 577.688 -414.539 640.156 -367.999C718.814 -309.396 704.747 -279.336 755.372 -239.32C817.033 -190.581 766.733 -119.581 766.285 -73.4107C765.638 -6.87633 714.453 51.982 633.668 63.9703C555.825 75.5214 526.781 107.574 445.122 78.7303C386.416 58.0789 361.087 0.852407 340.889 -40.7429Z" stroke="#F5FFFF" stroke-width="1.132" stroke-linecap="round" stroke-linejoin="round"/>
<path fill-rule="evenodd" clip-rule="evenodd" d="M336.624 -38.3023C294.368 -122.226 360.845 -180.222 376.438 -251.607C384.342 -287.789 385.823 -356.608 457.13 -376.784C525.663 -396.176 578.349 -414.561 640.147 -367.372C719.05 -307.123 709.224 -281.381 759.836 -241.256C821.94 -192.021 768.684 -120.271 768.891 -73.4774C769.19 -5.53229 716.251 54.7565 635.6 67.4885C557.114 79.8785 527.615 106.204 445.529 76.7448C386.551 55.6638 357.38 2.92129 336.624 -38.3023Z" stroke="#F4FFFF" stroke-width="1.107" stroke-linecap="round" stroke-linejoin="round"/>
<path fill-rule="evenodd" clip-rule="evenodd" d="M332.359 -35.8622C288.139 -120.676 361.75 -180.734 377.892 -253.27C386.026 -289.826 385.901 -359.46 455.622 -380.579C524.119 -401.328 579.001 -414.573 640.137 -366.746C719.275 -304.836 713.699 -283.425 764.299 -243.193C826.847 -193.461 770.64 -120.961 771.496 -73.5447C772.748 -4.1903 718.049 57.5381 637.531 71.0067C558.405 84.2422 528.449 104.833 445.935 74.7589C386.686 53.2485 353.662 4.99689 332.359 -35.8622Z" stroke="#F4FEFF" stroke-width="1.082" stroke-linecap="round" stroke-linejoin="round"/>
<path fill-rule="evenodd" clip-rule="evenodd" d="M328.095 -33.4217C281.886 -119.11 362.655 -181.247 379.345 -254.933C387.71 -291.863 385.973 -362.343 454.114 -384.374C522.569 -406.507 579.646 -414.575 640.128 -366.119C719.489 -302.538 718.175 -285.469 768.762 -245.129C831.753 -194.899 772.6 -121.653 774.102 -73.6118C776.314 -2.84957 719.85 60.3264 639.464 74.525C559.697 88.6136 529.283 103.462 446.342 72.7731C386.821 50.8331 349.935 7.07875 328.095 -33.4217Z" stroke="#F3FEFF" stroke-width="1.057" stroke-linecap="round" stroke-linejoin="round"/>
<path fill-rule="evenodd" clip-rule="evenodd" d="M323.83 -30.9818C275.61 -117.527 363.557 -181.76 380.799 -256.596C389.394 -293.9 386.036 -365.255 452.606 -388.17C521.011 -411.715 580.283 -414.57 640.118 -365.493C719.691 -300.227 722.65 -287.512 773.226 -247.066C836.66 -196.338 774.563 -122.346 776.707 -73.6788C779.886 -1.51024 721.652 63.1213 641.395 78.0431C560.991 92.9918 530.117 102.091 446.748 70.7872C386.956 48.4174 346.199 9.16732 323.83 -30.9818Z" stroke="#F3FEFF" stroke-width="1.032" stroke-linecap="round" stroke-linejoin="round"/>
<path fill-rule="evenodd" clip-rule="evenodd" d="M319.565 -28.5412C269.312 -115.928 364.458 -182.274 382.253 -258.258C391.077 -295.937 386.089 -368.196 451.099 -391.965C519.443 -416.952 580.911 -414.557 640.109 -364.866C719.882 -297.904 727.124 -289.554 777.689 -249.002C841.565 -197.775 776.531 -123.04 779.313 -73.7458C783.465 -0.172607 723.456 65.9234 643.327 81.5615C562.287 97.3773 530.951 100.721 447.154 68.8017C387.091 46.0027 342.456 11.263 319.565 -28.5412Z" stroke="#F2FEFF" stroke-width="1.007" stroke-linecap="round" stroke-linejoin="round"/>
<path fill-rule="evenodd" clip-rule="evenodd" d="M315.3 -26.1012C262.992 -114.312 365.358 -182.788 383.706 -259.921C392.758 -297.974 386.13 -371.164 449.591 -395.76C517.862 -422.22 581.532 -414.537 640.099 -364.24C720.06 -295.571 731.598 -291.597 782.152 -250.939C846.469 -199.213 778.501 -123.736 781.918 -73.8132C787.05 1.16226 725.262 68.731 645.259 85.0794C563.585 101.769 531.785 99.3502 447.561 66.8156C387.225 43.5871 338.704 13.3652 315.3 -26.1012Z" stroke="#F2FEFF" stroke-width="0.982" stroke-linecap="round" stroke-linejoin="round"/>
<path fill-rule="evenodd" clip-rule="evenodd" d="M311.035 -23.6614C256.65 -112.677 366.256 -183.304 385.16 -261.584C394.44 -300.012 386.158 -374.158 448.083 -399.556C516.266 -427.52 582.144 -414.511 640.09 -363.613C720.226 -293.226 735.991 -293.539 786.616 -252.876C851.27 -200.522 780.475 -124.434 784.524 -73.8804C790.64 2.4953 727.069 71.5441 647.19 88.5973C564.885 106.168 532.618 97.9789 447.967 64.8296C387.36 41.1713 334.946 15.4741 311.035 -23.6614Z" stroke="#F1FEFF" stroke-width="0.956" stroke-linecap="round" stroke-linejoin="round"/>
<path fill-rule="evenodd" clip-rule="evenodd" d="M306.771 -21.221C250.289 -111.023 367.153 -183.818 386.614 -263.247C396.121 -302.05 386.173 -377.177 446.575 -403.35C514.654 -432.85 582.749 -414.477 640.081 -362.987C720.379 -290.869 740.468 -295.585 791.079 -254.812C856.177 -201.962 782.453 -125.132 787.13 -73.9475C794.236 3.82643 728.88 74.3637 649.122 92.1157C566.188 110.574 533.452 96.6087 448.374 62.8437C387.495 38.7565 331.183 17.5903 306.771 -21.221Z" stroke="#F1FEFF" stroke-width="0.931" stroke-linecap="round" stroke-linejoin="round"/>
<path fill-rule="evenodd" clip-rule="evenodd" d="M302.506 -18.7806C243.907 -109.349 368.048 -184.334 388.067 -264.909C397.801 -304.088 386.171 -380.219 445.067 -407.145C513.021 -438.213 583.346 -414.439 640.071 -362.36C720.519 -288.503 744.944 -297.63 795.543 -256.749C861.084 -203.402 784.432 -125.832 789.735 -74.0145C797.838 5.1554 730.692 77.1888 651.054 95.6341C567.493 114.987 534.286 95.2381 448.78 60.8581C387.63 36.3408 327.413 19.7137 302.506 -18.7806Z" stroke="#F0FEFF" stroke-width="0.906" stroke-linecap="round" stroke-linejoin="round"/>
<path fill-rule="evenodd" clip-rule="evenodd" d="M298.242 -16.3409C237.505 -107.655 368.942 -184.85 389.521 -266.573C399.481 -306.126 386.153 -383.283 443.559 -410.941C511.365 -443.61 583.934 -414.396 640.062 -361.734C720.644 -286.126 749.421 -299.675 800.006 -258.686C865.991 -204.842 786.414 -126.534 792.34 -74.0821C801.443 6.4811 732.507 80.0189 652.986 99.1517C568.801 119.406 535.12 93.867 449.187 58.8715C387.765 33.9251 323.639 21.8429 298.242 -16.3409Z" stroke="#EFFEFF" stroke-width="0.881" stroke-linecap="round" stroke-linejoin="round"/>
<path fill-rule="evenodd" clip-rule="evenodd" d="M293.977 -13.9003C231.085 -105.941 369.836 -185.366 390.975 -268.235C401.16 -308.164 386.116 -386.366 442.052 -414.736C509.685 -449.038 587.053 -416.875 640.053 -361.107C717.069 -280.067 753.897 -301.72 804.47 -260.622C870.898 -206.281 788.399 -127.237 794.946 -74.1488C805.053 7.8063 734.324 82.8546 654.917 102.67C570.111 123.834 535.954 92.4968 449.593 56.8863C387.9 31.5105 319.861 23.9803 293.977 -13.9003Z" stroke="#EFFEFF" stroke-width="0.856" stroke-linecap="round" stroke-linejoin="round"/>
<path fill-rule="evenodd" clip-rule="evenodd" d="M289.712 -11.4603C224.647 -104.207 370.728 -185.883 392.428 -269.898C402.839 -310.203 386.059 -389.468 440.544 -418.531C507.978 -454.501 587.466 -416.621 640.043 -360.48C717.359 -277.924 758.373 -303.766 808.933 -262.559C875.805 -207.722 790.386 -127.942 797.552 -74.2159C808.668 9.12767 736.144 85.6945 656.849 106.188C571.425 128.266 536.788 91.1258 449.999 54.9C388.035 29.0947 316.079 26.1237 289.712 -11.4603Z" stroke="#EEFEFF" stroke-width="0.831" stroke-linecap="round" stroke-linejoin="round"/>
<path fill-rule="evenodd" clip-rule="evenodd" d="M285.448 -9.02005C218.191 -102.451 371.618 -186.401 393.882 -271.561C404.518 -312.242 385.982 -392.586 439.036 -422.326C506.239 -459.997 587.855 -416.356 640.034 -359.854C717.664 -275.79 762.85 -305.811 813.397 -264.495C880.711 -209.162 792.375 -128.648 800.157 -74.2831C812.287 10.4473 737.966 88.5397 658.781 109.707C572.741 132.705 537.622 89.755 450.406 52.9142C388.17 26.6795 312.295 28.2742 285.448 -9.02005Z" stroke="#EEFEFF" stroke-width="0.806" stroke-linecap="round" stroke-linejoin="round"/>
<path fill-rule="evenodd" clip-rule="evenodd" d="M281.183 -6.57986C211.718 -100.673 372.508 -186.918 395.336 -273.223C406.196 -314.281 385.882 -395.718 437.529 -426.121C504.467 -465.526 588.222 -416.082 640.024 -359.227C717.983 -273.665 767.326 -307.857 817.86 -266.432C885.618 -210.602 794.366 -129.356 802.763 -74.3502C815.91 11.7647 739.791 91.3892 660.712 113.225C574.061 137.151 538.456 88.3845 450.812 50.9286C388.304 24.2645 308.506 30.4317 281.183 -6.57986Z" stroke="#EDFEFF" stroke-width="0.781" stroke-linecap="round" stroke-linejoin="round"/>
<path fill-rule="evenodd" clip-rule="evenodd" d="M276.918 -4.13941C205.23 -98.8749 373.397 -187.436 396.79 -274.886C407.873 -316.32 385.758 -398.863 436.021 -429.916C502.66 -471.088 586.76 -414.12 640.015 -358.601C721.066 -274.103 771.802 -309.902 822.323 -268.368C890.525 -212.042 796.358 -130.066 805.369 -74.4172C819.537 13.0799 741.619 94.2432 662.645 116.743C575.384 141.604 539.29 87.014 451.219 48.9428C388.44 21.8489 304.717 32.5957 276.918 -4.13941Z" stroke="#EDFEFF" stroke-width="0.756" stroke-linecap="round" stroke-linejoin="round"/>
<path fill-rule="evenodd" clip-rule="evenodd" d="M272.654 -1.69946C198.726 -97.0545 374.129 -187.997 398.243 -276.549C409.477 -318.379 385.611 -402.017 434.513 -433.712C500.814 -476.682 587.302 -414.056 640.005 -357.974C721.107 -271.673 776.279 -311.947 826.787 -270.305C895.432 -213.482 798.352 -130.777 807.974 -74.4843C823.166 14.3923 743.45 97.1007 664.576 120.261C576.711 146.062 540.124 85.6431 451.625 46.9568C388.574 19.4334 300.925 34.7662 272.654 -1.69946Z" stroke="#ECFEFF" stroke-width="0.731" stroke-linecap="round" stroke-linejoin="round"/>
<path fill-rule="evenodd" clip-rule="evenodd" d="M268.389 0.741142C192.208 -95.2121 375.039 -188.51 399.697 -278.211C411.165 -320.415 385.437 -405.179 433.006 -437.506C498.926 -482.306 587.838 -413.989 639.996 -357.347C721.134 -269.235 780.755 -313.992 831.25 -272.241C900.339 -214.921 800.348 -131.489 810.58 -74.5512C826.8 15.7033 745.283 99.963 666.508 123.78C578.041 150.527 540.958 84.2729 452.032 44.9714C388.709 17.0188 297.132 36.9434 268.389 0.741142Z" stroke="#ECFEFF" stroke-width="0.706" stroke-linecap="round" stroke-linejoin="round"/>
<path fill-rule="evenodd" clip-rule="evenodd" d="M264.124 3.18091C185.675 -93.3487 375.949 -189.023 401.151 -279.875C412.853 -322.452 385.238 -408.347 431.498 -441.302C496.995 -487.962 588.365 -413.922 639.986 -356.721C721.145 -266.791 785.231 -316.038 835.713 -274.178C905.246 -216.362 802.345 -132.204 813.185 -74.6189C830.435 17.011 747.12 102.828 668.439 127.297C579.374 154.997 541.791 82.9016 452.438 42.9849C388.844 14.6027 293.337 39.1265 264.124 3.18091Z" stroke="#EBFEFF" stroke-width="0.681" stroke-linecap="round" stroke-linejoin="round"/>
<path fill-rule="evenodd" clip-rule="evenodd" d="M259.86 5.62147C179.13 -91.4627 376.86 -189.535 402.605 -281.537C414.542 -324.489 385.011 -411.518 429.99 -445.097C495.019 -493.644 588.886 -413.852 639.978 -356.094C721.143 -264.338 789.708 -318.083 840.177 -276.114C910.153 -217.802 804.344 -132.919 815.792 -74.6853C834.075 18.3172 748.96 105.697 670.372 130.816C580.711 159.474 542.626 81.5316 452.845 40.9996C388.98 12.1878 289.542 41.3169 259.86 5.62147Z" stroke="#EBFEFF" stroke-width="0.656" stroke-linecap="round" stroke-linejoin="round"/>
<path fill-rule="evenodd" clip-rule="evenodd" d="M255.595 8.06131C172.571 -89.5554 377.77 -190.049 404.058 -283.2C416.23 -326.525 384.757 -414.69 428.482 -448.892C492.994 -499.354 589.398 -413.783 639.968 -355.468C721.124 -261.881 794.184 -320.129 844.64 -278.051C915.059 -219.242 806.343 -133.636 818.397 -74.753C837.716 19.6209 750.802 108.569 672.303 134.334C582.052 163.956 543.459 80.1601 453.251 39.0134C389.114 9.77201 285.746 43.5125 255.595 8.06131Z" stroke="#EAFEFF" stroke-width="0.63" stroke-linecap="round" stroke-linejoin="round"/>
<path fill-rule="evenodd" clip-rule="evenodd" d="M251.33 10.5016C166.001 -87.6266 378.68 -190.562 405.512 -284.863C417.918 -328.563 384.474 -417.86 426.975 -452.688C490.92 -505.088 589.905 -413.712 639.958 -354.841C721.091 -259.417 798.66 -322.174 849.104 -279.988C919.966 -220.682 808.411 -134.368 821.002 -74.8201C841.469 20.8994 752.686 111.559 674.235 137.852C583.441 168.575 544.293 78.7896 453.658 37.0274C389.249 7.3569 281.95 45.7145 251.33 10.5016Z" stroke="#EAFEFF" stroke-width="0.605" stroke-linecap="round" stroke-linejoin="round"/>
<path fill-rule="evenodd" clip-rule="evenodd" d="M247.066 12.9419C159.42 -85.6756 379.59 -191.075 406.965 -286.525C419.606 -330.599 384.162 -421.026 425.467 -456.483C488.795 -510.843 590.404 -413.641 639.949 -354.215C721.043 -256.947 803.137 -324.219 853.567 -281.924C924.873 -222.122 810.345 -135.074 823.608 -74.887C845.007 22.2222 754.496 114.324 676.167 141.37C584.745 172.937 545.127 77.4189 454.064 35.0417C389.384 4.94159 278.155 47.9229 247.066 12.9419Z" stroke="#E9FEFF" stroke-width="0.58" stroke-linecap="round" stroke-linejoin="round"/>
</g>
</g>
<defs>
<clipPath id="clip0">
<rect width="234" height="102" fill="white"/>
</clipPath>
<clipPath id="clip1">
<rect width="600" height="102" fill="white" transform="translate(234)"/>
</clipPath>
</defs>
</svg>
