<svg width="30" height="10" viewBox="0 0 30 10" fill="none" xmlns="http://www.w3.org/2000/svg">
<path d="M0.5 9.5H9.5V4C9.5 2.067 7.933 0.5 6 0.5H4C2.067 0.5 0.5 2.067 0.5 4V9.5Z" fill="white"/>
<path d="M0.5 9.5H9.5V4C9.5 2.067 7.933 0.5 6 0.5H4C2.067 0.5 0.5 2.067 0.5 4V9.5Z" stroke="#D3D4E0"/>
<path d="M10.5 9.5H19.5V4C19.5 2.067 17.933 0.5 16 0.5H14C12.067 0.5 10.5 2.067 10.5 4V9.5Z" fill="#EBEDF2"/>
<path d="M10.5 9.5H19.5V4C19.5 2.067 17.933 0.5 16 0.5H14C12.067 0.5 10.5 2.067 10.5 4V9.5Z" stroke="#D3D4E0"/>
<path d="M20.5 9.5H29.5V4C29.5 2.067 27.933 0.5 26 0.5H24C22.067 0.5 20.5 2.067 20.5 4V9.5Z" fill="#BCBDD1"/>
<path d="M20.5 9.5H29.5V4C29.5 2.067 27.933 0.5 26 0.5H24C22.067 0.5 20.5 2.067 20.5 4V9.5Z" stroke="#D3D4E0"/>
</svg>
