<svg width="48" height="24" viewBox="0 0 48 24" fill="none" xmlns="http://www.w3.org/2000/svg">
<path d="M4 2H3V3H4V2Z" fill="#6A52FC"/>
<path d="M7 2H5V3H7V2Z" fill="#6A52FC"/>
<path d="M10 2H8V3H10V2Z" fill="#6A52FC"/>
<path d="M11 2H13V3H11V2Z" fill="#6A52FC"/>
<path d="M16 2H14V3H16V2Z" fill="#6A52FC"/>
<path d="M17 2H19V3H17V2Z" fill="#6A52FC"/>
<path d="M20 2H21V3H20V2Z" fill="#6A52FC"/>
<path d="M4 4H3V6H4V4Z" fill="#6A52FC"/>
<path d="M3 7H4V9H3V7Z" fill="#6A52FC"/>
<path d="M4 10H3V12H4V10Z" fill="#6A52FC"/>
<path d="M3 13H4V15H3V13Z" fill="#6A52FC"/>
<path d="M4 16H3V18H4V16Z" fill="#6A52FC"/>
<path d="M3 19H4V20H3V19Z" fill="#6A52FC"/>
<path d="M7 21H5V22H7V21Z" fill="#6A52FC"/>
<path d="M8 21H10V22H8V21Z" fill="#6A52FC"/>
<path d="M13 21H11V22H13V21Z" fill="#6A52FC"/>
<path d="M14 21H16V22H14V21Z" fill="#6A52FC"/>
<path d="M19 21H17V22H19V21Z" fill="#6A52FC"/>
<path d="M3 21H4V22H3V21Z" fill="#6A52FC"/>
<path d="M21 21H20V22H21V21Z" fill="#6A52FC"/>
<path d="M20 4H21V6H20V4Z" fill="#6A52FC"/>
<path d="M21 7H20V9H21V7Z" fill="#6A52FC"/>
<path d="M20 10H21V12H20V10Z" fill="#6A52FC"/>
<path d="M21 13H20V15H21V13Z" fill="#6A52FC"/>
<path d="M20 16H21V18H20V16Z" fill="#6A52FC"/>
<path d="M21 19H20V20H21V19Z" fill="#6A52FC"/>
<rect x="11.5" y="12.5" width="9" height="9" fill="url(#paint0_linear)" stroke="#6A52FC"/>
<rect x="9" y="12" width="12" height="1" fill="#6A52FC"/>
<rect x="12" y="10" width="12" height="1" transform="rotate(90 12 10)" fill="#6A52FC"/>
<rect x="21" y="12" width="12" height="1" transform="rotate(90 21 12)" fill="#6A52FC"/>
<rect x="11" y="21" width="12" height="1" fill="#6A52FC"/>
<g opacity="0.4">
<path d="M28 2H27V3H28V2Z" fill="#6A52FC"/>
<path d="M31 2H29V3H31V2Z" fill="#6A52FC"/>
<path d="M34 2H32V3H34V2Z" fill="#6A52FC"/>
<path d="M35 2H37V3H35V2Z" fill="#6A52FC"/>
<path d="M40 2H38V3H40V2Z" fill="#6A52FC"/>
<path d="M41 2H43V3H41V2Z" fill="#6A52FC"/>
<path d="M44 2H45V3H44V2Z" fill="#6A52FC"/>
<path d="M28 4H27V6H28V4Z" fill="#6A52FC"/>
<path d="M27 7H28V9H27V7Z" fill="#6A52FC"/>
<path d="M28 10H27V12H28V10Z" fill="#6A52FC"/>
<path d="M27 13H28V15H27V13Z" fill="#6A52FC"/>
<path d="M28 16H27V18H28V16Z" fill="#6A52FC"/>
<path d="M27 19H28V20H27V19Z" fill="#6A52FC"/>
<path d="M31 21H29V22H31V21Z" fill="#6A52FC"/>
<path d="M32 21H34V22H32V21Z" fill="#6A52FC"/>
<path d="M37 21H35V22H37V21Z" fill="#6A52FC"/>
<path d="M38 21H40V22H38V21Z" fill="#6A52FC"/>
<path d="M43 21H41V22H43V21Z" fill="#6A52FC"/>
<path d="M27 21H28V22H27V21Z" fill="#6A52FC"/>
<path d="M45 21H44V22H45V21Z" fill="#6A52FC"/>
<path d="M44 4H45V6H44V4Z" fill="#6A52FC"/>
<path d="M45 7H44V9H45V7Z" fill="#6A52FC"/>
<path d="M44 10H45V12H44V10Z" fill="#6A52FC"/>
<path d="M45 13H44V15H45V13Z" fill="#6A52FC"/>
<path d="M44 16H45V18H44V16Z" fill="#6A52FC"/>
<path d="M45 19H44V20H45V19Z" fill="#6A52FC"/>
<rect x="35.5" y="12.5" width="9" height="9" fill="url(#paint1_linear)" stroke="#6A52FC"/>
<rect x="33" y="12" width="12" height="1" fill="#6A52FC"/>
<rect x="36" y="10" width="12" height="1" transform="rotate(90 36 10)" fill="#6A52FC"/>
<rect x="45" y="12" width="12" height="1" transform="rotate(90 45 12)" fill="#6A52FC"/>
<rect x="35" y="21" width="12" height="1" fill="#6A52FC"/>
</g>
<defs>
<linearGradient id="paint0_linear" x1="16" y1="12.9595" x2="16" y2="21.2308" gradientUnits="userSpaceOnUse">
<stop stop-color="#8CA5FF"/>
<stop offset="1" stop-color="#7B72FB"/>
</linearGradient>
<linearGradient id="paint1_linear" x1="40" y1="12.9595" x2="40" y2="21.2308" gradientUnits="userSpaceOnUse">
<stop stop-color="#8CA5FF"/>
<stop offset="1" stop-color="#7B72FB"/>
</linearGradient>
</defs>
</svg>
