<svg width="48" height="48" viewBox="0 0 48 48" fill="none" xmlns="http://www.w3.org/2000/svg">
<circle cx="24" cy="24" r="24" fill="#4864FF"/>
<path fill-rule="evenodd" clip-rule="evenodd" d="M28 14H23C21.3431 14 20 15.3431 20 17V19C20 20.6569 21.3431 22 23 22H25C26.6569 22 28 20.6569 28 19V14ZM23 12C20.2386 12 18 14.2386 18 17V19C18 21.7614 20.2386 24 23 24H25C27.7614 24 30 21.7614 30 19V14C30 12.8954 30.8954 12 32 12H30H28H23ZM14 32C14 28.6863 16.6863 26 20 26H28C31.3137 26 34 28.6863 34 32V33C34 33.5523 33.5523 34 33 34C32.4477 34 32 33.5523 32 33V32C32 29.7909 30.2091 28 28 28H20C17.7909 28 16 29.7909 16 32V33C16 33.5523 15.5523 34 15 34C14.4477 34 14 33.5523 14 33V32Z" fill="white"/>
</svg>
