<svg width="48" height="24" viewBox="0 0 48 24" fill="none" xmlns="http://www.w3.org/2000/svg">
<path d="M15 3H3V15H5V5H15V3Z" fill="#9CADC2"/>
<path d="M6.5 6.5H19.5V19.5H6.5V6.5Z" fill="url(#paint0_linear)" stroke="#6A52FC"/>
<rect x="10" y="10" width="1" height="7" fill="white"/>
<rect x="15" y="10" width="1" height="7" fill="white"/>
<rect x="10" y="14" width="1" height="6" transform="rotate(-90 10 14)" fill="white"/>
<g opacity="0.4">
<path d="M39 3H27V15H29V5H39V3Z" fill="#9CADC2"/>
<path d="M30.5 6.5H43.5V19.5H30.5V6.5Z" fill="url(#paint1_linear)" stroke="#6A52FC"/>
<rect x="34" y="10" width="1" height="7" fill="white"/>
<rect x="39" y="10" width="1" height="7" fill="white"/>
<rect x="34" y="14" width="1" height="6" transform="rotate(-90 34 14)" fill="white"/>
</g>
<defs>
<linearGradient id="paint0_linear" x1="14.4" y1="6.67858" x2="14.4" y2="20.5744" gradientUnits="userSpaceOnUse">
<stop stop-color="#8CA5FF"/>
<stop offset="1" stop-color="#7B72FB"/>
</linearGradient>
<linearGradient id="paint1_linear" x1="38.4" y1="6.67858" x2="38.4" y2="20.5744" gradientUnits="userSpaceOnUse">
<stop stop-color="#8CA5FF"/>
<stop offset="1" stop-color="#7B72FB"/>
</linearGradient>
</defs>
</svg>
