<svg width="48" height="24" viewBox="0 0 48 24" fill="none" xmlns="http://www.w3.org/2000/svg">
<path fill-rule="evenodd" clip-rule="evenodd" d="M3.53561 10.6066C1.19246 12.9498 1.19246 16.7487 3.53561 19.0919C5.87875 21.435 9.67774 21.435 12.0209 19.0919L13.5001 17.6127V16.1985L11.3138 18.3848C9.36116 20.3374 6.19534 20.3374 4.24272 18.3848C2.29009 16.4322 2.29009 13.2663 4.24272 11.3137L11.6673 3.88909C11.8626 3.69383 11.8626 3.37725 11.6673 3.18198C11.4721 2.98672 11.1555 2.98672 10.9602 3.18198L3.53561 10.6066ZM16.1986 13.5H16.2501C16.4074 13.5 16.5556 13.5741 16.6501 13.7L16.9769 14.1358L20.1526 10.9602C21.91 9.2028 21.91 6.35356 20.1526 4.5962C18.3953 2.83884 15.546 2.83884 13.7887 4.5962L5.65693 12.7279C4.48536 13.8995 4.48536 15.799 5.65693 16.9706C6.8285 18.1421 8.728 18.1421 9.89957 16.9706L17.3242 9.54595C17.5195 9.35068 17.5195 9.0341 17.3242 8.83884C17.1289 8.64358 16.8123 8.64358 16.6171 8.83884L9.19246 16.2635C8.41141 17.0445 7.14508 17.0445 6.36404 16.2635C5.58299 15.4824 5.58299 14.2161 6.36404 13.435L14.4958 5.3033C15.8626 3.93647 18.0787 3.93647 19.4455 5.3033C20.8123 6.67014 20.8123 8.88622 19.4455 10.2531L16.1986 13.5Z" fill="#212648"/>
<path d="M13.5 21V14C13.5 13.7239 13.7239 13.5 14 13.5H16.25C16.4074 13.5 16.5556 13.5741 16.65 13.7L17.85 15.3C17.9444 15.4259 18.0926 15.5 18.25 15.5H21C21.2761 15.5 21.5 15.7239 21.5 16V21C21.5 21.2761 21.2761 21.5 21 21.5H14C13.7239 21.5 13.5 21.2761 13.5 21Z" stroke="#212648"/>
<path fill-rule="evenodd" clip-rule="evenodd" d="M3.53561 10.6066C1.19246 12.9498 1.19246 16.7487 3.53561 19.0919C5.87875 21.435 9.67774 21.435 12.0209 19.0919L13.5001 17.6127V16.1985L11.3138 18.3848C9.36116 20.3374 6.19534 20.3374 4.24272 18.3848C2.29009 16.4322 2.29009 13.2663 4.24272 11.3137L11.6673 3.88909C11.8626 3.69383 11.8626 3.37725 11.6673 3.18198C11.4721 2.98672 11.1555 2.98672 10.9602 3.18198L3.53561 10.6066ZM16.1986 13.5H16.2501C16.4074 13.5 16.5556 13.5741 16.6501 13.7L16.9769 14.1358L20.1526 10.9602C21.91 9.2028 21.91 6.35356 20.1526 4.5962C18.3953 2.83884 15.546 2.83884 13.7887 4.5962L5.65693 12.7279C4.48536 13.8995 4.48536 15.799 5.65693 16.9706C6.8285 18.1421 8.728 18.1421 9.89957 16.9706L17.3242 9.54595C17.5195 9.35068 17.5195 9.0341 17.3242 8.83884C17.1289 8.64358 16.8123 8.64358 16.6171 8.83884L9.19246 16.2635C8.41141 17.0445 7.14508 17.0445 6.36404 16.2635C5.58299 15.4824 5.58299 14.2161 6.36404 13.435L14.4958 5.3033C15.8626 3.93647 18.0787 3.93647 19.4455 5.3033C20.8123 6.67014 20.8123 8.88622 19.4455 10.2531L16.1986 13.5Z" fill="#212648"/>
<path d="M13.5 21V14C13.5 13.7239 13.7239 13.5 14 13.5H16.25C16.4074 13.5 16.5556 13.5741 16.65 13.7L17.85 15.3C17.9444 15.4259 18.0926 15.5 18.25 15.5H21C21.2761 15.5 21.5 15.7239 21.5 16V21C21.5 21.2761 21.2761 21.5 21 21.5H14C13.7239 21.5 13.5 21.2761 13.5 21Z" stroke="#212648"/>
<g opacity="0.4">
<path fill-rule="evenodd" clip-rule="evenodd" d="M27.5356 10.6066C25.1925 12.9498 25.1925 16.7487 27.5356 19.0919C29.8788 21.435 33.6777 21.435 36.0209 19.0919L37.5001 17.6127V16.1985L35.3138 18.3848C33.3612 20.3374 30.1953 20.3374 28.2427 18.3848C26.2901 16.4322 26.2901 13.2663 28.2427 11.3137L35.6673 3.88909C35.8626 3.69383 35.8626 3.37725 35.6673 3.18198C35.4721 2.98672 35.1555 2.98672 34.9602 3.18198L27.5356 10.6066ZM40.1986 13.5H40.2501C40.4074 13.5 40.5556 13.5741 40.6501 13.7L40.9769 14.1358L44.1526 10.9602C45.91 9.2028 45.91 6.35356 44.1526 4.5962C42.3953 2.83884 39.546 2.83884 37.7887 4.5962L29.6569 12.7279C28.4854 13.8995 28.4854 15.799 29.6569 16.9706C30.8285 18.1421 32.728 18.1421 33.8996 16.9706L41.3242 9.54595C41.5195 9.35068 41.5195 9.0341 41.3242 8.83884C41.1289 8.64358 40.8123 8.64358 40.6171 8.83884L33.1925 16.2635C32.4114 17.0445 31.1451 17.0445 30.364 16.2635C29.583 15.4824 29.583 14.2161 30.364 13.435L38.4958 5.3033C39.8626 3.93647 42.0787 3.93647 43.4455 5.3033C44.8123 6.67014 44.8123 8.88622 43.4455 10.2531L40.1986 13.5Z" fill="#212648"/>
<path d="M37.5 21V14C37.5 13.7239 37.7239 13.5 38 13.5H40.25C40.4074 13.5 40.5556 13.5741 40.65 13.7L41.85 15.3C41.9444 15.4259 42.0926 15.5 42.25 15.5H45C45.2761 15.5 45.5 15.7239 45.5 16V21C45.5 21.2761 45.2761 21.5 45 21.5H38C37.7239 21.5 37.5 21.2761 37.5 21Z" stroke="#212648"/>
<path fill-rule="evenodd" clip-rule="evenodd" d="M27.5356 10.6066C25.1925 12.9498 25.1925 16.7487 27.5356 19.0919C29.8788 21.435 33.6777 21.435 36.0209 19.0919L37.5001 17.6127V16.1985L35.3138 18.3848C33.3612 20.3374 30.1953 20.3374 28.2427 18.3848C26.2901 16.4322 26.2901 13.2663 28.2427 11.3137L35.6673 3.88909C35.8626 3.69383 35.8626 3.37725 35.6673 3.18198C35.4721 2.98672 35.1555 2.98672 34.9602 3.18198L27.5356 10.6066ZM40.1986 13.5H40.2501C40.4074 13.5 40.5556 13.5741 40.6501 13.7L40.9769 14.1358L44.1526 10.9602C45.91 9.2028 45.91 6.35356 44.1526 4.5962C42.3953 2.83884 39.546 2.83884 37.7887 4.5962L29.6569 12.7279C28.4854 13.8995 28.4854 15.799 29.6569 16.9706C30.8285 18.1421 32.728 18.1421 33.8996 16.9706L41.3242 9.54595C41.5195 9.35068 41.5195 9.0341 41.3242 8.83884C41.1289 8.64358 40.8123 8.64358 40.6171 8.83884L33.1925 16.2635C32.4114 17.0445 31.1451 17.0445 30.364 16.2635C29.583 15.4824 29.583 14.2161 30.364 13.435L38.4958 5.3033C39.8626 3.93647 42.0787 3.93647 43.4455 5.3033C44.8123 6.67014 44.8123 8.88622 43.4455 10.2531L40.1986 13.5Z" fill="#212648"/>
<path d="M37.5 21V14C37.5 13.7239 37.7239 13.5 38 13.5H40.25C40.4074 13.5 40.5556 13.5741 40.65 13.7L41.85 15.3C41.9444 15.4259 42.0926 15.5 42.25 15.5H45C45.2761 15.5 45.5 15.7239 45.5 16V21C45.5 21.2761 45.2761 21.5 45 21.5H38C37.7239 21.5 37.5 21.2761 37.5 21Z" stroke="#212648"/>
</g>
</svg>
