<svg width="160" height="20" viewBox="0 0 160 20" fill="none" xmlns="http://www.w3.org/2000/svg">
<path fill-rule="evenodd" clip-rule="evenodd" d="M9 10H14V11H9V10ZM21 10H25V11H21V10ZM19 10H16V11H19V10Z" fill="black"/>
<path fill-rule="evenodd" clip-rule="evenodd" d="M27 10H32V11H27V10ZM39 10H43V11H39V10ZM37 10H34V11H37V10Z" fill="black"/>
<path fill-rule="evenodd" clip-rule="evenodd" d="M45 10H50V11H45V10ZM57 10H61V11H57V10ZM55 10H52V11H55V10Z" fill="black"/>
<path fill-rule="evenodd" clip-rule="evenodd" d="M63 10H68V11H63V10ZM75 10H79V11H75V10ZM73 10H70V11H73V10Z" fill="black"/>
<path fill-rule="evenodd" clip-rule="evenodd" d="M81 10H86V11H81V10ZM93 10H97V11H93V10ZM91 10H88V11H91V10Z" fill="black"/>
<path fill-rule="evenodd" clip-rule="evenodd" d="M99 10H104V11H99V10ZM111 10H115V11H111V10ZM109 10H106V11H109V10Z" fill="black"/>
<path fill-rule="evenodd" clip-rule="evenodd" d="M117 10H122V11H117V10ZM129 10H133V11H129V10ZM127 10H124V11H127V10Z" fill="black"/>
<path fill-rule="evenodd" clip-rule="evenodd" d="M135 10H140V11H135V10ZM147 10H151V11H147V10ZM145 10H142V11H145V10Z" fill="black"/>
</svg>
