<svg width="48" height="48" viewBox="0 0 48 48" fill="none" xmlns="http://www.w3.org/2000/svg">
<mask id="path-1-inside-1" fill="white">
<path fill-rule="evenodd" clip-rule="evenodd" d="M10 35.994C10 35.9908 9.99746 35.9882 9.99427 35.988C4.43014 35.7242 0 31.1294 0 25.5C0 20.5088 3.48259 16.3309 8.15039 15.2639C8.51594 15.1803 8.81879 14.9195 8.94611 14.5668C11.1705 8.40466 17.0709 4 24 4C31.8984 4 38.46 9.72307 39.7643 17.2485C39.8444 17.7105 40.2152 18.069 40.6759 18.1558C44.8456 18.941 48 22.6021 48 27C48 31.9706 43.9706 36 39 36H24H10.5H10.006C10.0027 36 10 35.9973 10 35.994Z"/>
</mask>
<path fill-rule="evenodd" clip-rule="evenodd" d="M10 35.994C10 35.9908 9.99746 35.9882 9.99427 35.988C4.43014 35.7242 0 31.1294 0 25.5C0 20.5088 3.48259 16.3309 8.15039 15.2639C8.51594 15.1803 8.81879 14.9195 8.94611 14.5668C11.1705 8.40466 17.0709 4 24 4C31.8984 4 38.46 9.72307 39.7643 17.2485C39.8444 17.7105 40.2152 18.069 40.6759 18.1558C44.8456 18.941 48 22.6021 48 27C48 31.9706 43.9706 36 39 36H24H10.5H10.006C10.0027 36 10 35.9973 10 35.994Z" fill="url(#paint0_linear)"/>
<path d="M39.7643 17.2485L41.7349 16.907L39.7643 17.2485ZM40.6759 18.1558L40.3058 20.1212L40.6759 18.1558ZM8.15039 15.2639L7.7047 13.3142L8.15039 15.2639ZM8.94611 14.5668L10.8273 15.2459L8.94611 14.5668ZM9.99427 35.988L9.89953 37.9858L9.99427 35.988ZM10.089 33.9903C5.58631 33.7768 2 30.0566 2 25.5H-2C-2 32.2023 3.27397 37.6716 9.89953 37.9858L10.089 33.9903ZM2 25.5C2 21.462 4.81766 18.0773 8.59608 17.2136L7.7047 13.3142C2.14753 14.5845 -2 19.5555 -2 25.5H2ZM10.8273 15.2459C12.7747 9.85114 17.9402 6 24 6V2C16.2016 2 9.56635 6.95817 7.06492 13.8877L10.8273 15.2459ZM24 6C30.909 6 36.6527 11.0067 37.7937 17.5901L41.7349 16.907C40.2673 8.43941 32.8877 2 24 2V6ZM40.3058 20.1212C43.5477 20.7318 46 23.5816 46 27H50C50 21.6227 46.1435 17.1503 41.0461 16.1903L40.3058 20.1212ZM46 27C46 30.866 42.866 34 39 34V38C45.0751 38 50 33.0751 50 27H46ZM39 34H24V38H39V34ZM24 34H10.5V38H24V34ZM10.5 34H10.006V38H10.5V34ZM10.006 34C11.1073 34 12 34.8928 12 35.994H8C8 37.1019 8.89811 38 10.006 38V34ZM37.7937 17.5901C38.0238 18.918 39.0695 19.8884 40.3058 20.1212L41.0461 16.1903C41.3608 16.2496 41.6649 16.503 41.7349 16.907L37.7937 17.5901ZM8.59608 17.2136C9.60303 16.9834 10.4613 16.2599 10.8273 15.2459L7.06492 13.8877C7.17632 13.5791 7.42885 13.3772 7.7047 13.3142L8.59608 17.2136ZM9.89953 37.9858C8.84925 37.936 8 37.0716 8 35.994H12C12 34.9101 11.1457 34.0404 10.089 33.9903L9.89953 37.9858Z" fill="#6A52FC" mask="url(#path-1-inside-1)"/>
<path d="M19.3153 23.3636C19.3153 20.9844 17.8381 19.6278 15.9098 19.6278C13.9709 19.6278 12.5043 20.9844 12.5043 23.3636C12.5043 25.7322 13.9709 27.0994 15.9098 27.0994C17.8381 27.0994 19.3153 25.7429 19.3153 23.3636ZM17.7564 23.3636C17.7564 24.9048 17.0249 25.7393 15.9098 25.7393C14.7912 25.7393 14.0632 24.9048 14.0632 23.3636C14.0632 21.8224 14.7912 20.9879 15.9098 20.9879C17.0249 20.9879 17.7564 21.8224 17.7564 23.3636ZM26.8713 22.2734C26.6689 20.5938 25.3975 19.6278 23.7143 19.6278C21.7931 19.6278 20.3265 20.9844 20.3265 23.3636C20.3265 25.7358 21.7683 27.0994 23.7143 27.0994C25.5787 27.0994 26.7044 25.8601 26.8713 24.5213L25.3159 24.5142C25.1703 25.2919 24.5595 25.7393 23.7392 25.7393C22.6348 25.7393 21.8855 24.919 21.8855 23.3636C21.8855 21.8509 22.6241 20.9879 23.7498 20.9879C24.5914 20.9879 25.1987 21.4744 25.3159 22.2734H26.8713ZM27.9739 27H29.5115V24.4219H30.6337L32.0115 27H33.709L32.1642 24.1733C32.9917 23.8182 33.4498 23.0973 33.4498 22.103C33.4498 20.6577 32.4945 19.7273 30.8432 19.7273H27.9739V27ZM29.5115 23.1861V20.9844H30.5485C31.4363 20.9844 31.8659 21.3786 31.8659 22.103C31.8659 22.8239 31.4363 23.1861 30.5556 23.1861H29.5115Z" fill="white"/>
<path fill-rule="evenodd" clip-rule="evenodd" d="M22.5001 38.3787V30H25.5001V38.3787L26.9395 36.9393L29.0608 39.0607L24.0001 44.1213L18.9395 39.0607L21.0608 36.9393L22.5001 38.3787Z" fill="#6A52FC"/>
<defs>
<linearGradient id="paint0_linear" x1="20.0001" y1="5.82837" x2="20.0001" y2="35.9999" gradientUnits="userSpaceOnUse">
<stop stop-color="#8CA5FF"/>
<stop offset="1" stop-color="#7B72FB"/>
</linearGradient>
</defs>
</svg>
