<svg width="48" height="24" viewBox="0 0 48 24" fill="none" xmlns="http://www.w3.org/2000/svg">
<path d="M4 12.5H2.5V14M6 12.5H8M10 12.5H12M10 21.5H12M6 21.5H8M2.5 20V21.5H4M2.5 16V18" stroke="#212648"/>
<rect x="12.5" y="2.5" width="9" height="19" fill="#D3D4E0" stroke="#212648"/>
<path d="M12.5 12.5H2.5V21.5H12.5" stroke="#212648" stroke-dasharray="1 1"/>
<path d="M10 4.5H5.5V9.5M5.5 9.5L3.5 7.5M5.5 9.5L7.5 7.5" stroke="#212648"/>
<g opacity="0.4">
<path d="M28 12.5H26.5V14M30 12.5H32M34 12.5H36M34 21.5H36M30 21.5H32M26.5 20V21.5H28M26.5 16V18" stroke="#212648"/>
<rect x="36.5" y="2.5" width="9" height="19" fill="#D3D4E0" stroke="#212648"/>
<path d="M36.5 12.5H26.5V21.5H36.5" stroke="#212648" stroke-dasharray="1 1"/>
<path d="M34 4.5H29.5V9.5M29.5 9.5L27.5 7.5M29.5 9.5L31.5 7.5" stroke="#212648"/>
</g>
</svg>
