<svg width="48" height="24" viewBox="0 0 48 24" fill="none" xmlns="http://www.w3.org/2000/svg">
<path d="M6.5 17.5H17.5C18.0523 17.5 18.5 17.0523 18.5 16.5V9.5C18.5 8.94772 18.0523 8.5 17.5 8.5H11.5L9.5 6.5H6.5C5.94772 6.5 5.5 6.94772 5.5 7.5V16.5C5.5 17.0523 5.94771 17.5 6.5 17.5Z" stroke="white" stroke-linecap="round" stroke-linejoin="round"/>
<g opacity="0.4">
<path d="M30.5 17.5H41.5C42.0523 17.5 42.5 17.0523 42.5 16.5V9.5C42.5 8.94772 42.0523 8.5 41.5 8.5H35.5L33.5 6.5H30.5C29.9477 6.5 29.5 6.94772 29.5 7.5V16.5C29.5 17.0523 29.9477 17.5 30.5 17.5Z" stroke="white" stroke-linecap="round" stroke-linejoin="round"/>
</g>
</svg>
