<svg width="160" height="20" viewBox="0 0 160 20" fill="none" xmlns="http://www.w3.org/2000/svg">
<path fill-rule="evenodd" clip-rule="evenodd" d="M9 10H13V11H9V10ZM15 10H19V11H15V10ZM22 10H21V11H22V10Z" fill="black"/>
<path fill-rule="evenodd" clip-rule="evenodd" d="M24 10H28V11H24V10ZM30 10H34V11H30V10ZM37 10H36V11H37V10Z" fill="black"/>
<path fill-rule="evenodd" clip-rule="evenodd" d="M39 10H43V11H39V10ZM45 10H49V11H45V10ZM52 10H51V11H52V10Z" fill="black"/>
<path fill-rule="evenodd" clip-rule="evenodd" d="M54 10H58V11H54V10ZM60 10H64V11H60V10ZM67 10H66V11H67V10Z" fill="black"/>
<path fill-rule="evenodd" clip-rule="evenodd" d="M69 10H73V11H69V10ZM75 10H79V11H75V10ZM82 10H81V11H82V10Z" fill="black"/>
<path fill-rule="evenodd" clip-rule="evenodd" d="M84 10H88V11H84V10ZM90 10H94V11H90V10ZM97 10H96V11H97V10Z" fill="black"/>
<path fill-rule="evenodd" clip-rule="evenodd" d="M99 10H103V11H99V10ZM105 10H109V11H105V10ZM112 10H111V11H112V10Z" fill="black"/>
<path fill-rule="evenodd" clip-rule="evenodd" d="M114 10H118V11H114V10ZM120 10H124V11H120V10ZM127 10H126V11H127V10Z" fill="black"/>
<path fill-rule="evenodd" clip-rule="evenodd" d="M129 10H133V11H129V10ZM135 10H139V11H135V10ZM142 10H141V11H142V10Z" fill="black"/>
<path fill-rule="evenodd" clip-rule="evenodd" d="M148 10H144V11H148V10ZM151 10H150V11H151V10Z" fill="black"/>
</svg>
