<svg width="111" height="72" viewBox="0 0 111 72" fill="none" xmlns="http://www.w3.org/2000/svg">
<g clip-path="url(#clip0)">
<path fill-rule="evenodd" clip-rule="evenodd" d="M37 2C38.1046 2 39 2.89543 39 4V14C39 15.1046 38.1046 16 37 16C35.8954 16 35 15.1046 35 14V4C35 2.89543 35.8954 2 37 2Z" fill="url(#paint0_linear)"/>
<path fill-rule="evenodd" clip-rule="evenodd" d="M22.0001 8.80383C22.9567 8.25155 24.1799 8.5793 24.7322 9.53588L28.7322 16.4641C29.2845 17.4207 28.9567 18.6439 28.0001 19.1961C27.0435 19.7484 25.8204 19.4207 25.2681 18.4641L21.2681 11.5359C20.7158 10.5793 21.0435 9.35612 22.0001 8.80383Z" fill="url(#paint1_linear)"/>
<path fill-rule="evenodd" clip-rule="evenodd" d="M53.1963 14.4641C52.644 13.5075 51.4208 13.1797 50.4642 13.732L43.536 17.732C42.5794 18.2843 42.2517 19.5075 42.804 20.4641C43.3563 21.4206 44.5795 21.7484 45.536 21.1961L52.4642 17.1961C53.4208 16.6438 53.7486 15.4206 53.1963 14.4641Z" fill="url(#paint2_linear)"/>
<path d="M86.7593 81.3254L91.9858 31.5993L41.3441 26.2766L30.9425 38.3807L43.1804 52.2358L31.9272 57.9659L37.2283 65.4359L27.8405 75.1328L86.7593 81.3254Z" fill="url(#paint3_linear)"/>
<path d="M5 28.9268L10.2264 78.6529L27.7497 76.8111L33.3189 65.5423L27.7422 59.2155L35.5252 51.4846L23.288 40.202L29.2031 26.383L5 28.9268Z" fill="url(#paint4_linear)"/>
</g>
<defs>
<linearGradient id="paint0_linear" x1="37" y1="2" x2="37" y2="16" gradientUnits="userSpaceOnUse">
<stop stop-color="#7492FF"/>
<stop offset="1" stop-color="#7B72FB"/>
<stop offset="1" stop-color="#4538FF"/>
</linearGradient>
<linearGradient id="paint1_linear" x1="22.0001" y1="8.80383" x2="28.0001" y2="19.1961" gradientUnits="userSpaceOnUse">
<stop stop-color="#5AE1FF"/>
<stop offset="1" stop-color="#30A8FF"/>
</linearGradient>
<linearGradient id="paint2_linear" x1="53.1963" y1="14.4641" x2="42.804" y2="20.4641" gradientUnits="userSpaceOnUse">
<stop stop-color="#5AE1FF"/>
<stop offset="1" stop-color="#30A8FF"/>
</linearGradient>
<linearGradient id="paint3_linear" x1="62.1501" y1="28.4634" x2="56.9237" y2="78.1895" gradientUnits="userSpaceOnUse">
<stop stop-color="#7492FF"/>
<stop offset="1" stop-color="#7B72FB"/>
<stop offset="1" stop-color="#4538FF"/>
</linearGradient>
<linearGradient id="paint4_linear" x1="18.9233" y1="27.4634" x2="24.1497" y2="77.1895" gradientUnits="userSpaceOnUse">
<stop stop-color="#5AE1FF"/>
<stop offset="1" stop-color="#30A8FF"/>
</linearGradient>
<clipPath id="clip0">
<rect width="111" height="72" fill="white"/>
</clipPath>
</defs>
</svg>
