<svg width="48" height="24" viewBox="0 0 48 24" fill="none" xmlns="http://www.w3.org/2000/svg">
<path d="M17 9V8C17 5.79086 15.2091 4 13 4H12C9.79086 4 8 5.79086 8 8V8.33772C8 9.62901 8.82629 10.7754 10.0513 11.1838L14.9487 12.8162C16.1737 13.2246 17 14.371 17 15.6623V16.5C17 18.7091 15.2091 20.5 13 20.5H12C9.79086 20.5 8 18.7091 8 16.5V15" stroke="#6A52FC" stroke-width="2"/>
<rect x="3" y="12" width="19" height="1" fill="#6A52FC"/>
<path d="M3 11H22V12H3V11Z" fill="white"/>
<g opacity="0.4">
<path d="M41 9V8C41 5.79086 39.2091 4 37 4H36C33.7909 4 32 5.79086 32 8V8.33772C32 9.62901 32.8263 10.7754 34.0513 11.1838L38.9487 12.8162C40.1737 13.2246 41 14.371 41 15.6623V16.5C41 18.7091 39.2091 20.5 37 20.5H36C33.7909 20.5 32 18.7091 32 16.5V15" stroke="#6A52FC" stroke-width="2"/>
<rect x="27" y="12" width="19" height="1" fill="#6A52FC"/>
<path d="M27 11H46V12H27V11Z" fill="white"/>
</g>
</svg>
