<svg width="48" height="24" viewBox="0 0 48 24" fill="none" xmlns="http://www.w3.org/2000/svg">
<path d="M8.5 16.5H6.5C5.94772 16.5 5.5 16.0523 5.5 15.5V9.5C5.5 8.94772 5.94772 8.5 6.5 8.5H8.5M8.5 16.5V12.5H15.5V16.5M8.5 16.5V18.5H15.5V16.5M15.5 16.5H17.5C18.0523 16.5 18.5 16.0523 18.5 15.5V9.5C18.5 8.94772 18.0523 8.5 17.5 8.5H15.5M8.5 8.5V5.5H15.5V8.5M8.5 8.5H15.5" stroke="white" stroke-linecap="round" stroke-linejoin="round"/>
<g opacity="0.4">
<path d="M32.5 16.5H30.5C29.9477 16.5 29.5 16.0523 29.5 15.5V9.5C29.5 8.94772 29.9477 8.5 30.5 8.5H32.5M32.5 16.5V12.5H39.5V16.5M32.5 16.5V18.5H39.5V16.5M39.5 16.5H41.5C42.0523 16.5 42.5 16.0523 42.5 15.5V9.5C42.5 8.94772 42.0523 8.5 41.5 8.5H39.5M32.5 8.5V5.5H39.5V8.5M32.5 8.5H39.5" stroke="white" stroke-linecap="round" stroke-linejoin="round"/>
</g>
</svg>
