<svg width="32" height="16" viewBox="0 0 32 16" fill="none" xmlns="http://www.w3.org/2000/svg">
<g clip-path="url(#clip0)">
<path d="M10.0001 13C10.0001 11.8955 10.8956 11 12.0001 11C13.1047 11 14.0001 11.8955 14.0001 13C14.0001 14.1046 13.1047 15 12.0001 15C10.8956 15 10.0001 14.1046 10.0001 13ZM10.0001 13L3.61817 10.5M3.61817 8.50005C3.8557 8.76542 4.00012 9.11587 4.00012 9.50005C4.00012 9.88422 3.8557 10.2347 3.61817 10.5M3.61817 8.50005C3.34351 8.19317 2.94437 8.00005 2.50012 8.00005C1.67169 8.00005 1.00012 8.67162 1.00012 9.50005C1.00012 10.3285 1.67169 11 2.50012 11C2.94437 11 3.34351 10.8069 3.61817 10.5M3.61817 8.50005L10.2677 5.00005M10.2677 5.00005C10.0975 4.70587 10.0001 4.36433 10.0001 4.00005C10.0001 2.89548 10.8956 2.00005 12.0001 2.00005C13.1047 2.00005 14.0001 2.89548 14.0001 4.00005C14.0001 5.10462 13.1047 6.00005 12.0001 6.00005C11.4028 6.00005 10.8666 5.73817 10.5001 5.32296C10.4124 5.2236 10.3345 5.11547 10.2677 5.00005Z" stroke="#212648"/>
</g>
<g opacity="0.4" clip-path="url(#clip1)">
<path d="M26.0001 13C26.0001 11.8955 26.8956 11 28.0001 11C29.1047 11 30.0001 11.8955 30.0001 13C30.0001 14.1046 29.1047 15 28.0001 15C26.8956 15 26.0001 14.1046 26.0001 13ZM26.0001 13L19.6182 10.5M19.6182 8.50005C19.8557 8.76542 20.0001 9.11587 20.0001 9.50005C20.0001 9.88422 19.8557 10.2347 19.6182 10.5M19.6182 8.50005C19.3435 8.19317 18.9444 8.00005 18.5001 8.00005C17.6717 8.00005 17.0001 8.67162 17.0001 9.50005C17.0001 10.3285 17.6717 11 18.5001 11C18.9444 11 19.3435 10.8069 19.6182 10.5M19.6182 8.50005L26.2677 5.00005M26.2677 5.00005C26.0975 4.70587 26.0001 4.36433 26.0001 4.00005C26.0001 2.89548 26.8956 2.00005 28.0001 2.00005C29.1047 2.00005 30.0001 2.89548 30.0001 4.00005C30.0001 5.10462 29.1047 6.00005 28.0001 6.00005C27.4028 6.00005 26.8666 5.73817 26.5001 5.32296C26.4124 5.2236 26.3345 5.11547 26.2677 5.00005Z" stroke="#212648"/>
</g>
<defs>
<clipPath id="clip0">
<rect width="16" height="16" fill="white"/>
</clipPath>
<clipPath id="clip1">
<rect width="16" height="16" fill="white" transform="translate(16)"/>
</clipPath>
</defs>
</svg>
