<svg width="96" height="24" viewBox="0 0 96 24" fill="none" xmlns="http://www.w3.org/2000/svg">
<g clip-path="url(#clip0)">
<path d="M16.5 11.5H19.5V8.5H13.5V3.5H10.5V8.5H4.5V11.5H7.5M16.5 11.5L19.5 19.5H15.5L14.5 17.5L12.5 19.5H4.5L7.5 11.5M16.5 11.5H7.5" stroke="#212648" stroke-linecap="round" stroke-linejoin="round"/>
<path d="M8.52109 17.8563C8.44174 18.1208 8.59183 18.3996 8.85633 18.4789C9.12082 18.5583 9.39956 18.4082 9.47891 18.1437L8.52109 17.8563ZM10.9789 13.1437C11.0583 12.8792 10.9082 12.6004 10.6437 12.5211C10.3792 12.4417 10.1004 12.5918 10.0211 12.8563L10.9789 13.1437ZM9.47891 18.1437L10.9789 13.1437L10.0211 12.8563L8.52109 17.8563L9.47891 18.1437Z" fill="#212648"/>
<path d="M11.5192 17.3626C11.4434 17.6282 11.5971 17.9049 11.8626 17.9808C12.1282 18.0566 12.4049 17.9029 12.4808 17.6374L11.5192 17.3626ZM13.4808 14.1374C13.5566 13.8718 13.4029 13.5951 13.1374 13.5192C12.8718 13.4434 12.5951 13.5971 12.5192 13.8626L13.4808 14.1374ZM12.4808 17.6374L13.4808 14.1374L12.5192 13.8626L11.5192 17.3626L12.4808 17.6374Z" fill="#212648"/>
</g>
<g clip-path="url(#clip1)">
<rect width="24" height="24" transform="translate(24)" fill="#D3D4E0"/>
<path d="M40.5 11.5H43.5V8.5H37.5V3.5H34.5V8.5H28.5V11.5H31.5M40.5 11.5L43.5 19.5H39.5L38.5 17.5L36.5 19.5H28.5L31.5 11.5M40.5 11.5H31.5" stroke="#212648" stroke-linecap="round" stroke-linejoin="round"/>
<path d="M32.5211 17.8563C32.4417 18.1208 32.5918 18.3996 32.8563 18.4789C33.1208 18.5583 33.3996 18.4082 33.4789 18.1437L32.5211 17.8563ZM34.9789 13.1437C35.0583 12.8792 34.9082 12.6004 34.6437 12.5211C34.3792 12.4417 34.1004 12.5918 34.0211 12.8563L34.9789 13.1437ZM33.4789 18.1437L34.9789 13.1437L34.0211 12.8563L32.5211 17.8563L33.4789 18.1437Z" fill="#212648"/>
<path d="M35.5192 17.3626C35.4434 17.6282 35.5971 17.9049 35.8626 17.9808C36.1282 18.0566 36.4049 17.9029 36.4808 17.6374L35.5192 17.3626ZM37.4808 14.1374C37.5566 13.8718 37.4029 13.5951 37.1374 13.5192C36.8718 13.4434 36.5951 13.5971 36.5192 13.8626L37.4808 14.1374ZM36.4808 17.6374L37.4808 14.1374L36.5192 13.8626L35.5192 17.3626L36.4808 17.6374Z" fill="#212648"/>
</g>
<g clip-path="url(#clip2)">
<rect width="24" height="24" transform="translate(48)" fill="#BCBDD1"/>
<path d="M64.5 11.5H67.5V8.5H61.5V3.5H58.5V8.5H52.5V11.5H55.5M64.5 11.5L67.5 19.5H63.5L62.5 17.5L60.5 19.5H52.5L55.5 11.5M64.5 11.5H55.5" stroke="#212648" stroke-linecap="round" stroke-linejoin="round"/>
<path d="M56.5211 17.8563C56.4417 18.1208 56.5918 18.3996 56.8563 18.4789C57.1208 18.5583 57.3996 18.4082 57.4789 18.1437L56.5211 17.8563ZM58.9789 13.1437C59.0583 12.8792 58.9082 12.6004 58.6437 12.5211C58.3792 12.4417 58.1004 12.5918 58.0211 12.8563L58.9789 13.1437ZM57.4789 18.1437L58.9789 13.1437L58.0211 12.8563L56.5211 17.8563L57.4789 18.1437Z" fill="#212648"/>
<path d="M59.5192 17.3626C59.4434 17.6282 59.5971 17.9049 59.8626 17.9808C60.1282 18.0566 60.4049 17.9029 60.4808 17.6374L59.5192 17.3626ZM61.4808 14.1374C61.5566 13.8718 61.4029 13.5951 61.1374 13.5192C60.8718 13.4434 60.5951 13.5971 60.5192 13.8626L61.4808 14.1374ZM60.4808 17.6374L61.4808 14.1374L60.5192 13.8626L59.5192 17.3626L60.4808 17.6374Z" fill="#212648"/>
</g>
<g clip-path="url(#clip3)">
<path d="M88.5 11.5H91.5V8.5H85.5V3.5H82.5V8.5H76.5V11.5H79.5M88.5 11.5L91.5 19.5H87.5L86.5 17.5L84.5 19.5H76.5L79.5 11.5M88.5 11.5H79.5" stroke="#212648" stroke-opacity="0.3" stroke-linecap="round" stroke-linejoin="round"/>
<path d="M80.5211 17.8563C80.4417 18.1208 80.5918 18.3996 80.8563 18.4789C81.1208 18.5583 81.3996 18.4082 81.4789 18.1437L80.5211 17.8563ZM82.9789 13.1437C83.0583 12.8792 82.9082 12.6004 82.6437 12.5211C82.3792 12.4417 82.1004 12.5918 82.0211 12.8563L82.9789 13.1437ZM81.4789 18.1437L82.9789 13.1437L82.0211 12.8563L80.5211 17.8563L81.4789 18.1437Z" fill="#212648" fill-opacity="0.3"/>
<path d="M83.5192 17.3626C83.4434 17.6282 83.5971 17.9049 83.8626 17.9808C84.1282 18.0566 84.4049 17.9029 84.4808 17.6374L83.5192 17.3626ZM85.4808 14.1374C85.5566 13.8718 85.4029 13.5951 85.1374 13.5192C84.8718 13.4434 84.5951 13.5971 84.5192 13.8626L85.4808 14.1374ZM84.4808 17.6374L85.4808 14.1374L84.5192 13.8626L83.5192 17.3626L84.4808 17.6374Z" fill="#212648" fill-opacity="0.3"/>
</g>
<defs>
<clipPath id="clip0">
<rect width="24" height="24" fill="white"/>
</clipPath>
<clipPath id="clip1">
<rect width="24" height="24" fill="white" transform="translate(24)"/>
</clipPath>
<clipPath id="clip2">
<rect width="24" height="24" fill="white" transform="translate(48)"/>
</clipPath>
<clipPath id="clip3">
<rect width="24" height="24" fill="white" transform="translate(72)"/>
</clipPath>
</defs>
</svg>
