<svg width="48" height="24" viewBox="0 0 48 24" fill="none" xmlns="http://www.w3.org/2000/svg">
<rect x="4.5" y="4.5" width="7" height="15" fill="url(#paint0_linear)" stroke="#6A52FC"/>
<path d="M16.5 19.5L14 17M16.5 19.5L19 17M16.5 19.5L16.5 4.5M16.5 4.5L14 7M16.5 4.5L19 7" stroke="#6A52FC"/>
<rect x="2.5" y="2.5" width="19" height="19" stroke="#6A52FC"/>
<g opacity="0.4">
<rect x="28.5" y="4.5" width="7" height="15" fill="url(#paint1_linear)" stroke="#6A52FC"/>
<path d="M40.5 19.5L38 17M40.5 19.5L43 17M40.5 19.5L40.5 4.5M40.5 4.5L38 7M40.5 4.5L43 7" stroke="#6A52FC"/>
<rect x="26.5" y="2.5" width="19" height="19" stroke="#6A52FC"/>
</g>
<defs>
<linearGradient id="paint0_linear" x1="8" y1="6.34326" x2="8" y2="17.9231" gradientUnits="userSpaceOnUse">
<stop stop-color="#8CA5FF"/>
<stop offset="1" stop-color="#7B72FB"/>
</linearGradient>
<linearGradient id="paint1_linear" x1="32" y1="6.34326" x2="32" y2="17.9231" gradientUnits="userSpaceOnUse">
<stop stop-color="#8CA5FF"/>
<stop offset="1" stop-color="#7B72FB"/>
</linearGradient>
</defs>
</svg>
