<svg width="48" height="24" viewBox="0 0 48 24" fill="none" xmlns="http://www.w3.org/2000/svg">
<rect x="10" y="11" width="1" height="8" fill="white"/>
<rect x="13" y="11" width="1" height="8" fill="white"/>
<path d="M6.5 21L6.5 21.5L7 21.5L17 21.5L17.5 21.5L17.5 21L17.5 8L17.5 7.5L17 7.5L7 7.5L6.5 7.5L6.5 8L6.5 21Z" fill="url(#paint0_linear)" stroke="#6A52FC"/>
<rect x="10" y="11" width="1" height="7" fill="white"/>
<rect x="13" y="11" width="1" height="7" fill="white"/>
<rect x="3" y="4" width="18" height="1" fill="#6A52FC"/>
<path d="M10 2H14V3H10V2Z" fill="#6A52FC"/>
<g opacity="0.4">
<rect x="34" y="11" width="1" height="8" fill="white"/>
<rect x="37" y="11" width="1" height="8" fill="white"/>
<path d="M30.5 21L30.5 21.5L31 21.5L41 21.5L41.5 21.5L41.5 21L41.5 8L41.5 7.5L41 7.5L31 7.5L30.5 7.5L30.5 8L30.5 21Z" fill="url(#paint1_linear)" stroke="#6A52FC"/>
<rect x="34" y="11" width="1" height="7" fill="white"/>
<rect x="37" y="11" width="1" height="7" fill="white"/>
<rect x="27" y="4" width="18" height="1" fill="#6A52FC"/>
<path d="M34 2H38V3H34V2Z" fill="#6A52FC"/>
</g>
<defs>
<linearGradient id="paint0_linear" x1="10.5" y1="7" x2="10.5" y2="22" gradientUnits="userSpaceOnUse">
<stop stop-color="#8CA5FF"/>
<stop offset="1" stop-color="#7B72FB"/>
</linearGradient>
<linearGradient id="paint1_linear" x1="34.5" y1="7" x2="34.5" y2="22" gradientUnits="userSpaceOnUse">
<stop stop-color="#8CA5FF"/>
<stop offset="1" stop-color="#7B72FB"/>
</linearGradient>
</defs>
</svg>
