<svg width="32" height="16" viewBox="0 0 32 16" fill="none" xmlns="http://www.w3.org/2000/svg">
<path d="M8.67736 1H7.32246C6.82629 1 6.40515 1.36382 6.33307 1.85474L6.30693 2.03278C6.12104 3.29884 4.81046 4.06708 3.61495 3.61076L3.32824 3.50133C2.87355 3.32778 2.35994 3.50679 2.11161 3.92536L1.45024 5.04015C1.193 5.47375 1.29877 6.03104 1.69699 6.34024L1.80658 6.42533C2.84297 7.23003 2.83679 8.79789 1.79409 9.59439L1.70683 9.66105C1.30379 9.96892 1.19505 10.5298 1.45383 10.966L2.11161 12.0747C2.35993 12.4933 2.87355 12.6723 3.32824 12.4987L3.61497 12.3893C4.81051 11.9329 6.12111 12.7012 6.30697 13.9673L6.33309 14.1452C6.40515 14.6362 6.8263 15 7.32248 15H8.68446C9.17755 15 9.59704 14.6406 9.67264 14.1533L9.70491 13.9453C9.90106 12.6811 11.2173 11.9236 12.409 12.389L12.6679 12.4902C13.124 12.6683 13.642 12.4901 13.8918 12.069L14.5498 10.9599C14.807 10.5263 14.7012 9.96901 14.303 9.65981L14.1934 9.57472C13.157 8.77002 13.1632 7.20216 14.2059 6.40565L14.2932 6.339C14.6962 6.03112 14.8049 5.47028 14.5462 5.03409L13.8884 3.92534C13.6401 3.50678 13.1265 3.32777 12.6718 3.50131L12.3848 3.61082C11.1893 4.06711 9.87874 3.29883 9.69288 2.03276L9.66675 1.85476C9.59469 1.36384 9.17354 1 8.67736 1Z" stroke="#212648"/>
<circle cx="8" cy="8" r="2.5" stroke="#212648"/>
<g opacity="0.4">
<path d="M24.6774 1H23.3225C22.8263 1 22.4051 1.36382 22.3331 1.85474L22.3069 2.03278C22.121 3.29884 20.8105 4.06708 19.615 3.61076L19.3282 3.50133C18.8735 3.32778 18.3599 3.50679 18.1116 3.92536L17.4502 5.04015C17.193 5.47375 17.2988 6.03104 17.697 6.34024L17.8066 6.42533C18.843 7.23003 18.8368 8.79789 17.7941 9.59439L17.7068 9.66105C17.3038 9.96892 17.1951 10.5298 17.4538 10.966L18.1116 12.0747C18.3599 12.4933 18.8735 12.6723 19.3282 12.4987L19.615 12.3893C20.8105 11.9329 22.1211 12.7012 22.307 13.9673L22.3331 14.1452C22.4052 14.6362 22.8263 15 23.3225 15H24.6845C25.1776 15 25.597 14.6406 25.6726 14.1533L25.7049 13.9453C25.9011 12.6811 27.2173 11.9236 28.409 12.389L28.6679 12.4902C29.124 12.6683 29.642 12.4901 29.8918 12.069L30.5498 10.9599C30.807 10.5263 30.7012 9.96901 30.303 9.65981L30.1934 9.57472C29.157 8.77002 29.1632 7.20216 30.2059 6.40565L30.2932 6.339C30.6962 6.03112 30.8049 5.47028 30.5462 5.03409L29.8884 3.92534C29.6401 3.50678 29.1265 3.32777 28.6718 3.50131L28.3848 3.61082C27.1893 4.06711 25.8787 3.29883 25.6929 2.03276L25.6668 1.85476C25.5947 1.36384 25.1735 1 24.6774 1Z" stroke="#212648"/>
<circle cx="24" cy="8" r="2.5" stroke="#212648"/>
</g>
</svg>
