<svg width="16" height="16" viewBox="0 0 16 16" fill="none" xmlns="http://www.w3.org/2000/svg">
<path d="M6.6 3C4.53814 3 2.86667 4.62806 2.86667 6.63636L2.86671 6.65482C2.86956 7.21241 2.55817 7.76701 2.10967 8.09831C1.43546 8.59632 1 9.38499 1 10.2727C1 11.779 2.2536 13 3.8 13H11.7333C13.5375 13 15 11.5755 15 9.81818C15 8.06091 13.5375 6.63636 11.7333 6.63636C11.3383 6.63636 10.9595 6.70468 10.609 6.82984C10.4781 6.87657 10.3333 6.77532 10.3333 6.63636C10.3333 4.62806 8.66186 3 6.6 3Z" stroke="#5C6182"/>
</svg>
