<svg width="316" height="72" viewBox="0 0 316 72" fill="none" xmlns="http://www.w3.org/2000/svg">
<g filter="url(#filter0_d)">
<g clip-path="url(#clip0)">
<rect width="62" height="62" transform="translate(5 5)" fill="url(#paint0_linear)"/>
<path d="M35.9492 52.4342H20.5V36.9396L38.2143 36.9342V37.0176C36.9159 37.3285 35.9509 38.4995 35.9509 39.8979L35.9492 52.4342Z" fill="white"/>
<path d="M20.5 35.2734H51.5V19.7734H20.5V35.2734Z" fill="white"/>
</g>
</g>
<path d="M102.56 30.112V27.304H81.464V30.112H87.056C86.888 35.896 86.696 42.28 80.528 45.736C81.272 46.288 82.16 47.272 82.592 48.04C87.056 45.352 88.784 41.2 89.528 36.76H97.52C97.256 41.896 96.872 44.248 96.248 44.848C95.936 45.112 95.624 45.16 95.12 45.16C94.4 45.16 92.768 45.16 91.112 45.016C91.64 45.808 92.048 47.008 92.12 47.824C93.704 47.896 95.36 47.92 96.296 47.8C97.376 47.68 98.144 47.44 98.864 46.6C99.8 45.544 100.208 42.64 100.568 35.272C100.616 34.912 100.64 34 100.64 34H89.864C89.984 32.704 90.032 31.384 90.08 30.112H102.56ZM105.152 36.832V39.568H126.848V36.832H105.152ZM117.968 41.704C120.056 43.648 122.888 46.408 124.16 48.064L127.088 46.456C125.648 44.728 122.72 42.136 120.704 40.336L117.968 41.704ZM110.744 40.264C109.568 42.16 107.072 44.56 104.792 46C105.512 46.504 106.64 47.44 107.288 48.064C109.64 46.432 112.184 43.84 113.96 41.44L110.744 40.264ZM105.104 28.624C106.52 30.784 107.984 33.784 108.512 35.704L111.32 34.456C110.672 32.512 109.232 29.704 107.696 27.568L105.104 28.624ZM112.208 26.632C113.36 28.912 114.464 32.032 114.776 34.024L117.656 32.968C117.224 30.952 116.12 28.024 114.872 25.72L112.208 26.632ZM123.56 26.368C122.504 29.32 120.632 33.016 119.048 35.368L121.904 36.328C123.464 34.048 125.408 30.568 126.872 27.304L123.56 26.368ZM130.184 46H133.736V39.688H136.112C139.928 39.688 142.976 37.864 142.976 33.808C142.976 29.608 139.952 28.216 136.016 28.216H130.184V46ZM133.736 36.88V31.048H135.752C138.2 31.048 139.496 31.744 139.496 33.808C139.496 35.848 138.32 36.88 135.872 36.88H133.736ZM146.192 46H151.256C156.488 46 159.848 43.024 159.848 37.048C159.848 31.048 156.488 28.216 151.064 28.216H146.192V46ZM149.744 43.144V31.072H150.848C154.16 31.072 156.224 32.704 156.224 37.048C156.224 41.368 154.16 43.144 150.848 43.144H149.744ZM163.325 46H166.877V38.8H173.189V35.824H166.877V31.192H174.269V28.216H163.325V46ZM197.764 35.368V32.632H185.932L186.484 30.592H196.06V27.88H187.156C187.348 27.136 187.54 26.416 187.708 25.696H184.684C184.516 26.416 184.348 27.112 184.18 27.88H178.444V30.592H183.46C183.292 31.288 183.1 31.936 182.908 32.632H176.452V35.368H182.116C181.588 37.096 181.06 38.728 180.58 40.048H191.212C190.18 41.08 189.052 42.184 187.924 43.24C186.1 42.64 184.228 42.112 182.644 41.728L181.132 43.888C184.924 44.896 190.084 46.816 192.58 48.256L194.236 45.76C193.372 45.304 192.196 44.8 190.9 44.296C192.916 42.328 195.004 40.24 196.636 38.512L194.428 37.24L193.972 37.384H184.588C184.756 36.736 184.972 36.064 185.164 35.368H197.764ZM203.692 30.16H218.668V32.992H221.596V27.568H213.052C212.812 26.872 212.404 26.08 212.02 25.432L208.996 26.296C209.188 26.656 209.404 27.112 209.572 27.568H200.884V32.992H203.692V30.16ZM217.732 34.264C216.58 35.44 214.852 36.784 213.196 37.912C212.716 36.88 212.02 35.872 211.084 35.008C211.612 34.672 212.092 34.288 212.524 33.904H217.852V31.48H204.436V33.904H208.564C206.404 35.08 203.572 35.992 200.86 36.544C201.316 37.096 202.036 38.224 202.3 38.776C204.556 38.176 206.884 37.36 208.972 36.256C209.212 36.52 209.428 36.784 209.644 37.048C207.556 38.44 203.62 39.952 200.668 40.576C201.172 41.176 201.772 42.136 202.084 42.784C204.82 41.944 208.324 40.384 210.724 38.872C210.868 39.184 210.988 39.496 211.084 39.784C208.708 41.8 204.1 43.864 200.308 44.68C200.86 45.328 201.484 46.36 201.796 47.056C204.988 46.096 208.756 44.32 211.492 42.448C211.492 43.6 211.204 44.488 210.796 44.872C210.46 45.376 210.076 45.448 209.5 45.448C208.948 45.448 208.18 45.424 207.34 45.328C207.82 46.12 208.06 47.248 208.108 48.04C208.804 48.064 209.524 48.088 210.052 48.064C211.3 48.04 212.068 47.8 212.908 46.936C214.132 45.928 214.708 43.168 214.036 40.288C214.276 40.144 214.54 40 214.78 39.832C215.956 43.096 217.852 45.664 220.732 47.032C221.14 46.336 221.98 45.232 222.628 44.704C219.868 43.6 217.948 41.224 217.012 38.392C218.068 37.672 219.148 36.904 220.108 36.16L217.732 34.264Z" fill="black"/>
<path d="M241.128 39.544H248.064V37.936H241.128V32.44H239.28V45.496H234.768V36.64H233.016V45.496H229.992V47.128H250.296V45.496H241.128V39.544ZM239.952 25.696C237.624 29.344 233.304 32.632 228.888 34.408C229.344 34.84 229.848 35.44 230.112 35.896C233.88 34.216 237.456 31.576 240.048 28.48C243.12 32.08 246.432 34.144 250.08 35.92C250.32 35.392 250.824 34.792 251.232 34.408C247.512 32.776 244.008 30.736 241.008 27.232C241.2 26.968 241.392 26.728 241.56 26.464L239.952 25.696ZM272.424 31.456C271.488 34.096 269.76 37.552 268.44 39.712L269.904 40.504C271.272 38.296 272.88 34.984 274.032 32.248L272.424 31.456ZM259.08 39.64C258.432 37.552 256.968 34.048 255.696 31.384L254.04 31.888C255.288 34.6 256.728 38.2 257.304 40.312L259.08 39.64ZM267.816 44.824V26.248H266.04V44.824H261.984V26.224H260.208V44.824H253.536V46.576H274.512V44.824H267.816ZM280.248 34.144H286.536V32.536H284.448V25.888H282.816V32.536H280.248V26.44H278.592V35.896C278.592 39.496 278.376 43.792 276.816 46.816C277.2 47.08 277.824 47.584 278.088 47.92C279.48 45.496 280.008 42.352 280.176 39.184H283.464V47.824H285.12V37.576H280.224C280.248 37 280.248 36.424 280.248 35.872V34.144ZM296.4 34.528C295.872 37.24 294.96 39.592 293.784 41.464C292.608 39.496 291.792 37.096 291.216 34.528H296.4ZM297.216 32.824L296.928 32.872H289.296V28.96C292.536 28.72 296.136 28.264 298.68 27.616L297.552 26.128C295.152 26.728 291.096 27.28 287.592 27.568V35.776C287.592 39.328 287.376 43.792 285.552 46.96C285.984 47.176 286.632 47.656 286.968 47.968C289.008 44.56 289.296 39.784 289.296 35.776V34.528H289.824C290.424 37.72 291.384 40.576 292.776 42.904C291.504 44.512 289.968 45.712 288.336 46.456C288.696 46.792 289.152 47.44 289.392 47.896C291.048 47.056 292.488 45.904 293.76 44.416C294.864 45.88 296.208 47.056 297.816 47.896C298.104 47.416 298.608 46.792 299.016 46.456C297.336 45.688 295.944 44.512 294.816 43.024C296.496 40.528 297.72 37.24 298.272 33.112L297.216 32.824Z" fill="#FD5962"/>
<defs>
<filter id="filter0_d" x="4" y="5" width="64" height="64" filterUnits="userSpaceOnUse" color-interpolation-filters="sRGB">
<feFlood flood-opacity="0" result="BackgroundImageFix"/>
<feColorMatrix in="SourceAlpha" type="matrix" values="0 0 0 0 0 0 0 0 0 0 0 0 0 0 0 0 0 0 127 0"/>
<feOffset dy="1"/>
<feGaussianBlur stdDeviation="1"/>
<feColorMatrix type="matrix" values="0 0 0 0 0 0 0 0 0 0 0 0 0 0 0 0 0 0 0.3 0"/>
<feBlend mode="normal" in2="BackgroundImageFix" result="effect1_dropShadow"/>
<feBlend mode="normal" in="SourceGraphic" in2="effect1_dropShadow" result="shape"/>
</filter>
<linearGradient id="paint0_linear" x1="31" y1="0" x2="31" y2="62" gradientUnits="userSpaceOnUse">
<stop stop-color="#414C9A"/>
<stop offset="1" stop-color="#364295"/>
</linearGradient>
<clipPath id="clip0">
<rect x="6" y="6" width="60" height="60" rx="13.6893" fill="white"/>
</clipPath>
</defs>
</svg>
