<svg width="94" height="32" viewBox="0 0 94 32" fill="none" xmlns="http://www.w3.org/2000/svg">
<g clip-path="url(#clip0)" filter="url(#filter0_i)">
<g clip-path="url(#clip1)">
<rect width="32" height="32" fill="url(#paint0_linear)"/>
<path d="M15.9738 24.4822H8V16.485L17.1429 16.4822V16.5252C16.4727 16.6857 15.9746 17.2901 15.9746 18.0119L15.9738 24.4822Z" fill="white"/>
<path d="M8 15.625H24V7.62502H8V15.625Z" fill="white"/>
</g>
</g>
<path d="M51.16 12.732V11.094H38.854V12.732H42.116C42.018 16.106 41.906 19.83 38.308 21.846C38.742 22.168 39.26 22.742 39.512 23.19C42.116 21.622 43.124 19.2 43.558 16.61H48.22C48.066 19.606 47.842 20.978 47.478 21.328C47.296 21.482 47.114 21.51 46.82 21.51C46.4 21.51 45.448 21.51 44.482 21.426C44.79 21.888 45.028 22.588 45.07 23.064C45.994 23.106 46.96 23.12 47.506 23.05C48.136 22.98 48.584 22.84 49.004 22.35C49.55 21.734 49.788 20.04 49.998 15.742C50.026 15.532 50.04 15 50.04 15H43.754C43.824 14.244 43.852 13.474 43.88 12.732H51.16ZM52.672 16.652V18.248H65.328V16.652H52.672ZM60.148 19.494C61.366 20.628 63.018 22.238 63.76 23.204L65.468 22.266C64.628 21.258 62.92 19.746 61.744 18.696L60.148 19.494ZM55.934 18.654C55.248 19.76 53.792 21.16 52.462 22C52.882 22.294 53.54 22.84 53.918 23.204C55.29 22.252 56.774 20.74 57.81 19.34L55.934 18.654ZM52.644 11.864C53.47 13.124 54.324 14.874 54.632 15.994L56.27 15.266C55.892 14.132 55.052 12.494 54.156 11.248L52.644 11.864ZM56.788 10.702C57.46 12.032 58.104 13.852 58.286 15.014L59.966 14.398C59.714 13.222 59.07 11.514 58.342 10.17L56.788 10.702ZM63.41 10.548C62.794 12.27 61.702 14.426 60.778 15.798L62.444 16.358C63.354 15.028 64.488 12.998 65.342 11.094L63.41 10.548ZM67.274 22H69.346V18.318H70.732C72.958 18.318 74.736 17.254 74.736 14.888C74.736 12.438 72.972 11.626 70.676 11.626H67.274V22ZM69.346 16.68V13.278H70.522C71.95 13.278 72.706 13.684 72.706 14.888C72.706 16.078 72.02 16.68 70.592 16.68H69.346ZM76.6119 22H79.5659C82.6179 22 84.5779 20.264 84.5779 16.778C84.5779 13.278 82.6179 11.626 79.4539 11.626H76.6119V22ZM78.6839 20.334V13.292H79.3279C81.2599 13.292 82.4639 14.244 82.4639 16.778C82.4639 19.298 81.2599 20.334 79.3279 20.334H78.6839ZM86.606 22H88.678V17.8H92.36V16.064H88.678V13.362H92.99V11.626H86.606V22Z" fill="black"/>
<defs>
<filter id="filter0_i" x="0" y="0" width="32" height="32" filterUnits="userSpaceOnUse" color-interpolation-filters="sRGB">
<feFlood flood-opacity="0" result="BackgroundImageFix"/>
<feBlend mode="normal" in="SourceGraphic" in2="BackgroundImageFix" result="shape"/>
<feColorMatrix in="SourceAlpha" type="matrix" values="0 0 0 0 0 0 0 0 0 0 0 0 0 0 0 0 0 0 127 0" result="hardAlpha"/>
<feOffset/>
<feGaussianBlur stdDeviation="0.0625"/>
<feComposite in2="hardAlpha" operator="arithmetic" k2="-1" k3="1"/>
<feColorMatrix type="matrix" values="0 0 0 0 0 0 0 0 0 0 0 0 0 0 0 0 0 0 0.24 0"/>
<feBlend mode="darken" in2="shape" result="effect1_innerShadow"/>
</filter>
<linearGradient id="paint0_linear" x1="16" y1="0" x2="16" y2="32" gradientUnits="userSpaceOnUse">
<stop stop-color="#414C9A"/>
<stop offset="1" stop-color="#364295"/>
</linearGradient>
<clipPath id="clip0">
<rect width="32" height="32" fill="white"/>
</clipPath>
<clipPath id="clip1">
<rect width="32" height="32" rx="7.30097" fill="white"/>
</clipPath>
</defs>
</svg>
