<svg width="16" height="16" viewBox="0 0 16 16" fill="none" xmlns="http://www.w3.org/2000/svg">
<path fill-rule="evenodd" clip-rule="evenodd" d="M1 3.50004C1 2.67161 1.67157 2.00004 2.5 2.00004H8.5C9.32843 2.00004 10 2.67161 10 3.50004V10.8063L11.7768 10.214C11.9509 10.156 12.0792 10.0073 12.1111 9.8266L13.3171 2.99289L11.7572 3.92878C11.5205 4.07086 11.2133 3.99408 11.0713 3.75729C10.9292 3.5205 11.006 3.21337 11.2428 3.07129L13.7428 1.57129C13.9625 1.43947 14.2463 1.49506 14.4 1.70004L15.9 3.70004C16.0657 3.92095 16.0209 4.23435 15.8 4.40004C15.5791 4.56572 15.2657 4.52095 15.1 4.30004L14.292 3.22266L13.0959 10.0004C13.0002 10.5425 12.6153 10.9886 12.0931 11.1627L10 11.8604V13.5C10 14.3285 9.32843 15 8.5 15H2.5C1.67157 15 1 14.3285 1 13.5V3.50004ZM2.5 3.00004C2.22386 3.00004 2 3.2239 2 3.50004V13.5C2 13.7762 2.22386 14 2.5 14H8.5C8.77614 14 9 13.7762 9 13.5V3.50004C9 3.2239 8.77614 3.00004 8.5 3.00004H2.5Z" fill="#5C6182"/>
<rect x="4" y="5" width="3" height="1" rx="0.5" fill="#5C6182"/>
<rect x="4" y="7" width="3" height="1" rx="0.5" fill="#5C6182"/>
<rect x="4" y="9" width="3" height="1" rx="0.5" fill="#5C6182"/>
</svg>
