<svg width="72" height="24" viewBox="0 0 72 24" fill="none" xmlns="http://www.w3.org/2000/svg">
<g clip-path="url(#clip0)">
<path d="M9.51464 20.8029L9.50823 20.7989L9.5017 20.7952L3.35292 17.2452L5.85292 12.915L13.6453 17.414L11.568 20.9763L11.4999 21.0931L11.4999 21.2282L11.4999 21.5L10.642 21.5L9.51464 20.8029Z" stroke="#212648"/>
<path d="M5.85291 12.915L10.8529 4.25479L18.6471 8.75479L13.6471 17.415L5.85291 12.915Z" stroke="#212648"/>
<path d="M10.5 21.5H17.5H22" stroke="#212648"/>
</g>
<g clip-path="url(#clip1)">
<path d="M33.5146 20.8029L33.5082 20.7989L33.5017 20.7952L27.3529 17.2452L29.8529 12.915L37.6453 17.414L35.568 20.9763L35.4999 21.0931L35.4999 21.2282L35.4999 21.5L34.642 21.5L33.5146 20.8029Z" fill="#212648" stroke="#212648"/>
<path d="M29.8529 12.915L34.8529 4.25479L42.6471 8.75479L37.6471 17.415L29.8529 12.915Z" stroke="#212648"/>
<path d="M34.5 21.5H41.5H46" stroke="#212648"/>
</g>
<g clip-path="url(#clip2)">
<path d="M57.5146 20.8029L57.5082 20.7989L57.5017 20.7952L51.3529 17.2452L53.8529 12.915L61.6453 17.414L59.568 20.9763L59.4999 21.0931L59.4999 21.2282L59.4999 21.5L58.642 21.5L57.5146 20.8029Z" fill="#4864FF" stroke="#4864FF"/>
<path d="M53.8529 12.915L58.8529 4.25479L66.6471 8.75479L61.6471 17.415L53.8529 12.915Z" stroke="#4864FF"/>
<path d="M58.5 21.5H65.5H70" stroke="#4864FF"/>
</g>
<defs>
<clipPath id="clip0">
<rect width="24" height="24" fill="white"/>
</clipPath>
<clipPath id="clip1">
<rect width="24" height="24" fill="white" transform="translate(24)"/>
</clipPath>
<clipPath id="clip2">
<rect width="24" height="24" fill="white" transform="translate(48)"/>
</clipPath>
</defs>
</svg>
