<svg width="48" height="24" viewBox="0 0 48 24" fill="none" xmlns="http://www.w3.org/2000/svg">
<path d="M14.5 1.5L9.5 22.5" stroke="#6A52FC" stroke-linecap="round" stroke-linejoin="round"/>
<path d="M5.5 9.5H8.5M5.5 11.5H7.5" stroke="#6A52FC" stroke-linecap="round" stroke-linejoin="round"/>
<path fill-rule="evenodd" clip-rule="evenodd" d="M10.5 19.5H22V4.5H14L10.5 19.5ZM15.5 12C15.2239 12 15 12.2239 15 12.5C15 12.7761 15.2239 13 15.5 13H17.5C17.7761 13 18 12.7761 18 12.5C18 12.2239 17.7761 12 17.5 12H15.5ZM14.5 14C14.2239 14 14 14.2239 14 14.5C14 14.7761 14.2239 15 14.5 15H17.5C17.7761 15 18 14.7761 18 14.5C18 14.2239 17.7761 14 17.5 14H14.5Z" fill="url(#paint0_linear)"/>
<path d="M11 4.5H2.5V19.5H7.5" stroke="#6A52FC"/>
<path d="M7.5 19.5H21.5V4.5H10.5" stroke="#6A52FC"/>
<g opacity="0.4">
<path d="M38.5 1.5L33.5 22.5" stroke="#6A52FC" stroke-linecap="round" stroke-linejoin="round"/>
<path d="M29.5 9.5H32.5M29.5 11.5H31.5" stroke="#6A52FC" stroke-linecap="round" stroke-linejoin="round"/>
<path fill-rule="evenodd" clip-rule="evenodd" d="M34.5 19.5H46V4.5H38L34.5 19.5ZM39.5 12C39.2239 12 39 12.2239 39 12.5C39 12.7761 39.2239 13 39.5 13H41.5C41.7761 13 42 12.7761 42 12.5C42 12.2239 41.7761 12 41.5 12H39.5ZM38.5 14C38.2239 14 38 14.2239 38 14.5C38 14.7761 38.2239 15 38.5 15H41.5C41.7761 15 42 14.7761 42 14.5C42 14.2239 41.7761 14 41.5 14H38.5Z" fill="url(#paint1_linear)"/>
<path d="M35 4.5H26.5V19.5H31.5" stroke="#6A52FC"/>
<path d="M31.5 19.5H45.5V4.5H34.5" stroke="#6A52FC"/>
</g>
<defs>
<linearGradient id="paint0_linear" x1="16.25" y1="5.93921" x2="16.25" y2="18.3462" gradientUnits="userSpaceOnUse">
<stop stop-color="#8CA5FF"/>
<stop offset="1" stop-color="#7B72FB"/>
</linearGradient>
<linearGradient id="paint1_linear" x1="40.25" y1="5.93921" x2="40.25" y2="18.3462" gradientUnits="userSpaceOnUse">
<stop stop-color="#8CA5FF"/>
<stop offset="1" stop-color="#7B72FB"/>
</linearGradient>
</defs>
</svg>
