<svg width="48" height="16" viewBox="0 0 48 16" fill="none" xmlns="http://www.w3.org/2000/svg">
<path fill-rule="evenodd" clip-rule="evenodd" d="M7.66667 1.5C7.20643 1.5 6.83333 1.8731 6.83333 2.33333V7.66667C6.83333 7.94281 6.60948 8.16667 6.33333 8.16667C6.05719 8.16667 5.83333 7.94281 5.83333 7.66667V4.33333C5.83333 3.8731 5.46024 3.5 5 3.5C4.53976 3.5 4.16667 3.8731 4.16667 4.33333V8.66667C4.16667 8.87591 4.03638 9.06301 3.84014 9.13561C3.6439 9.2082 3.42321 9.15093 3.28704 8.99206L2.76326 8.38099C2.31711 7.86048 1.48074 7.98278 1.20231 8.60925C1.04155 8.97094 1.12651 9.3947 1.41427 9.66647L5.01825 13.0702C5.99049 13.9885 7.27714 14.5 8.61445 14.5C10.1853 14.5 11.6733 13.7949 12.6681 12.5791L13.0422 12.1218C13.5538 11.4965 13.8333 10.7134 13.8333 9.90548V5C13.8333 4.53976 13.4602 4.16667 13 4.16667C12.5398 4.16667 12.1667 4.53976 12.1667 5V7.66667C12.1667 7.94281 11.9428 8.16667 11.6667 8.16667C11.3905 8.16667 11.1667 7.94281 11.1667 7.66667V3C11.1667 2.53976 10.7936 2.16667 10.3333 2.16667C9.8731 2.16667 9.5 2.53976 9.5 3V7.66667C9.5 7.94281 9.27614 8.16667 9 8.16667C8.72386 8.16667 8.5 7.94281 8.5 7.66667V2.33333C8.5 1.8731 8.1269 1.5 7.66667 1.5ZM9.29452 1.48917C8.98912 0.901452 8.37477 0.5 7.66667 0.5C6.65414 0.5 5.83333 1.32081 5.83333 2.33333V2.6999C5.58331 2.57209 5.30007 2.5 5 2.5C3.98748 2.5 3.16667 3.32081 3.16667 4.33333V7.40495C2.20719 6.72569 0.797623 7.05757 0.288494 8.20311C-0.0445554 8.95247 0.131467 9.83043 0.727646 10.3935L4.33162 13.7972C5.48949 14.8908 7.02181 15.5 8.61445 15.5C10.4853 15.5 12.2573 14.6603 13.442 13.2123L13.8161 12.755C14.4739 11.9511 14.8333 10.9443 14.8333 9.90548V5C14.8333 3.98748 14.0125 3.16667 13 3.16667C12.6999 3.16667 12.4167 3.23876 12.1667 3.36657V3C12.1667 1.98748 11.3459 1.16667 10.3333 1.16667C9.94766 1.16667 9.5898 1.28576 9.29452 1.48917Z" fill="#212648"/>
<path d="M29.0552 12.8959L29.4293 12.4387C30.014 11.724 30.3335 10.8291 30.3335 9.90572V5.00024C30.3335 4.26386 29.7365 3.66691 29.0002 3.66691C28.722 3.66691 28.4637 3.7521 28.25 3.8978V8.25024C28.25 8.38832 28.1381 8.50024 28 8.50024C27.8619 8.50024 27.75 8.38832 27.75 8.25024V4.53566C27.6962 4.68033 27.6668 4.83685 27.6668 5.00024V3.00024C27.6668 2.26386 27.0699 1.66691 26.3335 1.66691C25.8871 1.66691 25.492 1.88625 25.25 2.22302V8.25024C25.25 8.38832 25.1381 8.50024 25 8.50024C24.8619 8.50024 24.75 8.38832 24.75 8.25024V1.5559C24.508 1.21938 24.113 1.00024 23.6668 1.00024C22.9305 1.00024 22.3335 1.5972 22.3335 2.33358V4.33358C22.3335 4.16986 22.304 4.01303 22.25 3.86812V8.25024C22.25 8.38832 22.1381 8.50024 22 8.50024C21.8619 8.50024 21.75 8.38832 21.75 8.25024V3.23091C21.5363 3.08534 21.2782 3.00024 21.0002 3.00024C20.2638 3.00024 19.6668 3.5972 19.6668 4.33358V8.66691L19.1431 8.05584C18.4578 7.25638 17.1732 7.44422 16.7456 8.40643C16.4987 8.96195 16.6292 9.61281 17.0711 10.0302L20.6751 13.434C21.7402 14.4399 23.1496 15.0002 24.6146 15.0002C26.3355 15.0002 27.9655 14.2278 29.0552 12.8959Z" fill="#4864FF"/>
<path opacity="0.4" fill-rule="evenodd" clip-rule="evenodd" d="M39.6667 1.5C39.2064 1.5 38.8333 1.8731 38.8333 2.33333V7.66667C38.8333 7.94281 38.6095 8.16667 38.3333 8.16667C38.0572 8.16667 37.8333 7.94281 37.8333 7.66667V4.33333C37.8333 3.8731 37.4602 3.5 37 3.5C36.5398 3.5 36.1667 3.8731 36.1667 4.33333V8.66667C36.1667 8.87591 36.0364 9.06301 35.8401 9.13561C35.6439 9.2082 35.4232 9.15093 35.287 8.99206L34.7633 8.38099C34.3171 7.86048 33.4807 7.98278 33.2023 8.60925C33.0416 8.97094 33.1265 9.3947 33.4143 9.66647L37.0182 13.0702C37.9905 13.9885 39.2771 14.5 40.6144 14.5C42.1853 14.5 43.6733 13.7949 44.6681 12.5791L45.0422 12.1218C45.5538 11.4965 45.8333 10.7134 45.8333 9.90548V5C45.8333 4.53976 45.4602 4.16667 45 4.16667C44.5398 4.16667 44.1667 4.53976 44.1667 5V7.66667C44.1667 7.94281 43.9428 8.16667 43.6667 8.16667C43.3905 8.16667 43.1667 7.94281 43.1667 7.66667V3C43.1667 2.53976 42.7936 2.16667 42.3333 2.16667C41.8731 2.16667 41.5 2.53976 41.5 3V7.66667C41.5 7.94281 41.2761 8.16667 41 8.16667C40.7239 8.16667 40.5 7.94281 40.5 7.66667V2.33333C40.5 1.8731 40.1269 1.5 39.6667 1.5ZM41.2945 1.48917C40.9891 0.901452 40.3748 0.5 39.6667 0.5C38.6541 0.5 37.8333 1.32081 37.8333 2.33333V2.6999C37.5833 2.57209 37.3001 2.5 37 2.5C35.9875 2.5 35.1667 3.32081 35.1667 4.33333V7.40495C34.2072 6.72569 32.7976 7.05757 32.2885 8.20311C31.9554 8.95247 32.1315 9.83043 32.7276 10.3935L36.3316 13.7972C37.4895 14.8908 39.0218 15.5 40.6144 15.5C42.4853 15.5 44.2573 14.6603 45.442 13.2123L45.8161 12.755C46.4739 11.9511 46.8333 10.9443 46.8333 9.90548V5C46.8333 3.98748 46.0125 3.16667 45 3.16667C44.6999 3.16667 44.4167 3.23876 44.1667 3.36657V3C44.1667 1.98748 43.3459 1.16667 42.3333 1.16667C41.9477 1.16667 41.5898 1.28576 41.2945 1.48917Z" fill="#212648"/>
</svg>
