<svg width="140" height="102" viewBox="0 0 140 102" fill="none" xmlns="http://www.w3.org/2000/svg">
<path fill-rule="evenodd" clip-rule="evenodd" d="M17 8C17 3.58172 20.5817 0 25 0H115C119.418 0 123 3.58172 123 8V77C123 81.4183 119.418 85 115 85H25C20.5817 85 17 81.4183 17 77V8Z" fill="url(#paint0_linear)"/>
<path d="M78.0938 47.1259C76.276 44.6255 73.3278 43 70 43C66.7231 43 63.8143 44.5762 61.9904 47.0118" stroke="#B9BCCB" stroke-width="2" stroke-linecap="round"/>
<path d="M83.9152 43.2318C80.8392 38.8581 75.7534 36 70 36C64.3127 36 59.2776 38.7928 56.1915 43.0819" stroke="#B9BCCB" stroke-width="2" stroke-linecap="round"/>
<path d="M89.2351 38.0299C84.6493 32.5127 77.7349 29 70 29C62.3205 29 55.4497 32.4626 50.8638 37.9117" stroke="#B9BCCB" stroke-width="2" stroke-linecap="round"/>
<circle cx="70" cy="52" r="2" fill="#B9BCCB"/>
<path fill-rule="evenodd" clip-rule="evenodd" d="M17 72H123V77C123 81.4183 119.418 85 115 85H25C20.5817 85 17 81.4183 17 77V72Z" fill="url(#paint1_linear)"/>
<rect x="57" y="85" width="27" height="17" fill="#C1C1CF"/>
<rect x="44" y="95" width="53" height="7" rx="3.5" fill="#CBCBD9"/>
<circle cx="91" cy="49" r="12" fill="url(#paint2_linear)"/>
<rect x="90" y="42" width="3" height="9" rx="1.5" fill="white"/>
<circle cx="91.5" cy="54.5" r="1.5" fill="white"/>
<defs>
<linearGradient id="paint0_linear" x1="18.0002" y1="0" x2="18.0002" y2="83.3959" gradientUnits="userSpaceOnUse">
<stop stop-color="#F0F0F5"/>
<stop offset="1" stop-color="#DBDBE5"/>
</linearGradient>
<linearGradient id="paint1_linear" x1="19.3919" y1="72" x2="19.3919" y2="84.4133" gradientUnits="userSpaceOnUse">
<stop stop-color="#D4D4E0"/>
<stop offset="1" stop-color="#C7C7D5"/>
</linearGradient>
<linearGradient id="paint2_linear" x1="79.5416" y1="37" x2="79.5416" y2="59.9169" gradientUnits="userSpaceOnUse">
<stop stop-color="#D4D4E0"/>
<stop offset="1" stop-color="#C7C7D5"/>
</linearGradient>
</defs>
</svg>
