<svg width="48" height="24" viewBox="0 0 48 24" fill="none" xmlns="http://www.w3.org/2000/svg">
<path d="M2.5 3.5H13.5V20.5H2.5V3.5Z" fill="url(#paint0_linear)" stroke="#6A52FC"/>
<path d="M5 13H10V14H5V13Z" fill="white"/>
<path d="M5 10H11V11H5V10Z" fill="white"/>
<path d="M14 17.5H19.5V4.5M19.5 4.5L17 7M19.5 4.5L22 7" stroke="#6A52FC"/>
<g opacity="0.4">
<path d="M26.5 3.5H37.5V20.5H26.5V3.5Z" fill="url(#paint1_linear)" stroke="#6A52FC"/>
<path d="M29 13H34V14H29V13Z" fill="white"/>
<path d="M29 10H35V11H29V10Z" fill="white"/>
<path d="M38 17.5H43.5V4.5M43.5 4.5L41 7M43.5 4.5L46 7" stroke="#6A52FC"/>
</g>
<defs>
<linearGradient id="paint0_linear" x1="8" y1="5.1536" x2="8" y2="17.6912" gradientUnits="userSpaceOnUse">
<stop stop-color="#8CA5FF"/>
<stop offset="1" stop-color="#7B72FB"/>
</linearGradient>
<linearGradient id="paint1_linear" x1="32" y1="5.1536" x2="32" y2="17.6912" gradientUnits="userSpaceOnUse">
<stop stop-color="#8CA5FF"/>
<stop offset="1" stop-color="#7B72FB"/>
</linearGradient>
</defs>
</svg>
