<svg width="48" height="24" viewBox="0 0 48 24" fill="none" xmlns="http://www.w3.org/2000/svg">
<rect x="5.5" y="3.5" width="13" height="16" stroke="#6A52FC"/>
<rect x="7.5" y="5.5" width="9" height="3" fill="url(#paint0_linear)" stroke="#6A52FC"/>
<rect x="8" y="11" width="2" height="2" fill="#6A52FC"/>
<rect x="8" y="15" width="2" height="2" fill="#6A52FC"/>
<rect x="11" y="11" width="2" height="2" fill="#6A52FC"/>
<rect x="11" y="15" width="2" height="2" fill="#6A52FC"/>
<rect x="14" y="11" width="2" height="2" fill="#6A52FC"/>
<rect x="14" y="15" width="2" height="2" fill="#6A52FC"/>
<g opacity="0.4">
<rect x="29.5" y="3.5" width="13" height="16" stroke="#6A52FC"/>
<rect x="31.5" y="5.5" width="9" height="3" fill="url(#paint1_linear)" stroke="#6A52FC"/>
<rect x="32" y="11" width="2" height="2" fill="#6A52FC"/>
<rect x="32" y="15" width="2" height="2" fill="#6A52FC"/>
<rect x="35" y="11" width="2" height="2" fill="#6A52FC"/>
<rect x="35" y="15" width="2" height="2" fill="#6A52FC"/>
<rect x="38" y="11" width="2" height="2" fill="#6A52FC"/>
<rect x="38" y="15" width="2" height="2" fill="#6A52FC"/>
</g>
<defs>
<linearGradient id="paint0_linear" x1="12.9231" y1="2.80886" x2="12.9231" y2="11.3753" gradientUnits="userSpaceOnUse">
<stop stop-color="#8CA5FF"/>
<stop offset="1" stop-color="#7B72FB"/>
</linearGradient>
<linearGradient id="paint1_linear" x1="36.9231" y1="2.80886" x2="36.9231" y2="11.3753" gradientUnits="userSpaceOnUse">
<stop stop-color="#8CA5FF"/>
<stop offset="1" stop-color="#7B72FB"/>
</linearGradient>
</defs>
</svg>
