<svg width="72" height="24" viewBox="0 0 72 24" fill="none" xmlns="http://www.w3.org/2000/svg">
<path d="M17.5 7.5V11.5M17.5 7.5V4.5C17.5 3.39543 16.6046 2.5 15.5 2.5C14.3954 2.5 13.5 3.39543 13.5 4.5M17.5 7.5C17.5 6.39543 18.3954 5.5 19.5 5.5C20.6046 5.5 21.5 6.39543 21.5 7.5V14.8582C21.5 16.2433 21.0208 17.5857 20.1437 18.6576L19.5826 19.3435C17.948 21.3414 15.503 22.5 12.9217 22.5V22.5C10.7242 22.5 8.60999 21.6594 7.0124 20.1506L1.60644 15.045C0.943486 14.4188 0.747749 13.4426 1.1181 12.6093V12.6093C1.75957 11.166 3.68646 10.8842 4.71434 12.0834L5.5 13V6.5C5.5 5.39543 6.39543 4.5 7.5 4.5C8.60457 4.5 9.5 5.39543 9.5 6.5M13.5 4.5V11.5M13.5 4.5V3.5C13.5 2.39543 12.6046 1.5 11.5 1.5C10.3954 1.5 9.5 2.39543 9.5 3.5V6.5M9.5 11.5V6.5" stroke="#212648" stroke-linecap="round" stroke-linejoin="round"/>
<path d="M44.1437 18.6576L43.5826 19.3435C41.948 21.3414 39.503 22.5 36.9217 22.5C34.7242 22.5 32.61 21.6594 31.0124 20.1506L25.6064 15.045C24.9435 14.4188 24.7477 13.4426 25.1181 12.6093C25.7596 11.166 27.6865 10.8842 28.7143 12.0834L29.5 13V6.5C29.5 5.39543 30.3954 4.5 31.5 4.5C32.6046 4.5 33.5 5.39543 33.5 6.5V3.5C33.5 2.39543 34.3954 1.5 35.5 1.5C36.6046 1.5 37.5 2.39543 37.5 3.5V4.5C37.5 3.39543 38.3954 2.5 39.5 2.5C40.6046 2.5 41.5 3.39543 41.5 4.5V7.5C41.5 6.39543 42.3954 5.5 43.5 5.5C44.6046 5.5 45.5 6.39543 45.5 7.5V14.8582C45.5 16.2433 45.0208 17.5857 44.1437 18.6576Z" fill="#4864FF"/>
<path d="M41.5 7.5V11.5M41.5 7.5V4.5C41.5 3.39543 40.6046 2.5 39.5 2.5C38.3954 2.5 37.5 3.39543 37.5 4.5M41.5 7.5C41.5 6.39543 42.3954 5.5 43.5 5.5C44.6046 5.5 45.5 6.39543 45.5 7.5V14.8582C45.5 16.2433 45.0208 17.5857 44.1437 18.6576L43.5826 19.3435C41.948 21.3414 39.503 22.5 36.9217 22.5V22.5C34.7242 22.5 32.61 21.6594 31.0124 20.1506L25.6064 15.045C24.9435 14.4188 24.7477 13.4426 25.1181 12.6093V12.6093C25.7596 11.166 27.6865 10.8842 28.7143 12.0834L29.5 13V6.5C29.5 5.39543 30.3954 4.5 31.5 4.5C32.6046 4.5 33.5 5.39543 33.5 6.5M37.5 4.5V11.5M37.5 4.5V3.5C37.5 2.39543 36.6046 1.5 35.5 1.5C34.3954 1.5 33.5 2.39543 33.5 3.5V6.5M33.5 11.5V6.5" stroke="white" stroke-width="0.5" stroke-linecap="round" stroke-linejoin="round"/>
<g opacity="0.4">
<path d="M65.5 7.5V11.5M65.5 7.5V4.5C65.5 3.39543 64.6046 2.5 63.5 2.5C62.3954 2.5 61.5 3.39543 61.5 4.5M65.5 7.5C65.5 6.39543 66.3954 5.5 67.5 5.5C68.6046 5.5 69.5 6.39543 69.5 7.5V14.8582C69.5 16.2433 69.0208 17.5857 68.1437 18.6576L67.5826 19.3435C65.948 21.3414 63.503 22.5 60.9217 22.5V22.5C58.7242 22.5 56.61 21.6594 55.0124 20.1506L49.6064 15.045C48.9435 14.4188 48.7477 13.4426 49.1181 12.6093V12.6093C49.7596 11.166 51.6865 10.8842 52.7143 12.0834L53.5 13V6.5C53.5 5.39543 54.3954 4.5 55.5 4.5C56.6046 4.5 57.5 5.39543 57.5 6.5M61.5 4.5V11.5M61.5 4.5V3.5C61.5 2.39543 60.6046 1.5 59.5 1.5C58.3954 1.5 57.5 2.39543 57.5 3.5V6.5M57.5 11.5V6.5" stroke="#212648" stroke-linecap="round" stroke-linejoin="round"/>
</g>
</svg>
