<svg width="255" height="32" viewBox="0 0 255 32" fill="none" xmlns="http://www.w3.org/2000/svg">
<path d="M47 1H16C7.71573 1 1 7.71573 1 16C1 24.2843 7.71573 31 16 31H47C55.2843 31 62 24.2843 62 16C62 7.71573 55.2843 1 47 1Z" stroke="#5C6182" stroke-width="2"/>
<path d="M111 0H80C71.1634 0 64 7.16344 64 16C64 24.8366 71.1634 32 80 32H111C119.837 32 127 24.8366 127 16C127 7.16344 119.837 0 111 0Z" fill="#5C6182"/>
<path d="M175 0H144C135.163 0 128 7.16344 128 16C128 24.8366 135.163 32 144 32H175C183.837 32 191 24.8366 191 16C191 7.16344 183.837 0 175 0Z" fill="#4D5379"/>
<path d="M239 1H208C199.716 1 193 7.71573 193 16C193 24.2843 199.716 31 208 31H239C247.284 31 254 24.2843 254 16C254 7.71573 247.284 1 239 1Z" stroke="#212648" stroke-opacity="0.3" stroke-width="2"/>
</svg>
