<svg width="48" height="24" viewBox="0 0 48 24" fill="none" xmlns="http://www.w3.org/2000/svg">
<path d="M17 18C17.5523 18 18 17.5523 18 17C18 16.4477 17.5523 16 17 16C16.4477 16 16 16.4477 16 17C16 17.5523 16.4477 18 17 18Z" fill="#212648"/>
<path d="M7.5 12.5H3.5V20.5H20.5V12.5H16.5M12 13.5V3.5M12 3.5L8 7.5M12 3.5L16 7.5" stroke="#212648" stroke-linecap="round" stroke-linejoin="round"/>
<path d="M41 18C41.5523 18 42 17.5523 42 17C42 16.4477 41.5523 16 41 16C40.4477 16 40 16.4477 40 17C40 17.5523 40.4477 18 41 18Z" fill="#4864FF"/>
<path d="M31.5 12.5H27.5V20.5H44.5V12.5H40.5M36 13.5V3.5M36 3.5L32 7.5M36 3.5L40 7.5" stroke="#4864FF" stroke-linecap="round" stroke-linejoin="round"/>
</svg>
