<svg width="48" height="24" viewBox="0 0 48 24" fill="none" xmlns="http://www.w3.org/2000/svg">
<rect x="7.5" y="15.5" width="8" height="3" transform="rotate(-90 7.5 15.5)" fill="url(#paint0_linear)" stroke="#6A52FC"/>
<rect x="13.5" y="17.5" width="12" height="3" transform="rotate(-90 13.5 17.5)" fill="url(#paint1_linear)" stroke="#6A52FC"/>
<rect x="8" y="11" width="1" height="4" transform="rotate(90 8 11)" fill="#6A52FC"/>
<rect x="21" y="11" width="1" height="4" transform="rotate(90 21 11)" fill="#6A52FC"/>
<rect x="14" y="11" width="1" height="3" transform="rotate(90 14 11)" fill="#6A52FC"/>
<g opacity="0.4">
<rect x="31.5" y="15.5" width="8" height="3" transform="rotate(-90 31.5 15.5)" fill="url(#paint2_linear)" stroke="#6A52FC"/>
<rect x="37.5" y="17.5" width="12" height="3" transform="rotate(-90 37.5 17.5)" fill="url(#paint3_linear)" stroke="#6A52FC"/>
<rect x="32" y="11" width="1" height="4" transform="rotate(90 32 11)" fill="#6A52FC"/>
<rect x="45" y="11" width="1" height="4" transform="rotate(90 45 11)" fill="#6A52FC"/>
<rect x="38" y="11" width="1" height="3" transform="rotate(90 38 11)" fill="#6A52FC"/>
</g>
<defs>
<linearGradient id="paint0_linear" x1="15.3571" y1="18" x2="7.64286" y2="18" gradientUnits="userSpaceOnUse">
<stop stop-color="#8CA5FF"/>
<stop offset="1" stop-color="#7B72FB"/>
</linearGradient>
<linearGradient id="paint1_linear" x1="25.0714" y1="20" x2="13.9286" y2="20" gradientUnits="userSpaceOnUse">
<stop stop-color="#8CA5FF"/>
<stop offset="1" stop-color="#7B72FB"/>
</linearGradient>
<linearGradient id="paint2_linear" x1="39.3571" y1="18" x2="31.6429" y2="18" gradientUnits="userSpaceOnUse">
<stop stop-color="#8CA5FF"/>
<stop offset="1" stop-color="#7B72FB"/>
</linearGradient>
<linearGradient id="paint3_linear" x1="49.0714" y1="20" x2="37.9286" y2="20" gradientUnits="userSpaceOnUse">
<stop stop-color="#8CA5FF"/>
<stop offset="1" stop-color="#7B72FB"/>
</linearGradient>
</defs>
</svg>
