<svg width="160" height="40" viewBox="0 0 160 40" fill="none" xmlns="http://www.w3.org/2000/svg">
<rect x="15" y="18" width="7" height="1" fill="#979AB8"/>
<rect x="15" y="21" width="10" height="1" fill="#979AB8"/>
<path fill-rule="evenodd" clip-rule="evenodd" d="M28 13C28.5523 13 29 13.4477 29 14L29 26C29 26.5523 28.5523 27 28 27L12 27C11.4477 27 11 26.5523 11 26L11 14C11 13.4477 11.4477 13 12 13L28 13ZM27 15L13 15L13 25L27 25L27 15Z" fill="#212648"/>
<path fill-rule="evenodd" clip-rule="evenodd" d="M0 2.5C0 1.11929 1.11929 0 2.5 0H37.5C38.8807 0 40 1.11929 40 2.5V37.5C40 38.8807 38.8807 40 37.5 40H2.5C1.11929 40 0 38.8807 0 37.5V2.5ZM2.5 1C1.67157 1 1 1.67157 1 2.5V37.5C1 38.3284 1.67157 39 2.5 39H37.5C38.3284 39 39 38.3284 39 37.5V2.5C39 1.67157 38.3284 1 37.5 1H2.5Z" fill="#D3D4E0"/>
<rect x="55" y="18" width="7" height="1" fill="#979AB8"/>
<rect x="55" y="21" width="10" height="1" fill="#979AB8"/>
<path fill-rule="evenodd" clip-rule="evenodd" d="M68 13C68.5523 13 69 13.4477 69 14L69 26C69 26.5523 68.5523 27 68 27L52 27C51.4477 27 51 26.5523 51 26L51 14C51 13.4477 51.4477 13 52 13L68 13ZM67 15L53 15L53 25L67 25L67 15Z" fill="#212648"/>
<path fill-rule="evenodd" clip-rule="evenodd" d="M40 2.5C40 1.11929 41.1193 0 42.5 0H77.5C78.8807 0 80 1.11929 80 2.5V37.5C80 38.8807 78.8807 40 77.5 40H42.5C41.1193 40 40 38.8807 40 37.5V2.5ZM42.5 1C41.6716 1 41 1.67157 41 2.5V37.5C41 38.3284 41.6716 39 42.5 39H77.5C78.3284 39 79 38.3284 79 37.5V2.5C79 1.67157 78.3284 1 77.5 1H42.5Z" fill="#212648"/>
<path d="M80 2C80 0.895431 80.8954 0 82 0H118C119.105 0 120 0.895431 120 2V38C120 39.1046 119.105 40 118 40H82C80.8954 40 80 39.1046 80 38V2Z" fill="#4864FF"/>
<rect x="95" y="18" width="7" height="1" fill="white"/>
<rect x="95" y="21" width="10" height="1" fill="white"/>
<path fill-rule="evenodd" clip-rule="evenodd" d="M108 13C108.552 13 109 13.4477 109 14L109 26C109 26.5523 108.552 27 108 27L92 27C91.4477 27 91 26.5523 91 26L91 14C91 13.4477 91.4477 13 92 13L108 13ZM107 15L93 15L93 25L107 25L107 15Z" fill="white"/>
<rect x="135" y="18" width="7" height="1" fill="#212648" fill-opacity="0.3"/>
<rect x="135" y="21" width="10" height="1" fill="#212648" fill-opacity="0.3"/>
<path fill-rule="evenodd" clip-rule="evenodd" d="M148 13C148.552 13 149 13.4477 149 14L149 26C149 26.5523 148.552 27 148 27L132 27C131.448 27 131 26.5523 131 26L131 14C131 13.4477 131.448 13 132 13L148 13ZM147 15L133 15L133 25L147 25L147 15Z" fill="#212648" fill-opacity="0.3"/>
<path fill-rule="evenodd" clip-rule="evenodd" d="M120 2.5C120 1.11929 121.119 0 122.5 0H157.5C158.881 0 160 1.11929 160 2.5V37.5C160 38.8807 158.881 40 157.5 40H122.5C121.119 40 120 38.8807 120 37.5V2.5ZM122.5 1C121.672 1 121 1.67157 121 2.5V37.5C121 38.3284 121.672 39 122.5 39H157.5C158.328 39 159 38.3284 159 37.5V2.5C159 1.67157 158.328 1 157.5 1H122.5Z" fill="#D3D4E0"/>
</svg>
