<svg width="48" height="24" viewBox="0 0 48 24" fill="none" xmlns="http://www.w3.org/2000/svg">
<rect x="5" y="10" width="15" height="1" fill="#212648"/>
<rect width="15" height="1" transform="matrix(1 0 0 -1 5 14)" fill="#212648"/>
<path d="M12.5 3V8M12.5 8L16 5M12.5 8L9 5" stroke="#212648"/>
<path d="M12.5 21V16M12.5 16L16 19M12.5 16L9 19" stroke="#212648"/>
<rect x="29" y="10" width="15" height="1" fill="white"/>
<rect width="15" height="1" transform="matrix(1 0 0 -1 29 14)" fill="white"/>
<path d="M36.5 3V8M36.5 8L40 5M36.5 8L33 5" stroke="white"/>
<path d="M36.5 21V16M36.5 16L40 19M36.5 16L33 19" stroke="white"/>
</svg>
