<svg width="16" height="16" viewBox="0 0 16 16" fill="none" xmlns="http://www.w3.org/2000/svg">
<rect x="8.5" y="14" width="1" height="3" rx="0.5" transform="rotate(-180 8.5 14)" fill="#212648"/>
<rect x="8.5" y="5" width="1" height="3" rx="0.5" transform="rotate(-180 8.5 5)" fill="#212648"/>
<path d="M5.5 11L5.5 5C5.5 4.72386 5.72386 4.5 6 4.5L10 4.5C10.2761 4.5 10.5 4.72386 10.5 5L10.5 11C10.5 11.2761 10.2761 11.5 10 11.5L6 11.5C5.72386 11.5 5.5 11.2761 5.5 11Z" stroke="#212648"/>
<path d="M0.5 0.5H15.5V15.5H0.5V0.5Z" stroke="#212648" stroke-linecap="round"/>
<rect x="13" y="7.5" width="1" height="3" rx="0.5" transform="rotate(90 13 7.5)" fill="#212648"/>
<rect x="6" y="7.5" width="1" height="3" rx="0.5" transform="rotate(90 6 7.5)" fill="#212648"/>
</svg>
