<svg width="48" height="24" viewBox="0 0 48 24" fill="none" xmlns="http://www.w3.org/2000/svg">
<path d="M10.3026 8.74434C10.044 9.19581 9.55755 9.5 9 9.5C8.17157 9.5 7.5 8.82843 7.5 8C7.5 7.17157 8.17157 6.5 9 6.5C9.82843 6.5 10.5 7.17157 10.5 8C10.5 8.27088 10.4282 8.52499 10.3026 8.74434ZM10.3026 8.74434L14.6974 11.2557M14.6974 11.2557C14.956 10.8042 15.4425 10.5 16 10.5C16.8284 10.5 17.5 11.1716 17.5 12C17.5 12.8284 16.8284 13.5 16 13.5C15.4425 13.5 14.956 13.1958 14.6974 12.7443M14.6974 11.2557C14.5718 11.475 14.5 11.7291 14.5 12C14.5 12.2709 14.5718 12.525 14.6974 12.7443M14.6974 12.7443L10.3026 15.2557M10.3026 15.2557C10.044 14.8042 9.55755 14.5 9 14.5C8.17157 14.5 7.5 15.1716 7.5 16C7.5 16.8284 8.17157 17.5 9 17.5C9.82843 17.5 10.5 16.8284 10.5 16C10.5 15.7291 10.4282 15.475 10.3026 15.2557Z" stroke="white" stroke-linecap="round" stroke-linejoin="round"/>
<g opacity="0.4">
<path d="M34.3026 8.74434C34.044 9.19581 33.5575 9.5 33 9.5C32.1716 9.5 31.5 8.82843 31.5 8C31.5 7.17157 32.1716 6.5 33 6.5C33.8284 6.5 34.5 7.17157 34.5 8C34.5 8.27088 34.4282 8.52499 34.3026 8.74434ZM34.3026 8.74434L38.6974 11.2557M38.6974 11.2557C38.956 10.8042 39.4425 10.5 40 10.5C40.8284 10.5 41.5 11.1716 41.5 12C41.5 12.8284 40.8284 13.5 40 13.5C39.4425 13.5 38.956 13.1958 38.6974 12.7443M38.6974 11.2557C38.5718 11.475 38.5 11.7291 38.5 12C38.5 12.2709 38.5718 12.525 38.6974 12.7443M38.6974 12.7443L34.3026 15.2557M34.3026 15.2557C34.044 14.8042 33.5575 14.5 33 14.5C32.1716 14.5 31.5 15.1716 31.5 16C31.5 16.8284 32.1716 17.5 33 17.5C33.8284 17.5 34.5 16.8284 34.5 16C34.5 15.7291 34.4282 15.475 34.3026 15.2557Z" stroke="white" stroke-linecap="round" stroke-linejoin="round"/>
</g>
</svg>
