<svg width="32" height="16" viewBox="0 0 32 16" fill="none" xmlns="http://www.w3.org/2000/svg">
<path d="M2.5 1.5H11.0858C11.351 1.5 11.6054 1.60536 11.7929 1.79289L14.2071 4.20711C14.3946 4.39464 14.5 4.649 14.5 4.91421V14.5C14.5 15.0523 14.0523 15.5 13.5 15.5H2.5C1.94772 15.5 1.5 15.0523 1.5 14.5V2.5C1.5 1.94772 1.94772 1.5 2.5 1.5Z" stroke="#212648"/>
<path d="M10.5 6.5H4.5H11.5" stroke="#212648" stroke-linecap="round" stroke-linejoin="round"/>
<path d="M4.5 15.5V10.5C4.5 9.94772 4.94772 9.5 5.5 9.5H10.5C11.0523 9.5 11.5 9.94772 11.5 10.5V15.5" stroke="#212648"/>
<g opacity="0.4">
<path d="M18.5 1.5H27.0858C27.351 1.5 27.6054 1.60536 27.7929 1.79289L30.2071 4.20711C30.3946 4.39464 30.5 4.649 30.5 4.91421V14.5C30.5 15.0523 30.0523 15.5 29.5 15.5H18.5C17.9477 15.5 17.5 15.0523 17.5 14.5V2.5C17.5 1.94772 17.9477 1.5 18.5 1.5Z" stroke="#212648"/>
<path d="M26.5 6.5H20.5H27.5" stroke="#212648" stroke-linecap="round" stroke-linejoin="round"/>
<path d="M20.5 15.5V10.5C20.5 9.94772 20.9477 9.5 21.5 9.5H26.5C27.0523 9.5 27.5 9.94772 27.5 10.5V15.5" stroke="#212648"/>
</g>
</svg>
