<svg width="72" height="18" viewBox="0 0 72 18" fill="none" xmlns="http://www.w3.org/2000/svg">
<path fill-rule="evenodd" clip-rule="evenodd" d="M3 1C1.89543 1 1 1.89543 1 3V15C1 16.1046 1.89543 17 3 17H15C16.1046 17 17 16.1046 17 15V3C17 1.89543 16.1046 1 15 1H3Z" fill="white"/>
<path d="M1.5 3C1.5 2.17157 2.17157 1.5 3 1.5H15C15.8284 1.5 16.5 2.17157 16.5 3V15C16.5 15.8284 15.8284 16.5 15 16.5H3C2.17157 16.5 1.5 15.8284 1.5 15V3Z" stroke="black" stroke-opacity="0.24" stroke-linecap="round" stroke-linejoin="round"/>
<path fill-rule="evenodd" clip-rule="evenodd" d="M21 1C19.8954 1 19 1.89543 19 3V15C19 16.1046 19.8954 17 21 17H33C34.1046 17 35 16.1046 35 15V3C35 1.89543 34.1046 1 33 1H21Z" fill="white"/>
<path d="M19.5 3C19.5 2.17157 20.1716 1.5 21 1.5H33C33.8284 1.5 34.5 2.17157 34.5 3V15C34.5 15.8284 33.8284 16.5 33 16.5H21C20.1716 16.5 19.5 15.8284 19.5 15V3Z" stroke="black" stroke-opacity="0.24" stroke-linecap="round" stroke-linejoin="round"/>
<path fill-rule="evenodd" clip-rule="evenodd" d="M39 1C37.8954 1 37 1.89543 37 3V15C37 16.1046 37.8954 17 39 17H51C52.1046 17 53 16.1046 53 15V3C53 1.89543 52.1046 1 51 1H39Z" fill="black" fill-opacity="0.08"/>
<path d="M37.5 3C37.5 2.17157 38.1716 1.5 39 1.5H51C51.8284 1.5 52.5 2.17157 52.5 3V15C52.5 15.8284 51.8284 16.5 51 16.5H39C38.1716 16.5 37.5 15.8284 37.5 15V3Z" stroke="black" stroke-opacity="0.24" stroke-linecap="round" stroke-linejoin="round"/>
<path fill-rule="evenodd" clip-rule="evenodd" d="M57 1C55.8954 1 55 1.89543 55 3V15C55 16.1046 55.8954 17 57 17H69C70.1046 17 71 16.1046 71 15V3C71 1.89543 70.1046 1 69 1H57Z" fill="black" fill-opacity="0.08"/>
<path d="M55.5 3C55.5 2.17157 56.1716 1.5 57 1.5H69C69.8284 1.5 70.5 2.17157 70.5 3V15C70.5 15.8284 69.8284 16.5 69 16.5H57C56.1716 16.5 55.5 15.8284 55.5 15V3Z" stroke="black" stroke-opacity="0.08" stroke-linecap="round" stroke-linejoin="round"/>
</svg>
