<svg width="72" height="18" viewBox="0 0 72 18" fill="none" xmlns="http://www.w3.org/2000/svg">
<path d="M1 3C1 1.89543 1.89543 1 3 1H15C16.1046 1 17 1.89543 17 3V15C17 16.1046 16.1046 17 15 17H3C1.89543 17 1 16.1046 1 15V3Z" fill="#007BFF"/>
<path fill-rule="evenodd" clip-rule="evenodd" d="M3 1C1.89543 1 1 1.89543 1 3V15C1 16.1046 1.89543 17 3 17H15C16.1046 17 17 16.1046 17 15V3C17 1.89543 16.1046 1 15 1H3ZM13.7071 7.70711C14.0976 7.31658 14.0976 6.68342 13.7071 6.29289C13.3166 5.90237 12.6834 5.90237 12.2929 6.29289L10.2929 8.29289C9.02656 9.55922 6.97344 9.55922 5.70711 8.29289V8.29289C5.31658 7.90237 4.68342 7.90237 4.29289 8.29289C3.90237 8.68342 3.90237 9.31658 4.29289 9.70711L7.29289 12.7071C7.68342 13.0976 8.31658 13.0976 8.70711 12.7071L13.7071 7.70711Z" fill="#007BFF"/>
<path fill-rule="evenodd" clip-rule="evenodd" d="M13.7071 6.29289C14.0976 6.68342 14.0976 7.31658 13.7071 7.70711L8.70711 12.7071C8.31658 13.0976 7.68342 13.0976 7.29289 12.7071L4.29289 9.70711C3.90237 9.31658 3.90237 8.68342 4.29289 8.29289C4.68342 7.90237 5.31658 7.90237 5.70711 8.29289L8 10.5858L12.2929 6.29289C12.6834 5.90237 13.3166 5.90237 13.7071 6.29289Z" fill="white"/>
<path d="M19 3C19 1.89543 19.8954 1 21 1H33C34.1046 1 35 1.89543 35 3V15C35 16.1046 34.1046 17 33 17H21C19.8954 17 19 16.1046 19 15V3Z" fill="#006BDE"/>
<path fill-rule="evenodd" clip-rule="evenodd" d="M21 1C19.8954 1 19 1.89543 19 3V15C19 16.1046 19.8954 17 21 17H33C34.1046 17 35 16.1046 35 15V3C35 1.89543 34.1046 1 33 1H21ZM31.7071 7.70711C32.0976 7.31658 32.0976 6.68342 31.7071 6.29289C31.3166 5.90237 30.6834 5.90237 30.2929 6.29289L28.2929 8.29289C27.0266 9.55922 24.9734 9.55922 23.7071 8.29289V8.29289C23.3166 7.90237 22.6834 7.90237 22.2929 8.29289C21.9024 8.68342 21.9024 9.31658 22.2929 9.70711L25.2929 12.7071C25.6834 13.0976 26.3166 13.0976 26.7071 12.7071L31.7071 7.70711Z" fill="#006BDE"/>
<path fill-rule="evenodd" clip-rule="evenodd" d="M31.7071 6.29289C32.0976 6.68342 32.0976 7.31658 31.7071 7.70711L26.7071 12.7071C26.3166 13.0976 25.6834 13.0976 25.2929 12.7071L22.2929 9.70711C21.9024 9.31658 21.9024 8.68342 22.2929 8.29289C22.6834 7.90237 23.3166 7.90237 23.7071 8.29289L26 10.5858L30.2929 6.29289C30.6834 5.90237 31.3166 5.90237 31.7071 6.29289Z" fill="white"/>
<path d="M37 3C37 1.89543 37.8954 1 39 1H51C52.1046 1 53 1.89543 53 3V15C53 16.1046 52.1046 17 51 17H39C37.8954 17 37 16.1046 37 15V3Z" fill="#005CBE"/>
<path fill-rule="evenodd" clip-rule="evenodd" d="M39 1C37.8954 1 37 1.89543 37 3V15C37 16.1046 37.8954 17 39 17H51C52.1046 17 53 16.1046 53 15V3C53 1.89543 52.1046 1 51 1H39ZM49.7071 7.70711C50.0976 7.31658 50.0976 6.68342 49.7071 6.29289C49.3166 5.90237 48.6834 5.90237 48.2929 6.29289L46.2929 8.29289C45.0266 9.55922 42.9734 9.55922 41.7071 8.29289V8.29289C41.3166 7.90237 40.6834 7.90237 40.2929 8.29289C39.9024 8.68342 39.9024 9.31658 40.2929 9.70711L43.2929 12.7071C43.6834 13.0976 44.3166 13.0976 44.7071 12.7071L49.7071 7.70711Z" fill="#005CBE"/>
<path fill-rule="evenodd" clip-rule="evenodd" d="M49.7071 6.29289C50.0976 6.68342 50.0976 7.31658 49.7071 7.70711L44.7071 12.7071C44.3166 13.0976 43.6834 13.0976 43.2929 12.7071L40.2929 9.70711C39.9024 9.31658 39.9024 8.68342 40.2929 8.29289C40.6834 7.90237 41.3166 7.90237 41.7071 8.29289L44 10.5858L48.2929 6.29289C48.6834 5.90237 49.3166 5.90237 49.7071 6.29289Z" fill="white" fill-opacity="0.72"/>
<path d="M55 3C55 1.89543 55.8954 1 57 1H69C70.1046 1 71 1.89543 71 3V15C71 16.1046 70.1046 17 69 17H57C55.8954 17 55 16.1046 55 15V3Z" fill="black" fill-opacity="0.08"/>
<path fill-rule="evenodd" clip-rule="evenodd" d="M57 1C55.8954 1 55 1.89543 55 3V15C55 16.1046 55.8954 17 57 17H69C70.1046 17 71 16.1046 71 15V3C71 1.89543 70.1046 1 69 1H57ZM67.7071 7.70711C68.0976 7.31658 68.0976 6.68342 67.7071 6.29289C67.3166 5.90237 66.6834 5.90237 66.2929 6.29289L64.2929 8.29289C63.0266 9.55922 60.9734 9.55922 59.7071 8.29289V8.29289C59.3166 7.90237 58.6834 7.90237 58.2929 8.29289C57.9024 8.68342 57.9024 9.31658 58.2929 9.70711L61.2929 12.7071C61.6834 13.0976 62.3166 13.0976 62.7071 12.7071L67.7071 7.70711Z" fill="black" fill-opacity="0.08"/>
<path fill-rule="evenodd" clip-rule="evenodd" d="M67.7071 6.29289C68.0976 6.68342 68.0976 7.31658 67.7071 7.70711L62.7071 12.7071C62.3166 13.0976 61.6834 13.0976 61.2929 12.7071L58.2929 9.70711C57.9024 9.31658 57.9024 8.68342 58.2929 8.29289C58.6834 7.90237 59.3166 7.90237 59.7071 8.29289L62 10.5858L66.2929 6.29289C66.6834 5.90237 67.3166 5.90237 67.7071 6.29289Z" fill="black" fill-opacity="0.24"/>
</svg>
