<svg width="16" height="16" viewBox="0 0 16 16" fill="none" xmlns="http://www.w3.org/2000/svg">
<path d="M3.5 7.5H12.5C13.0523 7.5 13.5 7.05228 13.5 6.5V2.5C13.5 1.94772 13.0523 1.5 12.5 1.5H1.5C0.947715 1.5 0.5 1.94772 0.5 2.5V6.5C0.5 7.05228 0.947715 7.5 1.5 7.5H3.5ZM3.5 7.5V12.5C3.5 13.0523 3.94772 13.5 4.5 13.5H6.5M6.5 13.5V12.5C6.5 11.9477 6.94772 11.5 7.5 11.5H13.5C14.0523 11.5 14.5 11.9477 14.5 12.5V14.5C14.5 15.0523 14.0523 15.5 13.5 15.5H7.5C6.94772 15.5 6.5 15.0523 6.5 14.5V13.5Z" stroke="#212648"/>
</svg>
