<svg width="250" height="288" viewBox="0 0 250 288" fill="none" xmlns="http://www.w3.org/2000/svg">
<g clip-path="url(#clip0)">
<path d="M248.227 141.843H249.113C249.603 141.843 250 142.24 250 142.73V195.921C250 196.411 249.603 196.808 249.113 196.808H248.227V141.843Z" fill="#213744"/>
<path d="M1.77301 208.629L0.886482 208.629C0.396868 208.629 -4.24038e-05 208.232 -4.2361e-05 207.742L-3.94676e-05 174.645C-3.94248e-05 174.156 0.396871 173.759 0.886485 173.759L1.77301 173.759L1.77301 208.629Z" fill="#213744"/>
<path d="M1.77301 164.303L0.886482 164.303C0.396868 164.303 -4.24038e-05 163.906 -4.2361e-05 163.416L-3.94676e-05 130.319C-3.94248e-05 129.83 0.396871 129.433 0.886485 129.433L1.77301 129.433L1.77301 164.303Z" fill="#213744"/>
<path d="M1.77301 114.066L0.886484 114.066C0.39687 114.066 -4.07349e-05 113.669 -4.06921e-05 113.18L-3.94004e-05 98.4041C-3.93576e-05 97.9145 0.396871 97.5176 0.886485 97.5176L1.77301 97.5176L1.77301 114.066Z" fill="#213744"/>
<path d="M1.77307 53.7824C1.77307 39.4818 1.77307 32.3315 3.65329 26.5448C7.45332 14.8495 16.6226 5.68016 28.3179 1.88013C34.1046 -9.15527e-05 41.2549 -9.15527e-05 55.5556 -9.15527e-05H194.444C208.745 -9.15527e-05 215.895 -9.15527e-05 221.682 1.88013C233.377 5.68016 242.547 14.8495 246.347 26.5448C248.227 32.3315 248.227 39.4818 248.227 53.7824V453.31C248.227 467.61 248.227 474.761 246.347 480.547C242.547 492.243 233.377 501.412 221.682 505.212C215.895 507.092 208.745 507.092 194.444 507.092H55.5556C41.2549 507.092 34.1046 507.092 28.3179 505.212C16.6226 501.412 7.45332 492.243 3.65329 480.547C1.77307 474.761 1.77307 467.61 1.77307 453.31V53.7824Z" fill="#213744"/>
<path fill-rule="evenodd" clip-rule="evenodd" d="M194.681 1.18162H55.3192C41.1925 1.18162 34.2694 1.18891 28.6832 3.00399C17.3477 6.6871 8.46057 15.5743 4.77745 26.9097C2.96238 32.4959 2.95509 39.4191 2.95509 53.5457V453.546C2.95509 467.672 2.96238 474.595 4.77745 480.182C8.46057 491.517 17.3477 500.404 28.6832 504.087C34.2694 505.902 41.1925 505.91 55.3192 505.91H194.681C208.807 505.91 215.731 505.902 221.317 504.087C232.652 500.404 241.539 491.517 245.223 480.182C247.038 474.595 247.045 467.672 247.045 453.546V53.5457C247.045 39.4191 247.038 32.4959 245.223 26.9097C241.539 15.5743 232.652 6.6871 221.317 3.00399C215.731 1.18891 208.807 1.18162 194.681 1.18162ZM4.21536 26.7271C2.36407 32.4248 2.36407 39.4651 2.36407 53.5457V453.546C2.36407 467.626 2.36407 474.667 4.21536 480.364C7.95694 491.88 16.9852 500.908 28.5005 504.649C34.1982 506.501 41.2385 506.501 55.3192 506.501H194.681C208.761 506.501 215.802 506.501 221.499 504.649C233.015 500.908 242.043 491.88 245.785 480.364C247.636 474.667 247.636 467.626 247.636 453.546V53.5457C247.636 39.4651 247.636 32.4248 245.785 26.7271C242.043 15.2117 233.015 6.18347 221.499 2.4419C215.802 0.590607 208.761 0.590607 194.681 0.590607H55.3192C41.2385 0.590607 34.1982 0.590607 28.5005 2.4419C16.9852 6.18347 7.95694 15.2117 4.21536 26.7271Z" fill="#8EADC1"/>
<path d="M4.72815 52.6006C4.72815 39.4 4.72815 32.7997 6.46373 27.4581C9.97146 16.6625 18.4354 8.19851 29.2311 4.69078C34.5727 2.9552 41.173 2.9552 54.3735 2.9552H195.626C208.827 2.9552 215.427 2.9552 220.769 4.69078C231.565 8.19851 240.029 16.6625 243.536 27.4581C245.272 32.7997 245.272 39.4 245.272 52.6006V454.492C245.272 467.692 245.272 474.293 243.536 479.634C240.029 490.43 231.565 498.894 220.769 502.402C215.427 504.137 208.827 504.137 195.626 504.137H54.3735C41.173 504.137 34.5727 504.137 29.2311 502.402C18.4354 498.894 9.97146 490.43 6.46373 479.634C4.72815 474.293 4.72815 467.692 4.72815 454.492V52.6006Z" fill="#121515"/>
<path d="M195.626 -0.000213623H199.173V2.95487H195.626V-0.000213623Z" fill="#36454C"/>
<path d="M245.272 50.8271H248.227V54.3732H245.272V50.8271Z" fill="#36454C"/>
<path d="M1.77307 50.8271H4.72815V54.3732H1.77307V50.8271Z" fill="#36454C"/>
<mask id="mask0" mask-type="alpha" maskUnits="userSpaceOnUse" x="13" y="11" width="224" height="485">
<path d="M70.331 17.317C70.331 23.4208 75.4117 28.369 81.5603 28.369H168.44C174.588 28.369 179.669 23.4208 179.669 17.317V14.3028C179.669 12.6381 180.947 11.2295 182.624 11.2295H196.164C208.325 11.2295 214.406 11.2295 219.242 13.1007C226.537 15.9229 232.304 21.6899 235.127 28.9848C236.998 33.8214 236.998 39.9019 236.998 52.0629V455.03C236.998 467.191 236.998 473.271 235.127 478.108C232.304 485.403 226.537 491.17 219.242 493.992C214.406 495.863 208.325 495.863 196.164 495.863H53.8357C41.6747 495.863 35.5942 495.863 30.7576 493.992C23.4627 491.17 17.6957 485.403 14.8735 478.108C13.0024 473.271 13.0024 467.191 13.0024 455.03V52.0629C13.0024 39.9019 13.0024 33.8214 14.8735 28.9848C17.6957 21.6899 23.4627 15.9229 30.7576 13.1007C35.5942 11.2295 41.6747 11.2295 53.8357 11.2295H67.3759C69.0528 11.2295 70.331 12.6381 70.331 14.3028V17.317Z" fill="white"/>
</mask>
<g mask="url(#mask0)">
<rect x="13" y="11" width="225" height="279" fill="white"/>
</g>
<path fill-rule="evenodd" clip-rule="evenodd" d="M147.754 21.8675C150.039 21.8675 151.891 20.0152 151.891 17.7303C151.891 15.4455 150.039 13.5932 147.754 13.5932C145.469 13.5932 143.617 15.4455 143.617 17.7303C143.617 20.0152 145.469 21.8675 147.754 21.8675Z" fill="#262C2D"/>
<path fill-rule="evenodd" clip-rule="evenodd" d="M147.754 20.316C149.182 20.316 150.34 19.1584 150.34 17.7304C150.34 16.3023 149.182 15.1447 147.754 15.1447C146.326 15.1447 145.168 16.3023 145.168 17.7304C145.168 19.1584 146.326 20.316 147.754 20.316Z" fill="#121515"/>
<path opacity="0.4" fill-rule="evenodd" clip-rule="evenodd" d="M147.754 17.2132C148.04 17.2132 148.271 16.9817 148.271 16.6961C148.271 16.4105 148.04 16.1789 147.754 16.1789C147.468 16.1789 147.237 16.4105 147.237 16.6961C147.237 16.9817 147.468 17.2132 147.754 17.2132Z" fill="#636F73"/>
<path fill-rule="evenodd" clip-rule="evenodd" d="M112.293 17.73C112.293 16.7508 113.087 15.957 114.066 15.957H135.934C136.913 15.957 137.707 16.7508 137.707 17.73C137.707 18.7092 136.913 19.5031 135.934 19.5031H114.066C113.087 19.5031 112.293 18.7092 112.293 17.73Z" fill="#262C2D"/>
<rect x="23" y="42.4893" width="204" height="28" rx="8" fill="#E9ECF1"/>
<circle cx="36" cy="55.4893" r="5.4" stroke="#212648" stroke-width="1.2"/>
<path d="M40 59.4893L43.5 62.9893" stroke="#212648" stroke-width="1.5" stroke-linecap="round"/>
<path d="M63.155 52.5323V51.5963H51.845V52.5323H55.342C55.264 55.8473 55.082 59.8513 51.481 61.7623C51.741 61.9443 52.027 62.2563 52.183 62.5163C54.744 61.0863 55.706 58.6683 56.083 56.1203H60.945C60.763 59.5523 60.542 60.9823 60.152 61.3333C59.996 61.4763 59.84 61.5023 59.541 61.5023C59.19 61.5023 58.254 61.5023 57.279 61.3983C57.474 61.6713 57.604 62.0613 57.617 62.3473C58.514 62.4123 59.411 62.4383 59.905 62.3993C60.399 62.3603 60.711 62.2563 61.01 61.9313C61.517 61.3853 61.725 59.8383 61.959 55.6523C61.972 55.5223 61.972 55.1843 61.972 55.1843H56.2C56.291 54.2873 56.33 53.3903 56.356 52.5323H63.155ZM64.221 56.8223V57.7453H75.752V56.8223H64.221ZM71.41 58.9413C72.606 60.0073 74.114 61.5153 74.829 62.4123L75.752 61.8663C74.985 60.9563 73.438 59.5133 72.255 58.4863L71.41 58.9413ZM67.445 58.4343C66.769 59.5523 65.378 60.8783 64.104 61.7103C64.351 61.8663 64.715 62.2043 64.91 62.3993C66.21 61.5023 67.614 60.0983 68.485 58.8113L67.445 58.4343ZM64.286 52.1423C65.092 53.2993 65.898 54.8723 66.236 55.9123L67.159 55.4833C66.821 54.4693 65.989 52.9353 65.157 51.7783L64.286 52.1423ZM68.134 51.1153C68.771 52.3373 69.369 53.9883 69.577 55.0413L70.539 54.7033C70.305 53.6373 69.694 52.0513 69.018 50.8163L68.134 51.1153ZM74.491 51.1543C73.841 52.7143 72.671 54.8073 71.735 56.1073L72.671 56.4323C73.594 55.1583 74.751 53.1563 75.583 51.4793L74.491 51.1543ZM80.783 52.3893H77.195V61.4893H78.287V57.7193H80.64C82.616 57.7193 83.578 56.2893 83.578 54.9503C83.578 53.6113 82.616 52.3893 80.783 52.3893ZM80.64 56.7183H78.287V53.3903H80.679C81.836 53.3903 82.434 54.1833 82.434 55.0283C82.434 55.8603 81.849 56.7183 80.64 56.7183ZM87.7117 52.3893H84.8127V61.4893H87.6337C90.6887 61.4893 92.1577 59.1493 92.1577 56.8093C92.1577 54.4693 90.7017 52.3893 87.7117 52.3893ZM87.6207 60.4883H85.9307V53.3903H87.6467C89.9087 53.3903 90.9877 55.0413 90.9877 56.8743C90.9877 58.7073 89.8957 60.4883 87.6207 60.4883ZM94.7671 57.3943H99.1481V56.3803H94.7671V53.3903H99.4991V52.3893H93.6491V61.4893H94.7671V57.3943Z" fill="black"/>
<rect x="63" y="85.4893" width="159" height="16" fill="white"/>
<path d="M76.285 91.0533V90.0523H66.726V91.0533H69.509C69.421 93.7923 69.3 96.9603 66.363 98.5443C66.627 98.7533 66.957 99.0943 67.1 99.3693C69.212 98.1593 70.004 96.1903 70.323 94.0783H74.228C74.085 96.7513 73.92 97.9063 73.601 98.1813C73.469 98.3023 73.337 98.3243 73.084 98.3133C72.787 98.3133 72.006 98.3133 71.225 98.2473C71.412 98.5333 71.555 98.9513 71.577 99.2483C72.325 99.2923 73.073 99.3033 73.491 99.2593C73.953 99.2153 74.25 99.1273 74.525 98.8083C74.954 98.3353 75.141 97.0153 75.328 93.5613C75.339 93.4183 75.339 93.0883 75.339 93.0883H70.455C70.521 92.4063 70.543 91.7243 70.565 91.0533H76.285ZM77.165 94.4303V95.4093H86.966V94.4303H77.165ZM83.127 96.3993C84.117 97.3013 85.393 98.5663 85.987 99.3143L87.01 98.7423C86.35 97.9723 85.03 96.7623 84.073 95.9153L83.127 96.3993ZM79.816 95.8823C79.255 96.7843 78.089 97.8953 77.033 98.5773C77.297 98.7423 77.693 99.0943 77.913 99.3143C79.002 98.5553 80.168 97.3783 80.949 96.2893L79.816 95.8823ZM77.187 90.5803C77.858 91.5593 78.54 92.9013 78.793 93.7813L79.794 93.3193C79.497 92.4503 78.815 91.1633 78.111 90.1843L77.187 90.5803ZM80.421 89.6893C80.96 90.7233 81.466 92.1313 81.62 93.0223L82.665 92.6593C82.467 91.7463 81.95 90.4043 81.378 89.3703L80.421 89.6893ZM85.701 89.6563C85.195 90.9763 84.26 92.7143 83.501 93.8033L84.502 94.1443C85.261 93.0883 86.196 91.4493 86.889 89.9973L85.701 89.6563ZM88.187 98.4893H89.463V95.4203H90.684C92.444 95.4203 93.731 94.6063 93.731 92.8353C93.731 91.0093 92.444 90.3823 90.64 90.3823H88.187V98.4893ZM89.463 94.3973V91.4163H90.519C91.806 91.4163 92.477 91.7683 92.477 92.8353C92.477 93.9023 91.861 94.3973 90.563 94.3973H89.463ZM94.8691 98.4893H97.0361C99.4561 98.4893 100.875 97.0373 100.875 94.4083C100.875 91.7683 99.4561 90.3823 96.9701 90.3823H94.8691V98.4893ZM96.1451 97.4443V91.4273H96.8821C98.6201 91.4273 99.5551 92.3843 99.5551 94.4083C99.5551 96.4213 98.6201 97.4443 96.8821 97.4443H96.1451ZM102.12 98.4893H103.396V95.0023H106.388V93.9353H103.396V91.4603H106.916V90.3823H102.12V98.4893ZM109.392 95.8493H112.296V94.9143H109.392V95.8493ZM115.464 98.4893H116.74V95.4203H117.961C119.721 95.4203 121.008 94.6063 121.008 92.8353C121.008 91.0093 119.721 90.3823 117.917 90.3823H115.464V98.4893ZM116.74 94.3973V91.4163H117.796C119.083 91.4163 119.754 91.7683 119.754 92.8353C119.754 93.9023 119.138 94.3973 117.84 94.3973H116.74ZM122.146 98.4893H124.313C126.733 98.4893 128.152 97.0373 128.152 94.4083C128.152 91.7683 126.733 90.3823 124.247 90.3823H122.146V98.4893ZM123.422 97.4443V91.4273H124.159C125.897 91.4273 126.832 92.3843 126.832 94.4083C126.832 96.4213 125.897 97.4443 124.159 97.4443H123.422ZM129.397 98.4893H130.673V95.0023H133.665V93.9353H130.673V91.4603H134.193V90.3823H129.397V98.4893ZM141.733 92.1423C141.238 93.4953 140.556 94.6173 139.665 95.5413C138.73 94.5733 137.993 93.4403 137.465 92.1423H141.733ZM144.582 92.1423V91.1523H139.643L140.622 90.8443C140.479 90.3933 140.127 89.6893 139.808 89.1723L138.73 89.4913C139.027 90.0083 139.335 90.7013 139.467 91.1523H134.704V92.1423H136.398C137.014 93.7483 137.828 95.1233 138.895 96.2563C137.729 97.2133 136.288 97.8953 134.517 98.3683C134.726 98.6103 135.034 99.0833 135.155 99.3473C136.937 98.7973 138.433 98.0273 139.654 96.9933C140.842 98.0273 142.305 98.8083 144.054 99.2813C144.219 98.9843 144.516 98.5553 144.747 98.3353C143.053 97.9173 141.623 97.2023 140.446 96.2453C141.48 95.1453 142.294 93.8033 142.877 92.1423H144.582ZM153.921 89.9753C153.69 90.7673 153.261 91.8893 152.898 92.5823L153.712 92.8353C154.086 92.1863 154.537 91.1303 154.911 90.2283L153.921 89.9753ZM150.819 92.4173C150.621 91.7573 150.203 90.7453 149.84 89.9643L148.993 90.2613C149.345 91.0533 149.763 92.1093 149.939 92.7803L150.819 92.4173ZM149.103 94.8593C148.905 94.5513 148.003 93.2973 147.695 92.9013V92.5053H149.015V91.5593H147.695V89.2603H146.738V91.5593H145.231V92.5053H146.573C146.265 93.9243 145.627 95.5523 144.978 96.4543C145.143 96.6963 145.385 97.1033 145.484 97.3783C145.957 96.7073 146.397 95.6513 146.738 94.5403V99.3583H147.695V94.1553C148.003 94.6723 148.344 95.2773 148.509 95.6513L149.103 94.8593ZM152.403 89.2933H151.424V93.2863H149.004V94.2653H153.767V95.4753H149.147V96.3993H153.767V97.6753H148.751V98.6543H153.767V99.2483H154.768V93.2863H152.403V89.2933ZM157.331 95.2003C158.057 94.2433 158.75 93.0883 159.311 91.9663L158.508 91.4933C158.332 91.9003 158.123 92.3293 157.903 92.7253L156.88 92.8243C157.474 91.8783 158.057 90.7013 158.464 89.5793L157.507 89.2383C157.144 90.5473 156.451 91.9553 156.231 92.3183C156.011 92.6813 155.846 92.9233 155.637 92.9783C155.747 93.2313 155.901 93.6933 155.956 93.8913C156.11 93.8143 156.363 93.7373 157.397 93.6053C157.023 94.2323 156.671 94.7163 156.517 94.9253C156.198 95.3323 155.978 95.5963 155.736 95.6513C155.835 95.8933 155.989 96.3333 156.022 96.5203C156.253 96.3773 156.616 96.2563 159.003 95.6953C158.959 95.4863 158.926 95.1233 158.937 94.8703L157.331 95.2003ZM158.871 96.5533C157.683 97.0373 156.484 97.5103 155.681 97.7743L155.923 98.7203C156.825 98.3243 157.98 97.8403 159.069 97.3673L158.871 96.5533ZM164.041 96.1463V94.7383H164.69V96.1463H164.041ZM162.754 96.1463V94.7383H163.381V96.1463H162.754ZM161.368 96.1463V94.7383H162.094V96.1463H161.368ZM164.393 91.2513V92.2633H160.686V91.2513H164.393ZM164.69 93.9023V93.9133H160.664C160.675 93.6273 160.686 93.3633 160.686 93.0993H165.339V90.4043H163.337C163.205 90.0413 163.007 89.5573 162.787 89.1833L161.819 89.4693C161.962 89.7443 162.105 90.0963 162.215 90.4043H159.751V92.7693C159.751 94.4523 159.652 96.8833 158.64 98.6213C158.849 98.7203 159.267 99.0173 159.421 99.1933C160.092 98.0603 160.411 96.5533 160.565 95.1673V99.2593H161.368V96.9493H162.094V99.0173H162.754V96.9493H163.381V98.9953H164.041V96.9493H164.69V98.4233C164.69 98.5003 164.668 98.5223 164.591 98.5333C164.525 98.5333 164.349 98.5333 164.14 98.5223C164.25 98.7313 164.338 99.0503 164.371 99.2703C164.745 99.2703 165.009 99.2593 165.218 99.1273C165.438 98.9953 165.482 98.7753 165.482 98.4343V93.9023H164.69ZM174.612 91.2513H171.961V90.3493H174.612V91.2513ZM175.602 89.6013H171.026V91.9993H175.602V89.6013ZM170.487 96.7403L170.432 95.8713L169.387 96.0473V94.7823H170.245V93.8583H169.387V92.2413H168.452V93.8583H167.583C167.869 93.1543 168.155 92.3183 168.408 91.4713H170.344V90.5033H168.672C168.749 90.1513 168.826 89.7883 168.892 89.4473L167.902 89.2603C167.847 89.6783 167.77 90.0963 167.682 90.5033H166.329V91.4713H167.451C167.242 92.2743 167.033 92.9233 166.934 93.1763C166.736 93.6603 166.593 94.0013 166.395 94.0563C166.505 94.2873 166.648 94.7493 166.703 94.9363C166.791 94.8483 167.143 94.7823 167.506 94.7823H168.452V96.2013C167.616 96.3333 166.835 96.4653 166.241 96.5423L166.45 97.5323C167.044 97.4333 167.726 97.3013 168.452 97.1583V99.3253H169.387V96.9713L170.487 96.7403ZM172.038 96.4763H174.568V97.2243C173.677 97.2903 172.819 97.3563 172.038 97.4113V96.4763ZM174.568 93.3963V94.1993H172.038V93.3963H174.568ZM172.038 94.9473H174.568V95.7393H172.038V94.9473ZM176.328 97.0813L175.514 97.1473V93.3963H176.24V92.5603H170.421V93.3963H171.092V97.4663L170.19 97.5213L170.333 98.4233C171.477 98.3353 172.995 98.2143 174.568 98.0823V99.3583H175.514V98.0053L176.328 97.9283V97.0813ZM183.797 95.7503H177.01V96.7293H183.797V95.7503ZM179.474 93.4293C179.595 92.8903 179.727 92.2853 179.848 91.6693H185.997V90.6903H180.035C180.112 90.3053 180.178 89.9313 180.244 89.5793L179.199 89.4803C178.946 91.0313 178.506 93.1323 178.165 94.3753H185.084C184.864 96.6853 184.578 97.8183 184.204 98.1263C184.05 98.2473 183.885 98.2583 183.621 98.2583C183.269 98.2583 182.411 98.2473 181.564 98.1703C181.773 98.4673 181.927 98.8963 181.949 99.1933C182.73 99.2373 183.511 99.2483 183.94 99.2153C184.446 99.1823 184.765 99.0943 185.084 98.7753C185.59 98.2803 185.887 96.9933 186.173 93.9023C186.206 93.7483 186.217 93.4293 186.217 93.4293H179.474ZM189.759 90.8333C190.012 91.2403 190.265 91.7133 190.364 92.0433L191.233 91.7243C191.145 91.4933 190.969 91.1523 190.76 90.8333H192.289V90.1073H189.495C189.605 89.8653 189.693 89.6343 189.77 89.3923L188.769 89.2053C188.483 90.1403 187.988 91.0863 187.383 91.6693C187.636 91.7793 188.065 92.0103 188.263 92.1423C188.582 91.7903 188.89 91.3393 189.154 90.8333H189.759ZM195.237 97.3893V98.2473H190.232V97.3893H195.237ZM194.676 94.4413V95.2113H190.232V94.4413H194.676ZM190.232 95.9703H195.666V93.6713H189.198V99.3693H190.232V99.0283H195.237V99.3473H196.249V96.6193H190.232V95.9703ZM191.684 91.6473C191.794 91.8453 191.904 92.0763 192.003 92.2963H187.955V94.1553H188.934V93.0993H195.974V94.1553H197.008V92.2963H193.026C192.927 92.0323 192.762 91.7133 192.586 91.4603L191.684 91.6473ZM194.137 90.1073C194.236 89.8653 194.324 89.6343 194.39 89.3923L193.4 89.2163C193.191 89.9973 192.817 90.7783 192.322 91.2843C192.553 91.3943 192.982 91.6143 193.158 91.7463C193.389 91.4933 193.598 91.1853 193.796 90.8443H194.423C194.742 91.2403 195.072 91.7463 195.204 92.0543L196.051 91.6803C195.941 91.4493 195.721 91.1413 195.49 90.8443H197.261V90.1073H194.137ZM201.408 96.1463C201.034 96.2783 200.638 96.3993 200.264 96.5203V94.0343H201.309V93.0883H200.264V90.8993H201.485V89.9533H197.987V90.8993H199.285V93.0883H198.097V94.0343H199.285V96.8283C198.757 96.9933 198.273 97.1253 197.877 97.2353L198.119 98.2803C199.109 97.9613 200.385 97.5323 201.584 97.1143L201.408 96.1463ZM202.893 92.6373H204.334V93.8363H202.893V92.6373ZM202.893 90.6243H204.334V91.8123H202.893V90.6243ZM206.611 91.8123H205.203V90.6243H206.611V91.8123ZM206.611 93.8363H205.203V92.6373H206.611V93.8363ZM205.291 98.0713V96.7623H207.733V95.8383H205.291V94.7053H207.59V89.7553H201.958V94.7053H204.246V95.8383H201.859V96.7623H204.246V98.0713H201.056V99.0063H208.085V98.0713H205.291Z" fill="black"/>
<path d="M66.384 106.049V106.697H73.648V106.049H66.384ZM75.848 108.929V107.257H76.728V106.721H75.848V105.641H76.656V105.113H74.76C74.952 104.857 75.128 104.553 75.288 104.233H76.688V103.689H75.528C75.624 103.441 75.72 103.169 75.792 102.913L75.272 102.777C75.064 103.569 74.696 104.345 74.248 104.873C74.352 104.985 74.52 105.225 74.584 105.329C74.64 105.273 74.688 105.209 74.744 105.137V105.641H75.352V106.721H74.44V107.257H75.352V108.817C75.352 109.185 75.088 109.465 74.952 109.569C75.048 109.673 75.208 109.881 75.272 110.001C75.384 109.857 75.576 109.713 76.808 108.857C76.752 108.753 76.672 108.545 76.632 108.401L75.848 108.929ZM78.12 105.577L78.032 105.593H77.528C77.864 104.985 78.2 104.193 78.472 103.409L78.136 103.185L77.96 103.265H76.832V103.817H77.792C77.56 104.497 77.256 105.137 77.144 105.329C77.024 105.577 76.832 105.793 76.704 105.817C76.776 105.913 76.904 106.121 76.944 106.233C76.944 106.193 77 106.137 77.072 106.089H77.904C77.84 106.737 77.736 107.305 77.6 107.793C77.472 107.505 77.368 107.185 77.28 106.817L76.872 106.977C77.016 107.537 77.184 108.009 77.392 108.377C77.128 109.001 76.768 109.441 76.328 109.729C76.432 109.825 76.56 110.017 76.632 110.145C77.072 109.833 77.424 109.417 77.712 108.857C78.416 109.769 79.376 109.985 80.48 109.985H81.512C81.536 109.841 81.616 109.609 81.688 109.481C81.432 109.489 80.696 109.489 80.504 109.489C79.504 109.481 78.576 109.289 77.92 108.369C78.176 107.649 78.336 106.753 78.416 105.617L78.12 105.577ZM80.768 105.609H80.04V104.961H80.768V105.609ZM80.04 103.873H80.768V104.497H80.04V103.873ZM81.208 104.497V103.433H80.04V102.825H79.56V103.433H78.624V103.873H79.56V104.497H78.424V104.961H79.56V105.609H78.624V106.041H79.56V106.649H78.6V107.113H79.56V107.769H78.392V108.241H79.56V109.217H80.04V108.241H81.512V107.769H80.04V107.113H81.336V106.649H80.04V106.041H81.208V104.961H81.688V104.497H81.208ZM88.728 106.289C89.36 106.289 89.536 106.017 89.608 105.057C89.44 105.017 89.2 104.929 89.08 104.825C89.04 105.617 88.984 105.753 88.68 105.753H87.416C87.056 105.753 86.992 105.697 86.992 105.449V104.641C87.76 104.409 88.608 104.129 89.24 103.833L88.84 103.401C88.384 103.633 87.672 103.929 86.992 104.153V102.817H86.408V105.457C86.408 106.105 86.608 106.289 87.368 106.289H88.728ZM83.384 108.009V107.281H85.072V108.009H83.384ZM85.072 106.129V106.809H83.384V106.129H85.072ZM85.656 105.625H82.832V110.097H83.384V108.473H85.072V109.409C85.072 109.513 85.048 109.537 84.936 109.537C84.832 109.545 84.496 109.553 84.12 109.537C84.2 109.689 84.28 109.921 84.312 110.081C84.816 110.081 85.16 110.073 85.376 109.977C85.6 109.881 85.656 109.721 85.656 109.417V105.625ZM84.504 103.473C84.696 103.737 84.904 104.049 85.08 104.361L83.328 104.465C83.672 104.041 84.032 103.497 84.304 102.969L83.696 102.777C83.44 103.401 83 104.033 82.864 104.201C82.728 104.369 82.616 104.481 82.496 104.513C82.568 104.657 82.656 104.953 82.688 105.073C82.864 105.009 83.136 104.969 85.32 104.809C85.392 104.969 85.448 105.105 85.496 105.233L86.016 105.001C85.848 104.529 85.4 103.809 84.992 103.273L84.504 103.473ZM87.44 109.505C87.072 109.505 87 109.457 87 109.193V108.265C87.808 108.041 88.72 107.737 89.328 107.377L88.936 106.937C88.488 107.233 87.72 107.537 87 107.769V106.513H86.408V109.193C86.408 109.849 86.616 110.033 87.384 110.033H88.768C89.432 110.033 89.608 109.753 89.68 108.673C89.512 108.641 89.28 108.545 89.152 108.457C89.112 109.345 89.048 109.505 88.72 109.505H87.44ZM91.36 107.225C91.92 106.497 92.472 105.609 92.912 104.737L92.432 104.457C92.296 104.769 92.128 105.081 91.968 105.369L91.088 105.465C91.536 104.769 91.976 103.873 92.304 103.001L91.736 102.793C91.456 103.769 90.912 104.809 90.752 105.073C90.592 105.345 90.464 105.545 90.328 105.577C90.392 105.721 90.488 106.001 90.52 106.113C90.624 106.057 90.808 106.017 91.664 105.897C91.352 106.409 91.072 106.809 90.944 106.961C90.72 107.257 90.544 107.465 90.392 107.497C90.456 107.641 90.536 107.905 90.56 108.017C90.712 107.929 90.96 107.841 92.72 107.433C92.696 107.321 92.68 107.113 92.68 106.953L91.36 107.225ZM92.672 108.169C91.8 108.505 90.928 108.841 90.352 109.033L90.496 109.585C91.144 109.321 91.976 108.977 92.776 108.649L92.672 108.169ZM96.784 104.161V105.017H93.864V104.161H96.784ZM97.336 105.521V103.657H95.808C95.728 103.393 95.56 103.025 95.392 102.745L94.832 102.913C94.96 103.137 95.088 103.417 95.176 103.657H93.32V105.385C93.32 106.601 93.248 108.361 92.528 109.633C92.656 109.697 92.888 109.865 92.984 109.969C93.72 108.681 93.856 106.817 93.864 105.521H97.336ZM96.352 107.857V106.689H96.944V107.857H96.352ZM95.376 107.857V106.689H95.952V107.857H95.376ZM94.32 107.857V106.689H94.976V107.857H94.32ZM96.944 106.193V106.201H93.848V110.033H94.32V108.337H94.976V109.841H95.376V108.337H95.952V109.833H96.352V108.337H96.944V109.521C96.944 109.585 96.92 109.601 96.864 109.601H96.488C96.544 109.721 96.608 109.913 96.632 110.041C96.904 110.041 97.096 110.033 97.232 109.953C97.376 109.873 97.408 109.745 97.408 109.529V106.193H96.944ZM104.528 104.305H102.408V103.505H104.528V104.305ZM105.104 103.057H101.856V104.753H105.104V103.057ZM101.384 107.609L100.52 107.761V106.721H101.248V106.177H100.52V104.961H99.968V106.177H99.2C99.424 105.633 99.648 104.985 99.832 104.313H101.304V103.745H99.984C100.056 103.473 100.112 103.193 100.168 102.921L99.584 102.801C99.544 103.121 99.48 103.433 99.408 103.745H98.408V104.313H99.28C99.112 104.945 98.944 105.473 98.864 105.665C98.728 106.017 98.624 106.265 98.488 106.305C98.56 106.449 98.64 106.713 98.672 106.833C98.736 106.769 98.984 106.721 99.248 106.721H99.968V107.865C99.36 107.977 98.784 108.073 98.344 108.145L98.48 108.721C98.912 108.633 99.424 108.529 99.968 108.425V110.073H100.52V108.313C100.816 108.249 101.12 108.185 101.424 108.129L101.384 107.609ZM102.48 108.001H104.496V108.641C103.784 108.689 103.096 108.745 102.48 108.785V108.001ZM104.496 105.721V106.409H102.48V105.721H104.496ZM102.48 106.857H104.496V107.553H102.48V106.857ZM105.648 108.553L105.056 108.601V105.721H105.6V105.225H101.392V105.721H101.928V108.817L101.2 108.865L101.296 109.401C102.144 109.337 103.312 109.241 104.496 109.145V110.097H105.056V109.097L105.648 109.049V108.553ZM106.8 109.489H107.544V107.161H108.512C109.8 107.161 110.672 106.585 110.672 105.345C110.672 104.065 109.792 103.617 108.48 103.617H106.8V109.489ZM107.544 106.561V104.225H108.384C109.416 104.225 109.936 104.497 109.936 105.345C109.936 106.185 109.448 106.561 108.416 106.561H107.544ZM111.855 109.489H113.359C115.127 109.489 116.095 108.393 116.095 106.537C116.095 104.673 115.127 103.617 113.327 103.617H111.855V109.489ZM112.599 108.881V104.225H113.263C114.647 104.225 115.327 105.049 115.327 106.537C115.327 108.017 114.647 108.881 113.263 108.881H112.599ZM117.347 109.489H118.091V106.857H120.331V106.233H118.091V104.249H120.731V103.617H117.347V109.489ZM125.585 103.977C125.473 103.641 125.201 103.129 124.961 102.753L124.345 102.929C124.585 103.321 124.841 103.857 124.937 104.185L125.585 103.977ZM126.633 104.785C126.233 105.865 125.697 106.745 124.985 107.465C124.233 106.713 123.657 105.801 123.241 104.785H126.633ZM128.561 104.785V104.201H121.393V104.785H122.625C123.089 105.993 123.721 107.033 124.545 107.881C123.673 108.617 122.601 109.161 121.281 109.537C121.401 109.673 121.577 109.945 121.649 110.089C122.977 109.665 124.081 109.089 124.977 108.305C125.865 109.105 126.953 109.689 128.257 110.057C128.353 109.889 128.521 109.641 128.665 109.505C127.393 109.193 126.313 108.625 125.433 107.881C126.233 107.057 126.849 106.049 127.305 104.785H128.561ZM136.433 105.065V104.473H133.265V102.801H132.649V104.473H129.505V105.065H131.921C131.337 106.417 130.353 107.713 129.297 108.361C129.433 108.473 129.625 108.689 129.721 108.833C130.873 108.049 131.905 106.625 132.521 105.065H132.649V108.017H130.793V108.609H132.649V110.097H133.265V108.609H135.121V108.017H133.265V105.065H133.377C133.977 106.625 135.009 108.065 136.193 108.809C136.289 108.649 136.497 108.433 136.649 108.305C135.545 107.681 134.537 106.417 133.961 105.065H136.433ZM139.185 108.265C140.273 108.393 141.649 108.713 142.401 108.985L142.673 108.545C141.897 108.281 140.529 107.977 139.457 107.857L139.185 108.265ZM139.977 107.257C140.609 107.393 141.417 107.665 141.857 107.881L142.105 107.481C141.657 107.281 140.857 107.025 140.217 106.897L139.977 107.257ZM140.041 104.945H142.105C141.817 105.249 141.441 105.529 141.009 105.777C140.601 105.545 140.257 105.281 139.993 104.993L140.041 104.945ZM142.601 104.457L142.505 104.481H140.449C140.569 104.329 140.681 104.177 140.769 104.017L140.281 103.857C139.881 104.505 139.201 105.121 138.521 105.521C138.641 105.601 138.841 105.785 138.929 105.881C139.177 105.721 139.417 105.529 139.657 105.313C139.905 105.569 140.201 105.809 140.521 106.025C139.841 106.337 139.081 106.585 138.377 106.713C138.473 106.833 138.601 107.065 138.657 107.201C139.441 107.025 140.273 106.729 141.025 106.321C141.689 106.681 142.441 106.953 143.193 107.113C143.265 106.977 143.417 106.769 143.521 106.665C142.825 106.537 142.121 106.321 141.513 106.033C142.097 105.649 142.601 105.193 142.937 104.665L142.601 104.457ZM138.233 109.241V103.689H143.681V109.241H138.233ZM137.657 103.145V110.105H138.233V109.769H143.681V110.105H144.265V103.145H137.657ZM147.033 105.457H152.161V104.857H149.921V102.809H149.297V104.857H147.033V103.009H146.425V105.657C146.425 107.049 146.313 108.521 145.305 109.649C145.441 109.753 145.665 109.969 145.761 110.113C146.497 109.305 146.809 108.337 146.937 107.337H150.297V110.097H150.929V106.729H147.001C147.025 106.369 147.033 106.009 147.033 105.649V105.457ZM155.537 103.705C156.033 103.601 156.505 103.473 156.873 103.337L156.473 102.873C155.769 103.153 154.521 103.393 153.465 103.537C153.537 103.673 153.601 103.865 153.633 104.009C154.057 103.953 154.505 103.889 154.953 103.817V105.145H153.393V105.697H154.801C154.441 106.697 153.801 107.793 153.193 108.401C153.305 108.545 153.457 108.785 153.529 108.945C154.041 108.393 154.561 107.489 154.953 106.561V110.081H155.537V106.585C155.881 107.033 156.329 107.633 156.513 107.937L156.873 107.449C156.673 107.201 155.841 106.225 155.537 105.905V105.697H156.929V105.145H155.537V103.705ZM157.785 108.513V104.105H159.569V108.513H157.785ZM157.201 103.537V109.745H157.785V109.089H159.569V109.689H160.161V103.537H157.201ZM164.185 106.281L163.145 106.537V104.913H164.185V104.353H163.145V102.817H162.569V104.353H161.393V104.913H162.569V106.673C162.089 106.785 161.649 106.881 161.297 106.961L161.465 107.545C161.793 107.457 162.169 107.361 162.569 107.257V109.369C162.569 109.481 162.521 109.521 162.409 109.521C162.313 109.521 161.969 109.529 161.585 109.513C161.665 109.673 161.753 109.905 161.769 110.065C162.321 110.065 162.649 110.049 162.857 109.953C163.065 109.865 163.145 109.705 163.145 109.361V107.113C163.513 107.017 163.889 106.913 164.257 106.817L164.185 106.281ZM164.329 103.545V104.097H167.593V106.073H164.521V106.657H167.593V108.937H164.273V109.497H167.593V110.081H168.169V103.545H164.329ZM171.641 106.281L170.841 106.537V104.953H171.689V104.401H170.841V102.801H170.289V104.401H169.321V104.953H170.289V106.705C169.881 106.833 169.513 106.945 169.217 107.017L169.369 107.593C169.649 107.505 169.961 107.401 170.289 107.297V109.353C170.289 109.473 170.249 109.505 170.145 109.505C170.057 109.505 169.745 109.505 169.401 109.497C169.481 109.665 169.553 109.905 169.569 110.049C170.081 110.057 170.385 110.033 170.569 109.937C170.769 109.841 170.841 109.689 170.841 109.361V107.113L171.713 106.825L171.641 106.281ZM173.929 106.409V107.505H172.729V106.409H173.929ZM175.689 107.505H174.465V106.409H175.689V107.505ZM174.465 109.153V108.025H175.689V109.153H174.465ZM172.729 108.025H173.929V109.153H172.729V108.025ZM172.185 110.097H172.729V109.681H175.689V110.057H176.265V105.873H172.185V110.097ZM175.505 103.937V102.801H174.929V103.937H173.513V102.801H172.937V103.937H171.833V104.481H172.937V105.521H173.513V104.481H174.929V105.521H175.505V104.481H176.545V103.937H175.505ZM179.145 109.937L179.689 109.473C179.193 108.889 178.473 108.161 177.897 107.697L177.377 108.153C177.945 108.617 178.633 109.305 179.145 109.937ZM189.809 106.457H192.169V105.889H189.809V104.185H189.217V105.889H187.049V106.457H189.217V109.201H186.529V109.769H192.553V109.201H189.809V106.457ZM190.425 107.321C190.849 107.697 191.329 108.217 191.553 108.577L191.993 108.225C191.769 107.889 191.289 107.401 190.849 107.033L190.425 107.321ZM192.577 103.177H185.905V105.745C185.905 106.953 185.857 108.609 185.249 109.777C185.385 109.841 185.633 110.009 185.729 110.113C186.385 108.865 186.481 107.025 186.481 105.737V103.753H192.577V103.177ZM194.321 107.233C194.873 106.513 195.393 105.665 195.849 104.809L195.377 104.545C195.249 104.833 195.097 105.129 194.945 105.401L194.065 105.481C194.529 104.793 194.969 103.905 195.321 103.057L194.793 102.825C194.481 103.785 193.921 104.817 193.753 105.089C193.577 105.353 193.441 105.553 193.305 105.585C193.377 105.721 193.449 105.993 193.481 106.113C193.601 106.057 193.769 106.017 194.641 105.905C194.329 106.425 194.049 106.833 193.913 106.993C193.689 107.281 193.513 107.481 193.361 107.505C193.417 107.649 193.505 107.913 193.537 108.017C193.673 107.937 193.913 107.849 195.513 107.457C195.497 107.329 195.481 107.113 195.489 106.969L194.321 107.233ZM193.481 109.609C194.145 109.353 194.993 109.025 195.817 108.705L195.721 108.209C194.833 108.529 193.937 108.857 193.345 109.049L193.481 109.609ZM196.737 104.617C196.537 105.457 196.081 106.497 195.489 107.153C195.585 107.249 195.729 107.441 195.801 107.545C195.985 107.353 196.153 107.121 196.313 106.873V110.105H196.825V105.921C197.009 105.529 197.145 105.129 197.265 104.745L196.737 104.617ZM199.777 107.721H197.969V106.745H199.777V107.721ZM197.969 109.241V108.193H199.777V109.241H197.969ZM197.337 105.457H198.513C198.465 105.721 198.401 106.009 198.337 106.257H197.449V110.097H197.969V109.729H199.777V110.057H200.313V106.257H198.873C198.945 106.009 199.025 105.729 199.097 105.457H200.425V104.969H197.337V105.457ZM198.601 103.569C198.497 103.337 198.321 103.017 198.169 102.769L197.673 102.945C197.785 103.129 197.897 103.369 197.993 103.569H195.913V104.857H196.465V104.073H199.969V104.745H200.537V103.569H198.601ZM201.761 109.489H202.505V107.161H203.473C204.761 107.161 205.633 106.585 205.633 105.345C205.633 104.065 204.753 103.617 203.441 103.617H201.761V109.489ZM202.505 106.561V104.225H203.345C204.377 104.225 204.897 104.497 204.897 105.345C204.897 106.185 204.409 106.561 203.377 106.561H202.505ZM206.816 109.489H208.32C210.088 109.489 211.056 108.393 211.056 106.537C211.056 104.673 210.088 103.617 208.288 103.617H206.816V109.489ZM207.56 108.881V104.225H208.224C209.608 104.225 210.288 105.049 210.288 106.537C210.288 108.017 209.608 108.881 208.224 108.881H207.56ZM212.308 109.489H213.052V106.857H215.292V106.233H213.052V104.249H215.692V103.617H212.308V109.489ZM216.385 109.593C216.673 109.593 216.913 109.369 216.913 109.041C216.913 108.705 216.673 108.473 216.385 108.473C216.097 108.473 215.857 108.705 215.857 109.041C215.857 109.369 216.097 109.593 216.385 109.593ZM218.612 109.593C218.9 109.593 219.14 109.369 219.14 109.041C219.14 108.705 218.9 108.473 218.612 108.473C218.324 108.473 218.084 108.705 218.084 109.041C218.084 109.369 218.324 109.593 218.612 109.593ZM220.839 109.593C221.127 109.593 221.367 109.369 221.367 109.041C221.367 108.705 221.127 108.473 220.839 108.473C220.551 108.473 220.311 108.705 220.311 109.041C220.311 109.369 220.551 109.593 220.839 109.593Z" fill="#8A8A8D"/>
<path d="M116.232 119.617C116.848 119.369 117.184 118.865 117.184 118.289C117.184 117.385 116.376 116.881 115.416 116.881C114.304 116.881 113.496 117.553 113.496 118.745H114.168C114.168 117.937 114.616 117.505 115.392 117.505C116.136 117.505 116.504 117.897 116.504 118.345C116.504 118.857 116.048 119.385 115.096 119.385H114.936V119.985H115.264C116.152 119.985 116.608 120.489 116.608 121.001C116.608 121.505 116.176 121.961 115.4 121.961C114.736 121.961 114.096 121.633 114.096 120.817V120.745H113.4C113.4 121.985 114.392 122.577 115.368 122.577C116.344 122.577 117.296 121.985 117.296 120.969C117.296 120.321 116.912 119.809 116.232 119.617ZM119.959 116.889C118.679 116.889 118.095 117.993 118.095 119.729C118.095 121.465 118.679 122.577 119.959 122.577C121.239 122.577 121.823 121.465 121.823 119.729C121.823 117.993 121.239 116.889 119.959 116.889ZM119.959 121.961C119.143 121.961 118.775 121.089 118.775 119.729C118.775 118.369 119.143 117.505 119.959 117.505C120.775 117.505 121.143 118.369 121.143 119.729C121.143 121.089 120.775 121.961 119.959 121.961ZM125.403 119.633C125.987 119.385 126.307 118.953 126.307 118.337C126.307 117.369 125.507 116.889 124.539 116.889C123.571 116.889 122.771 117.369 122.771 118.337C122.771 118.953 123.091 119.385 123.675 119.633C123.043 119.857 122.627 120.329 122.627 121.033C122.627 122.009 123.443 122.577 124.539 122.577C125.635 122.577 126.451 122.009 126.451 121.033C126.451 120.329 126.035 119.857 125.403 119.633ZM123.435 118.393C123.435 117.961 123.683 117.505 124.539 117.505C125.395 117.505 125.643 117.961 125.643 118.393C125.643 118.921 125.283 119.329 124.539 119.329C123.795 119.329 123.435 118.921 123.435 118.393ZM124.539 121.961C123.683 121.961 123.315 121.521 123.315 120.969C123.315 120.433 123.683 119.945 124.539 119.945C125.395 119.945 125.763 120.433 125.763 120.969C125.763 121.521 125.395 121.961 124.539 121.961Z" fill="#8A8A8D"/>
<path d="M70.2134 115.917C70.3005 115.635 70.6995 115.635 70.7866 115.917L71.4443 118.045H73.6131C73.9001 118.045 74.0233 118.409 73.7952 118.583L72.0279 119.934L72.695 122.093C72.7813 122.372 72.4584 122.597 72.2263 122.419L70.5 121.101L68.7737 122.419C68.5416 122.597 68.2187 122.372 68.305 122.093L68.9721 119.934L67.2048 118.583C66.9767 118.409 67.0999 118.045 67.3869 118.045H69.5557L70.2134 115.917Z" fill="#8E8E91"/>
<path d="M79.7134 115.917C79.8005 115.635 80.1995 115.635 80.2866 115.917L80.9443 118.045H83.1131C83.4001 118.045 83.5233 118.409 83.2952 118.583L81.5279 119.934L82.195 122.093C82.2813 122.372 81.9584 122.597 81.7263 122.419L80 121.101L78.2737 122.419C78.0416 122.597 77.7187 122.372 77.805 122.093L78.4721 119.934L76.7048 118.583C76.4767 118.409 76.5999 118.045 76.8869 118.045H79.0557L79.7134 115.917Z" fill="#8E8E91"/>
<path d="M88.7134 115.917C88.8005 115.635 89.1995 115.635 89.2866 115.917L89.9443 118.045H92.1131C92.4001 118.045 92.5233 118.409 92.2952 118.583L90.5279 119.934L91.195 122.093C91.2813 122.372 90.9584 122.597 90.7263 122.419L89 121.101L87.2737 122.419C87.0416 122.597 86.7187 122.372 86.805 122.093L87.4721 119.934L85.7048 118.583C85.4767 118.409 85.5999 118.045 85.8869 118.045H88.0557L88.7134 115.917Z" fill="#8E8E91"/>
<path d="M97.7134 115.917C97.8005 115.635 98.1995 115.635 98.2866 115.917L98.9443 118.045H101.113C101.4 118.045 101.523 118.409 101.295 118.583L99.5279 119.934L100.195 122.093C100.281 122.372 99.9584 122.597 99.7263 122.419L98 121.101L96.2737 122.419C96.0416 122.597 95.7187 122.372 95.805 122.093L96.4721 119.934L94.7048 118.583C94.4767 118.409 94.5999 118.045 94.8869 118.045H97.0557L97.7134 115.917Z" fill="#8E8E91"/>
<path d="M107.705 118.119L107.76 118.295H107.944H110.113C110.13 118.295 110.138 118.3 110.143 118.303C110.15 118.308 110.156 118.317 110.16 118.329C110.165 118.341 110.164 118.352 110.162 118.36C110.161 118.366 110.157 118.375 110.143 118.385L108.376 119.735L108.238 119.841L108.289 120.007L108.956 122.166C108.961 122.183 108.959 122.192 108.957 122.198C108.954 122.206 108.948 122.215 108.937 122.222C108.926 122.23 108.916 122.232 108.907 122.232C108.901 122.232 108.892 122.231 108.878 122.221L107.152 120.902L107 120.786L106.848 120.902L105.122 122.221C105.108 122.231 105.099 122.232 105.093 122.232C105.084 122.232 105.074 122.23 105.063 122.222C105.052 122.215 105.046 122.206 105.043 122.198C105.041 122.192 105.039 122.183 105.044 122.166L105.711 120.007L105.762 119.841L105.624 119.735L103.857 118.385C103.843 118.375 103.839 118.366 103.838 118.36C103.836 118.352 103.835 118.341 103.84 118.329C103.844 118.317 103.85 118.308 103.857 118.303C103.862 118.3 103.87 118.295 103.887 118.295H106.056H106.24L106.295 118.119L106.952 115.991C106.957 115.974 106.964 115.967 106.97 115.964C106.976 115.959 106.987 115.955 107 115.955C107.013 115.955 107.024 115.959 107.03 115.964C107.036 115.967 107.043 115.974 107.048 115.991L107.705 118.119Z" stroke="#8E8E91" stroke-width="0.5"/>
<path fill-rule="evenodd" clip-rule="evenodd" d="M107 115.705C106.878 115.705 106.757 115.776 106.713 115.917L106.056 118.045H103.887C103.6 118.045 103.477 118.409 103.705 118.583L105.472 119.933L104.805 122.092C104.719 122.371 105.042 122.596 105.274 122.419L107 121.1V115.705Z" fill="#8E8E91"/>
<g clip-path="url(#clip1)" filter="url(#filter0_i)">
<g clip-path="url(#clip2)">
<rect width="38" height="38" transform="translate(23 86)" fill="url(#paint0_linear)"/>
<path d="M41.9767 107.804H34.875V100.682L43.0179 100.679V100.718C42.421 100.861 41.9774 101.399 41.9774 102.042L41.9767 107.804Z" fill="white"/>
<path d="M34.875 99.916H49.125V92.791H34.875V99.916Z" fill="white"/>
<path d="M61 115.618V124H23V115.618C29.2305 114.88 35.5709 114.5 42 114.5C48.4291 114.5 54.7695 114.88 61 115.618Z" fill="white"/>
<path d="M44.9498 120.391C45.1104 120.23 45.1085 119.97 44.9478 119.809L42.0202 116.875L40.7906 118.107C40.6535 118.244 40.4437 118.264 40.2855 118.167L40.2773 118.175L43.7193 121.625L44.9498 120.391Z" fill="black"/>
<path d="M41.5504 120.393L40.3207 121.625L37.1016 118.399L38.6216 116.875L41.5504 119.811C41.7108 119.971 41.7108 120.232 41.5504 120.393Z" fill="black"/>
<path d="M46.9381 118.399L45.4187 119.922L43.6752 118.175L43.6834 118.167C43.8416 118.265 44.0515 118.245 44.1885 118.107L45.4181 116.875L46.9381 118.399Z" fill="black"/>
</g>
</g>
<rect x="23.2" y="86.2" width="37.6" height="37.6" rx="8.47" stroke="#3C4798" stroke-width="0.4"/>
</g>
<defs>
<filter id="filter0_i" x="23" y="86" width="38" height="38" filterUnits="userSpaceOnUse" color-interpolation-filters="sRGB">
<feFlood flood-opacity="0" result="BackgroundImageFix"/>
<feBlend mode="normal" in="SourceGraphic" in2="BackgroundImageFix" result="shape"/>
<feColorMatrix in="SourceAlpha" type="matrix" values="0 0 0 0 0 0 0 0 0 0 0 0 0 0 0 0 0 0 127 0" result="hardAlpha"/>
<feOffset/>
<feGaussianBlur stdDeviation="0.0742188"/>
<feComposite in2="hardAlpha" operator="arithmetic" k2="-1" k3="1"/>
<feColorMatrix type="matrix" values="0 0 0 0 0 0 0 0 0 0 0 0 0 0 0 0 0 0 0.24 0"/>
<feBlend mode="darken" in2="shape" result="effect1_innerShadow"/>
</filter>
<linearGradient id="paint0_linear" x1="19" y1="0" x2="19" y2="38" gradientUnits="userSpaceOnUse">
<stop stop-color="#414C9A"/>
<stop offset="1" stop-color="#364295"/>
</linearGradient>
<clipPath id="clip0">
<rect width="250" height="288" fill="white"/>
</clipPath>
<clipPath id="clip1">
<rect width="38" height="38" fill="white" transform="translate(23 86)"/>
</clipPath>
<clipPath id="clip2">
<rect x="23" y="86" width="38" height="38" rx="8.6699" fill="white"/>
</clipPath>
</defs>
</svg>
