<svg width="48" height="25" viewBox="0 0 48 25" fill="none" xmlns="http://www.w3.org/2000/svg">
<path d="M11.3137 4.53553L3.88909 11.9602C1.7412 14.108 1.7412 17.5904 3.88909 19.7383V19.7383C6.03697 21.8862 9.51938 21.8862 11.6673 19.7383L19.799 11.6066C21.3611 10.0445 21.3611 7.51185 19.799 5.94975V5.94975C18.2369 4.38765 15.7042 4.38765 14.1421 5.94975L6.01041 14.0815C5.0341 15.0578 5.0341 16.6407 6.01041 17.617V17.617C6.98672 18.5933 8.56963 18.5933 9.54594 17.617L16.9706 10.1924" stroke="#5C6182" stroke-linecap="round" stroke-linejoin="round"/>
<path d="M35.3137 4.53553L27.8891 11.9602C25.7412 14.108 25.7412 17.5904 27.8891 19.7383V19.7383C30.037 21.8862 33.5194 21.8862 35.6673 19.7383L43.799 11.6066C45.3611 10.0445 45.3611 7.51185 43.799 5.94975V5.94975C42.2369 4.38765 39.7042 4.38765 38.1421 5.94975L30.0104 14.0815C29.0341 15.0578 29.0341 16.6407 30.0104 17.617V17.617C30.9867 18.5933 32.5696 18.5933 33.5459 17.617L40.9706 10.1924" stroke="#4864FF" stroke-linecap="round" stroke-linejoin="round"/>
</svg>
