<svg width="43" height="45" viewBox="0 0 43 45" fill="none" xmlns="http://www.w3.org/2000/svg">
<g filter="url(#filter0_d)">
<circle cx="21.5" cy="21.5" r="17.5" fill="white"/>
</g>
<mask id="mask0" mask-type="alpha" maskUnits="userSpaceOnUse" x="11" y="17" width="10" height="10">
<path fill-rule="evenodd" clip-rule="evenodd" d="M11 17.2778H20.6923V26.7272H11V17.2778Z" fill="white"/>
</mask>
<g mask="url(#mask0)">
<path fill-rule="evenodd" clip-rule="evenodd" d="M20.4388 23.1284C20.7783 23.4487 20.7765 23.9664 20.4352 24.2851L17.8164 26.7273L11 20.2967L14.2373 17.2778L20.4388 23.1284Z" fill="#222222"/>
</g>
<path fill-rule="evenodd" clip-rule="evenodd" d="M28.6695 17.3164L31.8881 20.3531L28.6524 23.3709L24.9605 19.8903L24.9783 19.8739C25.3137 20.0686 25.7594 20.0303 26.051 19.7581L28.6695 17.3164Z" fill="#222222"/>
<path fill-rule="evenodd" clip-rule="evenodd" d="M21.4541 17.2964L27.6529 23.1444C27.9934 23.4656 27.996 23.9811 27.6538 24.3019L25.0332 26.7461L17.7451 19.8703L17.7625 19.8542C18.0979 20.0486 18.5436 20.01 18.8353 19.7381L21.4541 17.2964Z" fill="#222222"/>
<defs>
<filter id="filter0_d" x="0" y="2" width="43" height="43" filterUnits="userSpaceOnUse" color-interpolation-filters="sRGB">
<feFlood flood-opacity="0" result="BackgroundImageFix"/>
<feColorMatrix in="SourceAlpha" type="matrix" values="0 0 0 0 0 0 0 0 0 0 0 0 0 0 0 0 0 0 127 0"/>
<feOffset dy="2"/>
<feGaussianBlur stdDeviation="2"/>
<feColorMatrix type="matrix" values="0 0 0 0 0.926178 0 0 0 0 0.926178 0 0 0 0 0.926178 0 0 0 0.5 0"/>
<feBlend mode="normal" in2="BackgroundImageFix" result="effect1_dropShadow"/>
<feBlend mode="normal" in="SourceGraphic" in2="effect1_dropShadow" result="shape"/>
</filter>
</defs>
</svg>
