<svg width="16" height="16" viewBox="0 0 16 16" fill="none" xmlns="http://www.w3.org/2000/svg">
<path fill-rule="evenodd" clip-rule="evenodd" d="M7.11774 1.52347C7.64372 1.14094 8.35628 1.14094 8.88226 1.52347L13.3823 4.7962C13.7704 5.07846 14 5.52939 14 6.0093V9.99085C14 10.4708 13.7704 10.9217 13.3823 11.204L8.88226 14.4767C8.35628 14.8592 7.64372 14.8592 7.11774 14.4767L2.61774 11.204C2.22963 10.9217 2 10.4708 2 9.99085V6.0093C2 5.52939 2.22963 5.07846 2.61774 4.7962L7.11774 1.52347ZM8.29409 2.3322C8.11876 2.20469 7.88124 2.20469 7.70591 2.3322L3.20591 5.60493C3.07654 5.69902 3 5.84933 3 6.0093V9.99085C3 10.1508 3.07654 10.3011 3.20591 10.3952L7.70591 13.6679C7.88124 13.7955 8.11876 13.7955 8.29409 13.6679L12.7941 10.3952C12.9235 10.3011 13 10.1508 13 9.99085V6.0093C13 5.84933 12.9235 5.69902 12.7941 5.60493L8.29409 2.3322Z" fill="#5C6182"/>
</svg>
