<svg width="48" height="24" viewBox="0 0 48 24" fill="none" xmlns="http://www.w3.org/2000/svg">
<path d="M15 3H3V15H5V5H15V3Z" fill="#9CADC2"/>
<path d="M6.5 6.5H19.5V19.5H6.5V6.5Z" fill="url(#paint0_linear)" stroke="#6A52FC"/>
<path d="M14.5 9.5H10.5V12.5M14.5 15.5H10.5V12.5M10.5 12.5H14.5" stroke="white" stroke-linecap="round" stroke-linejoin="round"/>
<g opacity="0.4">
<path d="M39 3H27V15H29V5H39V3Z" fill="#9CADC2"/>
<path d="M30.5 6.5H43.5V19.5H30.5V6.5Z" fill="url(#paint1_linear)" stroke="#6A52FC"/>
<path d="M38.5 9.5H34.5V12.5M38.5 15.5H34.5V12.5M34.5 12.5H38.5" stroke="white" stroke-linecap="round" stroke-linejoin="round"/>
</g>
<defs>
<linearGradient id="paint0_linear" x1="14.4" y1="6.67858" x2="14.4" y2="20.5744" gradientUnits="userSpaceOnUse">
<stop stop-color="#8CA5FF"/>
<stop offset="1" stop-color="#7B72FB"/>
</linearGradient>
<linearGradient id="paint1_linear" x1="38.4" y1="6.67858" x2="38.4" y2="20.5744" gradientUnits="userSpaceOnUse">
<stop stop-color="#8CA5FF"/>
<stop offset="1" stop-color="#7B72FB"/>
</linearGradient>
</defs>
</svg>
