<svg width="32" height="16" viewBox="0 0 32 16" fill="none" xmlns="http://www.w3.org/2000/svg">
<g opacity="0.4">
<path d="M16.6245 3.41481C16.2567 3.41481 16 3.6707 16 4.03935V9.76181C16 11.4235 17.4122 12.8358 19.0739 12.8358C20.2455 12.8358 21.2946 12.1456 21.8472 11.1612C22.4006 12.1448 23.3906 12.8358 24.6221 12.8358C26.3454 12.8358 27.6952 11.4235 27.6952 9.76181C27.6952 8.03772 26.3454 6.6135 24.6213 6.6135C23.4497 6.6135 22.4006 7.30362 21.8472 8.28801C21.3538 7.30362 20.3038 6.6135 19.0739 6.6135C18.3958 6.6135 17.7177 6.86939 17.2243 7.23804V4.03935C17.2243 3.72988 16.934 3.41481 16.6245 3.41481V3.41481ZM27.5449 6.58791C27.464 6.60529 27.3876 6.63963 27.321 6.68867C27.0731 6.87259 27.0115 7.29082 27.1954 7.53792L28.8195 9.68744L27.1954 11.8602C27.0115 12.1072 27.0739 12.5255 27.3202 12.7102C27.5673 12.8941 28.0111 12.8318 28.195 12.5847L29.5449 10.7358L30.8939 12.5855C31.0778 12.8318 31.5216 12.8941 31.7687 12.7102C32.015 12.5263 32.0774 12.1072 31.8935 11.8602L30.2941 9.68584L31.8935 7.53712C32.0774 7.29002 32.015 6.87179 31.7687 6.68707C31.5216 6.50314 31.0778 6.56552 30.8939 6.81262L29.5441 8.63667L28.195 6.81262C28.0575 6.62869 27.7792 6.53753 27.5449 6.58791ZM19.0747 7.91377C20.0583 7.91377 20.9236 8.77901 20.9236 9.76261C20.986 10.7462 20.1207 11.6123 19.0747 11.6123C18.028 11.6123 17.2251 10.747 17.2251 9.76261C17.2251 8.71664 18.0903 7.91377 19.0747 7.91377V7.91377ZM24.6221 7.91377C25.6688 7.91377 26.4717 8.77901 26.4717 9.76261C26.4717 10.7462 25.6065 11.6123 24.6221 11.6123C23.5761 11.6123 22.7732 10.747 22.7732 9.76261C22.7732 8.71664 23.6385 7.91377 24.6221 7.91377V7.91377Z" fill="#212648"/>
</g>
<path d="M0.624544 3.41481C0.256695 3.41481 0 3.6707 0 4.03935V9.76181C0 11.4235 1.41222 12.8358 3.07394 12.8358C4.24546 12.8358 5.29463 12.1456 5.8472 11.1612C6.40058 12.1448 7.39057 12.8358 8.62207 12.8358C10.3454 12.8358 11.6952 11.4235 11.6952 9.76181C11.6952 8.03772 10.3454 6.6135 8.62127 6.6135C7.44975 6.6135 6.40058 7.30362 5.8472 8.28801C5.35381 7.30362 4.30384 6.6135 3.07394 6.6135C2.39582 6.6135 1.7177 6.86939 1.2243 7.23804V4.03935C1.2243 3.72988 0.934017 3.41481 0.624544 3.41481V3.41481ZM11.5449 6.58791C11.464 6.60529 11.3876 6.63963 11.321 6.68867C11.0731 6.87259 11.0115 7.29082 11.1954 7.53792L12.8195 9.68744L11.1954 11.8602C11.0115 12.1072 11.0739 12.5255 11.3202 12.7102C11.5673 12.8941 12.0111 12.8318 12.195 12.5847L13.5449 10.7358L14.8939 12.5855C15.0778 12.8318 15.5216 12.8941 15.7687 12.7102C16.015 12.5263 16.0774 12.1072 15.8935 11.8602L14.2941 9.68584L15.8935 7.53712C16.0774 7.29002 16.015 6.87179 15.7687 6.68707C15.5216 6.50314 15.0778 6.56552 14.8939 6.81262L13.5441 8.63667L12.195 6.81262C12.0575 6.62869 11.7792 6.53753 11.5449 6.58791ZM3.07474 7.91377C4.05834 7.91377 4.92358 8.77901 4.92358 9.76261C4.98596 10.7462 4.12071 11.6123 3.07474 11.6123C2.02797 11.6123 1.2251 10.747 1.2251 9.76261C1.2251 8.71664 2.09034 7.91377 3.07474 7.91377V7.91377ZM8.62207 7.91377C9.66884 7.91377 10.4717 8.77901 10.4717 9.76261C10.4717 10.7462 9.60646 11.6123 8.62207 11.6123C7.5761 11.6123 6.77322 10.747 6.77322 9.76261C6.77322 8.71664 7.63847 7.91377 8.62207 7.91377V7.91377Z" fill="#212648"/>
</svg>
