<svg width="48" height="24" viewBox="0 0 48 24" fill="none" xmlns="http://www.w3.org/2000/svg">
<path d="M7.5 3.5H4.5C3.94772 3.5 3.5 3.94772 3.5 4.5V19.5C3.5 20.0523 3.94772 20.5 4.5 20.5H7.5M7.5 3.5V8.5C7.5 9.05228 7.94772 9.5 8.5 9.5H14.5C15.0523 9.5 15.5 9.05228 15.5 8.5V3.5M7.5 3.5H15.5M15.5 3.5H16.0858C16.351 3.5 16.6054 3.60536 16.7929 3.79289L19.2071 6.20711C19.3946 6.39464 19.5 6.64804 19.5 6.91326C19.5 10.7168 19.5 17.0659 19.5 19.5044C19.5 20.0567 19.0523 20.5 18.5 20.5H15.5M7.5 20.5V13.5C7.5 12.9477 7.94772 12.5 8.5 12.5H14.5C15.0523 12.5 15.5 12.9477 15.5 13.5V20.5M7.5 20.5H15.5" stroke="#212648"/>
<path d="M10.5 6.5H12.5" stroke="#212648" stroke-linecap="round" stroke-linejoin="round"/>
<path opacity="0.4" d="M31.5 3.5H28.5C27.9477 3.5 27.5 3.94772 27.5 4.5V19.5C27.5 20.0523 27.9477 20.5 28.5 20.5H31.5M31.5 3.5V8.5C31.5 9.05228 31.9477 9.5 32.5 9.5H38.5C39.0523 9.5 39.5 9.05228 39.5 8.5V3.5M31.5 3.5H39.5M39.5 3.5H40.0858C40.351 3.5 40.6054 3.60536 40.7929 3.79289L43.2071 6.20711C43.3946 6.39464 43.5 6.64804 43.5 6.91326C43.5 10.7168 43.5 17.0659 43.5 19.5044C43.5 20.0567 43.0523 20.5 42.5 20.5H39.5M31.5 20.5V13.5C31.5 12.9477 31.9477 12.5 32.5 12.5H38.5C39.0523 12.5 39.5 12.9477 39.5 13.5V20.5M31.5 20.5H39.5" stroke="#212648"/>
<path opacity="0.4" d="M34.5 6.5H36.5" stroke="#212648" stroke-linecap="round" stroke-linejoin="round"/>
</svg>
