<svg width="48" height="24" viewBox="0 0 48 24" fill="none" xmlns="http://www.w3.org/2000/svg">
<path d="M10.5 16.5L10.5 19.5C10.5 20.0523 10.9477 20.5 11.5 20.5L16 20.5L18.5 20.5C19.0523 20.5 19.5 20.0523 19.5 19.5L19.5 4.5C19.5 3.94772 19.0523 3.5 18.5 3.5L12 3.5L11.5 3.5C10.9477 3.5 10.5 3.94772 10.5 4.5L10.5 7.5" stroke="#212648" stroke-linecap="round"/>
<path d="M5 12L15.5 12M15.5 12L12.5 15M15.5 12L12.5 9" stroke="#212648" stroke-linecap="round" stroke-linejoin="round"/>
<g opacity="0.4">
<path d="M34.5 16.5L34.5 19.5C34.5 20.0523 34.9477 20.5 35.5 20.5L40 20.5L42.5 20.5C43.0523 20.5 43.5 20.0523 43.5 19.5L43.5 4.5C43.5 3.94772 43.0523 3.5 42.5 3.5L36 3.5L35.5 3.5C34.9477 3.5 34.5 3.94772 34.5 4.5L34.5 7.5" stroke="#212648" stroke-linecap="round"/>
<path d="M29 12L39.5 12M39.5 12L36.5 15M39.5 12L36.5 9" stroke="#212648" stroke-linecap="round" stroke-linejoin="round"/>
</g>
</svg>
