<svg width="32" height="16" viewBox="0 0 32 16" fill="none" xmlns="http://www.w3.org/2000/svg">
<path d="M11.5414 6.3667C11.0668 6.3667 10.6833 6.7404 10.6833 7.20003C10.6833 7.25993 10.6901 7.31722 10.7035 7.37321C10.7531 7.37061 10.8027 7.3667 10.855 7.3667C11.4422 7.3667 11.9476 7.50993 12.2077 7.71826C12.3257 7.57633 12.3994 7.39795 12.3994 7.20003C12.3994 6.7391 12.016 6.3667 11.5414 6.3667Z" fill="#212648"/>
<path d="M5.4358 1.23828C5.21525 1.4211 5.07635 1.69354 5.07635 2V3.66667C5.07635 4.03125 4.76531 4.33333 4.38991 4.33333H2.67382C2.40875 4.33333 2.18341 4.47653 2.07316 4.68971M5.4358 1.23828C5.61537 1.08943 5.84907 1 6.106 1H7.6183C7.83817 1 8.07816 1.09635 8.24977 1.23828C8.42138 1.38021 8.50852 1.55729 8.50852 1.66667C8.50852 1.84635 8.656 1.99479 8.84101 2C9.85055 2.02995 12.2155 2.26172 12.2356 2.26302C12.6875 2.33464 12.9878 2.49219 13.2077 2.71484C13.4289 2.9375 13.5763 3.24089 13.6608 3.6276C13.941 4.91797 14 6.37109 14 8.66667C14 10.2812 13.9142 11.9258 13.512 13.1146C13.3122 13.7096 13.036 14.1836 12.6754 14.5013C12.3161 14.8203 11.875 15 11.2543 15H9.53817C8.77666 15 8.1653 14.4063 8.1653 13.6667V13C8.1653 12.2604 8.77666 11.6667 9.53817 11.6667H10.2246V12.3333H9.88139C9.26065 12.3333 8.76325 12.8867 8.86514 13.4987C8.94961 14.0026 9.42019 14.3333 9.91893 14.3333H10.911C11.8549 14.3333 12.6271 13.5833 12.6271 12.6667V11.6667C12.6271 10.5664 11.7007 9.66667 10.5678 9.66667H9.53817C8.96168 9.66667 8.42003 9.45703 8.16396 9.0026V9.0013C8.0862 8.86458 7.79527 8.20443 7.79527 8.20443C7.7336 8.0625 7.57942 7.98047 7.42256 8.00521C7.2657 8.02995 7.14772 8.15625 7.13565 8.3112L6.9989 10.2852C6.93589 10.6654 6.5672 10.9115 6.1784 10.8307L3.75844 10.2969L3.75442 10.2956C3.07335 10.1536 2.63897 9.59766 2.40837 8.87891V8.8776C2.14425 8.05859 1.98739 6.33594 2.0008 4.98438V4.98307C2.00197 4.87685 2.02784 4.77737 2.07316 4.68971M5.4358 1.23828L2.07316 4.68971" stroke="#212648"/>
<g opacity="0.4">
<path d="M27.5414 6.3667C27.0668 6.3667 26.6833 6.7404 26.6833 7.20003C26.6833 7.25993 26.6901 7.31722 26.7035 7.37321C26.7531 7.37061 26.8027 7.3667 26.855 7.3667C27.4422 7.3667 27.9476 7.50993 28.2077 7.71826C28.3257 7.57633 28.3994 7.39795 28.3994 7.20003C28.3994 6.7391 28.016 6.3667 27.5414 6.3667Z" fill="#212648"/>
<path d="M21.4358 1.23828C21.2152 1.4211 21.0763 1.69354 21.0763 2V3.66667C21.0763 4.03125 20.7653 4.33333 20.3899 4.33333H18.6738C18.4088 4.33333 18.1834 4.47653 18.0732 4.68971M21.4358 1.23828C21.6154 1.08943 21.8491 1 22.106 1H23.6183C23.8382 1 24.0782 1.09635 24.2498 1.23828C24.4214 1.38021 24.5085 1.55729 24.5085 1.66667C24.5085 1.84635 24.656 1.99479 24.841 2C25.8506 2.02995 28.2155 2.26172 28.2356 2.26302C28.6875 2.33464 28.9878 2.49219 29.2077 2.71484C29.4289 2.9375 29.5763 3.24089 29.6608 3.6276C29.941 4.91797 30 6.37109 30 8.66667C30 10.2812 29.9142 11.9258 29.512 13.1146C29.3122 13.7096 29.036 14.1836 28.6754 14.5013C28.3161 14.8203 27.875 15 27.2543 15H25.5382C24.7767 15 24.1653 14.4063 24.1653 13.6667V13C24.1653 12.2604 24.7767 11.6667 25.5382 11.6667H26.2246V12.3333H25.8814C25.2606 12.3333 24.7633 12.8867 24.8651 13.4987C24.9496 14.0026 25.4202 14.3333 25.9189 14.3333H26.911C27.8549 14.3333 28.6271 13.5833 28.6271 12.6667V11.6667C28.6271 10.5664 27.7007 9.66667 26.5678 9.66667H25.5382C24.9617 9.66667 24.42 9.45703 24.164 9.0026V9.0013C24.0862 8.86458 23.7953 8.20443 23.7953 8.20443C23.7336 8.0625 23.5794 7.98047 23.4226 8.00521C23.2657 8.02995 23.1477 8.15625 23.1357 8.3112L22.9989 10.2852C22.9359 10.6654 22.5672 10.9115 22.1784 10.8307L19.7584 10.2969L19.7544 10.2956C19.0734 10.1536 18.639 9.59766 18.4084 8.87891V8.8776C18.1442 8.05859 17.9874 6.33594 18.0008 4.98438V4.98307C18.002 4.87685 18.0278 4.77737 18.0732 4.68971M21.4358 1.23828L18.0732 4.68971" stroke="#212648"/>
</g>
</svg>
