<svg width="48" height="24" viewBox="0 0 48 24" fill="none" xmlns="http://www.w3.org/2000/svg">
<rect x="6.5" y="3.5" width="10" height="12" fill="url(#paint0_linear)" stroke="#6A52FC"/>
<path d="M0 11.5H3.5V21.5H0" stroke="#6A52FC"/>
<path d="M23 11.5H19.5V21.5H23" stroke="#6A52FC"/>
<path d="M11.5 17L11.5 20.5L11.5 22.5M11.5 22.5L14 20M11.5 22.5L9 20" stroke="#6A52FC"/>
<g opacity="0.4">
<rect x="30.5" y="3.5" width="10" height="12" fill="url(#paint1_linear)" stroke="#6A52FC"/>
<path d="M24 11.5H27.5V21.5H24" stroke="#6A52FC"/>
<path d="M47 11.5H43.5V21.5H47" stroke="#6A52FC"/>
<path d="M35.5 17L35.5 20.5L35.5 22.5M35.5 22.5L38 20M35.5 22.5L33 20" stroke="#6A52FC"/>
</g>
<defs>
<linearGradient id="paint0_linear" x1="11.5" y1="5.05542" x2="11.5" y2="14.1538" gradientUnits="userSpaceOnUse">
<stop stop-color="#8CA5FF"/>
<stop offset="1" stop-color="#7B72FB"/>
</linearGradient>
<linearGradient id="paint1_linear" x1="35.5" y1="5.05542" x2="35.5" y2="14.1538" gradientUnits="userSpaceOnUse">
<stop stop-color="#8CA5FF"/>
<stop offset="1" stop-color="#7B72FB"/>
</linearGradient>
</defs>
</svg>
