<svg width="36" height="12" viewBox="0 0 36 12" fill="none" xmlns="http://www.w3.org/2000/svg">
<path d="M10.6994 3.81988C9.8725 2.15074 8.12566 1 6.10444 1C3.28534 1 1 3.23858 1 6C1 8.76142 3.28534 11 6.10444 11C8.11944 11 9.86174 9.85634 10.6917 8.19553" stroke="#4E69FF" stroke-linecap="round"/>
<path d="M11 2V4H9" stroke="#4E69FF" stroke-linecap="round" stroke-linejoin="round"/>
<path d="M22.6994 3.81988C21.8725 2.15074 20.1257 1 18.1044 1C15.2853 1 13 3.23858 13 6C13 8.76142 15.2853 11 18.1044 11C20.1194 11 21.8617 9.85634 22.6917 8.19553" stroke="#8497FF" stroke-linecap="round"/>
<path d="M23 2V4H21" stroke="#8497FF" stroke-linecap="round" stroke-linejoin="round"/>
<path d="M34.6994 3.81988C33.8725 2.15074 32.1257 1 30.1044 1C27.2853 1 25 3.23858 25 6C25 8.76142 27.2853 11 30.1044 11C32.1194 11 33.8617 9.85634 34.6917 8.19553" stroke="#233FDB" stroke-linecap="round"/>
<path d="M35 2V4H33" stroke="#233FDB" stroke-linecap="round" stroke-linejoin="round"/>
</svg>
