<svg width="32" height="16" viewBox="0 0 32 16" fill="none" xmlns="http://www.w3.org/2000/svg">
<path d="M3.5 4L3.5 4.5L4 4.5L12 4.5L12.5 4.5L12.5 4L12.5 1.5C12.5 0.947715 12.0523 0.5 11.5 0.5L4.5 0.5C3.94772 0.5 3.5 0.947716 3.5 1.5L3.5 4Z" stroke="#212648"/>
<path d="M3.5 12.5H1.5C0.947715 12.5 0.5 12.0523 0.5 11.5V5.5C0.5 4.94772 0.947715 4.5 1.5 4.5H14.5C15.0523 4.5 15.5 4.94772 15.5 5.5V11.5C15.5 12.0523 15.0523 12.5 14.5 12.5H12.5" stroke="#212648"/>
<rect x="3.5" y="15.5" width="7" height="9" rx="1" transform="rotate(-90 3.5 15.5)" stroke="#212648"/>
<path d="M3.5 6.5H5.5" stroke="#212648" stroke-linecap="round" stroke-linejoin="round"/>
<g opacity="0.4">
<path d="M19.5 4L19.5 4.5L20 4.5L28 4.5L28.5 4.5L28.5 4L28.5 1.5C28.5 0.947715 28.0523 0.5 27.5 0.5L20.5 0.5C19.9477 0.5 19.5 0.947716 19.5 1.5L19.5 4Z" stroke="#212648"/>
<path d="M19.5 12.5H17.5C16.9477 12.5 16.5 12.0523 16.5 11.5V5.5C16.5 4.94772 16.9477 4.5 17.5 4.5H30.5C31.0523 4.5 31.5 4.94772 31.5 5.5V11.5C31.5 12.0523 31.0523 12.5 30.5 12.5H28.5" stroke="#212648"/>
<rect x="19.5" y="15.5" width="7" height="9" rx="1" transform="rotate(-90 19.5 15.5)" stroke="#212648"/>
<path d="M19.5 6.5H21.5" stroke="#212648" stroke-linecap="round" stroke-linejoin="round"/>
</g>
</svg>
