<svg width="48" height="24" viewBox="0 0 48 24" fill="none" xmlns="http://www.w3.org/2000/svg">
<rect x="2.5" y="2.5" width="19" height="19" stroke="#6A52FC"/>
<rect x="1.5" y="22.5" width="2" height="2" transform="rotate(-90 1.5 22.5)" fill="white" stroke="#6A52FC"/>
<rect x="20.5" y="3.5" width="2" height="2" transform="rotate(-90 20.5 3.5)" fill="white" stroke="#6A52FC"/>
<rect x="20.5" y="22.5" width="2" height="2" transform="rotate(-90 20.5 22.5)" fill="white" stroke="#6A52FC"/>
<rect x="1.5" y="3.5" width="2" height="2" transform="rotate(-90 1.5 3.5)" fill="white" stroke="#6A52FC"/>
<path d="M6 6H18V9H16V8H13V16H14V18H10V16H11V8H8V9H6V6.95455V6Z" fill="#6A52FC"/>
<g opacity="0.4">
<rect x="26.5" y="2.5" width="19" height="19" stroke="#6A52FC"/>
<rect x="25.5" y="22.5" width="2" height="2" transform="rotate(-90 25.5 22.5)" fill="white" stroke="#6A52FC"/>
<rect x="44.5" y="3.5" width="2" height="2" transform="rotate(-90 44.5 3.5)" fill="white" stroke="#6A52FC"/>
<rect x="44.5" y="22.5" width="2" height="2" transform="rotate(-90 44.5 22.5)" fill="white" stroke="#6A52FC"/>
<rect x="25.5" y="3.5" width="2" height="2" transform="rotate(-90 25.5 3.5)" fill="white" stroke="#6A52FC"/>
<path d="M30 6H42V9H40V8H37V16H38V18H34V16H35V8H32V9H30V6.95455V6Z" fill="#6A52FC"/>
</g>
</svg>
