<svg width="48" height="24" viewBox="0 0 48 24" fill="none" xmlns="http://www.w3.org/2000/svg">
<rect x="6.5" y="5.5" width="11" height="4" fill="url(#paint0_linear)"/>
<rect x="6.5" y="5.5" width="11" height="4" stroke="#6A52FC"/>
<rect x="6.5" y="14.5" width="11" height="4" fill="url(#paint1_linear)"/>
<rect x="6.5" y="14.5" width="11" height="4" stroke="#6A52FC"/>
<path d="M20.5 2.5H3.5V21.5H20.5V2.5Z" stroke="#6A52FC"/>
<g opacity="0.4">
<rect x="30.5" y="5.5" width="11" height="4" fill="url(#paint2_linear)"/>
<rect x="30.5" y="5.5" width="11" height="4" stroke="#6A52FC"/>
<rect x="30.5" y="14.5" width="11" height="4" fill="url(#paint3_linear)"/>
<rect x="30.5" y="14.5" width="11" height="4" stroke="#6A52FC"/>
<path d="M44.5 2.5H27.5V21.5H44.5V2.5Z" stroke="#6A52FC"/>
</g>
<defs>
<linearGradient id="paint0_linear" x1="12" y1="6.28784" x2="12" y2="8.76923" gradientUnits="userSpaceOnUse">
<stop stop-color="#8CA5FF"/>
<stop offset="1" stop-color="#7B72FB"/>
</linearGradient>
<linearGradient id="paint1_linear" x1="12" y1="15.2878" x2="12" y2="17.7692" gradientUnits="userSpaceOnUse">
<stop stop-color="#8CA5FF"/>
<stop offset="1" stop-color="#7B72FB"/>
</linearGradient>
<linearGradient id="paint2_linear" x1="36" y1="6.28784" x2="36" y2="8.76923" gradientUnits="userSpaceOnUse">
<stop stop-color="#8CA5FF"/>
<stop offset="1" stop-color="#7B72FB"/>
</linearGradient>
<linearGradient id="paint3_linear" x1="36" y1="15.2878" x2="36" y2="17.7692" gradientUnits="userSpaceOnUse">
<stop stop-color="#8CA5FF"/>
<stop offset="1" stop-color="#7B72FB"/>
</linearGradient>
</defs>
</svg>
