<svg width="40" height="40" viewBox="0 0 40 40" fill="none" xmlns="http://www.w3.org/2000/svg">
<path fill-rule="evenodd" clip-rule="evenodd" d="M21.464 16.9259C21.464 12.4569 25.0869 8.83398 29.5559 8.83398C34.025 8.83398 37.6479 12.4569 37.6479 16.9259V18.5223H32.2532V16.9259C32.2532 15.4362 31.0456 14.2286 29.5559 14.2286C28.0662 14.2286 26.8586 15.4362 26.8586 16.9259V18.5223C26.8586 20.012 28.0662 21.2197 29.5559 21.2197C34.025 21.2197 37.6479 24.8425 37.6479 29.3116V30.908C37.6479 35.3771 34.025 39 29.5559 39C25.0869 39 21.464 35.3771 21.464 30.908V29.3116H26.8586V30.908C26.8586 32.3977 28.0662 33.6053 29.5559 33.6053C31.0456 33.6053 32.2532 32.3977 32.2532 30.908V29.3116C32.2532 27.8219 31.0456 26.6143 29.5559 26.6143C25.0869 26.6143 21.464 22.9914 21.464 18.5223V16.9259Z" fill="#979AB8"/>
<path fill-rule="evenodd" clip-rule="evenodd" d="M2 1L8.73242 30.805L13.9835 30.8518L21.2884 1H15.7346L11.4685 18.4336L7.53054 1H2Z" fill="#979AB8"/>
</svg>
