<svg width="48" height="24" viewBox="0 0 48 24" fill="none" xmlns="http://www.w3.org/2000/svg">
<path d="M6 12L9 12M15 12L18 12" stroke="#6A52FC"/>
<path d="M12 18L12 15M12 9L12 6" stroke="#6A52FC"/>
<rect x="9.5" y="15.5" width="7" height="5" transform="rotate(-90 9.5 15.5)" fill="url(#paint0_linear)" stroke="#6A52FC"/>
<rect x="4.5" y="4.5" width="15" height="15" stroke="#6A52FC"/>
<g opacity="0.4">
<path d="M30 12L33 12M39 12L42 12" stroke="#6A52FC"/>
<path d="M36 18L36 15M36 9L36 6" stroke="#6A52FC"/>
<rect x="33.5" y="15.5" width="7" height="5" transform="rotate(-90 33.5 15.5)" fill="url(#paint1_linear)" stroke="#6A52FC"/>
<rect x="28.5" y="4.5" width="15" height="15" stroke="#6A52FC"/>
</g>
<defs>
<linearGradient id="paint0_linear" x1="16.4286" y1="19" x2="9.57143" y2="19" gradientUnits="userSpaceOnUse">
<stop stop-color="#8CA5FF"/>
<stop offset="1" stop-color="#7B72FB"/>
</linearGradient>
<linearGradient id="paint1_linear" x1="40.4286" y1="19" x2="33.5714" y2="19" gradientUnits="userSpaceOnUse">
<stop stop-color="#8CA5FF"/>
<stop offset="1" stop-color="#7B72FB"/>
</linearGradient>
</defs>
</svg>
