<svg width="160" height="40" viewBox="0 0 160 40" fill="none" xmlns="http://www.w3.org/2000/svg">
<rect x="17" y="18" width="4" height="1" fill="#979AB8"/>
<rect x="17" y="21" width="6" height="1" fill="#979AB8"/>
<path fill-rule="evenodd" clip-rule="evenodd" d="M13 12C13 11.4477 13.4477 11 14 11H26C26.5523 11 27 11.4477 27 12V28C27 28.5523 26.5523 29 26 29H14C13.4477 29 13 28.5523 13 28V12ZM15 13V27H25V13H15Z" fill="#212648"/>
<path fill-rule="evenodd" clip-rule="evenodd" d="M0 2.5C0 1.11929 1.11929 0 2.5 0H37.5C38.8807 0 40 1.11929 40 2.5V37.5C40 38.8807 38.8807 40 37.5 40H2.5C1.11929 40 0 38.8807 0 37.5V2.5ZM2.5 1C1.67157 1 1 1.67157 1 2.5V37.5C1 38.3284 1.67157 39 2.5 39H37.5C38.3284 39 39 38.3284 39 37.5V2.5C39 1.67157 38.3284 1 37.5 1H2.5Z" fill="#D3D4E0"/>
<rect x="57" y="18" width="4" height="1" fill="#979AB8"/>
<rect x="57" y="21" width="6" height="1" fill="#979AB8"/>
<path fill-rule="evenodd" clip-rule="evenodd" d="M53 12C53 11.4477 53.4477 11 54 11H66C66.5523 11 67 11.4477 67 12V28C67 28.5523 66.5523 29 66 29H54C53.4477 29 53 28.5523 53 28V12ZM55 13V27H65V13H55Z" fill="#212648"/>
<path fill-rule="evenodd" clip-rule="evenodd" d="M40 2.5C40 1.11929 41.1193 0 42.5 0H77.5C78.8807 0 80 1.11929 80 2.5V37.5C80 38.8807 78.8807 40 77.5 40H42.5C41.1193 40 40 38.8807 40 37.5V2.5ZM42.5 1C41.6716 1 41 1.67157 41 2.5V37.5C41 38.3284 41.6716 39 42.5 39H77.5C78.3284 39 79 38.3284 79 37.5V2.5C79 1.67157 78.3284 1 77.5 1H42.5Z" fill="#212648"/>
<path d="M80 2C80 0.895431 80.8954 0 82 0H118C119.105 0 120 0.895431 120 2V38C120 39.1046 119.105 40 118 40H82C80.8954 40 80 39.1046 80 38V2Z" fill="#4864FF"/>
<rect x="97" y="18" width="4" height="1" fill="white"/>
<rect x="97" y="21" width="6" height="1" fill="white"/>
<path fill-rule="evenodd" clip-rule="evenodd" d="M93 12C93 11.4477 93.4477 11 94 11H106C106.552 11 107 11.4477 107 12V28C107 28.5523 106.552 29 106 29H94C93.4477 29 93 28.5523 93 28V12ZM95 13V27H105V13H95Z" fill="white"/>
<rect x="137" y="18" width="4" height="1" fill="#212648" fill-opacity="0.3"/>
<rect x="137" y="21" width="6" height="1" fill="#212648" fill-opacity="0.3"/>
<path fill-rule="evenodd" clip-rule="evenodd" d="M133 12C133 11.4477 133.448 11 134 11H146C146.552 11 147 11.4477 147 12V28C147 28.5523 146.552 29 146 29H134C133.448 29 133 28.5523 133 28V12ZM135 13V27H145V13H135Z" fill="#212648" fill-opacity="0.3"/>
<path fill-rule="evenodd" clip-rule="evenodd" d="M120 2.5C120 1.11929 121.119 0 122.5 0H157.5C158.881 0 160 1.11929 160 2.5V37.5C160 38.8807 158.881 40 157.5 40H122.5C121.119 40 120 38.8807 120 37.5V2.5ZM122.5 1C121.672 1 121 1.67157 121 2.5V37.5C121 38.3284 121.672 39 122.5 39H157.5C158.328 39 159 38.3284 159 37.5V2.5C159 1.67157 158.328 1 157.5 1H122.5Z" fill="#D3D4E0"/>
</svg>
