<svg width="112" height="112" viewBox="0 0 112 112" fill="none" xmlns="http://www.w3.org/2000/svg">
<g opacity="0.7">
<path d="M23 19C23 17.8954 23.8954 17 25 17H46.443C47.1043 17 47.7229 17.3269 48.0954 17.8733L54.4046 27.1267C54.7771 27.6731 55.3957 28 56.057 28H87C88.1046 28 89 28.8954 89 30V49V79C89 80.1046 88.1046 81 87 81H25C23.8954 81 23 80.1046 23 79V19Z" fill="url(#paint0_linear)"/>
<path d="M17 27C17 25.8954 17.8954 25 19 25H42.443C43.1043 25 43.7229 25.3269 44.0954 25.8733L50.4046 35.1267C50.7771 35.6731 51.3957 36 52.057 36H93C94.1046 36 95 36.8954 95 38V57V87C95 88.1046 94.1046 89 93 89H19C17.8954 89 17 88.1046 17 87V27Z" fill="url(#paint1_linear)"/>
<path opacity="0.6" d="M10 35C10 33.8954 10.8954 33 12 33H39.443C40.1043 33 40.7229 33.3269 41.0954 33.8733L47.4046 43.1267C47.7771 43.6731 48.3957 44 49.057 44H100C101.105 44 102 44.8954 102 46V65V95C102 96.1046 101.105 97 100 97H12C10.8954 97 10 96.1046 10 95V35Z" fill="url(#paint2_linear)"/>
<path d="M46 65H66M56 55V75" stroke="white" stroke-width="2" stroke-linecap="round" stroke-linejoin="round"/>
</g>
<defs>
<linearGradient id="paint0_linear" x1="56" y1="17" x2="56" y2="81" gradientUnits="userSpaceOnUse">
<stop stop-color="#8CA5FF"/>
<stop offset="1" stop-color="#7B72FB"/>
</linearGradient>
<linearGradient id="paint1_linear" x1="56" y1="25" x2="56" y2="89" gradientUnits="userSpaceOnUse">
<stop stop-color="#5A75FF"/>
<stop offset="1" stop-color="#6254FF"/>
</linearGradient>
<linearGradient id="paint2_linear" x1="66.8387" y1="31.9381" x2="52.332" y2="102.933" gradientUnits="userSpaceOnUse">
<stop stop-color="#7B72FB"/>
<stop offset="1" stop-color="#4ADEFF"/>
</linearGradient>
</defs>
</svg>
