<svg width="48" height="24" viewBox="0 0 48 24" fill="none" xmlns="http://www.w3.org/2000/svg">
<rect x="8.5" y="6.5" width="8" height="3" fill="url(#paint0_linear)" stroke="#6A52FC"/>
<rect x="6.5" y="12.5" width="12" height="3" fill="url(#paint1_linear)" stroke="#6A52FC"/>
<rect x="13" y="7" width="1" height="4" transform="rotate(-180 13 7)" fill="#6A52FC"/>
<rect x="13" y="20" width="1" height="4" transform="rotate(-180 13 20)" fill="#6A52FC"/>
<rect x="13" y="13" width="1" height="3" transform="rotate(-180 13 13)" fill="#6A52FC"/>
<g opacity="0.4">
<rect x="32.5" y="6.5" width="8" height="3" fill="url(#paint2_linear)" stroke="#6A52FC"/>
<rect x="30.5" y="12.5" width="12" height="3" fill="url(#paint3_linear)" stroke="#6A52FC"/>
<rect x="37" y="7" width="1" height="4" transform="rotate(-180 37 7)" fill="#6A52FC"/>
<rect x="37" y="20" width="1" height="4" transform="rotate(-180 37 20)" fill="#6A52FC"/>
<rect x="37" y="13" width="1" height="3" transform="rotate(-180 37 13)" fill="#6A52FC"/>
</g>
<defs>
<linearGradient id="paint0_linear" x1="16.3571" y1="8" x2="8.64286" y2="8" gradientUnits="userSpaceOnUse">
<stop stop-color="#8CA5FF"/>
<stop offset="1" stop-color="#7B72FB"/>
</linearGradient>
<linearGradient id="paint1_linear" x1="18.0714" y1="14" x2="6.92857" y2="14" gradientUnits="userSpaceOnUse">
<stop stop-color="#8CA5FF"/>
<stop offset="1" stop-color="#7B72FB"/>
</linearGradient>
<linearGradient id="paint2_linear" x1="40.3571" y1="8" x2="32.6429" y2="8" gradientUnits="userSpaceOnUse">
<stop stop-color="#8CA5FF"/>
<stop offset="1" stop-color="#7B72FB"/>
</linearGradient>
<linearGradient id="paint3_linear" x1="42.0714" y1="14" x2="30.9286" y2="14" gradientUnits="userSpaceOnUse">
<stop stop-color="#8CA5FF"/>
<stop offset="1" stop-color="#7B72FB"/>
</linearGradient>
</defs>
</svg>
