<svg width="48" height="24" viewBox="0 0 48 24" fill="none" xmlns="http://www.w3.org/2000/svg">
<rect x="6.5" y="8.5" width="10" height="12" fill="url(#paint0_linear)" stroke="#6A52FC"/>
<path d="M0 11.5H3.5V21.5H0" stroke="#6A52FC"/>
<path d="M23 11.5H19.5V21.5H23" stroke="#6A52FC"/>
<path d="M11.5 7L11.5 4L11.5 2M11.5 2L9 4.5M11.5 2L14 4.5" stroke="#6A52FC"/>
<g opacity="0.4">
<rect x="30.5" y="8.5" width="10" height="12" fill="url(#paint1_linear)" stroke="#6A52FC"/>
<path d="M24 11.5H27.5V21.5H24" stroke="#6A52FC"/>
<path d="M47 11.5H43.5V21.5H47" stroke="#6A52FC"/>
<path d="M35.5 7L35.5 4L35.5 2M35.5 2L33 4.5M35.5 2L38 4.5" stroke="#6A52FC"/>
</g>
<defs>
<linearGradient id="paint0_linear" x1="11.5" y1="10.0554" x2="11.5" y2="19.1538" gradientUnits="userSpaceOnUse">
<stop stop-color="#8CA5FF"/>
<stop offset="1" stop-color="#7B72FB"/>
</linearGradient>
<linearGradient id="paint1_linear" x1="35.5" y1="10.0554" x2="35.5" y2="19.1538" gradientUnits="userSpaceOnUse">
<stop stop-color="#8CA5FF"/>
<stop offset="1" stop-color="#7B72FB"/>
</linearGradient>
</defs>
</svg>
