<svg width="48" height="24" viewBox="0 0 48 24" fill="none" xmlns="http://www.w3.org/2000/svg">
<rect x="2.5" y="2.5" width="19" height="19" stroke="#6A52FC"/>
<mask id="path-2-inside-1" fill="white">
<path fill-rule="evenodd" clip-rule="evenodd" d="M17.4392 7.43933L19.5605 9.56065L11.5605 17.5607L10.4998 18.6213L9.43918 17.5607L5.43918 13.5607L7.5605 11.4393L10.4998 14.3787L17.4392 7.43933Z"/>
</mask>
<path fill-rule="evenodd" clip-rule="evenodd" d="M17.4392 7.43933L19.5605 9.56065L11.5605 17.5607L10.4998 18.6213L9.43918 17.5607L5.43918 13.5607L7.5605 11.4393L10.4998 14.3787L17.4392 7.43933Z" fill="url(#paint0_linear)"/>
<path d="M19.5605 9.56065L20.2676 10.2678L20.9747 9.56065L20.2676 8.85354L19.5605 9.56065ZM17.4392 7.43933L18.1463 6.73222L17.4392 6.02512L16.7321 6.73222L17.4392 7.43933ZM11.5605 17.5607L12.2676 18.2678L11.5605 17.5607ZM10.4998 18.6213L9.79273 19.3284L10.4998 20.0355L11.2069 19.3284L10.4998 18.6213ZM9.43918 17.5607L10.1463 16.8535H10.1463L9.43918 17.5607ZM5.43918 13.5607L4.73207 12.8535L4.02496 13.5607L4.73207 14.2678L5.43918 13.5607ZM7.5605 11.4393L8.26761 10.7322L7.5605 10.0251L6.85339 10.7322L7.5605 11.4393ZM10.4998 14.3787L9.79273 15.0858L10.4998 15.7929L11.2069 15.0858L10.4998 14.3787ZM20.2676 8.85354L18.1463 6.73222L16.7321 8.14644L18.8534 10.2678L20.2676 8.85354ZM12.2676 18.2678L20.2676 10.2678L18.8534 8.85354L10.8534 16.8535L12.2676 18.2678ZM11.2069 19.3284L12.2676 18.2678L10.8534 16.8535L9.79273 17.9142L11.2069 19.3284ZM8.73207 18.2678L9.79273 19.3284L11.2069 17.9142L10.1463 16.8535L8.73207 18.2678ZM4.73207 14.2678L8.73207 18.2678L10.1463 16.8535L6.14629 12.8535L4.73207 14.2678ZM6.85339 10.7322L4.73207 12.8535L6.14629 14.2678L8.26761 12.1464L6.85339 10.7322ZM11.2069 13.6716L8.26761 10.7322L6.85339 12.1464L9.79273 15.0858L11.2069 13.6716ZM16.7321 6.73222L9.79273 13.6716L11.2069 15.0858L18.1463 8.14644L16.7321 6.73222Z" fill="#6A52FC" mask="url(#path-2-inside-1)"/>
<g opacity="0.4">
<rect x="26.5" y="2.5" width="19" height="19" stroke="#6A52FC"/>
<mask id="path-5-inside-2" fill="white">
<path fill-rule="evenodd" clip-rule="evenodd" d="M41.4392 7.43933L43.5605 9.56065L35.5605 17.5607L34.4998 18.6213L33.4392 17.5607L29.4392 13.5607L31.5605 11.4393L34.4998 14.3787L41.4392 7.43933Z"/>
</mask>
<path fill-rule="evenodd" clip-rule="evenodd" d="M41.4392 7.43933L43.5605 9.56065L35.5605 17.5607L34.4998 18.6213L33.4392 17.5607L29.4392 13.5607L31.5605 11.4393L34.4998 14.3787L41.4392 7.43933Z" fill="url(#paint1_linear)"/>
<path d="M43.5605 9.56065L44.2676 10.2678L44.9747 9.56065L44.2676 8.85354L43.5605 9.56065ZM41.4392 7.43933L42.1463 6.73222L41.4392 6.02512L40.7321 6.73222L41.4392 7.43933ZM35.5605 17.5607L36.2676 18.2678L35.5605 17.5607ZM34.4998 18.6213L33.7927 19.3284L34.4998 20.0355L35.2069 19.3284L34.4998 18.6213ZM33.4392 17.5607L34.1463 16.8535H34.1463L33.4392 17.5607ZM29.4392 13.5607L28.7321 12.8535L28.025 13.5607L28.7321 14.2678L29.4392 13.5607ZM31.5605 11.4393L32.2676 10.7322L31.5605 10.0251L30.8534 10.7322L31.5605 11.4393ZM34.4998 14.3787L33.7927 15.0858L34.4998 15.7929L35.2069 15.0858L34.4998 14.3787ZM44.2676 8.85354L42.1463 6.73222L40.7321 8.14644L42.8534 10.2678L44.2676 8.85354ZM36.2676 18.2678L44.2676 10.2678L42.8534 8.85354L34.8534 16.8535L36.2676 18.2678ZM35.2069 19.3284L36.2676 18.2678L34.8534 16.8535L33.7927 17.9142L35.2069 19.3284ZM32.7321 18.2678L33.7927 19.3284L35.2069 17.9142L34.1463 16.8535L32.7321 18.2678ZM28.7321 14.2678L32.7321 18.2678L34.1463 16.8535L30.1463 12.8535L28.7321 14.2678ZM30.8534 10.7322L28.7321 12.8535L30.1463 14.2678L32.2676 12.1464L30.8534 10.7322ZM35.2069 13.6716L32.2676 10.7322L30.8534 12.1464L33.7927 15.0858L35.2069 13.6716ZM40.7321 6.73222L33.7927 13.6716L35.2069 15.0858L42.1463 8.14644L40.7321 6.73222Z" fill="#6A52FC" mask="url(#path-5-inside-2)"/>
</g>
<defs>
<linearGradient id="paint0_linear" x1="9.72184" y1="10.961" x2="9.72184" y2="20.834" gradientUnits="userSpaceOnUse">
<stop stop-color="#8CA5FF"/>
<stop offset="1" stop-color="#7B72FB"/>
</linearGradient>
<linearGradient id="paint1_linear" x1="33.7218" y1="10.961" x2="33.7218" y2="20.834" gradientUnits="userSpaceOnUse">
<stop stop-color="#8CA5FF"/>
<stop offset="1" stop-color="#7B72FB"/>
</linearGradient>
</defs>
</svg>
