<svg width="48" height="24" viewBox="0 0 48 24" fill="none" xmlns="http://www.w3.org/2000/svg">
<path d="M17 10V8.5C17 6.01472 14.9853 4 12.5 4V4C10.0147 4 8 6.04094 8 8.52623V8.52623C8 9.69811 8.74989 10.75 9.86164 11.1205L14.9952 12.8317C16.1924 13.2308 17 14.3513 17 15.6133V16C17 18.4853 14.9853 20.5 12.5 20.5V20.5C10.0147 20.5 8 18.4853 8 16V15" stroke="#212648"/>
<rect x="3" y="12" width="19" height="1" fill="#212648"/>
<path d="M3 11H22V12H3V11Z" fill="white"/>
<g opacity="0.4">
<path d="M41 10V8.5C41 6.01472 38.9853 4 36.5 4V4C34.0147 4 32 6.04094 32 8.52623V8.52623C32 9.69811 32.7499 10.75 33.8616 11.1205L38.9952 12.8317C40.1924 13.2308 41 14.3513 41 15.6133V16C41 18.4853 38.9853 20.5 36.5 20.5V20.5C34.0147 20.5 32 18.4853 32 16V15" stroke="#212648"/>
<rect x="27" y="12" width="19" height="1" fill="#212648"/>
<path d="M27 11H46V12H27V11Z" fill="white"/>
</g>
</svg>
