<svg width="312" height="72" viewBox="0 0 312 72" fill="none" xmlns="http://www.w3.org/2000/svg">
<path d="M229.544 47.904C231.224 47.16 232.064 45.504 232.064 43.992C232.064 42.024 230.624 40.2 227.528 40.2H220.28V57H227.192C230.888 57 232.808 54.552 232.808 52.152C232.808 50.352 231.752 48.648 229.544 47.904ZM222.32 47.232V42.048H227.216C229.16 42.048 230 43.224 230 44.472C230 45.816 228.992 47.232 226.832 47.232H222.32ZM227.264 55.152H222.32V49.032H227.432C229.616 49.032 230.696 50.52 230.696 52.104C230.696 53.64 229.688 55.152 227.264 55.152ZM245.069 44.856H243.077V51C243.077 53.976 241.445 55.368 239.741 55.368C238.229 55.368 237.077 54.384 237.077 52.44V44.856H235.085V52.776C235.085 55.608 236.957 57.144 239.309 57.144C240.917 57.144 242.285 56.472 243.125 54.864V57H245.069V44.856ZM252.774 50.112C251.022 49.848 249.606 49.56 249.606 48.192C249.606 46.944 250.806 46.416 252.174 46.416C253.638 46.416 255.006 47.04 255.03 48.48H257.07C257.046 45.816 254.718 44.64 252.174 44.64C249.606 44.64 247.542 45.84 247.542 48.288C247.542 51.408 250.83 51.696 252.966 52.032C254.19 52.224 255.294 52.512 255.294 53.712C255.294 54.912 254.166 55.488 252.654 55.488C250.998 55.488 249.534 54.816 249.294 53.208H247.23C247.47 55.944 249.846 57.264 252.51 57.264C255.054 57.264 257.406 56.04 257.406 53.448C257.406 50.664 254.718 50.4 252.774 50.112ZM259.39 42.12H261.622V39.72H259.39V42.12ZM259.51 57H261.502V44.856H259.51V57ZM270.503 44.64C268.463 44.64 267.239 45.648 266.543 46.968V44.856H264.575V57H266.567V50.784C266.567 48.096 267.983 46.44 270.143 46.44C271.991 46.44 272.783 47.64 272.783 48.96V57H274.775V48.768C274.775 46.128 272.999 44.64 270.503 44.64ZM287.899 51.432V50.496C287.899 46.512 285.499 44.64 282.595 44.64C279.691 44.64 276.931 46.56 276.931 50.928C276.931 55.272 279.667 57.264 282.571 57.264C284.875 57.264 287.179 56.064 287.803 53.472H285.835C285.427 54.768 284.179 55.488 282.667 55.488C280.579 55.488 278.947 54.168 278.875 51.432H287.899ZM282.547 46.368C284.515 46.368 285.907 47.712 285.907 49.824H278.923C279.187 47.328 280.795 46.368 282.547 46.368ZM294.755 50.112C293.003 49.848 291.587 49.56 291.587 48.192C291.587 46.944 292.787 46.416 294.155 46.416C295.619 46.416 296.987 47.04 297.011 48.48H299.051C299.027 45.816 296.699 44.64 294.155 44.64C291.587 44.64 289.523 45.84 289.523 48.288C289.523 51.408 292.811 51.696 294.947 52.032C296.171 52.224 297.275 52.512 297.275 53.712C297.275 54.912 296.147 55.488 294.635 55.488C292.979 55.488 291.515 54.816 291.275 53.208H289.211C289.451 55.944 291.827 57.264 294.491 57.264C297.035 57.264 299.387 56.04 299.387 53.448C299.387 50.664 296.699 50.4 294.755 50.112ZM306.123 50.112C304.371 49.848 302.955 49.56 302.955 48.192C302.955 46.944 304.155 46.416 305.523 46.416C306.987 46.416 308.355 47.04 308.379 48.48H310.419C310.395 45.816 308.067 44.64 305.523 44.64C302.955 44.64 300.891 45.84 300.891 48.288C300.891 51.408 304.179 51.696 306.315 52.032C307.539 52.224 308.643 52.512 308.643 53.712C308.643 54.912 307.515 55.488 306.003 55.488C304.347 55.488 302.883 54.816 302.643 53.208H300.579C300.819 55.944 303.195 57.264 305.859 57.264C308.403 57.264 310.755 56.04 310.755 53.448C310.755 50.664 308.067 50.4 306.123 50.112Z" fill="#FD5962"/>
<g filter="url(#filter0_d)">
<g clip-path="url(#clip0)">
<rect width="62" height="62" transform="translate(5 5)" fill="url(#paint0_linear)"/>
<path d="M35.9492 52.4342H20.5V36.9396L38.2143 36.9342V37.0176C36.9159 37.3285 35.9509 38.4995 35.9509 39.8979L35.9492 52.4342Z" fill="white"/>
<path d="M20.5 35.2734H51.5V19.7734H20.5V35.2734Z" fill="white"/>
</g>
</g>
<path d="M103.448 16.2H100.256L97.304 28.2L93.68 16.2H90.608L86.984 28.176L84.032 16.2H80.72L85.304 33H88.4L92.096 20.736L95.792 33H98.864L103.448 16.2ZM109.443 20.424C105.843 20.424 103.323 22.824 103.323 26.832C103.323 30.864 105.843 33.264 109.443 33.264C113.067 33.264 115.587 30.864 115.587 26.832C115.587 22.824 113.067 20.424 109.443 20.424ZM109.419 23.184C111.219 23.184 112.539 24.36 112.539 26.832C112.539 29.16 111.411 30.504 109.491 30.504C107.691 30.504 106.371 29.328 106.371 26.832C106.371 24.528 107.499 23.184 109.419 23.184ZM124.337 20.424C122.273 20.424 121.265 21.288 120.569 22.44V20.64H117.617V33H120.593V26.328C120.593 24.312 121.529 23.088 123.305 23.088C124.769 23.088 125.609 23.904 125.609 25.296V33H128.585V25.032C128.585 22.08 127.145 20.424 124.337 20.424ZM142.897 15.936H139.92V22.272C139.176 21.072 137.664 20.424 136.056 20.424C133.032 20.424 130.512 22.536 130.512 26.808C130.512 31.152 133.032 33.264 136.056 33.264C137.76 33.264 139.296 32.52 139.968 31.104V33H142.897V15.936ZM136.752 30.528C135.024 30.528 133.536 29.304 133.536 26.808C133.536 24.288 135.024 23.064 136.752 23.064C138.36 23.064 139.992 24.264 139.992 26.808C139.992 29.328 138.36 30.528 136.752 30.528ZM156.424 27.72V26.496C156.424 22.416 153.88 20.424 150.88 20.424C147.735 20.424 144.927 22.584 144.927 26.904C144.927 31.2 147.688 33.264 150.808 33.264C153.328 33.264 155.704 31.896 156.328 29.28H153.544C153.112 30.264 152.104 30.696 150.928 30.696C149.152 30.696 147.88 29.736 147.808 27.72H156.424ZM150.856 22.992C152.464 22.992 153.496 23.904 153.496 25.536H147.88C148.143 23.736 149.44 22.992 150.856 22.992ZM165.456 20.496H164.64C163.2 20.496 162.048 21.12 161.424 22.464V20.64H158.472V33H161.448V26.952C161.448 24.528 162.576 23.4 164.664 23.4H165.456V20.496ZM171.947 25.632C170.435 25.416 169.355 25.224 169.355 24.264C169.355 23.544 169.931 22.896 171.395 22.896C172.667 22.896 173.531 23.376 173.651 24.6H176.555C176.387 21.84 174.251 20.424 171.371 20.424C168.803 20.424 166.451 21.552 166.451 24.36C166.451 27.408 169.211 27.816 171.635 28.224C173.339 28.512 173.915 28.704 173.915 29.472C173.915 30.408 173.027 30.816 171.755 30.816C170.363 30.816 169.283 30.288 169.067 29.04H166.067C166.283 32.16 169.043 33.264 171.611 33.264C174.371 33.264 176.843 31.944 176.843 29.16C176.843 26.28 174.155 25.968 171.947 25.632ZM185.49 20.424C183.402 20.424 182.442 21.288 181.746 22.464V15.936H178.77V33H181.746V26.328C181.746 24.312 182.682 23.088 184.458 23.088C185.922 23.088 186.762 23.904 186.762 25.296V33H189.738V25.032C189.738 22.08 188.298 20.424 185.49 20.424ZM197.762 20.424C194.69 20.424 192.506 21.816 192.026 24.696H194.858C195.122 23.76 195.65 22.872 197.498 22.872C198.554 22.872 199.538 23.208 199.538 24.144C199.538 25.176 198.578 25.368 198.098 25.44L195.602 25.8C194.474 25.968 191.666 26.496 191.666 29.592C191.666 32.208 193.682 33.264 195.65 33.264C196.97 33.264 198.578 32.784 199.538 31.2V33H202.442V24.432C202.442 21.528 200.474 20.424 197.762 20.424ZM196.418 30.792C195.362 30.792 194.642 30.336 194.642 29.352C194.642 27.984 196.106 27.768 196.634 27.696L197.882 27.504C198.506 27.408 199.01 27.336 199.466 27.144V27.816C199.466 29.472 198.218 30.792 196.418 30.792ZM212.194 20.496H211.378C209.938 20.496 208.786 21.12 208.162 22.464V20.64H205.21V33H208.186V26.952C208.186 24.528 209.314 23.4 211.402 23.4H212.194V20.496ZM224.187 27.72V26.496C224.187 22.416 221.643 20.424 218.643 20.424C215.499 20.424 212.691 22.584 212.691 26.904C212.691 31.2 215.451 33.264 218.571 33.264C221.091 33.264 223.467 31.896 224.091 29.28H221.307C220.875 30.264 219.867 30.696 218.691 30.696C216.915 30.696 215.643 29.736 215.571 27.72H224.187ZM218.619 22.992C220.227 22.992 221.259 23.904 221.259 25.536H215.643C215.907 23.736 217.203 22.992 218.619 22.992Z" fill="black"/>
<path d="M89.216 40.2H82.16V57H85.256V50.808H88.904C92.744 50.808 94.736 48.216 94.736 45.336C94.736 42.576 92.888 40.2 89.216 40.2ZM89 47.904H85.256V43.128H89.12C90.8 43.128 91.592 44.136 91.592 45.504C91.592 46.872 90.776 47.904 89 47.904ZM102.498 40.2H96.7859V57H102.114C108.138 57 110.898 52.512 110.898 48.264C110.898 44.088 108.234 40.2 102.498 40.2ZM102.138 54.072H99.9059V43.128H102.618C106.242 43.128 107.754 45.6 107.754 48.264C107.754 51.12 106.026 54.072 102.138 54.072ZM116.548 49.968H124.06V47.04H116.548V43.128H124.707V40.2H113.428V57H116.548V49.968ZM136.688 51.72V50.496C136.688 46.416 134.144 44.424 131.144 44.424C128 44.424 125.192 46.584 125.192 50.904C125.192 55.2 127.952 57.264 131.072 57.264C133.592 57.264 135.968 55.896 136.592 53.28H133.808C133.376 54.264 132.368 54.696 131.192 54.696C129.416 54.696 128.144 53.736 128.072 51.72H136.688ZM131.12 46.992C132.728 46.992 133.76 47.904 133.76 49.536H128.144C128.408 47.736 129.704 46.992 131.12 46.992ZM141.712 39.936H138.736V57H141.712V39.936ZM155.253 51.72V50.496C155.253 46.416 152.709 44.424 149.709 44.424C146.565 44.424 143.757 46.584 143.757 50.904C143.757 55.2 146.517 57.264 149.637 57.264C152.157 57.264 154.533 55.896 155.157 53.28H152.373C151.941 54.264 150.933 54.696 149.757 54.696C147.981 54.696 146.709 53.736 146.637 51.72H155.253ZM149.685 46.992C151.293 46.992 152.325 47.904 152.325 49.536H146.709C146.973 47.736 148.269 46.992 149.685 46.992ZM170.573 44.424C168.341 44.424 167.405 45.576 166.925 46.464C166.349 45.168 165.125 44.424 163.469 44.424C161.597 44.424 160.613 45.48 160.229 46.464V44.64H157.301V57H160.277V50.04C160.277 48 161.237 47.112 162.629 47.112C163.877 47.112 164.621 47.784 164.621 49.248V57H167.597V50.064C167.597 47.976 168.557 47.112 169.973 47.112C171.245 47.112 171.941 47.784 171.941 49.248V57H174.917V48.672C174.917 46.008 173.237 44.424 170.573 44.424ZM188.325 51.72V50.496C188.325 46.416 185.781 44.424 182.781 44.424C179.637 44.424 176.829 46.584 176.829 50.904C176.829 55.2 179.589 57.264 182.709 57.264C185.229 57.264 187.605 55.896 188.229 53.28H185.445C185.013 54.264 184.005 54.696 182.829 54.696C181.053 54.696 179.781 53.736 179.709 51.72H188.325ZM182.757 46.992C184.365 46.992 185.397 47.904 185.397 49.536H179.781C180.045 47.736 181.341 46.992 182.757 46.992ZM197.093 44.424C195.029 44.424 194.021 45.288 193.325 46.44V44.64H190.373V57H193.349V50.328C193.349 48.312 194.285 47.088 196.061 47.088C197.525 47.088 198.365 47.904 198.365 49.296V57H201.341V49.032C201.341 46.08 199.901 44.424 197.093 44.424ZM210.54 54.36H209.268C208.02 54.36 207.78 53.736 207.78 52.872V47.328H210.252V44.64H207.78V41.04L204.804 41.856V44.64H202.548V47.328H204.804V52.992C204.804 56.304 206.268 57 208.596 57H210.54V54.36Z" fill="black"/>
<defs>
<filter id="filter0_d" x="4" y="5" width="64" height="64" filterUnits="userSpaceOnUse" color-interpolation-filters="sRGB">
<feFlood flood-opacity="0" result="BackgroundImageFix"/>
<feColorMatrix in="SourceAlpha" type="matrix" values="0 0 0 0 0 0 0 0 0 0 0 0 0 0 0 0 0 0 127 0"/>
<feOffset dy="1"/>
<feGaussianBlur stdDeviation="1"/>
<feColorMatrix type="matrix" values="0 0 0 0 0 0 0 0 0 0 0 0 0 0 0 0 0 0 0.3 0"/>
<feBlend mode="normal" in2="BackgroundImageFix" result="effect1_dropShadow"/>
<feBlend mode="normal" in="SourceGraphic" in2="effect1_dropShadow" result="shape"/>
</filter>
<linearGradient id="paint0_linear" x1="31" y1="0" x2="31" y2="62" gradientUnits="userSpaceOnUse">
<stop stop-color="#414C9A"/>
<stop offset="1" stop-color="#364295"/>
</linearGradient>
<clipPath id="clip0">
<rect x="6" y="6" width="60" height="60" rx="13.6893" fill="white"/>
</clipPath>
</defs>
</svg>
