<svg width="48" height="24" viewBox="0 0 48 24" fill="none" xmlns="http://www.w3.org/2000/svg">
<path d="M3 3L11 3L11 21H3L3 3Z" fill="url(#paint0_linear)"/>
<path fill-rule="evenodd" clip-rule="evenodd" d="M2 2L12 2L12 22H2L2 2ZM3 3L3 21H11L11 3L3 3Z" fill="#6A52FC"/>
<path fill-rule="evenodd" clip-rule="evenodd" d="M19 4H14V5H18V8.29289L16.8536 7.14645L16.1464 7.85355L18.5 10.2071L20.8536 7.85355L20.1464 7.14645L19 8.29289V4Z" fill="#6A52FC"/>
<path fill-rule="evenodd" clip-rule="evenodd" d="M21 13H12V12H22V22H12V21H21V13Z" fill="#6A52FC"/>
<g opacity="0.4">
<path d="M27 3L35 3V21H27L27 3Z" fill="url(#paint1_linear)"/>
<path fill-rule="evenodd" clip-rule="evenodd" d="M26 2L36 2V22H26L26 2ZM27 3L27 21H35V3L27 3Z" fill="#6A52FC"/>
<path fill-rule="evenodd" clip-rule="evenodd" d="M43 4H38V5H42V8.29289L40.8536 7.14645L40.1464 7.85355L42.5 10.2071L44.8536 7.85355L44.1464 7.14645L43 8.29289V4Z" fill="#6A52FC"/>
<path fill-rule="evenodd" clip-rule="evenodd" d="M45 13H36V12H46V22H36V21H45V13Z" fill="#6A52FC"/>
</g>
<defs>
<linearGradient id="paint0_linear" x1="7" y1="3" x2="7" y2="22" gradientUnits="userSpaceOnUse">
<stop stop-color="#8CA5FF"/>
<stop offset="1" stop-color="#7B72FB"/>
</linearGradient>
<linearGradient id="paint1_linear" x1="31" y1="3" x2="31" y2="22" gradientUnits="userSpaceOnUse">
<stop stop-color="#8CA5FF"/>
<stop offset="1" stop-color="#7B72FB"/>
</linearGradient>
</defs>
</svg>
