<svg width="48" height="24" viewBox="0 0 48 24" fill="none" xmlns="http://www.w3.org/2000/svg">
<path d="M5 21H20V22H5V21Z" fill="#6A52FC"/>
<mask id="path-2-outside-1" maskUnits="userSpaceOnUse" x="9" y="3" width="7" height="12" fill="black">
<rect fill="white" x="9" y="3" width="7" height="12"/>
<path fill-rule="evenodd" clip-rule="evenodd" d="M12.5 4C11.1193 4 10 5.11929 10 6.5C10 7.88071 11.1193 9 12.5 9H12V14H13V9H12.5C13.8807 9 15 7.88071 15 6.5C15 5.11929 13.8807 4 12.5 4Z"/>
</mask>
<path fill-rule="evenodd" clip-rule="evenodd" d="M12.5 4C11.1193 4 10 5.11929 10 6.5C10 7.88071 11.1193 9 12.5 9H12V14H13V9H12.5C13.8807 9 15 7.88071 15 6.5C15 5.11929 13.8807 4 12.5 4Z" fill="url(#paint0_linear)"/>
<path d="M12 9V8H11V9H12ZM12 14H11V15H12V14ZM13 14V15H14V14H13ZM13 9H14V8H13V9ZM11 6.5C11 5.67157 11.6716 5 12.5 5V3C10.567 3 9 4.567 9 6.5H11ZM12.5 8C11.6716 8 11 7.32843 11 6.5H9C9 8.433 10.567 10 12.5 10V8ZM12.5 8H12V10H12.5V8ZM11 9V14H13V9H11ZM12 15H13V13H12V15ZM14 14V9H12V14H14ZM13 8H12.5V10H13V8ZM14 6.5C14 7.32843 13.3284 8 12.5 8V10C14.433 10 16 8.433 16 6.5H14ZM12.5 5C13.3284 5 14 5.67157 14 6.5H16C16 4.567 14.433 3 12.5 3V5Z" fill="#6A52FC" mask="url(#path-2-outside-1)"/>
<path d="M6 13.5H5.5V14V19V19.5H6H19H19.5V19V14V13.5H19H6Z" fill="url(#paint1_linear)" stroke="#6A52FC"/>
<g opacity="0.4">
<path d="M29 21H44V22H29V21Z" fill="#6A52FC"/>
<mask id="path-6-outside-2" maskUnits="userSpaceOnUse" x="33" y="3" width="7" height="12" fill="black">
<rect fill="white" x="33" y="3" width="7" height="12"/>
<path fill-rule="evenodd" clip-rule="evenodd" d="M36.5 4C35.1193 4 34 5.11929 34 6.5C34 7.88071 35.1193 9 36.5 9H36V14H37V9H36.5C37.8807 9 39 7.88071 39 6.5C39 5.11929 37.8807 4 36.5 4Z"/>
</mask>
<path fill-rule="evenodd" clip-rule="evenodd" d="M36.5 4C35.1193 4 34 5.11929 34 6.5C34 7.88071 35.1193 9 36.5 9H36V14H37V9H36.5C37.8807 9 39 7.88071 39 6.5C39 5.11929 37.8807 4 36.5 4Z" fill="url(#paint2_linear)"/>
<path d="M36 9V8H35V9H36ZM36 14H35V15H36V14ZM37 14V15H38V14H37ZM37 9H38V8H37V9ZM35 6.5C35 5.67157 35.6716 5 36.5 5V3C34.567 3 33 4.567 33 6.5H35ZM36.5 8C35.6716 8 35 7.32843 35 6.5H33C33 8.433 34.567 10 36.5 10V8ZM36.5 8H36V10H36.5V8ZM35 9V14H37V9H35ZM36 15H37V13H36V15ZM38 14V9H36V14H38ZM37 8H36.5V10H37V8ZM38 6.5C38 7.32843 37.3284 8 36.5 8V10C38.433 10 40 8.433 40 6.5H38ZM36.5 5C37.3284 5 38 5.67157 38 6.5H40C40 4.567 38.433 3 36.5 3V5Z" fill="#6A52FC" mask="url(#path-6-outside-2)"/>
<path d="M30 13.5H29.5V14V19V19.5H30H43H43.5V19V14V13.5H43H30Z" fill="url(#paint3_linear)" stroke="#6A52FC"/>
</g>
<defs>
<linearGradient id="paint0_linear" x1="12" y1="2.59961" x2="12" y2="8.7265" gradientUnits="userSpaceOnUse">
<stop stop-color="#8CA5FF"/>
<stop offset="1" stop-color="#7B72FB"/>
</linearGradient>
<linearGradient id="paint1_linear" x1="12.0667" y1="12.2196" x2="12.0667" y2="18.4231" gradientUnits="userSpaceOnUse">
<stop stop-color="#8CA5FF"/>
<stop offset="1" stop-color="#7B72FB"/>
</linearGradient>
<linearGradient id="paint2_linear" x1="36" y1="2.59961" x2="36" y2="8.7265" gradientUnits="userSpaceOnUse">
<stop stop-color="#8CA5FF"/>
<stop offset="1" stop-color="#7B72FB"/>
</linearGradient>
<linearGradient id="paint3_linear" x1="36.0667" y1="12.2196" x2="36.0667" y2="18.4231" gradientUnits="userSpaceOnUse">
<stop stop-color="#8CA5FF"/>
<stop offset="1" stop-color="#7B72FB"/>
</linearGradient>
</defs>
</svg>
