<svg width="20" height="20" viewBox="0 0 20 20" fill="none" xmlns="http://www.w3.org/2000/svg">
<circle cx="10" cy="10" r="9" fill="#0FB7FF" stroke="white" stroke-width="2"/>
<path d="M7.59619 13.6938V12.3779C7.71436 12.4854 7.854 12.582 8.01514 12.668C8.17985 12.7539 8.35352 12.8273 8.53613 12.8882C8.71875 12.9455 8.90137 12.9902 9.08398 13.0225C9.2666 13.0547 9.4349 13.0708 9.58887 13.0708C10.126 13.0708 10.5252 12.9813 10.7866 12.8022C11.0516 12.6232 11.1841 12.3636 11.1841 12.0234C11.1841 11.8408 11.1393 11.6833 11.0498 11.5508C10.9639 11.4147 10.8421 11.2912 10.6846 11.1802C10.527 11.0692 10.3408 10.9635 10.126 10.8633C9.91471 10.7594 9.68734 10.652 9.44385 10.541C9.18245 10.4014 8.93896 10.2599 8.71338 10.1167C8.48779 9.97347 8.29085 9.81592 8.12256 9.64404C7.95785 9.46859 7.82715 9.27165 7.73047 9.05322C7.63737 8.8348 7.59082 8.57878 7.59082 8.28516C7.59082 7.9235 7.67139 7.61019 7.83252 7.34521C7.99723 7.07666 8.21208 6.85645 8.47705 6.68457C8.74561 6.50911 9.04997 6.38021 9.39014 6.29785C9.73031 6.21191 10.0776 6.16895 10.4321 6.16895C11.2378 6.16895 11.825 6.26025 12.1938 6.44287V7.70508C11.757 7.38997 11.1948 7.23242 10.5073 7.23242C10.3175 7.23242 10.1278 7.25033 9.93799 7.28613C9.75179 7.32194 9.5835 7.38102 9.43311 7.46338C9.2863 7.54574 9.16634 7.65137 9.07324 7.78027C8.98014 7.90918 8.93359 8.06494 8.93359 8.24756C8.93359 8.41943 8.9694 8.56803 9.04102 8.69336C9.11263 8.81868 9.21647 8.93327 9.35254 9.03711C9.49219 9.14095 9.66048 9.243 9.85742 9.34326C10.0579 9.43994 10.2889 9.54557 10.5503 9.66016C10.8188 9.7998 11.0713 9.94661 11.3076 10.1006C11.5475 10.2546 11.757 10.4246 11.936 10.6108C12.1187 10.797 12.2619 11.0047 12.3657 11.2339C12.4731 11.4595 12.5269 11.7173 12.5269 12.0073C12.5269 12.3976 12.4481 12.7271 12.2905 12.9956C12.133 13.2642 11.9199 13.4826 11.6514 13.6509C11.3864 13.8192 11.0802 13.9409 10.7329 14.0161C10.3856 14.0913 10.0186 14.1289 9.63184 14.1289C9.50293 14.1289 9.34359 14.1182 9.15381 14.0967C8.96761 14.0788 8.77604 14.0501 8.5791 14.0107C8.38216 13.9749 8.19596 13.9302 8.02051 13.8765C7.84505 13.8228 7.70361 13.7619 7.59619 13.6938Z" fill="white"/>
</svg>
