<svg width="128" height="48" viewBox="0 0 128 48" fill="none" xmlns="http://www.w3.org/2000/svg">
<path fill-rule="evenodd" clip-rule="evenodd" d="M16.7407 18.4532L14.9821 17.4379L13.7613 21.3165C12.2081 21.1832 10.6462 21.7843 9.58662 22.9831C9.36826 23.2301 9.17123 23.5025 9 23.7991L12.5017 25.8208L10.3763 30.4194L10.5801 31.0622L11.2387 30.9174L14.1586 26.7774L17.6603 28.7991C17.8315 28.5025 17.9689 28.1957 18.0736 27.883C18.582 26.366 18.3217 24.7128 17.4296 23.4344L17.5233 23.3322C17.194 23.0926 16.9081 22.797 16.6795 22.4594L14.7928 21.37L15.5617 18.9272L16.2769 19.3402C16.389 19.0208 16.5462 18.7226 16.7407 18.4532ZM15.3301 22.835C13.716 21.9031 11.7223 22.224 10.4752 23.4961L17.1851 27.37C17.6631 25.6539 16.9443 23.7669 15.3301 22.835Z" fill="#212648"/>
<circle cx="19.5801" cy="20.5" r="3" stroke="#212648"/>
<rect x="18.0801" y="20" width="3" height="1" fill="#212648"/>
<rect width="32" height="48" transform="translate(32)" fill="#EBEDF2"/>
<path fill-rule="evenodd" clip-rule="evenodd" d="M48.7407 18.4532L46.9821 17.4379L45.7613 21.3165C44.2081 21.1832 42.6462 21.7843 41.5866 22.9831C41.3683 23.2301 41.1712 23.5025 41 23.7991L44.5017 25.8208L42.3763 30.4194L42.5801 31.0622L43.2387 30.9174L46.1586 26.7774L49.6603 28.7991C49.8315 28.5025 49.9689 28.1957 50.0736 27.883C50.582 26.366 50.3217 24.7128 49.4296 23.4344L49.5233 23.3322C49.194 23.0926 48.9081 22.797 48.6795 22.4594L46.7928 21.37L47.5617 18.9272L48.2769 19.3402C48.389 19.0208 48.5462 18.7226 48.7407 18.4532ZM47.3301 22.835C45.716 21.9031 43.7223 22.224 42.4752 23.4961L49.1851 27.37C49.6631 25.6539 48.9443 23.7669 47.3301 22.835Z" fill="#212648"/>
<circle cx="51.5801" cy="20.5" r="3" stroke="#212648"/>
<rect x="50.0801" y="20" width="3" height="1" fill="#212648"/>
<rect width="32" height="48" transform="translate(64)" fill="#C0C2CE"/>
<path fill-rule="evenodd" clip-rule="evenodd" d="M80.7407 18.4532L78.9821 17.4379L77.7613 21.3165C76.2081 21.1832 74.6462 21.7843 73.5866 22.9831C73.3683 23.2301 73.1712 23.5025 73 23.7991L76.5017 25.8208L74.3763 30.4194L74.5801 31.0622L75.2387 30.9174L78.1586 26.7774L81.6603 28.7991C81.8315 28.5025 81.9689 28.1957 82.0736 27.883C82.582 26.366 82.3217 24.7128 81.4296 23.4344L81.5233 23.3322C81.194 23.0926 80.9081 22.797 80.6795 22.4594L78.7928 21.37L79.5617 18.9272L80.2769 19.3402C80.389 19.0208 80.5462 18.7226 80.7407 18.4532ZM79.3301 22.835C77.716 21.9031 75.7223 22.224 74.4752 23.4961L81.1851 27.37C81.6631 25.6539 80.9443 23.7669 79.3301 22.835Z" fill="#212648"/>
<circle cx="83.5801" cy="20.5" r="3" stroke="#212648"/>
<rect x="82.0801" y="20" width="3" height="1" fill="#212648"/>
<path fill-rule="evenodd" clip-rule="evenodd" d="M112.741 18.4532L110.982 17.4379L109.761 21.3165C108.208 21.1832 106.646 21.7843 105.587 22.9831C105.368 23.2301 105.171 23.5025 105 23.7991L108.502 25.8208L106.376 30.4194L106.58 31.0622L107.239 30.9174L110.159 26.7774L113.66 28.7991C113.831 28.5025 113.969 28.1957 114.074 27.883C114.582 26.366 114.322 24.7128 113.43 23.4344L113.523 23.3322C113.194 23.0926 112.908 22.797 112.68 22.4594L110.793 21.37L111.562 18.9272L112.277 19.3402C112.389 19.0208 112.546 18.7226 112.741 18.4532ZM111.33 22.835C109.716 21.9031 107.722 22.224 106.475 23.4961L113.185 27.37C113.663 25.6539 112.944 23.7669 111.33 22.835Z" fill="#212648"/>
<circle cx="115.58" cy="20.5" r="3" stroke="#212648"/>
<rect x="114.08" y="20" width="3" height="1" fill="#212648"/>
</svg>
