<svg width="128" height="48" viewBox="0 0 128 48" fill="none" xmlns="http://www.w3.org/2000/svg">
<path fill-rule="evenodd" clip-rule="evenodd" d="M19.1796 21.9966C20.0717 23.275 20.332 24.9281 19.8236 26.4452C19.7189 26.7578 19.5815 27.0646 19.4103 27.3612L15.9086 25.3395L12.9887 29.4795L12.3301 29.6244L12.1263 28.9816L14.2517 24.3829L10.75 22.3612C10.9212 22.0646 11.1183 21.7922 11.3366 21.5452C12.3962 20.3464 13.9581 19.7453 15.5113 19.8786L16.7321 16L21.9282 19L19.1796 21.9966ZM16.5428 19.9322L18.6175 21.13L20.3486 19.2427L17.3117 17.4893L16.5428 19.9322ZM12.2252 22.0582C13.4723 20.7861 15.466 20.4652 17.0801 21.3971C18.6943 22.329 19.4131 24.2161 18.9351 25.9322L12.2252 22.0582Z" fill="#212648"/>
<rect width="32" height="48" transform="translate(32)" fill="#EBEDF2"/>
<path fill-rule="evenodd" clip-rule="evenodd" d="M51.1796 21.9966C52.0717 23.275 52.332 24.9281 51.8236 26.4452C51.7189 26.7578 51.5815 27.0646 51.4103 27.3612L47.9086 25.3395L44.9887 29.4795L44.3301 29.6244L44.1263 28.9816L46.2517 24.3829L42.75 22.3612C42.9212 22.0646 43.1183 21.7922 43.3366 21.5452C44.3962 20.3464 45.9581 19.7453 47.5113 19.8786L48.7321 16L53.9282 19L51.1796 21.9966ZM48.5428 19.9322L50.6175 21.13L52.3486 19.2427L49.3117 17.4893L48.5428 19.9322ZM44.2252 22.0582C45.4723 20.7861 47.466 20.4652 49.0801 21.3971C50.6943 22.329 51.4131 24.2161 50.9351 25.9322L44.2252 22.0582Z" fill="#212648"/>
<rect width="32" height="48" transform="translate(64)" fill="#C0C2CE"/>
<path fill-rule="evenodd" clip-rule="evenodd" d="M83.1796 21.9966C84.0717 23.275 84.332 24.9281 83.8236 26.4452C83.7189 26.7578 83.5815 27.0646 83.4103 27.3612L79.9086 25.3395L76.9887 29.4795L76.3301 29.6244L76.1263 28.9816L78.2517 24.3829L74.75 22.3612C74.9212 22.0646 75.1183 21.7922 75.3366 21.5452C76.3962 20.3464 77.9581 19.7453 79.5113 19.8786L80.7321 16L85.9282 19L83.1796 21.9966ZM80.5428 19.9322L82.6175 21.13L84.3486 19.2427L81.3117 17.4893L80.5428 19.9322ZM76.2252 22.0582C77.4723 20.7861 79.466 20.4652 81.0801 21.3971C82.6943 22.329 83.4131 24.2161 82.9351 25.9322L76.2252 22.0582Z" fill="#212648"/>
<path fill-rule="evenodd" clip-rule="evenodd" d="M115.18 21.9966C116.072 23.275 116.332 24.9281 115.824 26.4452C115.719 26.7578 115.581 27.0646 115.41 27.3612L111.909 25.3395L108.989 29.4795L108.33 29.6244L108.126 28.9816L110.252 24.3829L106.75 22.3612C106.921 22.0646 107.118 21.7922 107.337 21.5452C108.396 20.3464 109.958 19.7453 111.511 19.8786L112.732 16L117.928 19L115.18 21.9966ZM112.543 19.9322L114.617 21.13L116.349 19.2427L113.312 17.4893L112.543 19.9322ZM108.225 22.0582C109.472 20.7861 111.466 20.4652 113.08 21.3971C114.694 22.329 115.413 24.2161 114.935 25.9322L108.225 22.0582Z" fill="#212648"/>
</svg>
