<svg width="160" height="20" viewBox="0 0 160 20" fill="none" xmlns="http://www.w3.org/2000/svg">
<path fill-rule="evenodd" clip-rule="evenodd" d="M18.2149 3.54854C18.0407 3.46564 17.8344 3.49032 17.6847 3.61195L9.68471 10.1119C9.52045 10.2454 9.45801 10.4678 9.52881 10.6673C9.56059 10.7568 9.61615 10.833 9.68686 10.8898L17.6847 17.3881C17.8344 17.5097 18.0407 17.5344 18.2149 17.4515C18.3891 17.3686 18.5 17.1929 18.5 17V11H151V10H18.5V4.00001C18.5 3.80712 18.3891 3.63143 18.2149 3.54854ZM17.5 11V15.9495L11.4083 11H17.5ZM11.4083 10H17.5V5.05049L11.4083 10Z" fill="black"/>
</svg>
