<svg width="48" height="24" viewBox="0 0 48 24" fill="none" xmlns="http://www.w3.org/2000/svg">
<path d="M16.3971 14.75L14.3971 18.2141C13.1545 20.3664 10.4023 21.1038 8.25002 19.8612V19.8612C6.0977 18.6186 5.36026 15.8664 6.60291 13.7141L11.3529 5.48685C12.1813 4.05197 14.0161 3.56035 15.451 4.38877V4.38877C16.8859 5.2172 17.3775 7.05197 16.5491 8.48685L12.2991 15.8481C11.8848 16.5655 10.9675 16.8113 10.25 16.3971V16.3971C9.53258 15.9829 9.28677 15.0655 9.70098 14.3481L13.701 7.41986" stroke="#6A52FC" stroke-width="2"/>
<g opacity="0.4">
<path d="M40.3971 14.75L38.3971 18.2141C37.1545 20.3664 34.4023 21.1038 32.25 19.8612V19.8612C30.0977 18.6186 29.3603 15.8664 30.6029 13.7141L35.3529 5.48685C36.1813 4.05197 38.0161 3.56035 39.451 4.38877V4.38877C40.8859 5.2172 41.3775 7.05197 40.5491 8.48685L36.2991 15.8481C35.8848 16.5655 34.9675 16.8113 34.25 16.3971V16.3971C33.5326 15.9829 33.2868 15.0655 33.701 14.3481L37.701 7.41986" stroke="#6A52FC" stroke-width="2"/>
</g>
</svg>
