<svg width="32" height="16" viewBox="0 0 32 16" fill="none" xmlns="http://www.w3.org/2000/svg">
<mask id="path-1-inside-1" fill="white">
<path fill-rule="evenodd" clip-rule="evenodd" d="M1.14457 8.35366C1.04621 8.12821 1.04621 7.87179 1.14457 7.64634C2.34137 4.90322 4.96095 3 7.99998 3C11.039 3 13.6586 4.90322 14.8554 7.64634C14.9537 7.87179 14.9537 8.12821 14.8554 8.35366C13.6586 11.0968 11.039 13 7.99998 13C4.96095 13 2.34137 11.0968 1.14457 8.35366Z"/>
</mask>
<path d="M14.8554 7.64634L15.7719 7.24646L14.8554 7.64634ZM14.8554 8.35366L15.7719 8.75355L15.7719 8.75355L14.8554 8.35366ZM1.14457 7.64634L0.228008 7.24645L1.14457 7.64634ZM2.06114 8.04623C3.11523 5.63019 5.39789 4 7.99998 4V2C4.52401 2 1.56751 4.17625 0.228008 7.24645L2.06114 8.04623ZM7.99998 4C10.6021 4 12.8847 5.63019 13.9388 8.04623L15.7719 7.24646C14.4324 4.17625 11.4759 2 7.99998 2V4ZM13.9388 7.95377C12.8847 10.3698 10.6021 12 7.99998 12V14C11.4759 14 14.4324 11.8238 15.7719 8.75355L13.9388 7.95377ZM7.99998 12C5.39789 12 3.11523 10.3698 2.06114 7.95377L0.228007 8.75355C1.56751 11.8238 4.52401 14 7.99998 14V12ZM13.9388 8.04623C13.9259 8.01669 13.9259 7.98331 13.9388 7.95377L15.7719 8.75355C15.9816 8.27311 15.9816 7.72689 15.7719 7.24646L13.9388 8.04623ZM0.228008 7.24645C0.0183988 7.72689 0.0183982 8.27311 0.228007 8.75355L2.06114 7.95377C2.07402 7.98331 2.07402 8.01669 2.06114 8.04623L0.228008 7.24645Z" fill="#212648" mask="url(#path-1-inside-1)"/>
<circle cx="8" cy="8" r="1.5" stroke="#212648"/>
<mask id="path-4-inside-2" fill="white">
<path fill-rule="evenodd" clip-rule="evenodd" d="M17.1446 8.35366C17.0462 8.12821 17.0462 7.87179 17.1446 7.64634C18.3414 4.90322 20.9609 3 24 3C27.039 3 29.6586 4.90322 30.8554 7.64634C30.9537 7.87179 30.9537 8.12821 30.8554 8.35366C29.6586 11.0968 27.039 13 24 13C20.9609 13 18.3414 11.0968 17.1446 8.35366Z"/>
</mask>
<path d="M30.8554 7.64634L31.7719 7.24646L30.8554 7.64634ZM30.8554 8.35366L31.7719 8.75355L31.7719 8.75355L30.8554 8.35366ZM17.1446 7.64634L16.228 7.24645L17.1446 7.64634ZM18.0611 8.04623C19.1152 5.63019 21.3979 4 24 4V2C20.524 2 17.5675 4.17625 16.228 7.24645L18.0611 8.04623ZM24 4C26.6021 4 28.8847 5.63019 29.9388 8.04623L31.7719 7.24646C30.4324 4.17625 27.4759 2 24 2V4ZM29.9388 7.95377C28.8847 10.3698 26.6021 12 24 12V14C27.4759 14 30.4324 11.8238 31.7719 8.75355L29.9388 7.95377ZM24 12C21.3979 12 19.1152 10.3698 18.0611 7.95377L16.228 8.75355C17.5675 11.8238 20.524 14 24 14V12ZM29.9388 8.04623C29.9259 8.01669 29.9259 7.98331 29.9388 7.95377L31.7719 8.75355C31.9816 8.27311 31.9816 7.72689 31.7719 7.24646L29.9388 8.04623ZM16.228 7.24645C16.0184 7.72689 16.0184 8.27311 16.228 8.75355L18.0611 7.95377C18.074 7.98331 18.074 8.01669 18.0611 8.04623L16.228 7.24645Z" fill="#212648" fill-opacity="0.3" mask="url(#path-4-inside-2)"/>
<circle cx="24" cy="8" r="1.5" stroke="#212648" stroke-opacity="0.3"/>
</svg>
