<svg width="212" height="54" viewBox="0 0 212 54" fill="none" xmlns="http://www.w3.org/2000/svg">
<g clip-path="url(#clip0)">
<rect y="18" width="212" height="36" rx="2" fill="url(#paint0_linear)"/>
<path opacity="0.3" fill-rule="evenodd" clip-rule="evenodd" d="M29.3414 55H46C46 52.7909 44.2091 51 42 51C41.5551 51 41.1272 51.0726 40.7274 51.2067C39.9649 48.769 37.689 47 35 47C31.6863 47 29 49.6863 29 53C29 53.7013 29.1203 54.3744 29.3414 55Z" fill="white"/>
<g opacity="0.6">
<path opacity="0.2" d="M75 29H70L74 36L70 43H75L79 36L75 29Z" fill="white"/>
<path opacity="0.2" d="M83 29H78L82 36L78 43H83L87 36L83 29Z" fill="white"/>
<path opacity="0.2" d="M91 29H86L90 36L86 43H91L95 36L91 29Z" fill="white"/>
</g>
<rect opacity="0.3" x="16.1962" y="29.1147" width="24" height="21" transform="rotate(30 16.1962 29.1147)" fill="url(#paint1_linear)"/>
<rect opacity="0.3" x="20.5263" y="31.6147" width="14" height="21" transform="rotate(30 20.5263 31.6147)" fill="url(#paint2_linear)"/>
<path d="M35.9808 42.8468L38.8185 37.9317C40.707 34.6607 40.2905 30.5483 37.7846 27.7224L31.7846 38.1147L32.6506 38.6147L35.9808 42.8468Z" fill="url(#paint3_linear)"/>
<path d="M15.1962 30.8468L18.0339 25.9317C19.9224 22.6607 23.692 20.9652 27.3923 21.7224L21.3923 32.1147L20.5263 31.6147L15.1962 30.8468Z" fill="url(#paint4_linear)"/>
<g filter="url(#filter0_i)">
<path d="M32.6507 38.6147L36.8356 31.3662C40.262 25.4315 41.4179 18.4548 40.0885 11.7321C33.6018 13.9421 28.1377 18.4315 24.7112 24.3662L20.5263 31.6147L32.6507 38.6147Z" fill="white"/>
</g>
<g style="mix-blend-mode:multiply" opacity="0.4" filter="url(#filter1_f)">
<path d="M22.2583 32.6147C29.5753 18.9413 35.4234 14.8122 40.0884 11.732C32.3972 16.8102 26.1245 27.9187 23.9905 33.6148L22.2583 32.6147Z" fill="#FFDA55"/>
</g>
<path opacity="0.3" d="M14.5792 41.8674C15.0994 38.957 17.2554 36.6097 20.1113 35.8445V35.8445C23.8089 34.8537 27.6096 37.048 28.6004 40.7456V40.7456C29.3656 43.6015 28.4108 46.6423 26.1504 48.5481L15.3516 57.6528C13.9205 58.8595 11.7642 57.6145 12.0936 55.7718L14.5792 41.8674Z" fill="#FCFF66"/>
<path opacity="0.4" d="M17.985 40.2531C18.3385 38.2758 19.8031 36.6812 21.7432 36.1614V36.1614C24.2552 35.4883 26.8372 36.979 27.5103 39.491V39.491C28.0301 41.4311 27.3815 43.4968 25.8459 44.7915L17.7382 51.6274C17.0269 52.2271 15.9551 51.6083 16.1189 50.6925L17.985 40.2531Z" fill="#FCFF66"/>
<path d="M20.0944 39.9807C20.3162 38.74 21.2353 37.7394 22.4527 37.4132V37.4132C24.0289 36.9909 25.6491 37.9263 26.0715 39.5025V39.5025C26.3977 40.7199 25.9906 42.0162 25.0271 42.8286L19.9395 47.1181C19.4932 47.4944 18.8207 47.1061 18.9234 46.5314L20.0944 39.9807Z" fill="#FCFF66"/>
<path d="M32.8564 20.2584C33.4087 19.3018 34.6318 18.974 35.5884 19.5263V19.5263C36.545 20.0786 36.8728 21.3018 36.3205 22.2584L35.3205 23.9904L31.8564 21.9904L32.8564 20.2584Z" fill="#FFDB7E"/>
<path d="M45.3468 28.6243L45.0847 30.1587L46.0788 31.3564L44.5445 31.0943L43.3468 32.0884L43.6089 30.5541L42.6147 29.3564L44.1491 29.6185L45.3468 28.6243Z" fill="white"/>
<path d="M29.0622 8.83014L28.669 11.1316L30.1603 12.9282L27.8588 12.5351L26.0622 14.0263L26.4553 11.7248L24.9641 9.92822L27.2656 10.3214L29.0622 8.83014Z" fill="#FFD25C"/>
<path opacity="0.2" fill-rule="evenodd" clip-rule="evenodd" d="M-0.658589 32H16C16 29.7909 14.2091 28 12 28C11.5551 28 11.1272 28.0726 10.7274 28.2067C9.96492 25.769 7.68904 24 5 24C1.68629 24 -1 26.6863 -1 30C-1 30.7013 -0.879692 31.3744 -0.658589 32Z" fill="white"/>
</g>
<defs>
<filter id="filter0_i" x="20.5263" y="11.7321" width="21.0997" height="29.8827" filterUnits="userSpaceOnUse" color-interpolation-filters="sRGB">
<feFlood flood-opacity="0" result="BackgroundImageFix"/>
<feBlend mode="normal" in="SourceGraphic" in2="BackgroundImageFix" result="shape"/>
<feColorMatrix in="SourceAlpha" type="matrix" values="0 0 0 0 0 0 0 0 0 0 0 0 0 0 0 0 0 0 127 0" result="hardAlpha"/>
<feOffset dx="1" dy="3"/>
<feGaussianBlur stdDeviation="3"/>
<feComposite in2="hardAlpha" operator="arithmetic" k2="-1" k3="1"/>
<feColorMatrix type="matrix" values="0 0 0 0 1 0 0 0 0 0.724666 0 0 0 0 0.0166667 0 0 0 0.4 0"/>
<feBlend mode="normal" in2="shape" result="effect1_innerShadow"/>
</filter>
<filter id="filter1_f" x="19.2583" y="8.73206" width="23.8301" height="27.8828" filterUnits="userSpaceOnUse" color-interpolation-filters="sRGB">
<feFlood flood-opacity="0" result="BackgroundImageFix"/>
<feBlend mode="normal" in="SourceGraphic" in2="BackgroundImageFix" result="shape"/>
<feGaussianBlur stdDeviation="1.5" result="effect1_foregroundBlur"/>
</filter>
<linearGradient id="paint0_linear" x1="0" y1="18" x2="183.581" y2="110.439" gradientUnits="userSpaceOnUse">
<stop stop-color="#FFDC62"/>
<stop offset="1" stop-color="#FF3F02"/>
</linearGradient>
<linearGradient id="paint1_linear" x1="28.1962" y1="29.1147" x2="28.1962" y2="50.1147" gradientUnits="userSpaceOnUse">
<stop stop-color="#FBFF27"/>
<stop offset="1" stop-color="#FBFF38" stop-opacity="0"/>
</linearGradient>
<linearGradient id="paint2_linear" x1="27.5263" y1="31.6147" x2="27.5263" y2="52.6147" gradientUnits="userSpaceOnUse">
<stop stop-color="#FBFF27"/>
<stop offset="1" stop-color="#FBFF38" stop-opacity="0"/>
</linearGradient>
<linearGradient id="paint3_linear" x1="40.3827" y1="29.2224" x2="33.3827" y2="41.3468" gradientUnits="userSpaceOnUse">
<stop stop-color="#FFD12E"/>
<stop offset="1" stop-color="white"/>
</linearGradient>
<linearGradient id="paint4_linear" x1="24.7942" y1="20.2224" x2="17.7942" y2="32.3468" gradientUnits="userSpaceOnUse">
<stop stop-color="#FFD12E"/>
<stop offset="1" stop-color="white"/>
</linearGradient>
<clipPath id="clip0">
<rect width="212" height="54" fill="white"/>
</clipPath>
</defs>
</svg>
