<svg width="255" height="32" viewBox="0 0 255 32" fill="none" xmlns="http://www.w3.org/2000/svg">
<path d="M47 0H16C7.16344 0 0 7.16344 0 16C0 24.8366 7.16344 32 16 32H47C55.8366 32 63 24.8366 63 16C63 7.16344 55.8366 0 47 0Z" fill="#4864FF"/>
<path d="M111 0H80C71.1634 0 64 7.16344 64 16C64 24.8366 71.1634 32 80 32H111C119.837 32 127 24.8366 127 16C127 7.16344 119.837 0 111 0Z" fill="#6A81FF"/>
<path d="M175 0H144C135.163 0 128 7.16344 128 16C128 24.8366 135.163 32 144 32H175C183.837 32 191 24.8366 191 16C191 7.16344 183.837 0 175 0Z" fill="#142FCC"/>
<path d="M239 0H208C199.163 0 192 7.16344 192 16C192 24.8366 199.163 32 208 32H239C247.837 32 255 24.8366 255 16C255 7.16344 247.837 0 239 0Z" fill="#212648" fill-opacity="0.3"/>
</svg>
