<svg width="246" height="148" viewBox="0 0 246 148" fill="none" xmlns="http://www.w3.org/2000/svg">
<path d="M97 18L177 38V78L97 58V18Z" fill="url(#paint0_linear)"/>
<path d="M97 65.5002L137 75.5002V111L97 101V65.5002Z" fill="#535A89"/>
<path d="M111.5 69L76 87.5L107.5 108L137 94.5V75.5L111.5 69Z" fill="#EAEDF4"/>
<path d="M91 93L126.5 73L111.5 69L80 85.5L91 93Z" fill="#DAE0EF"/>
<path d="M69 79L114 91V131L69 119V79Z" fill="url(#paint1_linear)"/>
<path d="M85 95L98 98.3077V106L85 102.692V95Z" fill="#3FBCFF"/>
<path d="M114 122.5V105L137 94.5V111.5L114 122.5Z" fill="#DAE0EF"/>
<path opacity="0.2" d="M105 85L102 74L111.5 69L137 75.5V93L105 85Z" fill="#B7C2DD"/>
<path d="M115.763 89.3691C140.843 78.1672 152.619 99.9946 138.457 100.709C125.601 101.358 140.097 81.505 160.725 102.308" stroke="#AFBAD3" stroke-dasharray="2 2"/>
<path d="M166.319 105.959C166.024 105.802 165.807 105.484 165.737 105.032C165.666 104.58 165.751 104.027 166.034 103.493C166.318 102.959 166.729 102.579 167.143 102.385C167.556 102.19 167.941 102.192 168.237 102.348C168.532 102.505 168.749 102.823 168.819 103.275C168.89 103.727 168.805 104.28 168.521 104.814C168.238 105.348 167.827 105.728 167.413 105.922C166.999 106.117 166.614 106.115 166.319 105.959Z" stroke="#535A89"/>
<path d="M163.269 107.867C163.258 107.533 163.066 107.199 162.691 106.938C162.316 106.677 161.781 106.511 161.177 106.532C160.573 106.554 160.051 106.757 159.695 107.044C159.34 107.331 159.172 107.678 159.184 108.012C159.196 108.346 159.387 108.68 159.762 108.941C160.138 109.202 160.672 109.368 161.277 109.347C161.881 109.325 162.402 109.122 162.758 108.835C163.114 108.548 163.281 108.201 163.269 107.867Z" stroke="#535A89"/>
<path d="M166.493 109.715C165.262 110.485 163.416 109.755 162.371 108.083C161.325 106.412 161.476 104.433 162.707 103.663C163.939 102.892 165.785 103.623 166.83 105.294C167.875 106.965 167.725 108.944 166.493 109.715Z" fill="#C4C4C4"/>
<path d="M166.493 109.715C165.262 110.485 163.416 109.755 162.371 108.083C161.325 106.412 161.476 104.433 162.707 103.663C163.939 102.892 165.785 103.623 166.83 105.294C167.875 106.965 167.725 108.944 166.493 109.715Z" fill="#535A89"/>
<path d="M164.669 101.474L162.747 99.2816" stroke="#AFBAD3"/>
<path d="M157.733 103.448L153.584 100.015" stroke="#AFBAD3"/>
<defs>
<linearGradient id="paint0_linear" x1="137" y1="18" x2="137" y2="78" gradientUnits="userSpaceOnUse">
<stop stop-color="#7492FF"/>
<stop offset="1" stop-color="#7B72FB"/>
<stop offset="1" stop-color="#4538FF"/>
</linearGradient>
<linearGradient id="paint1_linear" x1="91.5" y1="79" x2="91.5" y2="131" gradientUnits="userSpaceOnUse">
<stop stop-color="#5AE1FF"/>
<stop offset="1" stop-color="#30A8FF"/>
</linearGradient>
</defs>
</svg>
