<svg width="48" height="24" viewBox="0 0 48 24" fill="none" xmlns="http://www.w3.org/2000/svg">
<path d="M15 3H3V15H5V5H15V3Z" fill="#9CADC2"/>
<path d="M6.5 6.5H19.5V19.5H6.5V6.5Z" fill="url(#paint0_linear)" stroke="#6A52FC"/>
<path d="M11.5 13.5V9.5H13.5C14.6046 9.5 15.5 10.3954 15.5 11.5V11.5C15.5 12.6046 14.6046 13.5 13.5 13.5V13.5M11.5 13.5V17M11.5 13.5C12.0537 13.5 12.7554 13.5 13.5 13.5M13.5 13.5L15.5 17" stroke="white"/>
<g opacity="0.4">
<path d="M39 3H27V15H29V5H39V3Z" fill="#9CADC2"/>
<path d="M30.5 6.5H43.5V19.5H30.5V6.5Z" fill="url(#paint1_linear)" stroke="#6A52FC"/>
<path d="M35.5 13.5V9.5H37.5C38.6046 9.5 39.5 10.3954 39.5 11.5V11.5C39.5 12.6046 38.6046 13.5 37.5 13.5V13.5M35.5 13.5V17M35.5 13.5C36.0537 13.5 36.7554 13.5 37.5 13.5M37.5 13.5L39.5 17" stroke="white"/>
</g>
<defs>
<linearGradient id="paint0_linear" x1="14.4" y1="6.67858" x2="14.4" y2="20.5744" gradientUnits="userSpaceOnUse">
<stop stop-color="#8CA5FF"/>
<stop offset="1" stop-color="#7B72FB"/>
</linearGradient>
<linearGradient id="paint1_linear" x1="38.4" y1="6.67858" x2="38.4" y2="20.5744" gradientUnits="userSpaceOnUse">
<stop stop-color="#8CA5FF"/>
<stop offset="1" stop-color="#7B72FB"/>
</linearGradient>
</defs>
</svg>
