<svg width="48" height="24" viewBox="0 0 48 24" fill="none" xmlns="http://www.w3.org/2000/svg">
<rect x="9" y="3" width="6" height="1" rx="0.5" fill="#212648"/>
<path d="M3.5 6.5H5.5M20.5 6.5H18.5M18.5 6.5V20.5C18.5 21.0523 18.0523 21.5 17.5 21.5H6.5C5.94772 21.5 5.5 21.0523 5.5 20.5V6.5M18.5 6.5H15.5M5.5 6.5H8.5M15.5 6.5V4.5C15.5 3.94772 15.0523 3.5 14.5 3.5H9.5C8.94772 3.5 8.5 3.94772 8.5 4.5V6.5M15.5 6.5H8.5" stroke="#212648" stroke-linecap="round"/>
<rect x="10" y="10" width="1" height="8" rx="0.5" fill="#212648"/>
<rect x="13" y="10" width="1" height="8" rx="0.5" fill="#212648"/>
<g opacity="0.4">
<rect x="33" y="3" width="6" height="1" rx="0.5" fill="#212648"/>
<path d="M27.5 6.5H29.5M44.5 6.5H42.5M42.5 6.5V20.5C42.5 21.0523 42.0523 21.5 41.5 21.5H30.5C29.9477 21.5 29.5 21.0523 29.5 20.5V6.5M42.5 6.5H39.5M29.5 6.5H32.5M39.5 6.5V4.5C39.5 3.94772 39.0523 3.5 38.5 3.5H33.5C32.9477 3.5 32.5 3.94772 32.5 4.5V6.5M39.5 6.5H32.5" stroke="#212648" stroke-linecap="round"/>
<rect x="34" y="10" width="1" height="8" rx="0.5" fill="#212648"/>
<rect x="37" y="10" width="1" height="8" rx="0.5" fill="#212648"/>
</g>
</svg>
