<svg width="16" height="16" viewBox="0 0 16 16" fill="none" xmlns="http://www.w3.org/2000/svg">
<path d="M4 13C4 13.5523 4.44772 14 5 14H9.31646C12.1114 14 13.6 12.5938 13.6 10.6836C13.6 8.9082 12.2815 7.83594 10.8658 7.77148V7.6543C12.16 7.37305 13.1139 6.48828 13.1139 5.07617C13.1139 3.27734 11.7286 2 8.98228 2H5C4.44771 2 4 2.44772 4 3V13ZM6.63089 11.9258V8.73828H8.83646C10.1003 8.73828 10.8841 9.44141 10.8841 10.4316C10.8841 11.334 10.2461 11.9258 8.7757 11.9258H6.63089ZM6.63089 7.02148V4.05078H8.62987C9.79646 4.05078 10.4587 4.63086 10.4587 5.49805C10.4587 6.44727 9.65671 7.02148 8.58127 7.02148H6.63089Z" fill="#212648"/>
</svg>
