<svg width="16" height="16" viewBox="0 0 16 16" fill="none" xmlns="http://www.w3.org/2000/svg">
<g clip-path="url(#clip0)">
<path d="M8.62744 13L8.54599 13.0814C6.78864 14.8388 3.93939 14.8388 2.18203 13.0814V13.0814C0.424674 11.3241 0.424674 8.47485 2.18203 6.71749L6.77823 2.12129C7.9498 0.94972 9.8493 0.94972 11.0209 2.12129V2.12129C12.1924 3.29287 12.1924 5.19236 11.0209 6.36393L6.47518 10.9096C5.8894 11.4954 4.93965 11.4954 4.35386 10.9096V10.9096C3.76807 10.3238 3.76807 9.37409 4.35386 8.7883L8.89955 4.24261" stroke="#212648" stroke-linecap="round" stroke-linejoin="round"/>
<path d="M10.5 14V10C10.5 9.72386 10.7239 9.5 11 9.5H12.2929C12.4255 9.5 12.5527 9.55268 12.6464 9.64645L13.3536 10.3536C13.4473 10.4473 13.5745 10.5 13.7071 10.5H15C15.2761 10.5 15.5 10.7239 15.5 11V14C15.5 14.2761 15.2761 14.5 15 14.5H11C10.7239 14.5 10.5 14.2761 10.5 14Z" stroke="#212648"/>
</g>
<defs>
<clipPath id="clip0">
<rect width="16" height="16" fill="white"/>
</clipPath>
</defs>
</svg>
