<svg width="48" height="24" viewBox="0 0 48 24" fill="none" xmlns="http://www.w3.org/2000/svg">
<path d="M8.5 5.5C8.5 3.29086 10.2909 1.5 12.5 1.5C14.7091 1.5 16.5 3.29086 16.5 5.5V18.5H8.5V5.5Z" stroke="#9CADC2"/>
<circle cx="12.5" cy="15.5" r="8" fill="#C4C4C4"/>
<circle cx="12.5" cy="15.5" r="8" fill="url(#paint0_linear)"/>
<circle cx="12.5" cy="15.5" r="8" stroke="#6A52FC"/>
<rect x="12" y="13" width="1" height="5" fill="white"/>
<g opacity="0.4">
<path d="M32.5 5.5C32.5 3.29086 34.2909 1.5 36.5 1.5C38.7091 1.5 40.5 3.29086 40.5 5.5V18.5H32.5V5.5Z" stroke="#9CADC2"/>
<circle cx="36.5" cy="15.5" r="8" fill="#C4C4C4"/>
<circle cx="36.5" cy="15.5" r="8" fill="url(#paint1_linear)"/>
<circle cx="36.5" cy="15.5" r="8" stroke="#6A52FC"/>
<rect x="36" y="13" width="1" height="5" fill="white"/>
</g>
<defs>
<linearGradient id="paint0_linear" x1="12.5" y1="7" x2="12.5" y2="24" gradientUnits="userSpaceOnUse">
<stop stop-color="#8CA5FF"/>
<stop offset="1" stop-color="#7B72FB"/>
</linearGradient>
<linearGradient id="paint1_linear" x1="36.5" y1="7" x2="36.5" y2="24" gradientUnits="userSpaceOnUse">
<stop stop-color="#8CA5FF"/>
<stop offset="1" stop-color="#7B72FB"/>
</linearGradient>
</defs>
</svg>
