<svg width="48" height="24" viewBox="0 0 48 24" fill="none" xmlns="http://www.w3.org/2000/svg">
<circle cx="12" cy="12" r="10" fill="#FD5962"/>
<path d="M17 7.41667V9.91667H16.9617M14.3913 9.91667H15.2609H16.9617M16.9617 9.91667C16.1373 8.19539 14.323 7 12.2174 7C9.33591 7 7 9.23858 7 12C7 14.7614 9.33591 17 12.2174 17C14.323 17 16.1373 15.8046 16.9617 14.0833" stroke="white" stroke-linecap="round" stroke-linejoin="round"/>
<circle cx="36" cy="12" r="10" fill="#DF3636"/>
<path d="M41 7.41667V9.91667H40.9617M38.3913 9.91667H39.2609H40.9617M40.9617 9.91667C40.1373 8.19539 38.323 7 36.2174 7C33.3359 7 31 9.23858 31 12C31 14.7614 33.3359 17 36.2174 17C38.323 17 40.1373 15.8046 40.9617 14.0833" stroke="white" stroke-linecap="round" stroke-linejoin="round"/>
</svg>
