<svg width="160" height="20" viewBox="0 0 160 20" fill="none" xmlns="http://www.w3.org/2000/svg">
<path fill-rule="evenodd" clip-rule="evenodd" d="M11.5357 11H9V10H11.5357V11ZM21.6786 11H16.6071V10H21.6786V11ZM31.8214 11H26.75V10H31.8214V11ZM41.9643 11H36.8929V10H41.9643V11ZM52.1071 11H47.0357V10H52.1071V11ZM62.25 11H57.1786V10H62.25V11ZM72.3929 11H67.3214V10H72.3929V11ZM82.5357 11H77.4643V10H82.5357V11ZM92.6786 11H87.6071V10H92.6786V11ZM102.821 11H97.75V10H102.821V11ZM112.964 11H107.893V10H112.964V11ZM123.107 11H118.036V10H123.107V11ZM133.25 11H128.179V10H133.25V11ZM143.393 11H138.321V10H143.393V11ZM151 11H148.464V10H151V11Z" fill="black"/>
</svg>
