<svg width="48" height="48" viewBox="0 0 48 48" fill="none" xmlns="http://www.w3.org/2000/svg">
<g clip-path="url(#clip0)">
<path d="M1.56608 35.9651L20.5563 3.82781C22.1045 1.2077 25.8955 1.20769 27.4437 3.8278L46.4339 35.9651C48.0095 38.6315 46.0874 42 42.9902 42H5.00979C1.91259 42 -0.00955379 38.6316 1.56608 35.9651Z" fill="#F2C94C"/>
<path d="M24.852 14H23.148C21.9873 14 21.0703 14.9848 21.153 16.1425L21.8673 26.1425C21.9421 27.1891 22.813 28 23.8622 28H24.1378C25.187 28 26.0579 27.1891 26.1327 26.1425L26.847 16.1425C26.9297 14.9848 26.0127 14 24.852 14Z" fill="white"/>
<circle cx="24" cy="33" r="3" fill="white"/>
</g>
<defs>
<clipPath id="clip0">
<rect width="48" height="48" fill="white"/>
</clipPath>
</defs>
</svg>
