<svg width="30" height="10" viewBox="0 0 30 10" fill="none" xmlns="http://www.w3.org/2000/svg">
<path d="M0.5 0.5H9.5V6C9.5 7.933 7.933 9.5 6 9.5H4C2.067 9.5 0.5 7.933 0.5 6V0.5Z" fill="white"/>
<path d="M0.5 0.5H9.5V6C9.5 7.933 7.933 9.5 6 9.5H4C2.067 9.5 0.5 7.933 0.5 6V0.5Z" stroke="#D3D4E0"/>
<path d="M10.5 0.5H19.5V6C19.5 7.933 17.933 9.5 16 9.5H14C12.067 9.5 10.5 7.933 10.5 6V0.5Z" fill="#EBEDF2"/>
<path d="M10.5 0.5H19.5V6C19.5 7.933 17.933 9.5 16 9.5H14C12.067 9.5 10.5 7.933 10.5 6V0.5Z" stroke="#D3D4E0"/>
<path d="M20.5 0.5H29.5V6C29.5 7.933 27.933 9.5 26 9.5H24C22.067 9.5 20.5 7.933 20.5 6V0.5Z" fill="#BCBDD1"/>
<path d="M20.5 0.5H29.5V6C29.5 7.933 27.933 9.5 26 9.5H24C22.067 9.5 20.5 7.933 20.5 6V0.5Z" stroke="#D3D4E0"/>
</svg>
