<svg width="32" height="16" viewBox="0 0 32 16" fill="none" xmlns="http://www.w3.org/2000/svg">
<g clip-path="url(#clip0)">
<path d="M8.91407 8.49987L8.20696 7.79276C7.03539 6.62119 5.13589 6.62119 3.96432 7.79276L1.843 9.91408C0.671427 11.0857 0.671427 12.9851 1.843 14.1567V14.1567C3.01457 15.3283 4.91407 15.3283 6.08564 14.1567V14.1567L8.20696 12.0354" stroke="#212648" stroke-linecap="round" stroke-linejoin="round"/>
<path d="M6.79255 9.20715L7.32288 9.73748C8.20156 10.6162 9.62618 10.6162 10.5049 9.73748L13.1565 7.08583C14.3281 5.91426 14.3281 4.01476 13.1565 2.84319V2.84319C11.9849 1.67162 10.0854 1.67162 8.91387 2.84319L6.79255 4.96451" stroke="#212648" stroke-linecap="round" stroke-linejoin="round"/>
</g>
<g opacity="0.4" clip-path="url(#clip1)">
<path d="M24.9141 8.49987L24.207 7.79276C23.0354 6.62119 21.1359 6.62119 19.9643 7.79276L17.843 9.91408C16.6714 11.0857 16.6714 12.9851 17.843 14.1567V14.1567C19.0146 15.3283 20.9141 15.3283 22.0856 14.1567V14.1567L24.207 12.0354" stroke="#212648" stroke-linecap="round" stroke-linejoin="round"/>
<path d="M22.7926 9.20715L23.3229 9.73748C24.2016 10.6162 25.6262 10.6162 26.5049 9.73748L29.1565 7.08583C30.3281 5.91426 30.3281 4.01476 29.1565 2.84319V2.84319C27.9849 1.67162 26.0854 1.67162 24.9139 2.84319L22.7926 4.96451" stroke="#212648" stroke-linecap="round" stroke-linejoin="round"/>
</g>
<defs>
<clipPath id="clip0">
<rect width="16" height="16" fill="white"/>
</clipPath>
<clipPath id="clip1">
<rect width="16" height="16" fill="white" transform="translate(16)"/>
</clipPath>
</defs>
</svg>
