<svg width="32" height="16" viewBox="0 0 32 16" fill="none" xmlns="http://www.w3.org/2000/svg">
<path d="M10.6587 1.5L15.1339 9.25H10.388L8.43233 5.9987L5.90674 1.5H10.6587ZM8 7.22004L9.22103 9.25H6.77897L8 7.22004ZM7.42173 6.24133L5.46999 9.4861L2.58879 13.9767L0.565103 9.77125L5.04651 2.01048L7.42173 6.24133ZM13.1594 14.5H3.44118L6.168 10.25H10.1053H15.2045L13.1594 14.5Z" stroke="#212648"/>
<g opacity="0.4">
<path d="M26.6587 1.5L31.1339 9.25H26.388L24.4323 5.9987L21.9067 1.5H26.6587ZM24 7.22004L25.221 9.25H22.779L24 7.22004ZM23.4217 6.24133L21.47 9.4861L18.5888 13.9767L16.5651 9.77125L21.0465 2.01048L23.4217 6.24133ZM29.1594 14.5H19.4412L22.168 10.25H26.1053H31.2045L29.1594 14.5Z" stroke="#212648"/>
</g>
</svg>
