<svg width="48" height="24" viewBox="0 0 48 24" fill="none" xmlns="http://www.w3.org/2000/svg">
<rect x="2.5" y="2.5" width="11" height="19" stroke="#6A52FC"/>
<rect x="2.5" y="2.5" width="18" height="8" fill="url(#paint0_linear)" stroke="#6A52FC"/>
<rect x="13.5" y="2.5" width="8" height="8" fill="url(#paint1_linear)" stroke="#6A52FC"/>
<path d="M17.5 8L15 5H20L17.5 8Z" fill="white"/>
<rect x="6" y="14" width="4" height="1" fill="#6A52FC"/>
<rect x="6" y="17" width="4" height="1" fill="#6A52FC"/>
<g opacity="0.4">
<rect x="26.5" y="2.5" width="11" height="19" stroke="#6A52FC"/>
<rect x="26.5" y="2.5" width="18" height="8" fill="url(#paint2_linear)" stroke="#6A52FC"/>
<rect x="37.5" y="2.5" width="8" height="8" fill="url(#paint3_linear)" stroke="#6A52FC"/>
<path d="M41.5 8L39 5H44L41.5 8Z" fill="white"/>
<rect x="30" y="14" width="4" height="1" fill="#6A52FC"/>
<rect x="30" y="17" width="4" height="1" fill="#6A52FC"/>
</g>
<defs>
<linearGradient id="paint0_linear" x1="11.5" y1="2" x2="11.5" y2="11" gradientUnits="userSpaceOnUse">
<stop stop-color="#8CA5FF"/>
<stop offset="1" stop-color="#7B72FB"/>
</linearGradient>
<linearGradient id="paint1_linear" x1="17.5" y1="2" x2="17.5" y2="11" gradientUnits="userSpaceOnUse">
<stop stop-color="#8CA5FF"/>
<stop offset="1" stop-color="#7B72FB"/>
</linearGradient>
<linearGradient id="paint2_linear" x1="35.5" y1="2" x2="35.5" y2="11" gradientUnits="userSpaceOnUse">
<stop stop-color="#8CA5FF"/>
<stop offset="1" stop-color="#7B72FB"/>
</linearGradient>
<linearGradient id="paint3_linear" x1="41.5" y1="2" x2="41.5" y2="11" gradientUnits="userSpaceOnUse">
<stop stop-color="#8CA5FF"/>
<stop offset="1" stop-color="#7B72FB"/>
</linearGradient>
</defs>
</svg>
