<svg width="48" height="24" viewBox="0 0 48 24" fill="none" xmlns="http://www.w3.org/2000/svg">
<path d="M8 8L2.5 2.5M2.5 2.5L2.5 6M2.5 2.5L6 2.5" stroke="#6A52FC"/>
<path d="M7.5 16.5L2.5 21.5M2.5 21.5L6 21.5M2.5 21.5L2.5 18" stroke="#6A52FC"/>
<path d="M16.5 7.5L21.5 2.5M21.5 2.5L21.5 6M21.5 2.5L18 2.5" stroke="#6A52FC"/>
<path d="M16.5 16.5L21.5 21.5M21.5 21.5L18 21.5M21.5 21.5L21.5 18" stroke="#6A52FC"/>
<rect x="7.5" y="7.5" width="9" height="9" fill="url(#paint0_linear)" stroke="#6A52FC"/>
<g opacity="0.4">
<path d="M32 8L26.5 2.5M26.5 2.5L26.5 6M26.5 2.5L30 2.5" stroke="#6A52FC"/>
<path d="M31.5 16.5L26.5 21.5M26.5 21.5L30 21.5M26.5 21.5L26.5 18" stroke="#6A52FC"/>
<path d="M40.5 7.5L45.5 2.5M45.5 2.5L45.5 6M45.5 2.5L42 2.5" stroke="#6A52FC"/>
<path d="M40.5 16.5L45.5 21.5M45.5 21.5L42 21.5M45.5 21.5L45.5 18" stroke="#6A52FC"/>
<rect x="31.5" y="7.5" width="9" height="9" fill="url(#paint1_linear)" stroke="#6A52FC"/>
</g>
<defs>
<linearGradient id="paint0_linear" x1="12" y1="8.76758" x2="12" y2="15.3846" gradientUnits="userSpaceOnUse">
<stop stop-color="#8CA5FF"/>
<stop offset="1" stop-color="#7B72FB"/>
</linearGradient>
<linearGradient id="paint1_linear" x1="36" y1="8.76758" x2="36" y2="15.3846" gradientUnits="userSpaceOnUse">
<stop stop-color="#8CA5FF"/>
<stop offset="1" stop-color="#7B72FB"/>
</linearGradient>
</defs>
</svg>
