<svg width="48" height="24" viewBox="0 0 48 24" fill="none" xmlns="http://www.w3.org/2000/svg">
<path d="M5 21H20V22H5V21Z" fill="#6A52FC"/>
<mask id="path-2-outside-1" maskUnits="userSpaceOnUse" x="9" y="3" width="7" height="12" fill="black">
<rect fill="white" x="9" y="3" width="7" height="12"/>
<path fill-rule="evenodd" clip-rule="evenodd" d="M12.5 4C11.1193 4 10 5.11929 10 6.5C10 7.70948 10.8589 8.71836 12 8.94999V14H13V8.94999C14.1411 8.71836 15 7.70948 15 6.5C15 5.11929 13.8807 4 12.5 4Z"/>
</mask>
<path fill-rule="evenodd" clip-rule="evenodd" d="M12.5 4C11.1193 4 10 5.11929 10 6.5C10 7.70948 10.8589 8.71836 12 8.94999V14H13V8.94999C14.1411 8.71836 15 7.70948 15 6.5C15 5.11929 13.8807 4 12.5 4Z" fill="url(#paint0_linear)"/>
<path d="M12 8.94999H13V8.13259L12.1989 7.96998L12 8.94999ZM12 14H11V15H12V14ZM13 14V15H14V14H13ZM13 8.94999L12.8011 7.96998L12 8.13259V8.94999H13ZM11 6.5C11 5.67157 11.6716 5 12.5 5V3C10.567 3 9 4.567 9 6.5H11ZM12.1989 7.96998C11.5147 7.83108 11 7.22452 11 6.5H9C9 8.19443 10.2031 9.60563 11.8011 9.93L12.1989 7.96998ZM11 8.94999V14H13V8.94999H11ZM12 15H13V13H12V15ZM14 14V8.94999H12V14H14ZM14 6.5C14 7.22452 13.4853 7.83108 12.8011 7.96998L13.1989 9.93C14.7969 9.60563 16 8.19443 16 6.5H14ZM12.5 5C13.3284 5 14 5.67157 14 6.5H16C16 4.567 14.433 3 12.5 3V5Z" fill="#6A52FC" mask="url(#path-2-outside-1)"/>
<path d="M6 13.5H5.5V14V19V19.5H6H19H19.5V19V14V13.5H19H6Z" fill="url(#paint1_linear)" stroke="#6A52FC"/>
<circle cx="19" cy="19" r="4" fill="url(#paint2_linear)" stroke="white" stroke-width="2"/>
<g opacity="0.4">
<path d="M29 21H44V22H29V21Z" fill="#6A52FC"/>
<mask id="path-7-outside-2" maskUnits="userSpaceOnUse" x="33" y="3" width="7" height="12" fill="black">
<rect fill="white" x="33" y="3" width="7" height="12"/>
<path fill-rule="evenodd" clip-rule="evenodd" d="M36.5 4C35.1193 4 34 5.11929 34 6.5C34 7.70948 34.8589 8.71836 36 8.94999V14H37V8.94999C38.1411 8.71836 39 7.70948 39 6.5C39 5.11929 37.8807 4 36.5 4Z"/>
</mask>
<path fill-rule="evenodd" clip-rule="evenodd" d="M36.5 4C35.1193 4 34 5.11929 34 6.5C34 7.70948 34.8589 8.71836 36 8.94999V14H37V8.94999C38.1411 8.71836 39 7.70948 39 6.5C39 5.11929 37.8807 4 36.5 4Z" fill="url(#paint3_linear)"/>
<path d="M36 8.94999H37V8.13259L36.1989 7.96998L36 8.94999ZM36 14H35V15H36V14ZM37 14V15H38V14H37ZM37 8.94999L36.8011 7.96998L36 8.13259V8.94999H37ZM35 6.5C35 5.67157 35.6716 5 36.5 5V3C34.567 3 33 4.567 33 6.5H35ZM36.1989 7.96998C35.5147 7.83108 35 7.22452 35 6.5H33C33 8.19443 34.2031 9.60563 35.8011 9.93L36.1989 7.96998ZM35 8.94999V14H37V8.94999H35ZM36 15H37V13H36V15ZM38 14V8.94999H36V14H38ZM38 6.5C38 7.22452 37.4853 7.83108 36.8011 7.96998L37.1989 9.93C38.7969 9.60563 40 8.19443 40 6.5H38ZM36.5 5C37.3284 5 38 5.67157 38 6.5H40C40 4.567 38.433 3 36.5 3V5Z" fill="#6A52FC" mask="url(#path-7-outside-2)"/>
<path d="M30 13.5H29.5V14V19V19.5H30H43H43.5V19V14V13.5H43H30Z" fill="url(#paint4_linear)" stroke="#6A52FC"/>
<circle cx="43" cy="19" r="4" fill="url(#paint5_linear)" stroke="white" stroke-width="2"/>
</g>
<defs>
<linearGradient id="paint0_linear" x1="12" y1="3.63965" x2="12" y2="9.15385" gradientUnits="userSpaceOnUse">
<stop stop-color="#8CA5FF"/>
<stop offset="1" stop-color="#7B72FB"/>
</linearGradient>
<linearGradient id="paint1_linear" x1="12.0667" y1="12.2196" x2="12.0667" y2="18.4231" gradientUnits="userSpaceOnUse">
<stop stop-color="#8CA5FF"/>
<stop offset="1" stop-color="#7B72FB"/>
</linearGradient>
<linearGradient id="paint2_linear" x1="19" y1="16.5757" x2="19" y2="21.5385" gradientUnits="userSpaceOnUse">
<stop stop-color="#8CA5FF"/>
<stop offset="1" stop-color="#7B72FB"/>
</linearGradient>
<linearGradient id="paint3_linear" x1="36" y1="3.63965" x2="36" y2="9.15385" gradientUnits="userSpaceOnUse">
<stop stop-color="#8CA5FF"/>
<stop offset="1" stop-color="#7B72FB"/>
</linearGradient>
<linearGradient id="paint4_linear" x1="36.0667" y1="12.2196" x2="36.0667" y2="18.4231" gradientUnits="userSpaceOnUse">
<stop stop-color="#8CA5FF"/>
<stop offset="1" stop-color="#7B72FB"/>
</linearGradient>
<linearGradient id="paint5_linear" x1="43" y1="16.5757" x2="43" y2="21.5385" gradientUnits="userSpaceOnUse">
<stop stop-color="#8CA5FF"/>
<stop offset="1" stop-color="#7B72FB"/>
</linearGradient>
</defs>
</svg>
