<svg width="48" height="24" viewBox="0 0 48 24" fill="none" xmlns="http://www.w3.org/2000/svg">
<path d="M16.5 22.5V1.5L3.5 1.5L3.5 22.5H16.5Z" stroke="#212648"/>
<path d="M12 8V4H8V8H12Z" fill="#C8CACF"/>
<path d="M12 14V10H8V14H12Z" fill="#C8CACF"/>
<path d="M12 20V16H8V20H12Z" fill="#C8CACF"/>
<path d="M17 12H23.25M23.25 12L20.25 9M23.25 12L20.25 15" stroke="#212648"/>
<g opacity="0.4">
<path opacity="0.4" d="M40.5 22.5V1.5L27.5 1.5V22.5H40.5Z" stroke="#212648"/>
<path opacity="0.4" d="M36 8V4H32V8H36Z" fill="#C8CACF"/>
<path opacity="0.4" d="M36 14V10H32V14H36Z" fill="#C8CACF"/>
<path opacity="0.4" d="M36 20V16H32V20H36Z" fill="#C8CACF"/>
<path opacity="0.4" d="M47.25 12L44.25 15M41 12H47.25H41ZM47.25 12L44.25 9L47.25 12Z" stroke="#212648"/>
</g>
</svg>
