<svg width="48" height="24" viewBox="0 0 48 24" fill="none" xmlns="http://www.w3.org/2000/svg">
<path d="M9.5 17.5H7.5C6.94772 17.5 6.5 17.0523 6.5 16.5V6.5C6.5 5.94772 6.94772 5.5 7.5 5.5H14.5L17.5 8.5V16.5C17.5 17.0523 17.0523 17.5 16.5 17.5H14.5M9.5 17.5V13.5H14.5V17.5M9.5 17.5H14.5M9.5 10.5H14.5" stroke="white" stroke-linecap="round" stroke-linejoin="round"/>
<g opacity="0.4">
<path d="M33.5 17.5H31.5C30.9477 17.5 30.5 17.0523 30.5 16.5V6.5C30.5 5.94772 30.9477 5.5 31.5 5.5H38.5L41.5 8.5V16.5C41.5 17.0523 41.0523 17.5 40.5 17.5H38.5M33.5 17.5V13.5H38.5V17.5M33.5 17.5H38.5M33.5 10.5H38.5" stroke="white" stroke-linecap="round" stroke-linejoin="round"/>
</g>
</svg>
