<svg width="292" height="201" viewBox="0 0 292 201" fill="none" xmlns="http://www.w3.org/2000/svg">
<g opacity="0.7">
<path d="M54.1429 79.8572C54.1429 79.226 54.6546 78.7144 55.2857 78.7144H67.5389C67.9168 78.7144 68.2703 78.9012 68.4831 79.2134L72.0883 84.501C72.3012 84.8133 72.6547 85.0001 73.0326 85.0001H90.7143C91.3455 85.0001 91.8572 85.5117 91.8572 86.1429V97.0001V114.143C91.8572 114.774 91.3455 115.286 90.7143 115.286H55.2857C54.6546 115.286 54.1429 114.774 54.1429 114.143V79.8572Z" fill="url(#paint0_linear)"/>
<path d="M50.7143 84.4285C50.7143 83.7973 51.226 83.2856 51.8572 83.2856H65.2531C65.6311 83.2856 65.9845 83.4725 66.1974 83.7847L69.8026 89.0723C70.0155 89.3845 70.369 89.5714 70.7469 89.5714H94.1429C94.7741 89.5714 95.2857 90.083 95.2857 90.7142V101.571V118.714C95.2857 119.345 94.7741 119.857 94.1429 119.857H51.8572C51.226 119.857 50.7143 119.345 50.7143 118.714V84.4285Z" fill="url(#paint1_linear)"/>
<path opacity="0.6" d="M46.7143 88.9998C46.7143 88.3686 47.226 87.8569 47.8572 87.8569H63.5389C63.9168 87.8569 64.2702 88.0437 64.4831 88.356L68.0883 93.6436C68.3012 93.9558 68.6547 94.1426 69.0326 94.1426H98.1429C98.774 94.1426 99.2857 94.6543 99.2857 95.2855V106.143V123.286C99.2857 123.917 98.7741 124.428 98.1429 124.428H47.8572C47.226 124.428 46.7143 123.917 46.7143 123.286V88.9998Z" fill="url(#paint2_linear)"/>
<path d="M67.2857 106.143H78.7143M73 100.429V111.857" stroke="white" stroke-width="1.14286" stroke-linecap="round" stroke-linejoin="round"/>
</g>
<rect x="0.5" y="0.5" width="145" height="200" stroke="#979AB8" stroke-dasharray="4 4"/>
<rect x="146.5" y="0.5" width="145" height="200" fill="#EFF1FF"/>
<g opacity="0.7">
<path d="M200.143 79.8572C200.143 79.226 200.655 78.7144 201.286 78.7144H213.539C213.917 78.7144 214.27 78.9012 214.483 79.2134L218.088 84.501C218.301 84.8133 218.655 85.0001 219.033 85.0001H236.714C237.345 85.0001 237.857 85.5117 237.857 86.1429V97.0001V114.143C237.857 114.774 237.345 115.286 236.714 115.286H201.286C200.655 115.286 200.143 114.774 200.143 114.143V79.8572Z" fill="url(#paint3_linear)"/>
<path d="M196.714 84.4285C196.714 83.7973 197.226 83.2856 197.857 83.2856H211.253C211.631 83.2856 211.985 83.4725 212.197 83.7847L215.803 89.0723C216.015 89.3845 216.369 89.5714 216.747 89.5714H240.143C240.774 89.5714 241.286 90.083 241.286 90.7142V101.571V118.714C241.286 119.345 240.774 119.857 240.143 119.857H197.857C197.226 119.857 196.714 119.345 196.714 118.714V84.4285Z" fill="url(#paint4_linear)"/>
<path opacity="0.6" d="M192.714 88.9998C192.714 88.3686 193.226 87.8569 193.857 87.8569H209.539C209.917 87.8569 210.27 88.0437 210.483 88.356L214.088 93.6436C214.301 93.9558 214.655 94.1426 215.033 94.1426H244.143C244.774 94.1426 245.286 94.6543 245.286 95.2855V106.143V123.286C245.286 123.917 244.774 124.428 244.143 124.428H193.857C193.226 124.428 192.714 123.917 192.714 123.286V88.9998Z" fill="url(#paint5_linear)"/>
<path d="M213.286 106.143H224.714M219 100.429V111.857" stroke="white" stroke-width="1.14286" stroke-linecap="round" stroke-linejoin="round"/>
</g>
<rect x="146.5" y="0.5" width="145" height="200" stroke="#5E76FD" stroke-dasharray="4 4"/>
<defs>
<linearGradient id="paint0_linear" x1="73" y1="78.7144" x2="73" y2="115.286" gradientUnits="userSpaceOnUse">
<stop stop-color="#8CA5FF"/>
<stop offset="1" stop-color="#7B72FB"/>
</linearGradient>
<linearGradient id="paint1_linear" x1="73" y1="83.2856" x2="73" y2="119.857" gradientUnits="userSpaceOnUse">
<stop stop-color="#5A75FF"/>
<stop offset="1" stop-color="#6254FF"/>
</linearGradient>
<linearGradient id="paint2_linear" x1="79.1936" y1="87.2501" x2="70.904" y2="127.819" gradientUnits="userSpaceOnUse">
<stop stop-color="#7B72FB"/>
<stop offset="1" stop-color="#4ADEFF"/>
</linearGradient>
<linearGradient id="paint3_linear" x1="219" y1="78.7144" x2="219" y2="115.286" gradientUnits="userSpaceOnUse">
<stop stop-color="#8CA5FF"/>
<stop offset="1" stop-color="#7B72FB"/>
</linearGradient>
<linearGradient id="paint4_linear" x1="219" y1="83.2856" x2="219" y2="119.857" gradientUnits="userSpaceOnUse">
<stop stop-color="#5A75FF"/>
<stop offset="1" stop-color="#6254FF"/>
</linearGradient>
<linearGradient id="paint5_linear" x1="225.194" y1="87.2501" x2="216.904" y2="127.819" gradientUnits="userSpaceOnUse">
<stop stop-color="#7B72FB"/>
<stop offset="1" stop-color="#4ADEFF"/>
</linearGradient>
</defs>
</svg>
