<svg width="48" height="24" viewBox="0 0 48 24" fill="none" xmlns="http://www.w3.org/2000/svg">
<path d="M2.21984 12.5858C1.98856 12.3521 1.8018 12.152 1.66409 12C1.8018 11.848 1.98856 11.6479 2.21984 11.4142C2.76377 10.8645 3.55105 10.1315 4.52273 9.39932C6.47758 7.92626 9.12102 6.5 12 6.5C14.879 6.5 17.5224 7.92626 19.4773 9.39932C20.4489 10.1315 21.2362 10.8645 21.7802 11.4142C22.0114 11.6479 22.1982 11.848 22.3359 12C22.1982 12.152 22.0114 12.3521 21.7802 12.5858C21.2362 13.1355 20.4489 13.8685 19.4773 14.6007C17.5224 16.0737 14.879 17.5 12 17.5C9.12102 17.5 6.47758 16.0737 4.52273 14.6007C3.55105 13.8685 2.76377 13.1355 2.21984 12.5858Z" fill="url(#paint0_linear)" stroke="#6A52FC"/>
<circle cx="12" cy="12" r="2.5" fill="#8AA0FF" stroke="white"/>
<g opacity="0.4">
<path d="M26.2198 12.5858C25.9886 12.3521 25.8018 12.152 25.6641 12C25.8018 11.848 25.9886 11.6479 26.2198 11.4142C26.7638 10.8645 27.5511 10.1315 28.5227 9.39932C30.4776 7.92626 33.121 6.5 36 6.5C38.879 6.5 41.5224 7.92626 43.4773 9.39932C44.4489 10.1315 45.2362 10.8645 45.7802 11.4142C46.0114 11.6479 46.1982 11.848 46.3359 12C46.1982 12.152 46.0114 12.3521 45.7802 12.5858C45.2362 13.1355 44.4489 13.8685 43.4773 14.6007C41.5224 16.0737 38.879 17.5 36 17.5C33.121 17.5 30.4776 16.0737 28.5227 14.6007C27.5511 13.8685 26.7638 13.1355 26.2198 12.5858Z" fill="url(#paint1_linear)" stroke="#6A52FC"/>
<circle cx="36" cy="12" r="2.5" fill="#8AA0FF" stroke="white"/>
</g>
<defs>
<linearGradient id="paint0_linear" x1="12" y1="7.15136" x2="12" y2="17.0769" gradientUnits="userSpaceOnUse">
<stop stop-color="#8CA5FF"/>
<stop offset="1" stop-color="#7B72FB"/>
</linearGradient>
<linearGradient id="paint1_linear" x1="36" y1="7.15136" x2="36" y2="17.0769" gradientUnits="userSpaceOnUse">
<stop stop-color="#8CA5FF"/>
<stop offset="1" stop-color="#7B72FB"/>
</linearGradient>
</defs>
</svg>
