<svg width="131" height="32" viewBox="0 0 131 32" fill="none" xmlns="http://www.w3.org/2000/svg">
<g opacity="0.4">
<path opacity="0.4" d="M115 0.5H130.5V31.5H115C106.44 31.5 99.5 24.5604 99.5 16C99.5 7.43959 106.44 0.5 115 0.5Z" stroke="#5C6182"/>
</g>
<path d="M82 0.5H97.5V31.5H82C73.4396 31.5 66.5 24.5604 66.5 16C66.5 7.43959 73.4396 0.5 82 0.5Z" fill="#4D5379"/>
<path d="M82 0.5H97.5V31.5H82C73.4396 31.5 66.5 24.5604 66.5 16C66.5 7.43959 73.4396 0.5 82 0.5Z" stroke="#5C6182"/>
<path d="M49 0.5H64.5V31.5H49C40.4396 31.5 33.5 24.5604 33.5 16C33.5 7.43959 40.4396 0.5 49 0.5Z" fill="#5C6182"/>
<path d="M49 0.5H64.5V31.5H49C40.4396 31.5 33.5 24.5604 33.5 16C33.5 7.43959 40.4396 0.5 49 0.5Z" stroke="#5C6182"/>
<path d="M16 0.5H31.5V31.5H16C7.43959 31.5 0.5 24.5604 0.5 16C0.5 7.43959 7.43959 0.5 16 0.5Z" stroke="#5C6182"/>
</svg>
