<svg width="480" height="39" viewBox="0 0 480 39" fill="none" xmlns="http://www.w3.org/2000/svg">
<g clip-path="url(#clip0)">
<rect width="480" height="10" rx="5" fill="#2B388F"/>
<path fill-rule="evenodd" clip-rule="evenodd" d="M34 4L446 4V9H34L34 4Z" fill="#0F1749"/>
<g filter="url(#filter0_d)">
<path fill-rule="evenodd" clip-rule="evenodd" d="M35 5H445V37.0755C445 37.8853 444.088 38.3593 443.425 37.8938L441.03 36.2113C439.995 35.4845 438.616 35.4845 437.581 36.2113L435.336 37.7887C434.301 38.5155 432.921 38.5155 431.887 37.7887L429.641 36.2113C428.606 35.4845 427.227 35.4845 426.192 36.2113L423.947 37.7887C422.912 38.5155 421.533 38.5155 420.498 37.7887L418.252 36.2113C417.217 35.4845 415.838 35.4845 414.803 36.2113L412.558 37.7887C411.523 38.5155 410.144 38.5155 409.109 37.7887L406.863 36.2113C405.829 35.4845 404.449 35.4845 403.414 36.2113L401.169 37.7887C400.134 38.5155 398.755 38.5155 397.72 37.7887L395.474 36.2113C394.44 35.4845 393.06 35.4845 392.026 36.2113L389.78 37.7887C388.745 38.5155 387.366 38.5155 386.331 37.7887L384.086 36.2113C383.051 35.4845 381.671 35.4845 380.637 36.2113L378.391 37.7887C377.356 38.5155 375.977 38.5155 374.942 37.7887L372.697 36.2113C371.662 35.4845 370.283 35.4845 369.248 36.2113L367.002 37.7887C365.967 38.5155 364.588 38.5155 363.553 37.7887L361.308 36.2113C360.273 35.4845 358.894 35.4845 357.859 36.2113L355.613 37.7887C354.579 38.5155 353.199 38.5155 352.164 37.7887L349.919 36.2113C348.884 35.4845 347.505 35.4845 346.47 36.2113L344.224 37.7887C343.19 38.5155 341.81 38.5155 340.776 37.7887L338.53 36.2113C337.495 35.4845 336.116 35.4845 335.081 36.2113L332.836 37.7887C331.801 38.5155 330.421 38.5155 329.387 37.7887L327.141 36.2113C326.106 35.4845 324.727 35.4845 323.692 36.2113L321.447 37.7887C320.412 38.5155 319.033 38.5155 317.998 37.7887L315.752 36.2113C314.717 35.4845 313.338 35.4845 312.303 36.2113L310.058 37.7887C309.023 38.5155 307.644 38.5155 306.609 37.7887L304.363 36.2113C303.329 35.4845 301.949 35.4845 300.914 36.2113L298.669 37.7887C297.634 38.5155 296.255 38.5155 295.22 37.7887L292.974 36.2113C291.94 35.4845 290.56 35.4845 289.526 36.2113L287.28 37.7887C286.245 38.5155 284.866 38.5155 283.831 37.7887L281.586 36.2113C280.551 35.4845 279.171 35.4845 278.137 36.2113L275.891 37.7887C274.856 38.5155 273.477 38.5155 272.442 37.7887L270.197 36.2113C269.162 35.4845 267.783 35.4845 266.748 36.2113L264.502 37.7887C263.467 38.5155 262.088 38.5155 261.053 37.7887L258.808 36.2113C257.773 35.4845 256.394 35.4845 255.359 36.2113L253.113 37.7887C252.079 38.5155 250.699 38.5155 249.664 37.7887L247.419 36.2113C246.384 35.4845 245.005 35.4845 243.97 36.2113L241.724 37.7887C240.69 38.5155 239.31 38.5155 238.276 37.7887L236.03 36.2113C234.995 35.4845 233.616 35.4845 232.581 36.2113L230.336 37.7887C229.301 38.5155 227.921 38.5155 226.887 37.7887L224.641 36.2113C223.606 35.4845 222.227 35.4845 221.192 36.2113L218.947 37.7887C217.912 38.5155 216.533 38.5155 215.498 37.7887L213.252 36.2113C212.217 35.4845 210.838 35.4845 209.803 36.2113L207.558 37.7887C206.523 38.5155 205.144 38.5155 204.109 37.7887L201.863 36.2113C200.829 35.4845 199.449 35.4845 198.414 36.2113L196.169 37.7887C195.134 38.5155 193.755 38.5155 192.72 37.7887L190.474 36.2113C189.44 35.4845 188.06 35.4845 187.026 36.2113L184.78 37.7887C183.745 38.5155 182.366 38.5155 181.331 37.7887L179.086 36.2113C178.051 35.4845 176.671 35.4845 175.637 36.2113L173.391 37.7887C172.356 38.5155 170.977 38.5155 169.942 37.7887L167.697 36.2113C166.662 35.4845 165.283 35.4845 164.248 36.2113L162.002 37.7887C160.967 38.5155 159.588 38.5155 158.553 37.7887L156.308 36.2113C155.273 35.4845 153.894 35.4845 152.859 36.2113L150.613 37.7887C149.579 38.5155 148.199 38.5155 147.164 37.7887L144.919 36.2113C143.884 35.4845 142.505 35.4845 141.47 36.2113L139.224 37.7887C138.19 38.5155 136.81 38.5155 135.776 37.7887L133.53 36.2113C132.495 35.4845 131.116 35.4845 130.081 36.2113L127.836 37.7887C126.801 38.5155 125.421 38.5155 124.387 37.7887L122.141 36.2113C121.106 35.4845 119.727 35.4845 118.692 36.2113L116.447 37.7887C115.412 38.5155 114.033 38.5155 112.998 37.7887L110.752 36.2113C109.717 35.4845 108.338 35.4845 107.303 36.2113L105.058 37.7887C104.023 38.5155 102.644 38.5155 101.609 37.7887L99.3633 36.2113C98.3286 35.4845 96.9492 35.4845 95.9145 36.2113L93.6688 37.7887C92.6341 38.5155 91.2548 38.5155 90.22 37.7887L87.9744 36.2113C86.9397 35.4845 85.5603 35.4845 84.5256 36.2113L82.28 37.7887C81.2452 38.5155 79.8659 38.5155 78.8312 37.7887L76.5855 36.2113C75.5508 35.4845 74.1714 35.4845 73.1367 36.2113L70.8911 37.7887C69.8564 38.5155 68.477 38.5155 67.4423 37.7887L65.1966 36.2113C64.1619 35.4845 62.7825 35.4845 61.7478 36.2113L59.5022 37.7887C58.4675 38.5155 57.0881 38.5155 56.0534 37.7887L53.8077 36.2113C52.773 35.4845 51.3937 35.4845 50.3589 36.2113L48.1133 37.7887C47.0786 38.5155 45.6992 38.5155 44.6645 37.7887L42.4188 36.2113C41.3841 35.4845 40.0048 35.4845 38.97 36.2113L36.5748 37.8938C35.9122 38.3593 35 37.8853 35 37.0755V5Z" fill="white"/>
</g>
<mask id="mask0" mask-type="alpha" maskUnits="userSpaceOnUse" x="35" y="5" width="410" height="34">
<path fill-rule="evenodd" clip-rule="evenodd" d="M35 5H445V37.0755C445 37.8853 444.088 38.3593 443.425 37.8938L441.03 36.2113C439.995 35.4845 438.616 35.4845 437.581 36.2113L435.336 37.7887C434.301 38.5155 432.921 38.5155 431.887 37.7887L429.641 36.2113C428.606 35.4845 427.227 35.4845 426.192 36.2113L423.947 37.7887C422.912 38.5155 421.533 38.5155 420.498 37.7887L418.252 36.2113C417.217 35.4845 415.838 35.4845 414.803 36.2113L412.558 37.7887C411.523 38.5155 410.144 38.5155 409.109 37.7887L406.863 36.2113C405.829 35.4845 404.449 35.4845 403.414 36.2113L401.169 37.7887C400.134 38.5155 398.755 38.5155 397.72 37.7887L395.474 36.2113C394.44 35.4845 393.06 35.4845 392.026 36.2113L389.78 37.7887C388.745 38.5155 387.366 38.5155 386.331 37.7887L384.086 36.2113C383.051 35.4845 381.671 35.4845 380.637 36.2113L378.391 37.7887C377.356 38.5155 375.977 38.5155 374.942 37.7887L372.697 36.2113C371.662 35.4845 370.283 35.4845 369.248 36.2113L367.002 37.7887C365.967 38.5155 364.588 38.5155 363.553 37.7887L361.308 36.2113C360.273 35.4845 358.894 35.4845 357.859 36.2113L355.613 37.7887C354.579 38.5155 353.199 38.5155 352.164 37.7887L349.919 36.2113C348.884 35.4845 347.505 35.4845 346.47 36.2113L344.224 37.7887C343.19 38.5155 341.81 38.5155 340.776 37.7887L338.53 36.2113C337.495 35.4845 336.116 35.4845 335.081 36.2113L332.836 37.7887C331.801 38.5155 330.421 38.5155 329.387 37.7887L327.141 36.2113C326.106 35.4845 324.727 35.4845 323.692 36.2113L321.447 37.7887C320.412 38.5155 319.033 38.5155 317.998 37.7887L315.752 36.2113C314.717 35.4845 313.338 35.4845 312.303 36.2113L310.058 37.7887C309.023 38.5155 307.644 38.5155 306.609 37.7887L304.363 36.2113C303.329 35.4845 301.949 35.4845 300.914 36.2113L298.669 37.7887C297.634 38.5155 296.255 38.5155 295.22 37.7887L292.974 36.2113C291.94 35.4845 290.56 35.4845 289.526 36.2113L287.28 37.7887C286.245 38.5155 284.866 38.5155 283.831 37.7887L281.586 36.2113C280.551 35.4845 279.171 35.4845 278.137 36.2113L275.891 37.7887C274.856 38.5155 273.477 38.5155 272.442 37.7887L270.197 36.2113C269.162 35.4845 267.783 35.4845 266.748 36.2113L264.502 37.7887C263.467 38.5155 262.088 38.5155 261.053 37.7887L258.808 36.2113C257.773 35.4845 256.394 35.4845 255.359 36.2113L253.113 37.7887C252.079 38.5155 250.699 38.5155 249.664 37.7887L247.419 36.2113C246.384 35.4845 245.005 35.4845 243.97 36.2113L241.724 37.7887C240.69 38.5155 239.31 38.5155 238.276 37.7887L236.03 36.2113C234.995 35.4845 233.616 35.4845 232.581 36.2113L230.336 37.7887C229.301 38.5155 227.921 38.5155 226.887 37.7887L224.641 36.2113C223.606 35.4845 222.227 35.4845 221.192 36.2113L218.947 37.7887C217.912 38.5155 216.533 38.5155 215.498 37.7887L213.252 36.2113C212.217 35.4845 210.838 35.4845 209.803 36.2113L207.558 37.7887C206.523 38.5155 205.144 38.5155 204.109 37.7887L201.863 36.2113C200.829 35.4845 199.449 35.4845 198.414 36.2113L196.169 37.7887C195.134 38.5155 193.755 38.5155 192.72 37.7887L190.474 36.2113C189.44 35.4845 188.06 35.4845 187.026 36.2113L184.78 37.7887C183.745 38.5155 182.366 38.5155 181.331 37.7887L179.086 36.2113C178.051 35.4845 176.671 35.4845 175.637 36.2113L173.391 37.7887C172.356 38.5155 170.977 38.5155 169.942 37.7887L167.697 36.2113C166.662 35.4845 165.283 35.4845 164.248 36.2113L162.002 37.7887C160.967 38.5155 159.588 38.5155 158.553 37.7887L156.308 36.2113C155.273 35.4845 153.894 35.4845 152.859 36.2113L150.613 37.7887C149.579 38.5155 148.199 38.5155 147.164 37.7887L144.919 36.2113C143.884 35.4845 142.505 35.4845 141.47 36.2113L139.224 37.7887C138.19 38.5155 136.81 38.5155 135.776 37.7887L133.53 36.2113C132.495 35.4845 131.116 35.4845 130.081 36.2113L127.836 37.7887C126.801 38.5155 125.421 38.5155 124.387 37.7887L122.141 36.2113C121.106 35.4845 119.727 35.4845 118.692 36.2113L116.447 37.7887C115.412 38.5155 114.033 38.5155 112.998 37.7887L110.752 36.2113C109.717 35.4845 108.338 35.4845 107.303 36.2113L105.058 37.7887C104.023 38.5155 102.644 38.5155 101.609 37.7887L99.3633 36.2113C98.3286 35.4845 96.9492 35.4845 95.9145 36.2113L93.6688 37.7887C92.6341 38.5155 91.2548 38.5155 90.22 37.7887L87.9744 36.2113C86.9397 35.4845 85.5603 35.4845 84.5256 36.2113L82.28 37.7887C81.2452 38.5155 79.8659 38.5155 78.8312 37.7887L76.5855 36.2113C75.5508 35.4845 74.1714 35.4845 73.1367 36.2113L70.8911 37.7887C69.8564 38.5155 68.477 38.5155 67.4423 37.7887L65.1966 36.2113C64.1619 35.4845 62.7825 35.4845 61.7478 36.2113L59.5022 37.7887C58.4675 38.5155 57.0881 38.5155 56.0534 37.7887L53.8077 36.2113C52.773 35.4845 51.3937 35.4845 50.3589 36.2113L48.1133 37.7887C47.0786 38.5155 45.6992 38.5155 44.6645 37.7887L42.4188 36.2113C41.3841 35.4845 40.0048 35.4845 38.97 36.2113L36.5748 37.8938C35.9122 38.3593 35 37.8853 35 37.0755L35 5Z" fill="white"/>
</mask>
<g mask="url(#mask0)">
<g opacity="0.728283" filter="url(#filter1_f)">
<rect x="27" y="1" width="426" height="6" fill="#8C90AE"/>
</g>
<g filter="url(#filter2_f)">
<rect x="27" y="4" width="426" height="3" fill="#B1B6D5"/>
</g>
</g>
<rect opacity="0.5" x="35.25" y="13.25" width="409.5" height="0.5" stroke="#C5C5C8" stroke-width="0.5" stroke-dasharray="1 1"/>
</g>
<defs>
<filter id="filter0_d" x="33" y="4" width="414" height="37.3338" filterUnits="userSpaceOnUse" color-interpolation-filters="sRGB">
<feFlood flood-opacity="0" result="BackgroundImageFix"/>
<feColorMatrix in="SourceAlpha" type="matrix" values="0 0 0 0 0 0 0 0 0 0 0 0 0 0 0 0 0 0 127 0"/>
<feOffset dy="1"/>
<feGaussianBlur stdDeviation="1"/>
<feColorMatrix type="matrix" values="0 0 0 0 0.614951 0 0 0 0 0.614951 0 0 0 0 0.614951 0 0 0 0.5 0"/>
<feBlend mode="normal" in2="BackgroundImageFix" result="effect1_dropShadow"/>
<feBlend mode="normal" in="SourceGraphic" in2="effect1_dropShadow" result="shape"/>
</filter>
<filter id="filter1_f" x="18.8452" y="-7.15485" width="442.31" height="22.3097" filterUnits="userSpaceOnUse" color-interpolation-filters="sRGB">
<feFlood flood-opacity="0" result="BackgroundImageFix"/>
<feBlend mode="normal" in="SourceGraphic" in2="BackgroundImageFix" result="shape"/>
<feGaussianBlur stdDeviation="4.07742" result="effect1_foregroundBlur"/>
</filter>
<filter id="filter2_f" x="24.2817" y="1.28172" width="431.437" height="8.43656" filterUnits="userSpaceOnUse" color-interpolation-filters="sRGB">
<feFlood flood-opacity="0" result="BackgroundImageFix"/>
<feBlend mode="normal" in="SourceGraphic" in2="BackgroundImageFix" result="shape"/>
<feGaussianBlur stdDeviation="1.35914" result="effect1_foregroundBlur"/>
</filter>
<clipPath id="clip0">
<rect width="480" height="39" fill="white"/>
</clipPath>
</defs>
</svg>
