<svg width="48" height="24" viewBox="0 0 48 24" fill="none" xmlns="http://www.w3.org/2000/svg">
<path d="M8.5 9V8.5H8H6.20711L12 2.70711L17.7929 8.5H16H15.5V9V16.5H8.5V9Z" fill="url(#paint0_linear)" stroke="#6A52FC"/>
<path d="M20 20H4V16H3V21H21V16H20V20Z" fill="#6A52FC"/>
<g opacity="0.4">
<path d="M32.5 9V8.5H32H30.2071L36 2.70711L41.7929 8.5H40H39.5V9V16.5H32.5V9Z" fill="url(#paint1_linear)" stroke="#6A52FC"/>
<path d="M44 20H28V16H27V21H45V16H44V20Z" fill="#6A52FC"/>
</g>
<defs>
<linearGradient id="paint0_linear" x1="12" y1="2.63244" x2="12" y2="11.3173" gradientUnits="userSpaceOnUse">
<stop stop-color="#8CA5FF"/>
<stop offset="1" stop-color="#7B72FB"/>
</linearGradient>
<linearGradient id="paint1_linear" x1="36" y1="2.63244" x2="36" y2="11.3173" gradientUnits="userSpaceOnUse">
<stop stop-color="#8CA5FF"/>
<stop offset="1" stop-color="#7B72FB"/>
</linearGradient>
</defs>
</svg>
