<svg width="212" height="54" viewBox="0 0 212 54" fill="none" xmlns="http://www.w3.org/2000/svg">
<g clip-path="url(#clip0)">
<rect y="18" width="212" height="36" rx="2" fill="url(#paint0_linear)"/>
<path opacity="0.3" fill-rule="evenodd" clip-rule="evenodd" d="M29.3414 55H46C46 52.7909 44.2091 51 42 51C41.5551 51 41.1272 51.0726 40.7274 51.2067C39.9649 48.769 37.689 47 35 47C31.6863 47 29 49.6863 29 53C29 53.7013 29.1203 54.3744 29.3414 55Z" fill="white"/>
<g opacity="0.6">
<path opacity="0.2" d="M75 29H70L74 36L70 43H75L79 36L75 29Z" fill="white"/>
<path opacity="0.2" d="M83 29H78L82 36L78 43H83L87 36L83 29Z" fill="white"/>
<path opacity="0.2" d="M91 29H86L90 36L86 43H91L95 36L91 29Z" fill="white"/>
</g>
<g filter="url(#filter0_dd)">
<rect opacity="0.3" x="16.1962" y="27.1147" width="24" height="21" transform="rotate(30 16.1962 27.1147)" fill="url(#paint1_linear)"/>
<rect opacity="0.3" x="20.5263" y="29.6147" width="14" height="21" transform="rotate(30 20.5263 29.6147)" fill="url(#paint2_linear)"/>
<path d="M35.9808 40.8468L38.8185 35.9317C40.707 32.6607 40.2905 28.5483 37.7846 25.7224L31.7846 36.1147L32.6506 36.6147L35.9808 40.8468Z" fill="url(#paint3_linear)"/>
<path d="M15.1962 28.8468L18.0339 23.9317C19.9224 20.6607 23.6921 18.9652 27.3923 19.7224L21.3923 30.1147L20.5263 29.6147L15.1962 28.8468Z" fill="url(#paint4_linear)"/>
<g filter="url(#filter1_i)">
<path d="M32.6507 36.6147L36.8356 29.3662C40.262 23.4315 41.4179 16.4548 40.0885 9.73206C33.6018 11.9421 28.1377 16.4315 24.7112 22.3662L20.5263 29.6147L32.6507 36.6147Z" fill="white"/>
</g>
<g style="mix-blend-mode:multiply" opacity="0.4" filter="url(#filter2_f)">
<path d="M22.2583 30.6147C29.5753 16.9413 35.4234 12.8122 40.0884 9.73203C32.3972 14.8102 26.1245 25.9187 23.9905 31.6148L22.2583 30.6147Z" fill="#FFDA55"/>
</g>
<path opacity="0.3" d="M14.5791 39.8674C15.0994 36.957 17.2554 34.6097 20.1112 33.8445V33.8445C23.8089 32.8537 27.6096 35.048 28.6003 38.7456V38.7456C29.3656 41.6015 28.4108 44.6423 26.1504 46.5481L15.3515 55.6528C13.9204 56.8595 11.7642 55.6145 12.0936 53.7718L14.5791 39.8674Z" fill="#FCFF66"/>
<path opacity="0.4" d="M17.985 38.2531C18.3385 36.2758 19.8032 34.6812 21.7433 34.1614V34.1614C24.2552 33.4883 26.8372 34.979 27.5103 37.491V37.491C28.0302 39.4311 27.3815 41.4968 25.8459 42.7915L17.7382 49.6274C17.0269 50.2271 15.9552 49.6083 16.1189 48.6925L17.985 38.2531Z" fill="#FCFF66"/>
<path d="M20.0944 37.9807C20.3162 36.74 21.2353 35.7394 22.4527 35.4132V35.4132C24.0289 34.9909 25.6491 35.9263 26.0715 37.5025V37.5025C26.3977 38.7199 25.9906 40.0162 25.0271 40.8286L19.9395 45.1181C19.4932 45.4944 18.8207 45.1061 18.9234 44.5314L20.0944 37.9807Z" fill="#FCFF66"/>
<path d="M32.8564 18.2584C33.4087 17.3018 34.6318 16.974 35.5884 17.5263V17.5263C36.545 18.0786 36.8728 19.3018 36.3205 20.2584L35.3205 21.9904L31.8564 19.9904L32.8564 18.2584Z" fill="#FFDB7E"/>
<path d="M45.3468 26.6243L45.0847 28.1587L46.0788 29.3564L44.5445 29.0943L43.3468 30.0884L43.6089 28.5541L42.6147 27.3564L44.1491 27.6185L45.3468 26.6243Z" fill="white"/>
<path d="M29.0622 6.83014L28.669 9.13164L30.1603 10.9282L27.8588 10.5351L26.0622 12.0263L26.4553 9.7248L24.9641 7.92822L27.2656 8.32136L29.0622 6.83014Z" fill="#FFD25C"/>
</g>
<path opacity="0.2" fill-rule="evenodd" clip-rule="evenodd" d="M-0.658589 32H16C16 29.7909 14.2091 28 12 28C11.5551 28 11.1272 28.0726 10.7274 28.2067C9.96492 25.769 7.68904 24 5 24C1.68629 24 -1 26.6863 -1 30C-1 30.7013 -0.879692 31.3744 -0.658589 32Z" fill="white"/>
</g>
<defs>
<filter id="filter0_dd" x="-16" y="-5" width="89.6769" height="97.3634" filterUnits="userSpaceOnUse" color-interpolation-filters="sRGB">
<feFlood flood-opacity="0" result="BackgroundImageFix"/>
<feColorMatrix in="SourceAlpha" type="matrix" values="0 0 0 0 0 0 0 0 0 0 0 0 0 0 0 0 0 0 127 0"/>
<feOffset dx="2" dy="11"/>
<feGaussianBlur stdDeviation="7.5"/>
<feColorMatrix type="matrix" values="0 0 0 0 0.945833 0 0 0 0 0.660939 0 0 0 0 0.307396 0 0 0 0.5 0"/>
<feBlend mode="multiply" in2="BackgroundImageFix" result="effect1_dropShadow"/>
<feColorMatrix in="SourceAlpha" type="matrix" values="0 0 0 0 0 0 0 0 0 0 0 0 0 0 0 0 0 0 127 0"/>
<feOffset dx="4" dy="4"/>
<feGaussianBlur stdDeviation="2.5"/>
<feColorMatrix type="matrix" values="0 0 0 0 0.945833 0 0 0 0 0.660939 0 0 0 0 0.307396 0 0 0 0.2 0"/>
<feBlend mode="multiply" in2="effect1_dropShadow" result="effect2_dropShadow"/>
<feBlend mode="normal" in="SourceGraphic" in2="effect2_dropShadow" result="shape"/>
</filter>
<filter id="filter1_i" x="20.5263" y="9.73206" width="21.0997" height="29.8827" filterUnits="userSpaceOnUse" color-interpolation-filters="sRGB">
<feFlood flood-opacity="0" result="BackgroundImageFix"/>
<feBlend mode="normal" in="SourceGraphic" in2="BackgroundImageFix" result="shape"/>
<feColorMatrix in="SourceAlpha" type="matrix" values="0 0 0 0 0 0 0 0 0 0 0 0 0 0 0 0 0 0 127 0" result="hardAlpha"/>
<feOffset dx="1" dy="3"/>
<feGaussianBlur stdDeviation="3"/>
<feComposite in2="hardAlpha" operator="arithmetic" k2="-1" k3="1"/>
<feColorMatrix type="matrix" values="0 0 0 0 1 0 0 0 0 0.724666 0 0 0 0 0.0166667 0 0 0 0.4 0"/>
<feBlend mode="normal" in2="shape" result="effect1_innerShadow"/>
</filter>
<filter id="filter2_f" x="19.2583" y="6.73206" width="23.8301" height="27.8828" filterUnits="userSpaceOnUse" color-interpolation-filters="sRGB">
<feFlood flood-opacity="0" result="BackgroundImageFix"/>
<feBlend mode="normal" in="SourceGraphic" in2="BackgroundImageFix" result="shape"/>
<feGaussianBlur stdDeviation="1.5" result="effect1_foregroundBlur"/>
</filter>
<linearGradient id="paint0_linear" x1="0" y1="18" x2="183.581" y2="110.439" gradientUnits="userSpaceOnUse">
<stop stop-color="#FFEF62"/>
<stop offset="1" stop-color="#FF3F02"/>
</linearGradient>
<linearGradient id="paint1_linear" x1="28.1962" y1="27.1147" x2="28.1962" y2="48.1147" gradientUnits="userSpaceOnUse">
<stop stop-color="#FBFF27"/>
<stop offset="1" stop-color="#FBFF38" stop-opacity="0"/>
</linearGradient>
<linearGradient id="paint2_linear" x1="27.5263" y1="29.6147" x2="27.5263" y2="50.6147" gradientUnits="userSpaceOnUse">
<stop stop-color="#FBFF27"/>
<stop offset="1" stop-color="#FBFF38" stop-opacity="0"/>
</linearGradient>
<linearGradient id="paint3_linear" x1="40.3827" y1="27.2224" x2="33.3827" y2="39.3468" gradientUnits="userSpaceOnUse">
<stop stop-color="#FFD12E"/>
<stop offset="1" stop-color="white"/>
</linearGradient>
<linearGradient id="paint4_linear" x1="24.7943" y1="18.2224" x2="17.7943" y2="30.3468" gradientUnits="userSpaceOnUse">
<stop stop-color="#FFD12E"/>
<stop offset="1" stop-color="white"/>
</linearGradient>
<clipPath id="clip0">
<rect width="212" height="54" fill="white"/>
</clipPath>
</defs>
</svg>
