<svg width="48" height="24" viewBox="0 0 48 24" fill="none" xmlns="http://www.w3.org/2000/svg">
<rect x="2.5" y="2.5" width="11" height="19" stroke="#6A52FC"/>
<rect x="13.5" y="2.5" width="8" height="19" fill="url(#paint0_linear)" stroke="#6A52FC"/>
<path d="M17.5 17L15 14H20L17.5 17Z" fill="white"/>
<path d="M17.5 7L15 10H20L17.5 7Z" fill="white"/>
<rect x="6" y="14" width="4" height="1" fill="#6A52FC"/>
<rect x="6" y="8" width="4" height="1" fill="#6A52FC"/>
<rect x="6" y="11" width="4" height="1" fill="#6A52FC"/>
<g opacity="0.4">
<rect x="26.5" y="2.5" width="11" height="19" stroke="#6A52FC"/>
<rect x="37.5" y="2.5" width="8" height="19" fill="url(#paint1_linear)" stroke="#6A52FC"/>
<path d="M41.5 17L39 14H44L41.5 17Z" fill="white"/>
<path d="M41.5 7L39 10H44L41.5 7Z" fill="white"/>
<rect x="30" y="14" width="4" height="1" fill="#6A52FC"/>
<rect x="30" y="8" width="4" height="1" fill="#6A52FC"/>
<rect x="30" y="11" width="4" height="1" fill="#6A52FC"/>
</g>
<defs>
<linearGradient id="paint0_linear" x1="17.5" y1="2" x2="17.5" y2="22" gradientUnits="userSpaceOnUse">
<stop stop-color="#8CA5FF"/>
<stop offset="1" stop-color="#7B72FB"/>
</linearGradient>
<linearGradient id="paint1_linear" x1="41.5" y1="2" x2="41.5" y2="22" gradientUnits="userSpaceOnUse">
<stop stop-color="#8CA5FF"/>
<stop offset="1" stop-color="#7B72FB"/>
</linearGradient>
</defs>
</svg>
