<svg width="140" height="102" viewBox="0 0 140 102" fill="none" xmlns="http://www.w3.org/2000/svg">
<path fill-rule="evenodd" clip-rule="evenodd" d="M17 8C17 3.58172 20.5817 0 25 0H115C119.418 0 123 3.58172 123 8V77C123 81.4183 119.418 85 115 85H25C20.5817 85 17 81.4183 17 77V8Z" fill="url(#paint0_linear)"/>
<mask id="path-2-inside-1" fill="white">
<rect x="56" y="36" width="28" height="21" rx="1.5"/>
</mask>
<rect x="56" y="36" width="28" height="21" rx="1.5" stroke="#B9BCCB" stroke-width="4" mask="url(#path-2-inside-1)"/>
<path d="M63 34C63 30.134 66.134 27 70 27C73.866 27 77 30.134 77 34V37H63V34Z" stroke="#B9BCCB" stroke-width="2"/>
<rect x="69" y="46" width="2" height="4" rx="1" fill="#B9BCCB"/>
<circle cx="70" cy="45" r="2" stroke="#B9BCCB" stroke-width="2"/>
<path fill-rule="evenodd" clip-rule="evenodd" d="M17 72H123V77C123 81.4183 119.418 85 115 85H25C20.5817 85 17 81.4183 17 77V72Z" fill="url(#paint1_linear)"/>
<rect x="57" y="85" width="27" height="17" fill="#C1C1CF"/>
<rect x="44" y="95" width="53" height="7" rx="3.5" fill="#CBCBD9"/>
<circle cx="91" cy="49" r="12" fill="url(#paint2_linear)"/>
<rect x="90" y="42" width="3" height="9" rx="1.5" fill="white"/>
<circle cx="91.5" cy="54.5" r="1.5" fill="white"/>
<defs>
<linearGradient id="paint0_linear" x1="18.0002" y1="0" x2="18.0002" y2="83.3959" gradientUnits="userSpaceOnUse">
<stop stop-color="#F0F0F5"/>
<stop offset="1" stop-color="#DBDBE5"/>
</linearGradient>
<linearGradient id="paint1_linear" x1="19.3919" y1="72" x2="19.3919" y2="84.4133" gradientUnits="userSpaceOnUse">
<stop stop-color="#D4D4E0"/>
<stop offset="1" stop-color="#C7C7D5"/>
</linearGradient>
<linearGradient id="paint2_linear" x1="79.5416" y1="37" x2="79.5416" y2="59.9169" gradientUnits="userSpaceOnUse">
<stop stop-color="#D4D4E0"/>
<stop offset="1" stop-color="#C7C7D5"/>
</linearGradient>
</defs>
</svg>
