<svg width="640" height="128" viewBox="0 0 640 128" fill="none" xmlns="http://www.w3.org/2000/svg">
<g clip-path="url(#clip0)">
<path fill-rule="evenodd" clip-rule="evenodd" d="M640 109.206V128H0V109.206C86.9579 64.0976 198.444 37 320 37C441.556 37 553.042 64.0976 640 109.206Z" fill="#FFE782"/>
<g clip-path="url(#clip1)">
<path d="M302.729 107.424H303.399C303.769 107.424 304.069 107.724 304.069 108.094V148.279C304.069 148.649 303.769 148.948 303.399 148.948H302.729V107.424Z" fill="#213744"/>
<path d="M116.539 124.391L115.87 124.391C115.5 124.391 115.2 124.092 115.2 123.722L115.2 98.7178C115.2 98.3479 115.5 98.048 115.87 98.048L116.539 98.048L116.539 124.391Z" fill="#213744"/>
<path d="M116.539 86.4389L115.87 86.4389C115.5 86.4389 115.2 86.139 115.2 85.7691L115.2 74.6066C115.2 74.2368 115.5 73.9369 115.87 73.9369L116.539 73.9369L116.539 86.4389Z" fill="#213744"/>
<path d="M116.539 40.896C116.539 30.0922 116.539 24.6903 117.96 20.3186C120.831 11.4831 127.758 4.55589 136.593 1.68505C140.965 0.264587 146.367 0.264587 157.171 0.264587H262.098C272.902 0.264587 278.304 0.264587 282.676 1.68505C291.511 4.55589 298.438 11.4831 301.309 20.3186C302.73 24.6903 302.73 30.0922 302.73 40.896V342.729C302.73 353.533 302.73 358.935 301.309 363.307C298.438 372.142 291.511 379.07 282.676 381.94C278.304 383.361 272.902 383.361 262.098 383.361H157.171C146.367 383.361 140.965 383.361 136.593 381.94C127.758 379.07 120.831 372.142 117.96 363.307C116.539 358.935 116.539 353.533 116.539 342.729V40.896Z" fill="#213744"/>
<path fill-rule="evenodd" clip-rule="evenodd" d="M262.277 1.15735H156.992C146.32 1.15735 141.09 1.16285 136.869 2.5341C128.306 5.3166 121.592 12.0306 118.809 20.5943C117.438 24.8146 117.432 30.0448 117.432 40.7171V342.908C117.432 353.58 117.438 358.81 118.809 363.031C121.592 371.594 128.306 378.308 136.869 381.091C141.09 382.462 146.32 382.468 156.992 382.468H262.277C272.949 382.468 278.179 382.462 282.4 381.091C290.963 378.308 297.677 371.594 300.46 363.031C301.831 358.81 301.837 353.58 301.837 342.908V40.7172C301.837 30.0448 301.831 24.8146 300.46 20.5943C297.677 12.0306 290.963 5.3166 282.4 2.5341C278.179 1.16285 272.949 1.15735 262.277 1.15735ZM118.385 20.4563C116.986 24.7608 116.986 30.0796 116.986 40.7171V342.908C116.986 353.545 116.986 358.864 118.385 363.169C121.211 371.868 128.032 378.689 136.731 381.515C141.036 382.914 146.355 382.914 156.992 382.914H262.277C272.914 382.914 278.233 382.914 282.538 381.515C291.237 378.689 298.058 371.868 300.884 363.169C302.283 358.864 302.283 353.545 302.283 342.908V40.7172C302.283 30.0796 302.283 24.7608 300.884 20.4563C298.058 11.7567 291.237 4.93612 282.538 2.10945C278.233 0.710846 272.914 0.710846 262.277 0.710846H156.992C146.355 0.710846 141.036 0.710846 136.731 2.10945C128.032 4.93612 121.211 11.7567 118.385 20.4563Z" fill="#8EADC1"/>
<path d="M118.772 40.0031C118.772 30.0304 118.772 25.0441 120.083 21.0086C122.733 12.8527 129.127 6.45842 137.283 3.80842C141.319 2.49722 146.305 2.49722 156.278 2.49722H262.991C272.964 2.49722 277.95 2.49722 281.986 3.80842C290.142 6.45842 296.536 12.8527 299.186 21.0086C300.497 25.0441 300.497 30.0304 300.497 40.0031V343.623C300.497 353.595 300.497 358.582 299.186 362.617C296.536 370.773 290.142 377.167 281.986 379.817C277.95 381.128 272.964 381.128 262.991 381.128H156.278C146.305 381.128 141.319 381.128 137.283 379.817C129.127 377.167 122.733 370.773 120.083 362.617C118.772 358.582 118.772 353.595 118.772 343.623V40.0031Z" fill="#121515"/>
<path d="M262.991 0.264496H265.67V2.49699H262.991V0.264496Z" fill="#36454C"/>
<path d="M300.497 38.6634H302.73V41.3424H300.497V38.6634Z" fill="#36454C"/>
<path d="M116.539 38.6634H118.772V41.3424H116.539V38.6634Z" fill="#36454C"/>
<mask id="mask0" mask-type="alpha" maskUnits="userSpaceOnUse" x="125" y="8" width="170" height="367">
<path d="M168.333 13.3472C168.333 17.9586 172.172 21.6968 176.817 21.6968H242.452C247.097 21.6968 250.936 17.9586 250.936 13.3472V11.0701C250.936 9.81245 251.901 8.74829 253.168 8.74829H263.397C272.585 8.74829 277.178 8.74829 280.832 10.1619C286.344 12.294 290.7 16.6508 292.833 22.162C294.246 25.8159 294.246 30.4096 294.246 39.5969V344.029C294.246 353.216 294.246 357.81 292.833 361.464C290.7 366.975 286.344 371.332 280.832 373.464C277.178 374.878 272.585 374.878 263.397 374.878H155.872C146.684 374.878 142.091 374.878 138.437 373.464C132.925 371.332 128.569 366.975 126.437 361.464C125.023 357.81 125.023 353.216 125.023 344.029V39.5969C125.023 30.4096 125.023 25.8159 126.437 22.162C128.569 16.6508 132.925 12.294 138.437 10.1619C142.091 8.74829 146.684 8.74829 155.872 8.74829H166.101C167.368 8.74829 168.333 9.81245 168.333 11.0701V13.3472Z" fill="white"/>
</mask>
<g mask="url(#mask0)">
<rect x="122" y="7" width="176" height="122" fill="white"/>
</g>
<path fill-rule="evenodd" clip-rule="evenodd" d="M226.825 16.785C228.551 16.785 229.95 15.3857 229.95 13.6595C229.95 11.9334 228.551 10.534 226.825 10.534C225.099 10.534 223.699 11.9334 223.699 13.6595C223.699 15.3857 225.099 16.785 226.825 16.785Z" fill="#262C2D"/>
<path fill-rule="evenodd" clip-rule="evenodd" d="M226.825 15.613C227.904 15.613 228.778 14.7384 228.778 13.6595C228.778 12.5807 227.904 11.7061 226.825 11.7061C225.746 11.7061 224.871 12.5807 224.871 13.6595C224.871 14.7384 225.746 15.613 226.825 15.613Z" fill="#121515"/>
<path opacity="0.4" fill-rule="evenodd" clip-rule="evenodd" d="M226.825 13.2688C227.041 13.2688 227.215 13.0939 227.215 12.8781C227.215 12.6624 227.041 12.4875 226.825 12.4875C226.609 12.4875 226.434 12.6624 226.434 12.8781C226.434 13.0939 226.609 13.2688 226.825 13.2688Z" fill="#636F73"/>
<path fill-rule="evenodd" clip-rule="evenodd" d="M200.035 13.6593C200.035 12.9195 200.635 12.3198 201.374 12.3198H217.895C218.635 12.3198 219.234 12.9195 219.234 13.6593C219.234 14.399 218.635 14.9988 217.895 14.9988H201.374C200.635 14.9988 200.035 14.399 200.035 13.6593Z" fill="#262C2D"/>
<rect x="132.576" y="32.3643" width="154.117" height="21.1533" rx="6.04381" fill="#E9ECF1"/>
<circle cx="142.397" cy="42.1855" r="4.07957" stroke="#212648" stroke-width="0.906572"/>
<path d="M145.419 45.2074L148.063 47.8516" stroke="#212648" stroke-width="1.13321" stroke-linecap="round"/>
<path d="M162.912 40.6413V39.9342H154.368V40.6413H157.01C156.951 43.1457 156.813 46.1706 154.093 47.6144C154.289 47.7519 154.505 47.9876 154.623 48.184C156.558 47.1037 157.285 45.2769 157.569 43.352H161.242C161.105 45.9448 160.938 47.0251 160.643 47.2903C160.526 47.3983 160.408 47.4179 160.182 47.4179C159.917 47.4179 159.209 47.4179 158.473 47.3394C158.62 47.5456 158.718 47.8402 158.728 48.0563C159.406 48.1054 160.084 48.1251 160.457 48.0956C160.83 48.0661 161.066 47.9876 161.292 47.742C161.675 47.3295 161.832 46.1608 162.009 42.9984C162.018 42.9002 162.018 42.6448 162.018 42.6448H157.658C157.726 41.9672 157.756 41.2895 157.776 40.6413H162.912ZM163.717 43.8823V44.5796H172.429V43.8823H163.717ZM169.149 45.4832C170.052 46.2885 171.191 47.4278 171.731 48.1054L172.429 47.6929C171.849 47.0054 170.681 45.9153 169.787 45.1394L169.149 45.4832ZM166.153 45.1001C165.642 45.9448 164.591 46.9465 163.629 47.5751C163.816 47.6929 164.091 47.9483 164.238 48.0956C165.22 47.4179 166.281 46.3572 166.939 45.3849L166.153 45.1001ZM163.767 40.3467C164.375 41.2208 164.984 42.4091 165.24 43.1948L165.937 42.8707C165.682 42.1047 165.053 40.9458 164.425 40.0717L163.767 40.3467ZM166.674 39.5708C167.155 40.494 167.607 41.7413 167.764 42.5368L168.491 42.2814C168.314 41.4761 167.852 40.2779 167.341 39.3449L166.674 39.5708ZM171.476 39.6003C170.985 40.7788 170.101 42.36 169.394 43.3421L170.101 43.5877C170.798 42.6252 171.673 41.1127 172.301 39.8458L171.476 39.6003ZM176.23 40.5333H173.519V47.4081H174.344V44.56H176.122C177.614 44.56 178.341 43.4796 178.341 42.4681C178.341 41.4565 177.614 40.5333 176.23 40.5333ZM176.122 43.8037H174.344V41.2895H176.151C177.025 41.2895 177.477 41.8886 177.477 42.527C177.477 43.1555 177.035 43.8037 176.122 43.8037ZM181.464 40.5333H179.274V47.4081H181.405C183.713 47.4081 184.823 45.6403 184.823 43.8725C184.823 42.1047 183.723 40.5333 181.464 40.5333ZM181.395 46.6519H180.119V41.2895H181.415C183.124 41.2895 183.939 42.5368 183.939 43.9216C183.939 45.3064 183.114 46.6519 181.395 46.6519ZM186.794 44.3144H190.104V43.5484H186.794V41.2895H190.369V40.5333H185.95V47.4081H186.794V44.3144Z" fill="black"/>
<path d="M172.831 69.4985V68.7423H165.61V69.4985H167.712C167.646 71.5677 167.554 73.9611 165.336 75.1578C165.535 75.3157 165.784 75.5733 165.892 75.781C167.488 74.8669 168.086 73.3794 168.327 71.7838H171.277C171.169 73.8032 171.045 74.6758 170.804 74.8835C170.704 74.9749 170.604 74.9916 170.413 74.9832C170.189 74.9832 169.599 74.9832 169.009 74.9334C169.15 75.1495 169.258 75.4652 169.275 75.6896C169.84 75.7229 170.405 75.7312 170.721 75.6979C171.07 75.6647 171.294 75.5982 171.502 75.3572C171.826 74.9999 171.967 74.0026 172.108 71.3932C172.117 71.2852 172.117 71.0359 172.117 71.0359H168.427C168.477 70.5206 168.494 70.0054 168.51 69.4985H172.831ZM173.496 72.0497V72.7893H180.901V72.0497H173.496ZM178 73.5373C178.748 74.2187 179.712 75.1744 180.161 75.7395L180.934 75.3073C180.435 74.7256 179.438 73.8115 178.715 73.1716L178 73.5373ZM175.499 73.1467C175.075 73.8281 174.194 74.6675 173.397 75.1827C173.596 75.3073 173.895 75.5733 174.061 75.7395C174.884 75.1661 175.765 74.2769 176.355 73.4542L175.499 73.1467ZM173.513 69.1411C174.02 69.8808 174.535 70.8946 174.726 71.5594L175.482 71.2104C175.258 70.5539 174.743 69.5816 174.211 68.842L173.513 69.1411ZM175.956 68.468C176.363 69.2492 176.746 70.3129 176.862 70.986L177.651 70.7118C177.502 70.022 177.111 69.0082 176.679 68.227L175.956 68.468ZM179.945 68.4431C179.563 69.4403 178.856 70.7533 178.283 71.576L179.039 71.8337C179.613 71.0359 180.319 69.7977 180.843 68.7007L179.945 68.4431ZM181.823 75.1162H182.787V72.7977H183.71C185.039 72.7977 186.012 72.1827 186.012 70.8447C186.012 69.4652 185.039 68.9916 183.676 68.9916H181.823V75.1162ZM182.787 72.0248V69.7727H183.585C184.557 69.7727 185.064 70.0387 185.064 70.8447C185.064 71.6508 184.599 72.0248 183.618 72.0248H182.787ZM186.871 75.1162H188.508C190.337 75.1162 191.409 74.0193 191.409 72.0331C191.409 70.0387 190.337 68.9916 188.459 68.9916H186.871V75.1162ZM187.835 74.3267V69.781H188.392C189.705 69.781 190.411 70.504 190.411 72.0331C190.411 73.5539 189.705 74.3267 188.392 74.3267H187.835ZM192.35 75.1162H193.314V72.4819H195.574V71.6758H193.314V69.806H195.973V68.9916H192.35V75.1162ZM197.843 73.1218H200.037V72.4154H197.843V73.1218ZM202.43 75.1162H203.394V72.7977H204.317C205.646 72.7977 206.619 72.1827 206.619 70.8447C206.619 69.4652 205.646 68.9916 204.283 68.9916H202.43V75.1162ZM203.394 72.0248V69.7727H204.192C205.164 69.7727 205.671 70.0387 205.671 70.8447C205.671 71.6508 205.206 72.0248 204.225 72.0248H203.394ZM207.478 75.1162H209.116C210.944 75.1162 212.016 74.0193 212.016 72.0331C212.016 70.0387 210.944 68.9916 209.066 68.9916H207.478V75.1162ZM208.442 74.3267V69.781H208.999C210.312 69.781 211.019 70.504 211.019 72.0331C211.019 73.5539 210.312 74.3267 208.999 74.3267H208.442ZM212.957 75.1162H213.921V72.4819H216.181V71.6758H213.921V69.806H216.58V68.9916H212.957V75.1162ZM222.276 70.3212C221.902 71.3434 221.387 72.191 220.714 72.8891C220.007 72.1578 219.45 71.3018 219.051 70.3212H222.276ZM224.428 70.3212V69.5733H220.697L221.437 69.3406C221.328 68.9999 221.063 68.468 220.822 68.0774L220.007 68.3184C220.232 68.709 220.464 69.2326 220.564 69.5733H216.966V70.3212H218.245C218.711 71.5345 219.326 72.5733 220.132 73.4292C219.251 74.1522 218.162 74.6675 216.824 75.0248C216.982 75.2076 217.215 75.565 217.306 75.7644C218.653 75.3489 219.783 74.7672 220.705 73.986C221.603 74.7672 222.708 75.3572 224.029 75.7145C224.154 75.4902 224.378 75.1661 224.553 74.9999C223.273 74.6841 222.193 74.1439 221.304 73.4209C222.085 72.5899 222.7 71.576 223.14 70.3212H224.428ZM231.484 68.6841C231.309 69.2824 230.985 70.1301 230.711 70.6536L231.326 70.8447C231.608 70.3544 231.949 69.5567 232.232 68.8752L231.484 68.6841ZM229.14 70.529C228.991 70.0303 228.675 69.2658 228.401 68.6758L227.761 68.9001C228.027 69.4985 228.342 70.2963 228.475 70.8032L229.14 70.529ZM227.844 72.3738C227.694 72.1411 227.013 71.1938 226.78 70.8946V70.5954H227.777V69.8808H226.78V68.1439H226.057V69.8808H224.919V70.5954H225.932C225.7 71.6675 225.218 72.8974 224.727 73.5788C224.852 73.7616 225.035 74.0691 225.11 74.2769C225.467 73.77 225.799 72.9722 226.057 72.1328V75.7727H226.78V71.842C227.013 72.2326 227.27 72.6896 227.395 72.9722L227.844 72.3738ZM230.337 68.1688H229.597V71.1855H227.769V71.9251H231.367V72.8392H227.877V73.5373H231.367V74.5013H227.578V75.2409H231.367V75.6896H232.123V71.1855H230.337V68.1688ZM234.06 72.6314C234.608 71.9085 235.132 71.0359 235.556 70.1882L234.949 69.8309C234.816 70.1384 234.658 70.4625 234.492 70.7616L233.719 70.8364C234.168 70.1218 234.608 69.2326 234.916 68.3849L234.193 68.1273C233.919 69.1162 233.395 70.1799 233.229 70.4542C233.063 70.7284 232.938 70.9112 232.78 70.9528C232.863 71.1439 232.979 71.4929 233.021 71.6425C233.137 71.5844 233.328 71.5262 234.11 71.4265C233.827 71.9001 233.561 72.2658 233.445 72.4237C233.204 72.7312 233.038 72.9306 232.855 72.9722C232.93 73.155 233.046 73.4874 233.071 73.6287C233.245 73.5206 233.52 73.4292 235.323 73.0054C235.29 72.8475 235.265 72.5733 235.273 72.3821L234.06 72.6314ZM235.223 73.6536C234.326 74.0193 233.42 74.3766 232.813 74.576L232.996 75.2907C233.678 74.9916 234.55 74.6259 235.373 74.2686L235.223 73.6536ZM239.129 73.3461V72.2824H239.619V73.3461H239.129ZM238.157 73.3461V72.2824H238.63V73.3461H238.157ZM237.11 73.3461V72.2824H237.658V73.3461H237.11ZM239.395 69.6481V70.4126H236.594V69.6481H239.395ZM239.619 71.6508V71.6592H236.578C236.586 71.4431 236.594 71.2436 236.594 71.0442H240.11V69.0082H238.597C238.497 68.7339 238.348 68.3683 238.182 68.0857L237.45 68.3018C237.558 68.5096 237.666 68.7755 237.75 69.0082H235.888V70.7949C235.888 72.0664 235.813 73.9029 235.049 75.2159C235.207 75.2907 235.522 75.5151 235.639 75.6481C236.146 74.7921 236.387 73.6536 236.503 72.6065V75.6979H237.11V73.9528H237.658V75.5151H238.157V73.9528H238.63V75.4985H239.129V73.9528H239.619V75.0663C239.619 75.1245 239.603 75.1411 239.545 75.1495C239.495 75.1495 239.362 75.1495 239.204 75.1411C239.287 75.299 239.353 75.54 239.378 75.7062C239.661 75.7062 239.86 75.6979 240.018 75.5982C240.184 75.4985 240.218 75.3323 240.218 75.0747V71.6508H239.619ZM247.115 69.6481H245.112V68.9666H247.115V69.6481ZM247.863 68.4015H244.406V70.2132H247.863V68.4015ZM243.999 73.7949L243.957 73.1384L243.168 73.2713V72.3157H243.816V71.6176H243.168V70.396H242.461V71.6176H241.805C242.021 71.0857 242.237 70.4542 242.428 69.8143H243.891V69.083H242.628C242.686 68.817 242.744 68.5428 242.794 68.2852L242.046 68.1439C242.004 68.4597 241.946 68.7755 241.88 69.083H240.858V69.8143H241.705C241.547 70.4209 241.389 70.9112 241.315 71.1024C241.165 71.468 241.057 71.7256 240.907 71.7672C240.991 71.9417 241.099 72.2907 241.14 72.432C241.207 72.3655 241.473 72.3157 241.747 72.3157H242.461V73.3877C241.83 73.4874 241.24 73.5871 240.791 73.6453L240.949 74.3932C241.398 74.3184 241.913 74.2187 242.461 74.1107V75.7478H243.168V73.9694L243.999 73.7949ZM245.171 73.5954H247.082V74.1605C246.409 74.2104 245.761 74.2603 245.171 74.3018V73.5954ZM247.082 71.2686V71.8752H245.171V71.2686H247.082ZM245.171 72.4403H247.082V73.0387H245.171V72.4403ZM248.412 74.0525L247.797 74.1024V71.2686H248.345V70.637H243.949V71.2686H244.456V74.3434L243.774 74.3849L243.882 75.0663C244.747 74.9999 245.894 74.9085 247.082 74.8087V75.7727H247.797V74.7506L248.412 74.6924V74.0525ZM254.054 73.047H248.927V73.7866H254.054V73.047ZM250.788 71.2935C250.88 70.8863 250.979 70.4292 251.071 69.9639H255.716V69.2242H251.212C251.27 68.9334 251.32 68.6508 251.37 68.3849L250.581 68.3101C250.389 69.4819 250.057 71.0691 249.799 72.0082H255.027C254.86 73.7533 254.644 74.6093 254.362 74.842C254.245 74.9334 254.121 74.9417 253.921 74.9417C253.655 74.9417 253.007 74.9334 252.367 74.8752C252.525 75.0996 252.641 75.4237 252.658 75.6481C253.248 75.6813 253.838 75.6896 254.162 75.6647C254.545 75.6398 254.786 75.5733 255.027 75.3323C255.409 74.9583 255.633 73.986 255.849 71.6508C255.874 71.5345 255.882 71.2935 255.882 71.2935H250.788ZM258.558 69.3323C258.75 69.6398 258.941 69.9971 259.015 70.2464L259.672 70.0054C259.605 69.8309 259.472 69.5733 259.315 69.3323H260.47V68.7838H258.359C258.442 68.601 258.509 68.4265 258.567 68.2436L257.81 68.1024C257.594 68.8087 257.22 69.5234 256.763 69.9639C256.954 70.047 257.279 70.2215 257.428 70.3212C257.669 70.0553 257.902 69.7146 258.101 69.3323H258.558ZM262.697 74.2852V74.9334H258.916V74.2852H262.697ZM262.273 72.058V72.6398H258.916V72.058H262.273ZM258.916 73.2132H263.021V71.4763H258.135V75.781H258.916V75.5234H262.697V75.7644H263.461V73.7035H258.916V73.2132ZM260.013 69.9472C260.096 70.0968 260.179 70.2713 260.254 70.4375H257.195V71.842H257.935V71.0442H263.254V71.842H264.035V70.4375H261.027C260.952 70.2381 260.827 69.9971 260.694 69.806L260.013 69.9472ZM261.866 68.7838C261.941 68.601 262.007 68.4265 262.057 68.2436L261.309 68.1107C261.151 68.7007 260.869 69.2907 260.495 69.673C260.669 69.7561 260.993 69.9223 261.126 70.022C261.301 69.8309 261.459 69.5982 261.608 69.3406H262.082C262.323 69.6398 262.572 70.022 262.672 70.2547L263.312 69.9722C263.229 69.7977 263.063 69.565 262.888 69.3406H264.226V68.7838H261.866ZM267.359 73.3461C267.076 73.4459 266.777 73.5373 266.495 73.6287V71.7506H267.284V71.0359H266.495V69.3821H267.417V68.6675H264.774V69.3821H265.755V71.0359H264.858V71.7506H265.755V73.8614C265.356 73.986 264.99 74.0857 264.691 74.1688L264.874 74.9583C265.622 74.7173 266.586 74.3932 267.492 74.0774L267.359 73.3461ZM268.481 70.6952H269.569V71.601H268.481V70.6952ZM268.481 69.1744H269.569V70.0719H268.481V69.1744ZM271.29 70.0719H270.226V69.1744H271.29V70.0719ZM271.29 71.601H270.226V70.6952H271.29V71.601ZM270.292 74.8004V73.8115H272.137V73.1134H270.292V72.2575H272.029V68.5179H267.774V72.2575H269.503V73.1134H267.7V73.8115H269.503V74.8004H267.093V75.5068H272.403V74.8004H270.292Z" fill="black"/>
<path d="M165.352 81.094V81.5836H170.839V81.094H165.352ZM172.501 83.2698V82.0066H173.166V81.6017H172.501V80.7858H173.112V80.3869H171.679C171.824 80.1935 171.957 79.9638 172.078 79.7221H173.136V79.3111H172.26C172.332 79.1237 172.405 78.9183 172.459 78.7249L172.066 78.6221C171.909 79.2204 171.631 79.8067 171.293 80.2056C171.371 80.2902 171.498 80.4715 171.546 80.5501C171.589 80.5078 171.625 80.4594 171.667 80.405V80.7858H172.127V81.6017H171.438V82.0066H172.127V83.1852C172.127 83.4632 171.927 83.6747 171.824 83.7533C171.897 83.8319 172.018 83.989 172.066 84.0797C172.151 83.9709 172.296 83.8621 173.227 83.2154C173.184 83.1368 173.124 82.9797 173.094 82.8709L172.501 83.2698ZM174.218 80.7374L174.151 80.7495H173.771C174.024 80.2902 174.278 79.6919 174.484 79.0996L174.23 78.9303L174.097 78.9908H173.245V79.4078H173.97C173.795 79.9215 173.565 80.405 173.48 80.5501C173.39 80.7374 173.245 80.9006 173.148 80.9188C173.202 80.9913 173.299 81.1484 173.329 81.233C173.329 81.2028 173.372 81.1605 173.426 81.1243H174.055C174.006 81.6138 173.928 82.0429 173.825 82.4116C173.728 82.194 173.65 81.9523 173.583 81.6742L173.275 81.7951C173.384 82.2182 173.511 82.5748 173.668 82.8528C173.468 83.3242 173.196 83.6566 172.864 83.8742C172.943 83.9467 173.039 84.0918 173.094 84.1885C173.426 83.9528 173.692 83.6385 173.91 83.2154C174.441 83.9044 175.167 84.0676 176.001 84.0676H176.78C176.798 83.9588 176.859 83.7835 176.913 83.6868C176.72 83.6929 176.164 83.6929 176.019 83.6929C175.263 83.6868 174.562 83.5418 174.067 82.8467C174.26 82.3028 174.381 81.6259 174.441 80.7677L174.218 80.7374ZM176.218 80.7616H175.668V80.2721H176.218V80.7616ZM175.668 79.4501H176.218V79.9215H175.668V79.4501ZM176.551 79.9215V79.1177H175.668V78.6584H175.306V79.1177H174.599V79.4501H175.306V79.9215H174.447V80.2721H175.306V80.7616H174.599V81.088H175.306V81.5473H174.58V81.8979H175.306V82.3935H174.423V82.75H175.306V83.4874H175.668V82.75H176.78V82.3935H175.668V81.8979H176.647V81.5473H175.668V81.088H176.551V80.2721H176.913V79.9215H176.551ZM182.232 81.2753C182.709 81.2753 182.842 81.0699 182.897 80.3446C182.77 80.3144 182.588 80.2479 182.498 80.1693C182.468 80.7677 182.425 80.8704 182.196 80.8704H181.241C180.969 80.8704 180.92 80.8281 180.92 80.6407V80.0303C181.501 79.855 182.141 79.6435 182.619 79.4199L182.316 79.0935C181.972 79.2688 181.434 79.4924 180.92 79.6616V78.6523H180.479V80.6468C180.479 81.1363 180.63 81.2753 181.204 81.2753H182.232ZM178.195 82.5748V82.0248H179.47V82.5748H178.195ZM179.47 81.1545V81.6682H178.195V81.1545H179.47ZM179.911 80.7737H177.778V84.1522H178.195V82.9253H179.47V83.6324C179.47 83.711 179.452 83.7291 179.367 83.7291C179.289 83.7352 179.035 83.7412 178.751 83.7291C178.811 83.844 178.872 84.0192 178.896 84.1401C179.276 84.1401 179.536 84.1341 179.7 84.0615C179.869 83.989 179.911 83.8681 179.911 83.6385V80.7737ZM179.041 79.1479C179.186 79.3474 179.343 79.5831 179.476 79.8188L178.152 79.8974C178.412 79.577 178.684 79.1661 178.89 78.7672L178.43 78.6221C178.237 79.0935 177.905 79.571 177.802 79.6979C177.699 79.8248 177.614 79.9094 177.524 79.9336C177.578 80.0424 177.645 80.266 177.669 80.3567C177.802 80.3083 178.007 80.2781 179.657 80.1572C179.712 80.2781 179.754 80.3809 179.79 80.4776L180.183 80.3023C180.056 79.9457 179.718 79.4018 179.409 78.9968L179.041 79.1479ZM181.259 83.705C180.981 83.705 180.926 83.6687 180.926 83.4693V82.7682C181.537 82.5989 182.226 82.3693 182.685 82.0973L182.389 81.7649C182.051 81.9885 181.47 82.2182 180.926 82.3935V81.4446H180.479V83.4693C180.479 83.9648 180.636 84.1039 181.217 84.1039H182.262C182.764 84.1039 182.897 83.8923 182.951 83.0764C182.824 83.0522 182.649 82.9797 182.552 82.9132C182.522 83.5841 182.474 83.705 182.226 83.705H181.259ZM184.22 81.9825C184.643 81.4325 185.06 80.7616 185.393 80.1028L185.03 79.8913C184.927 80.127 184.8 80.3627 184.68 80.5803L184.015 80.6528C184.353 80.127 184.686 79.4501 184.933 78.7913L184.504 78.6342C184.293 79.3715 183.882 80.1572 183.761 80.3567C183.64 80.5622 183.543 80.7133 183.441 80.7374C183.489 80.8462 183.562 81.0578 183.586 81.1424C183.664 81.1001 183.803 81.0699 184.45 80.9792C184.214 81.366 184.003 81.6682 183.906 81.783C183.737 82.0066 183.604 82.1638 183.489 82.188C183.537 82.2968 183.598 82.4962 183.616 82.5808C183.731 82.5143 183.918 82.4478 185.248 82.1396C185.23 82.055 185.218 81.8979 185.218 81.777L184.22 81.9825ZM185.211 82.6956C184.553 82.9495 183.894 83.2033 183.459 83.3484L183.568 83.7654C184.057 83.566 184.686 83.3061 185.29 83.0583L185.211 82.6956ZM188.318 79.6677V80.3144H186.112V79.6677H188.318ZM188.735 80.6951V79.2869H187.581C187.52 79.0875 187.393 78.8095 187.266 78.5979L186.843 78.7249C186.94 78.8941 187.037 79.1056 187.103 79.2869H185.701V80.5924C185.701 81.5111 185.647 82.8407 185.103 83.8017C185.199 83.85 185.375 83.9769 185.447 84.0555C186.003 83.0824 186.106 81.6742 186.112 80.6951H188.735ZM187.992 82.4599V81.5775H188.439V82.4599H187.992ZM187.254 82.4599V81.5775H187.689V82.4599H187.254ZM186.456 82.4599V81.5775H186.952V82.4599H186.456ZM188.439 81.2028V81.2089H186.1V84.1039H186.456V82.8226H186.952V83.9588H187.254V82.8226H187.689V83.9528H187.992V82.8226H188.439V83.717C188.439 83.7654 188.421 83.7775 188.378 83.7775H188.094C188.137 83.8681 188.185 84.0132 188.203 84.1099C188.409 84.1099 188.554 84.1039 188.656 84.0434C188.765 83.983 188.789 83.8863 188.789 83.7231V81.2028H188.439ZM194.168 79.7765H192.567V79.1721H194.168V79.7765ZM194.604 78.8336H192.15V80.1149H194.604V78.8336ZM191.793 82.2726L191.14 82.3874V81.6017H191.69V81.1907H191.14V80.2721H190.723V81.1907H190.143C190.312 80.7798 190.482 80.2902 190.621 79.7825H191.733V79.3534H190.736C190.79 79.1479 190.832 78.9364 190.875 78.7309L190.433 78.6402C190.403 78.882 190.355 79.1177 190.3 79.3534H189.545V79.7825H190.204C190.077 80.26 189.95 80.6589 189.889 80.8039C189.787 81.0699 189.708 81.2572 189.605 81.2874C189.66 81.3962 189.72 81.5957 189.744 81.6863C189.793 81.638 189.98 81.6017 190.179 81.6017H190.723V82.466C190.264 82.5506 189.829 82.6231 189.497 82.6775L189.599 83.1127C189.926 83.0462 190.312 82.9676 190.723 82.889V84.1341H191.14V82.8044C191.364 82.7561 191.594 82.7077 191.823 82.6654L191.793 82.2726ZM192.621 82.5687H194.144V83.0522C193.606 83.0885 193.087 83.1308 192.621 83.161V82.5687ZM194.144 80.8462V81.366H192.621V80.8462H194.144ZM192.621 81.7045H194.144V82.2303H192.621V81.7045ZM195.015 82.9857L194.567 83.022V80.8462H194.978V80.4715H191.799V80.8462H192.204V83.1852L191.654 83.2215L191.727 83.6264C192.367 83.578 193.25 83.5055 194.144 83.433V84.1522H194.567V83.3967L195.015 83.3605V82.9857ZM195.885 83.6929H196.447V81.9341H197.178C198.151 81.9341 198.81 81.499 198.81 80.5622C198.81 79.5952 198.145 79.2567 197.154 79.2567H195.885V83.6929ZM196.447 81.4808V79.716H197.082C197.861 79.716 198.254 79.9215 198.254 80.5622C198.254 81.1968 197.885 81.4808 197.106 81.4808H196.447ZM199.704 83.6929H200.84C202.175 83.6929 202.907 82.8649 202.907 81.4627C202.907 80.0545 202.175 79.2567 200.816 79.2567H199.704V83.6929ZM200.266 83.2335V79.716H200.767C201.813 79.716 202.327 80.3386 202.327 81.4627C202.327 82.5808 201.813 83.2335 200.767 83.2335H200.266ZM203.853 83.6929H204.415V81.7045H206.107V81.233H204.415V79.7342H206.409V79.2567H203.853V83.6929ZM210.076 79.5287C209.992 79.2748 209.786 78.888 209.605 78.604L209.14 78.7369C209.321 79.0331 209.514 79.438 209.587 79.6858L210.076 79.5287ZM210.868 80.1391C210.566 80.955 210.161 81.6198 209.623 82.1638C209.055 81.5957 208.62 80.9067 208.306 80.1391H210.868ZM212.325 80.1391V79.6979H206.909V80.1391H207.84C208.191 81.0517 208.668 81.8374 209.291 82.4781C208.632 83.0341 207.822 83.4451 206.825 83.7291C206.916 83.8319 207.048 84.0374 207.103 84.1462C208.106 83.8258 208.94 83.3907 209.617 82.7984C210.288 83.4028 211.11 83.844 212.095 84.122C212.168 83.9951 212.295 83.8077 212.403 83.705C211.442 83.4693 210.626 83.0401 209.962 82.4781C210.566 81.8556 211.031 81.094 211.376 80.1391H212.325ZM218.272 80.3506V79.9034H215.878V78.6402H215.413V79.9034H213.038V80.3506H214.863C214.422 81.372 213.679 82.3511 212.881 82.8407C212.983 82.9253 213.129 83.0885 213.201 83.1973C214.071 82.605 214.851 81.5292 215.316 80.3506H215.413V82.5808H214.011V83.0281H215.413V84.1522H215.878V83.0281H217.281V82.5808H215.878V80.3506H215.963C216.416 81.5292 217.196 82.6171 218.091 83.1791C218.163 83.0583 218.32 82.8951 218.435 82.7984C217.601 82.327 216.839 81.372 216.404 80.3506H218.272ZM220.351 82.7682C221.173 82.8649 222.212 83.1066 222.781 83.3121L222.986 82.9797C222.4 82.7803 221.366 82.5506 220.556 82.4599L220.351 82.7682ZM220.949 82.0066C221.427 82.1094 222.037 82.3149 222.37 82.4781L222.557 82.1759C222.218 82.0248 221.614 81.8314 221.131 81.7347L220.949 82.0066ZM220.998 80.26H222.557C222.339 80.4897 222.055 80.7012 221.729 80.8885C221.421 80.7133 221.161 80.5138 220.961 80.2962L220.998 80.26ZM222.932 79.8913L222.859 79.9094H221.306C221.396 79.7946 221.481 79.6798 221.548 79.5589L221.179 79.438C220.877 79.9276 220.363 80.3929 219.849 80.6951C219.94 80.7556 220.091 80.8946 220.158 80.9671C220.345 80.8462 220.526 80.7012 220.707 80.538C220.895 80.7314 221.118 80.9127 221.36 81.0759C220.846 81.3116 220.272 81.499 219.74 81.5957C219.813 81.6863 219.91 81.8616 219.952 81.9643C220.544 81.8314 221.173 81.6078 221.741 81.2995C222.243 81.5715 222.811 81.777 223.379 81.8979C223.433 81.7951 223.548 81.638 223.627 81.5594C223.101 81.4627 222.569 81.2995 222.11 81.0819C222.551 80.7918 222.932 80.4473 223.185 80.0485L222.932 79.8913ZM219.632 83.5055V79.3111H223.748V83.5055H219.632ZM219.197 78.9001V84.1582H219.632V83.9044H223.748V84.1582H224.189V78.9001H219.197ZM226.28 80.6468H230.154V80.1935H228.462V78.6463H227.99V80.1935H226.28V78.7974H225.821V80.7979C225.821 81.8495 225.736 82.9616 224.974 83.8137C225.077 83.8923 225.246 84.0555 225.319 84.1643C225.875 83.5539 226.111 82.8226 226.207 82.0671H228.746V84.1522H229.223V81.6078H226.256C226.274 81.3358 226.28 81.0638 226.28 80.7918V80.6468ZM232.704 79.3232C233.079 79.2446 233.436 79.1479 233.714 79.0452L233.412 78.6946C232.88 78.9062 231.937 79.0875 231.139 79.1963C231.194 79.299 231.242 79.4441 231.266 79.5529C231.586 79.5106 231.925 79.4622 232.263 79.4078V80.4111H231.085V80.8281H232.148C231.876 81.5836 231.393 82.4116 230.934 82.8709C231.018 82.9797 231.133 83.161 231.187 83.2819C231.574 82.8649 231.967 82.1819 232.263 81.4808V84.1401H232.704V81.499C232.964 81.8374 233.303 82.2907 233.442 82.5204L233.714 82.1517C233.563 81.9643 232.934 81.227 232.704 80.9852V80.8281H233.756V80.4111H232.704V79.3232ZM234.403 82.9555V79.6254H235.751V82.9555H234.403ZM233.962 79.1963V83.8863H234.403V83.3907H235.751V83.844H236.198V79.1963H233.962ZM239.238 81.2693L238.452 81.4627V80.2358H239.238V79.8127H238.452V78.6523H238.017V79.8127H237.129V80.2358H238.017V81.5654C237.654 81.6501 237.322 81.7226 237.056 81.783L237.183 82.2242C237.431 82.1577 237.715 82.0852 238.017 82.0066V83.6022C238.017 83.6868 237.981 83.717 237.896 83.717C237.824 83.717 237.564 83.7231 237.274 83.711C237.334 83.8319 237.4 84.0071 237.413 84.128C237.83 84.128 238.077 84.1159 238.235 84.0434C238.392 83.9769 238.452 83.8561 238.452 83.5962V81.8979C238.73 81.8253 239.014 81.7468 239.292 81.6742L239.238 81.2693ZM239.347 79.2023V79.6193H241.812V81.1122H239.492V81.5534H241.812V83.2758H239.304V83.6989H241.812V84.1401H242.248V79.2023H239.347ZM244.871 81.2693L244.266 81.4627V80.266H244.907V79.849H244.266V78.6402H243.849V79.849H243.118V80.266H243.849V81.5896C243.541 81.6863 243.263 81.7709 243.039 81.8253L243.154 82.2605C243.366 82.194 243.601 82.1154 243.849 82.0369V83.5901C243.849 83.6808 243.819 83.705 243.74 83.705C243.674 83.705 243.438 83.705 243.178 83.6989C243.239 83.8258 243.293 84.0071 243.305 84.1159C243.692 84.122 243.922 84.1039 244.061 84.0313C244.212 83.9588 244.266 83.844 244.266 83.5962V81.8979L244.925 81.6803L244.871 81.2693ZM246.599 81.366V82.194H245.693V81.366H246.599ZM247.929 82.194H247.004V81.366H247.929V82.194ZM247.004 83.439V82.5869H247.929V83.439H247.004ZM245.693 82.5869H246.599V83.439H245.693V82.5869ZM245.282 84.1522H245.693V83.8379H247.929V84.122H248.364V80.9611H245.282V84.1522ZM247.79 79.4985V78.6402H247.355V79.4985H246.285V78.6402H245.85V79.4985H245.016V79.9094H245.85V80.6951H246.285V79.9094H247.355V80.6951H247.79V79.9094H248.576V79.4985H247.79ZM250.54 84.0313L250.951 83.6808C250.576 83.2396 250.032 82.6896 249.597 82.3391L249.204 82.6836C249.633 83.0341 250.153 83.5539 250.54 84.0313ZM258.596 81.4023H260.379V80.9732H258.596V79.6858H258.149V80.9732H256.511V81.4023H258.149V83.4753H256.118V83.9044H260.669V83.4753H258.596V81.4023ZM259.062 82.055C259.382 82.3391 259.744 82.7319 259.914 83.0039L260.246 82.7379C260.077 82.4841 259.714 82.1154 259.382 81.8374L259.062 82.055ZM260.687 78.9243H255.647V80.8644C255.647 81.777 255.611 83.0281 255.151 83.9104C255.254 83.9588 255.441 84.0857 255.514 84.1643C256.009 83.2215 256.082 81.8314 256.082 80.8583V79.3595H260.687V78.9243ZM262.005 81.9885C262.422 81.4446 262.815 80.8039 263.159 80.1572L262.803 79.9578C262.706 80.1754 262.591 80.399 262.476 80.6045L261.811 80.6649C262.162 80.1452 262.494 79.4743 262.76 78.8336L262.361 78.6584C262.126 79.3836 261.703 80.1633 261.576 80.3688C261.443 80.5682 261.34 80.7193 261.237 80.7435C261.292 80.8462 261.346 81.0517 261.37 81.1424C261.461 81.1001 261.588 81.0699 262.247 80.9852C262.011 81.3781 261.799 81.6863 261.697 81.8072C261.527 82.0248 261.394 82.1759 261.28 82.194C261.322 82.3028 261.388 82.5022 261.413 82.5808C261.515 82.5204 261.697 82.4539 262.905 82.1577C262.893 82.061 262.881 81.8979 262.887 81.7891L262.005 81.9885ZM261.37 83.7835C261.872 83.5901 262.513 83.3423 263.135 83.1006L263.063 82.7259C262.392 82.9676 261.715 83.2154 261.268 83.3605L261.37 83.7835ZM263.83 80.0122C263.679 80.6468 263.334 81.4325 262.887 81.9281C262.96 82.0006 263.069 82.1457 263.123 82.2242C263.262 82.0792 263.389 81.9039 263.51 81.7165V84.1582H263.897V80.9973C264.036 80.7012 264.138 80.399 264.229 80.1089L263.83 80.0122ZM266.127 82.3572H264.761V81.6198H266.127V82.3572ZM264.761 83.5055V82.7138H266.127V83.5055H264.761ZM264.283 80.6468H265.172C265.136 80.8462 265.087 81.0638 265.039 81.2512H264.368V84.1522H264.761V83.8742H266.127V84.122H266.532V81.2512H265.444C265.498 81.0638 265.559 80.8523 265.613 80.6468H266.616V80.2781H264.283V80.6468ZM265.238 79.2204C265.16 79.0452 265.027 78.8034 264.912 78.6161L264.537 78.749C264.622 78.888 264.706 79.0694 264.779 79.2204H263.208V80.1935H263.625V79.6012H266.272V80.1089H266.701V79.2204H265.238ZM267.626 83.6929H268.188V81.9341H268.919C269.892 81.9341 270.551 81.499 270.551 80.5622C270.551 79.5952 269.886 79.2567 268.895 79.2567H267.626V83.6929ZM268.188 81.4808V79.716H268.822C269.602 79.716 269.995 79.9215 269.995 80.5622C269.995 81.1968 269.626 81.4808 268.846 81.4808H268.188ZM271.444 83.6929H272.581C273.916 83.6929 274.648 82.8649 274.648 81.4627C274.648 80.0545 273.916 79.2567 272.556 79.2567H271.444V83.6929ZM272.006 83.2335V79.716H272.508C273.554 79.716 274.067 80.3386 274.067 81.4627C274.067 82.5808 273.554 83.2335 272.508 83.2335H272.006ZM275.594 83.6929H276.156V81.7045H277.848V81.233H276.156V79.7342H278.15V79.2567H275.594V83.6929ZM278.674 83.7714C278.892 83.7714 279.073 83.6022 279.073 83.3544C279.073 83.1006 278.892 82.9253 278.674 82.9253C278.456 82.9253 278.275 83.1006 278.275 83.3544C278.275 83.6022 278.456 83.7714 278.674 83.7714ZM280.356 83.7714C280.574 83.7714 280.755 83.6022 280.755 83.3544C280.755 83.1006 280.574 82.9253 280.356 82.9253C280.139 82.9253 279.957 83.1006 279.957 83.3544C279.957 83.6022 280.139 83.7714 280.356 83.7714ZM282.038 83.7714C282.256 83.7714 282.437 83.6022 282.437 83.3544C282.437 83.1006 282.256 82.9253 282.038 82.9253C281.821 82.9253 281.639 83.1006 281.639 83.3544C281.639 83.6022 281.821 83.7714 282.038 83.7714Z" fill="#8A8A8D"/>
<path d="M203.011 90.3443C203.476 90.157 203.73 89.7762 203.73 89.3411C203.73 88.6581 203.119 88.2774 202.394 88.2774C201.554 88.2774 200.944 88.785 200.944 89.6856H201.451C201.451 89.0751 201.79 88.7488 202.376 88.7488C202.938 88.7488 203.216 89.0449 203.216 89.3834C203.216 89.7702 202.872 90.1691 202.152 90.1691H202.031V90.6224H202.279C202.95 90.6224 203.295 91.0031 203.295 91.3899C203.295 91.7707 202.968 92.1152 202.382 92.1152C201.88 92.1152 201.397 91.8674 201.397 91.2509V91.1965H200.871C200.871 92.1333 201.62 92.5806 202.358 92.5806C203.095 92.5806 203.814 92.1333 203.814 91.3657C203.814 90.8762 203.524 90.4894 203.011 90.3443ZM205.826 88.2834C204.859 88.2834 204.418 89.1174 204.418 90.429C204.418 91.7405 204.859 92.5806 205.826 92.5806C206.793 92.5806 207.235 91.7405 207.235 90.429C207.235 89.1174 206.793 88.2834 205.826 88.2834ZM205.826 92.1152C205.21 92.1152 204.932 91.4564 204.932 90.429C204.932 89.4015 205.21 88.7488 205.826 88.7488C206.443 88.7488 206.721 89.4015 206.721 90.429C206.721 91.4564 206.443 92.1152 205.826 92.1152ZM209.939 90.3564C210.38 90.1691 210.622 89.8427 210.622 89.3773C210.622 88.646 210.017 88.2834 209.286 88.2834C208.555 88.2834 207.95 88.646 207.95 89.3773C207.95 89.8427 208.192 90.1691 208.633 90.3564C208.156 90.5257 207.841 90.8822 207.841 91.4141C207.841 92.1514 208.458 92.5806 209.286 92.5806C210.114 92.5806 210.73 92.1514 210.73 91.4141C210.73 90.8822 210.416 90.5257 209.939 90.3564ZM208.452 89.4196C208.452 89.0933 208.639 88.7488 209.286 88.7488C209.933 88.7488 210.12 89.0933 210.12 89.4196C210.12 89.8185 209.848 90.1268 209.286 90.1268C208.724 90.1268 208.452 89.8185 208.452 89.4196ZM209.286 92.1152C208.639 92.1152 208.361 91.7828 208.361 91.3657C208.361 90.9608 208.639 90.5921 209.286 90.5921C209.933 90.5921 210.211 90.9608 210.211 91.3657C210.211 91.7828 209.933 92.1152 209.286 92.1152Z" fill="#8A8A8D"/>
<path d="M168.244 87.8371C168.31 87.6241 168.612 87.6241 168.678 87.8371L169.174 89.4449H170.813C171.03 89.4449 171.123 89.72 170.95 89.8516L169.615 90.8716L170.119 92.5027C170.184 92.7135 169.941 92.8836 169.765 92.7497L168.461 91.7534L167.157 92.7497C166.981 92.8836 166.738 92.7135 166.803 92.5027L167.307 90.8716L165.972 89.8516C165.799 89.72 165.892 89.4449 166.109 89.4449H167.748L168.244 87.8371Z" fill="#8E8E91"/>
<path d="M175.422 87.8371C175.487 87.6241 175.789 87.6241 175.855 87.8371L176.351 89.4449H177.99C178.207 89.4449 178.3 89.72 178.128 89.8516L176.792 90.8716L177.296 92.5027C177.362 92.7135 177.118 92.8836 176.942 92.7497L175.638 91.7534L174.334 92.7497C174.159 92.8836 173.915 92.7135 173.98 92.5027L174.484 90.8716L173.149 89.8516C172.976 89.72 173.069 89.4449 173.286 89.4449H174.925L175.422 87.8371Z" fill="#8E8E91"/>
<path d="M182.221 87.8371C182.287 87.6241 182.588 87.6241 182.654 87.8371L183.151 89.4449H184.789C185.006 89.4449 185.099 89.72 184.927 89.8516L183.592 90.8716L184.096 92.5027C184.161 92.7135 183.917 92.8836 183.741 92.7497L182.437 91.7534L181.133 92.7497C180.958 92.8836 180.714 92.7135 180.779 92.5027L181.283 90.8716L179.948 89.8516C179.776 89.72 179.869 89.4449 180.085 89.4449H181.724L182.221 87.8371Z" fill="#8E8E91"/>
<path d="M189.02 87.8371C189.086 87.6241 189.387 87.6241 189.453 87.8371L189.95 89.4449H191.589C191.805 89.4449 191.898 89.72 191.726 89.8516L190.391 90.8716L190.895 92.5027C190.96 92.7135 190.716 92.8836 190.541 92.7497L189.237 91.7534L187.932 92.7497C187.757 92.8836 187.513 92.7135 187.578 92.5027L188.082 90.8716L186.747 89.8516C186.575 89.72 186.668 89.4449 186.885 89.4449H188.523L189.02 87.8371Z" fill="#8E8E91"/>
<path d="M196.569 89.5006L196.61 89.6337H196.749H198.388C198.4 89.6337 198.407 89.6372 198.41 89.6401C198.415 89.6438 198.421 89.6503 198.424 89.6594C198.427 89.6684 198.427 89.6767 198.425 89.6827C198.424 89.6874 198.421 89.6939 198.411 89.7015L197.076 90.7215L196.971 90.8015L197.01 90.9274L197.514 92.5584C197.518 92.5708 197.516 92.5778 197.514 92.5823C197.512 92.588 197.507 92.595 197.499 92.6006C197.491 92.6062 197.483 92.6083 197.477 92.6084C197.472 92.6084 197.465 92.6075 197.455 92.5996L196.151 91.6033L196.036 91.5157L195.921 91.6033L194.617 92.5996C194.607 92.6075 194.6 92.6084 194.595 92.6084C194.589 92.6083 194.581 92.6062 194.573 92.6006C194.565 92.595 194.56 92.588 194.558 92.5823C194.556 92.5778 194.554 92.5708 194.558 92.5584L195.062 90.9274L195.101 90.8015L194.996 90.7215L193.661 89.7015C193.651 89.6939 193.648 89.6874 193.647 89.6827C193.645 89.6767 193.645 89.6684 193.648 89.6594C193.651 89.6503 193.656 89.6438 193.661 89.6401C193.665 89.6372 193.672 89.6337 193.684 89.6337H195.323H195.462L195.503 89.5006L196 87.8928C196.004 87.8802 196.009 87.8753 196.013 87.8727C196.018 87.8692 196.026 87.8662 196.036 87.8662C196.046 87.8662 196.054 87.8692 196.059 87.8727C196.063 87.8753 196.068 87.8802 196.072 87.8928L196.569 89.5006Z" stroke="#8E8E91" stroke-width="0.377738"/>
<path fill-rule="evenodd" clip-rule="evenodd" d="M196.036 87.6771C195.944 87.6771 195.852 87.7304 195.819 87.8369L195.323 89.4446H193.684C193.467 89.4446 193.374 89.7198 193.547 89.8514L194.882 90.8714L194.378 92.5025C194.313 92.7133 194.556 92.8834 194.732 92.7495L196.036 91.7532V87.6771Z" fill="#8E8E91"/>
<g clip-path="url(#clip2)" filter="url(#filter0_i)">
<g clip-path="url(#clip3)">
<rect width="28.7081" height="28.7081" transform="translate(132.576 65.2357)" fill="url(#paint0_linear)"/>
<path d="M146.912 81.7084H141.547V76.3275L147.699 76.3256V76.3546C147.248 76.4625 146.913 76.8692 146.913 77.3548L146.912 81.7084Z" fill="white"/>
<path d="M141.547 75.7489H152.313V70.3661H141.547V75.7489Z" fill="white"/>
<path d="M161.284 87.6116V93.9438H132.576V87.6116C137.283 87.0537 142.073 86.7667 146.93 86.7667C151.787 86.7667 156.577 87.0537 161.284 87.6116Z" fill="white"/>
<path d="M149.159 91.2175C149.28 91.0952 149.278 90.8993 149.157 90.7776L146.945 88.561L146.016 89.4917C145.913 89.5955 145.754 89.6106 145.635 89.5369L145.629 89.5431L148.229 92.1493L149.159 91.2175Z" fill="black"/>
<path d="M146.59 91.2184L145.661 92.1495L143.229 89.7121L144.378 88.5612L146.59 90.7788C146.712 90.9002 146.712 91.097 146.59 91.2184Z" fill="black"/>
<path d="M150.661 89.7121L149.513 90.8625L148.196 89.5434L148.202 89.5372C148.321 89.6108 148.48 89.5957 148.583 89.4919L149.512 88.5612L150.661 89.7121Z" fill="black"/>
</g>
</g>
<rect x="132.727" y="65.3867" width="28.4059" height="28.4059" rx="6.39889" stroke="#3C4798" stroke-width="0.302191"/>
</g>
<path d="M523.081 93.3883H523.941C524.415 93.3883 524.8 93.773 524.8 94.2477V119.743C524.8 120.218 524.415 120.603 523.941 120.603H523.081V93.3883Z" fill="#313232"/>
<path d="M523.081 93.3883H523.941C524.415 93.3883 524.8 93.773 524.8 94.2477V119.743C524.8 120.218 524.415 120.603 523.941 120.603H523.081V93.3883Z" fill="url(#paint1_linear)"/>
<path d="M523.081 93.3883H523.941C524.415 93.3883 524.8 93.773 524.8 94.2477V119.743C524.8 120.218 524.415 120.603 523.941 120.603H523.081V93.3883Z" fill="url(#paint2_linear)"/>
<path d="M523.081 93.3883H523.941C524.415 93.3883 524.8 93.773 524.8 94.2477V119.743C524.8 120.218 524.415 120.603 523.941 120.603H523.081V93.3883Z" fill="url(#paint3_radial)"/>
<rect x="333.44" width="190.214" height="390.168" rx="25.4956" fill="#0C0C0C"/>
<g filter="url(#filter1_f)">
<rect x="335.302" y="1.57558" width="186.49" height="387.017" rx="25.3523" stroke="white" stroke-opacity="0.4" stroke-width="0.286467"/>
</g>
<g filter="url(#filter2_f)">
<path fill-rule="evenodd" clip-rule="evenodd" d="M358.649 5.87258C348.049 5.87258 339.456 14.4657 339.456 25.0659V362.238C339.456 374.499 349.396 384.439 361.657 384.439V386.731C348.13 386.731 337.164 375.765 337.164 362.238V25.0659C337.164 13.2 346.783 3.58084 358.649 3.58084H499.161C512.372 3.58084 523.081 14.2902 523.081 27.5008H520.79C520.79 15.5559 511.106 5.87258 499.161 5.87258H358.649Z" fill="url(#paint4_linear)"/>
</g>
<g filter="url(#filter3_f)">
<path fill-rule="evenodd" clip-rule="evenodd" d="M470.944 3.86731H498.445C510.311 3.86731 519.93 13.4865 519.93 25.3523V365.246C519.93 377.111 510.311 386.731 498.445 386.731H359.079C347.213 386.731 337.594 377.111 337.594 365.246V342.185H339.886V365.246C339.886 375.846 348.479 384.439 359.079 384.439H498.445C509.045 384.439 517.638 375.846 517.638 365.246V25.3523C517.638 14.7522 509.045 6.15905 498.445 6.15905H470.944V3.86731Z" fill="url(#paint5_linear)"/>
<path fill-rule="evenodd" clip-rule="evenodd" d="M470.944 3.86731H498.445C510.311 3.86731 519.93 13.4865 519.93 25.3523V365.246C519.93 377.111 510.311 386.731 498.445 386.731H359.079C347.213 386.731 337.594 377.111 337.594 365.246V342.185H339.886V365.246C339.886 375.846 348.479 384.439 359.079 384.439H498.445C509.045 384.439 517.638 375.846 517.638 365.246V25.3523C517.638 14.7522 509.045 6.15905 498.445 6.15905H470.944V3.86731Z" fill="url(#paint6_radial)"/>
</g>
<rect x="339.456" y="5.72934" width="178.183" height="378.709" rx="18.9068" fill="black"/>
<rect x="342.607" y="9.73987" width="171.307" height="371.261" rx="16.9016" fill="url(#paint7_linear)"/>
<path d="M523.081 93.3883H523.941C524.415 93.3883 524.8 93.773 524.8 94.2477V119.743C524.8 120.218 524.415 120.603 523.941 120.603H523.081V93.3883Z" fill="#313232"/>
<path d="M523.081 93.3883H523.941C524.415 93.3883 524.8 93.773 524.8 94.2477V119.743C524.8 120.218 524.415 120.603 523.941 120.603H523.081V93.3883Z" fill="url(#paint8_linear)"/>
<path d="M523.081 93.3883H523.941C524.415 93.3883 524.8 93.773 524.8 94.2477V119.743C524.8 120.218 524.415 120.603 523.941 120.603H523.081V93.3883Z" fill="url(#paint9_linear)"/>
<path d="M523.081 93.3883H523.941C524.415 93.3883 524.8 93.773 524.8 94.2477V119.743C524.8 120.218 524.415 120.603 523.941 120.603H523.081V93.3883Z" fill="url(#paint10_radial)"/>
<rect x="333.44" width="190.214" height="390.168" rx="25.4956" fill="#0C0C0C"/>
<g filter="url(#filter4_f)">
<rect x="335.302" y="1.57558" width="186.49" height="387.017" rx="25.3523" stroke="white" stroke-opacity="0.4" stroke-width="0.286467"/>
</g>
<g filter="url(#filter5_f)">
<path fill-rule="evenodd" clip-rule="evenodd" d="M358.649 5.87258C348.049 5.87258 339.456 14.4657 339.456 25.0659V362.238C339.456 374.499 349.396 384.439 361.657 384.439V386.731C348.13 386.731 337.164 375.765 337.164 362.238V25.0659C337.164 13.2 346.783 3.58084 358.649 3.58084H499.161C512.372 3.58084 523.081 14.2902 523.081 27.5008H520.79C520.79 15.5559 511.106 5.87258 499.161 5.87258H358.649Z" fill="url(#paint11_linear)"/>
</g>
<g filter="url(#filter6_f)">
<path fill-rule="evenodd" clip-rule="evenodd" d="M470.944 3.86731H498.445C510.311 3.86731 519.93 13.4865 519.93 25.3523V365.246C519.93 377.111 510.311 386.731 498.445 386.731H359.079C347.213 386.731 337.594 377.111 337.594 365.246V342.185H339.886V365.246C339.886 375.846 348.479 384.439 359.079 384.439H498.445C509.045 384.439 517.638 375.846 517.638 365.246V25.3523C517.638 14.7522 509.045 6.15905 498.445 6.15905H470.944V3.86731Z" fill="url(#paint12_linear)"/>
<path fill-rule="evenodd" clip-rule="evenodd" d="M470.944 3.86731H498.445C510.311 3.86731 519.93 13.4865 519.93 25.3523V365.246C519.93 377.111 510.311 386.731 498.445 386.731H359.079C347.213 386.731 337.594 377.111 337.594 365.246V342.185H339.886V365.246C339.886 375.846 348.479 384.439 359.079 384.439H498.445C509.045 384.439 517.638 375.846 517.638 365.246V25.3523C517.638 14.7522 509.045 6.15905 498.445 6.15905H470.944V3.86731Z" fill="url(#paint13_radial)"/>
</g>
<rect x="339.456" y="5.72934" width="178.183" height="378.709" rx="18.9068" fill="black"/>
</g>
<defs>
<filter id="filter0_i" x="132.576" y="65.2356" width="28.7081" height="28.7081" filterUnits="userSpaceOnUse" color-interpolation-filters="sRGB">
<feFlood flood-opacity="0" result="BackgroundImageFix"/>
<feBlend mode="normal" in="SourceGraphic" in2="BackgroundImageFix" result="shape"/>
<feColorMatrix in="SourceAlpha" type="matrix" values="0 0 0 0 0 0 0 0 0 0 0 0 0 0 0 0 0 0 127 0" result="hardAlpha"/>
<feOffset/>
<feGaussianBlur stdDeviation="0.0560705"/>
<feComposite in2="hardAlpha" operator="arithmetic" k2="-1" k3="1"/>
<feColorMatrix type="matrix" values="0 0 0 0 0 0 0 0 0 0 0 0 0 0 0 0 0 0 0.24 0"/>
<feBlend mode="darken" in2="shape" result="effect1_innerShadow"/>
</filter>
<filter id="filter1_f" x="334.586" y="0.859408" width="187.922" height="388.449" filterUnits="userSpaceOnUse" color-interpolation-filters="sRGB">
<feFlood flood-opacity="0" result="BackgroundImageFix"/>
<feBlend mode="normal" in="SourceGraphic" in2="BackgroundImageFix" result="shape"/>
<feGaussianBlur stdDeviation="0.286467" result="effect1_foregroundBlur"/>
</filter>
<filter id="filter2_f" x="336.591" y="3.00791" width="187.063" height="384.296" filterUnits="userSpaceOnUse" color-interpolation-filters="sRGB">
<feFlood flood-opacity="0" result="BackgroundImageFix"/>
<feBlend mode="normal" in="SourceGraphic" in2="BackgroundImageFix" result="shape"/>
<feGaussianBlur stdDeviation="0.286467" result="effect1_foregroundBlur"/>
</filter>
<filter id="filter3_f" x="337.021" y="3.29438" width="183.482" height="384.009" filterUnits="userSpaceOnUse" color-interpolation-filters="sRGB">
<feFlood flood-opacity="0" result="BackgroundImageFix"/>
<feBlend mode="normal" in="SourceGraphic" in2="BackgroundImageFix" result="shape"/>
<feGaussianBlur stdDeviation="0.286467" result="effect1_foregroundBlur"/>
</filter>
<filter id="filter4_f" x="334.586" y="0.859408" width="187.922" height="388.449" filterUnits="userSpaceOnUse" color-interpolation-filters="sRGB">
<feFlood flood-opacity="0" result="BackgroundImageFix"/>
<feBlend mode="normal" in="SourceGraphic" in2="BackgroundImageFix" result="shape"/>
<feGaussianBlur stdDeviation="0.286467" result="effect1_foregroundBlur"/>
</filter>
<filter id="filter5_f" x="336.591" y="3.00791" width="187.063" height="384.296" filterUnits="userSpaceOnUse" color-interpolation-filters="sRGB">
<feFlood flood-opacity="0" result="BackgroundImageFix"/>
<feBlend mode="normal" in="SourceGraphic" in2="BackgroundImageFix" result="shape"/>
<feGaussianBlur stdDeviation="0.286467" result="effect1_foregroundBlur"/>
</filter>
<filter id="filter6_f" x="337.021" y="3.29438" width="183.482" height="384.009" filterUnits="userSpaceOnUse" color-interpolation-filters="sRGB">
<feFlood flood-opacity="0" result="BackgroundImageFix"/>
<feBlend mode="normal" in="SourceGraphic" in2="BackgroundImageFix" result="shape"/>
<feGaussianBlur stdDeviation="0.286467" result="effect1_foregroundBlur"/>
</filter>
<linearGradient id="paint0_linear" x1="14.3541" y1="0" x2="14.3541" y2="28.7081" gradientUnits="userSpaceOnUse">
<stop stop-color="#414C9A"/>
<stop offset="1" stop-color="#364295"/>
</linearGradient>
<linearGradient id="paint1_linear" x1="523.081" y1="107.425" x2="524.8" y2="107.425" gradientUnits="userSpaceOnUse">
<stop stop-color="#313131"/>
<stop offset="0.630208" stop-color="#717174"/>
<stop offset="1" stop-color="#444445"/>
</linearGradient>
<linearGradient id="paint2_linear" x1="523.941" y1="93.3883" x2="523.941" y2="120.603" gradientUnits="userSpaceOnUse">
<stop stop-color="#343434"/>
<stop offset="0.140406" stop-color="#353535" stop-opacity="0"/>
<stop offset="0.885417" stop-color="#494949" stop-opacity="0.525253"/>
<stop offset="1" stop-color="#1B1B1B"/>
</linearGradient>
<radialGradient id="paint3_radial" cx="0" cy="0" r="1" gradientUnits="userSpaceOnUse" gradientTransform="translate(523.511 94.8206) rotate(90) scale(1.00263)">
<stop stop-color="white"/>
<stop offset="0.757464" stop-color="white" stop-opacity="0.35"/>
<stop offset="1" stop-color="white" stop-opacity="0"/>
</radialGradient>
<linearGradient id="paint4_linear" x1="338.31" y1="160.851" x2="423.391" y2="199.811" gradientUnits="userSpaceOnUse">
<stop stop-color="white" stop-opacity="0.54"/>
<stop offset="0.947121" stop-color="white" stop-opacity="0"/>
</linearGradient>
<linearGradient id="paint5_linear" x1="517.495" y1="206.543" x2="433.417" y2="167.01" gradientUnits="userSpaceOnUse">
<stop stop-color="white" stop-opacity="0.54"/>
<stop offset="1" stop-color="white" stop-opacity="0"/>
</linearGradient>
<radialGradient id="paint6_radial" cx="0" cy="0" r="1" gradientUnits="userSpaceOnUse" gradientTransform="translate(512.625 380.142) rotate(-133.776) scale(104.344 49.3639)">
<stop/>
<stop offset="1" stop-opacity="0"/>
</radialGradient>
<linearGradient id="paint7_linear" x1="428.261" y1="9.73987" x2="428.261" y2="381.001" gradientUnits="userSpaceOnUse">
<stop stop-color="#FF8080"/>
<stop offset="1" stop-color="#9563FF"/>
</linearGradient>
<linearGradient id="paint8_linear" x1="523.081" y1="107.425" x2="524.8" y2="107.425" gradientUnits="userSpaceOnUse">
<stop stop-color="#313131"/>
<stop offset="0.630208" stop-color="#717174"/>
<stop offset="1" stop-color="#444445"/>
</linearGradient>
<linearGradient id="paint9_linear" x1="523.941" y1="93.3883" x2="523.941" y2="120.603" gradientUnits="userSpaceOnUse">
<stop stop-color="#343434"/>
<stop offset="0.140406" stop-color="#353535" stop-opacity="0"/>
<stop offset="0.885417" stop-color="#494949" stop-opacity="0.525253"/>
<stop offset="1" stop-color="#1B1B1B"/>
</linearGradient>
<radialGradient id="paint10_radial" cx="0" cy="0" r="1" gradientUnits="userSpaceOnUse" gradientTransform="translate(523.511 94.8206) rotate(90) scale(1.00263)">
<stop stop-color="white"/>
<stop offset="0.757464" stop-color="white" stop-opacity="0.35"/>
<stop offset="1" stop-color="white" stop-opacity="0"/>
</radialGradient>
<linearGradient id="paint11_linear" x1="338.31" y1="160.851" x2="423.391" y2="199.811" gradientUnits="userSpaceOnUse">
<stop stop-color="white" stop-opacity="0.54"/>
<stop offset="0.947121" stop-color="white" stop-opacity="0"/>
</linearGradient>
<linearGradient id="paint12_linear" x1="517.495" y1="206.543" x2="433.417" y2="167.01" gradientUnits="userSpaceOnUse">
<stop stop-color="white" stop-opacity="0.54"/>
<stop offset="1" stop-color="white" stop-opacity="0"/>
</linearGradient>
<radialGradient id="paint13_radial" cx="0" cy="0" r="1" gradientUnits="userSpaceOnUse" gradientTransform="translate(512.625 380.142) rotate(-133.776) scale(104.344 49.3639)">
<stop/>
<stop offset="1" stop-opacity="0"/>
</radialGradient>
<clipPath id="clip0">
<rect width="640" height="128" fill="white"/>
</clipPath>
<clipPath id="clip1">
<rect width="188.869" height="217.577" fill="white" transform="translate(115.2 0.264648)"/>
</clipPath>
<clipPath id="clip2">
<rect width="28.7081" height="28.7081" fill="white" transform="translate(132.576 65.2356)"/>
</clipPath>
<clipPath id="clip3">
<rect x="132.576" y="65.2356" width="28.7081" height="28.7081" rx="6.54991" fill="white"/>
</clipPath>
</defs>
</svg>
