<svg width="16" height="16" viewBox="0 0 16 16" fill="none" xmlns="http://www.w3.org/2000/svg">
<path fill-rule="evenodd" clip-rule="evenodd" d="M7.72361 2.0529C7.9706 2.17639 8.07071 2.47673 7.94721 2.72372L3.30902 12.0001H12.5284L10.5931 9.29073C10.4326 9.06602 10.4847 8.75375 10.7094 8.59324C10.9341 8.43274 11.2464 8.48478 11.4069 8.70949L13.9069 12.2095C14.0157 12.3619 14.0303 12.5624 13.9446 12.7289C13.8589 12.8954 13.6873 13.0001 13.5 13.0001H2.5C2.32671 13.0001 2.16578 12.9104 2.07468 12.763C1.98357 12.6156 1.97529 12.4315 2.05279 12.2765L7.05279 2.2765C7.17628 2.02951 7.47662 1.9294 7.72361 2.0529Z" fill="#5C6182"/>
</svg>
