<svg width="32" height="16" viewBox="0 0 32 16" fill="none" xmlns="http://www.w3.org/2000/svg">
<path d="M4.00074 1.59814L7.08881 3.62604L4.00075 5.65203L0.911445 3.62604L4.00074 1.59814ZM4.00074 6.84802L7.08865 8.87455L7.08858 8.87459L7.08865 8.87463L4.00075 10.9012L0.911545 8.87459L4.00074 6.84802ZM15.0887 3.62604L12 5.652L12 5.65198L12 5.652L8.91132 3.62604L12 1.59814L15.0887 3.62604ZM12 10.9012L8.91142 8.87459L12 6.84802L15.0886 8.87459L12 10.9012ZM11.0887 12.374L8.00003 14.4018L4.91199 12.374L8.00003 10.348L11.0887 12.374Z" stroke="#212648"/>
<g opacity="0.4">
<path d="M20.0007 1.59814L23.0888 3.62604L20.0007 5.65203L16.9114 3.62604L20.0007 1.59814ZM20.0007 6.84802L23.0886 8.87455L23.0886 8.87459L23.0886 8.87463L20.0007 10.9012L16.9115 8.87459L20.0007 6.84802ZM31.0887 3.62604L28 5.652L28 5.65198L28 5.652L24.9113 3.62604L28 1.59814L31.0887 3.62604ZM28 10.9012L24.9114 8.87459L28 6.84802L31.0886 8.87459L28 10.9012ZM27.0887 12.374L24 14.4018L20.912 12.374L24 10.348L27.0887 12.374Z" stroke="#212648"/>
</g>
</svg>
