<svg width="64" height="16" viewBox="0 0 64 16" fill="none" xmlns="http://www.w3.org/2000/svg">
<path d="M2 0.5C1.17157 0.5 0.5 1.17157 0.5 2V14C0.5 14.8284 1.17157 15.5 2 15.5H14C14.8284 15.5 15.5 14.8284 15.5 14V2C15.5 1.17157 14.8284 0.5 14 0.5H2Z" fill="white" stroke="#5C6182"/>
<path d="M18 0.5C17.1716 0.5 16.5 1.17157 16.5 2V14C16.5 14.8284 17.1716 15.5 18 15.5H30C30.8284 15.5 31.5 14.8284 31.5 14V2C31.5 1.17157 30.8284 0.5 30 0.5H18Z" fill="white" stroke="#212648"/>
<path d="M34 0.5C33.1716 0.5 32.5 1.17157 32.5 2V14C32.5 14.8284 33.1716 15.5 34 15.5H46C46.8284 15.5 47.5 14.8284 47.5 14V2C47.5 1.17157 46.8284 0.5 46 0.5H34Z" fill="#BCBDD1" stroke="#212648"/>
<path d="M49 2C49 1.44772 49.4477 1 50 1H62C62.5523 1 63 1.44772 63 2V14C63 14.5523 62.5523 15 62 15H50C49.4477 15 49 14.5523 49 14V2Z" fill="white"/>
<path d="M50 0.5C49.1716 0.5 48.5 1.17157 48.5 2V14C48.5 14.8284 49.1716 15.5 50 15.5H62C62.8284 15.5 63.5 14.8284 63.5 14V2C63.5 1.17157 62.8284 0.5 62 0.5H50Z" stroke="#212648" stroke-opacity="0.3"/>
</svg>
