<svg width="128" height="32" viewBox="0 0 128 32" fill="none" xmlns="http://www.w3.org/2000/svg">
<path fill-rule="evenodd" clip-rule="evenodd" d="M9.64645 9.64645C9.84171 9.45118 10.1583 9.45118 10.3536 9.64645L16 15.2929L21.6464 9.64645C21.8417 9.45118 22.1583 9.45118 22.3536 9.64645C22.5488 9.84171 22.5488 10.1583 22.3536 10.3536L16.7071 16L22.3536 21.6464C22.5488 21.8417 22.5488 22.1583 22.3536 22.3536C22.1583 22.5488 21.8417 22.5488 21.6464 22.3536L16 16.7071L10.3536 22.3536C10.1583 22.5488 9.84171 22.5488 9.64645 22.3536C9.45118 22.1583 9.45118 21.8417 9.64645 21.6464L15.2929 16L9.64645 10.3536C9.45118 10.1583 9.45118 9.84171 9.64645 9.64645Z" fill="black" fill-opacity="0.72"/>
<path d="M32 4C32 1.79086 33.7909 0 36 0H60C62.2091 0 64 1.79086 64 4V28C64 30.2091 62.2091 32 60 32H36C33.7909 32 32 30.2091 32 28V4Z" fill="black" fill-opacity="0.04"/>
<path fill-rule="evenodd" clip-rule="evenodd" d="M41.6464 9.64645C41.8417 9.45118 42.1583 9.45118 42.3536 9.64645L48 15.2929L53.6464 9.64645C53.8417 9.45118 54.1583 9.45118 54.3536 9.64645C54.5488 9.84171 54.5488 10.1583 54.3536 10.3536L48.7071 16L54.3536 21.6464C54.5488 21.8417 54.5488 22.1583 54.3536 22.3536C54.1583 22.5488 53.8417 22.5488 53.6464 22.3536L48 16.7071L42.3536 22.3536C42.1583 22.5488 41.8417 22.5488 41.6464 22.3536C41.4512 22.1583 41.4512 21.8417 41.6464 21.6464L47.2929 16L41.6464 10.3536C41.4512 10.1583 41.4512 9.84171 41.6464 9.64645Z" fill="black" fill-opacity="0.72"/>
<path d="M64 4C64 1.79086 65.7909 0 68 0H92C94.2091 0 96 1.79086 96 4V28C96 30.2091 94.2091 32 92 32H68C65.7909 32 64 30.2091 64 28V4Z" fill="black" fill-opacity="0.08"/>
<path fill-rule="evenodd" clip-rule="evenodd" d="M73.6464 9.64645C73.8417 9.45118 74.1583 9.45118 74.3536 9.64645L80 15.2929L85.6464 9.64645C85.8417 9.45118 86.1583 9.45118 86.3536 9.64645C86.5488 9.84171 86.5488 10.1583 86.3536 10.3536L80.7071 16L86.3536 21.6464C86.5488 21.8417 86.5488 22.1583 86.3536 22.3536C86.1583 22.5488 85.8417 22.5488 85.6464 22.3536L80 16.7071L74.3536 22.3536C74.1583 22.5488 73.8417 22.5488 73.6464 22.3536C73.4512 22.1583 73.4512 21.8417 73.6464 21.6464L79.2929 16L73.6464 10.3536C73.4512 10.1583 73.4512 9.84171 73.6464 9.64645Z" fill="black"/>
<path fill-rule="evenodd" clip-rule="evenodd" d="M105.646 9.64645C105.842 9.45118 106.158 9.45118 106.354 9.64645L112 15.2929L117.646 9.64645C117.842 9.45118 118.158 9.45118 118.354 9.64645C118.549 9.84171 118.549 10.1583 118.354 10.3536L112.707 16L118.354 21.6464C118.549 21.8417 118.549 22.1583 118.354 22.3536C118.158 22.5488 117.842 22.5488 117.646 22.3536L112 16.7071L106.354 22.3536C106.158 22.5488 105.842 22.5488 105.646 22.3536C105.451 22.1583 105.451 21.8417 105.646 21.6464L111.293 16L105.646 10.3536C105.451 10.1583 105.451 9.84171 105.646 9.64645Z" fill="black" fill-opacity="0.24"/>
</svg>
