<svg width="160" height="20" viewBox="0 0 160 20" fill="none" xmlns="http://www.w3.org/2000/svg">
<path fill-rule="evenodd" clip-rule="evenodd" d="M13 10H9V11H13V10ZM31 10H27V11H31V10ZM18 10H22V11H18V10ZM40 10H36V11H40V10ZM15 10H16V11H15V10ZM34 10H33V11H34V10ZM24 10H25V11H24V10ZM43 10H42V11H43V10ZM45 10H49V11H45V10ZM58 10H54V11H58V10ZM51 10H52V11H51V10ZM61 10H60V11H61V10ZM63 10H67V11H63V10ZM76 10H72V11H76V10ZM69 10H70V11H69V10ZM79 10H78V11H79V10ZM81 10H85V11H81V10ZM94 10H90V11H94V10ZM87 10H88V11H87V10ZM97 10H96V11H97V10ZM99 10H103V11H99V10ZM112 10H108V11H112V10ZM105 10H106V11H105V10ZM115 10H114V11H115V10ZM117 10H121V11H117V10ZM130 10H126V11H130V10ZM123 10H124V11H123V10ZM133 10H132V11H133V10ZM135 10H139V11H135V10ZM148 10H144V11H148V10ZM141 10H142V11H141V10ZM151 10H150V11H151V10Z" fill="black"/>
</svg>
