<svg width="48" height="48" viewBox="0 0 48 48" fill="none" xmlns="http://www.w3.org/2000/svg">
<rect x="4" y="2" width="28" height="34" fill="#6762E1"/>
<rect x="8" y="6" width="28" height="34" fill="url(#paint0_linear)"/>
<rect x="12" y="10" width="28" height="34" fill="url(#paint1_linear)"/>
<g style="mix-blend-mode:multiply" opacity="0.3">
<rect x="21.3333" y="32.6666" width="9.33333" height="11.3333" fill="#130F45"/>
</g>
<g style="mix-blend-mode:multiply" opacity="0.2">
<rect x="12" y="32.6666" width="9.33333" height="11.3333" fill="#130F45"/>
</g>
<g style="mix-blend-mode:multiply" opacity="0.3">
<rect x="30.6667" y="21.3334" width="9.33333" height="11.3333" fill="#130F45"/>
</g>
<g style="mix-blend-mode:multiply" opacity="0.2">
<rect x="21.3333" y="21.3334" width="9.33333" height="11.3333" fill="#130F45"/>
</g>
<g style="mix-blend-mode:multiply" opacity="0.1">
<rect x="12" y="21.3334" width="9.33333" height="11.3333" fill="#130F45"/>
</g>
<g style="mix-blend-mode:multiply" opacity="0.2">
<rect x="30.6667" y="10" width="9.33333" height="11.3333" fill="#130F45"/>
</g>
<g style="mix-blend-mode:multiply" opacity="0.1">
<rect x="21.3333" y="10" width="9.33333" height="11.3333" fill="#130F45"/>
</g>
<g style="mix-blend-mode:multiply" opacity="0.4">
<rect x="30.6667" y="32.6666" width="9.33333" height="11.3333" fill="#130F45"/>
</g>
<g filter="url(#filter0_d)">
<path fill-rule="evenodd" clip-rule="evenodd" d="M44.4142 25.4144L30 39.8286L21.5858 31.4144L24.4142 28.5859L30 34.1717L41.5858 22.5859L44.4142 25.4144Z" fill="#FAFAFF"/>
</g>
<defs>
<filter id="filter0_d" x="21.5858" y="22.5859" width="24.8284" height="19.2426" filterUnits="userSpaceOnUse" color-interpolation-filters="sRGB">
<feFlood flood-opacity="0" result="BackgroundImageFix"/>
<feColorMatrix in="SourceAlpha" type="matrix" values="0 0 0 0 0 0 0 0 0 0 0 0 0 0 0 0 0 0 127 0"/>
<feOffset dx="1" dy="1"/>
<feGaussianBlur stdDeviation="0.5"/>
<feColorMatrix type="matrix" values="0 0 0 0 0 0 0 0 0 0 0 0 0 0 0 0 0 0 0.4 0"/>
<feBlend mode="normal" in2="BackgroundImageFix" result="effect1_dropShadow"/>
<feBlend mode="normal" in="SourceGraphic" in2="effect1_dropShadow" result="shape"/>
</filter>
<linearGradient id="paint0_linear" x1="22" y1="6" x2="22" y2="40" gradientUnits="userSpaceOnUse">
<stop stop-color="#5AE1FF"/>
<stop offset="1" stop-color="#30A8FF"/>
</linearGradient>
<linearGradient id="paint1_linear" x1="26" y1="10" x2="26" y2="44" gradientUnits="userSpaceOnUse">
<stop stop-color="#7492FF"/>
<stop offset="1" stop-color="#7B72FB"/>
<stop offset="1" stop-color="#4538FF"/>
</linearGradient>
</defs>
</svg>
