<svg width="48" height="48" viewBox="0 0 48 48" fill="none" xmlns="http://www.w3.org/2000/svg">
<rect x="13.1505" y="2" width="32" height="36" transform="rotate(8.22544 13.1505 2)" fill="url(#paint0_linear)"/>
<rect x="6" y="9" width="32" height="36" fill="url(#paint1_linear)"/>
<g style="mix-blend-mode:multiply" opacity="0.3">
<rect x="16.6667" y="33" width="10.6667" height="12" fill="#130F45"/>
</g>
<g style="mix-blend-mode:multiply" opacity="0.2">
<rect x="6" y="33" width="10.6667" height="12" fill="#130F45"/>
</g>
<g style="mix-blend-mode:multiply" opacity="0.3">
<rect x="27.3333" y="21" width="10.6667" height="12" fill="#130F45"/>
</g>
<g style="mix-blend-mode:multiply" opacity="0.2">
<rect x="16.6667" y="21" width="10.6667" height="12" fill="#130F45"/>
</g>
<g style="mix-blend-mode:multiply" opacity="0.1">
<rect x="6" y="21" width="10.6667" height="12" fill="#130F45"/>
</g>
<g style="mix-blend-mode:multiply" opacity="0.2">
<rect x="27.3333" y="9" width="10.6667" height="12" fill="#130F45"/>
</g>
<g style="mix-blend-mode:multiply" opacity="0.1">
<rect x="16.6667" y="9" width="10.6667" height="12" fill="#130F45"/>
</g>
<g style="mix-blend-mode:multiply" opacity="0.4">
<rect x="27.3333" y="33" width="10.6667" height="12" fill="#130F45"/>
</g>
<g filter="url(#filter0_d)">
<path d="M30 34V41H34V34H41V30H34V23H30V30H23V34H30Z" fill="#FAFAFF"/>
</g>
<defs>
<filter id="filter0_d" x="23" y="23" width="20" height="20" filterUnits="userSpaceOnUse" color-interpolation-filters="sRGB">
<feFlood flood-opacity="0" result="BackgroundImageFix"/>
<feColorMatrix in="SourceAlpha" type="matrix" values="0 0 0 0 0 0 0 0 0 0 0 0 0 0 0 0 0 0 127 0"/>
<feOffset dx="1" dy="1"/>
<feGaussianBlur stdDeviation="0.5"/>
<feColorMatrix type="matrix" values="0 0 0 0 0 0 0 0 0 0 0 0 0 0 0 0 0 0 0.4 0"/>
<feBlend mode="normal" in2="BackgroundImageFix" result="effect1_dropShadow"/>
<feBlend mode="normal" in="SourceGraphic" in2="effect1_dropShadow" result="shape"/>
</filter>
<linearGradient id="paint0_linear" x1="29.1505" y1="2" x2="29.1505" y2="38" gradientUnits="userSpaceOnUse">
<stop stop-color="#5AE1FF"/>
<stop offset="1" stop-color="#30A8FF"/>
</linearGradient>
<linearGradient id="paint1_linear" x1="22" y1="9" x2="22" y2="45" gradientUnits="userSpaceOnUse">
<stop stop-color="#7492FF"/>
<stop offset="1" stop-color="#7B72FB"/>
<stop offset="1" stop-color="#4538FF"/>
</linearGradient>
</defs>
</svg>
