<svg width="48" height="48" viewBox="0 0 48 48" fill="none" xmlns="http://www.w3.org/2000/svg">
<rect x="4" y="4" width="19" height="19" fill="url(#paint0_linear)"/>
<g filter="url(#filter0_d)">
<path fill-rule="evenodd" clip-rule="evenodd" d="M10.1213 7.99989L16.0607 13.9392L16.0607 10.0605L19.0607 10.0605L19.0607 19.0605L10.1213 19.0605L10.1213 16.0605L13.9393 16.0605L8 10.1212L10.1213 7.99989Z" fill="#FAFAFF"/>
</g>
<rect x="4" y="25" width="19" height="19" fill="#7D77FC"/>
<g style="mix-blend-mode:multiply">
<g style="mix-blend-mode:multiply" opacity="0.3">
<rect x="10.3333" y="37.6666" width="6.33333" height="6.33333" fill="#130F45"/>
</g>
<g style="mix-blend-mode:multiply" opacity="0.2">
<rect x="4" y="37.6666" width="6.33333" height="6.33333" fill="#130F45"/>
</g>
<g style="mix-blend-mode:multiply" opacity="0.3">
<rect x="16.6667" y="31.3334" width="6.33333" height="6.33333" fill="#130F45"/>
</g>
<g style="mix-blend-mode:multiply" opacity="0.2">
<rect x="10.3333" y="31.3334" width="6.33333" height="6.33333" fill="#130F45"/>
</g>
<g style="mix-blend-mode:multiply" opacity="0.1">
<rect x="4" y="31.3334" width="6.33333" height="6.33333" fill="#130F45"/>
</g>
<g style="mix-blend-mode:multiply" opacity="0.2">
<rect x="16.6667" y="25" width="6.33333" height="6.33333" fill="#130F45"/>
</g>
<g style="mix-blend-mode:multiply" opacity="0.1">
<rect x="10.3333" y="25" width="6.33333" height="6.33333" fill="#130F45"/>
</g>
<g style="mix-blend-mode:multiply" opacity="0.4">
<rect x="16.6667" y="37.6666" width="6.33333" height="6.33333" fill="#130F45"/>
</g>
</g>
<rect x="25" y="4" width="19" height="19" fill="url(#paint1_linear)"/>
<g style="mix-blend-mode:multiply">
<g style="mix-blend-mode:multiply" opacity="0.3">
<rect x="31.3333" y="16.6666" width="6.33333" height="6.33333" fill="#130F45"/>
</g>
<g style="mix-blend-mode:multiply" opacity="0.2">
<rect x="25" y="16.6666" width="6.33333" height="6.33333" fill="#130F45"/>
</g>
<g style="mix-blend-mode:multiply" opacity="0.3">
<rect x="37.6667" y="10.3334" width="6.33333" height="6.33333" fill="#130F45"/>
</g>
<g style="mix-blend-mode:multiply" opacity="0.2">
<rect x="31.3333" y="10.3334" width="6.33333" height="6.33333" fill="#130F45"/>
</g>
<g style="mix-blend-mode:multiply" opacity="0.1">
<rect x="25" y="10.3334" width="6.33333" height="6.33333" fill="#130F45"/>
</g>
<g style="mix-blend-mode:multiply" opacity="0.2">
<rect x="37.6667" y="4" width="6.33333" height="6.33333" fill="#130F45"/>
</g>
<g style="mix-blend-mode:multiply" opacity="0.1">
<rect x="31.3333" y="4" width="6.33333" height="6.33333" fill="#130F45"/>
</g>
<g style="mix-blend-mode:multiply" opacity="0.4">
<rect x="37.6667" y="16.6666" width="6.33333" height="6.33333" fill="#130F45"/>
</g>
</g>
<g filter="url(#filter1_d)">
<path fill-rule="evenodd" clip-rule="evenodd" d="M40.0607 10.1213L34.1213 16.0607H38V19.0607H29V10.1213H32V13.9393L37.9393 8L40.0607 10.1213Z" fill="#FAFAFF"/>
</g>
<rect x="25" y="25" width="19" height="19" fill="#746DFF"/>
<g style="mix-blend-mode:multiply">
<g style="mix-blend-mode:multiply" opacity="0.3">
<rect x="31.3333" y="37.6666" width="6.33333" height="6.33333" fill="#130F45"/>
</g>
<g style="mix-blend-mode:multiply" opacity="0.2">
<rect x="25" y="37.6666" width="6.33333" height="6.33333" fill="#130F45"/>
</g>
<g style="mix-blend-mode:multiply" opacity="0.3">
<rect x="37.6667" y="31.3334" width="6.33333" height="6.33333" fill="#130F45"/>
</g>
<g style="mix-blend-mode:multiply" opacity="0.2">
<rect x="31.3333" y="31.3334" width="6.33333" height="6.33333" fill="#130F45"/>
</g>
<g style="mix-blend-mode:multiply" opacity="0.1">
<rect x="25" y="31.3334" width="6.33333" height="6.33333" fill="#130F45"/>
</g>
<g style="mix-blend-mode:multiply" opacity="0.2">
<rect x="37.6667" y="25" width="6.33333" height="6.33333" fill="#130F45"/>
</g>
<g style="mix-blend-mode:multiply" opacity="0.1">
<rect x="31.3333" y="25" width="6.33333" height="6.33333" fill="#130F45"/>
</g>
<g style="mix-blend-mode:multiply" opacity="0.4">
<rect x="37.6667" y="37.6666" width="6.33333" height="6.33333" fill="#130F45"/>
</g>
</g>
<g filter="url(#filter2_d)">
<path fill-rule="evenodd" clip-rule="evenodd" d="M10.1213 40.0607L16.0607 34.1213L16.0607 38L19.0607 38L19.0607 29L10.1213 29L10.1213 32L13.9393 32L8 37.9393L10.1213 40.0607Z" fill="#FAFAFF"/>
</g>
<g filter="url(#filter3_d)">
<path fill-rule="evenodd" clip-rule="evenodd" d="M40.0607 37.9392L34.1213 31.9999H38V28.9999H29V37.9392H32V34.1212L37.9393 40.0605L40.0607 37.9392Z" fill="#FAFAFF"/>
</g>
<defs>
<filter id="filter0_d" x="8" y="7.99988" width="13.0607" height="13.0607" filterUnits="userSpaceOnUse" color-interpolation-filters="sRGB">
<feFlood flood-opacity="0" result="BackgroundImageFix"/>
<feColorMatrix in="SourceAlpha" type="matrix" values="0 0 0 0 0 0 0 0 0 0 0 0 0 0 0 0 0 0 127 0"/>
<feOffset dx="1" dy="1"/>
<feGaussianBlur stdDeviation="0.5"/>
<feColorMatrix type="matrix" values="0 0 0 0 0.190192 0 0 0 0 0.175208 0 0 0 0 0.3625 0 0 0 0.4 0"/>
<feBlend mode="multiply" in2="BackgroundImageFix" result="effect1_dropShadow"/>
<feBlend mode="normal" in="SourceGraphic" in2="effect1_dropShadow" result="shape"/>
</filter>
<filter id="filter1_d" x="29" y="8" width="13.0607" height="13.0607" filterUnits="userSpaceOnUse" color-interpolation-filters="sRGB">
<feFlood flood-opacity="0" result="BackgroundImageFix"/>
<feColorMatrix in="SourceAlpha" type="matrix" values="0 0 0 0 0 0 0 0 0 0 0 0 0 0 0 0 0 0 127 0"/>
<feOffset dx="1" dy="1"/>
<feGaussianBlur stdDeviation="0.5"/>
<feColorMatrix type="matrix" values="0 0 0 0 0.190192 0 0 0 0 0.175208 0 0 0 0 0.3625 0 0 0 0.4 0"/>
<feBlend mode="multiply" in2="BackgroundImageFix" result="effect1_dropShadow"/>
<feBlend mode="normal" in="SourceGraphic" in2="effect1_dropShadow" result="shape"/>
</filter>
<filter id="filter2_d" x="8" y="29" width="13.0607" height="13.0607" filterUnits="userSpaceOnUse" color-interpolation-filters="sRGB">
<feFlood flood-opacity="0" result="BackgroundImageFix"/>
<feColorMatrix in="SourceAlpha" type="matrix" values="0 0 0 0 0 0 0 0 0 0 0 0 0 0 0 0 0 0 127 0"/>
<feOffset dx="1" dy="1"/>
<feGaussianBlur stdDeviation="0.5"/>
<feColorMatrix type="matrix" values="0 0 0 0 0.190192 0 0 0 0 0.175208 0 0 0 0 0.3625 0 0 0 0.4 0"/>
<feBlend mode="multiply" in2="BackgroundImageFix" result="effect1_dropShadow"/>
<feBlend mode="normal" in="SourceGraphic" in2="effect1_dropShadow" result="shape"/>
</filter>
<filter id="filter3_d" x="29" y="28.9999" width="13.0607" height="13.0607" filterUnits="userSpaceOnUse" color-interpolation-filters="sRGB">
<feFlood flood-opacity="0" result="BackgroundImageFix"/>
<feColorMatrix in="SourceAlpha" type="matrix" values="0 0 0 0 0 0 0 0 0 0 0 0 0 0 0 0 0 0 127 0"/>
<feOffset dx="1" dy="1"/>
<feGaussianBlur stdDeviation="0.5"/>
<feColorMatrix type="matrix" values="0 0 0 0 0.190192 0 0 0 0 0.175208 0 0 0 0 0.3625 0 0 0 0.4 0"/>
<feBlend mode="multiply" in2="BackgroundImageFix" result="effect1_dropShadow"/>
<feBlend mode="normal" in="SourceGraphic" in2="effect1_dropShadow" result="shape"/>
</filter>
<linearGradient id="paint0_linear" x1="13.5" y1="4" x2="13.5" y2="23" gradientUnits="userSpaceOnUse">
<stop stop-color="#5AE1FF"/>
<stop offset="1" stop-color="#30A8FF"/>
</linearGradient>
<linearGradient id="paint1_linear" x1="34.5" y1="4" x2="34.5" y2="23" gradientUnits="userSpaceOnUse">
<stop stop-color="#5AC4FF"/>
<stop offset="1" stop-color="#149CFF"/>
</linearGradient>
</defs>
</svg>
