<svg width="32" height="16" viewBox="0 0 32 16" fill="none" xmlns="http://www.w3.org/2000/svg">
<rect x="2.5" y="4.5" width="11" height="7" rx="0.5" stroke="#212648" stroke-linecap="round" stroke-linejoin="round"/>
<path fill-rule="evenodd" clip-rule="evenodd" d="M12 7.5C12 7.77614 11.7761 8 11.5 8H4.5C4.22386 8 4 7.77614 4 7.5V7.5C4 7.22386 4.22386 7 4.5 7H11.5C11.7761 7 12 7.22386 12 7.5V7.5Z" fill="#212648"/>
<path fill-rule="evenodd" clip-rule="evenodd" d="M8 9.5C8 9.77614 7.77614 10 7.5 10H4.5C4.22386 10 4 9.77614 4 9.5V9.5C4 9.22386 4.22386 9 4.5 9H7.5C7.77614 9 8 9.22386 8 9.5V9.5Z" fill="#212648"/>
<path d="M12 1.5H15.5V5" stroke="#212648" stroke-linecap="round" stroke-linejoin="round"/>
<path d="M0.5 11V14.5H4" stroke="#212648" stroke-linecap="round" stroke-linejoin="round"/>
<path d="M0.5 5V1.5H4" stroke="#212648" stroke-linecap="round" stroke-linejoin="round"/>
<path d="M15.5 11V14.5H12" stroke="#212648" stroke-linecap="round" stroke-linejoin="round"/>
<g opacity="0.4">
<rect x="18.5" y="4.5" width="11" height="7" rx="0.5" stroke="#212648" stroke-linecap="round" stroke-linejoin="round"/>
<path fill-rule="evenodd" clip-rule="evenodd" d="M28 7.5C28 7.77614 27.7761 8 27.5 8H20.5C20.2239 8 20 7.77614 20 7.5V7.5C20 7.22386 20.2239 7 20.5 7H27.5C27.7761 7 28 7.22386 28 7.5V7.5Z" fill="#212648"/>
<path fill-rule="evenodd" clip-rule="evenodd" d="M24 9.5C24 9.77614 23.7761 10 23.5 10H20.5C20.2239 10 20 9.77614 20 9.5V9.5C20 9.22386 20.2239 9 20.5 9H23.5C23.7761 9 24 9.22386 24 9.5V9.5Z" fill="#212648"/>
<path d="M28 1.5H31.5V5" stroke="#212648" stroke-linecap="round" stroke-linejoin="round"/>
<path d="M16.5 11V14.5H20" stroke="#212648" stroke-linecap="round" stroke-linejoin="round"/>
<path d="M16.5 5V1.5H20" stroke="#212648" stroke-linecap="round" stroke-linejoin="round"/>
<path d="M31.5 11V14.5H28" stroke="#212648" stroke-linecap="round" stroke-linejoin="round"/>
</g>
</svg>
