<svg width="227" height="40" viewBox="0 0 227 40" fill="none" xmlns="http://www.w3.org/2000/svg">
<g clip-path="url(#clip0)" filter="url(#filter0_i)">
<g clip-path="url(#clip1)">
<rect width="40" height="40" fill="url(#paint0_linear)"/>
<path d="M19.9672 30.6027H10V20.6062L21.4286 20.6027V20.6565C20.5909 20.8571 19.9683 21.6126 19.9683 22.5148L19.9672 30.6027Z" fill="white"/>
<path d="M10 19.5312H30V9.53125H10V19.5312Z" fill="white"/>
</g>
</g>
<path d="M63.632 6.8H61.504L59.536 14.8L57.12 6.8H55.072L52.656 14.784L50.688 6.8H48.48L51.536 18H53.6L56.064 9.824L58.528 18H60.576L63.632 6.8ZM67.6287 9.616C65.2287 9.616 63.5487 11.216 63.5487 13.888C63.5487 16.576 65.2287 18.176 67.6287 18.176C70.0448 18.176 71.7248 16.576 71.7248 13.888C71.7248 11.216 70.0448 9.616 67.6287 9.616ZM67.6128 11.456C68.8127 11.456 69.6927 12.24 69.6927 13.888C69.6927 15.44 68.9408 16.336 67.6607 16.336C66.4607 16.336 65.5807 15.552 65.5807 13.888C65.5807 12.352 66.3327 11.456 67.6128 11.456ZM77.5581 9.616C76.1821 9.616 75.5101 10.192 75.0461 10.96V9.76H73.0781V18H75.0621V13.552C75.0621 12.208 75.6861 11.392 76.8701 11.392C77.8461 11.392 78.4061 11.936 78.4061 12.864V18H80.3901V12.688C80.3901 10.72 79.4301 9.616 77.5581 9.616ZM89.931 6.624H87.947V10.848C87.451 10.048 86.443 9.616 85.371 9.616C83.355 9.616 81.675 11.024 81.675 13.872C81.675 16.768 83.355 18.176 85.371 18.176C86.507 18.176 87.531 17.68 87.979 16.736V18H89.931V6.624ZM85.835 16.352C84.683 16.352 83.691 15.536 83.691 13.872C83.691 12.192 84.683 11.376 85.835 11.376C86.907 11.376 87.995 12.176 87.995 13.872C87.995 15.552 86.907 16.352 85.835 16.352ZM98.949 14.48V13.664C98.949 10.944 97.253 9.616 95.253 9.616C93.157 9.616 91.285 11.056 91.285 13.936C91.285 16.8 93.125 18.176 95.205 18.176C96.885 18.176 98.469 17.264 98.885 15.52H97.029C96.741 16.176 96.069 16.464 95.285 16.464C94.101 16.464 93.253 15.824 93.205 14.48H98.949ZM95.237 11.328C96.309 11.328 96.997 11.936 96.997 13.024H93.253C93.429 11.824 94.293 11.328 95.237 11.328ZM104.97 9.664H104.426C103.466 9.664 102.698 10.08 102.282 10.976V9.76H100.314V18H102.298V13.968C102.298 12.352 103.05 11.6 104.442 11.6H104.97V9.664ZM109.298 13.088C108.29 12.944 107.57 12.816 107.57 12.176C107.57 11.696 107.954 11.264 108.93 11.264C109.778 11.264 110.354 11.584 110.434 12.4H112.37C112.258 10.56 110.834 9.616 108.914 9.616C107.202 9.616 105.634 10.368 105.634 12.24C105.634 14.272 107.474 14.544 109.09 14.816C110.226 15.008 110.61 15.136 110.61 15.648C110.61 16.272 110.018 16.544 109.17 16.544C108.242 16.544 107.522 16.192 107.378 15.36H105.378C105.522 17.44 107.362 18.176 109.074 18.176C110.914 18.176 112.562 17.296 112.562 15.44C112.562 13.52 110.77 13.312 109.298 13.088ZM118.327 9.616C116.935 9.616 116.295 10.192 115.831 10.976V6.624H113.847V18H115.831V13.552C115.831 12.208 116.455 11.392 117.639 11.392C118.615 11.392 119.175 11.936 119.175 12.864V18H121.159V12.688C121.159 10.72 120.199 9.616 118.327 9.616ZM126.508 9.616C124.46 9.616 123.004 10.544 122.684 12.464H124.572C124.748 11.84 125.1 11.248 126.332 11.248C127.036 11.248 127.692 11.472 127.692 12.096C127.692 12.784 127.052 12.912 126.732 12.96L125.068 13.2C124.316 13.312 122.444 13.664 122.444 15.728C122.444 17.472 123.788 18.176 125.1 18.176C125.98 18.176 127.052 17.856 127.692 16.8V18H129.628V12.288C129.628 10.352 128.316 9.616 126.508 9.616ZM125.612 16.528C124.908 16.528 124.428 16.224 124.428 15.568C124.428 14.656 125.404 14.512 125.756 14.464L126.588 14.336C127.004 14.272 127.34 14.224 127.644 14.096V14.544C127.644 15.648 126.812 16.528 125.612 16.528ZM136.129 9.664H135.585C134.625 9.664 133.857 10.08 133.441 10.976V9.76H131.473V18H133.457V13.968C133.457 12.352 134.209 11.6 135.601 11.6H136.129V9.664ZM144.125 14.48V13.664C144.125 10.944 142.429 9.616 140.429 9.616C138.333 9.616 136.461 11.056 136.461 13.936C136.461 16.8 138.301 18.176 140.381 18.176C142.061 18.176 143.645 17.264 144.061 15.52H142.205C141.917 16.176 141.245 16.464 140.461 16.464C139.277 16.464 138.429 15.824 138.381 14.48H144.125ZM140.413 11.328C141.485 11.328 142.173 11.936 142.173 13.024H138.429C138.605 11.824 139.469 11.328 140.413 11.328Z" fill="black"/>
<path d="M54.144 22.8H49.44V34H51.504V29.872H53.936C56.496 29.872 57.824 28.144 57.824 26.224C57.824 24.384 56.592 22.8 54.144 22.8ZM54 27.936H51.504V24.752H54.08C55.2 24.752 55.728 25.424 55.728 26.336C55.728 27.248 55.184 27.936 54 27.936ZM62.9986 22.8H59.1906V34H62.7426C66.7586 34 68.5986 31.008 68.5986 28.176C68.5986 25.392 66.8226 22.8 62.9986 22.8ZM62.7586 32.048H61.2706V24.752H63.0786C65.4946 24.752 66.5026 26.4 66.5026 28.176C66.5026 30.08 65.3506 32.048 62.7586 32.048ZM72.365 29.312H77.373V27.36H72.365V24.752H77.805V22.8H70.285V34H72.365V29.312ZM85.7921 30.48V29.664C85.7921 26.944 84.0961 25.616 82.0961 25.616C80.0001 25.616 78.1281 27.056 78.1281 29.936C78.1281 32.8 79.9681 34.176 82.0481 34.176C83.7281 34.176 85.3121 33.264 85.7281 31.52H83.8721C83.5841 32.176 82.9121 32.464 82.1281 32.464C80.9441 32.464 80.0961 31.824 80.0481 30.48H85.7921ZM82.0801 27.328C83.1521 27.328 83.8401 27.936 83.8401 29.024H80.0961C80.2721 27.824 81.1361 27.328 82.0801 27.328ZM89.1415 22.624H87.1575V34H89.1415V22.624ZM98.1684 30.48V29.664C98.1684 26.944 96.4724 25.616 94.4724 25.616C92.3764 25.616 90.5044 27.056 90.5044 29.936C90.5044 32.8 92.3444 34.176 94.4244 34.176C96.1044 34.176 97.6884 33.264 98.1044 31.52H96.2484C95.9604 32.176 95.2884 32.464 94.5044 32.464C93.3204 32.464 92.4724 31.824 92.4244 30.48H98.1684ZM94.4564 27.328C95.5284 27.328 96.2164 27.936 96.2164 29.024H92.4724C92.6484 27.824 93.5124 27.328 94.4564 27.328ZM108.382 25.616C106.894 25.616 106.27 26.384 105.95 26.976C105.566 26.112 104.75 25.616 103.646 25.616C102.398 25.616 101.742 26.32 101.486 26.976V25.76H99.5337V34H101.518V29.36C101.518 28 102.158 27.408 103.086 27.408C103.918 27.408 104.414 27.856 104.414 28.832V34H106.398V29.376C106.398 27.984 107.038 27.408 107.982 27.408C108.83 27.408 109.294 27.856 109.294 28.832V34H111.278V28.448C111.278 26.672 110.158 25.616 108.382 25.616ZM120.217 30.48V29.664C120.217 26.944 118.521 25.616 116.521 25.616C114.425 25.616 112.553 27.056 112.553 29.936C112.553 32.8 114.393 34.176 116.473 34.176C118.153 34.176 119.737 33.264 120.153 31.52H118.297C118.009 32.176 117.337 32.464 116.553 32.464C115.369 32.464 114.521 31.824 114.473 30.48H120.217ZM116.505 27.328C117.577 27.328 118.265 27.936 118.265 29.024H114.521C114.697 27.824 115.561 27.328 116.505 27.328ZM126.062 25.616C124.686 25.616 124.014 26.192 123.55 26.96V25.76H121.582V34H123.566V29.552C123.566 28.208 124.19 27.392 125.374 27.392C126.35 27.392 126.91 27.936 126.91 28.864V34H128.894V28.688C128.894 26.72 127.934 25.616 126.062 25.616ZM135.027 32.24H134.179C133.347 32.24 133.187 31.824 133.187 31.248V27.552H134.835V25.76H133.187V23.36L131.203 23.904V25.76H129.699V27.552H131.203V31.328C131.203 33.536 132.179 34 133.731 34H135.027V32.24ZM143.301 29.84H138.709V28.08H143.301V29.84ZM152.73 22.8H148.026V34H150.09V29.872H152.522C155.082 29.872 156.41 28.144 156.41 26.224C156.41 24.384 155.178 22.8 152.73 22.8ZM152.586 27.936H150.09V24.752H152.666C153.786 24.752 154.314 25.424 154.314 26.336C154.314 27.248 153.77 27.936 152.586 27.936ZM161.585 22.8H157.777V34H161.329C165.345 34 167.185 31.008 167.185 28.176C167.185 25.392 165.409 22.8 161.585 22.8ZM161.345 32.048H159.857V24.752H161.665C164.081 24.752 165.089 26.4 165.089 28.176C165.089 30.08 163.937 32.048 161.345 32.048ZM170.951 29.312H175.959V27.36H170.951V24.752H176.391V22.8H168.871V34H170.951V29.312ZM188.212 34V32.048H182.468V29.312H187.476V27.36H182.468V24.752H187.908V22.8H180.388V34H188.212ZM197.268 22.624H195.284V26.848C194.788 26.048 193.78 25.616 192.708 25.616C190.692 25.616 189.012 27.024 189.012 29.872C189.012 32.768 190.692 34.176 192.708 34.176C193.844 34.176 194.868 33.68 195.316 32.736V34H197.268V22.624ZM193.172 32.352C192.02 32.352 191.028 31.536 191.028 29.872C191.028 28.192 192.02 27.376 193.172 27.376C194.244 27.376 195.332 28.176 195.332 29.872C195.332 31.552 194.244 32.352 193.172 32.352ZM199.07 24.672H201.182V22.416H199.07V24.672ZM199.134 34H201.118V25.76H199.134V34ZM207.284 32.24H206.436C205.604 32.24 205.444 31.824 205.444 31.248V27.552H207.092V25.76H205.444V23.36L203.46 23.904V25.76H201.956V27.552H203.46V31.328C203.46 33.536 204.436 34 205.988 34H207.284V32.24ZM212.001 25.616C209.601 25.616 207.921 27.216 207.921 29.888C207.921 32.576 209.601 34.176 212.001 34.176C214.417 34.176 216.097 32.576 216.097 29.888C216.097 27.216 214.417 25.616 212.001 25.616ZM211.985 27.456C213.185 27.456 214.065 28.24 214.065 29.888C214.065 31.44 213.313 32.336 212.033 32.336C210.833 32.336 209.953 31.552 209.953 29.888C209.953 28.352 210.705 27.456 211.985 27.456ZM222.106 25.664H221.562C220.602 25.664 219.834 26.08 219.418 26.976V25.76H217.45V34H219.434V29.968C219.434 28.352 220.186 27.6 221.578 27.6H222.106V25.664Z" fill="black"/>
<defs>
<filter id="filter0_i" x="0" y="0" width="40" height="40" filterUnits="userSpaceOnUse" color-interpolation-filters="sRGB">
<feFlood flood-opacity="0" result="BackgroundImageFix"/>
<feBlend mode="normal" in="SourceGraphic" in2="BackgroundImageFix" result="shape"/>
<feColorMatrix in="SourceAlpha" type="matrix" values="0 0 0 0 0 0 0 0 0 0 0 0 0 0 0 0 0 0 127 0" result="hardAlpha"/>
<feOffset/>
<feGaussianBlur stdDeviation="0.078125"/>
<feComposite in2="hardAlpha" operator="arithmetic" k2="-1" k3="1"/>
<feColorMatrix type="matrix" values="0 0 0 0 0 0 0 0 0 0 0 0 0 0 0 0 0 0 0.24 0"/>
<feBlend mode="darken" in2="shape" result="effect1_innerShadow"/>
</filter>
<linearGradient id="paint0_linear" x1="20" y1="0" x2="20" y2="40" gradientUnits="userSpaceOnUse">
<stop stop-color="#414C9A"/>
<stop offset="1" stop-color="#364295"/>
</linearGradient>
<clipPath id="clip0">
<rect width="40" height="40" fill="white"/>
</clipPath>
<clipPath id="clip1">
<rect width="40" height="40" rx="9.12621" fill="white"/>
</clipPath>
</defs>
</svg>
