<svg width="16" height="16" viewBox="0 0 16 16" fill="none" xmlns="http://www.w3.org/2000/svg">
<path d="M11.5001 5.5C12.0524 5.5 12.5001 5.94772 12.5001 6.5C12.5001 7.05228 12.0524 7.5 11.5001 7.5C10.9478 7.5 10.5001 7.05228 10.5001 6.5C10.5001 5.94772 10.9478 5.5 11.5001 5.5Z" stroke="#212648"/>
<path d="M3.50012 10.4998L6.50012 7.49976L9.50012 10.4998" stroke="#212648" stroke-linecap="round" stroke-linejoin="round"/>
<path d="M14.5 1.5H1.5C0.947715 1.5 0.5 1.94772 0.5 2.5V13.5C0.5 14.0523 0.947715 14.5 1.5 14.5H14.5C15.0523 14.5 15.5 14.0523 15.5 13.5V2.5C15.5 1.94772 15.0523 1.5 14.5 1.5Z" stroke="#212648"/>
</svg>
