<svg width="32" height="16" viewBox="0 0 32 16" fill="none" xmlns="http://www.w3.org/2000/svg">
<path d="M12.7464 11.9218L12.7563 11.9097L12.7654 11.8969C13.2299 11.2469 13.3296 10.3041 13.3296 9.69531C13.3296 8.84933 13.0941 8.06342 12.599 7.48019C12.0953 6.88696 11.3603 6.54866 10.4654 6.54866C10.1281 6.54866 9.80695 6.60828 9.51078 6.71983L9.00337 6.91094L9.23488 7.40124C9.48636 7.93381 9.66804 8.51815 9.84041 9.14326C9.88686 9.31173 9.933 9.48466 9.97982 9.66015C10.103 10.122 10.231 10.6017 10.3819 11.0643C10.5588 11.6064 10.8149 11.9462 11.0924 12.1469C11.369 12.3469 11.6235 12.3773 11.743 12.3773C12.0858 12.3773 12.4801 12.2491 12.7464 11.9218Z" stroke="#212648"/>
<path d="M11.7725 11.8867L10.9707 11.2907C10.9373 11.3317 10.8639 11.3738 10.7566 11.3771C10.7454 11.3741 10.7169 11.3644 10.6783 11.3366C10.6078 11.2855 10.4589 11.1413 10.3326 10.7541C10.1907 10.3192 10.0737 9.88064 9.95316 9.42883C9.90383 9.24387 9.8539 9.0567 9.80142 8.86663C9.62449 8.22583 9.42271 7.56969 9.12927 6.95346C8.86152 6.39119 8.47285 5.76588 7.90946 5.2932C6.57099 4.17023 4.43657 4.22376 3.21349 5.55647C2.77132 6.03827 2.55061 6.7158 2.44158 7.09885L2.23159 7.83668L2.9914 7.73095C3.06505 7.7207 3.14146 7.71526 3.22059 7.71526C4.36453 7.71526 5.14887 8.14162 5.81165 8.72627C6.15048 9.02515 6.45585 9.36419 6.76538 9.71941C6.8091 9.76958 6.85308 9.82031 6.89735 9.87135C7.15934 10.1735 7.43113 10.4869 7.71508 10.7644C8.04445 11.0863 8.35881 11.3509 8.65442 11.5668C9.41437 12.122 10.0616 12.3641 10.5251 12.4223C10.6007 12.4317 10.6736 12.4366 10.743 12.4366C11.2275 12.4366 11.5746 12.1789 11.7725 11.8867Z" stroke="#212648"/>
<path d="M2.48879 11.2139C2.17862 11.0741 1.5 10.5036 1.5 9.48735C1.5 8.64589 2.20886 7.71526 3.22061 7.71526C4.36455 7.71526 5.14889 8.14162 5.81167 8.72627C6.15051 9.02516 6.45588 9.36419 6.7654 9.71942C6.80912 9.76959 6.8531 9.82031 6.89737 9.87135C7.15936 10.1735 7.43116 10.4869 7.71511 10.7644C7.98942 11.0325 8.25451 11.2619 8.50798 11.4568C8.00303 11.4587 7.45456 11.4593 6.90284 11.4579C5.18748 11.4537 3.49504 11.4298 2.95248 11.3685C2.95377 11.3686 2.94805 11.368 2.93365 11.3649C2.92 11.362 2.90248 11.3578 2.88115 11.3521C2.83823 11.3405 2.78781 11.3249 2.7349 11.3071C2.6262 11.2705 2.52857 11.2318 2.48879 11.2139Z" stroke="#212648"/>
<path d="M13.0376 11.9346C13.7197 11.9346 15.0576 11.5927 15.0576 10.0434C15.0576 9.13471 14.2859 8.67301 13.6746 8.64403C13.7771 8.96279 13.8296 9.31709 13.8296 9.69529C13.8296 10.2829 13.7273 11.0903 13.3584 11.6066C13.2496 11.746 13.1809 11.8042 13.0781 11.8587C13.0012 11.9019 12.8691 11.9323 12.7794 11.9365C12.8658 11.9361 12.9995 11.9346 13.0376 11.9346Z" fill="#212648"/>
<g opacity="0.4">
<path d="M28.7464 11.9218L28.7563 11.9097L28.7654 11.8969C29.2299 11.2469 29.3296 10.3041 29.3296 9.69531C29.3296 8.84933 29.0941 8.06342 28.599 7.48019C28.0953 6.88696 27.3603 6.54866 26.4654 6.54866C26.1281 6.54866 25.807 6.60828 25.5108 6.71983L25.0034 6.91094L25.2349 7.40124C25.4864 7.93381 25.668 8.51815 25.8404 9.14326C25.8869 9.31173 25.933 9.48466 25.9798 9.66015C26.103 10.122 26.231 10.6017 26.3819 11.0643C26.5588 11.6064 26.8149 11.9462 27.0924 12.1469C27.369 12.3469 27.6235 12.3773 27.743 12.3773C28.0858 12.3773 28.4801 12.2491 28.7464 11.9218Z" stroke="#212648"/>
<path d="M27.7725 11.8867L26.9707 11.2907C26.9373 11.3317 26.8639 11.3738 26.7566 11.3771C26.7454 11.3741 26.7169 11.3644 26.6783 11.3366C26.6078 11.2855 26.4589 11.1413 26.3326 10.7541C26.1907 10.3192 26.0737 9.88064 25.9532 9.42883C25.9038 9.24387 25.8539 9.0567 25.8014 8.86663C25.6245 8.22583 25.4227 7.56969 25.1293 6.95346C24.8615 6.39119 24.4729 5.76588 23.9095 5.2932C22.571 4.17023 20.4366 4.22376 19.2135 5.55647C18.7713 6.03827 18.5506 6.7158 18.4416 7.09885L18.2316 7.83668L18.9914 7.73095C19.0651 7.7207 19.1415 7.71526 19.2206 7.71526C20.3645 7.71526 21.1489 8.14162 21.8117 8.72627C22.1505 9.02515 22.4559 9.36419 22.7654 9.71941C22.8091 9.76958 22.8531 9.82031 22.8973 9.87135C23.1593 10.1735 23.4311 10.4869 23.7151 10.7644C24.0444 11.0863 24.3588 11.3509 24.6544 11.5668C25.4144 12.122 26.0616 12.3641 26.5251 12.4223C26.6007 12.4317 26.6736 12.4366 26.743 12.4366C27.2275 12.4366 27.5746 12.1789 27.7725 11.8867Z" stroke="#212648"/>
<path d="M18.4888 11.2139C18.1786 11.0741 17.5 10.5036 17.5 9.48735C17.5 8.64589 18.2089 7.71526 19.2206 7.71526C20.3646 7.71526 21.1489 8.14162 21.8117 8.72627C22.1505 9.02516 22.4559 9.36419 22.7654 9.71942C22.8091 9.76959 22.8531 9.82031 22.8974 9.87135C23.1594 10.1735 23.4312 10.4869 23.7151 10.7644C23.9894 11.0325 24.2545 11.2619 24.508 11.4568C24.003 11.4587 23.4546 11.4593 22.9028 11.4579C21.1875 11.4537 19.495 11.4298 18.9525 11.3685C18.9538 11.3686 18.9481 11.368 18.9337 11.3649C18.92 11.362 18.9025 11.3578 18.8812 11.3521C18.8382 11.3405 18.7878 11.3249 18.7349 11.3071C18.6262 11.2705 18.5286 11.2318 18.4888 11.2139Z" stroke="#212648"/>
<path d="M29.0376 11.9346C29.7197 11.9346 31.0576 11.5927 31.0576 10.0434C31.0576 9.13471 30.2859 8.67301 29.6746 8.64403C29.7771 8.96279 29.8296 9.31709 29.8296 9.69529C29.8296 10.2829 29.7273 11.0903 29.3584 11.6066C29.2496 11.746 29.1809 11.8042 29.0781 11.8587C29.0012 11.9019 28.8691 11.9323 28.7794 11.9365C28.8658 11.9361 28.9995 11.9346 29.0376 11.9346Z" fill="#212648"/>
</g>
</svg>
