<svg width="64" height="16" viewBox="0 0 64 16" fill="none" xmlns="http://www.w3.org/2000/svg">
<path d="M8 10C9.10457 10 10 9.10457 10 8C10 6.89543 9.10457 6 8 6C6.89543 6 6 6.89543 6 8C6 9.10457 6.89543 10 8 10Z" stroke="#212648" stroke-linecap="round" stroke-linejoin="round"/>
<path d="M12.7091 9.90909C12.6244 10.101 12.5991 10.3139 12.6365 10.5204C12.674 10.7268 12.7724 10.9173 12.9191 11.0673L12.9573 11.1055C13.0756 11.2237 13.1695 11.364 13.2335 11.5185C13.2976 11.673 13.3305 11.8387 13.3305 12.0059C13.3305 12.1732 13.2976 12.3388 13.2335 12.4933C13.1695 12.6478 13.0756 12.7882 12.9573 12.9064C12.8391 13.0247 12.6987 13.1186 12.5442 13.1826C12.3897 13.2467 12.2241 13.2796 12.0568 13.2796C11.8896 13.2796 11.7239 13.2467 11.5694 13.1826C11.4149 13.1186 11.2746 13.0247 11.1564 12.9064L11.1182 12.8682C10.9682 12.7215 10.7777 12.6231 10.5713 12.5856C10.3649 12.5482 10.1519 12.5735 9.96 12.6582C9.77178 12.7388 9.61126 12.8728 9.4982 13.0435C9.38513 13.2143 9.32445 13.4143 9.32364 13.6191V13.7273C9.32364 14.0648 9.18955 14.3885 8.95086 14.6272C8.71218 14.8659 8.38846 15 8.05091 15C7.71336 15 7.38964 14.8659 7.15096 14.6272C6.91227 14.3885 6.77818 14.0648 6.77818 13.7273V13.67C6.77325 13.4594 6.70508 13.2551 6.58251 13.0837C6.45994 12.9123 6.28865 12.7818 6.09091 12.7091C5.89897 12.6244 5.68606 12.5991 5.47963 12.6365C5.27319 12.674 5.0827 12.7724 4.93273 12.9191L4.89455 12.9573C4.77634 13.0756 4.63598 13.1695 4.48147 13.2335C4.32696 13.2976 4.16135 13.3305 3.99409 13.3305C3.82683 13.3305 3.66122 13.2976 3.50671 13.2335C3.35221 13.1695 3.21184 13.0756 3.09364 12.9573C2.9753 12.8391 2.88143 12.6987 2.81738 12.5442C2.75333 12.3897 2.72036 12.2241 2.72036 12.0568C2.72036 11.8896 2.75333 11.7239 2.81738 11.5694C2.88143 11.4149 2.9753 11.2746 3.09364 11.1564L3.13182 11.1182C3.27852 10.9682 3.37694 10.7777 3.41437 10.5713C3.4518 10.3649 3.42653 10.1519 3.34182 9.96C3.26115 9.77178 3.12721 9.61126 2.95648 9.4982C2.78575 9.38513 2.58568 9.32445 2.38091 9.32364H2.27273C1.93518 9.32364 1.61146 9.18955 1.37277 8.95086C1.13409 8.71218 1 8.38846 1 8.05091C1 7.71336 1.13409 7.38964 1.37277 7.15096C1.61146 6.91227 1.93518 6.77818 2.27273 6.77818H2.33C2.54063 6.77325 2.74491 6.70508 2.91628 6.58251C3.08765 6.45994 3.21818 6.28865 3.29091 6.09091C3.37562 5.89897 3.40089 5.68606 3.36346 5.47963C3.32603 5.27319 3.22761 5.0827 3.08091 4.93273L3.04273 4.89455C2.92439 4.77634 2.83052 4.63598 2.76647 4.48147C2.70242 4.32696 2.66945 4.16135 2.66945 3.99409C2.66945 3.82683 2.70242 3.66122 2.76647 3.50671C2.83052 3.35221 2.92439 3.21184 3.04273 3.09364C3.16093 2.9753 3.3013 2.88143 3.4558 2.81738C3.61031 2.75333 3.77593 2.72036 3.94318 2.72036C4.11044 2.72036 4.27605 2.75333 4.43056 2.81738C4.58507 2.88143 4.72543 2.9753 4.84364 3.09364L4.88182 3.13182C5.0318 3.27852 5.22228 3.37694 5.42872 3.41437C5.63515 3.4518 5.84806 3.42653 6.04 3.34182H6.09091C6.27913 3.26115 6.43965 3.12721 6.55271 2.95648C6.66578 2.78575 6.72646 2.58568 6.72727 2.38091V2.27273C6.72727 1.93518 6.86136 1.61146 7.10005 1.37277C7.33873 1.13409 7.66245 1 8 1C8.33755 1 8.66127 1.13409 8.89995 1.37277C9.13864 1.61146 9.27273 1.93518 9.27273 2.27273V2.33C9.27354 2.53477 9.33422 2.73484 9.44729 2.90557C9.56035 3.0763 9.72087 3.21024 9.90909 3.29091C10.101 3.37562 10.3139 3.40089 10.5204 3.36346C10.7268 3.32603 10.9173 3.22761 11.0673 3.08091L11.1055 3.04273C11.2237 2.92439 11.364 2.83052 11.5185 2.76647C11.673 2.70242 11.8387 2.66945 12.0059 2.66945C12.1732 2.66945 12.3388 2.70242 12.4933 2.76647C12.6478 2.83052 12.7882 2.92439 12.9064 3.04273C13.0247 3.16093 13.1186 3.3013 13.1826 3.4558C13.2467 3.61031 13.2796 3.77593 13.2796 3.94318C13.2796 4.11044 13.2467 4.27605 13.1826 4.43056C13.1186 4.58507 13.0247 4.72543 12.9064 4.84364L12.8682 4.88182C12.7215 5.0318 12.6231 5.22228 12.5856 5.42872C12.5482 5.63515 12.5735 5.84806 12.6582 6.04V6.09091C12.7388 6.27913 12.8728 6.43965 13.0435 6.55271C13.2143 6.66578 13.4143 6.72646 13.6191 6.72727H13.7273C14.0648 6.72727 14.3885 6.86136 14.6272 7.10005C14.8659 7.33873 15 7.66245 15 8C15 8.33755 14.8659 8.66127 14.6272 8.89995C14.3885 9.13864 14.0648 9.27273 13.7273 9.27273H13.67C13.4652 9.27354 13.2652 9.33422 13.0944 9.44729C12.9237 9.56035 12.7898 9.72087 12.7091 9.90909V9.90909Z" stroke="#212648" stroke-linecap="round" stroke-linejoin="round"/>
<path d="M28.7091 9.90909C28.6244 10.101 28.5991 10.3139 28.6365 10.5204C28.674 10.7268 28.7724 10.9173 28.9191 11.0673L28.9573 11.1055C29.0756 11.2237 29.1695 11.364 29.2335 11.5185C29.2976 11.673 29.3305 11.8387 29.3305 12.0059C29.3305 12.1732 29.2976 12.3388 29.2335 12.4933C29.1695 12.6478 29.0756 12.7882 28.9573 12.9064C28.8391 13.0247 28.6987 13.1186 28.5442 13.1826C28.3897 13.2467 28.2241 13.2796 28.0568 13.2796C27.8896 13.2796 27.7239 13.2467 27.5694 13.1826C27.4149 13.1186 27.2746 13.0247 27.1564 12.9064L27.1182 12.8682C26.9682 12.7215 26.7777 12.6231 26.5713 12.5856C26.3649 12.5482 26.1519 12.5735 25.96 12.6582C25.7718 12.7388 25.6113 12.8728 25.4982 13.0435C25.3851 13.2143 25.3245 13.4143 25.3236 13.6191V13.7273C25.3236 14.0648 25.1895 14.3885 24.9509 14.6272C24.7122 14.8659 24.3885 15 24.0509 15C23.7134 15 23.3896 14.8659 23.151 14.6272C22.9123 14.3885 22.7782 14.0648 22.7782 13.7273V13.67C22.7733 13.4594 22.7051 13.2551 22.5825 13.0837C22.4599 12.9123 22.2886 12.7818 22.0909 12.7091C21.899 12.6244 21.6861 12.5991 21.4796 12.6365C21.2732 12.674 21.0827 12.7724 20.9327 12.9191L20.8945 12.9573C20.7763 13.0756 20.636 13.1695 20.4815 13.2335C20.327 13.2976 20.1613 13.3305 19.9941 13.3305C19.8268 13.3305 19.6612 13.2976 19.5067 13.2335C19.3522 13.1695 19.2118 13.0756 19.0936 12.9573C18.9753 12.8391 18.8814 12.6987 18.8174 12.5442C18.7533 12.3897 18.7204 12.2241 18.7204 12.0568C18.7204 11.8896 18.7533 11.7239 18.8174 11.5694C18.8814 11.4149 18.9753 11.2746 19.0936 11.1564L19.1318 11.1182C19.2785 10.9682 19.3769 10.7777 19.4144 10.5713C19.4518 10.3649 19.4265 10.1519 19.3418 9.96C19.2612 9.77178 19.1272 9.61126 18.9565 9.4982C18.7857 9.38513 18.5857 9.32445 18.3809 9.32364H18.2727C17.9352 9.32364 17.6115 9.18955 17.3728 8.95086C17.1341 8.71218 17 8.38846 17 8.05091C17 7.71336 17.1341 7.38964 17.3728 7.15096C17.6115 6.91227 17.9352 6.77818 18.2727 6.77818H18.33C18.5406 6.77325 18.7449 6.70508 18.9163 6.58251C19.0877 6.45994 19.2182 6.28865 19.2909 6.09091C19.3756 5.89897 19.4009 5.68606 19.3635 5.47963C19.326 5.27319 19.2276 5.0827 19.0809 4.93273L19.0427 4.89455C18.9244 4.77634 18.8305 4.63598 18.7665 4.48147C18.7024 4.32696 18.6695 4.16135 18.6695 3.99409C18.6695 3.82683 18.7024 3.66122 18.7665 3.50671C18.8305 3.35221 18.9244 3.21184 19.0427 3.09364C19.1609 2.9753 19.3013 2.88143 19.4558 2.81738C19.6103 2.75333 19.7759 2.72036 19.9432 2.72036C20.1104 2.72036 20.2761 2.75333 20.4306 2.81738C20.5851 2.88143 20.7254 2.9753 20.8436 3.09364L20.8818 3.13182C21.0318 3.27852 21.2223 3.37694 21.4287 3.41437C21.6351 3.4518 21.8481 3.42653 22.04 3.34182H22.0909C22.2791 3.26115 22.4396 3.12721 22.5527 2.95648C22.6658 2.78575 22.7265 2.58568 22.7273 2.38091V2.27273C22.7273 1.93518 22.8614 1.61146 23.1 1.37277C23.3387 1.13409 23.6625 1 24 1C24.3375 1 24.6613 1.13409 24.9 1.37277C25.1386 1.61146 25.2727 1.93518 25.2727 2.27273V2.33C25.2735 2.53477 25.3342 2.73484 25.4473 2.90557C25.5604 3.0763 25.7209 3.21024 25.9091 3.29091C26.101 3.37562 26.3139 3.40089 26.5204 3.36346C26.7268 3.32603 26.9173 3.22761 27.0673 3.08091L27.1055 3.04273C27.2237 2.92439 27.364 2.83052 27.5185 2.76647C27.673 2.70242 27.8387 2.66945 28.0059 2.66945C28.1732 2.66945 28.3388 2.70242 28.4933 2.76647C28.6478 2.83052 28.7882 2.92439 28.9064 3.04273C29.0247 3.16093 29.1186 3.3013 29.1826 3.4558C29.2467 3.61031 29.2796 3.77593 29.2796 3.94318C29.2796 4.11044 29.2467 4.27605 29.1826 4.43056C29.1186 4.58507 29.0247 4.72543 28.9064 4.84364L28.8682 4.88182C28.7215 5.0318 28.6231 5.22228 28.5856 5.42872C28.5482 5.63515 28.5735 5.84806 28.6582 6.04V6.09091C28.7388 6.27913 28.8728 6.43965 29.0435 6.55271C29.2143 6.66578 29.4143 6.72646 29.6191 6.72727H29.7273C30.0648 6.72727 30.3885 6.86136 30.6272 7.10005C30.8659 7.33873 31 7.66245 31 8C31 8.33755 30.8659 8.66127 30.6272 8.89995C30.3885 9.13864 30.0648 9.27273 29.7273 9.27273H29.67C29.4652 9.27354 29.2652 9.33422 29.0944 9.44729C28.9237 9.56035 28.7898 9.72087 28.7091 9.90909V9.90909Z" fill="#4864FF" stroke="#4864FF" stroke-linecap="round" stroke-linejoin="round"/>
<path d="M24 10C25.1046 10 26 9.10457 26 8C26 6.89543 25.1046 6 24 6C22.8954 6 22 6.89543 22 8C22 9.10457 22.8954 10 24 10Z" fill="white"/>
<path d="M40 10C41.1046 10 42 9.10457 42 8C42 6.89543 41.1046 6 40 6C38.8954 6 38 6.89543 38 8C38 9.10457 38.8954 10 40 10Z" stroke="#4864FF" stroke-linecap="round" stroke-linejoin="round"/>
<path d="M44.7091 9.90909C44.6244 10.101 44.5991 10.3139 44.6365 10.5204C44.674 10.7268 44.7724 10.9173 44.9191 11.0673L44.9573 11.1055C45.0756 11.2237 45.1695 11.364 45.2335 11.5185C45.2976 11.673 45.3305 11.8387 45.3305 12.0059C45.3305 12.1732 45.2976 12.3388 45.2335 12.4933C45.1695 12.6478 45.0756 12.7882 44.9573 12.9064C44.8391 13.0247 44.6987 13.1186 44.5442 13.1826C44.3897 13.2467 44.2241 13.2796 44.0568 13.2796C43.8896 13.2796 43.7239 13.2467 43.5694 13.1826C43.4149 13.1186 43.2746 13.0247 43.1564 12.9064L43.1182 12.8682C42.9682 12.7215 42.7777 12.6231 42.5713 12.5856C42.3649 12.5482 42.1519 12.5735 41.96 12.6582C41.7718 12.7388 41.6113 12.8728 41.4982 13.0435C41.3851 13.2143 41.3245 13.4143 41.3236 13.6191V13.7273C41.3236 14.0648 41.1895 14.3885 40.9509 14.6272C40.7122 14.8659 40.3885 15 40.0509 15C39.7134 15 39.3896 14.8659 39.151 14.6272C38.9123 14.3885 38.7782 14.0648 38.7782 13.7273V13.67C38.7733 13.4594 38.7051 13.2551 38.5825 13.0837C38.4599 12.9123 38.2886 12.7818 38.0909 12.7091C37.899 12.6244 37.6861 12.5991 37.4796 12.6365C37.2732 12.674 37.0827 12.7724 36.9327 12.9191L36.8945 12.9573C36.7763 13.0756 36.636 13.1695 36.4815 13.2335C36.327 13.2976 36.1613 13.3305 35.9941 13.3305C35.8268 13.3305 35.6612 13.2976 35.5067 13.2335C35.3522 13.1695 35.2118 13.0756 35.0936 12.9573C34.9753 12.8391 34.8814 12.6987 34.8174 12.5442C34.7533 12.3897 34.7204 12.2241 34.7204 12.0568C34.7204 11.8896 34.7533 11.7239 34.8174 11.5694C34.8814 11.4149 34.9753 11.2746 35.0936 11.1564L35.1318 11.1182C35.2785 10.9682 35.3769 10.7777 35.4144 10.5713C35.4518 10.3649 35.4265 10.1519 35.3418 9.96C35.2612 9.77178 35.1272 9.61126 34.9565 9.4982C34.7857 9.38513 34.5857 9.32445 34.3809 9.32364H34.2727C33.9352 9.32364 33.6115 9.18955 33.3728 8.95086C33.1341 8.71218 33 8.38846 33 8.05091C33 7.71336 33.1341 7.38964 33.3728 7.15096C33.6115 6.91227 33.9352 6.77818 34.2727 6.77818H34.33C34.5406 6.77325 34.7449 6.70508 34.9163 6.58251C35.0877 6.45994 35.2182 6.28865 35.2909 6.09091C35.3756 5.89897 35.4009 5.68606 35.3635 5.47963C35.326 5.27319 35.2276 5.0827 35.0809 4.93273L35.0427 4.89455C34.9244 4.77634 34.8305 4.63598 34.7665 4.48147C34.7024 4.32696 34.6695 4.16135 34.6695 3.99409C34.6695 3.82683 34.7024 3.66122 34.7665 3.50671C34.8305 3.35221 34.9244 3.21184 35.0427 3.09364C35.1609 2.9753 35.3013 2.88143 35.4558 2.81738C35.6103 2.75333 35.7759 2.72036 35.9432 2.72036C36.1104 2.72036 36.2761 2.75333 36.4306 2.81738C36.5851 2.88143 36.7254 2.9753 36.8436 3.09364L36.8818 3.13182C37.0318 3.27852 37.2223 3.37694 37.4287 3.41437C37.6351 3.4518 37.8481 3.42653 38.04 3.34182H38.0909C38.2791 3.26115 38.4396 3.12721 38.5527 2.95648C38.6658 2.78575 38.7265 2.58568 38.7273 2.38091V2.27273C38.7273 1.93518 38.8614 1.61146 39.1 1.37277C39.3387 1.13409 39.6625 1 40 1C40.3375 1 40.6613 1.13409 40.9 1.37277C41.1386 1.61146 41.2727 1.93518 41.2727 2.27273V2.33C41.2735 2.53477 41.3342 2.73484 41.4473 2.90557C41.5604 3.0763 41.7209 3.21024 41.9091 3.29091C42.101 3.37562 42.3139 3.40089 42.5204 3.36346C42.7268 3.32603 42.9173 3.22761 43.0673 3.08091L43.1055 3.04273C43.2237 2.92439 43.364 2.83052 43.5185 2.76647C43.673 2.70242 43.8387 2.66945 44.0059 2.66945C44.1732 2.66945 44.3388 2.70242 44.4933 2.76647C44.6478 2.83052 44.7882 2.92439 44.9064 3.04273C45.0247 3.16093 45.1186 3.3013 45.1826 3.4558C45.2467 3.61031 45.2796 3.77593 45.2796 3.94318C45.2796 4.11044 45.2467 4.27605 45.1826 4.43056C45.1186 4.58507 45.0247 4.72543 44.9064 4.84364L44.8682 4.88182C44.7215 5.0318 44.6231 5.22228 44.5856 5.42872C44.5482 5.63515 44.5735 5.84806 44.6582 6.04V6.09091C44.7388 6.27913 44.8728 6.43965 45.0435 6.55271C45.2143 6.66578 45.4143 6.72646 45.6191 6.72727H45.7273C46.0648 6.72727 46.3885 6.86136 46.6272 7.10005C46.8659 7.33873 47 7.66245 47 8C47 8.33755 46.8659 8.66127 46.6272 8.89995C46.3885 9.13864 46.0648 9.27273 45.7273 9.27273H45.67C45.4652 9.27354 45.2652 9.33422 45.0944 9.44729C44.9237 9.56035 44.7898 9.72087 44.7091 9.90909V9.90909Z" stroke="#4864FF" stroke-linecap="round" stroke-linejoin="round"/>
<path d="M56 10C57.1046 10 58 9.10457 58 8C58 6.89543 57.1046 6 56 6C54.8954 6 54 6.89543 54 8C54 9.10457 54.8954 10 56 10Z" stroke="#212648" stroke-opacity="0.1" stroke-linecap="round" stroke-linejoin="round"/>
<path d="M60.7091 9.90909C60.6244 10.101 60.5991 10.3139 60.6365 10.5204C60.674 10.7268 60.7724 10.9173 60.9191 11.0673L60.9573 11.1055C61.0756 11.2237 61.1695 11.364 61.2335 11.5185C61.2976 11.673 61.3305 11.8387 61.3305 12.0059C61.3305 12.1732 61.2976 12.3388 61.2335 12.4933C61.1695 12.6478 61.0756 12.7882 60.9573 12.9064C60.8391 13.0247 60.6987 13.1186 60.5442 13.1826C60.3897 13.2467 60.2241 13.2796 60.0568 13.2796C59.8896 13.2796 59.7239 13.2467 59.5694 13.1826C59.4149 13.1186 59.2746 13.0247 59.1564 12.9064L59.1182 12.8682C58.9682 12.7215 58.7777 12.6231 58.5713 12.5856C58.3649 12.5482 58.1519 12.5735 57.96 12.6582C57.7718 12.7388 57.6113 12.8728 57.4982 13.0435C57.3851 13.2143 57.3245 13.4143 57.3236 13.6191V13.7273C57.3236 14.0648 57.1895 14.3885 56.9509 14.6272C56.7122 14.8659 56.3885 15 56.0509 15C55.7134 15 55.3896 14.8659 55.151 14.6272C54.9123 14.3885 54.7782 14.0648 54.7782 13.7273V13.67C54.7733 13.4594 54.7051 13.2551 54.5825 13.0837C54.4599 12.9123 54.2886 12.7818 54.0909 12.7091C53.899 12.6244 53.6861 12.5991 53.4796 12.6365C53.2732 12.674 53.0827 12.7724 52.9327 12.9191L52.8945 12.9573C52.7763 13.0756 52.636 13.1695 52.4815 13.2335C52.327 13.2976 52.1613 13.3305 51.9941 13.3305C51.8268 13.3305 51.6612 13.2976 51.5067 13.2335C51.3522 13.1695 51.2118 13.0756 51.0936 12.9573C50.9753 12.8391 50.8814 12.6987 50.8174 12.5442C50.7533 12.3897 50.7204 12.2241 50.7204 12.0568C50.7204 11.8896 50.7533 11.7239 50.8174 11.5694C50.8814 11.4149 50.9753 11.2746 51.0936 11.1564L51.1318 11.1182C51.2785 10.9682 51.3769 10.7777 51.4144 10.5713C51.4518 10.3649 51.4265 10.1519 51.3418 9.96C51.2612 9.77178 51.1272 9.61126 50.9565 9.4982C50.7857 9.38513 50.5857 9.32445 50.3809 9.32364H50.2727C49.9352 9.32364 49.6115 9.18955 49.3728 8.95086C49.1341 8.71218 49 8.38846 49 8.05091C49 7.71336 49.1341 7.38964 49.3728 7.15096C49.6115 6.91227 49.9352 6.77818 50.2727 6.77818H50.33C50.5406 6.77325 50.7449 6.70508 50.9163 6.58251C51.0877 6.45994 51.2182 6.28865 51.2909 6.09091C51.3756 5.89897 51.4009 5.68606 51.3635 5.47963C51.326 5.27319 51.2276 5.0827 51.0809 4.93273L51.0427 4.89455C50.9244 4.77634 50.8305 4.63598 50.7665 4.48147C50.7024 4.32696 50.6695 4.16135 50.6695 3.99409C50.6695 3.82683 50.7024 3.66122 50.7665 3.50671C50.8305 3.35221 50.9244 3.21184 51.0427 3.09364C51.1609 2.9753 51.3013 2.88143 51.4558 2.81738C51.6103 2.75333 51.7759 2.72036 51.9432 2.72036C52.1104 2.72036 52.2761 2.75333 52.4306 2.81738C52.5851 2.88143 52.7254 2.9753 52.8436 3.09364L52.8818 3.13182C53.0318 3.27852 53.2223 3.37694 53.4287 3.41437C53.6351 3.4518 53.8481 3.42653 54.04 3.34182H54.0909C54.2791 3.26115 54.4396 3.12721 54.5527 2.95648C54.6658 2.78575 54.7265 2.58568 54.7273 2.38091V2.27273C54.7273 1.93518 54.8614 1.61146 55.1 1.37277C55.3387 1.13409 55.6625 1 56 1C56.3375 1 56.6613 1.13409 56.9 1.37277C57.1386 1.61146 57.2727 1.93518 57.2727 2.27273V2.33C57.2735 2.53477 57.3342 2.73484 57.4473 2.90557C57.5604 3.0763 57.7209 3.21024 57.9091 3.29091C58.101 3.37562 58.3139 3.40089 58.5204 3.36346C58.7268 3.32603 58.9173 3.22761 59.0673 3.08091L59.1055 3.04273C59.2237 2.92439 59.364 2.83052 59.5185 2.76647C59.673 2.70242 59.8387 2.66945 60.0059 2.66945C60.1732 2.66945 60.3388 2.70242 60.4933 2.76647C60.6478 2.83052 60.7882 2.92439 60.9064 3.04273C61.0247 3.16093 61.1186 3.3013 61.1826 3.4558C61.2467 3.61031 61.2796 3.77593 61.2796 3.94318C61.2796 4.11044 61.2467 4.27605 61.1826 4.43056C61.1186 4.58507 61.0247 4.72543 60.9064 4.84364L60.8682 4.88182C60.7215 5.0318 60.6231 5.22228 60.5856 5.42872C60.5482 5.63515 60.5735 5.84806 60.6582 6.04V6.09091C60.7388 6.27913 60.8728 6.43965 61.0435 6.55271C61.2143 6.66578 61.4143 6.72646 61.6191 6.72727H61.7273C62.0648 6.72727 62.3885 6.86136 62.6272 7.10005C62.8659 7.33873 63 7.66245 63 8C63 8.33755 62.8659 8.66127 62.6272 8.89995C62.3885 9.13864 62.0648 9.27273 61.7273 9.27273H61.67C61.4652 9.27354 61.2652 9.33422 61.0944 9.44729C60.9237 9.56035 60.7898 9.72087 60.7091 9.90909V9.90909Z" stroke="#212648" stroke-opacity="0.1" stroke-linecap="round" stroke-linejoin="round"/>
</svg>
