<svg width="48" height="24" viewBox="0 0 48 24" fill="none" xmlns="http://www.w3.org/2000/svg">
<path d="M4.5 3.5H14.7929L19.5 8.20711V20.5H4.5V3.5Z" stroke="#212648"/>
<path d="M14 9H20V8H15V3H14V9Z" fill="#212648"/>
<path d="M9 18.0001H8V13.5L7 14.5V13L8 12H9V18.0001Z" fill="#212648"/>
<path d="M11.0533 15.5291H14.9418V14.5863H12.6513V14.549L13.4476 13.7686C14.5689 12.7459 14.8699 12.2346 14.8699 11.614C14.8699 10.6685 14.0975 10 12.9283 10C11.783 10 10.9973 10.6845 11 11.7551H12.0946C12.092 11.2331 12.4222 10.9135 12.9203 10.9135C13.3997 10.9135 13.7566 11.2118 13.7566 11.6912C13.7566 12.1254 13.4902 12.4237 12.9949 12.9004L11.0533 14.6982V15.5291Z" fill="#212648"/>
<path d="M28.5 3.5H38.7929L43.5 8.20711V20.5H28.5V3.5Z" stroke="white"/>
<path d="M38 9H44V8H39V3H38V9Z" fill="white"/>
<path d="M33 18.0001H32V13.5L31 14.5V13L32 12H33V18.0001Z" fill="white"/>
<path d="M35.0533 15.5291H38.9418V14.5863H36.6513V14.549L37.4476 13.7686C38.5689 12.7459 38.8699 12.2346 38.8699 11.614C38.8699 10.6685 38.0975 10 36.9283 10C35.783 10 34.9973 10.6845 35 11.7551H36.0946C36.092 11.2331 36.4222 10.9135 36.9203 10.9135C37.3997 10.9135 37.7566 11.2118 37.7566 11.6912C37.7566 12.1254 37.4902 12.4237 36.9949 12.9004L35.0533 14.6982V15.5291Z" fill="white"/>
</svg>
