<svg width="48" height="24" viewBox="0 0 48 24" fill="none" xmlns="http://www.w3.org/2000/svg">
<g clip-path="url(#clip0)">
<path d="M3 15.8056C3 18.6744 5.33283 21 8.21053 21C9.70361 21 11.05 20.3739 12 19.3708C12.95 20.3739 14.2964 21 15.7895 21C18.6672 21 21 18.6744 21 15.8056C21 13.343 19.2811 11.2807 16.9741 10.746C17.1277 10.256 17.2105 9.73486 17.2105 9.19444C17.2105 6.32563 14.8777 4 12 4C9.12231 4 6.78947 6.32563 6.78947 9.19444C6.78947 9.73486 6.87226 10.256 7.02587 10.746C4.71892 11.2807 3 13.343 3 15.8056Z" stroke="#6A52FC" stroke-width="2"/>
</g>
<g opacity="0.4" clip-path="url(#clip1)">
<path d="M27 15.8056C27 18.6744 29.3328 21 32.2105 21C33.7036 21 35.05 20.3739 36 19.3708C36.95 20.3739 38.2964 21 39.7895 21C42.6672 21 45 18.6744 45 15.8056C45 13.343 43.2811 11.2807 40.9741 10.746C41.1277 10.256 41.2105 9.73486 41.2105 9.19444C41.2105 6.32563 38.8777 4 36 4C33.1223 4 30.7895 6.32563 30.7895 9.19444C30.7895 9.73486 30.8723 10.256 31.0259 10.746C28.7189 11.2807 27 13.343 27 15.8056Z" stroke="#6A52FC" stroke-width="2"/>
</g>
<defs>
<clipPath id="clip0">
<rect width="24" height="24" fill="white"/>
</clipPath>
<clipPath id="clip1">
<rect width="24" height="24" fill="white" transform="translate(24)"/>
</clipPath>
</defs>
</svg>
