<svg width="16" height="16" viewBox="0 0 16 16" fill="none" xmlns="http://www.w3.org/2000/svg">
<path fill-rule="evenodd" clip-rule="evenodd" d="M4 7.5V2H6V7.5C6 8.60457 6.89543 9.5 8 9.5C9.10457 9.5 10 8.60457 10 7.5V2H12V7.5C12 9.70914 10.2091 11.5 8 11.5C5.79086 11.5 4 9.70914 4 7.5Z" fill="#5C6182"/>
<path d="M2 14L3.29289 12.7071C3.68342 12.3166 4.31658 12.3166 4.70711 12.7071L5.29289 13.2929C5.68342 13.6834 6.31658 13.6834 6.70711 13.2929L7.29289 12.7071C7.68342 12.3166 8.31658 12.3166 8.70711 12.7071L9.29289 13.2929C9.68342 13.6834 10.3166 13.6834 10.7071 13.2929L11.2929 12.7071C11.6834 12.3166 12.3166 12.3166 12.7071 12.7071L14 14" stroke="#5C6182" stroke-linecap="round" stroke-linejoin="round"/>
</svg>
