<svg width="64" height="16" viewBox="0 0 64 16" fill="none" xmlns="http://www.w3.org/2000/svg">
<path d="M12.5 3.5L8 8M8 8L3.5 12.5M8 8L3.5 3.5M8 8L12.5 12.5" stroke="#7B7F91" stroke-linecap="round" stroke-linejoin="round"/>
<path d="M28.5 3.5L24 8M24 8L19.5 12.5M24 8L19.5 3.5M24 8L28.5 12.5" stroke="#FCFCFC" stroke-linecap="round" stroke-linejoin="round"/>
<path d="M44.5 3.5L40 8M40 8L35.5 12.5M40 8L35.5 3.5M40 8L44.5 12.5" stroke="#FCFCFC" stroke-linecap="round" stroke-linejoin="round"/>
<path d="M60.5 3.5L56 8M56 8L51.5 12.5M56 8L51.5 3.5M56 8L60.5 12.5" stroke="#BBBDC3" stroke-linecap="round" stroke-linejoin="round"/>
</svg>
