<svg width="160" height="20" viewBox="0 0 160 20" fill="none" xmlns="http://www.w3.org/2000/svg">
<path d="M28 9.81947C30.6538 7.44427 34.1582 6 38 6C41.8418 6 45.3462 7.44427 48 9.81947M28 9.81947C25.3462 7.44427 21.8418 6 18 6C12.4479 6 7.6003 9.01649 5.00673 13.5M28 9.81947C29.1815 10.8769 30.1943 12.1188 30.9933 13.5M48 9.81947C50.6538 7.44427 54.1582 6 58 6C61.8418 6 65.3462 7.44427 68 9.81947M48 9.81947C49.1576 10.8556 50.1534 12.0689 50.9447 13.4167M68 9.81947C70.6538 7.44427 74.1582 6 78 6C81.8418 6 85.3462 7.44427 88 9.81947M68 9.81947C69.1337 10.8342 70.1122 12.0188 70.8954 13.3333M88 9.81947C90.6538 7.44427 94.1582 6 98 6C101.842 6 105.346 7.44427 108 9.81947M88 9.81947C89.1097 10.8127 90.0707 11.9687 90.8454 13.25M108 9.81947C110.654 7.44427 114.158 6 118 6C121.842 6 125.346 7.44427 128 9.81947M108 9.81947C109.086 10.7911 110.029 11.9186 110.795 13.1667M128 9.81947C130.654 7.44427 134.158 6 138 6C143.343 6 148.034 8.79366 150.691 13M128 9.81947C129.046 10.7559 129.96 11.837 130.711 13.0314" stroke="black" stroke-linecap="round" stroke-linejoin="round"/>
</svg>
