<svg width="48" height="24" viewBox="0 0 48 24" fill="none" xmlns="http://www.w3.org/2000/svg">
<path d="M13.6516 6.56279L4.60569 15.6087C4.51192 15.7025 4.45924 15.8297 4.45924 15.9623L4.45924 18.7907C4.45924 19.0669 4.6831 19.2907 4.95924 19.2907H7.78767C7.92028 19.2907 8.04745 19.238 8.14122 19.1443L17.1872 10.0983M13.6516 6.56279L15.4194 4.79502C15.6147 4.59976 15.9312 4.59976 16.1265 4.79502L18.9549 7.62345C19.1502 7.81871 19.1502 8.13529 18.9549 8.33055L17.1872 10.0983M13.6516 6.56279L17.1872 10.0983" stroke="#212648"/>
<path d="M3.5 21.5H20.5" stroke="#212648" stroke-linecap="round" stroke-linejoin="round"/>
<g opacity="0.4">
<path d="M37.6516 6.56279L28.6057 15.6087C28.5119 15.7025 28.4592 15.8297 28.4592 15.9623V18.7907C28.4592 19.0669 28.6831 19.2907 28.9592 19.2907H31.7877C31.9203 19.2907 32.0475 19.238 32.1412 19.1443L41.1872 10.0983M37.6516 6.56279L39.4194 4.79502C39.6147 4.59976 39.9312 4.59976 40.1265 4.79502L42.9549 7.62345C43.1502 7.81871 43.1502 8.13529 42.9549 8.33055L41.1872 10.0983M37.6516 6.56279L41.1872 10.0983" stroke="#212648"/>
<path d="M27.5 21.5H44.5" stroke="#212648" stroke-linecap="round" stroke-linejoin="round"/>
</g>
</svg>
