<svg width="120" height="96" viewBox="0 0 120 96" fill="none" xmlns="http://www.w3.org/2000/svg">
<path d="M46.663 61.2275C43.9545 61.2275 42.1038 63.3846 42.1038 65.9092C42.1038 68.4315 43.9545 70.5926 46.663 70.5926C47.6926 70.5926 48.8565 70.0558 49.4095 69.158V70.3616H51.4876V56.9833H49.4095V62.6598C48.8565 61.7613 47.6926 61.2275 46.663 61.2275ZM46.7771 63.0805C48.3804 63.0805 49.4095 64.3807 49.4095 65.9092C49.4095 67.4378 48.3804 68.7383 46.7771 68.7383C45.2132 68.7383 44.1827 67.4378 44.1827 65.9092C44.1827 64.3807 45.2132 63.0805 46.7771 63.0805Z" fill="black"/>
<path d="M77.2943 70.3616H79.3753V65.7569C79.3753 64.2275 80.0602 63.0611 81.5118 63.0611C82.9999 63.0611 83.4364 64.2275 83.4364 65.7569V70.3616H85.5171V65.0681C85.5171 63.8438 85.3826 63.0985 84.9448 62.431C84.4489 61.686 83.5516 61.2274 82.2739 61.2274C80.9572 61.2274 79.9283 61.7428 79.3753 62.7003V56.9832H77.2943V70.3616Z" fill="black"/>
<path d="M12.2708 70.3616H10.8776L7.42574 61.4563H9.65712L11.5837 67.0938L13.5868 61.4563H15.6273L17.6306 67.0938L19.5566 61.4563H21.788L18.3357 70.3616H16.9434L14.6166 63.7121L12.2708 70.3616Z" fill="black"/>
<path d="M26.4897 61.2263C23.6679 61.2263 21.8167 63.3834 21.8167 65.908C21.8167 68.4303 23.6678 70.5915 26.4897 70.5915C29.3512 70.5915 31.202 68.4303 31.202 65.908C31.202 63.3834 29.3512 61.2263 26.4897 61.2263ZM23.896 65.908C23.896 64.3796 24.9258 63.0793 26.4897 63.0793C28.0931 63.0793 29.1229 64.3796 29.1229 65.908C29.1229 67.4366 28.0931 68.7371 26.4897 68.7371C24.9258 68.7371 23.896 67.4366 23.896 65.908Z" fill="black"/>
<path d="M32.4728 70.3616H34.5509V65.7569C34.5509 64.2275 35.2384 63.0611 36.6869 63.0611C38.1755 63.0611 38.6151 64.2275 38.6151 65.7569V70.3616H40.6932V65.0681C40.6932 63.8438 40.5595 63.0985 40.1213 62.431C39.6253 61.686 38.7299 61.2274 37.4499 61.2274C36.1348 61.2274 35.1047 61.7428 34.5509 62.7003V61.4562H32.4728L32.4728 70.3616Z" fill="black"/>
<path d="M52.7963 65.9092C52.7963 68.3366 54.2452 70.5926 57.2407 70.5926C59.51 70.5926 60.9408 69.214 61.2271 67.6869H59.1284C58.8622 68.3167 58.423 68.8508 57.2407 68.8508C55.562 68.8508 54.9319 67.8199 54.913 66.5396H61.2083C61.3032 65.9678 61.3032 65.5472 61.3032 65.2407C61.3032 62.9657 59.492 61.2275 57.1838 61.2275C54.3802 61.2275 52.7963 63.2338 52.7963 65.9092ZM54.9319 64.9933C54.9319 63.6727 55.905 62.9657 57.1267 62.9657C58.3848 62.9657 59.2823 63.7487 59.2823 64.9933H54.9319Z" fill="black"/>
<path d="M62.5733 70.3616H64.6512V66.5216C64.6512 64.3036 65.6252 63.2908 67.3998 63.2908C67.7226 63.2908 67.8949 63.3093 68.2187 63.3846V61.4743C67.9892 61.3794 67.7226 61.3415 67.3998 61.3415C66.2157 61.3415 65.0521 62.0663 64.6512 62.8896V61.4562H62.5733V70.3616Z" fill="black"/>
<path d="M73.8087 64.2482H75.8301C75.8301 62.5077 74.3229 61.2275 72.4354 61.2275C70.623 61.2275 69.0967 62.1243 69.0967 63.8073C69.0967 65.3551 69.9749 65.8149 71.2154 66.291C73.0835 67.0176 73.9808 67.0762 73.9808 67.9161C73.9808 68.6792 73.3502 68.9486 72.5303 68.9486C71.5385 68.9486 70.8136 68.5279 70.8136 67.3614H68.7911C68.7911 69.4635 70.5087 70.5926 72.416 70.5926C74.3611 70.5926 75.9633 69.7317 75.9633 67.8767C75.9633 66.254 74.7823 65.8149 73.5417 65.3366C71.9206 64.7063 71.1004 64.6095 71.1004 63.8438C71.1004 63.2135 71.6729 62.8706 72.3769 62.8706C73.3885 62.8706 73.8087 63.4058 73.8087 64.2482Z" fill="black"/>
<path d="M91.3749 61.2275C88.6676 61.2275 86.8163 63.3846 86.8163 65.9092C86.8163 68.4315 88.6676 70.5926 91.3749 70.5926C92.4061 70.5926 93.5684 70.0558 94.1227 69.158V70.3616H96.2026V61.4562H94.1227V62.6598C93.5684 61.7613 92.406 61.2275 91.3749 61.2275ZM91.4912 63.0805C93.0936 63.0805 94.1227 64.3807 94.1227 65.9092C94.1227 67.4378 93.0936 68.7383 91.4912 68.7383C89.9273 68.7383 88.8973 67.4378 88.8973 65.9092C88.8973 64.3807 89.9273 63.0805 91.4912 63.0805Z" fill="black"/>
<path d="M98.0786 70.3616H100.159V66.5216C100.159 64.3036 101.13 63.2908 102.905 63.2908C103.229 63.2908 103.4 63.3093 103.725 63.3846V61.4743C103.496 61.3794 103.229 61.3415 102.905 61.3415C101.722 61.3415 100.559 62.0663 100.159 62.8896V61.4562H98.0786V70.3616Z" fill="black"/>
<path d="M108.395 62.9657C109.653 62.9657 110.551 63.7487 110.551 64.9933H106.201C106.201 63.6726 107.173 62.9657 108.395 62.9657ZM112.476 66.5396C112.572 65.9678 112.572 65.5472 112.572 65.2407C112.572 62.9657 110.76 61.2275 108.451 61.2275C105.647 61.2275 104.065 63.2338 104.065 65.9092C104.065 68.3366 105.514 70.5926 108.509 70.5926C110.781 70.5926 112.209 69.214 112.496 67.6869H110.397C110.131 68.3167 109.692 68.8508 108.509 68.8508C106.831 68.8508 106.201 67.8199 106.183 66.5396H112.476Z" fill="black"/>
<path d="M71.726 43.1423C72.3687 42.4944 72.3608 41.4564 71.7177 40.8117L60.0012 29.0693L55.0804 33.9999C54.5318 34.5496 53.692 34.6294 53.0588 34.2394L53.026 34.2723L66.8012 48.078L71.726 43.1423Z" fill="black"/>
<path d="M58.1214 43.147L53.2 48.0792L40.3166 35.1673L46.4 29.0704L58.1214 40.8179C58.7631 41.461 58.7631 42.5038 58.1214 43.147Z" fill="black"/>
<path d="M79.6834 35.1673L73.6024 41.2617L66.6249 34.2735L66.6577 34.2406C67.2909 34.6306 68.1307 34.5508 68.6791 34.001L73.6 29.0704L79.6834 35.1673Z" fill="black"/>
</svg>
