<svg width="120" height="96" viewBox="0 0 120 96" fill="none" xmlns="http://www.w3.org/2000/svg">
<path d="M46.663 53.2275C43.9545 53.2275 42.1038 55.3846 42.1038 57.9092C42.1038 60.4315 43.9545 62.5926 46.663 62.5926C47.6926 62.5926 48.8565 62.0558 49.4095 61.158V62.3616H51.4876V48.9833H49.4095V54.6598C48.8565 53.7613 47.6926 53.2275 46.663 53.2275ZM46.7771 55.0805C48.3804 55.0805 49.4095 56.3807 49.4095 57.9092C49.4095 59.4378 48.3804 60.7383 46.7771 60.7383C45.2132 60.7383 44.1827 59.4378 44.1827 57.9092C44.1827 56.3807 45.2132 55.0805 46.7771 55.0805Z" fill="black"/>
<path d="M77.2943 62.3616H79.3753V57.7569C79.3753 56.2275 80.0602 55.0611 81.5118 55.0611C82.9999 55.0611 83.4364 56.2275 83.4364 57.7569V62.3616H85.5171V57.0681C85.5171 55.8438 85.3826 55.0985 84.9448 54.431C84.4489 53.686 83.5516 53.2274 82.2739 53.2274C80.9572 53.2274 79.9283 53.7428 79.3753 54.7003V48.9832H77.2943V62.3616Z" fill="black"/>
<path d="M12.2708 62.3616H10.8776L7.42574 53.4563H9.65712L11.5837 59.0938L13.5868 53.4563H15.6273L17.6306 59.0938L19.5566 53.4563H21.788L18.3357 62.3616H16.9434L14.6166 55.7121L12.2708 62.3616Z" fill="black"/>
<path d="M26.4897 53.2263C23.6679 53.2263 21.8167 55.3834 21.8167 57.908C21.8167 60.4303 23.6678 62.5915 26.4897 62.5915C29.3512 62.5915 31.202 60.4303 31.202 57.908C31.202 55.3834 29.3512 53.2263 26.4897 53.2263ZM23.896 57.908C23.896 56.3796 24.9258 55.0793 26.4897 55.0793C28.0931 55.0793 29.1229 56.3796 29.1229 57.908C29.1229 59.4366 28.0931 60.7371 26.4897 60.7371C24.9258 60.7371 23.896 59.4366 23.896 57.908Z" fill="black"/>
<path d="M32.4728 62.3616H34.5509V57.7569C34.5509 56.2275 35.2384 55.0611 36.6869 55.0611C38.1755 55.0611 38.6151 56.2275 38.6151 57.7569V62.3616H40.6932V57.0681C40.6932 55.8438 40.5595 55.0985 40.1213 54.431C39.6253 53.686 38.7299 53.2274 37.4499 53.2274C36.1348 53.2274 35.1047 53.7428 34.5509 54.7003V53.4562H32.4728L32.4728 62.3616Z" fill="black"/>
<path d="M52.7963 57.9092C52.7963 60.3366 54.2452 62.5926 57.2407 62.5926C59.51 62.5926 60.9408 61.214 61.2271 59.6869H59.1284C58.8622 60.3167 58.423 60.8508 57.2407 60.8508C55.562 60.8508 54.9319 59.8199 54.913 58.5396H61.2083C61.3032 57.9678 61.3032 57.5472 61.3032 57.2407C61.3032 54.9657 59.492 53.2275 57.1838 53.2275C54.3802 53.2275 52.7963 55.2338 52.7963 57.9092ZM54.9319 56.9933C54.9319 55.6727 55.905 54.9657 57.1267 54.9657C58.3848 54.9657 59.2823 55.7487 59.2823 56.9933H54.9319Z" fill="black"/>
<path d="M62.5733 62.3616H64.6512V58.5216C64.6512 56.3036 65.6252 55.2908 67.3998 55.2908C67.7226 55.2908 67.8949 55.3093 68.2187 55.3846V53.4743C67.9892 53.3794 67.7226 53.3415 67.3998 53.3415C66.2157 53.3415 65.0521 54.0663 64.6512 54.8896V53.4562H62.5733V62.3616Z" fill="black"/>
<path d="M73.8087 56.2482H75.8301C75.8301 54.5077 74.3229 53.2275 72.4354 53.2275C70.623 53.2275 69.0967 54.1243 69.0967 55.8073C69.0967 57.3551 69.9749 57.8149 71.2154 58.291C73.0835 59.0176 73.9808 59.0762 73.9808 59.9161C73.9808 60.6792 73.3502 60.9486 72.5303 60.9486C71.5385 60.9486 70.8136 60.5279 70.8136 59.3614H68.7911C68.7911 61.4635 70.5087 62.5926 72.416 62.5926C74.3611 62.5926 75.9633 61.7317 75.9633 59.8767C75.9633 58.254 74.7823 57.8149 73.5417 57.3366C71.9206 56.7063 71.1004 56.6095 71.1004 55.8438C71.1004 55.2135 71.6729 54.8706 72.3769 54.8706C73.3885 54.8706 73.8087 55.4058 73.8087 56.2482Z" fill="black"/>
<path d="M91.3749 53.2275C88.6676 53.2275 86.8163 55.3846 86.8163 57.9092C86.8163 60.4315 88.6676 62.5926 91.3749 62.5926C92.4061 62.5926 93.5684 62.0558 94.1227 61.158V62.3616H96.2026V53.4562H94.1227V54.6598C93.5684 53.7613 92.406 53.2275 91.3749 53.2275ZM91.4912 55.0805C93.0936 55.0805 94.1227 56.3807 94.1227 57.9092C94.1227 59.4378 93.0936 60.7383 91.4912 60.7383C89.9273 60.7383 88.8973 59.4378 88.8973 57.9092C88.8973 56.3807 89.9273 55.0805 91.4912 55.0805Z" fill="black"/>
<path d="M98.0786 62.3616H100.159V58.5216C100.159 56.3036 101.13 55.2908 102.905 55.2908C103.229 55.2908 103.4 55.3093 103.725 55.3846V53.4743C103.496 53.3794 103.229 53.3415 102.905 53.3415C101.722 53.3415 100.559 54.0663 100.159 54.8896V53.4562H98.0786V62.3616Z" fill="black"/>
<path d="M108.395 54.9657C109.653 54.9657 110.551 55.7487 110.551 56.9933H106.201C106.201 55.6726 107.173 54.9657 108.395 54.9657ZM112.476 58.5396C112.572 57.9678 112.572 57.5472 112.572 57.2407C112.572 54.9657 110.76 53.2275 108.451 53.2275C105.647 53.2275 104.065 55.2338 104.065 57.9092C104.065 60.3366 105.514 62.5926 108.509 62.5926C110.781 62.5926 112.209 61.214 112.496 59.6869H110.397C110.131 60.3167 109.692 60.8508 108.509 60.8508C106.831 60.8508 106.201 59.8199 106.183 58.5396H112.476Z" fill="black"/>
<g clip-path="url(#clip0)">
<path d="M37.1287 69.3305H39.4338V71.5898C39.4338 72.815 39.0466 74.003 38.3413 74.9361C37.9802 75.4147 37.5741 75.8281 37.1287 76.0896V77.7119C38.0442 77.3689 38.8474 76.7045 39.5148 75.8196C40.2507 74.8455 40.7137 73.6581 40.8567 72.4107H45.1685V75.6384C45.1685 75.9735 44.8962 76.2454 44.5606 76.2454H43.1488V77.7119H45.1182C45.9573 77.7119 46.6378 77.0331 46.6378 76.1959V70.9436H40.9037V69.3305H47.4475V67.864H37.1287V69.3305Z" fill="black"/>
<path d="M75.3115 67.5704H73.8429V69.152H72.6943V70.6184H73.8429V72.5367L72.6943 72.9332V74.4003L73.8429 74.0039V75.6294C73.8429 75.9646 73.5706 76.2358 73.235 76.2358H72.6943V77.7029H73.7913C74.6311 77.7029 75.3115 77.0235 75.3115 76.185V73.4972L76.1683 73.2031V71.7367L75.3115 72.0308V70.6184H76.1683V69.152H75.3115V67.5704Z" fill="black"/>
<path d="M83.0131 70.2621V68.795H80.5473V67.5701H79.078V68.795H76.6116V70.2621H79.078V71.115H76.6116V72.5821H81.4347C81.1866 73.1194 80.6381 73.8738 79.8166 74.5813C79.2054 74.0564 78.7992 73.5047 78.5067 73.0327H76.8154C77.1131 73.6521 77.6401 74.5604 78.57 75.4342C78.0012 75.74 77.4044 76.0073 76.6116 76.2036V77.7105C77.9594 77.4196 78.9579 76.9521 79.8133 76.4096C80.6531 76.9567 81.756 77.4275 83.0131 77.7176V76.2042C82.2941 76.0099 81.5967 75.7465 81.0553 75.4439C82.2027 74.3518 82.8054 73.1937 83.0131 72.5821V71.115H80.5473V70.2621H83.0131Z" fill="black"/>
<path d="M55.4645 73.7904C55.6297 74.1862 56.8175 76.8472 59.2042 77.7098V76.0999C58.1692 75.5196 57.464 74.4561 57.0996 73.7904H55.4645Z" fill="black"/>
<path d="M57.3759 67.8675C57.086 68.9701 56.461 70.9112 55.6866 71.873H48.8849V73.3401H51.0058C50.7538 74.0854 50.1713 75.2689 48.8849 76.0611V77.7167C51.4277 76.5893 52.2772 74.3384 52.5365 73.3401H59.2037V71.873H57.4327C58.2555 70.3792 58.7518 68.4517 58.8909 67.8675H57.3759Z" fill="black"/>
<path d="M52.0363 71.4098L50.7394 67.8515H49.1761L50.473 71.4098H52.0363Z" fill="black"/>
<path d="M55.3211 71.4098L54.0242 67.8515H52.4602L53.7571 71.4098H55.3211Z" fill="black"/>
<path d="M70.4999 67.5545H69.0313V73.91H65.5953V75.3764H69.0313V77.7029H70.4999V75.3764H71.4057V73.91H70.4999V67.5545Z" fill="black"/>
<path d="M63.6941 69.3307H65.0197V67.8643H60.8998V69.3307H62.2255V70.2723H60.7901V71.7394H62.0733L60.7921 73.7203V76.427L62.2255 74.2093V77.7121H63.6941V73.4543L65.1294 74.654V72.7403L63.9324 71.7394H65.1294V70.2723H63.6941V69.3307Z" fill="black"/>
<path d="M68.4656 73.3442V71.8399L66.0169 70.9825V72.4796L68.4656 73.3442Z" fill="black"/>
<path d="M68.4656 70.6285V69.1262L66.0169 68.2753V69.7646L68.4656 70.6285Z" fill="black"/>
</g>
<path d="M71.726 35.1423C72.3687 34.4944 72.3608 33.4564 71.7177 32.8117L60.0012 21.0693L55.0804 25.9999C54.5318 26.5496 53.692 26.6294 53.0588 26.2394L53.026 26.2723L66.8012 40.078L71.726 35.1423Z" fill="black"/>
<path d="M58.1214 35.147L53.2 40.0792L40.3166 27.1673L46.4 21.0704L58.1214 32.8179C58.7631 33.461 58.7631 34.5038 58.1214 35.147Z" fill="black"/>
<path d="M79.6834 27.1673L73.6024 33.2617L66.6249 26.2735L66.6577 26.2406C67.2909 26.6306 68.1307 26.5508 68.6791 26.001L73.6 21.0704L79.6834 27.1673Z" fill="black"/>
<defs>
<clipPath id="clip0">
<rect width="46.9307" height="11.8812" fill="white" transform="translate(36.5346 66.8119)"/>
</clipPath>
</defs>
</svg>
