<svg width="16" height="16" viewBox="0 0 16 16" fill="none" xmlns="http://www.w3.org/2000/svg">
<path d="M3.5 5.5V1.5C3.5 0.947715 3.94772 0.5 4.5 0.5H11.5C12.0523 0.5 12.5 0.947715 12.5 1.5V5.5C12.5 6.05228 12.0523 6.5 11.5 6.5H4.5C3.94772 6.5 3.5 6.05228 3.5 5.5Z" stroke="#212648"/>
<path d="M0 9.5H1.5C2.05228 9.5 2.5 9.94772 2.5 10.5V14.5C2.5 15.0523 2.05228 15.5 1.5 15.5H0" stroke="#212648"/>
<path d="M16 9.5H14.5C13.9477 9.5 13.5 9.94772 13.5 10.5V14.5C13.5 15.0523 13.9477 15.5 14.5 15.5H16" stroke="#212648"/>
<path d="M8 8.5V14M8 14L5.5 11.5M8 14L10.5 11.5" stroke="#212648" stroke-linecap="round" stroke-linejoin="round"/>
</svg>
