<svg width="152" height="32" viewBox="0 0 152 32" fill="none" xmlns="http://www.w3.org/2000/svg">
<g filter="url(#filter0_d)">
<g clip-path="url(#clip0)">
<rect width="30" height="30" transform="translate(1 1)" fill="url(#paint0_linear)"/>
<path d="M15.9754 23.952H8.5V16.4547L17.0714 16.452V16.4924C16.4432 16.6428 15.9762 17.2094 15.9762 17.8861L15.9754 23.952Z" fill="white"/>
<path d="M8.5 15.6484H23.5V8.14844H8.5V15.6484Z" fill="white"/>
</g>
</g>
<path d="M47.724 5.6H46.128L44.652 11.6L42.84 5.6H41.304L39.492 11.588L38.016 5.6H36.36L38.652 14H40.2L42.048 7.868L43.896 14H45.432L47.724 5.6ZM50.7216 7.712C48.9216 7.712 47.6616 8.912 47.6616 10.916C47.6616 12.932 48.9216 14.132 50.7216 14.132C52.5336 14.132 53.7936 12.932 53.7936 10.916C53.7936 8.912 52.5336 7.712 50.7216 7.712ZM50.7096 9.092C51.6096 9.092 52.2696 9.68 52.2696 10.916C52.2696 12.08 51.7056 12.752 50.7456 12.752C49.8456 12.752 49.1856 12.164 49.1856 10.916C49.1856 9.764 49.7496 9.092 50.7096 9.092ZM58.1686 7.712C57.1366 7.712 56.6326 8.144 56.2846 8.72V7.82H54.8086V14H56.2966V10.664C56.2966 9.656 56.7646 9.044 57.6526 9.044C58.3846 9.044 58.8046 9.452 58.8046 10.148V14H60.2926V10.016C60.2926 8.54 59.5726 7.712 58.1686 7.712ZM67.4483 5.468H65.9602V8.636C65.5882 8.036 64.8322 7.712 64.0282 7.712C62.5162 7.712 61.2562 8.768 61.2562 10.904C61.2562 13.076 62.5162 14.132 64.0282 14.132C64.8802 14.132 65.6482 13.76 65.9842 13.052V14H67.4483V5.468ZM64.3762 12.764C63.5122 12.764 62.7682 12.152 62.7682 10.904C62.7682 9.644 63.5122 9.032 64.3762 9.032C65.1802 9.032 65.9962 9.632 65.9962 10.904C65.9962 12.164 65.1802 12.764 64.3762 12.764ZM74.2118 11.36V10.748C74.2118 8.708 72.9398 7.712 71.4398 7.712C69.8677 7.712 68.4637 8.792 68.4637 10.952C68.4637 13.1 69.8438 14.132 71.4038 14.132C72.6638 14.132 73.8518 13.448 74.1638 12.14H72.7718C72.5558 12.632 72.0518 12.848 71.4638 12.848C70.5758 12.848 69.9398 12.368 69.9038 11.36H74.2118ZM71.4278 8.996C72.2318 8.996 72.7478 9.452 72.7478 10.268H69.9398C70.0717 9.368 70.7198 8.996 71.4278 8.996ZM78.7278 7.748H78.3198C77.5998 7.748 77.0238 8.06 76.7118 8.732V7.82H75.2358V14H76.7238V10.976C76.7238 9.764 77.2878 9.2 78.3318 9.2H78.7278V7.748ZM81.9736 10.316C81.2176 10.208 80.6776 10.112 80.6776 9.632C80.6776 9.272 80.9656 8.948 81.6976 8.948C82.3336 8.948 82.7656 9.188 82.8256 9.8H84.2776C84.1936 8.42 83.1256 7.712 81.6856 7.712C80.4016 7.712 79.2256 8.276 79.2256 9.68C79.2256 11.204 80.6056 11.408 81.8176 11.612C82.6696 11.756 82.9576 11.852 82.9576 12.236C82.9576 12.704 82.5136 12.908 81.8776 12.908C81.1816 12.908 80.6416 12.644 80.5336 12.02H79.0336C79.1416 13.58 80.5216 14.132 81.8056 14.132C83.1856 14.132 84.4216 13.472 84.4216 12.08C84.4216 10.64 83.0776 10.484 81.9736 10.316ZM88.7452 7.712C87.7012 7.712 87.2212 8.144 86.8732 8.732V5.468H85.3852V14H86.8732V10.664C86.8732 9.656 87.3412 9.044 88.2292 9.044C88.9612 9.044 89.3812 9.452 89.3812 10.148V14H90.8692V10.016C90.8692 8.54 90.1492 7.712 88.7452 7.712ZM94.8808 7.712C93.3448 7.712 92.2528 8.408 92.0128 9.848H93.4288C93.5608 9.38 93.8248 8.936 94.7488 8.936C95.2768 8.936 95.7688 9.104 95.7688 9.572C95.7688 10.088 95.2888 10.184 95.0488 10.22L93.8008 10.4C93.2368 10.484 91.8328 10.748 91.8328 12.296C91.8328 13.604 92.8408 14.132 93.8248 14.132C94.4848 14.132 95.2888 13.892 95.7688 13.1V14H97.2208V9.716C97.2208 8.264 96.2368 7.712 94.8808 7.712ZM94.2088 12.896C93.6808 12.896 93.3208 12.668 93.3208 12.176C93.3208 11.492 94.0528 11.384 94.3168 11.348L94.9408 11.252C95.2528 11.204 95.5048 11.168 95.7328 11.072V11.408C95.7328 12.236 95.1088 12.896 94.2088 12.896ZM102.097 7.748H101.689C100.969 7.748 100.393 8.06 100.081 8.732V7.82H98.6048V14H100.093V10.976C100.093 9.764 100.657 9.2 101.701 9.2H102.097V7.748ZM108.093 11.36V10.748C108.093 8.708 106.821 7.712 105.321 7.712C103.749 7.712 102.345 8.792 102.345 10.952C102.345 13.1 103.725 14.132 105.285 14.132C106.545 14.132 107.733 13.448 108.045 12.14H106.653C106.437 12.632 105.933 12.848 105.345 12.848C104.457 12.848 103.821 12.368 103.785 11.36H108.093ZM105.309 8.996C106.113 8.996 106.629 9.452 106.629 10.268H103.821C103.953 9.368 104.601 8.996 105.309 8.996Z" fill="black"/>
<path d="M40.608 17.6H37.08V26H38.628V22.904H40.452C42.372 22.904 43.368 21.608 43.368 20.168C43.368 18.788 42.444 17.6 40.608 17.6ZM40.5 21.452H38.628V19.064H40.56C41.4 19.064 41.796 19.568 41.796 20.252C41.796 20.936 41.388 21.452 40.5 21.452ZM47.249 17.6H44.393V26H47.057C50.069 26 51.449 23.756 51.449 21.632C51.449 19.544 50.117 17.6 47.249 17.6ZM47.069 24.536H45.953V19.064H47.309C49.121 19.064 49.877 20.3 49.877 21.632C49.877 23.06 49.013 24.536 47.069 24.536ZM54.2738 22.484H58.0298V21.02H54.2738V19.064H58.3537V17.6H52.7138V26H54.2738V22.484ZM64.3441 23.36V22.748C64.3441 20.708 63.0721 19.712 61.5721 19.712C60.0001 19.712 58.5961 20.792 58.5961 22.952C58.5961 25.1 59.9761 26.132 61.5361 26.132C62.7961 26.132 63.9841 25.448 64.2961 24.14H62.9041C62.6881 24.632 62.1841 24.848 61.5961 24.848C60.7081 24.848 60.0721 24.368 60.0361 23.36H64.3441ZM61.5601 20.996C62.3641 20.996 62.8801 21.452 62.8801 22.268H60.0721C60.2041 21.368 60.8521 20.996 61.5601 20.996ZM66.8561 17.468H65.3681V26H66.8561V17.468ZM73.6263 23.36V22.748C73.6263 20.708 72.3543 19.712 70.8543 19.712C69.2823 19.712 67.8783 20.792 67.8783 22.952C67.8783 25.1 69.2583 26.132 70.8183 26.132C72.0783 26.132 73.2663 25.448 73.5783 24.14H72.1863C71.9703 24.632 71.4663 24.848 70.8783 24.848C69.9903 24.848 69.3543 24.368 69.3183 23.36H73.6263ZM70.8423 20.996C71.6463 20.996 72.1623 21.452 72.1623 22.268H69.3543C69.4863 21.368 70.1343 20.996 70.8423 20.996ZM81.2863 19.712C80.1703 19.712 79.7023 20.288 79.4623 20.732C79.1743 20.084 78.5623 19.712 77.7343 19.712C76.7983 19.712 76.3063 20.24 76.1143 20.732V19.82H74.6503V26H76.1383V22.52C76.1383 21.5 76.6183 21.056 77.3143 21.056C77.9383 21.056 78.3103 21.392 78.3103 22.124V26H79.7983V22.532C79.7983 21.488 80.2783 21.056 80.9863 21.056C81.6223 21.056 81.9703 21.392 81.9703 22.124V26H83.4583V21.836C83.4583 20.504 82.6183 19.712 81.2863 19.712ZM90.1624 23.36V22.748C90.1624 20.708 88.8904 19.712 87.3904 19.712C85.8184 19.712 84.4144 20.792 84.4144 22.952C84.4144 25.1 85.7944 26.132 87.3544 26.132C88.6144 26.132 89.8024 25.448 90.1144 24.14H88.7224C88.5064 24.632 88.0024 24.848 87.4144 24.848C86.5264 24.848 85.8904 24.368 85.8544 23.36H90.1624ZM87.3784 20.996C88.1824 20.996 88.6984 21.452 88.6984 22.268H85.8904C86.0224 21.368 86.6704 20.996 87.3784 20.996ZM94.5464 19.712C93.5144 19.712 93.0104 20.144 92.6624 20.72V19.82H91.1864V26H92.6744V22.664C92.6744 21.656 93.1424 21.044 94.0304 21.044C94.7624 21.044 95.1824 21.452 95.1824 22.148V26H96.6704V22.016C96.6704 20.54 95.9504 19.712 94.5464 19.712ZM101.27 24.68H100.634C100.01 24.68 99.8901 24.368 99.8901 23.936V21.164H101.126V19.82H99.8901V18.02L98.4021 18.428V19.82H97.2741V21.164H98.4021V23.996C98.4021 25.652 99.1341 26 100.298 26H101.27V24.68Z" fill="black"/>
<path d="M110.772 21.452C111.612 21.08 112.032 20.252 112.032 19.496C112.032 18.512 111.312 17.6 109.764 17.6H106.14V26H109.596C111.444 26 112.404 24.776 112.404 23.576C112.404 22.676 111.876 21.824 110.772 21.452ZM107.16 21.116V18.524H109.608C110.58 18.524 111 19.112 111 19.736C111 20.408 110.496 21.116 109.416 21.116H107.16ZM109.632 25.076H107.16V22.016H109.716C110.808 22.016 111.348 22.76 111.348 23.552C111.348 24.32 110.844 25.076 109.632 25.076ZM118.535 19.928H117.539V23C117.539 24.488 116.723 25.184 115.871 25.184C115.115 25.184 114.539 24.692 114.539 23.72V19.928H113.543V23.888C113.543 25.304 114.479 26.072 115.655 26.072C116.459 26.072 117.143 25.736 117.563 24.932V26H118.535V19.928ZM122.387 22.556C121.511 22.424 120.803 22.28 120.803 21.596C120.803 20.972 121.403 20.708 122.087 20.708C122.819 20.708 123.503 21.02 123.515 21.74H124.535C124.523 20.408 123.359 19.82 122.087 19.82C120.803 19.82 119.771 20.42 119.771 21.644C119.771 23.204 121.415 23.348 122.483 23.516C123.095 23.612 123.647 23.756 123.647 24.356C123.647 24.956 123.083 25.244 122.327 25.244C121.499 25.244 120.767 24.908 120.647 24.104H119.615C119.735 25.472 120.923 26.132 122.255 26.132C123.527 26.132 124.703 25.52 124.703 24.224C124.703 22.832 123.359 22.7 122.387 22.556ZM125.695 18.56H126.811V17.36H125.695V18.56ZM125.755 26H126.751V19.928H125.755V26ZM131.252 19.82C130.232 19.82 129.62 20.324 129.272 20.984V19.928H128.287V26H129.284V22.892C129.284 21.548 129.992 20.72 131.071 20.72C131.996 20.72 132.392 21.32 132.392 21.98V26H133.388V21.884C133.388 20.564 132.5 19.82 131.252 19.82ZM139.95 23.216V22.748C139.95 20.756 138.75 19.82 137.298 19.82C135.846 19.82 134.466 20.78 134.466 22.964C134.466 25.136 135.834 26.132 137.286 26.132C138.438 26.132 139.59 25.532 139.902 24.236H138.918C138.714 24.884 138.09 25.244 137.334 25.244C136.29 25.244 135.474 24.584 135.438 23.216H139.95ZM137.274 20.684C138.258 20.684 138.954 21.356 138.954 22.412H135.462C135.594 21.164 136.398 20.684 137.274 20.684ZM143.377 22.556C142.501 22.424 141.793 22.28 141.793 21.596C141.793 20.972 142.393 20.708 143.077 20.708C143.809 20.708 144.493 21.02 144.505 21.74H145.525C145.513 20.408 144.349 19.82 143.077 19.82C141.793 19.82 140.761 20.42 140.761 21.644C140.761 23.204 142.405 23.348 143.473 23.516C144.085 23.612 144.637 23.756 144.637 24.356C144.637 24.956 144.073 25.244 143.317 25.244C142.489 25.244 141.757 24.908 141.637 24.104H140.605C140.725 25.472 141.913 26.132 143.245 26.132C144.517 26.132 145.693 25.52 145.693 24.224C145.693 22.832 144.349 22.7 143.377 22.556ZM149.061 22.556C148.185 22.424 147.477 22.28 147.477 21.596C147.477 20.972 148.077 20.708 148.761 20.708C149.493 20.708 150.177 21.02 150.189 21.74H151.209C151.197 20.408 150.033 19.82 148.761 19.82C147.477 19.82 146.445 20.42 146.445 21.644C146.445 23.204 148.089 23.348 149.157 23.516C149.769 23.612 150.321 23.756 150.321 24.356C150.321 24.956 149.757 25.244 149.001 25.244C148.173 25.244 147.441 24.908 147.321 24.104H146.289C146.409 25.472 147.597 26.132 148.929 26.132C150.201 26.132 151.377 25.52 151.377 24.224C151.377 22.832 150.033 22.7 149.061 22.556Z" fill="#FD5962"/>
<defs>
<filter id="filter0_d" x="1" y="2" width="30" height="30" filterUnits="userSpaceOnUse" color-interpolation-filters="sRGB">
<feFlood flood-opacity="0" result="BackgroundImageFix"/>
<feColorMatrix in="SourceAlpha" type="matrix" values="0 0 0 0 0 0 0 0 0 0 0 0 0 0 0 0 0 0 127 0"/>
<feOffset dy="1"/>
<feGaussianBlur stdDeviation="0.5"/>
<feColorMatrix type="matrix" values="0 0 0 0 0 0 0 0 0 0 0 0 0 0 0 0 0 0 0.26 0"/>
<feBlend mode="normal" in2="BackgroundImageFix" result="effect1_dropShadow"/>
<feBlend mode="normal" in="SourceGraphic" in2="effect1_dropShadow" result="shape"/>
</filter>
<linearGradient id="paint0_linear" x1="15" y1="0" x2="15" y2="30" gradientUnits="userSpaceOnUse">
<stop stop-color="#414C9A"/>
<stop offset="1" stop-color="#364295"/>
</linearGradient>
<clipPath id="clip0">
<rect x="2" y="2" width="28" height="28" rx="6.38835" fill="white"/>
</clipPath>
</defs>
</svg>
