<svg width="48" height="24" viewBox="0 0 48 24" fill="none" xmlns="http://www.w3.org/2000/svg">
<rect x="3.5" y="3.5" width="6" height="17" fill="url(#paint0_linear)" stroke="#6A52FC"/>
<rect x="15.5" y="3.5" width="6" height="17" fill="url(#paint1_linear)" stroke="#6A52FC"/>
<rect x="12" width="1" height="3" fill="#6A52FC"/>
<rect x="12" y="5" width="1" height="3" fill="#6A52FC"/>
<rect x="12" y="10" width="1" height="3" fill="#6A52FC"/>
<rect x="12" y="15" width="1" height="3" fill="#6A52FC"/>
<rect x="12" y="20" width="1" height="4" fill="#6A52FC"/>
<g opacity="0.4">
<rect x="27.5" y="3.5" width="6" height="17" fill="url(#paint2_linear)" stroke="#6A52FC"/>
<rect x="39.5" y="3.5" width="6" height="17" fill="url(#paint3_linear)" stroke="#6A52FC"/>
<rect x="36" width="1" height="3" fill="#6A52FC"/>
<rect x="36" y="5" width="1" height="3" fill="#6A52FC"/>
<rect x="36" y="10" width="1" height="3" fill="#6A52FC"/>
<rect x="36" y="15" width="1" height="3" fill="#6A52FC"/>
<rect x="36" y="20" width="1" height="4" fill="#6A52FC"/>
</g>
<defs>
<linearGradient id="paint0_linear" x1="6.5" y1="5.53515" x2="6.5" y2="18.7692" gradientUnits="userSpaceOnUse">
<stop stop-color="#8CA5FF"/>
<stop offset="1" stop-color="#7B72FB"/>
</linearGradient>
<linearGradient id="paint1_linear" x1="18.5" y1="5.53515" x2="18.5" y2="18.7692" gradientUnits="userSpaceOnUse">
<stop stop-color="#8CA5FF"/>
<stop offset="1" stop-color="#7B72FB"/>
</linearGradient>
<linearGradient id="paint2_linear" x1="30.5" y1="5.53515" x2="30.5" y2="18.7692" gradientUnits="userSpaceOnUse">
<stop stop-color="#8CA5FF"/>
<stop offset="1" stop-color="#7B72FB"/>
</linearGradient>
<linearGradient id="paint3_linear" x1="42.5" y1="5.53515" x2="42.5" y2="18.7692" gradientUnits="userSpaceOnUse">
<stop stop-color="#8CA5FF"/>
<stop offset="1" stop-color="#7B72FB"/>
</linearGradient>
</defs>
</svg>
