<svg width="48" height="48" viewBox="0 0 48 48" fill="none" xmlns="http://www.w3.org/2000/svg">
<g clip-path="url(#clip0)">
<path d="M1.56608 37.9651L20.5563 5.82781C22.1045 3.2077 25.8955 3.20769 27.4437 5.8278L46.4339 37.9651C48.0095 40.6315 46.0874 44 42.9902 44H5.00979C1.91259 44 -0.00955379 40.6316 1.56608 37.9651Z" fill="#F2C94C"/>
<path d="M24.852 16H23.148C21.9873 16 21.0703 16.9848 21.153 18.1425L21.8673 28.1425C21.9421 29.1891 22.813 30 23.8622 30H24.1378C25.187 30 26.0579 29.1891 26.1327 28.1425L26.847 18.1425C26.9297 16.9848 26.0127 16 24.852 16Z" fill="white"/>
<circle cx="24" cy="35" r="3" fill="white"/>
</g>
<defs>
<clipPath id="clip0">
<rect width="48" height="48" fill="white"/>
</clipPath>
</defs>
</svg>
