<svg width="128" height="32" viewBox="0 0 128 32" fill="none" xmlns="http://www.w3.org/2000/svg">
<path d="M20.5 11.5L16 16M16 16L11.5 20.5M16 16L11.5 11.5M16 16L20.5 20.5" stroke="black" stroke-linecap="round" stroke-linejoin="round"/>
<path d="M32 0H56C60.4183 0 64 3.58172 64 8V32H32V0Z" fill="#FD5962"/>
<path d="M52.5 11.5L48 16M48 16L43.5 20.5M48 16L43.5 11.5M48 16L52.5 20.5" stroke="white" stroke-linecap="round" stroke-linejoin="round"/>
<path d="M64 0H88C92.4183 0 96 3.58172 96 8V32H64V0Z" fill="#DF3636"/>
<path d="M84.5 11.5L80 16M80 16L75.5 20.5M80 16L75.5 11.5M80 16L84.5 20.5" stroke="white" stroke-linecap="round" stroke-linejoin="round"/>
<path d="M116.5 11.5L112 16M112 16L107.5 20.5M112 16L107.5 11.5M112 16L116.5 20.5" stroke="#212648" stroke-opacity="0.3" stroke-linecap="round" stroke-linejoin="round"/>
</svg>
