<svg width="48" height="24" viewBox="0 0 48 24" fill="none" xmlns="http://www.w3.org/2000/svg">
<path d="M9.5 14.5L4.5 19.5M4.5 19.5L8 19.5M4.5 19.5L4.5 16" stroke="#6A52FC"/>
<path d="M14.5 9.5L19.5 4.5M19.5 4.5L19.5 8M19.5 4.5L16 4.5" stroke="#6A52FC"/>
<rect x="2.5" y="2.5" width="19" height="19" stroke="#6A52FC"/>
<rect x="8.5" y="8.5" width="7" height="7" fill="url(#paint0_linear)" stroke="#6A52FC"/>
<g opacity="0.4">
<path d="M33.5 14.5L28.5 19.5M28.5 19.5L32 19.5M28.5 19.5L28.5 16" stroke="#6A52FC"/>
<path d="M38.5 9.5L43.5 4.5M43.5 4.5L43.5 8M43.5 4.5L40 4.5" stroke="#6A52FC"/>
<rect x="26.5" y="2.5" width="19" height="19" stroke="#6A52FC"/>
<rect x="32.5" y="8.5" width="7" height="7" fill="url(#paint1_linear)" stroke="#6A52FC"/>
</g>
<defs>
<linearGradient id="paint0_linear" x1="12" y1="9.57568" x2="12" y2="14.5385" gradientUnits="userSpaceOnUse">
<stop stop-color="#8CA5FF"/>
<stop offset="1" stop-color="#7B72FB"/>
</linearGradient>
<linearGradient id="paint1_linear" x1="36" y1="9.57568" x2="36" y2="14.5385" gradientUnits="userSpaceOnUse">
<stop stop-color="#8CA5FF"/>
<stop offset="1" stop-color="#7B72FB"/>
</linearGradient>
</defs>
</svg>
