<svg width="48" height="24" viewBox="0 0 48 24" fill="none" xmlns="http://www.w3.org/2000/svg">
<g clip-path="url(#clip0)">
<path d="M13.549 10.951L12.683 10.451C10.7698 9.34639 8.32347 10.0019 7.2189 11.9151L5.9689 14.0801C5.0024 15.7541 5.57596 17.8947 7.24999 18.8612V18.8612C8.92401 19.8277 11.0646 19.2541 12.0311 17.5801L13.2811 15.4151" stroke="#6A52FC" stroke-width="2"/>
<path d="M10.317 12.549V12.549C12.2301 13.6536 14.6765 12.9981 15.7811 11.0849L17.0311 8.91986C17.9976 7.24584 17.424 5.10528 15.75 4.13878V4.13878C14.076 3.17228 11.9354 3.74585 10.9689 5.41988L9.71891 7.58494" stroke="#6A52FC" stroke-width="2"/>
</g>
<g opacity="0.4" clip-path="url(#clip1)">
<path d="M37.549 10.951L36.683 10.451C34.7698 9.34639 32.3235 10.0019 31.2189 11.9151L29.9689 14.0801C29.0024 15.7541 29.576 17.8947 31.25 18.8612V18.8612C32.924 19.8277 35.0646 19.2541 36.0311 17.5801L37.2811 15.4151" stroke="#6A52FC" stroke-width="2"/>
<path d="M34.317 12.549V12.549C36.2301 13.6536 38.6765 12.9981 39.7811 11.0849L41.0311 8.91986C41.9976 7.24584 41.424 5.10528 39.75 4.13878V4.13878C38.076 3.17228 35.9354 3.74585 34.9689 5.41988L33.7189 7.58494" stroke="#6A52FC" stroke-width="2"/>
</g>
<defs>
<clipPath id="clip0">
<rect width="24" height="24" fill="white"/>
</clipPath>
<clipPath id="clip1">
<rect width="24" height="24" fill="white" transform="translate(24)"/>
</clipPath>
</defs>
</svg>
