<svg width="16" height="16" viewBox="0 0 16 16" fill="none" xmlns="http://www.w3.org/2000/svg">
<path fill-rule="evenodd" clip-rule="evenodd" d="M2.5 7H1V6H2.5C3.88071 6 5 7.11929 5 8.5V10.8846C5 11.5006 4.50063 12 3.88462 12H2C0.895431 12 0 11.1046 0 10C0 8.89543 0.895431 8 2 8H3.91465C3.70873 7.4174 3.15311 7 2.5 7ZM4 9H2C1.44772 9 1 9.44772 1 10C1 10.5523 1.44772 11 2 11H3.88462C3.94834 11 4 10.9483 4 10.8846V9Z" fill="#5C6182"/>
<path fill-rule="evenodd" clip-rule="evenodd" d="M6 3H7V6H8C9.65685 6 11 7.34315 11 9C11 10.6569 9.65685 12 8 12H7.3C6.58203 12 6 11.418 6 10.7V3ZM7 7V10.7C7 10.8657 7.13431 11 7.3 11H8C9.10457 11 10 10.1046 10 9C10 7.89543 9.10457 7 8 7H7Z" fill="#5C6182"/>
<path fill-rule="evenodd" clip-rule="evenodd" d="M12 9C12 7.34315 13.3431 6 15 6H16V7H15C13.8954 7 13 7.89543 13 9C13 10.1046 13.8954 11 15 11H16V12H15C13.3431 12 12 10.6569 12 9Z" fill="#5C6182"/>
<rect y="9" width="16" height="1" fill="#F2994A"/>
</svg>
