<svg width="48" height="24" viewBox="0 0 48 24" fill="none" xmlns="http://www.w3.org/2000/svg">
<rect x="4.5" y="6.5" width="15" height="11" fill="url(#paint0_linear)" stroke="#6A52FC"/>
<path d="M19 2.5H23.5V7" stroke="black"/>
<path d="M19 2V3H23V7H24V2H19Z" fill="#6A52FC"/>
<path d="M19 22V21H23V17H24V22H19Z" fill="#6A52FC"/>
<path d="M5 2L5 3L1 3L1 7L-4.37114e-07 7L0 2L5 2Z" fill="#6A52FC"/>
<path d="M5 22L5 21L1 21L1 17L-4.37114e-07 17L0 22L5 22Z" fill="#6A52FC"/>
<g opacity="0.4">
<rect x="28.5" y="6.5" width="15" height="11" fill="url(#paint1_linear)" stroke="#6A52FC"/>
<path d="M43 2.5H47.5V7" stroke="black"/>
<path d="M43 2V3H47V7H48V2H43Z" fill="#6A52FC"/>
<path d="M43 22V21H47V17H48V22H43Z" fill="#6A52FC"/>
<path d="M29 2L29 3L25 3L25 7L24 7L24 2L29 2Z" fill="#6A52FC"/>
<path d="M29 22L29 21L25 21L25 17L24 17L24 22L29 22Z" fill="#6A52FC"/>
</g>
<defs>
<linearGradient id="paint0_linear" x1="12" y1="6" x2="12" y2="18" gradientUnits="userSpaceOnUse">
<stop stop-color="#8CA5FF"/>
<stop offset="1" stop-color="#7B72FB"/>
</linearGradient>
<linearGradient id="paint1_linear" x1="36" y1="6" x2="36" y2="18" gradientUnits="userSpaceOnUse">
<stop stop-color="#8CA5FF"/>
<stop offset="1" stop-color="#7B72FB"/>
</linearGradient>
</defs>
</svg>
