<svg width="72" height="72" viewBox="0 0 72 72" fill="none" xmlns="http://www.w3.org/2000/svg">
<path fill-rule="evenodd" clip-rule="evenodd" d="M23.2 24H48.8C50.5673 24 52 25.3431 52 27V45C52 46.6569 50.5673 48 48.8 48H23.2C21.4327 48 20 46.6569 20 45V27C20 25.3431 21.4327 24 23.2 24ZM38.6402 41.1753L48.8002 34.5003V31.3503L37.0402 39.0753C36.4148 39.4823 35.5856 39.4823 34.9602 39.0753L23.2002 31.3503V34.5003L33.3602 41.1753C34.9457 42.2144 37.0547 42.2144 38.6402 41.1753Z" fill="#007BFF"/>
<rect x="1" y="1" width="70" height="70" rx="7" stroke="#007BFF" stroke-width="2"/>
</svg>
