<svg width="48" height="24" viewBox="0 0 48 24" fill="none" xmlns="http://www.w3.org/2000/svg">
<path d="M17 2V3H21V7H22V2H17Z" fill="#6A52FC"/>
<path d="M17 22V21H21V17H22V22H17Z" fill="#6A52FC"/>
<path d="M7 2L7 3L3 3L3 7L2 7L2 2L7 2Z" fill="#6A52FC"/>
<path d="M7 22L7 21L3 21L3 17L2 17L2 22L7 22Z" fill="#6A52FC"/>
<path d="M7 6H17V9H15V8H13V16H14V18H10V16H11V8H9V9H7V6.95455V6Z" fill="#6A52FC"/>
<g opacity="0.4">
<path d="M41 2V3H45V7H46V2H41Z" fill="#6A52FC"/>
<path d="M41 22V21H45V17H46V22H41Z" fill="#6A52FC"/>
<path d="M31 2L31 3L27 3L27 7L26 7L26 2L31 2Z" fill="#6A52FC"/>
<path d="M31 22L31 21L27 21L27 17L26 17L26 22L31 22Z" fill="#6A52FC"/>
<path d="M31 6H41V9H39V8H37V16H38V18H34V16H35V8H33V9H31V6.95455V6Z" fill="#6A52FC"/>
</g>
</svg>
