<svg width="176" height="72" viewBox="0 0 176 72" fill="none" xmlns="http://www.w3.org/2000/svg">
<g filter="url(#filter0_d)">
<g clip-path="url(#clip0)">
<rect width="62" height="62" transform="translate(5 5)" fill="url(#paint0_linear)"/>
<path d="M35.9492 52.4342H20.5V36.9396L38.2143 36.9342V37.0176C36.9159 37.3285 35.9509 38.4995 35.9509 39.8979L35.9492 52.4342Z" fill="white"/>
<path d="M20.5 35.2734H51.5V19.7734H20.5V35.2734Z" fill="white"/>
</g>
</g>
<path d="M102.56 30.112V27.304H81.464V30.112H87.056C86.888 35.896 86.696 42.28 80.528 45.736C81.272 46.288 82.16 47.272 82.592 48.04C87.056 45.352 88.784 41.2 89.528 36.76H97.52C97.256 41.896 96.872 44.248 96.248 44.848C95.936 45.112 95.624 45.16 95.12 45.16C94.4 45.16 92.768 45.16 91.112 45.016C91.64 45.808 92.048 47.008 92.12 47.824C93.704 47.896 95.36 47.92 96.296 47.8C97.376 47.68 98.144 47.44 98.864 46.6C99.8 45.544 100.208 42.64 100.568 35.272C100.616 34.912 100.64 34 100.64 34H89.864C89.984 32.704 90.032 31.384 90.08 30.112H102.56ZM105.152 36.832V39.568H126.848V36.832H105.152ZM117.968 41.704C120.056 43.648 122.888 46.408 124.16 48.064L127.088 46.456C125.648 44.728 122.72 42.136 120.704 40.336L117.968 41.704ZM110.744 40.264C109.568 42.16 107.072 44.56 104.792 46C105.512 46.504 106.64 47.44 107.288 48.064C109.64 46.432 112.184 43.84 113.96 41.44L110.744 40.264ZM105.104 28.624C106.52 30.784 107.984 33.784 108.512 35.704L111.32 34.456C110.672 32.512 109.232 29.704 107.696 27.568L105.104 28.624ZM112.208 26.632C113.36 28.912 114.464 32.032 114.776 34.024L117.656 32.968C117.224 30.952 116.12 28.024 114.872 25.72L112.208 26.632ZM123.56 26.368C122.504 29.32 120.632 33.016 119.048 35.368L121.904 36.328C123.464 34.048 125.408 30.568 126.872 27.304L123.56 26.368ZM130.184 46H133.736V39.688H136.112C139.928 39.688 142.976 37.864 142.976 33.808C142.976 29.608 139.952 28.216 136.016 28.216H130.184V46ZM133.736 36.88V31.048H135.752C138.2 31.048 139.496 31.744 139.496 33.808C139.496 35.848 138.32 36.88 135.872 36.88H133.736ZM146.192 46H151.256C156.488 46 159.848 43.024 159.848 37.048C159.848 31.048 156.488 28.216 151.064 28.216H146.192V46ZM149.744 43.144V31.072H150.848C154.16 31.072 156.224 32.704 156.224 37.048C156.224 41.368 154.16 43.144 150.848 43.144H149.744ZM163.325 46H166.877V38.8H173.189V35.824H166.877V31.192H174.269V28.216H163.325V46Z" fill="black"/>
<defs>
<filter id="filter0_d" x="4" y="5" width="64" height="64" filterUnits="userSpaceOnUse" color-interpolation-filters="sRGB">
<feFlood flood-opacity="0" result="BackgroundImageFix"/>
<feColorMatrix in="SourceAlpha" type="matrix" values="0 0 0 0 0 0 0 0 0 0 0 0 0 0 0 0 0 0 127 0"/>
<feOffset dy="1"/>
<feGaussianBlur stdDeviation="1"/>
<feColorMatrix type="matrix" values="0 0 0 0 0 0 0 0 0 0 0 0 0 0 0 0 0 0 0.3 0"/>
<feBlend mode="normal" in2="BackgroundImageFix" result="effect1_dropShadow"/>
<feBlend mode="normal" in="SourceGraphic" in2="effect1_dropShadow" result="shape"/>
</filter>
<linearGradient id="paint0_linear" x1="31" y1="0" x2="31" y2="62" gradientUnits="userSpaceOnUse">
<stop stop-color="#414C9A"/>
<stop offset="1" stop-color="#364295"/>
</linearGradient>
<clipPath id="clip0">
<rect x="6" y="6" width="60" height="60" rx="13.6893" fill="white"/>
</clipPath>
</defs>
</svg>
