<svg width="48" height="12" viewBox="0 0 48 12" fill="none" xmlns="http://www.w3.org/2000/svg">
<path fill-rule="evenodd" clip-rule="evenodd" d="M6 9.66804C9.107 9.66804 11.1746 7.20449 11.8727 6.22691C12.0427 5.98884 12.0424 5.67941 11.8719 5.44165C11.1714 4.46443 9.09755 2 6 2C2.90245 2 0.828646 4.46443 0.128082 5.44165C-0.0423718 5.67941 -0.0427464 5.98884 0.127276 6.22691C0.825418 7.20449 2.893 9.66804 6 9.66804ZM5.99964 8.13443C7.27013 8.13443 8.30006 7.10451 8.30006 5.83402C8.30006 5.30368 8.12059 4.81525 7.81907 4.42616C7.93308 4.58859 8 4.78648 8 5C8 5.55228 7.55228 6 7 6C6.44772 6 6 5.55228 6 5C6 4.44772 6.44772 4 7 4C7.27848 4 7.53038 4.11383 7.71169 4.29751C7.29056 3.82857 6.67955 3.53361 5.99964 3.53361C4.72916 3.53361 3.69923 4.56354 3.69923 5.83402C3.69923 7.10451 4.72916 8.13443 5.99964 8.13443Z" fill="black" fill-opacity="0.48"/>
<path fill-rule="evenodd" clip-rule="evenodd" d="M18 9.66804C21.107 9.66804 23.1746 7.20449 23.8727 6.22691C24.0427 5.98884 24.0424 5.67941 23.8719 5.44165C23.1714 4.46443 21.0975 2 18 2C14.9025 2 12.8286 4.46443 12.1281 5.44165C11.9576 5.67941 11.9573 5.98884 12.1273 6.22691C12.8254 7.20449 14.893 9.66804 18 9.66804ZM17.9996 8.13443C19.2701 8.13443 20.3001 7.10451 20.3001 5.83402C20.3001 5.30368 20.1206 4.81525 19.8191 4.42616C19.9331 4.58859 20 4.78648 20 5C20 5.55228 19.5523 6 19 6C18.4477 6 18 5.55228 18 5C18 4.44772 18.4477 4 19 4C19.2785 4 19.5304 4.11383 19.7117 4.29751C19.2906 3.82857 18.6795 3.53361 17.9996 3.53361C16.7292 3.53361 15.6992 4.56354 15.6992 5.83402C15.6992 7.10451 16.7292 8.13443 17.9996 8.13443Z" fill="#333333"/>
<path fill-rule="evenodd" clip-rule="evenodd" d="M30 9.66804C33.107 9.66804 35.1746 7.20449 35.8727 6.22691C36.0427 5.98884 36.0424 5.67941 35.8719 5.44165C35.1714 4.46443 33.0975 2 30 2C26.9025 2 24.8286 4.46443 24.1281 5.44165C23.9576 5.67941 23.9573 5.98884 24.1273 6.22691C24.8254 7.20449 26.893 9.66804 30 9.66804ZM29.9996 8.13443C31.2701 8.13443 32.3001 7.10451 32.3001 5.83402C32.3001 5.30368 32.1206 4.81525 31.8191 4.42616C31.9331 4.58859 32 4.78648 32 5C32 5.55228 31.5523 6 31 6C30.4477 6 30 5.55228 30 5C30 4.44772 30.4477 4 31 4C31.2785 4 31.5304 4.11383 31.7117 4.29751C31.2906 3.82857 30.6795 3.53361 29.9996 3.53361C28.7292 3.53361 27.6992 4.56354 27.6992 5.83402C27.6992 7.10451 28.7292 8.13443 29.9996 8.13443Z" fill="black" fill-opacity="0.48"/>
<g opacity="0.4">
<path fill-rule="evenodd" clip-rule="evenodd" d="M42 9.66804C45.107 9.66804 47.1746 7.20449 47.8727 6.22691C48.0427 5.98884 48.0424 5.67941 47.8719 5.44165C47.1714 4.46443 45.0975 2 42 2C38.9025 2 36.8286 4.46443 36.1281 5.44165C35.9576 5.67941 35.9573 5.98884 36.1273 6.22691C36.8254 7.20449 38.893 9.66804 42 9.66804ZM41.9996 8.13443C43.2701 8.13443 44.3001 7.10451 44.3001 5.83402C44.3001 5.30368 44.1206 4.81525 43.8191 4.42616C43.9331 4.58859 44 4.78648 44 5C44 5.55228 43.5523 6 43 6C42.4477 6 42 5.55228 42 5C42 4.44772 42.4477 4 43 4C43.2785 4 43.5304 4.11383 43.7117 4.29751C43.2906 3.82857 42.6795 3.53361 41.9996 3.53361C40.7292 3.53361 39.6992 4.56354 39.6992 5.83402C39.6992 7.10451 40.7292 8.13443 41.9996 8.13443Z" fill="black" fill-opacity="0.48"/>
</g>
</svg>
