<svg width="48" height="24" viewBox="0 0 48 24" fill="none" xmlns="http://www.w3.org/2000/svg">
<g clip-path="url(#clip0)">
<path d="M5.24498 19.6377L5.04883 7.97742L10.1469 5.14729L15.3431 8.14729L15.4411 13.9774L5.24498 19.6377ZM5.24498 19.6377L8.74498 13.5755" stroke="#212648"/>
<circle cx="9.24496" cy="12.7095" r="1" transform="rotate(30 9.24496 12.7095)" fill="#212648" stroke="#212648"/>
<rect x="11.6469" y="2.54922" width="6" height="3" transform="rotate(30 11.6469 2.54922)" stroke="#212648"/>
<path d="M9 20L12.4533 17.928C13.3321 17.4007 14.4673 17.6231 15.0823 18.443L15.8648 19.4864C16.5017 20.3356 17.691 20.5393 18.5742 19.9505L23 17" stroke="#212648"/>
</g>
<g clip-path="url(#clip1)">
<path d="M29.245 19.6377L29.0488 7.97742L34.1469 5.14729L39.3431 8.14729L39.4411 13.9774L29.245 19.6377ZM29.245 19.6377L32.745 13.5755" stroke="#4864FF"/>
<circle cx="33.245" cy="12.7095" r="1" transform="rotate(30 33.245 12.7095)" fill="#4864FF" stroke="#4864FF"/>
<rect x="35.6469" y="2.54922" width="6" height="3" transform="rotate(30 35.6469 2.54922)" stroke="#4864FF"/>
<path d="M33 20L36.4533 17.928C37.3321 17.4007 38.4673 17.6231 39.0823 18.443L39.8648 19.4864C40.5017 20.3356 41.691 20.5393 42.5742 19.9505L47 17" stroke="#4864FF"/>
</g>
<defs>
<clipPath id="clip0">
<rect width="24" height="24" fill="white"/>
</clipPath>
<clipPath id="clip1">
<rect width="24" height="24" fill="white" transform="translate(24)"/>
</clipPath>
</defs>
</svg>
