<svg width="48" height="24" viewBox="0 0 48 24" fill="none" xmlns="http://www.w3.org/2000/svg">
<g clip-path="url(#clip0)">
<path d="M12.2678 10.6465L11.5607 9.93935C10.3891 8.76778 8.48959 8.76778 7.31802 9.93935L5.1967 12.0607C4.02513 13.2322 4.02513 15.1317 5.1967 16.3033V16.3033C6.36827 17.4749 8.26777 17.4749 9.43934 16.3033L10.8536 14.8891" stroke="#6A52FC" stroke-width="2"/>
<path d="M8.73223 11.3536L9.43934 12.0607C10.6109 13.2322 12.5104 13.2322 13.682 12.0607L15.8033 9.93934C16.9749 8.76777 16.9749 6.86827 15.8033 5.6967V5.6967C14.6317 4.52513 12.7322 4.52513 11.5607 5.6967L10.1464 7.11092" stroke="#6A52FC" stroke-width="2"/>
<circle cx="17" cy="17" r="3.5" fill="url(#paint0_linear)" stroke="#6A52FC"/>
<path d="M16.9691 15.4072L16.5456 14.1368C16.5184 14.0551 16.4419 14 16.3558 14H15.1236C15.0479 14 14.9786 14.0428 14.9447 14.1106L14.1447 15.7106C14.0782 15.8435 14.1749 16 14.3236 16H15.3764C15.4521 16 15.5214 16.0428 15.5553 16.1106L15.8459 16.6917C15.9146 16.8291 16.106 16.841 16.1912 16.7132L16.9457 15.5814C16.98 15.53 16.9886 15.4658 16.9691 15.4072Z" fill="#6A52FC"/>
<path d="M16 18.8V17.4828C16 17.3047 16.2154 17.2154 16.3414 17.3414L17 18L17.8586 18.8586C17.9367 18.9367 17.9367 19.0633 17.8586 19.1414L17.3414 19.6586C17.2154 19.7846 17 19.6953 17 19.5172V19.2C17 19.0895 16.9105 19 16.8 19H16.2C16.0895 19 16 18.9105 16 18.8Z" fill="#6A52FC"/>
<path d="M18.0447 16.9106L18.8211 15.3578C18.8948 15.2104 19.1052 15.2104 19.1789 15.3578L19.9553 16.9106C19.9834 16.9669 19.9834 17.0331 19.9553 17.0894L19.1789 18.6422C19.1052 18.7896 18.8948 18.7896 18.8211 18.6422L18.0447 17.0894C18.0166 17.0331 18.0166 16.9669 18.0447 16.9106Z" fill="#6A52FC"/>
</g>
<g opacity="0.4">
<g clip-path="url(#clip1)">
<path d="M36.2678 10.6465L35.5607 9.93935C34.3891 8.76778 32.4897 8.76778 31.3181 9.93935L29.1968 12.0607C28.0252 13.2322 28.0252 15.1317 29.1968 16.3033V16.3033C30.3683 17.4749 32.2678 17.4749 33.4394 16.3033L34.8536 14.8891" stroke="#6A52FC" stroke-width="2"/>
<path d="M32.7322 11.3536L33.4393 12.0607C34.6109 13.2322 36.5104 13.2322 37.682 12.0607L39.8033 9.93934C40.9749 8.76777 40.9749 6.86827 39.8033 5.6967V5.6967C38.6317 4.52513 36.7322 4.52513 35.5607 5.6967L34.1464 7.11092" stroke="#6A52FC" stroke-width="2"/>
<circle cx="41" cy="17" r="3.5" fill="url(#paint1_linear)" stroke="#6A52FC"/>
<path d="M40.9691 15.4072L40.5456 14.1368C40.5184 14.0551 40.4419 14 40.3558 14H39.1236C39.0479 14 38.9786 14.0428 38.9447 14.1106L38.1447 15.7106C38.0782 15.8435 38.1749 16 38.3236 16H39.3764C39.4521 16 39.5214 16.0428 39.5553 16.1106L39.8459 16.6917C39.9146 16.8291 40.106 16.841 40.1912 16.7132L40.9457 15.5814C40.98 15.53 40.9886 15.4658 40.9691 15.4072Z" fill="#6A52FC"/>
<path d="M40 18.8V17.4828C40 17.3047 40.2154 17.2154 40.3414 17.3414L41 18L41.8586 18.8586C41.9367 18.9367 41.9367 19.0633 41.8586 19.1414L41.3414 19.6586C41.2154 19.7846 41 19.6953 41 19.5172V19.2C41 19.0895 40.9105 19 40.8 19H40.2C40.0895 19 40 18.9105 40 18.8Z" fill="#6A52FC"/>
<path d="M42.0447 16.9106L42.8211 15.3578C42.8948 15.2104 43.1052 15.2104 43.1789 15.3578L43.9553 16.9106C43.9834 16.9669 43.9834 17.0331 43.9553 17.0894L43.1789 18.6422C43.1052 18.7896 42.8948 18.7896 42.8211 18.6422L42.0447 17.0894C42.0166 17.0331 42.0166 16.9669 42.0447 16.9106Z" fill="#6A52FC"/>
</g>
</g>
<defs>
<linearGradient id="paint0_linear" x1="17.5538" y1="10.7133" x2="17.5538" y2="23.5629" gradientUnits="userSpaceOnUse">
<stop stop-color="#8CA5FF"/>
<stop offset="1" stop-color="#A49DFF"/>
</linearGradient>
<linearGradient id="paint1_linear" x1="41.5538" y1="10.7133" x2="41.5538" y2="23.5629" gradientUnits="userSpaceOnUse">
<stop stop-color="#8CA5FF"/>
<stop offset="1" stop-color="#A49DFF"/>
</linearGradient>
<clipPath id="clip0">
<rect width="20" height="20" fill="white" transform="translate(2 2)"/>
</clipPath>
<clipPath id="clip1">
<rect width="20" height="20" fill="white" transform="translate(26 2)"/>
</clipPath>
</defs>
</svg>
