<svg width="48" height="18" viewBox="0 0 48 18" fill="none" xmlns="http://www.w3.org/2000/svg">
<path fill-rule="evenodd" clip-rule="evenodd" d="M10.3771 2.4206C11.3534 1.44429 12.9363 1.44429 13.9126 2.4206C14.8889 3.39691 14.8889 4.97982 13.9126 5.95613L5.80082 14.0679L1.08677 15.2465L2.26529 10.5324L10.3771 2.4206ZM13.2055 3.12771C12.6197 2.54192 11.67 2.54192 11.0842 3.12771L10.4949 3.71696L12.6163 5.83828L13.2055 5.24903C13.7913 4.66324 13.7913 3.71349 13.2055 3.12771ZM11.9092 6.54539L9.78784 4.42407L3.16825 11.0437L2.46114 13.8721L5.28957 13.165L11.9092 6.54539Z" fill="#212648"/>
<path d="M17.774 14.5594L18.7168 10.7881L25.7878 3.71707L26.7306 2.77426C27.5117 1.99321 28.778 1.99321 29.5591 2.77426C30.3401 3.55531 30.3401 4.82164 29.5591 5.60269L28.6163 6.5455L21.5452 13.6166L17.774 14.5594Z" fill="#4864FF"/>
<path opacity="0.4" fill-rule="evenodd" clip-rule="evenodd" d="M42.3771 2.4206C43.3534 1.44429 44.9363 1.44429 45.9126 2.4206C46.8889 3.39691 46.8889 4.97982 45.9126 5.95613L37.8008 14.0679L33.0868 15.2465L34.2653 10.5324L42.3771 2.4206ZM45.2055 3.12771C44.6197 2.54192 43.67 2.54192 43.0842 3.12771L42.4949 3.71696L44.6163 5.83828L45.2055 5.24903C45.7913 4.66324 45.7913 3.71349 45.2055 3.12771ZM43.9092 6.54539L41.7878 4.42407L35.1682 11.0437L34.4611 13.8721L37.2896 13.165L43.9092 6.54539Z" fill="#212648"/>
</svg>
