<svg width="16" height="16" viewBox="0 0 16 16" fill="none" xmlns="http://www.w3.org/2000/svg">
<path d="M1.5 0.5C1.5 0.223858 1.72386 0 2 0H10.5L14.5 4V15.5C14.5 15.7761 14.2761 16 14 16H2C1.72386 16 1.5 15.7761 1.5 15.5L1.5 0.5Z" fill="#2B388F"/>
<path d="M7.98935 12.8834H4.75V9.63452L8.46429 9.63337V9.65088C8.19204 9.71606 7.9897 9.9616 7.9897 10.2548L7.98935 12.8834Z" fill="white"/>
<path d="M4.75 9.28516H11.25V6.03516H4.75V9.28516Z" fill="white"/>
<path d="M10.5 0L14.5 4H11C10.7239 4 10.5 3.77718 10.5 3.50104C10.5 2.54867 10.5 0.520092 10.5 0Z" fill="#2B388F"/>
<path d="M10.5 0L14.5 4H11C10.7239 4 10.5 3.77718 10.5 3.50104C10.5 2.54867 10.5 0.520092 10.5 0Z" fill="white" fill-opacity="0.2"/>
<path fill-rule="evenodd" clip-rule="evenodd" d="M10.25 3.5625V0H10.5V3.5625C10.5 3.80412 10.6959 4 10.9375 4H14.5V4.25H10.9375C10.5578 4.25 10.25 3.9422 10.25 3.5625Z" fill="black" fill-opacity="0.2"/>
</svg>
