<svg width="48" height="24" viewBox="0 0 48 24" fill="none" xmlns="http://www.w3.org/2000/svg">
<path d="M6 2H5V3H6V2Z" fill="#6A52FC"/>
<path d="M9 2H7V3H9V2Z" fill="#6A52FC"/>
<path d="M12 2H10V3H12V2Z" fill="#6A52FC"/>
<path d="M13 2H15V3H13V2Z" fill="#6A52FC"/>
<path d="M16 2H17V3H16V2Z" fill="#6A52FC"/>
<path d="M18 2H19V3H18V2Z" fill="#6A52FC"/>
<path d="M6 4H5V6H6V4Z" fill="#6A52FC"/>
<path d="M5 7H6V9H5V7Z" fill="#6A52FC"/>
<path d="M6 10H5V12H6V10Z" fill="#6A52FC"/>
<path d="M5 13H6V14H5V13Z" fill="#6A52FC"/>
<path d="M6 16H5V18H6V16Z" fill="#6A52FC"/>
<path d="M5 19H6V20H5V19Z" fill="#6A52FC"/>
<path d="M9 21H7V22H9V21Z" fill="#6A52FC"/>
<path d="M10 21H12V22H10V21Z" fill="#6A52FC"/>
<path d="M15 21H13V22H15V21Z" fill="#6A52FC"/>
<path d="M5 21H6V22H5V21Z" fill="#6A52FC"/>
<path d="M19 21H18V22H19V21Z" fill="#6A52FC"/>
<path d="M18 4H19V6H18V4Z" fill="#6A52FC"/>
<path d="M19 7H18V9H19V7Z" fill="#6A52FC"/>
<path d="M18 10H19V12H18V10Z" fill="#6A52FC"/>
<path d="M19 13H18V14H19V13Z" fill="#6A52FC"/>
<path d="M18 16H19V18H18V16Z" fill="#6A52FC"/>
<path d="M19 19H18V20H19V19Z" fill="#6A52FC"/>
<rect x="3.5" y="15.5" width="17" height="6" fill="url(#paint0_linear)" stroke="#6A52FC"/>
<rect x="1" y="13" width="22" height="1" fill="#6A52FC"/>
<path d="M12 5V11M12 11L9.5 8.5M12 11L14.5 8.5" stroke="#6A52FC"/>
<g opacity="0.4">
<path d="M30 2H29V3H30V2Z" fill="#6A52FC"/>
<path d="M33 2H31V3H33V2Z" fill="#6A52FC"/>
<path d="M36 2H34V3H36V2Z" fill="#6A52FC"/>
<path d="M37 2H39V3H37V2Z" fill="#6A52FC"/>
<path d="M40 2H41V3H40V2Z" fill="#6A52FC"/>
<path d="M42 2H43V3H42V2Z" fill="#6A52FC"/>
<path d="M30 4H29V6H30V4Z" fill="#6A52FC"/>
<path d="M29 7H30V9H29V7Z" fill="#6A52FC"/>
<path d="M30 10H29V12H30V10Z" fill="#6A52FC"/>
<path d="M29 13H30V14H29V13Z" fill="#6A52FC"/>
<path d="M30 16H29V18H30V16Z" fill="#6A52FC"/>
<path d="M29 19H30V20H29V19Z" fill="#6A52FC"/>
<path d="M33 21H31V22H33V21Z" fill="#6A52FC"/>
<path d="M34 21H36V22H34V21Z" fill="#6A52FC"/>
<path d="M39 21H37V22H39V21Z" fill="#6A52FC"/>
<path d="M29 21H30V22H29V21Z" fill="#6A52FC"/>
<path d="M43 21H42V22H43V21Z" fill="#6A52FC"/>
<path d="M42 4H43V6H42V4Z" fill="#6A52FC"/>
<path d="M43 7H42V9H43V7Z" fill="#6A52FC"/>
<path d="M42 10H43V12H42V10Z" fill="#6A52FC"/>
<path d="M43 13H42V14H43V13Z" fill="#6A52FC"/>
<path d="M42 16H43V18H42V16Z" fill="#6A52FC"/>
<path d="M43 19H42V20H43V19Z" fill="#6A52FC"/>
<rect x="27.5" y="15.5" width="17" height="6" fill="url(#paint1_linear)" stroke="#6A52FC"/>
<rect x="25" y="13" width="22" height="1" fill="#6A52FC"/>
<path d="M36 5V11M36 11L33.5 8.5M36 11L38.5 8.5" stroke="#6A52FC"/>
</g>
<defs>
<linearGradient id="paint0_linear" x1="12" y1="15.6716" x2="12" y2="21.4615" gradientUnits="userSpaceOnUse">
<stop stop-color="#8CA5FF"/>
<stop offset="1" stop-color="#7B72FB"/>
</linearGradient>
<linearGradient id="paint1_linear" x1="36" y1="15.6716" x2="36" y2="21.4615" gradientUnits="userSpaceOnUse">
<stop stop-color="#8CA5FF"/>
<stop offset="1" stop-color="#7B72FB"/>
</linearGradient>
</defs>
</svg>
