<svg width="28" height="28" viewBox="0 0 28 28" fill="none" xmlns="http://www.w3.org/2000/svg">
<g clip-path="url(#clip0)">
<path d="M-1.22392e-06 0L0 28L28 -1.22392e-06L-1.22392e-06 0Z" fill="#007BFF"/>
<path d="M12.4315 7.40744C12.445 7.55433 12.3889 7.69928 12.2855 7.80268L12.2826 7.80558L10.7399 9.32515L13.0135 12.7358C13.1348 12.9177 12.9181 13.1344 12.7362 13.0132L9.32567 10.7394L7.80642 12.2818L7.80352 12.2847C7.69915 12.3891 7.5542 12.4451 7.40827 12.4306C7.26042 12.4161 7.14639 12.3388 7.06135 12.2499C6.93862 12.1195 6.86904 11.9474 6.85841 11.7687L6.7811 10.495C6.76177 10.178 6.64098 9.87555 6.43417 9.63396L4.51394 7.39814C4.44436 7.31696 4.34192 7.26864 4.23466 7.26961L3.48862 7.26961C3.13686 7.2986 2.95228 7.15654 2.85661 6.98163C2.71939 6.73038 2.77061 6.41824 2.97258 6.21627L2.97451 6.21433L4.55742 4.64108L4.56515 4.63335L6.13841 3.05044L6.14034 3.04851C6.34231 2.84653 6.65445 2.79532 6.9057 2.93254C7.08062 3.02821 7.22267 3.21279 7.19368 3.56455L7.19271 4.31155C7.19271 4.41978 7.24007 4.52125 7.32124 4.59083L9.63382 6.4343C9.87638 6.64014 10.1779 6.7619 10.4949 6.78123L11.7685 6.85854C11.9473 6.86917 12.1184 6.93972 12.2498 7.06148C12.3397 7.14555 12.417 7.25958 12.4315 7.40744Z" fill="white"/>
</g>
<defs>
<clipPath id="clip0">
<rect width="28" height="28" fill="white"/>
</clipPath>
</defs>
</svg>
