<svg width="24" height="24" viewBox="0 0 24 24" fill="none" xmlns="http://www.w3.org/2000/svg">
<g clip-path="url(#clip0)">
<path d="M16.359 10.6818C16.4009 10.6888 16.7289 10.6155 16.7429 10.6399C16.7638 10.6713 16.9104 11.7251 16.872 11.7321C16.8336 11.739 16.5614 11.8018 16.5614 11.8018C16.5405 11.6588 16.3625 10.7725 16.359 10.6818V10.6818ZM16.8824 10.5806L17.0255 11.7146C17.0988 11.7111 17.3954 11.6902 17.4233 11.6867C17.3814 11.2575 17.3081 10.5806 17.3081 10.5806C17.1686 10.5527 17.022 10.5527 16.8824 10.5806V10.5806ZM16.5998 12.1543C16.5998 12.1543 17.2453 11.9903 17.4791 12.0705C17.5977 12.4997 17.8141 14.9073 17.835 15.005C17.6885 15.0224 17.2069 15.0643 17.1686 15.0748C17.1372 14.8933 16.5998 12.2694 16.5998 12.1543ZM18.99 10.7097C19.0284 10.7202 19.3703 10.6748 19.3738 10.6992C19.3808 10.783 19.4157 11.7949 19.3773 11.7984C19.3389 11.8018 19.0667 11.8263 19.0667 11.8263C19.0598 11.6867 18.983 10.8039 18.99 10.7097V10.7097ZM19.5169 10.6818L19.5448 11.8018C19.618 11.8018 19.9111 11.8193 19.9425 11.8158C19.9356 11.3866 19.9425 10.7097 19.9425 10.7097C19.803 10.6853 19.6599 10.6748 19.5169 10.6818V10.6818ZM19.0667 12.1857C19.0667 12.1857 19.7262 12.0984 19.9495 12.2031C19.9984 12.7056 19.9914 15.0469 19.9984 15.1446C19.8483 15.1446 19.3703 15.1516 19.3319 15.1585C19.3249 14.9771 19.0563 12.3008 19.0667 12.1857ZM17.5349 9.307C17.9153 11.247 18.2049 14.5619 18.2153 14.7747C18.2153 14.7747 18.5154 14.7817 18.8539 14.8026C18.655 12.7125 18.4107 9.3733 18.4142 9.26513C18.3305 9.17092 17.5349 9.307 17.5349 9.307V9.307ZM16.6975 13.8954C16.6242 13.3511 14.6772 12.7335 13.5816 12.9324C13.5816 12.9324 13.4455 11.7321 13.3932 10.5701C13.3478 9.57219 13.3862 8.60216 13.3966 8.44166C13.3234 8.38932 12.5348 8.76616 12.1091 8.92318C12.1091 8.92318 12.6185 11.0796 12.9884 15.5528C12.9884 15.5528 13.5781 15.6156 14.59 15.4202C15.6019 15.2248 16.7987 14.6142 16.6975 13.8954ZM14.3178 14.8759L14.1468 13.6442C14.1887 13.6232 15.239 14.014 15.3506 14.0838C15.3332 14.1606 14.3178 14.8759 14.3178 14.8759ZM8.24995 10.6818C8.29182 10.6888 8.61981 10.6155 8.63377 10.6399C8.65471 10.6713 8.80126 11.7251 8.76287 11.7321C8.72449 11.739 8.45233 11.8018 8.45233 11.8018C8.43139 11.6588 8.25344 10.7725 8.24995 10.6818V10.6818ZM8.77334 10.5806L8.9164 11.7146C8.98968 11.7111 9.28627 11.6902 9.31418 11.6867C9.26882 11.2575 9.19904 10.5806 9.19904 10.5806C9.05946 10.5527 8.91291 10.5527 8.77334 10.5806V10.5806ZM8.49071 12.1543C8.49071 12.1543 9.13623 11.9903 9.37001 12.0705C9.48865 12.4997 9.70498 14.9073 9.72592 15.005C9.57937 15.0224 9.09785 15.0643 9.05946 15.0748C9.02806 14.8933 8.49071 12.2694 8.49071 12.1543V12.1543ZM10.8809 10.7097C10.9193 10.7202 11.2612 10.6748 11.2647 10.6992C11.2717 10.783 11.3066 11.7949 11.2682 11.7984C11.2298 11.8018 10.9576 11.8263 10.9576 11.8263C10.9507 11.6867 10.8774 10.8039 10.8809 10.7097ZM11.4078 10.6818L11.4357 11.8018C11.5089 11.8018 11.802 11.8193 11.8334 11.8158C11.8265 11.3866 11.8334 10.7097 11.8334 10.7097C11.6939 10.6853 11.5508 10.6783 11.4078 10.6818V10.6818ZM10.9576 12.1857C10.9576 12.1857 11.6171 12.0984 11.8404 12.2031C11.8893 12.7056 11.8823 15.0469 11.8893 15.1446C11.7392 15.1446 11.2612 15.1516 11.2228 15.1585C11.2193 14.9771 10.9472 12.3008 10.9576 12.1857V12.1857ZM9.42584 9.307C9.80617 11.247 10.0958 14.5619 10.1062 14.7747C10.1062 14.7747 10.4063 14.7817 10.7448 14.8026C10.5459 12.7125 10.3016 9.3733 10.3051 9.26164C10.2214 9.17092 9.42584 9.307 9.42584 9.307V9.307ZM8.58841 13.8954C8.51514 13.3511 6.56811 12.7335 5.47248 12.9324C5.47248 12.9324 5.3364 11.7321 5.28406 10.5701C5.2387 9.57219 5.27708 8.60216 5.28755 8.44166C5.21427 8.39281 4.42569 8.76616 4 8.92318C4 8.92318 4.50944 11.0796 4.8793 15.5528C4.8793 15.5528 5.46899 15.6156 6.48088 15.4202C7.49277 15.2248 8.6896 14.6142 8.58841 13.8954ZM6.20872 14.8759L6.03774 13.6442C6.07961 13.6232 7.12989 14.014 7.24155 14.0838C7.2241 14.1606 6.20872 14.8759 6.20872 14.8759" fill="black"/>
</g>
<defs>
<clipPath id="clip0">
<rect width="16" height="16" fill="white" transform="translate(4 4)"/>
</clipPath>
</defs>
</svg>
