<svg width="24" height="24" viewBox="0 0 24 24" fill="none" xmlns="http://www.w3.org/2000/svg">
<path d="M18.8078 11.1172V11.1188C18.7406 11.3234 18.5562 11.4672 18.3406 11.4844C18.125 11.5016 17.9203 11.3875 17.8218 11.1969C17.7578 11.0719 17.7453 10.9266 17.789 10.7922H17.7875C18.0781 9.90469 17.8687 8.93125 17.2375 8.2375C16.6094 7.54532 15.6547 7.2375 14.7344 7.43282C14.5953 7.4625 14.45 7.43594 14.3312 7.35938C14.2125 7.28282 14.1281 7.1625 14.0984 7.025C14.0375 6.73907 14.2219 6.45625 14.5109 6.39532C15.7594 6.13125 17.114 6.51719 18.0312 7.52657C18.9515 8.53438 19.1984 9.90938 18.8078 11.1172V11.1172ZM15.1015 9.13125C14.9828 9.15625 14.8578 9.13438 14.7547 9.06719C14.6515 9.00157 14.5812 8.89844 14.5547 8.77969C14.5015 8.53282 14.6594 8.29063 14.9094 8.2375C15.539 8.10313 16.1937 8.3125 16.625 8.7875C17.0734 9.27969 17.1922 9.95 17.0015 10.5375C16.964 10.6531 16.8828 10.7484 16.7734 10.8031C16.664 10.8578 16.5375 10.8688 16.4219 10.8313C16.1797 10.7531 16.0468 10.4953 16.1265 10.2563H16.125C16.2219 9.95938 16.1531 9.63282 15.9422 9.4C15.7281 9.16875 15.4094 9.06563 15.1015 9.13125ZM15.5109 11.7234C16.3125 11.9703 17.2047 12.5672 17.2047 13.6172C17.2047 15.3578 14.6765 17.55 10.8765 17.55C7.9781 17.55 5.01404 16.1547 5.01404 13.8609C5.01404 12.6609 5.77966 11.275 7.09685 9.96563C8.85623 8.21875 10.9094 7.42344 11.6812 8.19063C12.0219 8.52813 12.0547 9.11407 11.8359 9.8125C11.7219 10.1641 12.1687 9.96875 12.1687 9.97032C13.5906 9.37813 14.8328 9.34375 15.2859 9.9875C15.5265 10.3297 15.5047 10.8109 15.2812 11.3688C15.1781 11.625 15.3125 11.6641 15.5109 11.7234V11.7234ZM10.8828 16.7281C13.1953 16.5016 14.95 15.0953 14.8 13.5859C14.65 12.0797 12.6531 11.0406 10.3406 11.2672C8.0281 11.4938 6.27341 12.9016 6.42341 14.4078C6.57341 15.9172 8.57029 16.9547 10.8828 16.7281V16.7281ZM11.114 12.4297C12.2531 12.7219 12.8344 13.7891 12.3687 14.825C11.8969 15.8859 10.539 16.45 9.38748 16.0813C8.27498 15.725 7.80466 14.6344 8.29216 13.6516C8.77029 12.6891 10.014 12.1453 11.114 12.4297V12.4297ZM10.2734 14.9375C10.4937 14.5797 10.3781 14.1703 10.0156 14.0172C9.65779 13.8688 9.19373 14.0219 8.97341 14.3656C8.74998 14.7109 8.85466 15.1234 9.21091 15.2828C9.57185 15.4469 10.05 15.2906 10.2734 14.9375Z" fill="#333333"/>
</svg>
