<svg width="24" height="24" viewBox="0 0 24 24" fill="none" xmlns="http://www.w3.org/2000/svg">
<path d="M5.5 11.008C5.5 10.3245 5.5 9.98273 5.5576 9.69304C5.77801 8.58455 6.60268 7.69401 7.691 7.38923C7.97542 7.30958 8.31618 7.28337 8.9977 7.23095V7.23095C9.62201 7.18292 9.93416 7.15891 10.2463 7.14122C11.4145 7.07503 12.5855 7.07503 13.7537 7.14122C14.0658 7.15891 14.378 7.18292 15.0023 7.23095V7.23095C15.6838 7.28337 16.0246 7.30958 16.309 7.38923C17.3973 7.69401 18.222 8.58455 18.4424 9.69304C18.5 9.98273 18.5 10.3245 18.5 11.008V12.992C18.5 13.6755 18.5 14.0173 18.4424 14.307C18.222 15.4154 17.3973 16.306 16.309 16.6108C16.0246 16.6904 15.6838 16.7166 15.0023 16.7691V16.7691C14.378 16.8171 14.0658 16.8411 13.7537 16.8588C12.5855 16.925 11.4145 16.925 10.2463 16.8588C9.93416 16.8411 9.62201 16.8171 8.9977 16.7691V16.7691C8.31618 16.7166 7.97542 16.6904 7.691 16.6108C6.60268 16.306 5.77801 15.4154 5.5576 14.307C5.5 14.0173 5.5 13.6755 5.5 12.992V11.008Z" stroke="#212648"/>
<path d="M11 13.6263V10.3737C11 10.214 11.178 10.1187 11.3109 10.2073L13.7504 11.8336C13.8691 11.9128 13.8691 12.0872 13.7504 12.1664L11.3109 13.7927C11.178 13.8813 11 13.786 11 13.6263Z" fill="#212648"/>
</svg>
