<svg width="48" height="12" viewBox="0 0 48 12" fill="none" xmlns="http://www.w3.org/2000/svg">
<path fill-rule="evenodd" clip-rule="evenodd" d="M1.13233 0.146822C0.936567 -0.0489408 0.619172 -0.0489408 0.423409 0.146822C0.227646 0.342585 0.227646 0.65998 0.423409 0.855743L2.68031 3.11264C1.602 3.72184 0.705197 4.6187 0.0921845 5.70009C-0.0307457 5.91695 -0.0307199 6.18213 0.0922121 6.39898C1.26332 8.46486 3.47014 9.85723 5.99955 9.85723C7.00282 9.85723 7.95533 9.63818 8.8126 9.24493L11.085 11.5173C11.2808 11.7131 11.5982 11.7131 11.7939 11.5173C11.9897 11.3216 11.9897 11.0042 11.7939 10.8084L1.13233 0.146822ZM7.24239 7.67473L4.10051 4.53285C3.8874 4.88013 3.76452 5.28876 3.76452 5.72609C3.76452 6.98786 4.78738 8.01072 6.04914 8.01072C6.48647 8.01072 6.8951 7.88784 7.24239 7.67473Z" fill="black" fill-opacity="0.48"/>
<path d="M4.52128 2.40472C4.99748 2.29823 5.49246 2.24207 6.00045 2.24207C8.52987 2.24207 10.7367 3.63443 11.9078 5.70031C12.0307 5.91716 12.0307 6.18234 11.9078 6.39919C11.5016 7.11571 10.9709 7.7512 10.3453 8.27569L4.52128 2.40472Z" fill="black" fill-opacity="0.48"/>
<path fill-rule="evenodd" clip-rule="evenodd" d="M13.1323 0.146822C12.9366 -0.0489408 12.6192 -0.0489408 12.4234 0.146822C12.2276 0.342585 12.2276 0.65998 12.4234 0.855743L14.6803 3.11264C13.602 3.72184 12.7052 4.6187 12.0922 5.70009C11.9693 5.91695 11.9693 6.18213 12.0922 6.39898C13.2633 8.46486 15.4701 9.85723 17.9996 9.85723C19.0028 9.85723 19.9553 9.63818 20.8126 9.24493L23.085 11.5173C23.2808 11.7131 23.5982 11.7131 23.7939 11.5173C23.9897 11.3216 23.9897 11.0042 23.7939 10.8084L13.1323 0.146822ZM19.2424 7.67473L16.1005 4.53285C15.8874 4.88013 15.7645 5.28876 15.7645 5.72609C15.7645 6.98786 16.7874 8.01072 18.0491 8.01072C18.4865 8.01072 18.8951 7.88784 19.2424 7.67473Z" fill="#333333"/>
<path d="M16.5213 2.40472C16.9975 2.29823 17.4925 2.24207 18.0004 2.24207C20.5299 2.24207 22.7367 3.63443 23.9078 5.70031C24.0307 5.91716 24.0307 6.18234 23.9078 6.39919C23.5016 7.11571 22.9709 7.7512 22.3453 8.27569L16.5213 2.40472Z" fill="#333333"/>
<path fill-rule="evenodd" clip-rule="evenodd" d="M25.1323 0.146822C24.9366 -0.0489408 24.6192 -0.0489408 24.4234 0.146822C24.2276 0.342585 24.2276 0.65998 24.4234 0.855743L26.6803 3.11264C25.602 3.72184 24.7052 4.6187 24.0922 5.70009C23.9693 5.91695 23.9693 6.18213 24.0922 6.39898C25.2633 8.46486 27.4701 9.85723 29.9996 9.85723C31.0028 9.85723 31.9553 9.63818 32.8126 9.24493L35.085 11.5173C35.2808 11.7131 35.5982 11.7131 35.7939 11.5173C35.9897 11.3216 35.9897 11.0042 35.7939 10.8084L25.1323 0.146822ZM31.2424 7.67473L28.1005 4.53285C27.8874 4.88013 27.7645 5.28876 27.7645 5.72609C27.7645 6.98786 28.7874 8.01072 30.0491 8.01072C30.4865 8.01072 30.8951 7.88784 31.2424 7.67473Z" fill="black" fill-opacity="0.48"/>
<path d="M28.5213 2.40472C28.9975 2.29823 29.4925 2.24207 30.0004 2.24207C32.5299 2.24207 34.7367 3.63443 35.9078 5.70031C36.0307 5.91716 36.0307 6.18234 35.9078 6.39919C35.5016 7.11571 34.9709 7.7512 34.3453 8.27569L28.5213 2.40472Z" fill="black" fill-opacity="0.48"/>
<g opacity="0.4">
<path fill-rule="evenodd" clip-rule="evenodd" d="M37.1323 0.146822C36.9366 -0.0489408 36.6192 -0.0489408 36.4234 0.146822C36.2276 0.342585 36.2276 0.65998 36.4234 0.855743L38.6803 3.11264C37.602 3.72184 36.7052 4.6187 36.0922 5.70009C35.9693 5.91695 35.9693 6.18213 36.0922 6.39898C37.2633 8.46486 39.4701 9.85723 41.9996 9.85723C43.0028 9.85723 43.9553 9.63818 44.8126 9.24493L47.085 11.5173C47.2808 11.7131 47.5982 11.7131 47.7939 11.5173C47.9897 11.3216 47.9897 11.0042 47.7939 10.8084L37.1323 0.146822ZM43.2424 7.67473L40.1005 4.53285C39.8874 4.88013 39.7645 5.28876 39.7645 5.72609C39.7645 6.98786 40.7874 8.01072 42.0491 8.01072C42.4865 8.01072 42.8951 7.88784 43.2424 7.67473Z" fill="black" fill-opacity="0.48"/>
<path d="M40.5213 2.40472C40.9975 2.29823 41.4925 2.24207 42.0004 2.24207C44.5299 2.24207 46.7367 3.63443 47.9078 5.70031C48.0307 5.91716 48.0307 6.18234 47.9078 6.39919C47.5016 7.11571 46.9709 7.7512 46.3453 8.27569L40.5213 2.40472Z" fill="black" fill-opacity="0.48"/>
</g>
</svg>
