<svg width="48" height="24" viewBox="0 0 48 24" fill="none" xmlns="http://www.w3.org/2000/svg">
<g clip-path="url(#clip0)">
<path d="M3 20H21L20 22H2L3 20Z" fill="#212648"/>
<path d="M15.8886 15.2839L6.3623 9.78388M15.8886 15.2839L14.504 15.5232C12.943 15.793 11.5826 16.7421 10.7905 18.114V18.114M15.8886 15.2839L19.7726 6.55664M6.3623 9.78388L11.9783 2.05664M6.3623 9.78388L6.53397 10.2297C7.32942 12.2954 7.14848 14.61 6.0417 16.527V16.527M6.0417 16.527L10.7905 18.114M6.0417 16.527L3.96038 19.9441L9.79051 19.8461L10.7905 18.114" stroke="#212648"/>
</g>
<g opacity="0.4" clip-path="url(#clip1)">
<path d="M27 20H45L44 22H26L27 20Z" fill="#212648"/>
<path d="M39.8886 15.2839L30.3623 9.78388M39.8886 15.2839L38.504 15.5232C36.943 15.793 35.5826 16.7421 34.7905 18.114V18.114M39.8886 15.2839L43.7726 6.55664M30.3623 9.78388L35.9783 2.05664M30.3623 9.78388L30.534 10.2297C31.3294 12.2954 31.1485 14.61 30.0417 16.527V16.527M30.0417 16.527L34.7905 18.114M30.0417 16.527L27.9604 19.9441L33.7905 19.8461L34.7905 18.114" stroke="#212648"/>
</g>
<defs>
<clipPath id="clip0">
<rect width="24" height="24" fill="white"/>
</clipPath>
<clipPath id="clip1">
<rect width="24" height="24" fill="white" transform="translate(24)"/>
</clipPath>
</defs>
</svg>
