<svg width="48" height="24" viewBox="0 0 48 24" fill="none" xmlns="http://www.w3.org/2000/svg">
<path fill-rule="evenodd" clip-rule="evenodd" d="M17.07 16.8281C16.2121 17.7307 15.1027 18.4157 13.8118 18.7616C10.0775 19.7622 6.23914 17.5461 5.23855 13.8119C4.93438 12.6767 4.92746 11.5319 5.17008 10.4601L4.25971 9.97297C3.91775 11.2737 3.8996 12.6785 4.27263 14.0707C5.41616 18.3384 9.80286 20.8711 14.0706 19.7275C15.641 19.3067 16.9765 18.4468 17.9803 17.3152L17.07 16.8281ZM6.44522 7.73996C7.35059 6.55769 8.63874 5.65385 10.1883 5.23864C13.9226 4.23805 17.7609 6.45413 18.7615 10.1884C19.1348 11.5815 19.0604 12.9891 18.6265 14.2585L19.5185 14.7358C20.0623 13.2452 20.1693 11.5785 19.7274 9.92957C18.5839 5.66184 14.1972 3.12918 9.92948 4.27272C8.10163 4.76249 6.59205 5.84718 5.55326 7.26264L6.44522 7.73996Z" fill="#212648"/>
<path d="M2 13L4.5 10L7 13" stroke="#212648"/>
<path d="M22 12L19.5 15L17 12" stroke="#212648"/>
<path fill-rule="evenodd" clip-rule="evenodd" d="M41.07 16.8281C40.2121 17.7307 39.1027 18.4157 37.8118 18.7616C34.0775 19.7622 30.2391 17.5461 29.2386 13.8119C28.9344 12.6767 28.9275 11.5319 29.1701 10.4601L28.2597 9.97297C27.9178 11.2737 27.8996 12.6785 28.2726 14.0707C29.4162 18.3384 33.8029 20.8711 38.0706 19.7275C39.641 19.3067 40.9765 18.4468 41.9803 17.3152L41.07 16.8281ZM30.4452 7.73996C31.3506 6.55769 32.6387 5.65385 34.1883 5.23864C37.9226 4.23805 41.7609 6.45413 42.7615 10.1884C43.1348 11.5815 43.0604 12.9891 42.6265 14.2585L43.5185 14.7358C44.0623 13.2452 44.1693 11.5785 43.7274 9.92957C42.5839 5.66184 38.1972 3.12918 33.9295 4.27272C32.1016 4.76249 30.592 5.84718 29.5533 7.26264L30.4452 7.73996Z" fill="white"/>
<path d="M26 13L28.5 10L31 13" stroke="white"/>
<path d="M46 12L43.5 15L41 12" stroke="white"/>
</svg>
