<svg width="160" height="20" viewBox="0 0 160 20" fill="none" xmlns="http://www.w3.org/2000/svg">
<path d="M9 13.5C9 9.91015 11.9101 7 15.5 7C19.0899 7 22 9.91015 22 13.5C22 9.91015 24.9101 7 28.5 7C32.0899 7 35 9.91015 35 13.5C35 9.91015 37.9101 7 41.5 7C45.0899 7 48 9.91015 48 13.5C48 9.91015 50.9101 7 54.5 7C58.0899 7 61 9.91015 61 13.5C61 9.91015 63.9101 7 67.5 7C71.0899 7 74 9.91015 74 13.5C74 9.91015 76.9101 7 80.5 7C84.0899 7 87 9.91015 87 13.5C87 9.91015 89.9101 7 93.5 7C97.0899 7 100 9.91015 100 13.5C100 9.91015 102.91 7 106.5 7C110.09 7 113 9.91015 113 13.5C113 9.91015 115.91 7 119.5 7C123.09 7 126 9.91015 126 13.5C126 9.91015 128.91 7 132.5 7C136.09 7 139 9.91015 139 13.5C139 9.91015 141.91 7 145.5 7C149.09 7 152 9.91015 152 13.5" stroke="black" stroke-linecap="round" stroke-linejoin="round"/>
</svg>
