<svg width="48" height="24" viewBox="0 0 48 24" fill="none" xmlns="http://www.w3.org/2000/svg">
<rect x="2.5" y="3.5" width="19" height="7" fill="url(#paint0_linear)" stroke="#6A52FC"/>
<path d="M8 20.0986L2.93426 12.5H13.0657L8 20.0986Z" fill="url(#paint1_linear)" stroke="#6A52FC"/>
<path d="M8 21L11.4533 18.928C12.3321 18.4007 13.4673 18.6231 14.0823 19.443L14.8648 20.4864C15.5017 21.3356 16.691 21.5393 17.5742 20.9505L22 18" stroke="#6A52FC"/>
<g opacity="0.4">
<rect x="26.5" y="3.5" width="19" height="7" fill="url(#paint2_linear)" stroke="#6A52FC"/>
<path d="M32 20.0986L26.9343 12.5H37.0657L32 20.0986Z" fill="url(#paint3_linear)" stroke="#6A52FC"/>
<path d="M32 21L35.4533 18.928C36.3321 18.4007 37.4673 18.6231 38.0823 19.443L38.8648 20.4864C39.5017 21.3356 40.691 21.5393 41.5742 20.9505L46 18" stroke="#6A52FC"/>
</g>
<defs>
<linearGradient id="paint0_linear" x1="12" y1="3.76758" x2="12" y2="10.3846" gradientUnits="userSpaceOnUse">
<stop stop-color="#8CA5FF"/>
<stop offset="1" stop-color="#7B72FB"/>
</linearGradient>
<linearGradient id="paint1_linear" x1="7.5" y1="12.8635" x2="7.5" y2="20.3077" gradientUnits="userSpaceOnUse">
<stop stop-color="#8CA5FF"/>
<stop offset="1" stop-color="#7B72FB"/>
</linearGradient>
<linearGradient id="paint2_linear" x1="36" y1="3.76758" x2="36" y2="10.3846" gradientUnits="userSpaceOnUse">
<stop stop-color="#8CA5FF"/>
<stop offset="1" stop-color="#7B72FB"/>
</linearGradient>
<linearGradient id="paint3_linear" x1="31.5" y1="12.8635" x2="31.5" y2="20.3077" gradientUnits="userSpaceOnUse">
<stop stop-color="#8CA5FF"/>
<stop offset="1" stop-color="#7B72FB"/>
</linearGradient>
</defs>
</svg>
