<svg width="48" height="24" viewBox="0 0 48 24" fill="none" xmlns="http://www.w3.org/2000/svg">
<path d="M4.5 7.5H6.5M19.5 7.5H17.5M17.5 7.5V18.5C17.5 19.0523 17.0523 19.5 16.5 19.5H7.5C6.94771 19.5 6.5 19.0523 6.5 18.5V7.5M17.5 7.5H14.5M6.5 7.5H9.5M14.5 7.5V6.5C14.5 5.94772 14.0523 5.5 13.5 5.5H10.5C9.94772 5.5 9.5 5.94772 9.5 6.5V7.5M14.5 7.5H9.5" stroke="#212648" stroke-linecap="round"/>
<rect x="10" y="11" width="1" height="5" rx="0.5" fill="#212648"/>
<rect x="13" y="11" width="1" height="5" rx="0.5" fill="#212648"/>
<g opacity="0.4">
<path d="M28.5 7.5H30.5M43.5 7.5H41.5M41.5 7.5V18.5C41.5 19.0523 41.0523 19.5 40.5 19.5H31.5C30.9477 19.5 30.5 19.0523 30.5 18.5V7.5M41.5 7.5H38.5M30.5 7.5H33.5M38.5 7.5V6.5C38.5 5.94772 38.0523 5.5 37.5 5.5H34.5C33.9477 5.5 33.5 5.94772 33.5 6.5V7.5M38.5 7.5H33.5" stroke="#212648" stroke-linecap="round"/>
<rect x="34" y="11" width="1" height="5" rx="0.5" fill="#212648"/>
<rect x="37" y="11" width="1" height="5" rx="0.5" fill="#212648"/>
</g>
</svg>
