<svg width="48" height="24" viewBox="0 0 48 24" fill="none" xmlns="http://www.w3.org/2000/svg">
<path d="M12.6774 5H11.3225C10.8263 5 10.4051 5.36382 10.3331 5.85474L10.3069 6.03278C10.121 7.29884 8.81046 8.06708 7.61495 7.61076L7.32824 7.50133C6.87355 7.32778 6.35994 7.50679 6.11161 7.92536L5.45024 9.04015C5.193 9.47375 5.29877 10.031 5.69699 10.3402L5.80658 10.4253C6.84297 11.23 6.83679 12.7979 5.79409 13.5944L5.70683 13.661C5.30379 13.9689 5.19505 14.5298 5.45383 14.966L6.11161 16.0747C6.35993 16.4933 6.87355 16.6723 7.32824 16.4987L7.61497 16.3893C8.81051 15.9329 10.1211 16.7012 10.307 17.9673L10.3331 18.1452C10.4052 18.6362 10.8263 19 11.3225 19H12.6845C13.1776 19 13.597 18.6406 13.6726 18.1533L13.7049 17.9453C13.9011 16.6811 15.2173 15.9236 16.409 16.389L16.6679 16.4902C17.124 16.6683 17.642 16.4901 17.8918 16.069L18.5498 14.9599C18.807 14.5263 18.7012 13.969 18.303 13.6598L18.1934 13.5747C17.157 12.77 17.1632 11.2022 18.2059 10.4057L18.2932 10.339C18.6962 10.0311 18.8049 9.47028 18.5462 9.03409L17.8884 7.92534C17.6401 7.50678 17.1265 7.32777 16.6718 7.50131L16.3848 7.61082C15.1893 8.06711 13.8787 7.29883 13.6929 6.03276L13.6668 5.85476C13.5947 5.36384 13.1735 5 12.6774 5Z" stroke="#212648"/>
<circle cx="12" cy="12" r="2.5" stroke="#212648"/>
<g opacity="0.4">
<path d="M36.6774 5H35.3225C34.8263 5 34.4051 5.36382 34.3331 5.85474L34.3069 6.03278C34.121 7.29884 32.8105 8.06708 31.615 7.61076L31.3282 7.50133C30.8735 7.32778 30.3599 7.50679 30.1116 7.92536L29.4502 9.04015C29.193 9.47375 29.2988 10.031 29.697 10.3402L29.8066 10.4253C30.843 11.23 30.8368 12.7979 29.7941 13.5944L29.7068 13.661C29.3038 13.9689 29.1951 14.5298 29.4538 14.966L30.1116 16.0747C30.3599 16.4933 30.8735 16.6723 31.3282 16.4987L31.615 16.3893C32.8105 15.9329 34.1211 16.7012 34.307 17.9673L34.3331 18.1452C34.4052 18.6362 34.8263 19 35.3225 19H36.6845C37.1776 19 37.597 18.6406 37.6726 18.1533L37.7049 17.9453C37.9011 16.6811 39.2173 15.9236 40.409 16.389L40.6679 16.4902C41.124 16.6683 41.642 16.4901 41.8918 16.069L42.5498 14.9599C42.807 14.5263 42.7012 13.969 42.303 13.6598L42.1934 13.5747C41.157 12.77 41.1632 11.2022 42.2059 10.4057L42.2932 10.339C42.6962 10.0311 42.8049 9.47028 42.5462 9.03409L41.8884 7.92534C41.6401 7.50678 41.1265 7.32777 40.6718 7.50131L40.3848 7.61082C39.1893 8.06711 37.8787 7.29883 37.6929 6.03276L37.6668 5.85476C37.5947 5.36384 37.1735 5 36.6774 5Z" stroke="#212648"/>
<circle cx="36" cy="12" r="2.5" stroke="#212648"/>
</g>
</svg>
