<svg width="48" height="24" viewBox="0 0 48 24" fill="none" xmlns="http://www.w3.org/2000/svg">
<path fill-rule="evenodd" clip-rule="evenodd" d="M12 10.5C12 10.7761 11.7761 11 11.5 11H8.5C8.22386 11 8 10.7761 8 10.5V10.5C8 10.2239 8.22386 10 8.5 10H11.5C11.7761 10 12 10.2239 12 10.5V10.5Z" fill="#212648"/>
<path fill-rule="evenodd" clip-rule="evenodd" d="M15 8.5C15 8.77614 14.7761 9 14.5 9H8.5C8.22386 9 8 8.77614 8 8.5V8.5C8 8.22386 8.22386 8 8.5 8H14.5C14.7761 8 15 8.22386 15 8.5V8.5Z" fill="#212648"/>
<path fill-rule="evenodd" clip-rule="evenodd" d="M15 12.5C15 12.7761 14.7761 13 14.5 13H8.5C8.22386 13 8 12.7761 8 12.5V12.5C8 12.2239 8.22386 12 8.5 12H14.5C14.7761 12 15 12.2239 15 12.5V12.5Z" fill="#212648"/>
<path fill-rule="evenodd" clip-rule="evenodd" d="M12 14.5C12 14.7761 11.7761 15 11.5 15H8.5C8.22386 15 8 14.7761 8 14.5V14.5C8 14.2239 8.22386 14 8.5 14H11.5C11.7761 14 12 14.2239 12 14.5V14.5Z" fill="#212648"/>
<path fill-rule="evenodd" clip-rule="evenodd" d="M5 5H6V6H5V5ZM7 5H8V6H7V5ZM9 5H10V6H9V5ZM11 5H12V6H11V5ZM13 5H14V6H13V5ZM15 5H16V6H15V5ZM17 5H18V6H17V5ZM19 5H20V6L19 6V5ZM5 8V7H6V8H5ZM20 7V8H19V7H20ZM5 10V9H6V10H5ZM20 9V10H19V9H20ZM5 12V11H6V12H5ZM20 11V12H19V11H20ZM5 14V13H6V14H5ZM20 13V14H19V13H20ZM5 16V15H6V16H5ZM20 15V16H19V15H20ZM5 18V17H6V18H5ZM20 17V18H19V17H20ZM5 19H6V20H5V19ZM8 20H7V19H8V20ZM10 20H9V19H10V20ZM12 20H11V19H12V20ZM14 20H13V19H14V20ZM16 20H15V19H16V20ZM18 20H17V19H18V20ZM19 20V19H20V20H19Z" fill="#212648"/>
<g opacity="0.4">
<path fill-rule="evenodd" clip-rule="evenodd" d="M36 10.5C36 10.7761 35.7761 11 35.5 11H32.5C32.2239 11 32 10.7761 32 10.5V10.5C32 10.2239 32.2239 10 32.5 10H35.5C35.7761 10 36 10.2239 36 10.5V10.5Z" fill="#212648"/>
<path fill-rule="evenodd" clip-rule="evenodd" d="M39 8.5C39 8.77614 38.7761 9 38.5 9H32.5C32.2239 9 32 8.77614 32 8.5V8.5C32 8.22386 32.2239 8 32.5 8H38.5C38.7761 8 39 8.22386 39 8.5V8.5Z" fill="#212648"/>
<path fill-rule="evenodd" clip-rule="evenodd" d="M39 12.5C39 12.7761 38.7761 13 38.5 13H32.5C32.2239 13 32 12.7761 32 12.5V12.5C32 12.2239 32.2239 12 32.5 12H38.5C38.7761 12 39 12.2239 39 12.5V12.5Z" fill="#212648"/>
<path fill-rule="evenodd" clip-rule="evenodd" d="M36 14.5C36 14.7761 35.7761 15 35.5 15H32.5C32.2239 15 32 14.7761 32 14.5V14.5C32 14.2239 32.2239 14 32.5 14H35.5C35.7761 14 36 14.2239 36 14.5V14.5Z" fill="#212648"/>
<path fill-rule="evenodd" clip-rule="evenodd" d="M29 5H30V6H29V5ZM31 5H32V6H31V5ZM33 5H34V6H33V5ZM35 5H36V6H35V5ZM37 5H38V6H37V5ZM39 5H40V6H39V5ZM41 5H42V6H41V5ZM43 5H44V6L43 6V5ZM29 8V7H30V8H29ZM44 7V8H43V7H44ZM29 10V9H30V10H29ZM44 9V10H43V9H44ZM29 12V11H30V12H29ZM44 11V12H43V11H44ZM29 14V13H30V14H29ZM44 13V14H43V13H44ZM29 16V15H30V16H29ZM44 15V16H43V15H44ZM29 18V17H30V18H29ZM44 17V18H43V17H44ZM29 19H30V20H29V19ZM32 20H31V19H32V20ZM34 20H33V19H34V20ZM36 20H35V19H36V20ZM38 20H37V19H38V20ZM40 20H39V19H40V20ZM42 20H41V19H42V20ZM43 20V19H44V20H43Z" fill="#212648"/>
</g>
</svg>
