<svg width="16" height="16" viewBox="0 0 16 16" fill="none" xmlns="http://www.w3.org/2000/svg">
<path d="M2.5 1.5H11.5C12.0523 1.5 12.5 1.94772 12.5 2.5V8V13.5C12.5 14.0523 12.0523 14.5 11.5 14.5H2.5C1.94772 14.5 1.5 14.0523 1.5 13.5V2.5C1.5 1.94772 1.94771 1.5 2.5 1.5Z" fill="white"/>
<path fill-rule="evenodd" clip-rule="evenodd" d="M1 2.5C1 1.67157 1.67157 1 2.5 1H13V2H2.5C2.22386 2 2 2.22386 2 2.5V13.5C2 13.7761 2.22386 14 2.5 14H11.5C11.7761 14 12 13.7761 12 13.5V8H13V13.5C13 14.3284 12.3284 15 11.5 15H2.5C1.67157 15 1 14.3284 1 13.5V2.5Z" fill="#5C6182"/>
<rect x="3" y="6" width="5" height="1" rx="0.5" fill="#F2994A"/>
<rect x="3" y="8" width="3" height="1" rx="0.5" fill="#F2994A"/>
<path d="M7.74779 12.1203L5.31641 12.9307C5.16006 12.9828 5.01131 12.8341 5.06343 12.6777L5.87389 10.2464L12.1202 4L13.9941 5.87391L7.74779 12.1203Z" fill="#4864FF"/>
</svg>
