<svg width="48" height="24" viewBox="0 0 48 24" fill="none" xmlns="http://www.w3.org/2000/svg">
<rect x="9" y="10" width="6" height="1" rx="0.5" fill="white"/>
<rect x="9" y="12" width="4" height="1" rx="0.5" fill="white"/>
<path d="M6 6.5H18C18.2761 6.5 18.5 6.72386 18.5 7V16C18.5 16.2761 18.2761 16.5 18 16.5H8.30278C8.00664 16.5 7.71713 16.5877 7.47073 16.7519L6.27735 17.5475C5.94507 17.769 5.5 17.5308 5.5 17.1315V17V7C5.5 6.72386 5.72386 6.5 6 6.5Z" stroke="white"/>
<circle cx="17" cy="7" r="3" fill="#FF5100"/>
<g opacity="0.4">
<rect x="33" y="10" width="6" height="1" rx="0.5" fill="white"/>
<rect x="33" y="12" width="4" height="1" rx="0.5" fill="white"/>
<path d="M30 6.5H42C42.2761 6.5 42.5 6.72386 42.5 7V16C42.5 16.2761 42.2761 16.5 42 16.5H32.3028C32.0066 16.5 31.7171 16.5877 31.4707 16.7519L30.2773 17.5475C29.9451 17.769 29.5 17.5308 29.5 17.1315V17V7C29.5 6.72386 29.7239 6.5 30 6.5Z" stroke="white"/>
<circle cx="41" cy="7" r="3" fill="#FF5100"/>
</g>
</svg>
