<svg width="32" height="16" viewBox="0 0 32 16" fill="none" xmlns="http://www.w3.org/2000/svg">
<path d="M5 8H8M11 8H8M8 8V5V11" stroke="#212648" stroke-linecap="round" stroke-linejoin="round"/>
<path fill-rule="evenodd" clip-rule="evenodd" d="M8 15C11.866 15 15 11.866 15 8C15 4.13401 11.866 1 8 1C4.13401 1 1 4.13401 1 8C1 11.866 4.13401 15 8 15ZM8 16C12.4183 16 16 12.4183 16 8C16 3.58172 12.4183 0 8 0C3.58172 0 0 3.58172 0 8C0 12.4183 3.58172 16 8 16Z" fill="#212648"/>
<path fill-rule="evenodd" clip-rule="evenodd" d="M13.1464 13.1464C13.3417 12.9512 13.6583 12.9512 13.8536 13.1464L15.8536 15.1464C16.0488 15.3417 16.0488 15.6583 15.8536 15.8536C15.6583 16.0488 15.3417 16.0488 15.1464 15.8536L13.1464 13.8536C12.9512 13.6583 12.9512 13.3417 13.1464 13.1464Z" fill="#212648"/>
<g opacity="0.4">
<path d="M21 8H24M27 8H24M24 8V5V11" stroke="#212648" stroke-linecap="round" stroke-linejoin="round"/>
<path fill-rule="evenodd" clip-rule="evenodd" d="M24 15C27.866 15 31 11.866 31 8C31 4.13401 27.866 1 24 1C20.134 1 17 4.13401 17 8C17 11.866 20.134 15 24 15ZM24 16C28.4183 16 32 12.4183 32 8C32 3.58172 28.4183 0 24 0C19.5817 0 16 3.58172 16 8C16 12.4183 19.5817 16 24 16Z" fill="#212648"/>
<path fill-rule="evenodd" clip-rule="evenodd" d="M29.1464 13.1464C29.3417 12.9512 29.6583 12.9512 29.8536 13.1464L31.8536 15.1464C32.0488 15.3417 32.0488 15.6583 31.8536 15.8536C31.6583 16.0488 31.3417 16.0488 31.1464 15.8536L29.1464 13.8536C28.9512 13.6583 28.9512 13.3417 29.1464 13.1464Z" fill="#212648"/>
</g>
</svg>
