<svg width="20" height="20" viewBox="0 0 20 20" fill="none" xmlns="http://www.w3.org/2000/svg">
<circle cx="10" cy="10" r="9" fill="#FD5962" stroke="white" stroke-width="2"/>
<path d="M7.95068 14V6.29785H10.3945C11.1393 6.29785 11.7284 6.46077 12.1616 6.78662C12.5985 7.11247 12.8169 7.53678 12.8169 8.05957C12.8169 8.49642 12.6934 8.87598 12.4463 9.19824C12.1992 9.52051 11.8573 9.74967 11.4204 9.88574V9.90723C11.9504 9.9681 12.3729 10.165 12.688 10.498C13.0067 10.8275 13.166 11.2572 13.166 11.7871C13.166 12.446 12.9064 12.9795 12.3872 13.3877C11.868 13.7959 11.2127 14 10.4214 14H7.95068ZM9.22363 7.32373V9.51514H10.0508C10.4948 9.51514 10.8421 9.4113 11.0928 9.20361C11.347 8.99235 11.4741 8.69515 11.4741 8.31201C11.4741 7.65316 11.0337 7.32373 10.1528 7.32373H9.22363ZM9.22363 10.541V12.9795H10.314C10.7902 12.9795 11.1572 12.8703 11.415 12.6519C11.6764 12.4299 11.8071 12.1255 11.8071 11.7388C11.8071 10.9403 11.2539 10.541 10.1475 10.541H9.22363Z" fill="white"/>
</svg>
