<svg width="255" height="24" viewBox="0 0 255 24" fill="none" xmlns="http://www.w3.org/2000/svg">
<path d="M51 0H12C5.37258 0 0 5.37258 0 12C0 18.6274 5.37258 24 12 24H51C57.6274 24 63 18.6274 63 12C63 5.37258 57.6274 0 51 0Z" fill="#4864FF"/>
<path d="M115 0H76C69.3726 0 64 5.37258 64 12C64 18.6274 69.3726 24 76 24H115C121.627 24 127 18.6274 127 12C127 5.37258 121.627 0 115 0Z" fill="#6A81FF"/>
<path d="M179 0H140C133.373 0 128 5.37258 128 12C128 18.6274 133.373 24 140 24H179C185.627 24 191 18.6274 191 12C191 5.37258 185.627 0 179 0Z" fill="#142FCC"/>
<path d="M243 0H204C197.373 0 192 5.37258 192 12C192 18.6274 197.373 24 204 24H243C249.627 24 255 18.6274 255 12C255 5.37258 249.627 0 243 0Z" fill="#212648" fill-opacity="0.3"/>
</svg>
