<svg width="48" height="24" viewBox="0 0 48 24" fill="none" xmlns="http://www.w3.org/2000/svg">
<path d="M16 5V6H19V9H20V5H16Z" fill="#6A52FC"/>
<path d="M16 19V18H19V15H20V19H16Z" fill="#6A52FC"/>
<path d="M9 5L9 6L6 6L6 9L5 9L5 5L9 5Z" fill="#6A52FC"/>
<path d="M9 19L9 18L6 18L6 15L5 15L5 19L9 19Z" fill="#6A52FC"/>
<rect x="11" y="8" width="6" height="3" fill="#6A52FC"/>
<rect x="8" y="9" width="2" height="1" fill="#6A52FC"/>
<rect x="11" y="13" width="6" height="3" fill="#6A52FC"/>
<rect x="8" y="14" width="2" height="1" fill="#6A52FC"/>
<g opacity="0.4">
<path d="M40 5V6H43V9H44V5H40Z" fill="#6A52FC"/>
<path d="M40 19V18H43V15H44V19H40Z" fill="#6A52FC"/>
<path d="M33 5L33 6L30 6L30 9L29 9L29 5L33 5Z" fill="#6A52FC"/>
<path d="M33 19L33 18L30 18L30 15L29 15L29 19L33 19Z" fill="#6A52FC"/>
<rect x="35" y="8" width="6" height="3" fill="#6A52FC"/>
<rect x="32" y="9" width="2" height="1" fill="#6A52FC"/>
<rect x="35" y="13" width="6" height="3" fill="#6A52FC"/>
<rect x="32" y="14" width="2" height="1" fill="#6A52FC"/>
</g>
</svg>
