<svg width="48" height="24" viewBox="0 0 48 24" fill="none" xmlns="http://www.w3.org/2000/svg">
<rect x="2.5" y="2.5" width="19" height="19" stroke="#6A52FC"/>
<rect x="5.5" y="12.5" width="13" height="6" fill="url(#paint0_linear)" stroke="#6A52FC"/>
<rect x="1.5" y="22.5" width="2" height="2" transform="rotate(-90 1.5 22.5)" fill="white" stroke="#6A52FC"/>
<rect x="20.5" y="3.5" width="2" height="2" transform="rotate(-90 20.5 3.5)" fill="white" stroke="#6A52FC"/>
<rect x="20.5" y="22.5" width="2" height="2" transform="rotate(-90 20.5 22.5)" fill="white" stroke="#6A52FC"/>
<rect x="1.5" y="3.5" width="2" height="2" transform="rotate(-90 1.5 3.5)" fill="white" stroke="#6A52FC"/>
<g opacity="0.4">
<rect x="26.5" y="2.5" width="19" height="19" stroke="#6A52FC"/>
<rect x="29.5" y="12.5" width="13" height="6" fill="url(#paint1_linear)" stroke="#6A52FC"/>
<rect x="25.5" y="22.5" width="2" height="2" transform="rotate(-90 25.5 22.5)" fill="white" stroke="#6A52FC"/>
<rect x="44.5" y="3.5" width="2" height="2" transform="rotate(-90 44.5 3.5)" fill="white" stroke="#6A52FC"/>
<rect x="44.5" y="22.5" width="2" height="2" transform="rotate(-90 44.5 22.5)" fill="white" stroke="#6A52FC"/>
<rect x="25.5" y="3.5" width="2" height="2" transform="rotate(-90 25.5 3.5)" fill="white" stroke="#6A52FC"/>
</g>
<defs>
<linearGradient id="paint0_linear" x1="12" y1="12" x2="12" y2="19" gradientUnits="userSpaceOnUse">
<stop stop-color="#8CA5FF"/>
<stop offset="1" stop-color="#7B72FB"/>
</linearGradient>
<linearGradient id="paint1_linear" x1="36" y1="12" x2="36" y2="19" gradientUnits="userSpaceOnUse">
<stop stop-color="#8CA5FF"/>
<stop offset="1" stop-color="#7B72FB"/>
</linearGradient>
</defs>
</svg>
