<svg width="48" height="24" viewBox="0 0 48 24" fill="none" xmlns="http://www.w3.org/2000/svg">
<rect x="4.5" y="4.5" width="6" height="6" fill="url(#paint0_linear)" stroke="#6A52FC"/>
<rect x="4.5" y="13.5" width="6" height="6" fill="url(#paint1_linear)" stroke="#6A52FC"/>
<rect x="13.5" y="4.5" width="6" height="6" fill="url(#paint2_linear)" stroke="#6A52FC"/>
<rect x="13.5" y="13.5" width="6" height="6" fill="url(#paint3_linear)" stroke="#6A52FC"/>
<rect x="2.5" y="2.5" width="19" height="19" stroke="#6A52FC"/>
<g opacity="0.4">
<rect x="28.5" y="4.5" width="6" height="6" fill="url(#paint4_linear)" stroke="#6A52FC"/>
<rect x="28.5" y="13.5" width="6" height="6" fill="url(#paint5_linear)" stroke="#6A52FC"/>
<rect x="37.5" y="4.5" width="6" height="6" fill="url(#paint6_linear)" stroke="#6A52FC"/>
<rect x="37.5" y="13.5" width="6" height="6" fill="url(#paint7_linear)" stroke="#6A52FC"/>
<rect x="26.5" y="2.5" width="19" height="19" stroke="#6A52FC"/>
</g>
<defs>
<linearGradient id="paint0_linear" x1="7.5" y1="5.47974" x2="7.5" y2="9.61539" gradientUnits="userSpaceOnUse">
<stop stop-color="#8CA5FF"/>
<stop offset="1" stop-color="#7B72FB"/>
</linearGradient>
<linearGradient id="paint1_linear" x1="7.5" y1="14.4797" x2="7.5" y2="18.6154" gradientUnits="userSpaceOnUse">
<stop stop-color="#8CA5FF"/>
<stop offset="1" stop-color="#7B72FB"/>
</linearGradient>
<linearGradient id="paint2_linear" x1="16.5" y1="5.47974" x2="16.5" y2="9.61539" gradientUnits="userSpaceOnUse">
<stop stop-color="#8CA5FF"/>
<stop offset="1" stop-color="#7B72FB"/>
</linearGradient>
<linearGradient id="paint3_linear" x1="16.5" y1="14.4797" x2="16.5" y2="18.6154" gradientUnits="userSpaceOnUse">
<stop stop-color="#8CA5FF"/>
<stop offset="1" stop-color="#7B72FB"/>
</linearGradient>
<linearGradient id="paint4_linear" x1="31.5" y1="5.47974" x2="31.5" y2="9.61539" gradientUnits="userSpaceOnUse">
<stop stop-color="#8CA5FF"/>
<stop offset="1" stop-color="#7B72FB"/>
</linearGradient>
<linearGradient id="paint5_linear" x1="31.5" y1="14.4797" x2="31.5" y2="18.6154" gradientUnits="userSpaceOnUse">
<stop stop-color="#8CA5FF"/>
<stop offset="1" stop-color="#7B72FB"/>
</linearGradient>
<linearGradient id="paint6_linear" x1="40.5" y1="5.47974" x2="40.5" y2="9.61539" gradientUnits="userSpaceOnUse">
<stop stop-color="#8CA5FF"/>
<stop offset="1" stop-color="#7B72FB"/>
</linearGradient>
<linearGradient id="paint7_linear" x1="40.5" y1="14.4797" x2="40.5" y2="18.6154" gradientUnits="userSpaceOnUse">
<stop stop-color="#8CA5FF"/>
<stop offset="1" stop-color="#7B72FB"/>
</linearGradient>
</defs>
</svg>
