<svg width="72" height="18" viewBox="0 0 72 18" fill="none" xmlns="http://www.w3.org/2000/svg">
<path d="M1 9C1 4.58172 4.58172 1 9 1V1C13.4183 1 17 4.58172 17 9V9C17 13.4183 13.4183 17 9 17V17C4.58172 17 1 13.4183 1 9V9Z" fill="white"/>
<path d="M9 16C5.13401 16 2 12.866 2 9H0C0 13.9706 4.02944 18 9 18V16ZM16 9C16 12.866 12.866 16 9 16V18C13.9706 18 18 13.9706 18 9H16ZM9 2C12.866 2 16 5.13401 16 9H18C18 4.02944 13.9706 0 9 0V2ZM9 0C4.02944 0 0 4.02944 0 9H2C2 5.13401 5.13401 2 9 2V0Z" fill="black" fill-opacity="0.24"/>
<path d="M19 9C19 4.58172 22.5817 1 27 1V1C31.4183 1 35 4.58172 35 9V9C35 13.4183 31.4183 17 27 17V17C22.5817 17 19 13.4183 19 9V9Z" fill="white"/>
<path d="M27 16C23.134 16 20 12.866 20 9H18C18 13.9706 22.0294 18 27 18V16ZM34 9C34 12.866 30.866 16 27 16V18C31.9706 18 36 13.9706 36 9H34ZM27 2C30.866 2 34 5.13401 34 9H36C36 4.02944 31.9706 0 27 0V2ZM27 0C22.0294 0 18 4.02944 18 9H20C20 5.13401 23.134 2 27 2V0Z" fill="black" fill-opacity="0.24"/>
<path d="M37 9C37 4.58172 40.5817 1 45 1V1C49.4183 1 53 4.58172 53 9V9C53 13.4183 49.4183 17 45 17V17C40.5817 17 37 13.4183 37 9V9Z" fill="black" fill-opacity="0.08"/>
<path d="M45 16C41.134 16 38 12.866 38 9H36C36 13.9706 40.0294 18 45 18V16ZM52 9C52 12.866 48.866 16 45 16V18C49.9706 18 54 13.9706 54 9H52ZM45 2C48.866 2 52 5.13401 52 9H54C54 4.02944 49.9706 0 45 0V2ZM45 0C40.0294 0 36 4.02944 36 9H38C38 5.13401 41.134 2 45 2V0Z" fill="black" fill-opacity="0.24"/>
<path d="M55 9C55 4.58172 58.5817 1 63 1V1C67.4183 1 71 4.58172 71 9V9C71 13.4183 67.4183 17 63 17V17C58.5817 17 55 13.4183 55 9V9Z" fill="black" fill-opacity="0.08"/>
<path d="M63 16C59.134 16 56 12.866 56 9H54C54 13.9706 58.0294 18 63 18V16ZM70 9C70 12.866 66.866 16 63 16V18C67.9706 18 72 13.9706 72 9H70ZM63 2C66.866 2 70 5.13401 70 9H72C72 4.02944 67.9706 0 63 0V2ZM63 0C58.0294 0 54 4.02944 54 9H56C56 5.13401 59.134 2 63 2V0Z" fill="black" fill-opacity="0.08"/>
</svg>
