<svg width="72" height="18" viewBox="0 0 72 18" fill="none" xmlns="http://www.w3.org/2000/svg">
<path d="M1 9C1 4.58172 4.58172 1 9 1V1C13.4183 1 17 4.58172 17 9V9C17 13.4183 13.4183 17 9 17V17C4.58172 17 1 13.4183 1 9V9Z" fill="#007BFF"/>
<path d="M12 9C12 10.6569 10.6569 12 9 12C7.34315 12 6 10.6569 6 9C6 7.34315 7.34315 6 9 6C10.6569 6 12 7.34315 12 9Z" fill="white"/>
<path d="M19 9C19 4.58172 22.5817 1 27 1V1C31.4183 1 35 4.58172 35 9V9C35 13.4183 31.4183 17 27 17V17C22.5817 17 19 13.4183 19 9V9Z" fill="#006BDE"/>
<path d="M30 9C30 10.6569 28.6569 12 27 12C25.3431 12 24 10.6569 24 9C24 7.34315 25.3431 6 27 6C28.6569 6 30 7.34315 30 9Z" fill="white"/>
<path d="M37 9C37 4.58172 40.5817 1 45 1V1C49.4183 1 53 4.58172 53 9V9C53 13.4183 49.4183 17 45 17V17C40.5817 17 37 13.4183 37 9V9Z" fill="#005CBE"/>
<path d="M48 9C48 10.6569 46.6569 12 45 12C43.3431 12 42 10.6569 42 9C42 7.34315 43.3431 6 45 6C46.6569 6 48 7.34315 48 9Z" fill="white" fill-opacity="0.72"/>
<path d="M55 9C55 4.58172 58.5817 1 63 1V1C67.4183 1 71 4.58172 71 9V9C71 13.4183 67.4183 17 63 17V17C58.5817 17 55 13.4183 55 9V9Z" fill="black" fill-opacity="0.08"/>
<path d="M66 9C66 10.6569 64.6569 12 63 12C61.3431 12 60 10.6569 60 9C60 7.34315 61.3431 6 63 6C64.6569 6 66 7.34315 66 9Z" fill="black" fill-opacity="0.24"/>
</svg>
