<svg width="16" height="16" viewBox="0 0 16 16" fill="none" xmlns="http://www.w3.org/2000/svg">
<path d="M2.5 6V6.5H3H6H6.5V6V3V2.79289L6.35355 2.64645L5.35355 1.64645L5.20711 1.5H5H3H2.5V2V6Z" stroke="#212648"/>
<path d="M5 3V2L6 3H5Z" fill="#212648"/>
<path d="M9.5 6V6.5H10H13H13.5V6V3V2.79289L13.3536 2.64645L12.3536 1.64645L12.2071 1.5H12H10H9.5V2V6Z" stroke="#212648"/>
<path d="M12 3V2L13 3H12Z" fill="#212648"/>
<path d="M2.5 14V14.5H3H6H6.5V14V11V10.7929L6.35355 10.6464L5.35355 9.64645L5.20711 9.5H5H3H2.5V10V14Z" stroke="#212648"/>
<path d="M5 11V10L6 11H5Z" fill="#212648"/>
<path d="M9.5 14V14.5H10H13H13.5V14V11V10.7929L13.3536 10.6464L12.3536 9.64645L12.2071 9.5H12H10H9.5V10V14Z" stroke="#212648"/>
<path d="M12 11V10L13 11H12Z" fill="#212648"/>
</svg>
