<svg width="16" height="16" viewBox="0 0 16 16" fill="none" xmlns="http://www.w3.org/2000/svg">
<path fill-rule="evenodd" clip-rule="evenodd" d="M3.5 7H2V6H3.5C4.88071 6 6 7.11929 6 8.5V10.8846C6 11.5006 5.50063 12 4.88462 12H3C1.89543 12 1 11.1046 1 10C1 8.89543 1.89543 8 3 8H4.91465C4.70873 7.4174 4.15311 7 3.5 7ZM5 9H3C2.44772 9 2 9.44772 2 10C2 10.5523 2.44772 11 3 11H4.88462C4.94834 11 5 10.9483 5 10.8846V9Z" fill="#5C6182"/>
<path fill-rule="evenodd" clip-rule="evenodd" d="M10 3H11V6H12C13.6569 6 15 7.34315 15 9C15 10.6569 13.6569 12 12 12H11.3C10.582 12 10 11.418 10 10.7V3ZM11 7V10.7C11 10.8657 11.1343 11 11.3 11H12C13.1046 11 14 10.1046 14 9C14 7.89543 13.1046 7 12 7H11Z" fill="#5C6182"/>
<path fill-rule="evenodd" clip-rule="evenodd" d="M7.99999 10.719L10.8841 14.1799L10.1159 14.8201L7.99999 12.281L5.8841 14.8201L5.11588 14.1799L7.99999 10.719Z" fill="#4864FF"/>
</svg>
