<svg width="72" height="24" viewBox="0 0 72 24" fill="none" xmlns="http://www.w3.org/2000/svg">
<rect x="2" y="3" width="5" height="1" fill="#212648"/>
<rect x="2" y="20" width="5" height="1" fill="#212648"/>
<rect x="4" y="3" width="1" height="18" fill="#212648"/>
<path d="M9.51219 4.51671L8.63435 3.90243L8.72741 4.96981L9.93993 18.8762L10.0409 20.0342L10.8121 19.1645L13.8906 15.6929L16.9169 20.9347L17.1668 21.3678L17.5999 21.1178L19.0605 20.2745L19.4935 20.0245L19.2435 19.5915L16.2172 14.3497L20.7628 13.4195L21.9016 13.1864L20.9492 12.52L9.51219 4.51671Z" stroke="#212648"/>
<rect x="26" y="3" width="5" height="1" fill="#4864FF"/>
<rect x="26" y="20" width="5" height="1" fill="#4864FF"/>
<rect x="28" y="3" width="1" height="18" fill="#4864FF"/>
<path d="M33.2255 4.92637L34.438 18.8327L37.9768 14.8421L41.3499 20.6848L42.8105 19.8415L39.4373 13.9989L44.6625 12.9296L33.2255 4.92637Z" fill="#4864FF" stroke="#4864FF"/>
<g opacity="0.4">
<rect x="50" y="3" width="5" height="1" fill="#212648"/>
<rect x="50" y="20" width="5" height="1" fill="#212648"/>
<rect x="52" y="3" width="1" height="18" fill="#212648"/>
<path d="M57.5122 4.51671L56.6343 3.90243L56.7274 4.96981L57.9399 18.8762L58.0409 20.0342L58.8121 19.1645L61.8906 15.6929L64.9169 20.9347L65.1668 21.3678L65.5999 21.1178L67.0605 20.2745L67.4935 20.0245L67.2435 19.5915L64.2172 14.3497L68.7628 13.4195L69.9016 13.1864L68.9492 12.52L57.5122 4.51671Z" stroke="#212648"/>
</g>
</svg>
