<svg width="48" height="24" viewBox="0 0 48 24" fill="none" xmlns="http://www.w3.org/2000/svg">
<g clip-path="url(#clip0)">
<path d="M12.2678 10.6465L11.5607 9.93935C10.3891 8.76778 8.48965 8.76778 7.31808 9.93935L5.19676 12.0607C4.02519 13.2322 4.02519 15.1317 5.19676 16.3033V16.3033C6.36833 17.4749 8.26783 17.4749 9.4394 16.3033L10.8536 14.8891" stroke="#6A52FC" stroke-width="2"/>
<path d="M8.73223 11.3536L9.43934 12.0607C10.6109 13.2322 12.5104 13.2322 13.682 12.0607L15.8033 9.93934C16.9749 8.76777 16.9749 6.86827 15.8033 5.6967V5.6967C14.6317 4.52513 12.7322 4.52513 11.5607 5.6967L10.1464 7.11092" stroke="#6A52FC" stroke-width="2"/>
<path d="M13.5 19V19.5H14H19H19.5V19V16V15.5H19H17.2071L16.3536 14.6464L16.2071 14.5H16H14H13.5V15V19Z" fill="url(#paint0_linear)" stroke="#6A52FC"/>
</g>
<g opacity="0.4">
<g clip-path="url(#clip1)">
<path d="M36.2678 10.6465L35.5607 9.93935C34.3891 8.76778 32.4897 8.76778 31.3181 9.93935L29.1968 12.0607C28.0252 13.2322 28.0252 15.1317 29.1968 16.3033V16.3033C30.3683 17.4749 32.2678 17.4749 33.4394 16.3033L34.8536 14.8891" stroke="#6A52FC" stroke-width="2"/>
<path d="M32.7322 11.3536L33.4393 12.0607C34.6109 13.2322 36.5104 13.2322 37.682 12.0607L39.8033 9.93934C40.9749 8.76777 40.9749 6.86827 39.8033 5.6967V5.6967C38.6317 4.52513 36.7322 4.52513 35.5607 5.6967L34.1464 7.11092" stroke="#6A52FC" stroke-width="2"/>
<path d="M37.5 19V19.5H38H43H43.5V19V16V15.5H43H41.2071L40.3536 14.6464L40.2071 14.5H40H38H37.5V15V19Z" fill="url(#paint1_linear)" stroke="#6A52FC"/>
</g>
</g>
<defs>
<linearGradient id="paint0_linear" x1="16.9615" y1="12.8089" x2="16.9615" y2="21.3753" gradientUnits="userSpaceOnUse">
<stop stop-color="#8CA5FF"/>
<stop offset="1" stop-color="#7B72FB"/>
</linearGradient>
<linearGradient id="paint1_linear" x1="40.9615" y1="12.8089" x2="40.9615" y2="21.3753" gradientUnits="userSpaceOnUse">
<stop stop-color="#8CA5FF"/>
<stop offset="1" stop-color="#7B72FB"/>
</linearGradient>
<clipPath id="clip0">
<rect width="20" height="20" fill="white" transform="translate(2 2)"/>
</clipPath>
<clipPath id="clip1">
<rect width="20" height="20" fill="white" transform="translate(26 2)"/>
</clipPath>
</defs>
</svg>
