<svg width="248" height="160" viewBox="0 0 248 160" fill="none" xmlns="http://www.w3.org/2000/svg">
<path d="M115.535 25.382C116.665 26.147 115.055 29.0131 115.626 34.0145C130.075 34.9986 146.074 40.8611 152.41 49.2173C156.701 54.8771 146.078 101.698 133.382 104.707C120.686 107.717 94.9417 99.7302 92.0983 92.3574C86.7532 78.4979 97.8136 51.3184 102.33 42.6029C106.847 33.8873 114.404 24.617 115.535 25.382Z" fill="#A2D2FF"/>
<path d="M144.478 62.0176C144.703 60.4738 145.44 58.9179 145.902 57.9999" stroke="#45548B" stroke-width="2" stroke-linecap="round" stroke-linejoin="round"/>
<path d="M147.721 72.8801C147.025 72.4999 146.951 72.4457 146.025 71.9999" stroke="#45548B" stroke-width="2" stroke-linecap="round" stroke-linejoin="round"/>
<path d="M100.313 94.1854L114.694 94.8598C114.694 101.071 114.482 131.435 114.694 133.858L99.2812 133.858C97.846 133.858 97.061 133.159 97.652 132.014C98.465 130.44 100.044 128.227 102.149 126.889C102.149 122.298 101.519 104.854 100.313 94.1854Z" fill="#A2D2FF"/>
<path d="M131.358 97.9679L114 94.8599C114 101.071 114.212 131.435 114 133.858L130.835 133.858C132.908 133.858 133.966 132.849 133.009 131.254C132.127 129.785 130.721 128.023 128.937 126.889C128.937 110.516 132.194 103.7 131.358 97.9679Z" fill="#A2D2FF"/>
<path d="M112 100.5V132.5" stroke="#45548B" stroke-width="2" stroke-linecap="round"/>
<path d="M90.2372 35.4799C100.675 30.8413 104.227 38.1321 106.351 35.0617C108.463 32.0076 99.7632 24.6559 88.4064 30.9587C88.7126 32.2629 89.5076 34.9931 90.2372 35.4799Z" fill="#A1D2FF"/>
<path d="M72.6513 57.7037C73.2961 62.1573 80.3595 67.5772 91.9315 70.8316C94.0215 66.6557 99.0213 54.8968 97.042 55.1834C94.5677 55.5415 88.8531 54.5331 87.1537 53.2635C86.2474 52.5863 86.9001 45.933 89.8462 43.3697C98.8975 45.6775 109.522 27.9473 90.484 26.3523C82.9751 26.0121 80.1355 33.5743 80.2419 38.5732C78.2849 40.6153 72.0065 53.2502 72.6513 57.7037Z" fill="#A1D2FF"/>
<path d="M89.5001 28.0001C88.5001 28.0001 87.0001 29.0001 87.0002 30.0002" stroke="#45548B" stroke-width="2" stroke-linecap="round"/>
<path d="M94.0001 28.9999C92.0001 28.9999 91.0001 29.9998 90.5001 30.9999" stroke="#45548B" stroke-width="2" stroke-linecap="round"/>
<path d="M100.673 35.1376C99.286 34.4804 97.8796 34.4821 96.5168 34.8939M94.6838 35.6904C95.2818 35.3552 95.8948 35.0819 96.5168 34.8939M96.5168 34.8939L96.3503 37.7343" stroke="#45548B" stroke-width="2" stroke-linecap="round"/>
<path d="M159 108L157 113.098" stroke="#FFAE34" stroke-width="4"/>
<path d="M136.874 77.4314L136.941 77.3355C141.513 78.2877 148.453 80.1255 147 81.4999C144.314 84.0406 142.507 90.0378 145.482 92.3297C147 93.4999 152 96.9104 155.263 94.6356C165.5 87.4998 171 102.5 164.158 107.211C158.24 111.285 143.895 108.466 135.448 99.9829C127.03 91.5299 130.604 86.4114 136.874 77.4314Z" fill="#A1D2FF"/>
<path d="M161.5 97.9996C160.5 96.9996 159.5 96.4996 158.398 96.4826M158.398 96.4826C158.398 96.4826 159.5 94.9996 161.5 94.9997M158.398 96.4826C158.398 96.4826 158 96.7832 157.5 98.2832" stroke="#45548B" stroke-width="2" stroke-linecap="round"/>
<path d="M166 99.9998C165.719 100.718 164.5 101.5 164 101.5" stroke="#45548B" stroke-width="2" stroke-linecap="round"/>
<path d="M166 103.5C165.5 104.5 164.5 105 163.5 105" stroke="#45548B" stroke-width="2" stroke-linecap="round"/>
<path d="M135.5 77.9999C133 80.9999 121 95.4999 143.5 106.5" stroke="#45548B" stroke-width="2" stroke-linecap="round"/>
<path d="M177.411 81.6729C175.134 87.5015 169.952 90.9233 165.837 89.3156C161.721 87.708 160.231 81.6796 162.508 75.851C164.785 70.0224 169.967 66.6006 174.082 68.2083C178.198 69.816 179.688 75.8443 177.411 81.6729Z" fill="#FFF1AA"/>
<path d="M165.837 89.3156C169.952 90.9233 175.134 87.5015 177.411 81.6729C179.688 75.8443 178.198 69.816 174.082 68.2083C169.967 66.6006 164.785 70.0224 162.508 75.851C160.231 81.6796 161.721 87.708 165.837 89.3156ZM165.837 89.3156L162.5 97.4998" stroke="#FFAE34" stroke-width="4"/>
</svg>
