<svg width="48" height="24" viewBox="0 0 48 24" fill="none" xmlns="http://www.w3.org/2000/svg">
<g clip-path="url(#clip0)">
<path d="M13.4641 18.0981L20.2141 6.40674L13.2859 2.40674L6.53589 14.0981L9.70095 13.616L9.99999 16.0981L12.299 15.116L13.4641 18.0981Z" fill="#C4C4C4"/>
<path d="M13.4641 18.0981L20.2141 6.40674L13.2859 2.40674L6.53589 14.0981L9.70095 13.616L9.99999 16.0981L12.299 15.116L13.4641 18.0981Z" fill="url(#paint0_linear)"/>
<path d="M6.99999 21.2942L9.15469 20.2289L6.84529 18.8955L6.99999 21.2942Z" fill="#6A52FC"/>
<path d="M13.4641 18.0981L12.299 15.116L9.99999 16.0981L9.70095 13.616L6.53589 14.0981M13.4641 18.0981L19.9641 6.83975L13.0359 2.83975L6.53589 14.0981M13.4641 18.0981L9.15469 20.2289M6.53589 14.0981L6.84529 18.8955M9.15469 20.2289L6.99999 21.2942L6.84529 18.8955M9.15469 20.2289L6.84529 18.8955" stroke="#6A52FC"/>
</g>
<g opacity="0.4" clip-path="url(#clip1)">
<path d="M37.4641 18.0981L44.2141 6.40674L37.2859 2.40674L30.5359 14.0981L33.701 13.616L34 16.0981L36.299 15.116L37.4641 18.0981Z" fill="#C4C4C4"/>
<path d="M37.4641 18.0981L44.2141 6.40674L37.2859 2.40674L30.5359 14.0981L33.701 13.616L34 16.0981L36.299 15.116L37.4641 18.0981Z" fill="url(#paint1_linear)"/>
<path d="M31 21.2942L33.1547 20.2289L30.8453 18.8955L31 21.2942Z" fill="#6A52FC"/>
<path d="M37.4641 18.0981L36.299 15.116L34 16.0981L33.701 13.616L30.5359 14.0981M37.4641 18.0981L43.9641 6.83975L37.0359 2.83975L30.5359 14.0981M37.4641 18.0981L33.1547 20.2289M30.5359 14.0981L30.8453 18.8955M33.1547 20.2289L31 21.2942L30.8453 18.8955M33.1547 20.2289L30.8453 18.8955" stroke="#6A52FC"/>
</g>
<defs>
<linearGradient id="paint0_linear" x1="16.8338" y1="5.34032" x2="11.0317" y2="15.3899" gradientUnits="userSpaceOnUse">
<stop stop-color="#8CA5FF"/>
<stop offset="1" stop-color="#7B72FB"/>
</linearGradient>
<linearGradient id="paint1_linear" x1="40.8338" y1="5.34032" x2="35.0317" y2="15.3899" gradientUnits="userSpaceOnUse">
<stop stop-color="#8CA5FF"/>
<stop offset="1" stop-color="#7B72FB"/>
</linearGradient>
<clipPath id="clip0">
<rect width="24" height="24" fill="white"/>
</clipPath>
<clipPath id="clip1">
<rect width="24" height="24" fill="white" transform="translate(24)"/>
</clipPath>
</defs>
</svg>
