<svg width="212" height="54" viewBox="0 0 212 54" fill="none" xmlns="http://www.w3.org/2000/svg">
<g clip-path="url(#clip0)">
<rect y="18" width="212" height="36" rx="2" fill="url(#paint0_linear)"/>
<g opacity="0.6">
<path opacity="0.2" d="M75 29H70L74 36L70 43H75L79 36L75 29Z" fill="white"/>
<path opacity="0.2" d="M83 29H78L82 36L78 43H83L87 36L83 29Z" fill="white"/>
<path opacity="0.2" d="M91 29H86L90 36L86 43H91L95 36L91 29Z" fill="white"/>
</g>
<rect x="16" y="11" width="26" height="15" fill="url(#paint1_linear)"/>
<rect x="20" y="17" width="6" height="1" fill="#7AD5F0"/>
<rect x="20" y="19" width="11" height="1" fill="#7AD5F0"/>
<rect x="25" y="28" width="8" height="3" fill="url(#paint2_linear)"/>
<rect x="16" y="26" width="26" height="2" fill="#E5F9FF"/>
<rect x="22" y="31" width="14" height="2" fill="url(#paint3_linear)"/>
<rect x="29.085" y="38.6836" width="1" height="5" transform="rotate(-60 29.085 38.6836)" fill="white"/>
<rect x="25.585" y="41.1836" width="1" height="5" transform="rotate(-120 25.585 41.1836)" fill="white"/>
<rect x="29" y="34" width="1" height="5" fill="white"/>
<rect x="12" y="40" width="12" height="8" fill="url(#paint4_linear)"/>
<rect x="35" y="40" width="12" height="8" fill="url(#paint5_linear)"/>
<path d="M12 48H24L26 51H10L12 48Z" fill="url(#paint6_linear)"/>
<path d="M35 48H47L49 51H33L35 48Z" fill="url(#paint7_linear)"/>
<g opacity="0.7">
<circle opacity="0.1" cx="2" cy="52" r="30" fill="white"/>
<circle opacity="0.2" cx="2" cy="52" r="20" fill="white"/>
<circle opacity="0.3" cx="2" cy="52" r="12" fill="white"/>
<circle opacity="0.4" cx="2" cy="52" r="6" fill="white"/>
</g>
</g>
<defs>
<linearGradient id="paint0_linear" x1="-1.9744e-07" y1="36" x2="212" y2="36" gradientUnits="userSpaceOnUse">
<stop stop-color="#62E3FF"/>
<stop offset="1" stop-color="#6C38FF"/>
</linearGradient>
<linearGradient id="paint1_linear" x1="24.7908" y1="11" x2="26.469" y2="25.002" gradientUnits="userSpaceOnUse">
<stop stop-color="#8DE4FF"/>
<stop offset="1" stop-color="white"/>
</linearGradient>
<linearGradient id="paint2_linear" x1="25.4" y1="28.3" x2="27.23" y2="31.3192" gradientUnits="userSpaceOnUse">
<stop stop-color="#81DAFF"/>
<stop offset="1" stop-color="white"/>
</linearGradient>
<linearGradient id="paint3_linear" x1="26.7335" y1="31" x2="34.6317" y2="34.2571" gradientUnits="userSpaceOnUse">
<stop stop-color="#D3F2FF"/>
<stop offset="1" stop-color="white"/>
</linearGradient>
<linearGradient id="paint4_linear" x1="16.0573" y1="40" x2="17.0866" y2="47.4324" gradientUnits="userSpaceOnUse">
<stop stop-color="#8DE4FF"/>
<stop offset="1" stop-color="white"/>
</linearGradient>
<linearGradient id="paint5_linear" x1="39.0573" y1="40" x2="40.0866" y2="47.4324" gradientUnits="userSpaceOnUse">
<stop stop-color="#8DE4FF"/>
<stop offset="1" stop-color="white"/>
</linearGradient>
<linearGradient id="paint6_linear" x1="16.0573" y1="48" x2="17.0866" y2="55.4324" gradientUnits="userSpaceOnUse">
<stop stop-color="#8DE4FF"/>
<stop offset="1" stop-color="white"/>
</linearGradient>
<linearGradient id="paint7_linear" x1="39.0573" y1="48" x2="40.0866" y2="55.4324" gradientUnits="userSpaceOnUse">
<stop stop-color="#8DE4FF"/>
<stop offset="1" stop-color="white"/>
</linearGradient>
<clipPath id="clip0">
<rect width="212" height="54" fill="white"/>
</clipPath>
</defs>
</svg>
