<svg width="111" height="29" viewBox="0 0 111 29" fill="none" xmlns="http://www.w3.org/2000/svg">
<rect width="111" height="29" fill="white"/>
<rect width="15" height="29" fill="white"/>
<path d="M9.5 10.5L5.5 14.5L9.5 18.5" stroke="#666666" stroke-width="2"/>
<rect width="15" height="29" transform="translate(16)" fill="#008FBF"/>
<path d="M25.5 10.5L21.5 14.5L25.5 18.5" stroke="#61757C" stroke-width="2"/>
<rect width="15" height="29" transform="translate(32)" fill="#00688C"/>
<path d="M41.5 10.5L37.5 14.5L41.5 18.5" stroke="#2E4249" stroke-width="2"/>
<rect width="15" height="29" transform="translate(48)" fill="white"/>
<path d="M57.5 10.5L53.5 14.5L57.5 18.5" stroke="#D9D9D9" stroke-width="2"/>
<rect width="15" height="29" transform="matrix(-1 0 0 1 79 0)" fill="white"/>
<path d="M69.5 10.5L73.5 14.5L69.5 18.5" stroke="#808080" stroke-width="2"/>
<rect width="15" height="29" transform="matrix(-1 0 0 1 95 0)" fill="#008FBF"/>
<path d="M85.5 10.5L89.5 14.5L85.5 18.5" stroke="#61757C" stroke-width="2"/>
<rect width="15" height="29" transform="matrix(-1 0 0 1 111 0)" fill="#00688C"/>
<path d="M101.5 10.5L105.5 14.5L101.5 18.5" stroke="#2E4249" stroke-width="2"/>
</svg>
