<svg width="24" height="12" viewBox="0 0 24 12" fill="none" xmlns="http://www.w3.org/2000/svg">
<path d="M11.5 6C11.5 6.53701 11.0517 7.15779 10.019 7.67411C9.01631 8.17547 7.59606 8.5 6 8.5C4.40394 8.5 2.98369 8.17547 1.98097 7.67411C0.948332 7.15779 0.5 6.53701 0.5 6C0.5 5.46299 0.948332 4.84221 1.98097 4.32589C2.98369 3.82453 4.40394 3.5 6 3.5C7.59606 3.5 9.01631 3.82453 10.019 4.32589C11.0517 4.84221 11.5 5.46299 11.5 6Z" stroke="#666666"/>
<circle cx="6" cy="6" r="2.5" stroke="#666666"/>
<circle cx="6" cy="6" r="1" fill="#666666"/>
<path d="M23.5 6C23.5 6.53701 23.0517 7.15779 22.019 7.67411C21.0163 8.17547 19.5961 8.5 18 8.5C16.4039 8.5 14.9837 8.17547 13.981 7.67411C12.9483 7.15779 12.5 6.53701 12.5 6C12.5 5.46299 12.9483 4.84221 13.981 4.32589C14.9837 3.82453 16.4039 3.5 18 3.5C19.5961 3.5 21.0163 3.82453 22.019 4.32589C23.0517 4.84221 23.5 5.46299 23.5 6Z" stroke="#222222"/>
<circle cx="18" cy="6" r="2.5" stroke="#222222"/>
<circle cx="18" cy="6" r="1" fill="#222222"/>
</svg>
