<svg width="512" height="40" viewBox="0 0 512 40" fill="none" xmlns="http://www.w3.org/2000/svg">
<path fill-rule="evenodd" clip-rule="evenodd" d="M20 2C10.0589 2 2 10.0589 2 20C2 29.9411 10.0589 38 20 38H108C117.941 38 126 29.9411 126 20C126 10.0589 117.941 2 108 2H20ZM0 20C0 8.95431 8.9543 0 20 0H108C119.046 0 128 8.95431 128 20C128 31.0457 119.046 40 108 40H20C8.95431 40 0 31.0457 0 20Z" fill="black"/>
<rect x="128" width="128" height="40" rx="20" fill="#F5F5F5"/>
<path fill-rule="evenodd" clip-rule="evenodd" d="M148 2C138.059 2 130 10.0589 130 20C130 29.9411 138.059 38 148 38H236C245.941 38 254 29.9411 254 20C254 10.0589 245.941 2 236 2H148ZM128 20C128 8.95431 136.954 0 148 0H236C247.046 0 256 8.95431 256 20C256 31.0457 247.046 40 236 40H148C136.954 40 128 31.0457 128 20Z" fill="black"/>
<rect x="256" width="128" height="40" rx="20" fill="#EBEBEB"/>
<path fill-rule="evenodd" clip-rule="evenodd" d="M276 2C266.059 2 258 10.0589 258 20C258 29.9411 266.059 38 276 38H364C373.941 38 382 29.9411 382 20C382 10.0589 373.941 2 364 2H276ZM256 20C256 8.95431 264.954 0 276 0H364C375.046 0 384 8.95431 384 20C384 31.0457 375.046 40 364 40H276C264.954 40 256 31.0457 256 20Z" fill="black"/>
<path opacity="0.08" fill-rule="evenodd" clip-rule="evenodd" d="M404 2C394.059 2 386 10.0589 386 20C386 29.9411 394.059 38 404 38H492C501.941 38 510 29.9411 510 20C510 10.0589 501.941 2 492 2H404ZM384 20C384 8.95431 392.954 0 404 0H492C503.046 0 512 8.95431 512 20C512 31.0457 503.046 40 492 40H404C392.954 40 384 31.0457 384 20Z" fill="black"/>
</svg>
