<svg width="24" height="24" viewBox="0 0 24 24" fill="none" xmlns="http://www.w3.org/2000/svg">
<path d="M2.25 0.75C2.25 0.335786 2.58579 0 3 0H15.75L21.75 6V23.25C21.75 23.6642 21.4142 24 21 24H3C2.58579 24 2.25 23.6642 2.25 23.25L2.25 0.75Z" fill="#2B388F"/>
<path d="M11.984 19.3251H7.125V14.4518L12.6964 14.4501V14.4763C12.2881 14.5741 11.9845 14.9424 11.9845 15.3822L11.984 19.3251Z" fill="white"/>
<path d="M7.125 13.9277H16.875V9.05273H7.125V13.9277Z" fill="white"/>
<path d="M15.75 0L21.75 6H16.5C16.0858 6 15.75 5.66577 15.75 5.25155C15.75 3.823 15.75 0.780138 15.75 0Z" fill="#2B388F"/>
<path d="M15.75 0L21.75 6H16.5C16.0858 6 15.75 5.66577 15.75 5.25155C15.75 3.823 15.75 0.780138 15.75 0Z" fill="white" fill-opacity="0.2"/>
<path fill-rule="evenodd" clip-rule="evenodd" d="M15.375 5.34375V0H15.75V5.34375C15.75 5.70619 16.0438 6 16.4062 6H21.75V6.375H16.4062C15.8367 6.375 15.375 5.91329 15.375 5.34375Z" fill="black" fill-opacity="0.2"/>
</svg>
