<svg width="160" height="20" viewBox="0 0 160 20" fill="none" xmlns="http://www.w3.org/2000/svg">
<path fill-rule="evenodd" clip-rule="evenodd" d="M9.49306 11H9V10H9.49306V11ZM13.4375 11H12.4514V10H13.4375V11ZM17.3819 11H16.3958V10H17.3819V11ZM21.3264 11H20.3403V10H21.3264V11ZM25.2708 11H24.2847V10H25.2708V11ZM29.2153 11H28.2292V10H29.2153V11ZM33.1597 11H32.1736V10H33.1597V11ZM37.1042 11H36.1181V10H37.1042V11ZM41.0486 11H40.0625V10H41.0486V11ZM44.9931 11H44.0069V10H44.9931V11ZM48.9375 11H47.9514V10H48.9375V11ZM52.8819 11H51.8958V10H52.8819V11ZM56.8264 11H55.8403V10H56.8264V11ZM60.7708 11H59.7847V10H60.7708V11ZM64.7153 11H63.7292V10H64.7153V11ZM68.6597 11H67.6736V10H68.6597V11ZM72.6042 11H71.618V10H72.6042V11ZM76.5486 11H75.5625V10H76.5486V11ZM80.4931 11H79.5069V10H80.4931V11ZM84.4375 11H83.4514V10H84.4375V11ZM88.3819 11H87.3958V10H88.3819V11ZM92.3264 11H91.3403V10H92.3264V11ZM96.2709 11H95.2847V10H96.2709V11ZM100.215 11H99.2292V10H100.215V11ZM104.16 11H103.174V10H104.16V11ZM108.104 11H107.118V10H108.104V11ZM112.049 11H111.063V10H112.049V11ZM115.993 11H115.007V10H115.993V11ZM119.938 11H118.951V10H119.938V11ZM123.882 11H122.896V10H123.882V11ZM127.826 11H126.84V10H127.826V11ZM131.771 11H130.785V10H131.771V11ZM135.715 11H134.729V10H135.715V11ZM139.66 11H138.674V10H139.66V11ZM143.604 11H142.618V10H143.604V11ZM147.549 11H146.563V10H147.549V11ZM151 11H150.507V10H151V11Z" fill="black"/>
</svg>
