<svg width="32" height="16" viewBox="0 0 32 16" fill="none" xmlns="http://www.w3.org/2000/svg">
<g clip-path="url(#clip0)">
<path fill-rule="evenodd" clip-rule="evenodd" d="M5 5.5C5 4.11929 3.88071 3 2.5 3C1.11929 3 0 4.11929 0 5.5C0 6.88071 1.11929 8 2.5 8C3.88071 8 5 6.88071 5 5.5ZM2.5 4C3.32843 4 4 4.67157 4 5.5C4 6.32843 3.32843 7 2.5 7C1.67157 7 1 6.32843 1 5.5C1 4.67157 1.67157 4 2.5 4Z" fill="#212648"/>
<path fill-rule="evenodd" clip-rule="evenodd" d="M2 7.5C2 7.22386 2.22386 7 2.5 7H15.5C15.7761 7 16 7.22386 16 7.5C16 7.77614 15.7761 8 15.5 8H2.5C2.22386 8 2 7.77614 2 7.5Z" fill="#212648"/>
<path fill-rule="evenodd" clip-rule="evenodd" d="M6.87867 10.6213C7.85498 11.5976 7.85498 13.1805 6.87867 14.1568C5.90236 15.1331 4.31944 15.1331 3.34313 14.1568C2.36682 13.1805 2.36682 11.5976 3.34313 10.6213C4.31944 9.64498 5.90236 9.64498 6.87867 10.6213ZM6.17156 13.4497C6.75735 12.8639 6.75735 11.9142 6.17156 11.3284C5.58577 10.7426 4.63603 10.7426 4.05024 11.3284C3.46445 11.9142 3.46445 12.8639 4.05024 13.4497C4.63603 14.0355 5.58577 14.0355 6.17156 13.4497Z" fill="#212648"/>
<path fill-rule="evenodd" clip-rule="evenodd" d="M3.34313 11.3284C3.5384 11.5237 3.85498 11.5237 4.05024 11.3284L13.2426 2.13601C13.4379 1.94075 13.4379 1.62416 13.2426 1.4289C13.0474 1.23364 12.7308 1.23364 12.5355 1.4289L3.34313 10.6213C3.14787 10.8166 3.14787 11.1331 3.34313 11.3284Z" fill="#212648"/>
</g>
<g opacity="0.4" clip-path="url(#clip1)">
<path fill-rule="evenodd" clip-rule="evenodd" d="M21 5.5C21 4.11929 19.8807 3 18.5 3C17.1193 3 16 4.11929 16 5.5C16 6.88071 17.1193 8 18.5 8C19.8807 8 21 6.88071 21 5.5ZM18.5 4C19.3284 4 20 4.67157 20 5.5C20 6.32843 19.3284 7 18.5 7C17.6716 7 17 6.32843 17 5.5C17 4.67157 17.6716 4 18.5 4Z" fill="#212648"/>
<path fill-rule="evenodd" clip-rule="evenodd" d="M18 7.5C18 7.22386 18.2239 7 18.5 7H31.5C31.7761 7 32 7.22386 32 7.5C32 7.77614 31.7761 8 31.5 8H18.5C18.2239 8 18 7.77614 18 7.5Z" fill="#212648"/>
<path fill-rule="evenodd" clip-rule="evenodd" d="M22.8787 10.6213C23.855 11.5976 23.855 13.1805 22.8787 14.1568C21.9024 15.1331 20.3194 15.1331 19.3431 14.1568C18.3668 13.1805 18.3668 11.5976 19.3431 10.6213C20.3194 9.64498 21.9024 9.64498 22.8787 10.6213ZM22.1716 13.4497C22.7573 12.8639 22.7573 11.9142 22.1716 11.3284C21.5858 10.7426 20.636 10.7426 20.0502 11.3284C19.4645 11.9142 19.4645 12.8639 20.0502 13.4497C20.636 14.0355 21.5858 14.0355 22.1716 13.4497Z" fill="#212648"/>
<path fill-rule="evenodd" clip-rule="evenodd" d="M19.3431 11.3284C19.5384 11.5237 19.855 11.5237 20.0502 11.3284L29.2426 2.13601C29.4379 1.94075 29.4379 1.62416 29.2426 1.4289C29.0474 1.23364 28.7308 1.23364 28.5355 1.4289L19.3431 10.6213C19.1479 10.8166 19.1479 11.1331 19.3431 11.3284Z" fill="#212648"/>
</g>
<defs>
<clipPath id="clip0">
<rect width="16" height="16" fill="white"/>
</clipPath>
<clipPath id="clip1">
<rect width="16" height="16" fill="white" transform="translate(16)"/>
</clipPath>
</defs>
</svg>
