<svg width="48" height="24" viewBox="0 0 48 24" fill="none" xmlns="http://www.w3.org/2000/svg">
<path d="M2.5 4C2.5 3.72386 2.72386 3.5 3 3.5H21C21.2761 3.5 21.5 3.72386 21.5 4V18C21.5 18.2761 21.2761 18.5 21 18.5H16.3333C16.0088 18.5 15.693 18.6053 15.4333 18.8L12.3 21.15C12.1222 21.2833 11.8778 21.2833 11.7 21.15L8.56667 18.8C8.30702 18.6053 7.99122 18.5 7.66667 18.5H3C2.72386 18.5 2.5 18.2761 2.5 18V4Z" stroke="#5C6182"/>
<rect x="6" y="8" width="12" height="1" rx="0.5" fill="#5C6182"/>
<rect x="6" y="12" width="12" height="1" rx="0.5" fill="#5C6182"/>
<path d="M27 3.5H45C45.2761 3.5 45.5 3.72386 45.5 4V18C45.5 18.2761 45.2761 18.5 45 18.5H40.3333C40.0088 18.5 39.693 18.6053 39.4333 18.8L36.3 21.15C36.1222 21.2833 35.8778 21.2833 35.7 21.15L32.5667 18.8C32.307 18.6053 31.9912 18.5 31.6667 18.5H27C26.7239 18.5 26.5 18.2761 26.5 18V4C26.5 3.72386 26.7239 3.5 27 3.5Z" stroke="#4864FF"/>
<rect x="30" y="8" width="12" height="1" rx="0.5" fill="#4864FF"/>
<rect x="30" y="12" width="12" height="1" rx="0.5" fill="#4864FF"/>
</svg>
