<svg width="32" height="16" viewBox="0 0 32 16" fill="none" xmlns="http://www.w3.org/2000/svg">
<path d="M10.0858 1.5H2.5C1.94772 1.5 1.5 1.94772 1.5 2.5V14.5C1.5 15.0523 1.94772 15.5 2.5 15.5H12.5C13.0523 15.5 13.5 15.0523 13.5 14.5V4.91421C13.5 4.649 13.3946 4.39464 13.2071 4.20711L10.7929 1.79289C10.6054 1.60536 10.351 1.5 10.0858 1.5Z" stroke="#212648"/>
<g opacity="0.4">
<path d="M26.0858 1.5H18.5C17.9477 1.5 17.5 1.94772 17.5 2.5V14.5C17.5 15.0523 17.9477 15.5 18.5 15.5H28.5C29.0523 15.5 29.5 15.0523 29.5 14.5V4.91421C29.5 4.649 29.3946 4.39464 29.2071 4.20711L26.7929 1.79289C26.6054 1.60536 26.351 1.5 26.0858 1.5Z" stroke="#212648"/>
</g>
</svg>
