<svg width="22" height="22" viewBox="0 0 22 22" fill="none" xmlns="http://www.w3.org/2000/svg">
<path fill-rule="evenodd" clip-rule="evenodd" d="M19.64 11.2045C19.64 10.5664 19.5827 9.95272 19.4764 9.36363H11V12.845H15.8436C15.635 13.97 15.0009 14.9232 14.0477 15.5614V17.8195H16.9564C18.6582 16.2527 19.64 13.9455 19.64 11.2045V11.2045Z" fill="#4285F4"/>
<path fill-rule="evenodd" clip-rule="evenodd" d="M10.9998 20C13.4298 20 15.467 19.1941 16.9561 17.8196L14.0475 15.5614C13.2416 16.1014 12.2107 16.4205 10.9998 16.4205C8.65567 16.4205 6.67158 14.8373 5.96385 12.71H2.95703V15.0418C4.43794 17.9832 7.48158 20 10.9998 20V20Z" fill="#34A853"/>
<path fill-rule="evenodd" clip-rule="evenodd" d="M5.96409 12.71C5.78409 12.17 5.68182 11.5932 5.68182 11C5.68182 10.4068 5.78409 9.82999 5.96409 9.28999V6.95818H2.95727C2.34773 8.17318 2 9.54772 2 11C2 12.4523 2.34773 13.8268 2.95727 15.0418L5.96409 12.71V12.71Z" fill="#FBBC05"/>
<path fill-rule="evenodd" clip-rule="evenodd" d="M10.9998 5.57955C12.3211 5.57955 13.5075 6.03364 14.4402 6.92545L17.0216 4.34409C15.4629 2.89182 13.4257 2 10.9998 2C7.48158 2 4.43794 4.01682 2.95703 6.95818L5.96385 9.29C6.67158 7.16273 8.65567 5.57955 10.9998 5.57955V5.57955Z" fill="#EA4335"/>
</svg>
