<svg width="48" height="24" viewBox="0 0 48 24" fill="none" xmlns="http://www.w3.org/2000/svg">
<rect x="2.5" y="2.5" width="19" height="19" stroke="#6A52FC"/>
<path d="M8.5 8V7.5H8H6H5.5V8V9V9.5H6H6.5V16V16.5H7H8H8.5V16V8Z" fill="url(#paint0_linear)" stroke="#6A52FC"/>
<path d="M18.5 8V7.5H18H16H15.5V8V9V9.5H16H16.5V16V16.5H17H18H18.5V16V8Z" fill="url(#paint1_linear)" stroke="#6A52FC"/>
<rect x="11" y="9" width="2" height="2" fill="#6A52FC"/>
<rect x="11" y="13" width="2" height="2" fill="#6A52FC"/>
<g opacity="0.4">
<rect x="26.5" y="2.5" width="19" height="19" stroke="#6A52FC"/>
<path d="M32.5 8V7.5H32H30H29.5V8V9V9.5H30H30.5V16V16.5H31H32H32.5V16V8Z" fill="url(#paint2_linear)" stroke="#6A52FC"/>
<path d="M42.5 8V7.5H42H40H39.5V8V9V9.5H40H40.5V16V16.5H41H42H42.5V16V8Z" fill="url(#paint3_linear)" stroke="#6A52FC"/>
<rect x="35" y="9" width="2" height="2" fill="#6A52FC"/>
<rect x="35" y="13" width="2" height="2" fill="#6A52FC"/>
</g>
<defs>
<linearGradient id="paint0_linear" x1="6.5" y1="7.95947" x2="6.5" y2="16.2308" gradientUnits="userSpaceOnUse">
<stop stop-color="#8CA5FF"/>
<stop offset="1" stop-color="#7B72FB"/>
</linearGradient>
<linearGradient id="paint1_linear" x1="16.5" y1="7.95947" x2="16.5" y2="16.2308" gradientUnits="userSpaceOnUse">
<stop stop-color="#8CA5FF"/>
<stop offset="1" stop-color="#7B72FB"/>
</linearGradient>
<linearGradient id="paint2_linear" x1="30.5" y1="7.95947" x2="30.5" y2="16.2308" gradientUnits="userSpaceOnUse">
<stop stop-color="#8CA5FF"/>
<stop offset="1" stop-color="#7B72FB"/>
</linearGradient>
<linearGradient id="paint3_linear" x1="40.5" y1="7.95947" x2="40.5" y2="16.2308" gradientUnits="userSpaceOnUse">
<stop stop-color="#8CA5FF"/>
<stop offset="1" stop-color="#7B72FB"/>
</linearGradient>
</defs>
</svg>
