<svg width="48" height="24" viewBox="0 0 48 24" fill="none" xmlns="http://www.w3.org/2000/svg">
<rect x="12.5" y="3.5" width="8" height="8" fill="url(#paint0_linear)" stroke="#6A52FC"/>
<path d="M18 6L14.5 9.5M14.5 9.5V6M14.5 9.5H18" stroke="white"/>
<rect x="20.5" y="13.5" width="8" height="8" transform="rotate(90 20.5 13.5)" fill="url(#paint1_linear)" stroke="#6A52FC"/>
<path d="M18 19L14.5 15.5M14.5 15.5L18 15.5M14.5 15.5L14.5 19" stroke="white"/>
<rect x="2.5" y="3.5" width="8" height="8" fill="url(#paint2_linear)" stroke="#6A52FC"/>
<path d="M5 6L8.5 9.5M8.5 9.5V6M8.5 9.5H5" stroke="white"/>
<rect width="9" height="9" transform="translate(2 22) rotate(-90)" fill="url(#paint3_linear)"/>
<rect x="2.5" y="21.5" width="8" height="8" transform="rotate(-90 2.5 21.5)" stroke="#6A52FC"/>
<path d="M5 19L8.5 15.5M8.5 15.5L5 15.5M8.5 15.5L8.5 19" stroke="white"/>
<g opacity="0.4">
<rect x="36.5" y="3.5" width="8" height="8" fill="url(#paint4_linear)" stroke="#6A52FC"/>
<path d="M42 6L38.5 9.5M38.5 9.5V6M38.5 9.5H42" stroke="white"/>
<rect x="44.5" y="13.5" width="8" height="8" transform="rotate(90 44.5 13.5)" fill="url(#paint5_linear)" stroke="#6A52FC"/>
<path d="M42 19L38.5 15.5M38.5 15.5L42 15.5M38.5 15.5L38.5 19" stroke="white"/>
<rect x="26.5" y="3.5" width="8" height="8" fill="url(#paint6_linear)" stroke="#6A52FC"/>
<path d="M29 6L32.5 9.5M32.5 9.5V6M32.5 9.5H29" stroke="white"/>
<rect width="9" height="9" transform="translate(26 22) rotate(-90)" fill="url(#paint7_linear)"/>
<rect x="26.5" y="21.5" width="8" height="8" transform="rotate(-90 26.5 21.5)" stroke="#6A52FC"/>
<path d="M29 19L32.5 15.5M32.5 15.5L29 15.5M32.5 15.5L32.5 19" stroke="white"/>
</g>
<defs>
<linearGradient id="paint0_linear" x1="16.5" y1="4.67163" x2="16.5" y2="10.4615" gradientUnits="userSpaceOnUse">
<stop stop-color="#8CA5FF"/>
<stop offset="1" stop-color="#7B72FB"/>
</linearGradient>
<linearGradient id="paint1_linear" x1="23.5" y1="14.6716" x2="23.5" y2="20.4615" gradientUnits="userSpaceOnUse">
<stop stop-color="#8CA5FF"/>
<stop offset="1" stop-color="#7B72FB"/>
</linearGradient>
<linearGradient id="paint2_linear" x1="6.5" y1="4.67163" x2="6.5" y2="10.4615" gradientUnits="userSpaceOnUse">
<stop stop-color="#8CA5FF"/>
<stop offset="1" stop-color="#7B72FB"/>
</linearGradient>
<linearGradient id="paint3_linear" x1="4.5" y1="0.863524" x2="4.5" y2="8.30769" gradientUnits="userSpaceOnUse">
<stop stop-color="#8CA5FF"/>
<stop offset="1" stop-color="#7B72FB"/>
</linearGradient>
<linearGradient id="paint4_linear" x1="40.5" y1="4.67163" x2="40.5" y2="10.4615" gradientUnits="userSpaceOnUse">
<stop stop-color="#8CA5FF"/>
<stop offset="1" stop-color="#7B72FB"/>
</linearGradient>
<linearGradient id="paint5_linear" x1="47.5" y1="14.6716" x2="47.5" y2="20.4615" gradientUnits="userSpaceOnUse">
<stop stop-color="#8CA5FF"/>
<stop offset="1" stop-color="#7B72FB"/>
</linearGradient>
<linearGradient id="paint6_linear" x1="30.5" y1="4.67163" x2="30.5" y2="10.4615" gradientUnits="userSpaceOnUse">
<stop stop-color="#8CA5FF"/>
<stop offset="1" stop-color="#7B72FB"/>
</linearGradient>
<linearGradient id="paint7_linear" x1="4.5" y1="0.863524" x2="4.5" y2="8.30769" gradientUnits="userSpaceOnUse">
<stop stop-color="#8CA5FF"/>
<stop offset="1" stop-color="#7B72FB"/>
</linearGradient>
</defs>
</svg>
