<svg width="48" height="24" viewBox="0 0 48 24" fill="none" xmlns="http://www.w3.org/2000/svg">
<path d="M5.5 8.5V15.5C5.5 16.0523 5.94772 16.5 6.5 16.5H17.5C18.0523 16.5 18.5 16.0523 18.5 15.5V8.5M5.5 8.5V7.5C5.5 6.94772 5.94772 6.5 6.5 6.5H17.5C18.0523 6.5 18.5 6.94772 18.5 7.5V8.5M5.5 8.5L11.5809 11.3066C11.8468 11.4293 12.1532 11.4293 12.4191 11.3066L18.5 8.5" stroke="white" stroke-linecap="round" stroke-linejoin="round"/>
<g opacity="0.4">
<path d="M29.5 8.5V15.5C29.5 16.0523 29.9477 16.5 30.5 16.5H41.5C42.0523 16.5 42.5 16.0523 42.5 15.5V8.5M29.5 8.5V7.5C29.5 6.94772 29.9477 6.5 30.5 6.5H41.5C42.0523 6.5 42.5 6.94772 42.5 7.5V8.5M29.5 8.5L35.5809 11.3066C35.8468 11.4293 36.1532 11.4293 36.4191 11.3066L42.5 8.5" stroke="white" stroke-linecap="round" stroke-linejoin="round"/>
</g>
</svg>
