<svg width="48" height="24" viewBox="0 0 48 24" fill="none" xmlns="http://www.w3.org/2000/svg">
<g clip-path="url(#clip0)">
<path d="M4 19H22L20 22H2L4 19Z" fill="#9CADC2"/>
<path d="M7.42678 11.123L16.087 16.123L20.031 5.08977L14.8349 2.08977L7.42678 11.123Z" fill="url(#paint0_linear)"/>
<path d="M10.415 19.7452L10.915 18.8792L7.45092 16.8792L5.95092 19.4773L10.415 19.7452Z" fill="url(#paint1_linear)"/>
<path d="M16.0131 16.0491L7.3393 11.0725M16.0131 16.0491L20.031 5.08977L14.8349 2.08977L7.3393 11.0725M16.0131 16.0491L13.8469 16.6295C12.6099 16.9609 11.5553 17.7702 10.915 18.8792V18.8792M7.3393 11.0725L7.92452 13.2176C8.26124 14.4519 8.08779 15.7696 7.44316 16.8747V16.8747L7.45092 16.8792M10.915 18.8792L10.415 19.7452L5.95092 19.4773L7.45092 16.8792M10.915 18.8792L7.45092 16.8792" stroke="#6A52FC"/>
</g>
<g opacity="0.4" clip-path="url(#clip1)">
<path d="M28 19H46L44 22H26L28 19Z" fill="#9CADC2"/>
<path d="M31.4268 11.123L40.087 16.123L44.031 5.08977L38.8349 2.08977L31.4268 11.123Z" fill="url(#paint2_linear)"/>
<path d="M34.415 19.7452L34.915 18.8792L31.4509 16.8792L29.9509 19.4773L34.415 19.7452Z" fill="url(#paint3_linear)"/>
<path d="M40.0131 16.0491L31.3393 11.0725M40.0131 16.0491L44.031 5.08977L38.8349 2.08977L31.3393 11.0725M40.0131 16.0491L37.8469 16.6295C36.6099 16.9609 35.5553 17.7702 34.915 18.8792V18.8792M31.3393 11.0725L31.9245 13.2176C32.2612 14.4519 32.0878 15.7696 31.4432 16.8747V16.8747L31.4509 16.8792M34.915 18.8792L34.415 19.7452L29.9509 19.4773L31.4509 16.8792M34.915 18.8792L31.4509 16.8792" stroke="#6A52FC"/>
</g>
<defs>
<linearGradient id="paint0_linear" x1="16.6764" y1="5.28882" x2="12.2668" y2="12.9265" gradientUnits="userSpaceOnUse">
<stop stop-color="#8CA5FF"/>
<stop offset="1" stop-color="#7B72FB"/>
</linearGradient>
<linearGradient id="paint1_linear" x1="16.766" y1="5.13364" x2="7.90238" y2="20.4859" gradientUnits="userSpaceOnUse">
<stop stop-color="#8CA5FF"/>
<stop offset="1" stop-color="#7B72FB"/>
</linearGradient>
<linearGradient id="paint2_linear" x1="40.6764" y1="5.28882" x2="36.2668" y2="12.9265" gradientUnits="userSpaceOnUse">
<stop stop-color="#8CA5FF"/>
<stop offset="1" stop-color="#7B72FB"/>
</linearGradient>
<linearGradient id="paint3_linear" x1="40.766" y1="5.13364" x2="31.9024" y2="20.4859" gradientUnits="userSpaceOnUse">
<stop stop-color="#8CA5FF"/>
<stop offset="1" stop-color="#7B72FB"/>
</linearGradient>
<clipPath id="clip0">
<rect width="24" height="24" fill="white"/>
</clipPath>
<clipPath id="clip1">
<rect width="24" height="24" fill="white" transform="translate(24)"/>
</clipPath>
</defs>
</svg>
