<svg width="16" height="16" viewBox="0 0 16 16" fill="none" xmlns="http://www.w3.org/2000/svg">
<g clip-path="url(#clip0)">
<path d="M0.125001 0.375C0.125001 0.167893 0.292894 0 0.500001 0H6.875L9.875 3V11.625C9.875 11.8321 9.70711 12 9.5 12H0.5C0.292893 12 0.125 11.8321 0.125 11.625L0.125001 0.375Z" fill="#2B388F"/>
<path d="M2 5.5H8" stroke="white"/>
<path d="M2 7.5H6" stroke="white"/>
<path d="M6.87502 0L9.87502 3H7.25C7.04289 3 6.875 2.83288 6.875 2.62578C6.87501 1.9115 6.87502 0.390069 6.87502 0Z" fill="#2B388F"/>
<path d="M6.87502 0L9.87502 3H7.25C7.04289 3 6.875 2.83288 6.875 2.62578C6.87501 1.9115 6.87502 0.390069 6.87502 0Z" fill="white" fill-opacity="0.2"/>
<path fill-rule="evenodd" clip-rule="evenodd" d="M6.6875 2.67188V0H6.875V2.67188C6.875 2.85309 7.02191 3 7.20312 3H9.875V3.1875H7.20312C6.91835 3.1875 6.6875 2.95665 6.6875 2.67188Z" fill="black" fill-opacity="0.2"/>
<path d="M13.8313 12.2793L13.5724 13.2458C13.1435 14.8462 11.4985 15.7959 9.89812 15.3671V15.3671C8.29772 14.9383 7.34798 13.2933 7.7768 11.6929L9.58854 4.93138C9.87442 3.86445 10.9711 3.23128 12.038 3.51717V3.51717C13.105 3.80305 13.7381 4.89973 13.4522 5.96666L11.671 12.6145C11.528 13.148 10.9797 13.4645 10.4462 13.3216V13.3216C9.91274 13.1787 9.59616 12.6303 9.7391 12.0969L10.9418 7.60815" stroke="#FF640D" stroke-linecap="round" stroke-linejoin="round"/>
</g>
<defs>
<clipPath id="clip0">
<rect width="16" height="16" fill="white"/>
</clipPath>
</defs>
</svg>
