<svg width="48" height="24" viewBox="0 0 48 24" fill="none" xmlns="http://www.w3.org/2000/svg">
<path fill-rule="evenodd" clip-rule="evenodd" d="M15 2H2V15H5V5H15V2Z" fill="#9CADC2"/>
<path d="M6.5 6.5H21.5V21.5H6.5V6.5Z" fill="url(#paint0_linear)" stroke="#6A52FC"/>
<path d="M9.5 18.5L11.75 13.75M18.5 18.5L16.25 13.75M16.25 13.75L14 9L11.75 13.75M16.25 13.75H11.75" stroke="white" stroke-linecap="round" stroke-linejoin="round"/>
<g opacity="0.4">
<path fill-rule="evenodd" clip-rule="evenodd" d="M39 2H26V15H29V5H39V2Z" fill="#9CADC2"/>
<path d="M30.5 6.5H45.5V21.5H30.5V6.5Z" fill="url(#paint1_linear)" stroke="#6A52FC"/>
<path d="M33.5 18.5L35.75 13.75M42.5 18.5L40.25 13.75M40.25 13.75L38 9L35.75 13.75M40.25 13.75H35.75" stroke="white" stroke-linecap="round" stroke-linejoin="round"/>
</g>
<defs>
<linearGradient id="paint0_linear" x1="15" y1="7.72705" x2="15" y2="22.6154" gradientUnits="userSpaceOnUse">
<stop stop-color="#8CA5FF"/>
<stop offset="1" stop-color="#7B72FB"/>
</linearGradient>
<linearGradient id="paint1_linear" x1="39" y1="7.72705" x2="39" y2="22.6154" gradientUnits="userSpaceOnUse">
<stop stop-color="#8CA5FF"/>
<stop offset="1" stop-color="#7B72FB"/>
</linearGradient>
</defs>
</svg>
