<svg width="250" height="288" viewBox="0 0 250 288" fill="none" xmlns="http://www.w3.org/2000/svg">
<g clip-path="url(#clip0)">
<path d="M248.227 141.843H249.113C249.603 141.843 250 142.24 250 142.73V195.921C250 196.411 249.603 196.808 249.113 196.808H248.227V141.843Z" fill="#213744"/>
<path d="M1.77295 208.629L0.886421 208.629C0.396807 208.629 -0.000103439 208.232 -0.000103396 207.742L-0.000100503 174.645C-0.00010046 174.156 0.39681 173.759 0.886424 173.759L1.77295 173.759L1.77295 208.629Z" fill="#213744"/>
<path d="M1.77295 164.303L0.886421 164.303C0.396807 164.303 -0.000103439 163.906 -0.000103396 163.416L-0.000100503 130.319C-0.00010046 129.83 0.39681 129.433 0.886424 129.433L1.77295 129.433L1.77295 164.303Z" fill="#213744"/>
<path d="M1.77295 114.066L0.886423 114.066C0.396809 114.066 -0.00010177 113.669 -0.000101727 113.18L-0.000100436 98.4041C-0.000100393 97.9145 0.39681 97.5176 0.886424 97.5176L1.77295 97.5176L1.77295 114.066Z" fill="#213744"/>
<path d="M1.77307 53.7824C1.77307 39.4818 1.77307 32.3314 3.65329 26.5447C7.45332 14.8494 16.6226 5.68013 28.3179 1.88009C34.1046 -0.00012207 41.2549 -0.00012207 55.5556 -0.00012207H194.444C208.745 -0.00012207 215.895 -0.00012207 221.682 1.88009C233.377 5.68013 242.547 14.8494 246.347 26.5447C248.227 32.3314 248.227 39.4818 248.227 53.7824V453.31C248.227 467.61 248.227 474.76 246.347 480.547C242.547 492.243 233.377 501.412 221.682 505.212C215.895 507.092 208.745 507.092 194.444 507.092H55.5556C41.2549 507.092 34.1046 507.092 28.3179 505.212C16.6226 501.412 7.45332 492.243 3.65329 480.547C1.77307 474.76 1.77307 467.61 1.77307 453.31V53.7824Z" fill="#213744"/>
<path fill-rule="evenodd" clip-rule="evenodd" d="M194.681 1.18165H55.3192C41.1925 1.18165 34.2694 1.18895 28.6832 3.00402C17.3477 6.68713 8.46057 15.5743 4.77745 26.9097C2.96238 32.496 2.95509 39.4191 2.95509 53.5457V453.546C2.95509 467.672 2.96238 474.595 4.77745 480.182C8.46057 491.517 17.3477 500.404 28.6832 504.087C34.2694 505.902 41.1925 505.91 55.3192 505.91H194.681C208.807 505.91 215.731 505.902 221.317 504.087C232.652 500.404 241.539 491.517 245.223 480.182C247.038 474.595 247.045 467.672 247.045 453.546V53.5457C247.045 39.4191 247.038 32.496 245.223 26.9097C241.539 15.5743 232.652 6.68713 221.317 3.00402C215.731 1.18895 208.807 1.18165 194.681 1.18165ZM4.21536 26.7271C2.36407 32.4248 2.36407 39.4651 2.36407 53.5457V453.546C2.36407 467.626 2.36407 474.667 4.21536 480.364C7.95694 491.88 16.9852 500.908 28.5005 504.65C34.1982 506.501 41.2385 506.501 55.3192 506.501H194.681C208.761 506.501 215.802 506.501 221.499 504.65C233.015 500.908 242.043 491.88 245.785 480.364C247.636 474.667 247.636 467.626 247.636 453.546V53.5457C247.636 39.4651 247.636 32.4248 245.785 26.7271C242.043 15.2117 233.015 6.1835 221.499 2.44193C215.802 0.590637 208.761 0.590637 194.681 0.590637H55.3192C41.2385 0.590637 34.1982 0.590637 28.5005 2.44193C16.9852 6.1835 7.95694 15.2117 4.21536 26.7271Z" fill="#8EADC1"/>
<path d="M4.72815 52.6006C4.72815 39.4 4.72815 32.7997 6.46373 27.4581C9.97146 16.6625 18.4354 8.19851 29.2311 4.69078C34.5727 2.9552 41.173 2.9552 54.3735 2.9552H195.626C208.827 2.9552 215.427 2.9552 220.769 4.69078C231.565 8.19851 240.029 16.6625 243.536 27.4581C245.272 32.7997 245.272 39.4 245.272 52.6006V454.492C245.272 467.692 245.272 474.293 243.536 479.634C240.029 490.43 231.565 498.894 220.769 502.402C215.427 504.137 208.827 504.137 195.626 504.137H54.3735C41.173 504.137 34.5727 504.137 29.2311 502.402C18.4354 498.894 9.97146 490.43 6.46373 479.634C4.72815 474.293 4.72815 467.692 4.72815 454.492V52.6006Z" fill="#121515"/>
<path d="M195.626 -0.000183105H199.173V2.9549H195.626V-0.000183105Z" fill="#36454C"/>
<path d="M245.272 50.8271H248.227V54.3732H245.272V50.8271Z" fill="#36454C"/>
<path d="M1.77307 50.8271H4.72815V54.3732H1.77307V50.8271Z" fill="#36454C"/>
<mask id="mask0" mask-type="alpha" maskUnits="userSpaceOnUse" x="13" y="11" width="224" height="485">
<path d="M70.331 17.317C70.331 23.4208 75.4117 28.369 81.5603 28.369H168.44C174.588 28.369 179.669 23.4208 179.669 17.317V14.3028C179.669 12.6381 180.947 11.2295 182.624 11.2295H196.164C208.325 11.2295 214.406 11.2295 219.242 13.1006C226.537 15.9228 232.304 21.6898 235.127 28.9847C236.998 33.8213 236.998 39.9018 236.998 52.0628V455.03C236.998 467.191 236.998 473.271 235.127 478.108C232.304 485.403 226.537 491.17 219.242 493.992C214.406 495.863 208.325 495.863 196.164 495.863H53.8357C41.6747 495.863 35.5942 495.863 30.7576 493.992C23.4627 491.17 17.6957 485.403 14.8735 478.108C13.0024 473.271 13.0024 467.191 13.0024 455.03V52.0628C13.0024 39.9018 13.0024 33.8213 14.8735 28.9847C17.6957 21.6898 23.4627 15.9228 30.7576 13.1006C35.5942 11.2295 41.6747 11.2295 53.8357 11.2295H67.3759C69.0528 11.2295 70.331 12.6381 70.331 14.3028V17.317Z" fill="white"/>
</mask>
<g mask="url(#mask0)">
<rect x="13" y="11" width="225" height="279" fill="white"/>
</g>
<path fill-rule="evenodd" clip-rule="evenodd" d="M147.754 21.8675C150.039 21.8675 151.891 20.0152 151.891 17.7304C151.891 15.4455 150.039 13.5933 147.754 13.5933C145.469 13.5933 143.617 15.4455 143.617 17.7304C143.617 20.0152 145.469 21.8675 147.754 21.8675Z" fill="#262C2D"/>
<path fill-rule="evenodd" clip-rule="evenodd" d="M147.754 20.316C149.182 20.316 150.34 19.1584 150.34 17.7304C150.34 16.3023 149.182 15.1447 147.754 15.1447C146.326 15.1447 145.168 16.3023 145.168 17.7304C145.168 19.1584 146.326 20.316 147.754 20.316Z" fill="#121515"/>
<path opacity="0.4" fill-rule="evenodd" clip-rule="evenodd" d="M147.754 17.2132C148.04 17.2132 148.271 16.9817 148.271 16.6961C148.271 16.4105 148.04 16.179 147.754 16.179C147.468 16.179 147.237 16.4105 147.237 16.6961C147.237 16.9817 147.468 17.2132 147.754 17.2132Z" fill="#636F73"/>
<path fill-rule="evenodd" clip-rule="evenodd" d="M112.293 17.73C112.293 16.7508 113.087 15.957 114.066 15.957H135.934C136.913 15.957 137.707 16.7508 137.707 17.73C137.707 18.7092 136.913 19.5031 135.934 19.5031H114.066C113.087 19.5031 112.293 18.7092 112.293 17.73Z" fill="#262C2D"/>
<rect x="23" y="42.4893" width="204" height="28" rx="8" fill="#E9ECF1"/>
<circle cx="36" cy="55.4893" r="5.4" stroke="#212648" stroke-width="1.2"/>
<path d="M40 59.4893L43.5 62.9893" stroke="#212648" stroke-width="1.5" stroke-linecap="round"/>
<path d="M55.823 52.3893H52.235V61.4893H53.327V57.7193H55.68C57.656 57.7193 58.618 56.2893 58.618 54.9503C58.618 53.6113 57.656 52.3893 55.823 52.3893ZM55.68 56.7183H53.327V53.3903H55.719C56.876 53.3903 57.474 54.1833 57.474 55.0283C57.474 55.8603 56.889 56.7183 55.68 56.7183Z" fill="black"/>
<path d="M62.7517 52.3893H59.8527V61.4893H62.6737C65.7287 61.4893 67.1977 59.1493 67.1977 56.8093C67.1977 54.4693 65.7417 52.3893 62.7517 52.3893ZM62.6607 60.4883H60.9707V53.3903H62.6867C64.9487 53.3903 66.0277 55.0413 66.0277 56.8743C66.0277 58.7073 64.9357 60.4883 62.6607 60.4883Z" fill="black"/>
<path d="M69.8071 57.3943H74.1881V56.3803H69.8071V53.3903H74.5391V52.3893H68.6891V61.4893H69.8071V57.3943Z" fill="black"/>
<path d="M80.8757 58.4733V57.9663C80.8757 55.8083 79.5757 54.7943 78.0027 54.7943C76.4297 54.7943 74.9347 55.8343 74.9347 58.2003C74.9347 60.5533 76.4167 61.6323 77.9897 61.6323C79.2377 61.6323 80.4857 60.9823 80.8237 59.5783H79.7577C79.5367 60.2803 78.8607 60.6703 78.0417 60.6703C76.9107 60.6703 76.0267 59.9553 75.9877 58.4733H80.8757ZM77.9767 55.7303C79.0427 55.7303 79.7967 56.4583 79.7967 57.6023H76.0137C76.1567 56.2503 77.0277 55.7303 77.9767 55.7303Z" fill="black"/>
<path d="M83.185 52.2463H82.106V61.4893H83.185V52.2463Z" fill="black"/>
<path d="M90.3601 58.4733V57.9663C90.3601 55.8083 89.0601 54.7943 87.4871 54.7943C85.9141 54.7943 84.4191 55.8343 84.4191 58.2003C84.4191 60.5533 85.9011 61.6323 87.4741 61.6323C88.7221 61.6323 89.9701 60.9823 90.3081 59.5783H89.2421C89.0211 60.2803 88.3451 60.6703 87.5261 60.6703C86.3951 60.6703 85.5111 59.9553 85.4721 58.4733H90.3601ZM87.4611 55.7303C88.5271 55.7303 89.2811 56.4583 89.2811 57.6023H85.4981C85.6411 56.2503 86.5121 55.7303 87.4611 55.7303Z" fill="black"/>
<path d="M98.4935 54.7943C97.1155 54.7943 96.6085 55.6133 96.4005 56.1853C96.2185 55.4053 95.4905 54.7943 94.4635 54.7943C93.6835 54.7943 93.0075 55.1323 92.6435 55.9773V54.9113H91.5905V61.4893H92.6695V57.9273C92.6695 56.5363 93.3195 55.7823 94.2945 55.7823C95.0485 55.7823 95.6075 56.2243 95.6075 57.2123V61.4893H96.6735V57.9403C96.6735 56.5493 97.2975 55.7823 98.2985 55.7823C99.0525 55.7823 99.6115 56.2113 99.6115 57.2123V61.4893H100.69V56.8613C100.69 55.4703 99.7415 54.7943 98.4935 54.7943Z" fill="black"/>
<path d="M107.805 58.4733V57.9663C107.805 55.8083 106.505 54.7943 104.931 54.7943C103.358 54.7943 101.864 55.8343 101.864 58.2003C101.864 60.5533 103.346 61.6323 104.919 61.6323C106.167 61.6323 107.415 60.9823 107.753 59.5783H106.687C106.465 60.2803 105.79 60.6703 104.971 60.6703C103.84 60.6703 102.956 59.9553 102.917 58.4733H107.805ZM104.906 55.7303C105.972 55.7303 106.726 56.4583 106.726 57.6023H102.943C103.086 56.2503 103.957 55.7303 104.906 55.7303Z" fill="black"/>
<path d="M112.246 54.7943C111.141 54.7943 110.478 55.3403 110.101 56.0553V54.9113H109.035V61.4893H110.114V58.1223C110.114 56.6663 110.881 55.7693 112.051 55.7693C113.052 55.7693 113.481 56.4193 113.481 57.1343V61.4893H114.56V57.0303C114.56 55.6003 113.598 54.7943 112.246 54.7943Z" fill="black"/>
<path d="M119.381 60.5273H118.549C117.795 60.5273 117.678 60.1503 117.678 59.6043V55.8733H119.225V54.9113H117.678V52.8573L116.599 53.1563V54.9113H115.338V55.8733H116.599V59.7343C116.599 61.2683 117.483 61.4893 118.432 61.4893H119.381V60.5273Z" fill="black"/>
<path d="M126.301 57.8493H122.57V56.8873H126.301V57.8493Z" fill="black"/>
<path d="M133.918 52.3893H130.33V61.4893H131.422V57.7193H133.775C135.751 57.7193 136.713 56.2893 136.713 54.9503C136.713 53.6113 135.751 52.3893 133.918 52.3893ZM133.775 56.7183H131.422V53.3903H133.814C134.971 53.3903 135.569 54.1833 135.569 55.0283C135.569 55.8603 134.984 56.7183 133.775 56.7183Z" fill="black"/>
<path d="M140.847 52.3893H137.948V61.4893H140.769C143.824 61.4893 145.293 59.1493 145.293 56.8093C145.293 54.4693 143.837 52.3893 140.847 52.3893ZM140.756 60.4883H139.066V53.3903H140.782C143.044 53.3903 144.123 55.0413 144.123 56.8743C144.123 58.7073 143.031 60.4883 140.756 60.4883Z" fill="black"/>
<path d="M147.903 57.3943H152.284V56.3803H147.903V53.3903H152.635V52.3893H146.785V61.4893H147.903V57.3943Z" fill="black"/>
<path d="M162.176 61.4893V60.4883H157.197V57.3943H161.578V56.3803H157.197V53.3903H161.929V52.3893H156.079V61.4893H162.176Z" fill="black"/>
<path d="M169.225 52.2463H168.146V55.9903C167.795 55.3143 167.067 54.7943 165.949 54.7943C163.921 54.7943 162.959 56.5103 162.959 58.2133C162.959 59.9293 163.908 61.6323 165.936 61.6323C167.171 61.6323 167.873 60.9953 168.185 60.2023V61.4893H169.225V52.2463ZM166.066 60.6313C164.662 60.6313 164.064 59.4743 164.064 58.2003C164.064 56.9393 164.662 55.7563 166.079 55.7563C167.483 55.7563 168.12 56.9003 168.12 58.1613C168.12 59.4353 167.483 60.6313 166.066 60.6313Z" fill="black"/>
<path d="M170.826 53.4293H172.035V52.1293H170.826V53.4293ZM170.891 61.4893H171.97V54.9113H170.891V61.4893Z" fill="black"/>
<path d="M176.833 60.5273H176.001C175.247 60.5273 175.13 60.1503 175.13 59.6043V55.8733H176.677V54.9113H175.13V52.8573L174.051 53.1563V54.9113H172.79V55.8733H174.051V59.7343C174.051 61.2683 174.935 61.4893 175.884 61.4893H176.833V60.5273Z" fill="black"/>
<path d="M180.643 54.7943C178.797 54.7943 177.484 56.1073 177.484 58.2133C177.484 60.3323 178.797 61.6323 180.643 61.6323C182.502 61.6323 183.815 60.3323 183.815 58.2133C183.815 56.1073 182.502 54.7943 180.643 54.7943ZM182.71 58.2133C182.71 59.7083 181.904 60.6443 180.669 60.6443C179.486 60.6443 178.589 59.7993 178.589 58.2133C178.589 56.7183 179.395 55.7823 180.63 55.7823C181.813 55.7823 182.71 56.6273 182.71 58.2133Z" fill="black"/>
<path d="M188.442 54.8463H188.13C187.155 54.8463 186.453 55.2493 186.115 56.0553V54.9113H185.049V61.4893H186.128V58.0703C186.128 56.6013 186.856 55.8733 188.143 55.8733H188.442V54.8463Z" fill="black"/>
<rect x="63" y="85.4893" width="159" height="16" fill="white"/>
<path d="M70.081 89.7893H67.045V97.4893H67.969V94.2993H69.96C71.632 94.2993 72.446 93.0893 72.446 91.9563C72.446 90.8233 71.632 89.7893 70.081 89.7893ZM69.96 93.4523H67.969V90.6363H69.993C70.972 90.6363 71.478 91.3073 71.478 92.0223C71.478 92.7263 70.983 93.4523 69.96 93.4523Z" fill="black"/>
<path d="M75.9438 89.7893H73.4908V97.4893H75.8778C78.4628 97.4893 79.7058 95.5093 79.7058 93.5293C79.7058 91.5493 78.4738 89.7893 75.9438 89.7893ZM75.8668 96.6423H74.4368V90.6363H75.8888C77.8028 90.6363 78.7158 92.0333 78.7158 93.5843C78.7158 95.1353 77.7918 96.6423 75.8668 96.6423Z" fill="black"/>
<path d="M81.9138 94.0243H85.6208V93.1663H81.9138V90.6363H85.9178V89.7893H80.9678V97.4893H81.9138V94.0243Z" fill="black"/>
<path d="M91.2795 94.9373V94.5083C91.2795 92.6823 90.1795 91.8243 88.8485 91.8243C87.5175 91.8243 86.2525 92.7043 86.2525 94.7063C86.2525 96.6973 87.5065 97.6103 88.8375 97.6103C89.8935 97.6103 90.9495 97.0603 91.2355 95.8723H90.3335C90.1465 96.4663 89.5745 96.7963 88.8815 96.7963C87.9245 96.7963 87.1765 96.1913 87.1435 94.9373H91.2795ZM88.8265 92.6163C89.7285 92.6163 90.3665 93.2323 90.3665 94.2003H87.1655C87.2865 93.0563 88.0235 92.6163 88.8265 92.6163Z" fill="black"/>
<path d="M93.2336 89.6683H92.3206V97.4893H93.2336V89.6683Z" fill="black"/>
<path d="M99.3048 94.9373V94.5083C99.3048 92.6823 98.2048 91.8243 96.8738 91.8243C95.5428 91.8243 94.2778 92.7043 94.2778 94.7063C94.2778 96.6973 95.5318 97.6103 96.8628 97.6103C97.9188 97.6103 98.9748 97.0603 99.2608 95.8723H98.3588C98.1718 96.4663 97.5998 96.7963 96.9068 96.7963C95.9498 96.7963 95.2018 96.1913 95.1688 94.9373H99.3048ZM96.8518 92.6163C97.7538 92.6163 98.3918 93.2323 98.3918 94.2003H95.1908C95.3118 93.0563 96.0488 92.6163 96.8518 92.6163Z" fill="black"/>
<path d="M106.187 91.8243C105.021 91.8243 104.592 92.5173 104.416 93.0013C104.262 92.3413 103.646 91.8243 102.777 91.8243C102.117 91.8243 101.545 92.1103 101.237 92.8253V91.9233H100.346V97.4893H101.259V94.4753C101.259 93.2983 101.809 92.6603 102.634 92.6603C103.272 92.6603 103.745 93.0343 103.745 93.8703V97.4893H104.647V94.4863C104.647 93.3093 105.175 92.6603 106.022 92.6603C106.66 92.6603 107.133 93.0233 107.133 93.8703V97.4893H108.046V93.5733C108.046 92.3963 107.243 91.8243 106.187 91.8243Z" fill="black"/>
<path d="M114.065 94.9373V94.5083C114.065 92.6823 112.965 91.8243 111.634 91.8243C110.303 91.8243 109.038 92.7043 109.038 94.7063C109.038 96.6973 110.292 97.6103 111.623 97.6103C112.679 97.6103 113.735 97.0603 114.021 95.8723H113.119C112.932 96.4663 112.36 96.7963 111.667 96.7963C110.71 96.7963 109.962 96.1913 109.929 94.9373H114.065ZM111.612 92.6163C112.514 92.6163 113.152 93.2323 113.152 94.2003H109.951C110.072 93.0563 110.809 92.6163 111.612 92.6163Z" fill="black"/>
<path d="M117.823 91.8243C116.888 91.8243 116.327 92.2863 116.008 92.8913V91.9233H115.106V97.4893H116.019V94.6403C116.019 93.4083 116.668 92.6493 117.658 92.6493C118.505 92.6493 118.868 93.1993 118.868 93.8043V97.4893H119.781V93.7163C119.781 92.5063 118.967 91.8243 117.823 91.8243Z" fill="black"/>
<path d="M123.861 96.6753H123.157C122.519 96.6753 122.42 96.3563 122.42 95.8943V92.7373H123.729V91.9233H122.42V90.1853L121.507 90.4383V91.9233H120.44V92.7373H121.507V96.0043C121.507 97.3023 122.255 97.4893 123.058 97.4893H123.861V96.6753Z" fill="black"/>
<path d="M129.716 94.4093H126.559V93.5953H129.716V94.4093Z" fill="black"/>
<path d="M136.162 89.7893H133.126V97.4893H134.05V94.2993H136.041C137.713 94.2993 138.527 93.0893 138.527 91.9563C138.527 90.8233 137.713 89.7893 136.162 89.7893ZM136.041 93.4523H134.05V90.6363H136.074C137.053 90.6363 137.559 91.3073 137.559 92.0223C137.559 92.7263 137.064 93.4523 136.041 93.4523Z" fill="black"/>
<path d="M142.025 89.7893H139.572V97.4893H141.959C144.544 97.4893 145.787 95.5093 145.787 93.5293C145.787 91.5493 144.555 89.7893 142.025 89.7893ZM141.948 96.6423H140.518V90.6363H141.97C143.884 90.6363 144.797 92.0333 144.797 93.5843C144.797 95.1353 143.873 96.6423 141.948 96.6423Z" fill="black"/>
<path d="M147.995 94.0243H151.702V93.1663H147.995V90.6363H151.999V89.7893H147.049V97.4893H147.995V94.0243Z" fill="black"/>
<path d="M160.072 97.4893V96.6423H155.859V94.0243H159.566V93.1663H155.859V90.6363H159.863V89.7893H154.913V97.4893H160.072Z" fill="black"/>
<path d="M166.037 89.6683H165.124V92.8363C164.827 92.2643 164.211 91.8243 163.265 91.8243C161.549 91.8243 160.735 93.2763 160.735 94.7173C160.735 96.1693 161.538 97.6103 163.254 97.6103C164.299 97.6103 164.893 97.0713 165.157 96.4003V97.4893H166.037V89.6683ZM163.364 96.7633C162.176 96.7633 161.67 95.7843 161.67 94.7063C161.67 93.6393 162.176 92.6383 163.375 92.6383C164.563 92.6383 165.102 93.6063 165.102 94.6733C165.102 95.7513 164.563 96.7633 163.364 96.7633Z" fill="black"/>
<path d="M167.392 90.6693H168.415V89.5693H167.392V90.6693ZM167.447 97.4893H168.36V91.9233H167.447V97.4893Z" fill="black"/>
<path d="M172.474 96.6753H171.77C171.132 96.6753 171.033 96.3563 171.033 95.8943V92.7373H172.342V91.9233H171.033V90.1853L170.12 90.4383V91.9233H169.053V92.7373H170.12V96.0043C170.12 97.3023 170.868 97.4893 171.671 97.4893H172.474V96.6753Z" fill="black"/>
<path d="M175.698 91.8243C174.136 91.8243 173.025 92.9353 173.025 94.7173C173.025 96.5103 174.136 97.6103 175.698 97.6103C177.271 97.6103 178.382 96.5103 178.382 94.7173C178.382 92.9353 177.271 91.8243 175.698 91.8243ZM177.447 94.7173C177.447 95.9823 176.765 96.7743 175.72 96.7743C174.719 96.7743 173.96 96.0593 173.96 94.7173C173.96 93.4523 174.642 92.6603 175.687 92.6603C176.688 92.6603 177.447 93.3753 177.447 94.7173Z" fill="black"/>
<path d="M182.297 91.8683H182.033C181.208 91.8683 180.614 92.2093 180.328 92.8913V91.9233H179.426V97.4893H180.339V94.5963C180.339 93.3533 180.955 92.7373 182.044 92.7373H182.297V91.8683Z" fill="black"/>
<path d="M68.968 103.889H66.76V109.489H67.432V107.169H68.88C70.096 107.169 70.688 106.289 70.688 105.465C70.688 104.641 70.096 103.889 68.968 103.889ZM68.88 106.553H67.432V104.505H68.904C69.616 104.505 69.984 104.993 69.984 105.513C69.984 106.025 69.624 106.553 68.88 106.553Z" fill="#8A8A8D"/>
<path d="M73.5518 103.889H71.7678V109.489H73.5038C75.3838 109.489 76.2878 108.049 76.2878 106.609C76.2878 105.169 75.3918 103.889 73.5518 103.889ZM73.4958 108.873H72.4558V104.505H73.5118C74.9038 104.505 75.5678 105.521 75.5678 106.649C75.5678 107.777 74.8958 108.873 73.4958 108.873Z" fill="#8A8A8D"/>
<path d="M78.2136 106.969H80.9096V106.345H78.2136V104.505H81.1256V103.889H77.5256V109.489H78.2136V106.969Z" fill="#8A8A8D"/>
<path d="M85.893 105.401H85.701C85.101 105.401 84.669 105.649 84.461 106.145V105.441H83.805V109.489H84.469V107.385C84.469 106.481 84.917 106.033 85.709 106.033H85.893V105.401Z" fill="#8A8A8D"/>
<path d="M90.0716 107.633V107.321C90.0716 105.993 89.2716 105.369 88.3036 105.369C87.3356 105.369 86.4156 106.009 86.4156 107.465C86.4156 108.913 87.3276 109.577 88.2956 109.577C89.0636 109.577 89.8316 109.177 90.0396 108.313H89.3836C89.2476 108.745 88.8316 108.985 88.3276 108.985C87.6316 108.985 87.0876 108.545 87.0636 107.633H90.0716ZM88.2876 105.945C88.9436 105.945 89.4076 106.393 89.4076 107.097H87.0796C87.1676 106.265 87.7036 105.945 88.2876 105.945Z" fill="#8A8A8D"/>
<path d="M92.7888 105.369C91.8528 105.369 91.1168 105.825 90.9968 106.665H91.6688C91.7728 106.225 92.1328 105.953 92.7568 105.953C93.2528 105.953 93.5808 106.129 93.5808 106.537C93.5808 106.921 93.3088 107.001 92.8928 107.073L92.0928 107.209C91.7248 107.273 90.8688 107.433 90.8688 108.401C90.8688 109.177 91.4528 109.577 92.1568 109.577C92.6048 109.577 93.2208 109.417 93.5888 108.833V109.489H94.2368V106.657C94.2368 105.753 93.6688 105.369 92.7888 105.369ZM93.5728 107.385V107.753C93.5728 108.577 92.9328 108.985 92.2928 108.985C91.8768 108.985 91.5408 108.817 91.5408 108.345C91.5408 107.801 91.9888 107.713 92.3968 107.649L92.8848 107.569C93.2208 107.513 93.3808 107.473 93.5728 107.385Z" fill="#8A8A8D"/>
<path d="M99.131 103.801H98.467V106.105C98.251 105.689 97.803 105.369 97.115 105.369C95.867 105.369 95.275 106.425 95.275 107.473C95.275 108.529 95.859 109.577 97.107 109.577C97.867 109.577 98.299 109.185 98.491 108.697V109.489H99.131V103.801ZM97.187 108.961C96.323 108.961 95.955 108.249 95.955 107.465C95.955 106.689 96.323 105.961 97.195 105.961C98.059 105.961 98.451 106.665 98.451 107.441C98.451 108.225 98.059 108.961 97.187 108.961Z" fill="#8A8A8D"/>
<path d="M103.869 107.633V107.321C103.869 105.993 103.069 105.369 102.101 105.369C101.133 105.369 100.213 106.009 100.213 107.465C100.213 108.913 101.125 109.577 102.093 109.577C102.861 109.577 103.629 109.177 103.837 108.313H103.181C103.045 108.745 102.629 108.985 102.125 108.985C101.429 108.985 100.885 108.545 100.861 107.633H103.869ZM102.085 105.945C102.741 105.945 103.205 106.393 103.205 107.097H100.877C100.965 106.265 101.501 105.945 102.085 105.945Z" fill="#8A8A8D"/>
<path d="M107.034 105.401H106.842C106.242 105.401 105.81 105.649 105.602 106.145V105.441H104.946V109.489H105.61V107.385C105.61 106.481 106.058 106.033 106.85 106.033H107.034V105.401Z" fill="#8A8A8D"/>
<path d="M107.116 110.329L107.18 110.721C107.788 110.713 108.364 110.353 108.364 109.409V108.593H107.46V109.449H107.852C107.852 109.953 107.692 110.273 107.116 110.329Z" fill="#8A8A8D"/>
<path d="M110.849 107.193C110.265 107.105 109.793 107.009 109.793 106.553C109.793 106.137 110.193 105.961 110.649 105.961C111.137 105.961 111.593 106.169 111.601 106.649H112.281C112.273 105.761 111.497 105.369 110.649 105.369C109.793 105.369 109.105 105.769 109.105 106.585C109.105 107.625 110.201 107.721 110.913 107.833C111.321 107.897 111.689 107.993 111.689 108.393C111.689 108.793 111.313 108.985 110.809 108.985C110.257 108.985 109.769 108.761 109.689 108.225H109.001C109.081 109.137 109.873 109.577 110.761 109.577C111.609 109.577 112.393 109.169 112.393 108.305C112.393 107.377 111.497 107.289 110.849 107.193Z" fill="#8A8A8D"/>
<path d="M116.126 108.041C116.102 108.617 115.622 108.977 115.054 108.977C114.438 108.977 113.822 108.553 113.822 107.457C113.822 106.417 114.374 105.945 115.078 105.945C115.718 105.945 116.11 106.321 116.142 106.849H116.79C116.758 105.881 116.038 105.369 115.11 105.369C113.966 105.369 113.15 106.121 113.15 107.497C113.15 108.913 114.006 109.577 115.038 109.577C115.918 109.577 116.718 109.049 116.782 108.041H116.126Z" fill="#8A8A8D"/>
<path d="M119.508 105.369C118.572 105.369 117.836 105.825 117.716 106.665H118.388C118.492 106.225 118.852 105.953 119.476 105.953C119.972 105.953 120.3 106.129 120.3 106.537C120.3 106.921 120.028 107.001 119.612 107.073L118.812 107.209C118.444 107.273 117.588 107.433 117.588 108.401C117.588 109.177 118.172 109.577 118.876 109.577C119.324 109.577 119.94 109.417 120.308 108.833V109.489H120.956V106.657C120.956 105.753 120.388 105.369 119.508 105.369ZM120.292 107.385V107.753C120.292 108.577 119.652 108.985 119.012 108.985C118.596 108.985 118.26 108.817 118.26 108.345C118.26 107.801 118.708 107.713 119.116 107.649L119.604 107.569C119.94 107.513 120.1 107.473 120.292 107.385Z" fill="#8A8A8D"/>
<path d="M124.25 105.369C123.57 105.369 123.162 105.705 122.93 106.145V105.441H122.274V109.489H122.938V107.417C122.938 106.521 123.41 105.969 124.13 105.969C124.746 105.969 125.01 106.369 125.01 106.809V109.489H125.674V106.745C125.674 105.865 125.082 105.369 124.25 105.369Z" fill="#8A8A8D"/>
<path d="M128.969 105.369C128.289 105.369 127.881 105.705 127.649 106.145V105.441H126.993V109.489H127.657V107.417C127.657 106.521 128.129 105.969 128.849 105.969C129.465 105.969 129.729 106.369 129.729 106.809V109.489H130.393V106.745C130.393 105.865 129.801 105.369 128.969 105.369Z" fill="#8A8A8D"/>
<path d="M135.087 107.633V107.321C135.087 105.993 134.287 105.369 133.319 105.369C132.351 105.369 131.431 106.009 131.431 107.465C131.431 108.913 132.343 109.577 133.311 109.577C134.079 109.577 134.847 109.177 135.055 108.313H134.399C134.263 108.745 133.847 108.985 133.343 108.985C132.647 108.985 132.103 108.545 132.079 107.633H135.087ZM133.303 105.945C133.959 105.945 134.423 106.393 134.423 107.097H132.095C132.183 106.265 132.719 105.945 133.303 105.945Z" fill="#8A8A8D"/>
<path d="M138.252 105.401H138.06C137.46 105.401 137.028 105.649 136.82 106.145V105.441H136.164V109.489H136.828V107.385C136.828 106.481 137.276 106.033 138.068 106.033H138.252V105.401Z" fill="#8A8A8D"/>
<path d="M138.335 110.329L138.399 110.721C139.007 110.713 139.583 110.353 139.583 109.409V108.593H138.679V109.449H139.071C139.071 109.953 138.911 110.273 138.335 110.329Z" fill="#8A8A8D"/>
<path d="M142.435 104.393V103.801H141.915C141.339 103.801 140.795 103.977 140.795 104.921V105.441H140.139V106.033H140.795V109.489H141.459V106.033H142.331V105.441H141.459V104.961C141.459 104.625 141.531 104.393 141.995 104.393H142.435Z" fill="#8A8A8D"/>
<path d="M143.257 104.529H144.001V103.729H143.257V104.529ZM143.297 109.489H143.961V105.441H143.297V109.489Z" fill="#8A8A8D"/>
<path d="M145.969 103.801H145.305V109.489H145.969V103.801Z" fill="#8A8A8D"/>
<path d="M147.992 103.801H147.328V109.489H147.992V103.801Z" fill="#8A8A8D"/>
<path d="M152.728 107.633V107.321C152.728 105.993 151.928 105.369 150.96 105.369C149.992 105.369 149.072 106.009 149.072 107.465C149.072 108.913 149.984 109.577 150.952 109.577C151.72 109.577 152.488 109.177 152.696 108.313H152.04C151.904 108.745 151.488 108.985 150.984 108.985C150.288 108.985 149.744 108.545 149.72 107.633H152.728ZM150.944 105.945C151.6 105.945 152.064 106.393 152.064 107.097H149.736C149.824 106.265 150.36 105.945 150.944 105.945Z" fill="#8A8A8D"/>
<path d="M155.893 105.401H155.701C155.101 105.401 154.669 105.649 154.461 106.145V105.441H153.805V109.489H154.469V107.385C154.469 106.481 154.917 106.033 155.709 106.033H155.893V105.401Z" fill="#8A8A8D"/>
<path d="M117.536 121.177V120.561H116.568V116.985H115.728L113.28 120.561V121.161H115.896V122.489H116.568V121.177H117.536ZM113.976 120.561L115.896 117.753V120.561H113.976Z" fill="#8A8A8D"/>
<path d="M120.013 120.601C120.557 120.601 121.173 120.377 121.541 119.753V119.833C121.541 121.441 120.973 121.961 120.173 121.961C119.509 121.961 119.093 121.609 119.045 121.057H118.365C118.429 121.969 119.125 122.577 120.109 122.577C120.941 122.577 122.197 122.145 122.197 119.785C122.197 117.593 121.109 116.889 120.093 116.889C119.061 116.889 118.213 117.609 118.213 118.777C118.213 119.953 119.069 120.601 120.013 120.601ZM120.077 117.513C120.701 117.513 121.341 117.897 121.341 118.745C121.341 119.553 120.733 119.977 120.109 119.977C119.477 119.977 118.885 119.545 118.885 118.713C118.885 117.921 119.445 117.513 120.077 117.513Z" fill="#8A8A8D"/>
<path d="M124.858 116.889C123.578 116.889 122.994 117.993 122.994 119.729C122.994 121.465 123.578 122.577 124.858 122.577C126.138 122.577 126.722 121.465 126.722 119.729C126.722 117.993 126.138 116.889 124.858 116.889ZM124.858 121.961C124.042 121.961 123.674 121.089 123.674 119.729C123.674 118.369 124.042 117.505 124.858 117.505C125.674 117.505 126.042 118.369 126.042 119.729C126.042 121.089 125.674 121.961 124.858 121.961Z" fill="#8A8A8D"/>
<path d="M70.2134 115.917C70.3005 115.635 70.6995 115.635 70.7866 115.917L71.4443 118.045H73.6131C73.9001 118.045 74.0233 118.409 73.7952 118.583L72.0279 119.934L72.695 122.093C72.7813 122.372 72.4584 122.597 72.2263 122.419L70.5 121.101L68.7737 122.419C68.5416 122.597 68.2187 122.372 68.305 122.093L68.9721 119.934L67.2048 118.583C66.9767 118.409 67.0999 118.045 67.3869 118.045H69.5557L70.2134 115.917Z" fill="#8E8E91"/>
<path d="M79.7134 115.917C79.8005 115.635 80.1995 115.635 80.2866 115.917L80.9443 118.045H83.1131C83.4001 118.045 83.5233 118.409 83.2952 118.583L81.5279 119.934L82.195 122.093C82.2813 122.372 81.9584 122.597 81.7263 122.419L80 121.101L78.2737 122.419C78.0416 122.597 77.7187 122.372 77.805 122.093L78.4721 119.934L76.7048 118.583C76.4767 118.409 76.5999 118.045 76.8869 118.045H79.0557L79.7134 115.917Z" fill="#8E8E91"/>
<path d="M88.7134 115.917C88.8005 115.635 89.1995 115.635 89.2866 115.917L89.9443 118.045H92.1131C92.4001 118.045 92.5233 118.409 92.2952 118.583L90.5279 119.934L91.195 122.093C91.2813 122.372 90.9584 122.597 90.7263 122.419L89 121.101L87.2737 122.419C87.0416 122.597 86.7187 122.372 86.805 122.093L87.4721 119.934L85.7048 118.583C85.4767 118.409 85.5999 118.045 85.8869 118.045H88.0557L88.7134 115.917Z" fill="#8E8E91"/>
<path d="M97.7134 115.917C97.8005 115.635 98.1995 115.635 98.2866 115.917L98.9443 118.045H101.113C101.4 118.045 101.523 118.409 101.295 118.583L99.5279 119.934L100.195 122.093C100.281 122.372 99.9584 122.597 99.7263 122.419L98 121.101L96.2737 122.419C96.0416 122.597 95.7187 122.372 95.805 122.093L96.4721 119.934L94.7048 118.583C94.4767 118.409 94.5999 118.045 94.8869 118.045H97.0557L97.7134 115.917Z" fill="#8E8E91"/>
<path d="M107.705 118.119L107.76 118.295H107.944H110.113C110.13 118.295 110.138 118.3 110.143 118.303C110.15 118.308 110.156 118.317 110.16 118.329C110.165 118.341 110.164 118.352 110.162 118.36C110.161 118.366 110.157 118.375 110.143 118.385L108.376 119.735L108.238 119.841L108.289 120.007L108.956 122.166C108.961 122.183 108.959 122.192 108.957 122.198C108.954 122.206 108.948 122.215 108.937 122.222C108.926 122.23 108.916 122.232 108.907 122.232C108.901 122.232 108.892 122.231 108.878 122.221L107.152 120.902L107 120.786L106.848 120.902L105.122 122.221C105.108 122.231 105.099 122.232 105.093 122.232C105.084 122.232 105.074 122.23 105.063 122.222C105.052 122.215 105.046 122.206 105.043 122.198C105.041 122.192 105.039 122.183 105.044 122.166L105.711 120.007L105.762 119.841L105.624 119.735L103.857 118.385C103.843 118.375 103.839 118.366 103.838 118.36C103.836 118.352 103.835 118.341 103.84 118.329C103.844 118.317 103.85 118.308 103.857 118.303C103.862 118.3 103.87 118.295 103.887 118.295H106.056H106.24L106.295 118.119L106.952 115.991C106.957 115.974 106.964 115.967 106.97 115.964C106.976 115.959 106.987 115.955 107 115.955C107.013 115.955 107.024 115.959 107.03 115.964C107.036 115.967 107.043 115.974 107.048 115.991L107.705 118.119Z" stroke="#8E8E91" stroke-width="0.5"/>
<path fill-rule="evenodd" clip-rule="evenodd" d="M107 115.705C106.878 115.705 106.757 115.776 106.713 115.917L106.056 118.045H103.887C103.6 118.045 103.477 118.409 103.705 118.583L105.472 119.933L104.805 122.092C104.719 122.371 105.042 122.596 105.274 122.419L107 121.1V115.705Z" fill="#8E8E91"/>
<g clip-path="url(#clip1)" filter="url(#filter0_i)">
<g clip-path="url(#clip2)">
<rect width="38" height="38" transform="translate(23 86)" fill="url(#paint0_linear)"/>
<path d="M41.9767 107.804H34.875V100.682L43.0179 100.679V100.718C42.421 100.861 41.9774 101.399 41.9774 102.042L41.9767 107.804Z" fill="white"/>
<path d="M34.875 99.916H49.125V92.791H34.875V99.916Z" fill="white"/>
<path d="M61 115.618V124H23V115.618C29.2305 114.88 35.5709 114.5 42 114.5C48.4291 114.5 54.7695 114.88 61 115.618Z" fill="white"/>
<path d="M44.9498 120.391C45.1104 120.23 45.1085 119.97 44.9478 119.809L42.0202 116.875L40.7906 118.107C40.6535 118.244 40.4437 118.264 40.2855 118.167L40.2773 118.175L43.7193 121.625L44.9498 120.391Z" fill="black"/>
<path d="M41.5504 120.393L40.3207 121.625L37.1016 118.399L38.6216 116.875L41.5504 119.811C41.7108 119.971 41.7108 120.232 41.5504 120.393Z" fill="black"/>
<path d="M46.9381 118.399L45.4187 119.922L43.6752 118.175L43.6834 118.167C43.8416 118.265 44.0515 118.245 44.1885 118.107L45.4181 116.875L46.9381 118.399Z" fill="black"/>
</g>
</g>
<rect x="23.2" y="86.2" width="37.6" height="37.6" rx="8.47" stroke="#3C4798" stroke-width="0.4"/>
</g>
<defs>
<filter id="filter0_i" x="23" y="86" width="38" height="38" filterUnits="userSpaceOnUse" color-interpolation-filters="sRGB">
<feFlood flood-opacity="0" result="BackgroundImageFix"/>
<feBlend mode="normal" in="SourceGraphic" in2="BackgroundImageFix" result="shape"/>
<feColorMatrix in="SourceAlpha" type="matrix" values="0 0 0 0 0 0 0 0 0 0 0 0 0 0 0 0 0 0 127 0" result="hardAlpha"/>
<feOffset/>
<feGaussianBlur stdDeviation="0.0742188"/>
<feComposite in2="hardAlpha" operator="arithmetic" k2="-1" k3="1"/>
<feColorMatrix type="matrix" values="0 0 0 0 0 0 0 0 0 0 0 0 0 0 0 0 0 0 0.24 0"/>
<feBlend mode="darken" in2="shape" result="effect1_innerShadow"/>
</filter>
<linearGradient id="paint0_linear" x1="19" y1="0" x2="19" y2="38" gradientUnits="userSpaceOnUse">
<stop stop-color="#414C9A"/>
<stop offset="1" stop-color="#364295"/>
</linearGradient>
<clipPath id="clip0">
<rect width="250" height="288" fill="white"/>
</clipPath>
<clipPath id="clip1">
<rect width="38" height="38" fill="white" transform="translate(23 86)"/>
</clipPath>
<clipPath id="clip2">
<rect x="23" y="86" width="38" height="38" rx="8.6699" fill="white"/>
</clipPath>
</defs>
</svg>
