<svg width="16" height="16" viewBox="0 0 16 16" fill="none" xmlns="http://www.w3.org/2000/svg">
<path d="M13 2H3V14H11L13 12V2Z" fill="white"/>
<rect x="3" y="2" width="10" height="3" fill="#F2994A"/>
<rect x="4" y="6" width="8" height="1" rx="0.5" fill="#5C6182"/>
<rect x="4" y="8" width="8" height="1" rx="0.5" fill="#5C6182"/>
<rect x="4" y="10" width="4" height="1" rx="0.5" fill="#5C6182"/>
<path fill-rule="evenodd" clip-rule="evenodd" d="M2 2.5C2 1.67157 2.67157 1 3.5 1H12.5C13.3284 1 14 1.67157 14 2.5V11.7071L10.7071 15H3.5C2.67157 15 2 14.3284 2 13.5V2.5ZM3.5 2C3.22386 2 3 2.22386 3 2.5V13.5C3 13.7761 3.22386 14 3.5 14H10V12.5C10 11.6716 10.6716 11 11.5 11H13V2.5C13 2.22386 12.7761 2 12.5 2H3.5ZM12.2929 12H11.5C11.2239 12 11 12.2239 11 12.5V13.2929L12.2929 12Z" fill="#5C6182"/>
</svg>
