<svg width="136" height="136" viewBox="0 0 136 136" fill="none" xmlns="http://www.w3.org/2000/svg">
<path d="M56.4413 95.1971C54.0939 95.1971 52.49 97.0666 52.49 99.2546C52.49 101.441 54.0939 103.314 56.4413 103.314C57.3336 103.314 58.3423 102.848 58.8216 102.07V103.113H60.6226V91.5188H58.8216V96.4385C58.3423 95.6598 57.3336 95.1971 56.4413 95.1971ZM56.5402 96.8031C57.9297 96.8031 58.8216 97.93 58.8216 99.2546C58.8216 100.579 57.9297 101.706 56.5402 101.706C55.1848 101.706 54.2917 100.579 54.2917 99.2546C54.2917 97.93 55.1847 96.8031 56.5402 96.8031Z" fill="black"/>
<path d="M82.9884 103.113H84.7919V99.1226C84.7919 97.7971 85.3855 96.7862 86.6435 96.7862C87.9333 96.7862 88.3116 97.7971 88.3116 99.1226V103.113H90.1148V98.5257C90.1148 97.4646 89.9983 96.8187 89.6188 96.2402C89.189 95.5945 88.4114 95.1971 87.304 95.1971C86.1629 95.1971 85.2712 95.6437 84.7919 96.4736V91.5188H82.9884V103.113Z" fill="black"/>
<path d="M26.6347 103.113H25.4273L22.4356 95.3954H24.3695L26.0392 100.281L27.7752 95.3954H29.5436L31.2799 100.281L32.949 95.3954H34.883L31.8909 103.113H30.6843L28.6677 97.3505L26.6347 103.113Z" fill="black"/>
<path d="M38.9578 95.1961C36.5121 95.1961 34.9078 97.0656 34.9078 99.2536C34.9078 101.44 36.5121 103.313 38.9578 103.313C41.4377 103.313 43.0418 101.44 43.0418 99.2536C43.0418 97.0656 41.4377 95.1961 38.9578 95.1961ZM36.7099 99.2536C36.7099 97.9289 37.6023 96.802 38.9578 96.802C40.3473 96.802 41.2398 97.9289 41.2398 99.2536C41.2398 100.578 40.3473 101.705 38.9578 101.705C37.6023 101.705 36.7099 100.578 36.7099 99.2536Z" fill="black"/>
<path d="M44.1431 103.113H45.9441V99.1226C45.9441 97.7971 46.54 96.7862 47.7953 96.7862C49.0854 96.7862 49.4664 97.7971 49.4664 99.1226V103.113H51.2674V98.5257C51.2674 97.4646 51.1516 96.8187 50.7718 96.2402C50.342 95.5945 49.5659 95.1971 48.4566 95.1971C47.3168 95.1971 46.4241 95.6437 45.9441 96.4736V95.3954H44.1431L44.1431 103.113Z" fill="black"/>
<path d="M61.7568 99.2546C61.7568 101.358 63.0125 103.314 65.6086 103.314C67.5753 103.314 68.8153 102.119 69.0635 100.795H67.2446C67.0139 101.341 66.6333 101.804 65.6086 101.804C64.1538 101.804 63.6076 100.911 63.5913 99.801H69.0472C69.1294 99.3054 69.1294 98.9409 69.1294 98.6753C69.1294 96.7036 67.5597 95.1971 65.5593 95.1971C63.1295 95.1971 61.7568 96.9359 61.7568 99.2546ZM63.6076 98.4608C63.6076 97.3163 64.451 96.7036 65.5098 96.7036C66.6002 96.7036 67.378 97.3822 67.378 98.4608H63.6076Z" fill="black"/>
<path d="M70.2302 103.113H72.031V99.7853C72.031 97.8631 72.8751 96.9853 74.4132 96.9853C74.6929 96.9853 74.8422 97.0014 75.1229 97.0667V95.411C74.9239 95.3288 74.6929 95.296 74.4132 95.296C73.387 95.296 72.3785 95.9241 72.031 96.6376V95.3954H70.2302V103.113Z" fill="black"/>
<path d="M79.9676 97.8151H81.7194C81.7194 96.3067 80.4132 95.1971 78.7774 95.1971C77.2066 95.1971 75.8838 95.9743 75.8838 97.433C75.8838 98.7744 76.6449 99.1729 77.72 99.5855C79.3391 100.215 80.1167 100.266 80.1167 100.994C80.1167 101.655 79.5702 101.889 78.8596 101.889C78.0001 101.889 77.3718 101.524 77.3718 100.513H75.619C75.619 102.335 77.1075 103.314 78.7605 103.314C80.4463 103.314 81.8349 102.567 81.8349 100.96C81.8349 99.5534 80.8113 99.1729 79.7361 98.7583C78.3312 98.2121 77.6204 98.1283 77.6204 97.4646C77.6204 96.9184 78.1165 96.6212 78.7266 96.6212C79.6034 96.6212 79.9676 97.085 79.9676 97.8151Z" fill="black"/>
<path d="M95.1916 95.1971C92.8452 95.1971 91.2408 97.0667 91.2408 99.2546C91.2408 101.441 92.8452 103.314 95.1916 103.314C96.0852 103.314 97.0926 102.848 97.573 102.07V103.113H99.3756V95.3954H97.573V96.4385C97.0926 95.6598 96.0852 95.1971 95.1916 95.1971ZM95.2924 96.8031C96.6811 96.8031 97.573 97.93 97.573 99.2546C97.573 100.579 96.6811 101.706 95.2924 101.706C93.937 101.706 93.0443 100.579 93.0443 99.2546C93.0443 97.93 93.937 96.8031 95.2924 96.8031Z" fill="black"/>
<path d="M101.001 103.113H102.804V99.7853C102.804 97.8631 103.646 96.9853 105.184 96.9853C105.465 96.9853 105.613 97.0014 105.895 97.0667V95.411C105.696 95.3288 105.465 95.296 105.184 95.296C104.159 95.296 103.151 95.9241 102.804 96.6376V95.3954H101.001V103.113Z" fill="black"/>
<path d="M109.943 96.7036C111.033 96.7036 111.811 97.3822 111.811 98.4608H108.041C108.041 97.3163 108.883 96.7036 109.943 96.7036ZM113.479 99.801C113.562 99.3054 113.562 98.9409 113.562 98.6753C113.562 96.7036 111.992 95.1971 109.991 95.1971C107.561 95.1971 106.189 96.9359 106.189 99.2546C106.189 101.358 107.445 103.314 110.041 103.314C112.01 103.314 113.248 102.119 113.496 100.795H111.678C111.447 101.341 111.066 101.804 110.041 101.804C108.587 101.804 108.041 100.911 108.025 99.801H113.479Z" fill="black"/>
<path d="M78.1626 79.5233C78.7196 78.9618 78.7127 78.0623 78.1553 77.5035L68.001 67.3268L63.7363 71.6C63.2609 72.0763 62.5331 72.1455 61.9843 71.8075L61.9559 71.836L73.8944 83.801L78.1626 79.5233Z" fill="black"/>
<path d="M66.3719 79.5274L62.1067 83.802L50.941 72.6117L56.2133 67.3278L66.3719 77.5089C66.928 78.0662 66.928 78.97 66.3719 79.5274Z" fill="black"/>
<path d="M85.059 72.6117L79.7888 77.8935L73.7416 71.8371L73.77 71.8086C74.3188 72.1466 75.0466 72.0774 75.5219 71.6009L79.7867 67.3278L85.059 72.6117Z" fill="black"/>
</svg>
