<svg width="113" height="40" viewBox="0 0 113 40" fill="none" xmlns="http://www.w3.org/2000/svg">
<g clip-path="url(#clip0)" filter="url(#filter0_i)">
<g clip-path="url(#clip1)">
<rect width="40" height="40" fill="url(#paint0_linear)"/>
<path d="M19.9672 30.6027H10V20.6062L21.4286 20.6027V20.6565C20.5909 20.8571 19.9683 21.6126 19.9683 22.5148L19.9672 30.6027Z" fill="white"/>
<path d="M10 19.5312H30V9.53125H10V19.5312Z" fill="white"/>
</g>
</g>
<path d="M63.04 16.408V14.536H48.976V16.408H52.704C52.592 20.264 52.464 24.52 48.352 26.824C48.848 27.192 49.44 27.848 49.728 28.36C52.704 26.568 53.856 23.8 54.352 20.84H59.68C59.504 24.264 59.248 25.832 58.832 26.232C58.624 26.408 58.416 26.44 58.08 26.44C57.6 26.44 56.512 26.44 55.408 26.344C55.76 26.872 56.032 27.672 56.08 28.216C57.136 28.264 58.24 28.28 58.864 28.2C59.584 28.12 60.096 27.96 60.576 27.4C61.2 26.696 61.472 24.76 61.712 19.848C61.744 19.608 61.76 19 61.76 19H54.576C54.656 18.136 54.688 17.256 54.72 16.408H63.04ZM64.768 20.888V22.712H79.232V20.888H64.768ZM73.312 24.136C74.704 25.432 76.592 27.272 77.44 28.376L79.392 27.304C78.432 26.152 76.48 24.424 75.136 23.224L73.312 24.136ZM68.496 23.176C67.712 24.44 66.048 26.04 64.528 27C65.008 27.336 65.76 27.96 66.192 28.376C67.76 27.288 69.456 25.56 70.64 23.96L68.496 23.176ZM64.736 15.416C65.68 16.856 66.656 18.856 67.008 20.136L68.88 19.304C68.448 18.008 67.488 16.136 66.464 14.712L64.736 15.416ZM69.472 14.088C70.24 15.608 70.976 17.688 71.184 19.016L73.104 18.312C72.816 16.968 72.08 15.016 71.248 13.48L69.472 14.088ZM77.04 13.912C76.336 15.88 75.088 18.344 74.032 19.912L75.936 20.552C76.976 19.032 78.272 16.712 79.248 14.536L77.04 13.912ZM81.456 27H83.824V22.792H85.408C87.952 22.792 89.984 21.576 89.984 18.872C89.984 16.072 87.968 15.144 85.344 15.144H81.456V27ZM83.824 20.92V17.032H85.168C86.8 17.032 87.664 17.496 87.664 18.872C87.664 20.232 86.88 20.92 85.248 20.92H83.824ZM92.1279 27H95.5039C98.9919 27 101.232 25.016 101.232 21.032C101.232 17.032 98.9919 15.144 95.3759 15.144H92.1279V27ZM94.4959 25.096V17.048H95.2319C97.4399 17.048 98.8159 18.136 98.8159 21.032C98.8159 23.912 97.4399 25.096 95.2319 25.096H94.4959ZM103.55 27H105.918V22.2H110.126V20.216H105.918V17.128H110.846V15.144H103.55V27Z" fill="black"/>
<defs>
<filter id="filter0_i" x="0" y="0" width="40" height="40" filterUnits="userSpaceOnUse" color-interpolation-filters="sRGB">
<feFlood flood-opacity="0" result="BackgroundImageFix"/>
<feBlend mode="normal" in="SourceGraphic" in2="BackgroundImageFix" result="shape"/>
<feColorMatrix in="SourceAlpha" type="matrix" values="0 0 0 0 0 0 0 0 0 0 0 0 0 0 0 0 0 0 127 0" result="hardAlpha"/>
<feOffset/>
<feGaussianBlur stdDeviation="0.078125"/>
<feComposite in2="hardAlpha" operator="arithmetic" k2="-1" k3="1"/>
<feColorMatrix type="matrix" values="0 0 0 0 0 0 0 0 0 0 0 0 0 0 0 0 0 0 0.24 0"/>
<feBlend mode="darken" in2="shape" result="effect1_innerShadow"/>
</filter>
<linearGradient id="paint0_linear" x1="20" y1="0" x2="20" y2="40" gradientUnits="userSpaceOnUse">
<stop stop-color="#414C9A"/>
<stop offset="1" stop-color="#364295"/>
</linearGradient>
<clipPath id="clip0">
<rect width="40" height="40" fill="white"/>
</clipPath>
<clipPath id="clip1">
<rect width="40" height="40" rx="9.12621" fill="white"/>
</clipPath>
</defs>
</svg>
