<svg width="16" height="16" viewBox="0 0 16 16" fill="none" xmlns="http://www.w3.org/2000/svg">
<path fill-rule="evenodd" clip-rule="evenodd" d="M3.05026 12.9498C1.48816 11.3877 1.48816 8.85501 3.05026 7.29291L8.00001 2.34316L8.70711 3.05027L3.75737 8.00002C2.58579 9.17159 2.58579 11.0711 3.75737 12.2427C4.92894 13.4142 6.82843 13.4142 8.00001 12.2427L12.9498 7.29291C13.7308 6.51186 13.7308 5.24553 12.9498 4.46448C12.1687 3.68344 10.9024 3.68344 10.1213 4.46448L5.17158 9.41423C4.78106 9.80476 4.78106 10.4379 5.17158 10.8284C5.5621 11.219 6.19527 11.219 6.58579 10.8284L11.8891 5.52514L12.5962 6.23225L7.2929 11.5356C6.51185 12.3166 5.24552 12.3166 4.46447 11.5356C3.68342 10.7545 3.68342 9.48817 4.46447 8.70712L9.41422 3.75738C10.5858 2.5858 12.4853 2.5858 13.6569 3.75738C14.8284 4.92895 14.8284 6.82845 13.6569 8.00002L8.70711 12.9498C7.14502 14.5119 4.61236 14.5119 3.05026 12.9498Z" fill="#5C6182"/>
</svg>
