<svg width="160" height="42" viewBox="0 0 160 42" fill="none" xmlns="http://www.w3.org/2000/svg">
<path d="M12.5 12V19H27.5V12" stroke="#212648"/>
<path d="M27.5 30V24.5L25.5 22.5H12.5V30" stroke="#212648"/>
<path d="M25 25V22L27.5 25H25Z" fill="#212648"/>
<path fill-rule="evenodd" clip-rule="evenodd" d="M37 39V34L38 33V40H31L32 39H37Z" fill="#666666"/>
<path fill-rule="evenodd" clip-rule="evenodd" d="M77 39V34L78 33V40H71L72 39H77Z" fill="#666666"/>
<path d="M67 29.5H67.5V29V15V14.7929L67.3536 14.6464L65.3536 12.6464L65.2071 12.5H65H53H52.5V13V29V29.5H53H67Z" stroke="#212648"/>
<path d="M65 15V12L67.5 15H65Z" fill="#212648"/>
<path fill-rule="evenodd" clip-rule="evenodd" d="M117 39V34L118 33V40H111L112 39H117Z" fill="#666666"/>
<path d="M98 29.5H98.5V29V14V13.7929L98.3536 13.6464L97.3536 12.6464L97.2071 12.5H97H93H92.5V13V29V29.5H93H98Z" stroke="#212648"/>
<path d="M107 29.5H107.5V29V14V13.7929L107.354 13.6464L106.354 12.6464L106.207 12.5H106H102H101.5V13V29V29.5H102H107Z" stroke="#212648"/>
<path d="M105.5 14.5V12L108 14.5H105.5Z" fill="#212648"/>
<path d="M96.5 14.5V12L99 14.5H96.5Z" fill="#212648"/>
<path fill-rule="evenodd" clip-rule="evenodd" d="M157 39V34L158 33V40H151L152 39H157Z" fill="#666666"/>
<path d="M138 19.5H138.5V19V14V13.7929L138.354 13.6464L137.354 12.6464L137.207 12.5H137H132H131.5V13V19V19.5H132H138Z" stroke="#212648"/>
<path d="M136.5 14.5V12L139 14.5H136.5Z" fill="#212648"/>
<path d="M148 19.5H148.5V19V14V13.7929L148.354 13.6464L147.354 12.6464L147.207 12.5H147H142H141.5V13V19V19.5H142H148Z" stroke="#212648"/>
<path d="M146.5 14.5V12L149 14.5H146.5Z" fill="#212648"/>
<path d="M138 29.5H138.5V29V24V23.7929L138.354 23.6464L137.354 22.6464L137.207 22.5H137H132H131.5V23V29V29.5H132H138Z" stroke="#212648"/>
<path d="M136.5 24.5V22L139 24.5H136.5Z" fill="#212648"/>
<path d="M148 29.5H148.5V29V24V23.7929L148.354 23.6464L147.354 22.6464L147.207 22.5H147H142H141.5V23V29V29.5H142H148Z" stroke="#212648"/>
<path d="M146.5 24.5V22L149 24.5H146.5Z" fill="#212648"/>
</svg>
