<svg width="48" height="24" viewBox="0 0 48 24" fill="none" xmlns="http://www.w3.org/2000/svg">
<path d="M3 5H18V8H16V7H12V18L13 18V20H8V18L9 18V7H5V8H3V6.54196V5Z" fill="#9CADC2"/>
<rect x="15.5" y="2.5" width="7" height="19" fill="url(#paint0_linear)" stroke="#6A52FC"/>
<g opacity="0.4">
<path d="M27 5H42V8H40V7H36V18L37 18V20H32V18L33 18V7H29V8H27V6.54196V5Z" fill="#9CADC2"/>
<rect x="39.5" y="2.5" width="7" height="19" fill="url(#paint1_linear)" stroke="#6A52FC"/>
</g>
<defs>
<linearGradient id="paint0_linear" x1="19" y1="2" x2="19" y2="22" gradientUnits="userSpaceOnUse">
<stop stop-color="#8CA5FF"/>
<stop offset="1" stop-color="#7B72FB"/>
</linearGradient>
<linearGradient id="paint1_linear" x1="43" y1="2" x2="43" y2="22" gradientUnits="userSpaceOnUse">
<stop stop-color="#8CA5FF"/>
<stop offset="1" stop-color="#7B72FB"/>
</linearGradient>
</defs>
</svg>
