<svg width="48" height="24" viewBox="0 0 48 24" fill="none" xmlns="http://www.w3.org/2000/svg">
<rect x="4.5" y="4.5" width="15" height="7" fill="url(#paint0_linear)" stroke="#6A52FC"/>
<path d="M4.5 16.5L7 14M4.5 16.5L7 19M4.5 16.5H19.5M19.5 16.5L17 14M19.5 16.5L17 19" stroke="#6A52FC"/>
<rect x="2.5" y="2.5" width="19" height="19" stroke="#6A52FC"/>
<g opacity="0.4">
<rect x="28.5" y="4.5" width="15" height="7" fill="url(#paint1_linear)" stroke="#6A52FC"/>
<path d="M28.5 16.5L31 14M28.5 16.5L31 19M28.5 16.5H43.5M43.5 16.5L41 14M43.5 16.5L41 19" stroke="#6A52FC"/>
<rect x="26.5" y="2.5" width="19" height="19" stroke="#6A52FC"/>
</g>
<defs>
<linearGradient id="paint0_linear" x1="12" y1="5.57568" x2="12" y2="10.5385" gradientUnits="userSpaceOnUse">
<stop stop-color="#8CA5FF"/>
<stop offset="1" stop-color="#7B72FB"/>
</linearGradient>
<linearGradient id="paint1_linear" x1="36" y1="5.57568" x2="36" y2="10.5385" gradientUnits="userSpaceOnUse">
<stop stop-color="#8CA5FF"/>
<stop offset="1" stop-color="#7B72FB"/>
</linearGradient>
</defs>
</svg>
