<svg width="48" height="24" viewBox="0 0 48 24" fill="none" xmlns="http://www.w3.org/2000/svg">
<g clip-path="url(#clip0)">
<path d="M5.24522 21.6375L5.04907 9.97724L10.1471 7.14711L15.3433 10.1471L15.4414 15.9772L5.24522 21.6375ZM5.24522 21.6375L8.74522 15.5753" stroke="#6A52FC"/>
<circle cx="9.2452" cy="14.7093" r="1.5" transform="rotate(30 9.2452 14.7093)" fill="#6A52FC"/>
<rect x="11.6471" y="4.54904" width="6" height="3" transform="rotate(30 11.6471 4.54904)" fill="url(#paint0_linear)" stroke="#6A52FC"/>
<path d="M9 22L12.4533 19.928C13.3321 19.4007 14.4673 19.6231 15.0823 20.443L15.8648 21.4864C16.5017 22.3356 17.691 22.5393 18.5742 21.9505L23 19" stroke="#6A52FC"/>
</g>
<g opacity="0.4" clip-path="url(#clip1)">
<path d="M29.2452 21.6375L29.0491 9.97724L34.1471 7.14711L39.3433 10.1471L39.4414 15.9772L29.2452 21.6375ZM29.2452 21.6375L32.7452 15.5753" stroke="#6A52FC"/>
<circle cx="33.2452" cy="14.7093" r="1.5" transform="rotate(30 33.2452 14.7093)" fill="#6A52FC"/>
<rect x="35.6471" y="4.54904" width="6" height="3" transform="rotate(30 35.6471 4.54904)" fill="url(#paint1_linear)" stroke="#6A52FC"/>
<path d="M33 22L36.4533 19.928C37.3321 19.4007 38.4673 19.6231 39.0823 20.443L39.8648 21.4864C40.5017 22.3356 41.691 22.5393 42.5742 21.9505L47 19" stroke="#6A52FC"/>
</g>
<defs>
<linearGradient id="paint0_linear" x1="15.353" y1="3.63845" x2="15.353" y2="7.65114" gradientUnits="userSpaceOnUse">
<stop stop-color="#8CA5FF"/>
<stop offset="1" stop-color="#7B72FB"/>
</linearGradient>
<linearGradient id="paint1_linear" x1="39.353" y1="3.63845" x2="39.353" y2="7.65114" gradientUnits="userSpaceOnUse">
<stop stop-color="#8CA5FF"/>
<stop offset="1" stop-color="#7B72FB"/>
</linearGradient>
<clipPath id="clip0">
<rect width="24" height="24" fill="white"/>
</clipPath>
<clipPath id="clip1">
<rect width="24" height="24" fill="white" transform="translate(24)"/>
</clipPath>
</defs>
</svg>
