<svg width="48" height="24" viewBox="0 0 48 24" fill="none" xmlns="http://www.w3.org/2000/svg">
<rect x="7.5" y="17.5" width="8" height="3" transform="rotate(-90 7.5 17.5)" fill="url(#paint0_linear)" stroke="#6A52FC"/>
<rect x="13.5" y="17.5" width="11" height="3" transform="rotate(-90 13.5 17.5)" fill="url(#paint1_linear)" stroke="#6A52FC"/>
<rect x="20" y="19" width="1" height="16" transform="rotate(90 20 19)" fill="#6A52FC"/>
<g opacity="0.4">
<rect x="31.5" y="17.5" width="8" height="3" transform="rotate(-90 31.5 17.5)" fill="url(#paint2_linear)" stroke="#6A52FC"/>
<rect x="37.5" y="17.5" width="11" height="3" transform="rotate(-90 37.5 17.5)" fill="url(#paint3_linear)" stroke="#6A52FC"/>
<rect x="44" y="19" width="1" height="16" transform="rotate(90 44 19)" fill="#6A52FC"/>
</g>
<defs>
<linearGradient id="paint0_linear" x1="15.3571" y1="20" x2="7.64286" y2="20" gradientUnits="userSpaceOnUse">
<stop stop-color="#8CA5FF"/>
<stop offset="1" stop-color="#7B72FB"/>
</linearGradient>
<linearGradient id="paint1_linear" x1="24.1429" y1="20" x2="13.8571" y2="20" gradientUnits="userSpaceOnUse">
<stop stop-color="#8CA5FF"/>
<stop offset="1" stop-color="#7B72FB"/>
</linearGradient>
<linearGradient id="paint2_linear" x1="39.3571" y1="20" x2="31.6429" y2="20" gradientUnits="userSpaceOnUse">
<stop stop-color="#8CA5FF"/>
<stop offset="1" stop-color="#7B72FB"/>
</linearGradient>
<linearGradient id="paint3_linear" x1="48.1429" y1="20" x2="37.8571" y2="20" gradientUnits="userSpaceOnUse">
<stop stop-color="#8CA5FF"/>
<stop offset="1" stop-color="#7B72FB"/>
</linearGradient>
</defs>
</svg>
