<svg width="123" height="32" viewBox="0 0 123 32" fill="none" xmlns="http://www.w3.org/2000/svg">
<g clip-path="url(#clip0)" filter="url(#filter0_i)">
<g clip-path="url(#clip1)">
<rect width="32" height="32" fill="url(#paint0_linear)"/>
<path d="M15.9738 24.4821H8V16.485L17.1429 16.4821V16.5252C16.4727 16.6857 15.9746 17.2901 15.9746 18.0118L15.9738 24.4821Z" fill="white"/>
<path d="M8 15.625H24V7.625H8V15.625Z" fill="white"/>
</g>
</g>
<path d="M51.678 4.2H49.816L48.094 11.2L45.98 4.2H44.188L42.074 11.186L40.352 4.2H38.42L41.094 14H42.9L45.056 6.846L47.212 14H49.004L51.678 4.2ZM55.1752 6.664C53.0752 6.664 51.6052 8.064 51.6052 10.402C51.6052 12.754 53.0752 14.154 55.1752 14.154C57.2892 14.154 58.7592 12.754 58.7592 10.402C58.7592 8.064 57.2892 6.664 55.1752 6.664ZM55.1612 8.274C56.2112 8.274 56.9812 8.96 56.9812 10.402C56.9812 11.76 56.3232 12.544 55.2032 12.544C54.1532 12.544 53.3832 11.858 53.3832 10.402C53.3832 9.058 54.0412 8.274 55.1612 8.274ZM63.8634 6.664C62.6594 6.664 62.0714 7.168 61.6654 7.84V6.79H59.9434V14H61.6794V10.108C61.6794 8.932 62.2254 8.218 63.2614 8.218C64.1154 8.218 64.6054 8.694 64.6054 9.506V14H66.3414V9.352C66.3414 7.63 65.5014 6.664 63.8634 6.664ZM74.6896 4.046H72.9536V7.742C72.5196 7.042 71.6376 6.664 70.6996 6.664C68.9356 6.664 67.4656 7.896 67.4656 10.388C67.4656 12.922 68.9356 14.154 70.6996 14.154C71.6936 14.154 72.5896 13.72 72.9816 12.894V14H74.6896V4.046ZM71.1056 12.558C70.0976 12.558 69.2296 11.844 69.2296 10.388C69.2296 8.918 70.0976 8.204 71.1056 8.204C72.0436 8.204 72.9956 8.904 72.9956 10.388C72.9956 11.858 72.0436 12.558 71.1056 12.558ZM82.5804 10.92V10.206C82.5804 7.826 81.0964 6.664 79.3464 6.664C77.5124 6.664 75.8744 7.924 75.8744 10.444C75.8744 12.95 77.4844 14.154 79.3044 14.154C80.7744 14.154 82.1604 13.356 82.5244 11.83H80.9004C80.6484 12.404 80.0604 12.656 79.3744 12.656C78.3384 12.656 77.5964 12.096 77.5544 10.92H82.5804ZM79.3324 8.162C80.2704 8.162 80.8724 8.694 80.8724 9.646H77.5964C77.7504 8.596 78.5064 8.162 79.3324 8.162ZM87.8491 6.706H87.3731C86.5331 6.706 85.8611 7.07 85.4971 7.854V6.79H83.7751V14H85.5111V10.472C85.5111 9.058 86.1691 8.4 87.3871 8.4H87.8491V6.706ZM91.6359 9.702C90.7539 9.576 90.1239 9.464 90.1239 8.904C90.1239 8.484 90.4599 8.106 91.3139 8.106C92.0559 8.106 92.5599 8.386 92.6299 9.1H94.3239C94.2259 7.49 92.9799 6.664 91.2999 6.664C89.8019 6.664 88.4299 7.322 88.4299 8.96C88.4299 10.738 90.0399 10.976 91.4539 11.214C92.4479 11.382 92.7839 11.494 92.7839 11.942C92.7839 12.488 92.2659 12.726 91.5239 12.726C90.7119 12.726 90.0819 12.418 89.9559 11.69H88.2059C88.3319 13.51 89.9419 14.154 91.4399 14.154C93.0499 14.154 94.4919 13.384 94.4919 11.76C94.4919 10.08 92.9239 9.898 91.6359 9.702ZM99.536 6.664C98.318 6.664 97.758 7.168 97.352 7.854V4.046H95.616V14H97.352V10.108C97.352 8.932 97.898 8.218 98.934 8.218C99.788 8.218 100.278 8.694 100.278 9.506V14H102.014V9.352C102.014 7.63 101.174 6.664 99.536 6.664ZM106.694 6.664C104.902 6.664 103.628 7.476 103.348 9.156H105C105.154 8.61 105.462 8.092 106.54 8.092C107.156 8.092 107.73 8.288 107.73 8.834C107.73 9.436 107.17 9.548 106.89 9.59L105.434 9.8C104.776 9.898 103.138 10.206 103.138 12.012C103.138 13.538 104.314 14.154 105.462 14.154C106.232 14.154 107.17 13.874 107.73 12.95V14H109.424V9.002C109.424 7.308 108.276 6.664 106.694 6.664ZM105.91 12.712C105.294 12.712 104.874 12.446 104.874 11.872C104.874 11.074 105.728 10.948 106.036 10.906L106.764 10.794C107.128 10.738 107.422 10.696 107.688 10.584V10.976C107.688 11.942 106.96 12.712 105.91 12.712ZM115.113 6.706H114.637C113.797 6.706 113.125 7.07 112.761 7.854V6.79H111.039V14H112.775V10.472C112.775 9.058 113.433 8.4 114.651 8.4H115.113V6.706ZM122.109 10.92V10.206C122.109 7.826 120.625 6.664 118.875 6.664C117.041 6.664 115.403 7.924 115.403 10.444C115.403 12.95 117.013 14.154 118.833 14.154C120.303 14.154 121.689 13.356 122.053 11.83H120.429C120.177 12.404 119.589 12.656 118.903 12.656C117.867 12.656 117.125 12.096 117.083 10.92H122.109ZM118.861 8.162C119.799 8.162 120.401 8.694 120.401 9.646H117.125C117.279 8.596 118.035 8.162 118.861 8.162Z" fill="black"/>
<path d="M43.376 18.2H39.26V28H41.066V24.388H43.194C45.434 24.388 46.596 22.876 46.596 21.196C46.596 19.586 45.518 18.2 43.376 18.2ZM43.25 22.694H41.066V19.908H43.32C44.3 19.908 44.762 20.496 44.762 21.294C44.762 22.092 44.286 22.694 43.25 22.694ZM51.1238 18.2H47.7918V28H50.8998C54.4138 28 56.0238 25.382 56.0238 22.904C56.0238 20.468 54.4698 18.2 51.1238 18.2ZM50.9138 26.292H49.6118V19.908H51.1938C53.3078 19.908 54.1898 21.35 54.1898 22.904C54.1898 24.57 53.1818 26.292 50.9138 26.292ZM59.3194 23.898H63.7014V22.19H59.3194V19.908H64.0794V18.2H57.4994V28H59.3194V23.898ZM71.0681 24.92V24.206C71.0681 21.826 69.5841 20.664 67.8341 20.664C66.0001 20.664 64.3621 21.924 64.3621 24.444C64.3621 26.95 65.9721 28.154 67.7921 28.154C69.2621 28.154 70.6481 27.356 71.0121 25.83H69.3881C69.1361 26.404 68.5481 26.656 67.8621 26.656C66.8261 26.656 66.0841 26.096 66.0421 24.92H71.0681ZM67.8201 22.162C68.7581 22.162 69.3601 22.694 69.3601 23.646H66.0841C66.2381 22.596 66.9941 22.162 67.8201 22.162ZM73.9988 18.046H72.2628V28H73.9988V18.046ZM81.8973 24.92V24.206C81.8973 21.826 80.4133 20.664 78.6633 20.664C76.8293 20.664 75.1913 21.924 75.1913 24.444C75.1913 26.95 76.8013 28.154 78.6213 28.154C80.0913 28.154 81.4773 27.356 81.8413 25.83H80.2173C79.9653 26.404 79.3773 26.656 78.6913 26.656C77.6553 26.656 76.9133 26.096 76.8713 24.92H81.8973ZM78.6493 22.162C79.5873 22.162 80.1893 22.694 80.1893 23.646H76.9133C77.0673 22.596 77.8233 22.162 78.6493 22.162ZM90.834 20.664C89.532 20.664 88.986 21.336 88.706 21.854C88.37 21.098 87.656 20.664 86.69 20.664C85.598 20.664 85.024 21.28 84.8 21.854V20.79H83.092V28H84.828V23.94C84.828 22.75 85.388 22.232 86.2 22.232C86.928 22.232 87.362 22.624 87.362 23.478V28H89.098V23.954C89.098 22.736 89.658 22.232 90.484 22.232C91.226 22.232 91.632 22.624 91.632 23.478V28H93.368V23.142C93.368 21.588 92.388 20.664 90.834 20.664ZM101.189 24.92V24.206C101.189 21.826 99.7054 20.664 97.9554 20.664C96.1214 20.664 94.4834 21.924 94.4834 24.444C94.4834 26.95 96.0934 28.154 97.9134 28.154C99.3834 28.154 100.769 27.356 101.133 25.83H99.5094C99.2574 26.404 98.6694 26.656 97.9834 26.656C96.9474 26.656 96.2054 26.096 96.1634 24.92H101.189ZM97.9414 22.162C98.8794 22.162 99.4814 22.694 99.4814 23.646H96.2054C96.3594 22.596 97.1154 22.162 97.9414 22.162ZM106.304 20.664C105.1 20.664 104.512 21.168 104.106 21.84V20.79H102.384V28H104.12V24.108C104.12 22.932 104.666 22.218 105.702 22.218C106.556 22.218 107.046 22.694 107.046 23.506V28H108.782V23.352C108.782 21.63 107.942 20.664 106.304 20.664ZM114.148 26.46H113.406C112.678 26.46 112.538 26.096 112.538 25.592V22.358H113.98V20.79H112.538V18.69L110.802 19.166V20.79H109.486V22.358H110.802V25.662C110.802 27.594 111.656 28 113.014 28H114.148V26.46Z" fill="black"/>
<defs>
<filter id="filter0_i" x="0" y="0" width="32" height="32" filterUnits="userSpaceOnUse" color-interpolation-filters="sRGB">
<feFlood flood-opacity="0" result="BackgroundImageFix"/>
<feBlend mode="normal" in="SourceGraphic" in2="BackgroundImageFix" result="shape"/>
<feColorMatrix in="SourceAlpha" type="matrix" values="0 0 0 0 0 0 0 0 0 0 0 0 0 0 0 0 0 0 127 0" result="hardAlpha"/>
<feOffset/>
<feGaussianBlur stdDeviation="0.0625"/>
<feComposite in2="hardAlpha" operator="arithmetic" k2="-1" k3="1"/>
<feColorMatrix type="matrix" values="0 0 0 0 0 0 0 0 0 0 0 0 0 0 0 0 0 0 0.24 0"/>
<feBlend mode="darken" in2="shape" result="effect1_innerShadow"/>
</filter>
<linearGradient id="paint0_linear" x1="16" y1="0" x2="16" y2="32" gradientUnits="userSpaceOnUse">
<stop stop-color="#414C9A"/>
<stop offset="1" stop-color="#364295"/>
</linearGradient>
<clipPath id="clip0">
<rect width="32" height="32" fill="white"/>
</clipPath>
<clipPath id="clip1">
<rect width="32" height="32" rx="7.30097" fill="white"/>
</clipPath>
</defs>
</svg>
