<svg width="32" height="16" viewBox="0 0 32 16" fill="none" xmlns="http://www.w3.org/2000/svg">
<path d="M15 8C15 10.0228 14.142 11.8453 12.77 13.1232C11.5199 14.2876 9.84314 15 8 15C4.13401 15 1 11.866 1 8C1 4.13401 4.13401 1 8 1C10.3787 1 12.4804 2.18652 13.7453 4" stroke="#212648" stroke-linecap="round" stroke-linejoin="round"/>
<path d="M14 1C14 2.16667 14 4.5 14 4.5H11" stroke="#212648" stroke-linecap="round" stroke-linejoin="round"/>
<g opacity="0.4">
<path d="M31 8C31 10.0228 30.142 11.8453 28.77 13.1232C27.5199 14.2876 25.8431 15 24 15C20.134 15 17 11.866 17 8C17 4.13401 20.134 1 24 1C26.3787 1 28.4804 2.18652 29.7453 4" stroke="#212648" stroke-linecap="round" stroke-linejoin="round"/>
<path d="M30 1C30 2.16667 30 4.5 30 4.5H27" stroke="#212648" stroke-linecap="round" stroke-linejoin="round"/>
</g>
</svg>
