<svg width="48" height="48" viewBox="0 0 48 48" fill="none" xmlns="http://www.w3.org/2000/svg">
<path d="M4.5 1.5C4.5 0.671572 5.17158 0 6 0H31.5L43.5 12V46.5C43.5 47.3284 42.8284 48 42 48H6C5.17158 48 4.5 47.3284 4.5 46.5V1.5Z" fill="#2B388F"/>
<path d="M23.968 38.6501H14.25V28.9035L25.3928 28.9001V28.9525C24.5762 29.1481 23.969 29.8847 23.969 30.7643L23.968 38.6501Z" fill="white"/>
<path d="M14.25 27.8554H33.75V18.1055H14.25V27.8554Z" fill="white"/>
<path d="M31.5 0L43.5 12H33C32.1716 12 31.5 11.3315 31.5 10.5031C31.5 7.646 31.5 1.56028 31.5 0Z" fill="#2B388F"/>
<path d="M31.5 0L43.5 12H33C32.1716 12 31.5 11.3315 31.5 10.5031C31.5 7.646 31.5 1.56028 31.5 0Z" fill="white" fill-opacity="0.2"/>
<path fill-rule="evenodd" clip-rule="evenodd" d="M30.75 10.6875V0H31.5V10.6875C31.5 11.4124 32.0876 12 32.8124 12H43.5V12.75H32.8124C31.6734 12.75 30.75 11.8266 30.75 10.6875Z" fill="black" fill-opacity="0.2"/>
</svg>
