<svg width="16" height="16" viewBox="0 0 16 16" fill="none" xmlns="http://www.w3.org/2000/svg">
<path fill-rule="evenodd" clip-rule="evenodd" d="M3.81331 2.66672H14.3333C14.5174 2.66672 14.6666 2.81596 14.6666 3.00005V3.33338C14.6618 3.88664 14.5124 4.42902 14.2333 4.90672L12.6666 7.66005C12.3276 8.26936 11.6904 8.65269 10.9933 8.66672H6.83998C6.69589 8.66362 6.55267 8.64348 6.41331 8.60672L5.74665 10.0001H13C13.1841 10.0001 13.3333 10.1493 13.3333 10.3334V11C13.3333 11.1841 13.1841 11.3334 13 11.3334H4.66665C4.4842 11.3376 4.31358 11.2434 4.21998 11.0867L4.07331 10.8334C3.99623 10.685 3.99623 10.5084 4.07331 10.3601L5.31331 7.89338C5.2456 7.82188 5.18529 7.7437 5.13331 7.66005L2.27998 2.66672H1.66665C1.48255 2.66672 1.33331 2.51748 1.33331 2.33338V1.66672C1.33331 1.48262 1.48255 1.33338 1.66665 1.33338H2.27998C2.75823 1.33149 3.20086 1.58587 3.43998 2.00005L3.81331 2.66672ZM5.33333 12C4.59695 12 4 12.597 4 13.3334C4 14.0698 4.59695 14.6667 5.33333 14.6667C6.06971 14.6667 6.66666 14.0698 6.66666 13.3334C6.66666 12.597 6.06971 12 5.33333 12ZM13.3333 13.3334C13.3333 14.0698 12.7363 14.6667 12 14.6667C11.2636 14.6667 10.6666 14.0698 10.6666 13.3334C10.6666 12.597 11.2636 12 12 12C12.7363 12 13.3333 12.597 13.3333 13.3334Z" fill="#FF8450"/>
</svg>
