<svg width="120" height="32" viewBox="0 0 120 32" fill="none" xmlns="http://www.w3.org/2000/svg">
<path d="M16.5 13.5H25.5V20.5H16.5V13.5Z" stroke="white" stroke-linecap="round" stroke-linejoin="round"/>
<path d="M15 20L15 12H23V11H14.5C14.2239 11 14 11.2239 14 11.5L14 20H15Z" fill="white"/>
<rect width="40" height="32" transform="translate(40)" fill="#4351AE"/>
<path d="M56.5 13.5H65.5V20.5H56.5V13.5Z" stroke="white" stroke-linecap="round" stroke-linejoin="round"/>
<path d="M55 20L55 12H63V11H54.5C54.2239 11 54 11.2239 54 11.5L54 20H55Z" fill="white"/>
<rect width="40" height="32" transform="translate(80)" fill="#1A2780"/>
<path d="M96.5 13.5H105.5V20.5H96.5V13.5Z" stroke="white" stroke-linecap="round" stroke-linejoin="round"/>
<path d="M95 20L95 12H103V11H94.5C94.2239 11 94 11.2239 94 11.5L94 20H95Z" fill="white"/>
</svg>
