<svg width="16" height="16" viewBox="0 0 16 16" fill="none" xmlns="http://www.w3.org/2000/svg">
<path d="M0.5 2.5H2.5M15.5 2.5H13.5M13.5 2.5V14.5C13.5 15.0523 13.0523 15.5 12.5 15.5H3.5C2.94771 15.5 2.5 15.0523 2.5 14.5V2.5M13.5 2.5H10.5M2.5 2.5H5.5M10.5 2.5V1.5C10.5 0.947715 10.0523 0.5 9.5 0.5H6.5C5.94772 0.5 5.5 0.947715 5.5 1.5V2.5M10.5 2.5H5.5" stroke="#212648" stroke-linecap="round"/>
<rect x="6" y="7" width="1" height="4" rx="0.5" fill="#212648"/>
<rect x="9" y="7" width="1" height="4" rx="0.5" fill="#212648"/>
</svg>
