<svg width="32" height="16" viewBox="0 0 32 16" fill="none" xmlns="http://www.w3.org/2000/svg">
<path d="M15.5 11.5V2C15.5 1.72386 15.2761 1.5 15 1.5H2C1.72386 1.5 1.5 1.72386 1.5 2V15C1.5 15.2761 1.72386 15.5 2 15.5H11.5M15.5 11.5L11.5 15.5M15.5 11.5H12C11.7239 11.5 11.5 11.7239 11.5 12V15.5" stroke="#212648"/>
<g opacity="0.4">
<path d="M31.5 11.5V2C31.5 1.72386 31.2761 1.5 31 1.5H18C17.7239 1.5 17.5 1.72386 17.5 2V15C17.5 15.2761 17.7239 15.5 18 15.5H27.5M31.5 11.5L27.5 15.5M31.5 11.5H28C27.7239 11.5 27.5 11.7239 27.5 12V15.5" stroke="#212648"/>
</g>
</svg>
