<svg width="64" height="16" viewBox="0 0 64 16" fill="none" xmlns="http://www.w3.org/2000/svg">
<path d="M12 2.5H4C3.17157 2.5 2.5 3.17157 2.5 4V12C2.5 12.8284 3.17157 13.5 4 13.5H12C12.8284 13.5 13.5 12.8284 13.5 12V4C13.5 3.17157 12.8284 2.5 12 2.5Z" fill="white" stroke="#5C6182"/>
<path d="M28 2.5H20C19.1716 2.5 18.5 3.17157 18.5 4V12C18.5 12.8284 19.1716 13.5 20 13.5H28C28.8284 13.5 29.5 12.8284 29.5 12V4C29.5 3.17157 28.8284 2.5 28 2.5Z" fill="white" stroke="#212648"/>
<path d="M44 2.5H36C35.1716 2.5 34.5 3.17157 34.5 4V12C34.5 12.8284 35.1716 13.5 36 13.5H44C44.8284 13.5 45.5 12.8284 45.5 12V4C45.5 3.17157 44.8284 2.5 44 2.5Z" fill="#BCBDD1" stroke="#212648"/>
<path d="M51 4C51 3.44772 51.4477 3 52 3H60C60.5523 3 61 3.44772 61 4V12C61 12.5523 60.5523 13 60 13H52C51.4477 13 51 12.5523 51 12V4Z" fill="white"/>
<path d="M60 2.5H52C51.1716 2.5 50.5 3.17157 50.5 4V12C50.5 12.8284 51.1716 13.5 52 13.5H60C60.8284 13.5 61.5 12.8284 61.5 12V4C61.5 3.17157 60.8284 2.5 60 2.5Z" stroke="#212648" stroke-opacity="0.3"/>
</svg>
