<svg width="64" height="16" viewBox="0 0 64 16" fill="none" xmlns="http://www.w3.org/2000/svg">
<path d="M4 2.5C3.17157 2.5 2.5 3.17157 2.5 4V12C2.5 12.8284 3.17157 13.5 4 13.5H12C12.8284 13.5 13.5 12.8284 13.5 12V4C13.5 3.17157 12.8284 2.5 12 2.5H4Z" fill="#4864FF" stroke="#4864FF"/>
<path d="M4.5 7.5L7 10L11.5 5.5" stroke="white" stroke-width="2" stroke-linecap="round" stroke-linejoin="round"/>
<path d="M20 2.5C19.1716 2.5 18.5 3.17157 18.5 4V12C18.5 12.8284 19.1716 13.5 20 13.5H28C28.8284 13.5 29.5 12.8284 29.5 12V4C29.5 3.17157 28.8284 2.5 28 2.5H20Z" fill="#6A81FF" stroke="#6A81FF"/>
<path d="M20.5 7.5L23 10L27.5 5.5" stroke="white" stroke-width="2" stroke-linecap="round" stroke-linejoin="round"/>
<path d="M36 2.5C35.1716 2.5 34.5 3.17157 34.5 4V12C34.5 12.8284 35.1716 13.5 36 13.5H44C44.8284 13.5 45.5 12.8284 45.5 12V4C45.5 3.17157 44.8284 2.5 44 2.5H36Z" fill="#142FCC" stroke="#142FCC"/>
<path d="M36.5 7.5L39 10L43.5 5.5" stroke="white" stroke-width="2" stroke-linecap="round" stroke-linejoin="round"/>
<path d="M51 4C51 3.44772 51.4477 3 52 3H60C60.5523 3 61 3.44772 61 4V12C61 12.5523 60.5523 13 60 13H52C51.4477 13 51 12.5523 51 12V4Z" fill="#212648" fill-opacity="0.3"/>
<path d="M52 2.5C51.1716 2.5 50.5 3.17157 50.5 4V12C50.5 12.8284 51.1716 13.5 52 13.5H60C60.8284 13.5 61.5 12.8284 61.5 12V4C61.5 3.17157 60.8284 2.5 60 2.5H52Z" stroke="#212648" stroke-opacity="0.3"/>
<path d="M52.5 7.5L55 10L59.5 5.5" stroke="white" stroke-width="2" stroke-linecap="round" stroke-linejoin="round"/>
</svg>
