<svg width="16" height="16" viewBox="0 0 16 16" fill="none" xmlns="http://www.w3.org/2000/svg">
<path fill-rule="evenodd" clip-rule="evenodd" d="M3 2H1V3H3V2ZM3 6H1V7H3V6ZM1 10H3V11H1V10ZM12 2H4V3H12V2ZM6.99963 7C7.28403 6.62138 7.62092 6.28444 7.99951 6H4V7H6.99963ZM6 10H4V11H6.10002C6.03443 10.6769 6 10.3425 6 10Z" fill="#212648"/>
<path fill-rule="evenodd" clip-rule="evenodd" d="M6.5 10C6.5 8.067 8.067 6.5 10 6.5C11.933 6.5 13.5 8.067 13.5 10C13.5 11.933 11.933 13.5 10 13.5C8.067 13.5 6.5 11.933 6.5 10ZM10 5.5C7.51472 5.5 5.5 7.51472 5.5 10C5.5 12.4853 7.51472 14.5 10 14.5C11.0625 14.5 12.039 14.1318 12.8088 13.516L14.6464 15.3536L15.3536 14.6464L13.516 12.8088C14.1318 12.039 14.5 11.0625 14.5 10C14.5 7.51472 12.4853 5.5 10 5.5Z" fill="#212648"/>
</svg>
