<svg width="64" height="32" viewBox="0 0 64 32" fill="none" xmlns="http://www.w3.org/2000/svg">
<path d="M13.0981 23.5622L7.49999 27.2584L7.90192 20.5622L17.9019 3.2417L23.0981 6.2417L13.0981 23.5622Z" fill="#4864FF"/>
<path d="M26 20C26 23.866 22.866 27 19 27C15.134 27 12 23.866 12 20C12 16.134 15.134 13 19 13C22.866 13 26 16.134 26 20Z" fill="#27AE60"/>
<path fill-rule="evenodd" clip-rule="evenodd" d="M24.2071 18.2072L18.5 23.9143L14.7929 20.2072L16.2071 18.793L18.5 21.0859L22.7929 16.793L24.2071 18.2072Z" fill="white"/>
<g opacity="0.4">
<path d="M45.0981 23.5622L39.5 27.2584L39.9019 20.5622L49.9019 3.2417L55.0981 6.2417L45.0981 23.5622Z" fill="#4864FF"/>
<path d="M58 20C58 23.866 54.866 27 51 27C47.134 27 44 23.866 44 20C44 16.134 47.134 13 51 13C54.866 13 58 16.134 58 20Z" fill="#27AE60"/>
<path fill-rule="evenodd" clip-rule="evenodd" d="M56.2071 18.2072L50.5 23.9143L46.7929 20.2072L48.2071 18.793L50.5 21.0859L54.7929 16.793L56.2071 18.2072Z" fill="white"/>
</g>
</svg>
