<svg width="32" height="16" viewBox="0 0 32 16" fill="none" xmlns="http://www.w3.org/2000/svg">
<g opacity="0.4">
<path d="M28.6407 6.5505C29.0393 6.57413 29.4143 6.66788 29.7657 6.83175C30.117 6.99563 30.4217 7.21838 30.6797 7.5C30.9377 7.78163 31.137 8.09813 31.2777 8.4495C31.4183 8.80088 31.4886 9.18169 31.4886 9.59194C31.4886 10.0022 31.4125 10.389 31.2602 10.7524C31.108 11.1158 30.8912 11.4381 30.61 11.7193C30.3287 12.0006 30.0064 12.2233 29.643 12.3876C29.2797 12.5518 28.887 12.6339 28.4652 12.6339H20.2386C19.723 12.6339 19.2424 12.5344 18.7969 12.3353C18.3514 12.1361 17.9588 11.8665 17.619 11.5264C17.2793 11.1863 17.0097 10.7878 16.8102 10.3311C16.6107 9.87431 16.5111 9.38794 16.5115 8.87194C16.5115 8.47331 16.5702 8.08069 16.6875 7.69406C16.8049 7.30744 16.9808 6.95588 17.2152 6.63938C17.4495 6.32288 17.7308 6.04744 18.0589 5.81306C18.387 5.57869 18.7386 5.40281 19.1136 5.28544C19.3011 5.21494 19.4828 5.17388 19.6587 5.16225C19.8345 5.15063 20.0162 5.133 20.2037 5.10938C20.4149 4.78125 20.661 4.48819 20.9423 4.23019C21.2235 3.97219 21.54 3.75544 21.8918 3.57994C22.2435 3.40444 22.6069 3.26381 22.9819 3.15806C23.3569 3.05231 23.7319 2.99963 24.1069 3C24.6462 3 25.1618 3.08794 25.6538 3.26381C26.1458 3.43969 26.5911 3.68588 26.9897 4.00238C27.3884 4.31888 27.7341 4.69388 28.027 5.12738C28.3199 5.56088 28.525 6.03544 28.6424 6.55106L28.6407 6.5505ZM24.1058 3.94894C23.5665 3.94894 23.0451 4.06031 22.5415 4.28306C22.0379 4.50581 21.6102 4.82813 21.2584 5.25C21.4459 5.3205 21.6276 5.39081 21.8035 5.46094C21.9794 5.53106 22.1492 5.61319 22.3131 5.70731L25.2662 7.50056L27.3407 6.65681L27.6923 6.55106C27.5749 6.17606 27.399 5.8245 27.1647 5.49638C26.9303 5.16825 26.6549 4.89281 26.3384 4.67006C26.0219 4.44731 25.6761 4.27144 25.3011 4.14244C24.9261 4.01344 24.5277 3.94894 24.1058 3.94894V3.94894ZM17.9886 10.5583L24.2115 7.95675L21.8209 6.51506C21.5629 6.37444 21.2993 6.26306 21.03 6.18094C20.7608 6.09881 20.4854 6.05775 20.2037 6.05775C19.8287 6.05775 19.4714 6.13388 19.1316 6.28613C18.7919 6.43838 18.4988 6.6435 18.2524 6.9015C18.006 7.1595 17.8067 7.45838 17.6545 7.79813C17.5022 8.13788 17.4261 8.49525 17.4261 8.87025C17.4261 9.17513 17.4788 9.474 17.5842 9.76688C17.6895 10.0598 17.8244 10.3234 17.9886 10.5578V10.5583ZM28.4652 11.6833C28.6995 11.6833 28.9223 11.6481 29.1334 11.5776C29.3445 11.5071 29.5439 11.4015 29.7314 11.2609L25.1959 8.55356L18.762 11.2609C18.9964 11.4015 19.2366 11.5071 19.4826 11.5776C19.7286 11.6481 19.9806 11.6833 20.2386 11.6833H28.4652V11.6833ZM30.3282 10.5234C30.4924 10.2186 30.5745 9.90206 30.5745 9.57394C30.5745 9.24581 30.51 8.95275 30.381 8.69475C30.252 8.43675 30.088 8.214 29.8889 8.0265C29.6897 7.839 29.4495 7.69256 29.1683 7.58719C28.887 7.48181 28.594 7.42913 28.2891 7.42913C28.1016 7.42913 27.9199 7.45256 27.744 7.49944C27.5682 7.54631 27.3983 7.605 27.2344 7.6755L26.7422 7.88644L26.2849 8.09738L30.3282 10.5234Z" fill="#212648"/>
</g>
<path d="M12.6407 6.5505C13.0393 6.57413 13.4143 6.66788 13.7657 6.83175C14.117 6.99563 14.4217 7.21838 14.6797 7.5C14.9377 7.78163 15.137 8.09813 15.2777 8.4495C15.4183 8.80088 15.4886 9.18169 15.4886 9.59194C15.4886 10.0022 15.4125 10.389 15.2602 10.7524C15.108 11.1158 14.8912 11.4381 14.61 11.7193C14.3287 12.0006 14.0064 12.2233 13.643 12.3876C13.2797 12.5518 12.887 12.6339 12.4652 12.6339H4.2386C3.72298 12.6339 3.24241 12.5344 2.79691 12.3353C2.35141 12.1361 1.95879 11.8665 1.61904 11.5264C1.27929 11.1863 1.00966 10.7878 0.810163 10.3311C0.610663 9.87431 0.511101 9.38794 0.511476 8.87194C0.511476 8.47331 0.570163 8.08069 0.687538 7.69406C0.804913 7.30744 0.980788 6.95588 1.21516 6.63938C1.44954 6.32288 1.73079 6.04744 2.05891 5.81306C2.38704 5.57869 2.7386 5.40281 3.1136 5.28544C3.3011 5.21494 3.48279 5.17388 3.65866 5.16225C3.83454 5.15063 4.01623 5.133 4.20373 5.10938C4.41485 4.78125 4.66104 4.48819 4.94229 4.23019C5.22354 3.97219 5.54004 3.75544 5.89179 3.57994C6.24354 3.40444 6.60691 3.26381 6.98191 3.15806C7.35691 3.05231 7.73191 2.99963 8.10691 3C8.64616 3 9.16179 3.08794 9.65379 3.26381C10.1458 3.43969 10.5911 3.68588 10.9897 4.00238C11.3884 4.31888 11.7341 4.69388 12.027 5.12738C12.3199 5.56088 12.525 6.03544 12.6424 6.55106L12.6407 6.5505ZM8.10579 3.94894C7.56654 3.94894 7.0451 4.06031 6.54148 4.28306C6.03785 4.50581 5.61016 4.82813 5.25841 5.25C5.44591 5.3205 5.6276 5.39081 5.80348 5.46094C5.97935 5.53106 6.14923 5.61319 6.3131 5.70731L9.26623 7.50056L11.3407 6.65681L11.6923 6.55106C11.5749 6.17606 11.399 5.8245 11.1647 5.49638C10.9303 5.16825 10.6549 4.89281 10.3384 4.67006C10.0219 4.44731 9.6761 4.27144 9.3011 4.14244C8.9261 4.01344 8.52766 3.94894 8.10579 3.94894V3.94894ZM1.9886 10.5583L8.21154 7.95675L5.82091 6.51506C5.56291 6.37444 5.29929 6.26306 5.03004 6.18094C4.76079 6.09881 4.48535 6.05775 4.20373 6.05775C3.82873 6.05775 3.47135 6.13388 3.1316 6.28613C2.79185 6.43838 2.49879 6.6435 2.25241 6.9015C2.00604 7.1595 1.80673 7.45838 1.65448 7.79813C1.50223 8.13788 1.4261 8.49525 1.4261 8.87025C1.4261 9.17513 1.47879 9.474 1.58416 9.76688C1.68954 10.0598 1.82435 10.3234 1.9886 10.5578V10.5583ZM12.4652 11.6833C12.6995 11.6833 12.9223 11.6481 13.1334 11.5776C13.3445 11.5071 13.5439 11.4015 13.7314 11.2609L9.19591 8.55356L2.76204 11.2609C2.99641 11.4015 3.2366 11.5071 3.4826 11.5776C3.7286 11.6481 3.9806 11.6833 4.2386 11.6833H12.4652V11.6833ZM14.3282 10.5234C14.4924 10.2186 14.5745 9.90206 14.5745 9.57394C14.5745 9.24581 14.51 8.95275 14.381 8.69475C14.252 8.43675 14.088 8.214 13.8889 8.0265C13.6897 7.839 13.4495 7.69256 13.1683 7.58719C12.887 7.48181 12.594 7.42913 12.2891 7.42913C12.1016 7.42913 11.9199 7.45256 11.744 7.49944C11.5682 7.54631 11.3983 7.605 11.2344 7.6755L10.7422 7.88644L10.2849 8.09738L14.3282 10.5234Z" fill="#212648"/>
</svg>
