<svg width="48" height="24" viewBox="0 0 48 24" fill="none" xmlns="http://www.w3.org/2000/svg">
<rect x="5.5" y="2.5" width="12" height="12" fill="url(#paint0_linear)" stroke="#6A52FC"/>
<path d="M1 17H4.81818H18.1818H22V11H1V17Z" fill="#9CADC2"/>
<rect width="1" height="3" transform="matrix(1 0 0 -1 5 21)" fill="#6A52FC"/>
<rect width="1" height="4" transform="matrix(1 0 0 -1 8 22)" fill="#6A52FC"/>
<rect width="1" height="3" transform="matrix(1 0 0 -1 11 21)" fill="#6A52FC"/>
<rect width="1" height="4" transform="matrix(1 0 0 -1 14 22)" fill="#6A52FC"/>
<rect width="1" height="3" transform="matrix(1 0 0 -1 17 21)" fill="#6A52FC"/>
<rect x="3" y="13" width="2" height="1" fill="#526885"/>
<g opacity="0.4">
<rect x="29.5" y="2.5" width="12" height="12" fill="url(#paint1_linear)" stroke="#6A52FC"/>
<path d="M25 17H28.8182H42.1818H46V11H25V17Z" fill="#9CADC2"/>
<rect width="1" height="3" transform="matrix(1 0 0 -1 29 21)" fill="#6A52FC"/>
<rect width="1" height="4" transform="matrix(1 0 0 -1 32 22)" fill="#6A52FC"/>
<rect width="1" height="3" transform="matrix(1 0 0 -1 35 21)" fill="#6A52FC"/>
<rect width="1" height="4" transform="matrix(1 0 0 -1 38 22)" fill="#6A52FC"/>
<rect width="1" height="3" transform="matrix(1 0 0 -1 41 21)" fill="#6A52FC"/>
<rect x="27" y="13" width="2" height="1" fill="#526885"/>
</g>
<defs>
<linearGradient id="paint0_linear" x1="11.5" y1="2" x2="11.5" y2="15" gradientUnits="userSpaceOnUse">
<stop stop-color="#8CA5FF"/>
<stop offset="1" stop-color="#7B72FB"/>
</linearGradient>
<linearGradient id="paint1_linear" x1="35.5" y1="2" x2="35.5" y2="15" gradientUnits="userSpaceOnUse">
<stop stop-color="#8CA5FF"/>
<stop offset="1" stop-color="#7B72FB"/>
</linearGradient>
</defs>
</svg>
