<svg width="198" height="119" viewBox="0 0 198 119" fill="none" xmlns="http://www.w3.org/2000/svg">
<path d="M20.5 44.1506L52.5429 25.6506L40.0429 4L8 22.5L20.5 44.1506Z" fill="white"/>
<path d="M20.5 44.1506L22.2321 43.1506L9.73205 21.5L8 22.5L20.5 44.1506Z" fill="#70D5A4"/>
<path d="M16.0622 22.4641L17.0622 24.1961L38.7128 11.6961L37.7128 9.9641L16.0622 22.4641Z" fill="#D4D8D6"/>
<path d="M18.0622 25.9282L19.0622 27.6603L32.0526 20.1603L31.0526 18.4282L18.0622 25.9282Z" fill="#D4D8D6"/>
<path d="M32.1294 30.2934C33.4165 31.127 33.797 32.4839 34.323 30.6036C34.849 28.7233 34.6177 26.2291 36.0577 28.0254C37.4977 29.8218 36.8187 30.7393 38.6951 22.8239C40.1962 16.4915 41.2928 23.6015 41.6535 27.948C42.3051 25.82 43.0624 22.5893 44.4439 23.7092C45.2012 24.3231 44.4241 26.6988 43.9963 27.1209" stroke="#979AB8" stroke-linecap="round" stroke-linejoin="round"/>
<g clip-path="url(#clip0)">
<rect width="59" height="39" transform="translate(73.3494 21) rotate(13.8705)" fill="white"/>
<g clip-path="url(#clip1)">
<rect width="51" height="31" transform="translate(76.2738 25.8423) rotate(13.8705)" fill="#F5F4FF"/>
<circle opacity="0.2" cx="77.0049" cy="27.0528" r="11" transform="rotate(13.8705 77.0049 27.0528)" fill="#F4C343"/>
<circle cx="76.6394" cy="26.4475" r="6.5" transform="rotate(13.8705 76.6394 26.4475)" fill="#FFD669"/>
<path d="M108.099 44.0011L83.9907 65.5044L119.426 74.2551L108.099 44.0011Z" fill="white"/>
<mask id="mask0" mask-type="alpha" maskUnits="userSpaceOnUse" x="83" y="44" width="37" height="31">
<path d="M108.099 44.0011L83.9907 65.5044L119.426 74.2551L108.099 44.0011Z" fill="#DDDAFF"/>
</mask>
<g mask="url(#mask0)">
<path d="M102.574 50.5125L99.6124 46.648L79.9347 66.07L123.491 76.8253L115.854 50.6585L110.139 51.5972L106.995 48.471L102.574 50.5125Z" fill="#45B1FC"/>
</g>
<path d="M87.2524 48.1239L70.5561 61.5117L95.7979 67.7446L87.2524 48.1239Z" fill="#40C8FF"/>
</g>
</g>
<path d="M39.6215 110.909L34.7995 112.201L24 61.0415L103.5 61.0416L114.166 90.9349L39.6215 110.909Z" fill="#565FC6"/>
<path d="M26.7184 96.3966L50.7666 78.461L34.0267 56.0161L20.0321 53.9785L4 65.9356L26.7184 96.3966Z" fill="white"/>
<path d="M26.0106 61.9946L34.0267 56.0161L20.0321 53.9785L26.0106 61.9946Z" fill="#5379FF"/>
<path d="M35.7151 74.8266L33.1422 76.7164L29.7931 73.7734C29.6485 73.6535 29.3752 73.4047 28.9734 73.0269C28.5752 72.6465 28.2499 72.3229 27.9973 72.056C28.1433 72.3163 28.314 72.6489 28.5096 73.0537C28.7025 73.4549 28.8751 73.8285 29.0275 74.1746C29.1836 74.518 29.8022 75.9183 30.8833 78.3756L28.3104 80.2654L20.3997 73.6755L22.4988 72.1337L26.341 75.5287C27.1949 76.2755 27.8529 76.8864 28.3148 77.3614C28.0874 76.9517 27.7982 76.3809 27.4473 75.6491C27.1001 74.9146 26.8246 74.2971 26.6209 73.7964L25.0937 70.2277L27.1102 68.7466L30.0367 71.2875C30.5131 71.6896 31.0466 72.1658 31.6372 72.7158C32.2278 73.2659 32.6593 73.684 32.9317 73.9702C32.68 73.5275 32.2911 72.7247 31.7649 71.5618L29.6831 66.8568L31.7822 65.315L35.7151 74.8266Z" fill="#5379FF"/>
<path d="M143.472 74.554L173.033 69.4449L168.265 41.8539L156.708 33.7031L137 37.1092L143.472 74.554Z" fill="white"/>
<path d="M158.411 43.557L168.265 41.8539L156.708 33.7031L158.411 43.557Z" fill="#ED8662"/>
<path d="M159.464 52.7802C159.646 53.8817 159.461 54.7877 158.909 55.498C158.36 56.203 157.488 56.6544 156.292 56.8521L155.543 56.9758L156.084 60.2469L153.42 60.6872L151.79 50.8269L155.202 50.2628C156.448 50.0569 157.428 50.1743 158.143 50.6151C158.858 51.0558 159.298 51.7775 159.464 52.7802ZM155.184 54.8041L155.67 54.7238C156.07 54.6577 156.368 54.4929 156.565 54.2294C156.766 53.9652 156.834 53.6353 156.768 53.2396C156.658 52.5742 156.235 52.3024 155.497 52.4243L154.809 52.538L155.184 54.8041Z" fill="#ED8662"/>
<path d="M39.8256 112.667H34.8335V42.1667H63.1668L77.3335 57.5H129V67.3334V112.667H39.8256Z" fill="url(#paint0_linear)"/>
<path d="M111 96.5772L142.245 114.617L159.082 85.4545L154.68 69.0263L133.85 57L111 96.5772Z" fill="white"/>
<path d="M148.666 79.4412L159.082 85.4544L154.68 69.0262L148.666 79.4412Z" fill="#70D4A4"/>
<path d="M139.109 96.2189L135.869 94.3166L135.751 89.8903L131.849 91.9563L128.68 90.0956L135.232 86.8115L134.971 79.8513L138.076 81.6746L138.067 85.9781L141.749 83.8309L144.946 85.7083L138.563 89.0627L139.109 96.2189Z" fill="#70D4A4"/>
<defs>
<linearGradient id="paint0_linear" x1="62.6148" y1="36.1667" x2="76.1195" y2="105.991" gradientUnits="userSpaceOnUse">
<stop stop-color="#5AE1FF"/>
<stop offset="1" stop-color="#30A8FF"/>
</linearGradient>
<clipPath id="clip0">
<rect width="59" height="39" fill="white" transform="translate(73.3494 21) rotate(13.8705)"/>
</clipPath>
<clipPath id="clip1">
<rect width="51" height="31" fill="white" transform="translate(76.2738 25.8423) rotate(13.8705)"/>
</clipPath>
</defs>
</svg>
