<svg width="32" height="16" viewBox="0 0 32 16" fill="none" xmlns="http://www.w3.org/2000/svg">
<path d="M13 6.5C13 6.77614 13.2239 7 13.5 7C13.7761 7 14 6.77614 14 6.5H13ZM9.5 16C9.77614 16 10 15.7761 10 15.5C10 15.2239 9.77614 15 9.5 15V16ZM13.2071 4.20711L13.5607 3.85355L13.2071 4.20711ZM10.7929 1.79289L10.4393 2.14645L10.7929 1.79289ZM2.5 2H10.0858V1H2.5V2ZM10.4393 2.14645L12.8536 4.56066L13.5607 3.85355L11.1464 1.43934L10.4393 2.14645ZM2 14.5V2.5H1V14.5H2ZM13 4.91421V6.5H14V4.91421H13ZM9.5 15H2.5V16H9.5V15ZM1 14.5C1 15.3284 1.67157 16 2.5 16V15C2.22386 15 2 14.7761 2 14.5H1ZM12.8536 4.56066C12.9473 4.65443 13 4.78161 13 4.91421H14C14 4.51639 13.842 4.13486 13.5607 3.85355L12.8536 4.56066ZM10.0858 2C10.2184 2 10.3456 2.05268 10.4393 2.14645L11.1464 1.43934C10.8651 1.15804 10.4836 1 10.0858 1V2ZM2.5 1C1.67157 1 1 1.67157 1 2.5H2C2 2.22386 2.22386 2 2.5 2V1Z" fill="#212648"/>
<path d="M9.5 11.5H12.5M15.5 11.5H12.5M12.5 11.5V8.5V14.5" stroke="#212648" stroke-linecap="round" stroke-linejoin="round"/>
<g opacity="0.4">
<path d="M29 6.5C29 6.77614 29.2239 7 29.5 7C29.7761 7 30 6.77614 30 6.5H29ZM25.5 16C25.7761 16 26 15.7761 26 15.5C26 15.2239 25.7761 15 25.5 15V16ZM29.2071 4.20711L29.5607 3.85355L29.2071 4.20711ZM26.7929 1.79289L26.4393 2.14645L26.7929 1.79289ZM18.5 2H26.0858V1H18.5V2ZM26.4393 2.14645L28.8536 4.56066L29.5607 3.85355L27.1464 1.43934L26.4393 2.14645ZM18 14.5V2.5H17V14.5H18ZM29 4.91421V6.5H30V4.91421H29ZM25.5 15H18.5V16H25.5V15ZM17 14.5C17 15.3284 17.6716 16 18.5 16V15C18.2239 15 18 14.7761 18 14.5H17ZM28.8536 4.56066C28.9473 4.65443 29 4.78161 29 4.91421H30C30 4.51639 29.842 4.13486 29.5607 3.85355L28.8536 4.56066ZM26.0858 2C26.2184 2 26.3456 2.05268 26.4393 2.14645L27.1464 1.43934C26.8651 1.15804 26.4836 1 26.0858 1V2ZM18.5 1C17.6716 1 17 1.67157 17 2.5H18C18 2.22386 18.2239 2 18.5 2V1Z" fill="#212648"/>
<path d="M25.5 11.5H28.5M31.5 11.5H28.5M28.5 11.5V8.5V14.5" stroke="#212648" stroke-linecap="round" stroke-linejoin="round"/>
</g>
</svg>
