<svg width="24" height="24" viewBox="0 0 24 24" fill="none" xmlns="http://www.w3.org/2000/svg">
<path fill-rule="evenodd" clip-rule="evenodd" d="M12 19C15.866 19 19 15.866 19 12C19 8.13401 15.866 5 12 5C8.13401 5 5 8.13401 5 12C5 15.866 8.13401 19 12 19ZM13 15C13 15.5523 12.5523 16 12 16C11.4477 16 11 15.5523 11 15C11 14.4477 11.4477 14 12 14C12.5523 14 13 14.4477 13 15ZM11.0995 8.99504L11.4502 12.5025C11.4785 12.7849 11.7162 13 12 13C12.2838 13 12.5215 12.7849 12.5498 12.5025L12.9005 8.99504C12.9538 8.46228 12.5354 8 12 8C11.4646 8 11.0462 8.46228 11.0995 8.99504Z" fill="white"/>
</svg>
