<svg width="48" height="24" viewBox="0 0 48 24" fill="none" xmlns="http://www.w3.org/2000/svg">
<path fill-rule="evenodd" clip-rule="evenodd" d="M3.75174 8H14V19.6264C13.2096 19.8693 12.3701 20 11.5 20C6.80558 20 3 16.1944 3 11.5C3 10.2523 3.26883 9.06737 3.75174 8Z" fill="#86B8F1"/>
<circle cx="11.5" cy="11.5" r="9" fill="url(#paint0_linear)" fill-opacity="0.8" stroke="#6A52FC"/>
<path d="M18 18L23.5 23.5" stroke="#6A52FC"/>
<g opacity="0.4">
<path fill-rule="evenodd" clip-rule="evenodd" d="M27.7517 8H38V19.6264C37.2096 19.8693 36.3701 20 35.5 20C30.8056 20 27 16.1944 27 11.5C27 10.2523 27.2688 9.06737 27.7517 8Z" fill="#86B8F1"/>
<circle cx="35.5" cy="11.5" r="9" fill="url(#paint1_linear)" fill-opacity="0.8" stroke="#6A52FC"/>
<path d="M42 18L47.5 23.5" stroke="#6A52FC"/>
</g>
<defs>
<linearGradient id="paint0_linear" x1="9.13889" y1="3" x2="14.8056" y2="20" gradientUnits="userSpaceOnUse">
<stop stop-color="#8CC8FF"/>
<stop offset="1" stop-color="#7066FB"/>
</linearGradient>
<linearGradient id="paint1_linear" x1="33.1389" y1="3" x2="38.8056" y2="20" gradientUnits="userSpaceOnUse">
<stop stop-color="#8CC8FF"/>
<stop offset="1" stop-color="#7066FB"/>
</linearGradient>
</defs>
</svg>
