<svg width="32" height="16" viewBox="0 0 32 16" fill="none" xmlns="http://www.w3.org/2000/svg">
<path fill-rule="evenodd" clip-rule="evenodd" d="M3.5 6.00012C3.22386 6.00012 3 6.22398 3 6.50012V13.5001C3 13.7763 3.22386 14.0001 3.5 14.0001H12.5C12.7761 14.0001 13 13.7763 13 13.5001V6.50012C13 6.22398 12.7761 6.00012 12.5 6.00012H3.5ZM4 13.0001V7.00012H12V13.0001H4ZM6.5 8.99999C6.22386 8.99999 6 9.22384 6 9.49999C6 9.77613 6.22386 9.99999 6.5 9.99999H9.5C9.77614 9.99999 10 9.77613 10 9.49999C10 9.22384 9.77614 8.99999 9.5 8.99999H6.5Z" fill="#212648"/>
<path d="M5.5 6V5C5.5 3.61929 6.61929 2.5 8 2.5V2.5C9.38071 2.5 10.5 3.61929 10.5 5V6" stroke="#212648"/>
<path fill-rule="evenodd" clip-rule="evenodd" d="M19.5 6.00012C19.2239 6.00012 19 6.22398 19 6.50012V13.5001C19 13.7763 19.2239 14.0001 19.5 14.0001H28.5C28.7761 14.0001 29 13.7763 29 13.5001V6.50012C29 6.22398 28.7761 6.00012 28.5 6.00012H19.5ZM20 13.0001V7.00012H28V13.0001H20ZM22.5 8.99999C22.2239 8.99999 22 9.22384 22 9.49999C22 9.77613 22.2239 9.99999 22.5 9.99999H25.5C25.7761 9.99999 26 9.77613 26 9.49999C26 9.22384 25.7761 8.99999 25.5 8.99999H22.5Z" fill="#212648" fill-opacity="0.3"/>
<path d="M21.5 6V5C21.5 3.61929 22.6193 2.5 24 2.5V2.5C25.3807 2.5 26.5 3.61929 26.5 5V6" stroke="#212648" stroke-opacity="0.3"/>
</svg>
