<svg width="48" height="24" viewBox="0 0 48 24" fill="none" xmlns="http://www.w3.org/2000/svg">
<path d="M3.5 3C3.5 2.72386 3.72386 2.5 4 2.5H20C20.2761 2.5 20.5 2.72386 20.5 3V20.3005C20.5 20.6817 20.0904 20.9227 19.7572 20.7376L12.7285 16.8327C12.2754 16.581 11.7246 16.581 11.2715 16.8327L4.24282 20.7376C3.90956 20.9227 3.5 20.6817 3.5 20.3005V3Z" stroke="#5C6182"/>
<path d="M28 2.5H44C44.2761 2.5 44.5 2.72386 44.5 3V20.3005C44.5 20.6817 44.0904 20.9227 43.7572 20.7376L36.7285 16.8327C36.2754 16.581 35.7246 16.581 35.2715 16.8327L28.2428 20.7376C27.9096 20.9227 27.5 20.6817 27.5 20.3005V3C27.5 2.72386 27.7239 2.5 28 2.5Z" stroke="#4864FF"/>
</svg>
