<svg width="48" height="24" viewBox="0 0 48 24" fill="none" xmlns="http://www.w3.org/2000/svg">
<rect x="3.5" y="3.5" width="17" height="17" stroke="#6A52FC"/>
<rect x="2.5" y="21.5" width="2" height="2" transform="rotate(-90 2.5 21.5)" fill="white" stroke="#6A52FC"/>
<rect x="19.5" y="4.5" width="2" height="2" transform="rotate(-90 19.5 4.5)" fill="white" stroke="#6A52FC"/>
<rect x="19.5" y="21.5" width="2" height="2" transform="rotate(-90 19.5 21.5)" fill="white" stroke="#6A52FC"/>
<rect x="2.5" y="4.5" width="2" height="2" transform="rotate(-90 2.5 4.5)" fill="white" stroke="#6A52FC"/>
<path d="M7 7H17V10H15V9H13V15H14V17H10V15H11V9H9V10H7V7.95455V7Z" fill="#6A52FC"/>
<g opacity="0.4">
<rect x="27.5" y="3.5" width="17" height="17" stroke="#6A52FC"/>
<rect x="26.5" y="21.5" width="2" height="2" transform="rotate(-90 26.5 21.5)" fill="white" stroke="#6A52FC"/>
<rect x="43.5" y="4.5" width="2" height="2" transform="rotate(-90 43.5 4.5)" fill="white" stroke="#6A52FC"/>
<rect x="43.5" y="21.5" width="2" height="2" transform="rotate(-90 43.5 21.5)" fill="white" stroke="#6A52FC"/>
<rect x="26.5" y="4.5" width="2" height="2" transform="rotate(-90 26.5 4.5)" fill="white" stroke="#6A52FC"/>
<path d="M31 7H41V10H39V9H37V15H38V17H34V15H35V9H33V10H31V7.95455V7Z" fill="#6A52FC"/>
</g>
</svg>
