<svg width="512" height="40" viewBox="0 0 512 40" fill="none" xmlns="http://www.w3.org/2000/svg">
<path d="M0 20C0 8.95431 8.95431 0 20 0H108C119.046 0 128 8.95431 128 20V20C128 31.0457 119.046 40 108 40H20C8.95431 40 0 31.0457 0 20V20Z" fill="white"/>
<path d="M128 20C128 8.95431 136.954 0 148 0H236C247.046 0 256 8.95431 256 20V20C256 31.0457 247.046 40 236 40H148C136.954 40 128 31.0457 128 20V20Z" fill="#F5F5F5"/>
<path d="M256 20C256 8.95431 264.954 0 276 0H364C375.046 0 384 8.95431 384 20V20C384 31.0457 375.046 40 364 40H276C264.954 40 256 31.0457 256 20V20Z" fill="#EBEBEB"/>
<path d="M384 20C384 8.95431 392.954 0 404 0H492C503.046 0 512 8.95431 512 20V20C512 31.0457 503.046 40 492 40H404C392.954 40 384 31.0457 384 20V20Z" fill="black" fill-opacity="0.08"/>
</svg>
